<svg width="24" height="19" viewBox="0 0 24 19" fill="none" xmlns="http://www.w3.org/2000/svg">
<path d="M22.9999 3.04385C22.9999 2.75846 22.884 2.48475 22.6777 2.28295C22.4714 2.08115 22.1916 1.96777 21.8999 1.96777H2.09999C1.80826 1.96777 1.52847 2.08115 1.32218 2.28295C1.11589 2.48475 1 2.75846 1 3.04385V5.55471H22.9999V3.04385Z" fill="#CDCBDA"/>
<path d="M1 5.55469V15.8031C1 16.1292 1.11589 16.442 1.32218 16.6727C1.52847 16.9033 1.80826 17.0329 2.09999 17.0329H21.8999C22.1916 17.0329 22.4714 16.9033 22.6777 16.6727C22.884 16.442 22.9999 16.1292 22.9999 15.8031V5.55469" fill="#EBEBF2"/>
<path opacity="0.2" d="M5.0791 1.62012L21.1894 17.3802H21.6134C21.9507 17.3802 22.2742 17.2491 22.5127 17.0158C22.7512 16.7825 22.8852 16.466 22.8852 16.136V15.7213L8.47075 1.62012H5.0791ZM22.8852 12.4448V6.22372L18.1369 1.62012H11.6928L22.8852 12.4448Z" fill="white"/>
<path d="M1.7334 5.93228V3.15713C1.7334 2.84169 1.84929 2.53917 2.05558 2.31613C2.26187 2.09308 2.54166 1.96777 2.83339 1.96777H21.1666C21.4584 1.96777 21.7381 2.09308 21.9444 2.31613C22.1507 2.53917 22.2666 2.84169 22.2666 3.15713V5.93228M1.7334 5.93228H22.2666M1.7334 5.93228V15.8435C1.7334 16.159 1.84929 16.4615 2.05558 16.6845C2.26187 16.9076 2.54166 17.0329 2.83339 17.0329H21.1666C21.4584 17.0329 21.7381 16.9076 21.9444 16.6845C22.1507 16.4615 22.2666 16.159 22.2666 15.8435V5.93228M4.66671 9.10389H12M17.1333 9.10389H19.3333M4.66671 12.2755H7.60003" stroke="#A5A3B8" stroke-width="1.2" stroke-linecap="round" stroke-linejoin="round"/>
</svg>
