<svg width="32" height="32" viewBox="0 0 32 32" fill="none" xmlns="http://www.w3.org/2000/svg">
<path fill-rule="evenodd" clip-rule="evenodd" d="M8.22153 8.22183C7.63575 8.80761 7.63575 9.75736 8.22153 10.3431L13.8784 16L8.22153 21.6569C7.63575 22.2426 7.63575 23.1924 8.22153 23.7782C8.80732 24.364 9.75707 24.364 10.3429 23.7782L15.9997 18.1213L21.6566 23.7782C22.2423 24.364 23.1921 24.364 23.7779 23.7782C24.3637 23.1924 24.3637 22.2426 23.7779 21.6569L18.121 16L23.7779 10.3431C24.3637 9.75736 24.3637 8.80761 23.7779 8.22183C23.1921 7.63604 22.2423 7.63604 21.6566 8.22183L15.9997 13.8787L10.3429 8.22183C9.75707 7.63604 8.80732 7.63604 8.22153 8.22183Z" fill="#4D4D4D" style="mix-blend-mode:color-burn"/>
<path fill-rule="evenodd" clip-rule="evenodd" d="M8.22153 8.22183C7.63575 8.80761 7.63575 9.75736 8.22153 10.3431L13.8784 16L8.22153 21.6569C7.63575 22.2426 7.63575 23.1924 8.22153 23.7782C8.80732 24.364 9.75707 24.364 10.3429 23.7782L15.9997 18.1213L21.6566 23.7782C22.2423 24.364 23.1921 24.364 23.7779 23.7782C24.3637 23.1924 24.3637 22.2426 23.7779 21.6569L18.121 16L23.7779 10.3431C24.3637 9.75736 24.3637 8.80761 23.7779 8.22183C23.1921 7.63604 22.2423 7.63604 21.6566 8.22183L15.9997 13.8787L10.3429 8.22183C9.75707 7.63604 8.80732 7.63604 8.22153 8.22183Z" fill="white"/>
</svg>
