<svg width="381" height="261" viewBox="0 0 381 261" fill="none" xmlns="http://www.w3.org/2000/svg">
<path d="M280.331 96.8184C279.994 97.0262 279.603 97.1309 279.207 97.1196Z" fill="#A1EDFF"/>
<path d="M65.1553 182.406C32.6476 227.629 22.5753 271.644 93.6993 235.973C153.833 201.671 203.473 151.813 252.072 103.105L252.143 103.164C204.413 152.823 154.34 202.44 93.9966 236.541C22.358 272.082 31.919 227.824 65.0753 182.316L65.1553 182.406Z" fill="#7AB9C4"/>
<path d="M67.0615 189.515C34.5539 234.738 24.4843 278.764 95.6083 243.093C155.739 208.78 205.382 158.933 253.978 110.215L254.052 110.284C206.322 159.943 156.249 209.56 95.9057 243.661C24.2838 279.265 33.8364 234.975 66.9899 189.456L67.0615 189.515Z" fill="#7AB9C4"/>
<path d="M265.684 75.1687C266.067 75.8482 234.905 89.6615 239.289 90.6206L247.388 89.8694C251.118 89.7975 234.011 102.939 234.378 103.31C232.849 106.513 243.762 101.567 243.227 104.235C244.03 103.942 232.548 133.286 236.27 130.523C236.953 130.575 252.984 111.129 253.578 113.595C254.101 113.757 256.748 124.757 258.174 122.419L265.357 108.964C266.715 107.081 270.862 115.31 272.192 113.323L279.91 96.3278C281.166 94.3936 285.098 103.407 286.07 100.666C286.022 99.9859 287.646 86.1436 285.481 86.4332L278.394 89.7957C277.17 90.3473 277.641 87.4837 276.299 88.6811L268.762 98.5217C264.951 100.582 272.692 86.5863 269.048 88.3896L262.671 94.5675C262.558 94.6998 262.398 94.782 262.225 94.7959C262.052 94.8098 261.88 94.7543 261.748 94.6416C261.615 94.5289 261.533 94.3682 261.519 94.1949C261.505 94.0216 261.561 93.8498 261.673 93.7175C261.389 93.3243 271.539 80.9513 268.435 81.4814C267.764 81.393 262.97 83.4038 263.686 81.3686C263.622 80.8828 268.441 74.5081 265.651 75.2556" fill="#FF9810"/>
<path d="M285.53 86.4874L278.453 89.8471C277.229 90.3987 277.697 87.5247 276.358 88.7325C275.908 88.5515 267.746 101.934 267.681 97.9847L270.178 89.0254C270.048 84.9599 261.374 98.3451 261.723 93.6932L269.135 82.4673C270.018 80.3089 265.056 82.4429 264.416 82.3016C262.003 82.4565 266.611 76.7528 266.559 76.1412C267.72 72.8134 254.835 81.5171 254.526 81.1976L245.356 89.4867C245.274 89.5648 245.213 89.6631 245.179 89.7719C245.146 89.8808 245.141 89.9964 245.166 90.1076C245.7 90.1878 247.887 89.4791 248.079 90.3214C248.764 90.6295 254.685 88.4954 254.209 90.422L246.186 116.023C245.594 120.517 263.305 98.8892 263.499 99.5299C264.879 97.8528 267.481 108.228 267.993 108.515C269.038 111.375 275.845 95.0598 276.348 95.1039C277.109 93.7826 278.989 96.843 279.577 97.1212C280.61 94.1071 282.047 98.0124 283.313 99.1589L286.48 92.199C286.07 89.918 287.468 86.5601 285.513 86.4248" fill="#FF8212"/>
<path d="M254.266 91.0544C254.848 91.1442 245.769 114.012 248.745 112.086L261.727 98.3732C261.788 98.3095 261.864 98.2622 261.948 98.2355C262.032 98.2088 262.121 98.2037 262.208 98.2204C262.295 98.2372 262.376 98.2755 262.444 98.3317C262.512 98.3878 262.565 98.4602 262.598 98.5421C263.03 98.7392 265.132 107.416 266.267 105.615L272.016 94.8453C272.055 94.773 272.11 94.7107 272.177 94.6635C272.245 94.6163 272.322 94.5854 272.403 94.5734C272.485 94.5614 272.568 94.5685 272.646 94.5943C272.724 94.62 272.795 94.6636 272.853 94.7216C273.326 94.863 276.925 99.7195 277.49 98.3282L282.082 88.2376C275.063 92.1854 279.23 87.7506 276.445 88.8095C276.001 88.6493 267.813 102.016 267.771 98.0721C267.47 97.6163 272.037 86.8064 269.177 88.4555L262.8 94.6333C258.725 96.3286 269.361 83.1885 269.002 82.9719C268.935 82.7217 269.26 82.3552 269.375 82.157C269.369 82.0636 269.343 81.9725 269.299 81.89C269.255 81.8075 269.194 81.7355 269.119 81.679C269.045 81.6225 268.959 81.5829 268.868 81.5628C268.776 81.5427 268.682 81.5426 268.591 81.5626C260.303 83.9398 264.972 80.2977 266.684 76.1966C267.578 73.1193 258.281 79.7666 257.781 79.5655C260.094 79.8729 247.389 89.6233 247.558 90.0027C247.694 90.0044 247.827 90.0487 247.937 90.1293C248.047 90.2099 248.13 90.3228 248.173 90.4524C248.217 90.582 248.219 90.7219 248.179 90.8526C248.139 90.9834 248.06 91.0984 247.952 91.1819C248.44 91.42 254.769 89.4781 254.292 91.0696" fill="#FCD200"/>
<path d="M270.45 41.9932L259.673 47.1154C258.041 47.0611 252.357 63.779 251.561 64.9308C250.46 67.6503 252.827 69.653 254.778 67.566L258.747 63.2288C259.294 62.3559 264.579 61.0517 265.5 60.6596C267.685 60.4875 271.818 46.7661 272.807 45.2944C273.701 43.1333 272.279 41.1569 270.458 42.0245" fill="#FB5373"/>
<path d="M316.854 75.9487L315.285 87.7876C315.842 89.3255 301.655 99.8306 300.801 100.931C298.551 102.819 295.931 101.118 297.329 98.6768L300.245 93.5716C300.914 92.7779 300.538 87.3369 300.642 86.3484C300.135 84.2496 311.929 76.0952 313.016 74.6979C314.844 73.1914 317.12 73.9444 316.843 75.907" fill="#FB5373"/>
<path d="M267.3 58.9707C269.487 51.2678 281.144 35.1504 263.149 45.5586C263.112 50.7622 263.526 55.9595 264.388 61.0918C265.015 61.0195 265.612 60.7862 266.123 60.4146C266.633 60.043 267.039 59.5456 267.3 58.9707" fill="#D33D65"/>
<path d="M301.732 83.9668C308.475 79.6126 320.337 63.6751 315.708 83.9983C310.77 85.5604 305.704 86.6896 300.57 87.3731C300.462 86.7463 300.517 86.1024 300.729 85.5033C300.942 84.9042 301.305 84.3702 301.784 83.9528" fill="#D33D65"/>
<path d="M265.215 65.6748C253.826 69.8438 264.312 81.458 272.297 88.3572C281.278 93.8946 295.472 100.359 296.016 88.2361C286.57 89.2476 266.275 75.167 265.215 65.6748Z" fill="#FB5373"/>
<path d="M277.407 81.2003C266.931 73.706 265.258 65.6295 265.158 65.5893L262.134 67.2934C264.906 76.8071 284.672 90.5379 295.756 89.1433L295.966 88.1373C289.252 87.5856 282.818 85.1879 277.375 81.2086" fill="#D33D65"/>
<path d="M330.048 55.2409L337.717 19.9919C339.02 5.28584 330.854 -0.581734 317.334 5.08557C302.403 15.6448 285.133 18.3506 273.011 37.3969C256.97 59.1803 265.292 79.6199 289.491 87.6603C304.941 94.9837 329.003 64.4144 330.061 55.2486" fill="#E9F0F2"/>
<g style="mix-blend-mode:multiply">
<g style="mix-blend-mode:multiply">
<g style="mix-blend-mode:multiply">
<g style="mix-blend-mode:multiply">
<path d="M320.601 57.1242C304.658 78.7699 271.662 54.5957 287.407 32.8355C303.354 11.2003 336.357 35.3612 320.601 57.1242Z" fill="#E9F0F2"/>
</g>
</g>
</g>
</g>
<path d="M318.007 55.227C304.559 73.489 276.715 53.0961 290.002 34.7321C303.46 16.4674 331.301 36.8499 318.007 55.227Z" fill="#06C8FC"/>
<path d="M314.228 30.9669C311.192 28.7486 307.52 27.577 303.763 27.6285C300.006 27.68 296.369 28.9518 293.398 31.2525C307.808 20.0396 327.99 39.8598 316.591 54.5673C309.303 65.2127 291.831 62.7102 287.653 50.657C299.464 78.5412 337.438 50.5122 314.249 30.9613" fill="#05B4DD"/>
<path d="M333.015 4.98417C328.385 0.817368 317.958 3.4994 309.141 9.77242C315.124 19.4741 324.635 26.472 335.668 29.2892C338.98 18.7931 338.446 8.26613 333.01 4.96332" fill="#FB5373"/>
<g style="mix-blend-mode:multiply">
<g style="mix-blend-mode:multiply">
<g style="mix-blend-mode:multiply">
<g style="mix-blend-mode:multiply">
<path d="M262.219 72.6894C262.635 72.148 263.179 71.7189 263.801 71.4409C264.424 71.1628 265.106 71.0445 265.787 71.0967C265.372 71.6388 264.828 72.0684 264.205 72.3466C263.582 72.6247 262.9 72.7425 262.219 72.6894" fill="#E9F0F2"/>
</g>
<g style="mix-blend-mode:multiply">
<path d="M267.399 79.9043C267.758 79.3221 268.255 78.8383 268.847 78.4964C269.439 78.1545 270.107 77.9652 270.79 77.9454C270.433 78.5297 269.936 79.015 269.344 79.3572C268.751 79.6994 268.083 79.8874 267.399 79.9043" fill="#E9F0F2"/>
</g>
<g style="mix-blend-mode:multiply">
<path d="M290.295 93.2432C290.037 92.6089 289.942 91.9199 290.019 91.2394C290.096 90.559 290.342 89.9089 290.735 89.3489C290.99 89.984 291.083 90.6723 291.006 91.352C290.929 92.0317 290.685 92.6815 290.295 93.2432Z" fill="#E9F0F2"/>
</g>
<g style="mix-blend-mode:multiply">
<path d="M281.86 90.4869C281.669 89.8298 281.645 89.1357 281.789 88.467C281.933 87.7984 282.241 87.1763 282.686 86.6569C282.879 87.3137 282.905 88.0086 282.761 88.6777C282.617 89.3469 282.307 89.969 281.86 90.4869" fill="#E9F0F2"/>
</g>
<g style="mix-blend-mode:multiply">
<path d="M274.042 85.8782C274.146 85.2008 274.419 84.5605 274.834 84.0159C275.249 83.4713 275.795 83.0397 276.42 82.7607C276.315 83.4381 276.043 84.0784 275.628 84.623C275.212 85.1676 274.667 85.5991 274.042 85.8782" fill="#E9F0F2"/>
</g>
</g>
</g>
</g>
<path d="M302.113 53.6537C303.205 56.0648 299.391 57.7348 298.376 55.2805C297.361 52.8263 301.098 51.1994 302.113 53.6537Z" fill="#A4EBFC"/>
<path d="M295.43 48.3273C295.544 48.593 295.548 48.8932 295.441 49.1618C295.334 49.4303 295.125 49.6453 294.86 49.7593C294.595 49.8734 294.295 49.8772 294.027 49.77C293.758 49.6627 293.543 49.4531 293.429 49.1874C293.315 48.9217 293.311 48.6215 293.418 48.3529C293.525 48.0844 293.734 47.8694 293.999 47.7554C294.265 47.6413 294.565 47.6375 294.833 47.7447C295.101 47.852 295.316 48.0615 295.43 48.3273" fill="#A4EBFC"/>
<path d="M302.984 32.2593C304.76 35.057 305.081 38.3342 305.104 41.5456C306.473 46.6535 308.845 51.7161 308.044 57.1372L307.846 57.1902C304.983 52.4603 305.22 46.9333 304.453 41.6977C303.223 38.7313 302.236 35.5881 302.779 32.3255L302.984 32.2593Z" fill="#A4EBFC"/>
<path d="M312.658 43.845C312.374 47.2547 311.786 50.6318 310.9 53.936C309.889 49.4137 308.801 44.6886 308.904 40.0355C310.221 43.346 311.146 46.799 311.661 50.3242L310.199 50.2803C310.815 48.0696 311.628 45.9187 312.627 43.8534" fill="#A4EBFC"/>
<g style="mix-blend-mode:multiply">
<g style="mix-blend-mode:multiply">
<g style="mix-blend-mode:multiply">
<g style="mix-blend-mode:multiply">
<path d="M281.751 80.3382C257.113 66.371 276.149 33.7407 290.254 24.4306C297.773 21.0975 327.329 -1.29069 334.763 6.71704C325.954 -6.17337 296.206 18.9141 286.138 23.098C286.138 23.098 279.187 27.2619 273.009 37.3864C266.45 47.4674 260.555 61.8958 267.634 71.6631C275.138 82.0543 290.737 93.0136 303.955 86.2205C295.357 88.5243 289.504 85.6236 281.751 80.3382" fill="#DADFE0"/>
</g>
</g>
</g>
</g>
<g style="mix-blend-mode:multiply">
<g style="mix-blend-mode:multiply">
<g style="mix-blend-mode:multiply">
<g style="mix-blend-mode:multiply">
<path d="M283.995 74.2624C283.901 74.391 283.783 74.4998 283.647 74.5826C283.511 74.6654 283.361 74.7206 283.204 74.7451C283.046 74.7696 282.886 74.7628 282.731 74.7252C282.577 74.6876 282.431 74.6198 282.303 74.5259C282.174 74.4319 282.066 74.3136 281.983 74.1776C281.9 74.0415 281.845 73.8906 281.82 73.7332C281.796 73.5759 281.802 73.4152 281.84 73.2605C281.877 73.1058 281.945 72.96 282.038 72.8314C282.228 72.5718 282.512 72.3982 282.83 72.3488C283.147 72.2994 283.471 72.3782 283.73 72.568C283.99 72.7577 284.164 73.0429 284.213 73.3606C284.263 73.6784 284.184 74.0028 283.995 74.2624" fill="#E9F0F2"/>
</g>
<g style="mix-blend-mode:multiply">
<path d="M271.507 61.5083C271.309 61.743 271.029 61.894 270.724 61.9308C270.419 61.9677 270.112 61.8878 269.863 61.7072C269.614 61.5266 269.443 61.2585 269.383 60.9568C269.323 60.6551 269.379 60.3419 269.54 60.0801C269.739 59.8454 270.018 59.6945 270.323 59.6576C270.628 59.6208 270.936 59.7006 271.185 59.8813C271.433 60.0619 271.605 60.3299 271.665 60.6317C271.724 60.9334 271.668 61.2465 271.507 61.5083" fill="#E9F0F2"/>
</g>
<g style="mix-blend-mode:multiply">
<path d="M299.916 82.3084C299.715 82.5177 299.446 82.6477 299.158 82.6746C298.869 82.7015 298.58 82.6235 298.344 82.455C298.108 82.2864 297.941 82.0385 297.872 81.7565C297.804 81.4745 297.838 81.1773 297.971 80.9191C298.16 80.6595 298.445 80.4859 298.762 80.4365C299.079 80.3871 299.403 80.4659 299.663 80.6557C299.922 80.8454 300.096 81.1306 300.145 81.4483C300.195 81.7661 300.116 82.0905 299.927 82.3501" fill="#E9F0F2"/>
</g>
<g style="mix-blend-mode:multiply">
<path d="M307.964 80.4086C293.483 74.3677 277.167 64.2709 269.156 51.1553C280.325 61.5698 292.784 73.5494 308.126 79.0134C308.27 79.0762 308.391 79.1838 308.469 79.3203C308.548 79.4568 308.581 79.615 308.562 79.7715C308.544 79.9279 308.476 80.0743 308.369 80.1891C308.261 80.3038 308.119 80.3808 307.964 80.4086" fill="#E9F0F2"/>
</g>
</g>
</g>
</g>
</svg>
