<svg width="16" height="16" viewBox="0 0 16 16" fill="none" xmlns="http://www.w3.org/2000/svg">
<path fill-rule="evenodd" clip-rule="evenodd" d="M6.54052 1.59434C6.47795 1.59434 6.41838 1.61913 6.37478 1.6626C6.33125 1.706 6.30718 1.7644 6.30718 1.82486V2.99784H9.69351V1.82486C9.69351 1.79489 9.68759 1.76515 9.67603 1.73733C9.66448 1.70951 9.64748 1.6841 9.62591 1.6626C9.60434 1.64109 9.57862 1.62392 9.55016 1.61217C9.52169 1.60041 9.49111 1.59434 9.46018 1.59434H6.54052ZM11.0935 2.99784V1.82486C11.0935 1.61044 11.0511 1.39817 10.9689 1.2002C10.8866 1.00222 10.7661 0.822475 10.6144 0.671161C10.4626 0.519853 10.2825 0.399941 10.0845 0.318168C9.88653 0.236396 9.67438 0.194336 9.46018 0.194336H6.54052C6.10801 0.194336 5.69279 0.365613 5.38632 0.671161C5.07978 0.976781 4.90718 1.39174 4.90718 1.82486V2.99784H3.10123C3.09713 2.99781 3.09301 2.99781 3.0889 2.99784H1.77812C1.39153 2.99784 1.07812 3.31125 1.07812 3.69784C1.07812 4.08444 1.39153 4.39784 1.77812 4.39784H2.43976L3.08897 14.0733C3.10327 14.5562 3.30203 15.0153 3.64439 15.3567C3.99103 15.7023 4.45796 15.9003 4.94721 15.91L11.0397 15.9101L11.0535 15.91C11.5427 15.9003 12.0097 15.7023 12.3563 15.3567C12.6987 15.0153 12.8974 14.5562 12.9117 14.0733L13.5609 4.39784H14.2226C14.6092 4.39784 14.9226 4.08444 14.9226 3.69784C14.9226 3.31125 14.6092 2.99784 14.2226 2.99784H12.9118C12.9077 2.99781 12.9036 2.99781 12.8995 2.99784H11.0935ZM12.1578 4.39784H3.84291L4.48681 13.9941C4.48755 14.0051 4.48802 14.0161 4.48824 14.0271C4.49076 14.1538 4.54235 14.275 4.63285 14.3652C4.72214 14.4542 4.8425 14.5062 4.96943 14.5101H11.0313C11.1582 14.5062 11.2786 14.4542 11.3678 14.3652C11.4583 14.275 11.5099 14.1538 11.5125 14.0271C11.5127 14.0161 11.5131 14.0051 11.5139 13.9941L12.1578 4.39784Z" fill="#A5A3B8"/>
</svg>
