<svg width="90" height="90" viewBox="0 0 90 90" fill="none" xmlns="http://www.w3.org/2000/svg">
<g clip-path="url(#clip0)">
<path d="M88.8001 61.8004C94.1001 43.9004 56.4001 48.0004 37.1001 53.5004C21.0001 55.5004 -4.49988 63.4004 20.3001 69.7004C51.2001 77.6004 82.2001 84.2004 88.8001 61.8004Z" fill="#FF7071"/>
<path d="M70.0999 18.7C70.2999 18.4 70.9999 17.4 70.4999 16.1C69.7999 14.4 67.5999 13.3 65.8999 12.4C65.5999 12.3 65.2999 12.1 64.9999 12C63.5999 11.2 62.2999 10.6 61.0999 10L60.7999 9.9C59.9999 9.5 58.9999 9 57.8999 9C56.7999 9 56.0999 9.6 55.4999 10.2C54.7999 11 54.1999 11.9 53.5999 12.9C53.4999 13 53.2999 13 53.2999 13.1C53.1999 13.2 53.0999 13.2 52.9999 13.3C52.7999 13.5 52.6999 13.7 52.6999 13.9C52.2999 14.1 51.6999 14.7 51.5999 15C51.4999 15.2 51.4999 15.8 51.3999 16.2C50.8999 16.4 50.4999 16.6 50.3999 17C50.1999 17.5 50.1999 18.1 50.4999 18.5C48.3999 21.8 46.3999 25.2 44.3999 28.4C43.0999 30.5 41.8999 32.6 40.5999 34.7C39.4999 36.5 38.3999 38.2 37.2999 40C34.8999 43.8 32.4999 47.6 30.3999 51.6C30.2999 51.7 30.2999 51.9 30.2999 52C29.8999 53.2 29.6999 54.4 29.4999 55.6L29.3999 56.3C29.0999 57.9 28.9999 59.6 28.8999 60.9C28.7999 62.5 28.6999 64.1 28.6999 65.7C28.6999 65.8 28.6999 65.9 28.6999 66C28.6999 66.5 28.5999 67.3 28.9999 68C28.9999 68.3 29.1999 68.7 29.4999 68.8C31.8999 70.1 37.8999 70.3 43.6999 70.5C46.8999 70.6 49.8999 70.7 51.8999 71C55.4999 71.5 57.8999 72.3 60.4999 74C61.6999 74.8 62.3999 75.8 62.3999 76.7C62.3999 77.7 61.5999 78.4 60.9999 78.8C59.2999 80 57.9999 80.1 55.2999 79.8C48.7999 79.1 42.4999 77.3 36.2999 75.6L34.2999 75C28.9999 73.9 23.4999 72.5 17.9999 71.8L17.2999 71.7C14.8999 71.4 12.2999 71.1 9.79991 70.9C6.29991 70.7 3.69991 71.3 0.799907 72.1C0.199907 72.3 -0.100093 72.9 -9.29292e-05 73.5C0.199907 74.1 0.799907 74.4 1.39991 74.3C4.19991 73.5 6.49991 73 9.69991 73.2C12.0999 73.3 14.5999 73.7 16.9999 74L17.6999 74.1C23.0999 74.8 28.4999 76.2 33.4999 77.6L35.4999 78.2C41.6999 79.9 48.1999 81.7 54.7999 82.4C55.6999 82.5 56.3999 82.6 57.0999 82.6C58.8999 82.6 60.2999 82.2 61.9999 81.1C63.4999 80.1 64.3999 78.6 64.3999 77.1C64.3999 75.4 63.2999 73.7 61.4999 72.5C58.5999 70.6 55.9999 69.7 51.9999 69.1C49.8999 68.8 46.8999 68.7 43.5999 68.6C40.3999 68.5 36.6999 68.4 33.9999 68C35.2999 67.2 36.3999 66.5 37.2999 65.8C39.6999 64.2 41.8999 62.5 43.7999 60.7C44.0999 60.7 44.3999 60.5 44.5999 60.2C47.1999 55.7 50.1999 51.2 53.0999 46.9L54.9999 44C56.7999 41.3 58.5999 38.5 60.3999 35.8C62.1999 33 64.0999 30.3 65.8999 27.4L65.9999 27.3C66.6999 26.9 66.6999 25.9 66.5999 25.5C66.7999 25.4 66.8999 25.4 67.0999 25.2C67.3999 24.9 67.5999 24.6 67.5999 24.2C67.7999 24.2 67.9999 24.1 68.1999 24C68.5999 23.8 68.7999 23.5 68.8999 23C69.0999 22.3 68.6999 21.5 68.4999 21.1C68.3999 21 68.3999 20.9 68.2999 20.8C68.9999 20.2 69.5999 19.5 70.0999 18.7ZM47.3999 51.2C46.4999 52.6 45.5999 53.9 44.6999 55.3C44.3999 55.8 43.9999 56.5 43.7999 57.1C43.7999 57.2 43.6999 57.2 43.6999 57.3C42.7999 56.6 41.3999 56.3 40.4999 56C40.2999 55.9 40.0999 55.9 39.9999 55.9C39.6999 55.7 39.3999 55.5 39.1999 55.2C39.1999 55.2 39.1999 55.1 39.0999 55.1C41.4999 52.1 43.4999 48.8 45.4999 45.5C46.7999 43.3 48.1999 41 49.6999 38.9C53.0999 34 55.6999 29.7 58.6999 24.7L59.2999 23.7C59.5999 23.9 59.8999 24.1 60.1999 24.3C61.0999 24.9 62.9999 26.1 63.6999 26.7C61.8999 29.4 60.0999 32.1 58.3999 34.8C56.5999 37.5 54.7999 40.3 52.9999 43C50.9999 45.7 49.1999 48.4 47.3999 51.2ZM30.9999 66.4V64.2V64.1C31.8999 64.2 32.8999 64.6 33.6999 65.3C33.5999 65.4 33.4999 65.5 33.3999 65.5C32.5999 66 31.8999 66.6 30.9999 66.9C30.9999 66.8 30.9999 66.6 30.9999 66.4ZM31.1999 62C31.1999 61.5 31.2999 61 31.2999 60.4C31.3999 59.3 31.5999 58.1 31.7999 57C31.8999 56.2 32.0999 55.3 32.1999 54.4C32.6999 54.8 33.4999 55.1 34.8999 55.3H35.6999C36.3999 55.3 36.8999 55.4 37.3999 55.7C37.4999 55.8 37.4999 55.8 37.5999 55.9C37.6999 56 37.6999 56 37.7999 56.1C37.8999 56.3 37.9999 56.6 38.0999 57V57.1C38.1999 57.3 38.2999 57.7 38.7999 57.8C38.9999 57.9 39.1999 57.9 39.3999 57.9C39.9999 57.9 40.5999 58 41.1999 58.2C41.3999 58.3 41.7999 58.5 42.0999 58.7C40.3999 60.2 38.7999 61.5 37.2999 62.6C36.7999 63 36.1999 63.4 35.5999 63.8C34.5999 62.8 32.7999 62 31.1999 62ZM41.9999 35.8L42.6999 36.2L44.7999 32.8C47.3999 28.6 49.9999 24.3 52.5999 20C52.7999 20.1 52.9999 20.2 53.1999 20.3C53.5999 20.5 53.9999 20.6 54.2999 20.8C54.9999 21.1 55.4999 21.4 55.8999 21.5C56.4999 21.8 56.7999 22 56.9999 22.1C56.9999 22.1 57.0999 22.2 57.1999 22.2C57.1999 22.2 57.2999 22.3 57.3999 22.3C55.7999 24.7 54.3999 27 53.0999 29.2C51.4999 31.9 49.7999 34.7 47.7999 37.6C45.8999 40.4 43.9999 43.4 42.2999 46.3C40.7999 48.8 39.2999 51.3 37.5999 53.7C36.8999 53.3 36.5999 53.3 35.4999 53.3C34.0999 53.1 33.3999 52.6 32.9999 52.3C34.8999 50 36.2999 47.4 37.6999 44.8C38.2999 43.7 38.9999 42.7 39.5999 41.6C40.6999 39.8 41.6999 38.1 42.7999 36.3L41.9999 35.8ZM65.1999 22.1C64.7999 22.4 64.6999 23 64.9999 23.5C64.8999 23.5 64.7999 23.6 64.7999 23.7L64.6999 23.8C64.5999 23.9 64.4999 24 64.3999 24.2C61.2999 21 56.6999 19.2 53.8999 18.3L53.5999 17.4V17.3C53.6999 17.1 53.8999 16.8 53.8999 16.6C54.0999 16.6 54.1999 16.5 54.3999 16.3L54.4999 16C54.6999 15.7 54.8999 15.4 54.7999 14.9C54.8999 14.9 54.9999 14.9 54.9999 15C55.1999 15.1 55.2999 15.1 55.4999 15.2C55.9999 15.3 56.3999 15.5 56.8999 15.7L57.2999 15.8C58.6999 16.4 59.8999 17 60.9999 17.6C62.1999 18.3 63.2999 19 64.1999 19.7C64.6999 20.1 65.0999 20.5 65.4999 20.9C65.7999 21.2 65.9999 21.4 66.2999 21.8C66.1999 21.8 66.1999 21.8 66.0999 21.8C65.6999 21.8 65.3999 21.8 65.1999 22.1ZM57.9999 11.3C58.5999 11.1 59.7999 11.8 60.5999 12.2C60.7999 12.3 60.9999 12.4 61.1999 12.5L61.4999 12.6C62.1999 13 62.9999 13.4 63.6999 13.8C63.9999 14 64.2999 14.1 64.5999 14.3C65.8999 14.9 67.3999 15.7 68.0999 16.6C68.2999 16.9 68.2999 17.1 67.7999 17.8L67.4999 18.1C67.1999 18.4 66.9999 18.8 66.6999 19.1C65.6999 18.1 64.3999 17.1 62.7999 16.2C60.4999 14.8 58.1999 13.7 56.0999 13.1C56.1999 12.9 56.3999 12.7 56.4999 12.6C56.5999 12.5 56.6999 12.4 56.7999 12.2C57.2999 11.8 57.5999 11.4 57.9999 11.3Z" fill="#58448B"/>
</g>
<defs>
<clipPath id="clip0">
<rect width="90" height="90" fill="white"/>
</clipPath>
</defs>
</svg>
