<svg width="28" height="28" viewBox="0 0 28 28" fill="none" xmlns="http://www.w3.org/2000/svg">
<path fill-rule="evenodd" clip-rule="evenodd" d="M11.6499 3.58843C13.8936 3.08152 16.2409 3.31344 18.342 4.24961C18.8465 4.47439 19.4376 4.24766 19.6624 3.74318C19.8872 3.23871 19.6605 2.64754 19.156 2.42276C16.661 1.31105 13.8735 1.03564 11.2092 1.63761C8.54485 2.23957 6.1465 3.68666 4.37181 5.76305C2.59711 7.83944 1.54116 10.4339 1.36144 13.1594C1.18172 15.885 1.88786 18.5956 3.37453 20.887C4.86121 23.1785 7.04878 24.928 9.61098 25.8746C12.1732 26.8212 14.9727 26.9142 17.5921 26.1397C20.2115 25.3652 22.5103 23.7648 24.1458 21.5771C25.7813 19.3893 26.6658 16.731 26.6673 13.9995V12.9262C26.6673 12.3739 26.2196 11.9262 25.6673 11.9262C25.115 11.9262 24.6673 12.3739 24.6673 12.9262V13.9995C24.6659 16.2995 23.9211 18.5374 22.5439 20.3796C21.1667 22.2219 19.2308 23.5696 17.025 24.2218C14.8192 24.874 12.4617 24.7956 10.3041 23.9985C8.14644 23.2014 6.30428 21.7281 5.05234 19.7985C3.8004 17.8688 3.20576 15.5862 3.35711 13.291C3.50845 10.9958 4.39767 8.81103 5.89215 7.06249C7.38663 5.31395 9.40629 4.09535 11.6499 3.58843ZM26.3747 5.37301C26.7651 4.98229 26.7648 4.34913 26.374 3.9588C25.9833 3.56847 25.3501 3.56879 24.9598 3.95951L20.8335 8.08999L14.0003 14.93L11.2077 12.1375C10.8172 11.747 10.184 11.747 9.7935 12.1375C9.40298 12.528 9.40298 13.1612 9.7935 13.5517L13.2935 17.0517C13.4811 17.2393 13.7356 17.3447 14.0009 17.3446C14.2662 17.3445 14.5206 17.239 14.7081 17.0513L21.9465 9.80566L26.3747 5.37301Z" fill="#58448B"/>
</svg>
