<svg width="134" height="172" viewBox="0 0 134 172" fill="none" xmlns="http://www.w3.org/2000/svg">
<g clip-path="url(#clip0)">
<path d="M73.0438 67.3916H32.2393H27.2017L26.1941 71.9179V103.602L25.6904 135.286L24.6829 148.865L23.1716 160.935L22.1641 171.497H41.3069L109.314 167.473L133.495 165.462V163.45L130.472 137.801L127.45 106.117C126.106 94.2142 123.42 70.3085 123.42 69.9062C123.42 69.5038 122.412 66.0504 121.908 64.374L108.811 64.8769L94.7054 66.3857L87.6528 67.3916H73.0438Z" fill="#F0F1F7"/>
<path d="M115.359 53.3105L109.314 56.831L108.811 57.3339L110.826 58.3398L116.871 60.3514L120.901 62.3631V60.8544L119.39 52.8076L118.886 50.293H117.878L115.359 53.3105Z" fill="#EBEBF2"/>
<path d="M20.1489 58.3388L11.0812 56.3271L12.0887 58.3388L12.5925 68.3973L9.56992 86.5026L6.54736 112.655L3.5248 131.766C1.91277 134.582 1.50977 152.721 1.50977 161.438L4.02856 162.444L14.1038 166.467L21.1564 170.491C21.996 166.3 23.6752 157.817 23.6752 157.415C23.6752 157.013 25.0185 120.031 25.6902 101.59V70.409L26.6977 65.8827L33.2466 59.8476L29.7203 58.8418L20.1489 58.3388Z" fill="#EBEBF2"/>
<path d="M51.8858 152.386C48.1699 155.167 52.5572 156.744 54.4043 159.427C49.5347 158.421 39.6948 156.309 39.2918 155.906C38.8888 155.504 36.4372 149.703 35.2617 146.854C35.4296 142.998 35.8662 135.99 36.2692 138.807C36.6722 141.623 47.8557 142.83 47.3519 146.854L46.3444 148.865L45.3369 151.883C48.1914 150.374 53.9011 150.877 51.8858 152.386Z" fill="#DCDCE8"/>
<path d="M26.1941 66.8887H47.8558C44.3295 67.8945 32.2393 73.4267 31.7355 78.9588C31.2317 84.491 32.743 99.0758 36.2693 106.62C39.0904 112.655 38.6853 113.296 38.2844 114.164C37.2768 116.343 39.4934 118.287 38.2844 120.702C36.7731 123.719 36.2693 137.298 36.2693 141.321C36.2693 145.345 39.7956 150.374 42.8182 150.374C45.8408 150.374 53.9009 157.918 55.9159 161.438C57.931 164.959 77.0738 164.456 89.1641 164.456C98.8363 164.456 122.412 160.097 132.991 157.918V164.456L97.2242 167.473L73.0438 168.982C61.2894 169.485 37.4783 170.491 36.2693 170.491C34.758 170.491 22.1641 170.994 22.1641 170.491V161.438C22.1641 159.427 26.1941 139.31 26.1941 132.772V66.8887Z" fill="#DCDCE8"/>
<path d="M25.4398 67.0897C24.2914 84.9862 24.2914 103.147 24.3798 121.132C24.4681 137.794 22.1715 154.192 20.5815 170.766C20.4932 171.824 22.1715 172 22.4365 171.03C24.1148 164.506 24.2914 157.718 24.8214 151.018C25.5281 141.849 26.5881 132.857 26.5881 123.6C26.5881 104.822 27.6481 85.8678 26.4997 67.1779C26.4114 66.3844 25.4398 66.3844 25.4398 67.0897Z" fill="#A5A3B8"/>
<path d="M121.367 63.563C121.897 81.0187 125.077 98.3862 126.579 115.754C127.374 124.922 128.964 134.003 129.935 143.171C130.642 150.401 129.935 158.688 132.585 165.476C132.85 166.181 134.087 166.181 134.087 165.3C133.027 148.726 130.289 132.328 128.699 115.754C127.815 106.321 126.579 96.9757 125.43 87.5425C124.459 79.6082 124.459 71.1448 122.339 63.3867C122.074 62.9459 121.367 63.0341 121.367 63.563Z" fill="#A5A3B8"/>
<path d="M26.1451 67.442C42.1332 67.971 58.1213 67.1776 74.1095 67.7947C90.0976 68.4118 105.644 65.1499 121.632 64.8854C122.869 64.8854 122.869 62.9459 121.632 62.9459C105.644 62.8577 90.0976 66.5604 74.1095 66.1196C58.2097 65.5907 42.1332 65.6788 26.1451 66.296C25.3501 66.296 25.3501 67.442 26.1451 67.442Z" fill="#A5A3B8"/>
<path d="M51.0551 72.115C50.4368 72.2031 50.0834 72.115 49.5534 72.5558C49.1118 72.9084 48.8468 73.4374 48.7584 73.8782C48.4051 74.9361 48.8468 76.0822 49.4651 76.8756C50.8784 78.727 54.0584 79.1678 55.56 77.1401C56.885 75.465 55.56 73.3492 54.0584 72.2913C52.2917 71.0571 49.4651 71.4097 48.8468 73.7018C48.6701 74.4071 49.5534 75.0243 50.0834 74.4071C50.9668 73.4374 51.5851 72.7321 52.9101 73.5255C53.6167 73.9663 54.6767 75.0242 54.3234 75.994C53.7051 77.4046 51.6734 76.9638 50.7901 76.0822C50.3484 75.6414 50.1718 75.0243 50.1718 74.4071C50.1718 74.1427 50.3484 73.79 50.5251 73.6137C50.7018 73.3492 51.0551 72.9084 51.3201 72.8203C51.6734 72.5558 51.4084 72.0268 51.0551 72.115Z" fill="#A5A3B8"/>
<path d="M91.6891 71.0574C89.3041 71.4101 88.7741 74.4075 90.0107 76.1707C91.5124 78.2865 94.2507 77.4931 95.399 75.5536C96.459 73.8785 95.4873 71.6745 93.7207 70.8811C91.689 69.9114 89.5691 71.2337 89.5691 73.5259C89.5691 74.3193 90.6291 74.4075 90.8941 73.7022C91.2474 72.7325 91.7774 71.7627 92.9257 72.2917C93.809 72.7325 94.5157 73.7022 94.074 74.672C93.544 75.8181 92.0424 76.5233 91.1591 75.2891C90.2757 74.0549 90.9824 72.6443 91.8657 71.6746C92.3074 71.4101 92.0424 71.0574 91.6891 71.0574Z" fill="#A5A3B8"/>
<path d="M21.2878 171.648C39.7492 172.706 58.564 170.943 76.9371 169.532C95.5752 168.121 114.302 168.298 132.851 166.535C134.176 166.446 134.176 164.331 132.851 164.419C115.097 166.27 97.1652 165.917 79.3221 167.416C59.9773 169.003 40.6326 169.356 21.2878 170.502C20.5811 170.59 20.5811 171.648 21.2878 171.648Z" fill="#A5A3B8"/>
<path d="M32.683 58.9795C29.9447 60.919 26.9414 63.8283 25.4398 66.8257C25.0865 67.6192 26.1464 68.5007 26.6764 67.7955C27.7364 66.4731 28.7964 65.1507 29.9447 63.8283C31.1814 62.5059 32.5064 61.2716 33.5663 59.8611C33.9197 59.4203 33.213 58.6268 32.683 58.9795Z" fill="#A5A3B8"/>
<path d="M11.1293 56.4224C17.0476 60.1251 25.7925 60.2133 32.5941 60.3014C33.4774 60.3014 33.654 58.979 32.7707 58.8027C29.8558 58.1856 26.7641 58.0974 23.7608 57.9211C19.4325 57.6566 15.5459 56.6869 11.3943 55.5408C10.9527 55.4526 10.6877 56.1579 11.1293 56.4224Z" fill="#A5A3B8"/>
<path d="M10.6878 56.5984C12.0128 65.5026 10.5112 74.0541 9.09787 82.8701C7.77289 90.6281 6.9779 98.4744 6.00624 106.321C3.7096 124.658 -0.0886829 142.995 0.0879816 161.509C0.0879816 162.919 2.20796 162.919 2.29629 161.509C2.29629 161.244 2.29629 160.98 2.29629 160.715C2.29629 159.834 0.971304 159.481 0.617975 160.274C0.529643 160.539 0.352978 160.803 0.264646 160.98C0.971304 161.156 1.58963 161.332 2.29629 161.509C2.82628 142.907 5.82958 124.658 8.21455 106.321C9.4512 96.623 10.5112 86.9254 12.0128 77.2278C13.0728 70.2632 13.8678 63.1222 12.0128 56.2458C11.6595 55.5405 10.5995 55.8931 10.6878 56.5984Z" fill="#A5A3B8"/>
<path d="M0.970388 161.685C3.09036 163.713 6.00532 164.242 8.74362 165.211C12.9836 166.798 16.8702 170.148 21.1985 171.118C21.5518 171.206 21.9935 170.766 21.7285 170.413C19.6968 167.151 15.1919 165.917 11.8353 164.33C8.47863 162.743 4.94534 161.773 1.41205 160.803C0.970388 160.715 0.617059 161.332 0.970388 161.685Z" fill="#A5A3B8"/>
<path d="M32.6821 59.5082C33.0354 60.8306 33.3004 61.9767 33.3887 63.3873C33.4771 64.2689 33.4771 65.5913 34.0954 66.2965C34.6254 67.0018 35.862 66.6492 35.597 65.6794C35.332 64.6215 35.067 63.5636 34.802 62.5057C34.6254 61.3596 34.3604 59.949 33.6537 58.9793C33.2121 58.5385 32.5054 58.9793 32.6821 59.5082Z" fill="#A5A3B8"/>
<path d="M107.941 58.2742C109.796 59.5084 112.093 60.0374 114.124 60.7426C115.449 61.1834 116.774 61.7124 118.011 62.3295C119.159 62.9466 119.778 64.0046 120.838 64.6217C121.191 64.8862 121.721 64.5335 121.721 64.0927C121.633 62.1532 119.071 60.919 117.569 60.2137C114.654 58.9794 111.474 58.4505 108.559 57.0399C107.853 56.7754 107.146 57.8334 107.941 58.2742Z" fill="#A5A3B8"/>
<path d="M107.852 58.1855C109.884 58.0092 111.739 56.7749 113.329 55.6289C115.184 54.2183 117.304 52.8959 118.982 51.3972C119.512 50.9564 118.982 49.8985 118.275 50.163C116.597 50.7801 115.184 52.1025 113.77 53.1604C111.827 54.7473 109.707 55.8933 107.587 57.3039C107.234 57.5684 107.322 58.1855 107.852 58.1855Z" fill="#A5A3B8"/>
<path d="M117.658 51.2213C117.835 53.4253 118.63 55.453 119.072 57.5689C119.602 59.6847 119.425 61.9769 120.308 63.9164C120.485 64.269 120.926 64.0927 121.015 63.8282C121.721 62.065 121.103 59.861 120.75 58.0978C120.22 55.7175 119.602 53.249 118.63 50.9569C118.542 50.5161 117.658 50.6924 117.658 51.2213Z" fill="#A5A3B8"/>
<path d="M107.765 57.7443C107.323 59.9483 108.472 62.4168 109.002 64.5326C109.267 65.5024 110.68 65.0616 110.503 64.0918C110.327 63.0339 109.973 62.0641 109.62 61.0944C109.267 59.9483 109.09 58.8022 108.825 57.7443C108.648 57.3035 107.853 57.2153 107.765 57.7443Z" fill="#A5A3B8"/>
<path d="M11.6595 56.5985C18.9028 57.5682 26.2343 54.7471 33.2126 53.3365C43.6358 51.1325 54.9423 52.1023 65.5422 52.6313C74.8171 53.0721 83.9153 53.601 93.1902 53.0721C101.582 52.5431 110.68 53.3365 118.895 51.5733C120.043 51.3089 119.602 49.5457 118.365 49.8101C109.532 51.397 99.9034 50.9562 90.8935 51.4852C81.6187 52.0141 72.4321 51.3089 63.1572 50.8681C54.589 50.4273 45.5791 49.8983 37.0992 51.1325C28.531 52.3668 20.1394 54.5708 11.6595 55.8932C11.3062 55.9813 11.3062 56.5985 11.6595 56.5985Z" fill="#A5A3B8"/>
<path d="M46.463 58.0096C44.6964 58.7149 44.6081 61.1834 45.8447 62.4176C47.1697 63.8282 49.908 62.9466 50.5263 61.1834C51.0563 59.6847 50.0847 58.0096 48.7597 57.2162C48.053 56.7754 47.1697 56.6872 46.463 57.0399C45.668 57.3925 44.873 58.3623 44.873 59.332C44.873 59.861 45.5797 60.2136 46.0214 59.7728C46.5514 59.1557 46.9047 57.9215 47.9647 58.4504C48.7597 58.8031 49.2897 59.5965 49.2897 60.3899C49.2897 61.4479 47.6113 61.9768 46.9047 61.4479C45.8447 60.7426 46.198 59.2439 46.8164 58.4504C46.993 58.3623 46.8164 57.9215 46.463 58.0096Z" fill="#A5A3B8"/>
<path d="M87.9796 56.5992C87.5379 56.4228 87.0963 56.3347 86.6546 56.5992C86.213 56.8636 85.7713 57.3044 85.5946 57.7452C85.2413 58.8032 85.418 60.0374 86.1246 60.919C87.3613 62.4177 90.4529 62.4177 91.4246 60.5664C92.2195 59.0676 91.3362 57.1281 90.0112 56.2465C88.3329 55.0123 86.3013 56.1584 85.683 58.0097C85.5063 58.5387 86.3013 59.0676 86.6546 58.5387C87.2729 57.7452 87.9796 56.6873 89.1279 57.3926C89.8346 57.8334 90.3646 58.8032 90.2762 59.5966C90.0996 60.7427 88.4213 60.7427 87.5379 60.3019C87.0079 59.9492 86.743 59.1558 86.8313 58.5387C86.9196 57.8334 87.4496 57.3926 88.0679 57.1281C88.1563 57.04 88.1563 56.6873 87.9796 56.5992Z" fill="#A5A3B8"/>
<path d="M53.1758 74.3192C51.8508 60.6545 52.5574 46.9015 58.6524 34.3828C64.2173 23.0102 76.0538 11.4612 89.7453 14.5468C100.345 16.9271 101.67 30.6801 101.14 39.4079C100.787 44.7857 99.1085 49.7226 97.3419 54.7477C95.1336 60.9189 93.8969 67.3546 91.6003 73.5258C90.982 75.1127 93.5436 75.818 94.0736 74.2311C96.8119 66.8256 98.4902 59.1557 101.14 51.6621C103.172 45.9317 103.967 40.025 103.878 33.942C103.613 24.0681 99.4619 13.9297 88.9503 11.6375C76.3188 8.81642 65.2773 19.043 58.829 28.6524C50.0841 41.7001 48.2292 59.5965 50.7908 74.6719C51.0558 75.9943 53.2641 75.7298 53.1758 74.3192Z" fill="#A5A3B8"/>
<path d="M47.169 61.5357C49.9073 61.5357 49.9073 57.2158 47.169 57.2158C44.4307 57.2158 44.4307 61.5357 47.169 61.5357Z" fill="#A5A3B8"/>
<path d="M88.4194 59.3316C89.3911 59.3316 90.2744 58.5382 90.2744 57.4803C90.2744 56.5105 89.4794 55.6289 88.4194 55.6289C87.4478 55.6289 86.5645 56.4223 86.5645 57.4803C86.6528 58.5382 87.4478 59.3316 88.4194 59.3316Z" fill="#A5A3B8"/>
<path d="M46.9925 49.8105C42.6642 42.5814 43.5475 30.6798 45.0492 22.6572C47.0808 11.5491 56.6207 3.61468 67.5739 2.55676C78.9688 1.49884 84.622 14.6347 87.272 23.5388C89.8336 32.443 90.0103 42.2287 88.4203 51.3092C88.067 53.0724 90.8053 53.8658 91.1586 52.0145C94.3386 34.647 90.6286 -2.29204 65.8072 0.088282C55.5607 1.05804 47.0808 8.72795 43.7242 18.2492C40.6326 27.0652 39.3076 42.934 45.0492 51.0447C45.7558 52.279 47.7875 51.1329 46.9925 49.8105Z" fill="#A5A3B8"/>
<path d="M19.875 65.7673C22.6133 77.1399 20.7583 89.1297 22.525 100.59C22.525 100.855 22.8783 100.767 22.8783 100.502C23.055 94.5074 22.4366 88.3362 22.1716 82.3413C21.9066 76.7873 21.995 71.0569 20.2283 65.6791C20.14 65.5028 19.875 65.591 19.875 65.7673Z" fill="#A5A3B8"/>
<path d="M17.2246 81.7248C18.1079 87.5433 20.0512 93.1856 21.4646 98.916C21.4646 99.0923 21.8179 99.0041 21.7296 98.916C21.1112 93.0092 18.4613 87.5433 17.5779 81.7248C17.5779 81.3721 17.2246 81.4603 17.2246 81.7248Z" fill="#A5A3B8"/>
<path d="M17.5786 128.272C16.7836 137.177 13.957 145.464 12.0137 154.103C12.0137 154.28 12.1903 154.368 12.2787 154.191C15.1936 145.904 17.3136 137.088 17.9319 128.272C17.9319 128.008 17.5786 128.096 17.5786 128.272Z" fill="#A5A3B8"/>
<path d="M18.1085 129.86C17.6668 133.739 17.4902 137.618 17.0485 141.409C16.6069 145.64 15.8119 149.784 15.5469 154.015C15.5469 154.104 15.7235 154.192 15.7235 154.015C16.4302 149.872 16.8719 145.64 17.5785 141.409C18.1968 137.618 18.6385 133.562 18.1968 129.771C18.2852 129.771 18.1085 129.771 18.1085 129.86Z" fill="#A5A3B8"/>
<path d="M15.7227 156.484C15.1927 157.365 15.016 158.511 15.3694 159.481C15.4577 159.658 15.7227 159.658 15.7227 159.481C15.9877 158.6 15.6344 157.63 15.9877 156.748C16.076 156.396 15.811 156.219 15.7227 156.484Z" fill="#A5A3B8"/>
<path d="M31.0929 97.5932C30.6513 102.266 31.0046 106.938 31.0046 111.611C31.0046 116.812 30.8279 122.102 30.4746 127.303C29.8563 137.618 28.178 148.461 29.1496 158.776C29.1496 159.129 29.6796 159.129 29.768 158.776C30.8279 148.814 31.6218 138.799 32.2401 128.749C32.8584 118.522 32.3296 107.82 31.2696 97.5932C31.2696 97.4169 31.0929 97.4169 31.0929 97.5932Z" fill="#A5A3B8"/>
</g>
<defs>
<clipPath id="clip0">
<path d="M0 0H134V172H0V0Z" fill="white"/>
</clipPath>
</defs>
</svg>
