<svg width="24" height="25" viewBox="0 0 24 25" fill="none" xmlns="http://www.w3.org/2000/svg">
<g clip-path="url(#clip0)">
<path d="M12 0C18.6277 0 24 5.48046 24 12.24C24 19.0004 18.6277 24.48 12 24.48C5.37217 24.48 0 19.0003 0 12.24C0 5.48046 5.37226 0 12 0Z" fill="#9595AB"/>
<path d="M13.4602 8.42688H15.0067V6.09668H13.1888V6.10508C10.986 6.18466 10.5345 7.44766 10.4947 8.77418H10.4902V9.93776H8.99023V12.2197H10.4902V18.3366H12.7507V12.2197H14.6025L14.9602 9.93776H12.7515V9.23476C12.7515 8.78645 13.0439 8.42688 13.4602 8.42688Z" fill="#2C2B57"/>
</g>
<defs>
<clipPath id="clip0">
<path d="M0 0H24V24.48H0V0Z" fill="white"/>
</clipPath>
</defs>
</svg>
