<svg width="24" height="25" viewBox="0 0 24 25" fill="none" xmlns="http://www.w3.org/2000/svg">
<g clip-path="url(#clip0)">
<path d="M12 0C18.6277 0 24 5.48046 24 12.24C24 19.0004 18.6277 24.48 12 24.48C5.37217 24.48 0 19.0003 0 12.24C0 5.48046 5.37225 0 12 0Z" fill="#9595AB"/>
<path d="M13.4606 8.42688H15.0071V6.09668H13.1891V6.10508C10.9863 6.18466 10.5349 7.44766 10.4951 8.77418H10.4905V9.93776H8.99057V12.2197H10.4905V18.3366H12.7511V12.2197H14.6028L14.9605 9.93776H12.7518V9.23476C12.7518 8.78645 13.0443 8.42688 13.4606 8.42688Z" fill="#2C2B57"/>
</g>
<defs>
<clipPath id="clip0">
<path d="M0 0H24V24.48H0V0Z" fill="white"/>
</clipPath>
</defs>
</svg>
