<svg width="15" height="15" viewBox="0 0 15 15" fill="none" xmlns="http://www.w3.org/2000/svg">
<path d="M11.2496 0.003121L9.30446 0C7.11916 0 5.70692 1.44892 5.70692 3.69152V5.39356H3.75117C3.58217 5.39356 3.44531 5.53057 3.44531 5.69957V8.16563C3.44531 8.33463 3.58232 8.47149 3.75117 8.47149H5.70692V14.6941C5.70692 14.8631 5.84378 15 6.01278 15H8.56448C8.73348 15 8.87034 14.863 8.87034 14.6941V8.47149H11.1571C11.3261 8.47149 11.4629 8.33463 11.4629 8.16563L11.4639 5.69957C11.4639 5.61843 11.4316 5.54071 11.3743 5.48329C11.317 5.42586 11.239 5.39356 11.1579 5.39356H8.87034V3.95072C8.87034 3.25723 9.03559 2.90518 9.93896 2.90518L11.2493 2.90472C11.4181 2.90472 11.555 2.7677 11.555 2.59886V0.308979C11.555 0.140289 11.4183 0.0034331 11.2496 0.003121Z" fill="white"/>
</svg>
