<svg width="18" height="18" viewBox="0 0 18 18" fill="none" xmlns="http://www.w3.org/2000/svg">
<g clip-path="url(#clip0)">
<path d="M3.98922 10.8781L3.36266 13.2172L1.07259 13.2656C0.388199 11.9962 0 10.5438 0 9.00045C0 7.50799 0.362957 6.10058 1.00632 4.86133H1.00682L3.04562 5.23512L3.93874 7.26172C3.75181 7.80669 3.64992 8.3917 3.64992 9.00045C3.64999 9.66112 3.76967 10.2941 3.98922 10.8781Z" fill="white"/>
<path d="M17.8422 7.31738C17.9456 7.86183 17.9995 8.42409 17.9995 8.99874C17.9995 9.6431 17.9318 10.2716 17.8027 10.8779C17.3646 12.941 16.2198 14.7426 14.6339 16.0174L14.6334 16.0169L12.0654 15.8859L11.702 13.617C12.7543 12.9999 13.5767 12.0341 14.0099 10.8779H9.19727V7.31738H14.0801H17.8422Z" fill="white"/>
<path d="M14.6357 16.0204L14.6362 16.0209C13.0938 17.2606 11.1345 18.0024 9.00172 18.0024C5.57427 18.0024 2.59436 16.0867 1.07422 13.2674L3.99085 10.8799C4.7509 12.9084 6.70768 14.3524 9.00172 14.3524C9.98776 14.3524 10.9115 14.0858 11.7042 13.6205L14.6357 16.0204Z" fill="#9595AB"/>
<path d="M14.7463 2.07202L11.8307 4.45905C11.0103 3.94625 10.0405 3.65001 9.00158 3.65001C6.65562 3.65001 4.66224 5.16026 3.94026 7.26149L1.0083 4.86111H1.00781C2.50569 1.97312 5.52319 0 9.00158 0C11.1853 0 13.1876 0.777887 14.7463 2.07202Z" fill="white"/>
</g>
<defs>
<clipPath id="clip0">
<rect width="18" height="18" fill="white"/>
</clipPath>
</defs>
</svg>
