<svg width="90" height="90" viewBox="0 0 90 90" fill="none" xmlns="http://www.w3.org/2000/svg">
<path d="M59.7999 19.9995C49.8999 19.9995 41.7999 19.8995 31.9999 19.9995C30.1999 21.3995 29.1999 26.0995 26.7999 26.5995C25.4999 26.8995 24.2999 27.6995 23.0999 28.0995C21.8999 28.5995 21.3999 29.1995 21.3999 30.3995C21.3999 33.9995 21.8999 37.5995 22.4999 41.1995C22.9999 44.0995 23.9999 46.6995 24.6999 49.4995C25.2999 51.3995 26.0999 53.1995 26.6999 54.8995C27.0999 56.0995 27.4999 56.9995 27.8999 57.9995C28.1999 58.7995 28.6999 59.4995 28.9999 60.2995C29.6999 61.7995 30.4999 63.0995 31.3999 64.4995C33.4999 67.5995 34.7999 68.8995 36.5999 71.4995C37.3999 72.5995 38.6999 73.6995 39.6999 75.1995C40.7999 76.6995 41.4999 77.1995 42.3999 77.9995C42.8999 78.4995 43.2999 78.8995 44.0999 79.5995C44.8999 80.2995 45.2999 81.0995 46.0999 81.3995C46.6999 81.5995 48.1999 79.9995 48.4999 79.5995C50.5999 76.6995 53.1999 74.1995 55.7999 71.7995C59.4999 68.3995 63.1999 64.7995 65.7999 60.3995C68.8999 55.3995 70.4999 49.7995 72.6999 44.4995C73.6999 42.1995 73.9999 39.7995 74.5999 37.4995C74.8999 36.1995 75.0999 33.1995 74.6999 31.8995C73.6999 28.8995 69.9999 29.2995 67.9999 27.2995C67.1999 26.4995 66.3999 25.9995 65.7999 24.9995C65.2999 23.9995 64.6999 22.9995 64.2999 21.9995C63.5999 20.3995 61.2999 19.9995 59.7999 19.9995Z" fill="#FF7071"/>
<path fill-rule="evenodd" clip-rule="evenodd" d="M65.5723 23.2114C67.2084 23.8789 69.0424 24.627 69.8 26.9C70.3 28.5 70.1 31.7 69.7 33.2C69.5 33.9 69.3 34.6 69.2 35.3C69.173 35.4149 69.1459 35.5302 69.1188 35.6459C68.7446 37.2428 68.3527 38.9149 67.7 40.5C67.4 41.3 67.075 42.125 66.75 42.95C66.425 43.775 66.1 44.6 65.8 45.4C65.5549 46.0045 65.3126 46.6143 65.0689 47.2272C63.8212 50.3663 62.5406 53.5881 60.7 56.6C57.9 61.3 53.9 65.1 50.5 68.2C48.4 70.1 45.6 72.7 43.4 75.8C43.4 75.8 41.7 78.1 40.1 78.1C40 78.1 39.925 78.075 39.85 78.05C39.775 78.025 39.7 78 39.6 78C38.9129 77.7423 38.4471 77.2634 38.0126 76.8166C37.9412 76.7431 37.8706 76.6706 37.8 76.6C37.6 76.3 37.4 76.1 37.2 75.9C36.9 75.65 36.675 75.425 36.475 75.225C36.275 75.025 36.1 74.85 35.9 74.7L35.4 74.2L35 73.8C34.3 73.2 33.8 72.7 32.6 71.3C32.5 71.3 32.5 71.2 32.5 71.2C32 70.5 31.4 69.8 30.8 69.2C30.6406 69.0087 30.4812 68.8276 30.325 68.6501C29.9913 68.271 29.6725 67.9087 29.4 67.5C28.6 66.4 27.9 65.5 27.2 64.6C26.3 63.5 25.4 62.3 24.2 60.5C23.2 59.1 22.5 57.8 21.7 56.2C21.65 56.05 21.575 55.925 21.5 55.8C21.425 55.675 21.35 55.55 21.3 55.4C21.2 55.15 21.075 54.9 20.95 54.65C20.825 54.4 20.7 54.15 20.6 53.9C20.1 52.9 19.7 51.8 19.3 50.7L19.3 50.7C19.2697 50.6092 19.2394 50.5 19.2064 50.3808C19.1303 50.1064 19.0394 49.7789 18.9 49.5C18.5 48.2 18 46.8 17.4 45.5C17.3 45.4 17.3 45.4 17.3 45.3C17.1733 44.8777 17.0645 44.4733 16.9584 44.0792C16.8133 43.5399 16.6733 43.02 16.5 42.5C16.4262 42.2194 16.3523 41.9409 16.2788 41.6637C15.8545 40.0639 15.4409 38.5046 15.1 36.8C14.4 32.7 14 29.1 14 25.8C14 24.1 14.8 23 16.5 22.3C16.9 22.2 17.3 22 17.7 21.8C17.9148 21.7045 18.1239 21.6091 18.33 21.515C18.9875 21.2148 19.6148 20.9284 20.3 20.7C21.1401 20.5133 21.893 19.1069 22.5588 17.8632C22.6063 17.7745 22.6534 17.6866 22.7 17.6C22.7492 17.5087 22.7978 17.4179 22.8462 17.3277C23.4862 16.1334 24.0702 15.0438 25 14.3C25.3 14.1 25.5 14 25.8 14H44.1H53.6C54.7 14 58.1 14.2 59.3 16.9C59.3965 17.0931 59.4931 17.2965 59.593 17.507C59.8034 17.9505 60.0287 18.4253 60.3 18.9C60.4 19.05 60.475 19.2 60.55 19.35C60.625 19.5 60.7 19.65 60.8 19.8C61.1 20.3 61.5 20.7 62 21.1C62.3 21.3 62.5 21.5 62.8 21.8C63.3238 22.3238 64.0762 22.619 64.9242 22.9516C65.0476 23 65.173 23.0492 65.3 23.1C65.39 23.1371 65.4808 23.1741 65.5723 23.2114ZM67.1241 33.7879C67.2081 33.3804 67.2885 32.9902 67.4 32.6C67.7 31.4 67.8 28.6 67.5 27.6C67.1 26.4 66.1 26 64.5 25.4C63.4 25 62.1 24.5 61.1 23.5C60.8 23.3 60.6 23.1 60.4 22.9L60.4 22.9C59.8 22.4 59.1 21.8 58.6 20.9C58.5 20.75 58.425 20.6 58.35 20.45C58.275 20.3 58.2 20.15 58.1 20C57.7 19.3 57.3 18.6 57 17.8C56.6 16.9 55 16.5 53.6 16.5H44.1C42.137 16.5 40.2073 16.4889 38.2739 16.4778C34.3962 16.4556 30.5039 16.4333 26.3 16.5C25.889 16.9932 25.5456 17.6215 25.1587 18.3293C25.0749 18.4827 24.989 18.6398 24.9 18.8L24.8797 18.8365C23.8851 20.6269 22.7872 22.6034 20.9 23.1C20.2 23.3 19.5 23.6 18.8 24C18.4 24.2 17.9 24.4 17.4 24.6C16.6 24.9 16.5 25.2 16.5 25.8C16.5 29 16.9 32.4 17.6 36.4C18 38.2 18.5 40 19 41.8C19.3 42.7 19.6 43.6 19.8 44.5C20.2214 45.413 20.5935 46.4247 20.9509 47.3965C21.1023 47.8084 21.2512 48.213 21.4 48.6C21.45 48.8 21.525 49 21.6 49.2C21.675 49.4 21.75 49.6 21.8 49.8C22 50.4 22.2889 51.0889 22.5778 51.7778C22.7222 52.1222 22.8667 52.4667 23 52.8C23.1 53 23.225 53.225 23.35 53.45C23.475 53.675 23.6 53.9 23.7 54.1C23.75 54.25 23.825 54.4 23.9 54.55C23.975 54.7 24.05 54.85 24.1 55C24.8 56.5 25.5 57.8 26.4 59.1C27.5 60.7 28.4 61.9 29.3 63C29.5041 63.2624 29.7166 63.5247 29.9352 63.7945C30.4664 64.4502 31.0332 65.1498 31.6 66C31.9 66.4 32.3 66.9 32.8 67.4C32.9583 67.5847 33.1236 67.7694 33.2922 67.9578C33.7625 68.4834 34.2583 69.0375 34.7 69.7C35.8 71 36.2 71.4 36.8 72L37.1 72.6L37.6 73.1C37.7309 73.2309 37.8809 73.3619 38.05 73.5095C38.2682 73.7 38.5182 73.9182 38.8 74.2C39.2 74.5 39.5 74.8 39.7 75.1L40.2 75.6C40.6 75.3 41.2 74.7 41.4 74.4C43.8 71.1 46.7 68.4 48.9 66.4C52.3 63.4 56 59.7 58.7 55.3C60.8 51.9 62.2 48.3 63.6 44.5C64.0068 43.5703 64.3798 42.6068 64.7582 41.6291C65.0311 40.9243 65.3068 40.2122 65.6 39.5C66.0583 38.3542 66.3416 37.15 66.6281 35.932C66.7167 35.5556 66.8056 35.1778 66.9 34.8C66.9885 34.4459 67.0574 34.1115 67.1241 33.7879ZM55.4992 26.9999C55.8992 27.0999 56.2992 27.3999 56.3992 27.7999C56.4242 27.8499 56.4492 27.9124 56.4773 27.9827C56.5617 28.1936 56.6742 28.4749 56.8992 28.6999C56.9911 28.9145 57.0807 29.1197 57.1666 29.3162C57.6407 30.4018 57.9992 31.2225 57.9992 31.8999C57.9992 32.1999 57.8992 32.3999 57.7992 32.5999C57.7992 32.5999 56.7992 34.1999 56.2992 34.8999C55.7992 35.5999 55.2992 36.2999 54.6992 36.8999C54.2992 37.2999 53.8992 37.6999 53.5992 38.0999C53.0992 38.6999 52.6992 39.1999 52.2992 39.7999C51.1992 41.2999 49.9992 42.8999 48.5992 44.2999C48.2658 44.5666 48.0214 44.8332 47.7769 45.0999C47.6547 45.2332 47.5325 45.3666 47.3992 45.4999C47.0992 45.8999 46.6992 46.2999 46.3992 46.5999L46.3992 46.5999L45.9992 46.9999L45.0992 47.8999C44.9992 48.0999 44.7992 48.2999 44.5992 48.4999L44.5991 48.4999C44.2991 48.7999 43.9991 49.0999 43.7992 49.3999C43.7117 49.5165 43.6243 49.6416 43.5343 49.7702C43.3158 50.0829 43.0826 50.4165 42.7992 50.6999L41.5992 52.1999L40.8992 53.5999C40.7992 53.7999 40.6992 53.9999 40.4992 54.0999C40.2992 54.1999 39.9992 54.2999 39.7992 54.2999C39.1992 54.2999 38.5992 53.8999 37.7992 53.2999C37.682 53.1827 37.5992 53.1342 37.5305 53.094C37.482 53.0656 37.4406 53.0413 37.3992 52.9999C37.0922 52.8157 36.8606 52.6315 36.6581 52.4705C36.5308 52.3692 36.415 52.2771 36.2992 52.1999C35.8992 51.8999 35.4992 51.5999 34.9992 51.2999C33.1992 50.0999 31.7992 48.6999 30.0992 46.6999C29.9992 46.6999 29.9992 46.5999 29.9992 46.5999C29.6992 46.0999 29.3992 45.6999 28.9992 45.2999C28.4992 44.7999 27.9992 44.1999 27.3992 43.2999C27.1992 42.8999 27.1992 42.2999 27.4992 41.8999L28.0992 40.9999C28.7992 39.7999 29.6992 38.3999 30.9992 37.9999C32.2992 37.6999 33.9992 38.5999 35.8992 39.8999C36.0992 39.9999 36.2992 40.0999 36.3992 40.1999C36.4992 40.1999 36.4992 40.1999 36.5992 40.2999L38.0992 41.4999C38.1992 41.5499 38.2992 41.6249 38.3992 41.6999C38.4992 41.7749 38.5992 41.8499 38.6992 41.8999C38.9392 41.6799 39.1872 41.4519 39.4352 41.2239C40.4272 40.3119 41.4192 39.3999 41.8992 38.9999C43.3992 37.3999 44.9992 35.8999 46.5992 34.4999L46.5993 34.4998C47.6992 33.4998 48.7992 32.4999 49.6992 31.5999C50.3992 30.8999 54.1992 27.3999 54.3992 27.2999C54.6992 26.9999 55.0992 26.8999 55.4992 26.9999ZM52.7992 35.1999C53.2992 34.6999 53.7992 34.0999 54.1992 33.4999C54.3492 33.2499 54.5492 32.9249 54.7492 32.5999C54.9492 32.2749 55.1492 31.9499 55.2992 31.6999C55.2492 31.5499 55.1492 31.3499 55.0366 31.1249C54.9241 30.8999 54.7992 30.6499 54.6992 30.3999C53.2992 31.5999 51.6992 33.0999 51.2992 33.4999C50.2992 34.3999 49.1992 35.3999 48.0992 36.3999L48.0991 36.4C46.4991 37.9 44.8991 39.3999 43.3992 40.8999C43.3992 40.9617 43.361 40.9853 43.3082 41.0179C43.2755 41.0381 43.2374 41.0617 43.1992 41.0999C42.8992 41.2999 41.2992 42.7999 39.9992 44.0999C39.6992 44.3999 39.2992 44.5999 38.8992 44.5999C38.0197 44.6878 37.1403 44.0798 36.533 43.6598C36.4497 43.6022 36.3715 43.5481 36.2992 43.4999L34.7992 42.2999C34.6992 42.1999 34.4992 42.0999 34.2992 41.9999C33.6992 41.5999 32.0992 40.5999 31.4992 40.4999C31.1225 40.6882 30.48 41.763 30.1557 42.3054C30.1356 42.3391 30.1167 42.3707 30.0992 42.3999C30.0492 42.4499 30.0242 42.4999 29.9992 42.5499C29.9742 42.5999 29.9492 42.6499 29.8992 42.6999L29.8992 42.6999C30.1992 43.0999 30.4992 43.4999 30.7992 43.7999C30.9325 43.9666 31.0658 44.1221 31.1992 44.2777C31.4658 44.5888 31.7325 44.8999 31.9992 45.2999C33.5992 47.0999 34.7992 48.2999 36.3992 49.3999C36.8342 49.6174 37.1641 49.8875 37.4651 50.134C37.5792 50.2274 37.6892 50.3174 37.7992 50.3999L37.7993 50.4C38.0992 50.6 38.3992 50.7999 38.7992 51.0999C38.7992 51.1999 38.9992 51.2999 39.1992 51.3999C39.2374 51.3235 39.261 51.2617 39.2811 51.2089C39.3137 51.1235 39.3374 51.0617 39.3992 50.9999C39.4992 50.9999 39.4992 50.8999 39.4992 50.8999C39.8342 50.3973 40.2395 49.8947 40.5974 49.4508C40.6667 49.3648 40.7342 49.281 40.7992 49.1999L41.6992 47.9999C42.0992 47.4999 42.3992 47.1999 42.7992 46.7999L43.2992 46.2999C43.5991 45.8999 43.8991 45.5999 44.1991 45.2999L44.1992 45.2999L44.5992 44.8999C44.7492 44.7499 44.8992 44.5749 45.0492 44.3999C45.1992 44.2249 45.3492 44.0499 45.4992 43.8999C45.8992 43.3999 46.2992 42.9999 46.7992 42.4999C48.0992 41.2999 49.1992 39.7999 50.2992 38.2999C50.4992 37.9999 50.7242 37.7249 50.9492 37.4499C51.1741 37.1749 51.3992 36.8999 51.5992 36.5999C51.7992 36.3499 51.9992 36.1249 52.1992 35.8999C52.3992 35.6749 52.5992 35.4499 52.7992 35.1999Z" fill="#58448B"/>
</svg>
