<svg width="188" height="173" viewBox="0 0 188 173" fill="none" xmlns="http://www.w3.org/2000/svg">
<path d="M186.5 89.8599C186.5 113.442 174.047 133.824 155.349 148.359C136.642 162.9 111.781 171.5 87.2593 171.5C62.7758 171.5 43.3783 162.931 30.0926 148.526C16.7932 134.107 9.5 113.709 9.5 89.8599C9.5 66.3321 23.1928 45.7688 43.2129 31.0244C63.231 16.2814 89.4025 7.5 113.926 7.5C138.389 7.5 156.46 16.2315 168.445 30.7707C180.465 45.3514 186.5 65.9406 186.5 89.8599Z" stroke="#EBEBF2" stroke-width="3"/>
<path d="M178.5 83.8599C178.5 107.442 166.047 127.824 147.349 142.359C128.642 156.9 103.781 165.5 79.2593 165.5C54.7758 165.5 35.3783 156.931 22.0926 142.526C8.79315 128.107 1.5 107.709 1.5 83.8599C1.5 60.3321 15.1928 39.7688 35.2129 25.0244C55.231 10.2814 81.4025 1.5 105.926 1.5C130.389 1.5 148.46 10.2315 160.445 24.7707C172.465 39.3514 178.5 59.9406 178.5 83.8599Z" stroke="#EBEBF2" stroke-width="3"/>
<path d="M179 84.3405C179 130.04 132.218 163 86.6543 163C41.0908 163 14 130.04 14 84.3405C14 38.6413 65.5353 5 111.099 5C156.662 5 179 38.6413 179 84.3405Z" fill="#EBEBF2"/>
</svg>
