<svg width="24" height="25" viewBox="0 0 24 25" fill="none" xmlns="http://www.w3.org/2000/svg">
<path d="M14.2969 12.2403C14.2969 13.5342 13.2686 14.5831 12 14.5831C10.7314 14.5831 9.70312 13.5342 9.70312 12.2403C9.70312 10.9463 10.7314 9.89746 12 9.89746C13.2686 9.89746 14.2969 10.9463 14.2969 12.2403Z" fill="#9595AB"/>
<path d="M17.3715 8.09439C17.261 7.78921 17.0849 7.51298 16.856 7.28624C16.6337 7.05278 16.3631 6.87311 16.0637 6.76049C15.8209 6.66431 15.4562 6.54982 14.7844 6.51863C14.0576 6.48482 13.8397 6.47754 11.9999 6.47754C10.1599 6.47754 9.94196 6.48464 9.21539 6.51844C8.54358 6.54982 8.17865 6.66431 7.93604 6.76049C7.63666 6.87311 7.36584 7.05278 7.14374 7.28624C6.91486 7.51298 6.73871 7.78902 6.62811 8.09439C6.53381 8.34204 6.42157 8.71427 6.39099 9.39952C6.35785 10.1406 6.35071 10.3629 6.35071 12.2397C6.35071 14.1163 6.35785 14.3386 6.39099 15.0799C6.42157 15.7651 6.53381 16.1372 6.62811 16.3848C6.73871 16.6902 6.91467 16.9662 7.14355 17.193C7.36584 17.4264 7.63647 17.6061 7.93585 17.7187C8.17865 17.8151 8.54358 17.9296 9.21539 17.9608C9.94196 17.9946 10.1597 18.0017 11.9997 18.0017C13.8399 18.0017 14.0578 17.9946 14.7842 17.9608C15.456 17.9296 15.8209 17.8151 16.0637 17.7187C16.6647 17.4823 17.1396 16.9978 17.3715 16.3848C17.4658 16.1372 17.578 15.7651 17.6088 15.0799C17.6419 14.3386 17.6489 14.1163 17.6489 12.2397C17.6489 10.3629 17.6419 10.1406 17.6088 9.39952C17.5782 8.71427 17.4659 8.34204 17.3715 8.09439ZM11.9999 15.8486C10.0456 15.8486 8.46136 14.2329 8.46136 12.2395C8.46136 10.2461 10.0456 8.63041 11.9999 8.63041C13.954 8.63041 15.5382 10.2461 15.5382 12.2395C15.5382 14.2329 13.954 15.8486 11.9999 15.8486ZM15.6781 9.33116C15.2214 9.33116 14.8512 8.95352 14.8512 8.48772C14.8512 8.02192 15.2214 7.64428 15.6781 7.64428C16.1348 7.64428 16.505 8.02192 16.505 8.48772C16.5048 8.95352 16.1348 9.33116 15.6781 9.33116Z" fill="#9595AB"/>
<path d="M12 0C5.3736 0 0 5.48107 0 12.24C0 18.9989 5.3736 24.48 12 24.48C18.6264 24.48 24 18.9989 24 12.24C24 5.48107 18.6264 0 12 0ZM18.8491 15.1377C18.8157 15.8859 18.6991 16.3967 18.5288 16.8438C18.1708 17.7879 17.4391 18.5343 16.5135 18.8994C16.0754 19.0731 15.5744 19.1919 14.8411 19.226C14.1063 19.2602 13.8715 19.2684 12.0002 19.2684C10.1287 19.2684 9.8941 19.2602 9.15912 19.226C8.42578 19.1919 7.9248 19.0731 7.48663 18.8994C7.02667 18.7229 6.61029 18.4463 6.26605 18.0886C5.91559 17.7377 5.64441 17.3128 5.47137 16.8438C5.30109 16.3969 5.18445 15.8859 5.15112 15.1379C5.11725 14.3882 5.10938 14.1488 5.10938 12.24C5.10938 10.3312 5.11725 10.0918 5.15094 9.3423C5.18427 8.59411 5.30072 8.0833 5.47101 7.63618C5.64404 7.16721 5.91541 6.74231 6.26605 6.39137C6.61011 6.03371 7.02667 5.75711 7.48645 5.58062C7.9248 5.40692 8.4256 5.28814 9.15912 5.25396C9.89392 5.21978 10.1287 5.21156 12 5.21156C13.8713 5.21156 14.1061 5.21978 14.8409 5.25415C15.5744 5.28814 16.0752 5.40692 16.5135 5.58043C16.9733 5.75692 17.3899 6.03371 17.7341 6.39137C18.0846 6.7425 18.356 7.16721 18.5288 7.63618C18.6993 8.0833 18.8157 8.59411 18.8492 9.3423C18.8828 10.0918 18.8906 10.3312 18.8906 12.24C18.8906 14.1488 18.8828 14.3882 18.8491 15.1377Z" fill="#9595AB"/>
</svg>
