<svg width="90" height="90" viewBox="0 0 90 90" fill="none" xmlns="http://www.w3.org/2000/svg">
<path d="M79.5 19.6996C79.5 19.3996 79.4 19.0996 79 18.9996L72 15.6996C70.9 15.1996 69.2 13.9996 67.9 14.3996C66.6 14.7996 65.9 16.4996 65.2 17.5996C63.6 19.9996 62.1 22.3996 60.5 24.6996C59.7 25.8996 58.9 27.0996 58.1 28.1996C44.6 28.8996 31 29.1996 17.5 29.1996C16.5 29.1996 15.7 30.0996 15.8 30.8996C18.8 46.6996 18.1 61.8996 19.9 77.8996C20 78.3996 20.4 78.5996 20.8 78.6996C20.9 78.9996 21.1 79.3996 21.6 79.3996C35.7 80.5996 49.8 80.6996 64 79.6996C64.6 79.5996 64.9 79.0996 64.8 78.5996C65.3 79.0996 66.2 78.7996 66.3 77.9996C67.5 63.3996 68.6 48.7996 69.7 34.1996C69.7 33.8996 69.6 33.6996 69.4 33.5996C72.7 29.2996 76.1 25.1996 79.6 20.9996C80 20.4996 79.8 19.8996 79.5 19.6996Z" fill="#FF7071"/>
<path d="M73.7 16.1997C73.7 15.8997 73.5 15.6997 73.3 15.4997C73.2 15.0997 73 14.7997 72.6 14.6997L65.6 11.3997C65.4 11.2997 65.2 11.1997 64.9 11.0997C63.8 10.4997 62.4 9.79969 61.2 10.1997C60 10.5997 59.4 11.6997 58.8 12.7997C58.6 13.0997 58.5 13.2997 58.3 13.5997C57.6 14.5997 56.8 15.7997 56 16.9997C55.2 18.1997 54.4 19.3997 53.7 20.5997C53.3 21.1997 52.9 21.7997 52.5 22.3997C52.1 22.8997 51.8 23.4997 51.4 23.9997C38.5 24.4997 25 24.7997 11.2 24.7997C11 24.3997 10.5 24.2997 10 24.3997C9.50004 24.5997 8.90004 25.0997 9.00004 25.8997C10.8 35.1997 11.2 44.8997 11.7 54.1997C12 60.5997 12.4 67.2997 13.1 73.8997C13.2 74.3997 13.5 74.7997 14 74.9997C14.1 75.3997 14.5 75.6997 15.1 75.7997C22.9 76.4997 30.7 76.7997 38.5 76.7997C44.8 76.7997 51.2 76.5997 57.5 76.0997C59.2 75.8997 59.5 75.7997 59.6 75.5997C60.1 75.2997 60.1 74.9997 60.1 74.4997C60.1 74.3997 60.1 74.1997 60.1 74.0997C61.3 59.2997 62.4 44.8997 63.5 30.2997C63.5 30.0997 63.4 29.7997 63.3 29.5997C66.7 25.2997 70 21.1997 73.3 17.2997C73.6 16.9997 73.7 16.5997 73.7 16.1997ZM30.8 43.3997C30.5 43.1997 30.2 42.9997 29.8 42.7997C28.6 41.9997 27 40.8997 25.5 41.0997C24.2 41.2997 23.4 42.2997 22.8 43.2997L22.6 43.5997C22.2 44.1997 21.7 44.8997 21.3 45.4997C21 45.8997 20.7 46.2997 20.5 46.6997C20.2 44.6997 19.9 42.6997 19.6 40.6997C19.3 38.5997 18.9 36.3997 18.6 34.1997H44.5L36.2 46.5997L30.8 43.3997ZM51.7 68.2997L24.9 68.9997C24.4 66.8997 23.9 64.6997 23.5 62.5997C22.9 60.1997 22.4 57.6997 21.9 55.2997L36.6 65.2997C37.2 65.6997 37.9 65.3997 38.3 64.8997C42.6 58.2997 47.2 51.4997 52.2 44.6997C52.2 52.4997 52.1 60.3997 51.7 68.2997ZM48 28.9997C47.4 29.8997 46.7 30.8997 46.1 31.7997C45.9 31.6997 45.7 31.6997 45.5 31.6997H17.8C17.7 31.6997 17.6 31.6997 17.5 31.6997C17.1 31.5997 16.7 31.7997 16.4 31.9997C16.1 32.2997 15.9 32.6997 16 33.0997C16.9 38.4997 17.8 43.9997 18.6 49.5997C18.5 49.7997 18.4 49.8997 18.3 50.0997C18.2 50.2997 18 50.4997 17.9 50.6997C17.6 51.0997 17.6 51.4997 17.8 51.8997C17.8 52.2997 18 52.6997 18.4 53.0997C18.5 53.0997 18.6 53.1997 18.7 53.2997C18.8 53.2997 18.8 53.3997 18.9 53.3997C19.6 56.2997 20.2 59.1997 20.9 62.0997C21.5 64.9997 22.2 67.7997 22.9 70.6997C23 70.9997 23.1 71.2997 23.4 71.3997C23.6 71.4997 23.9 71.5997 24.2 71.4997C24.3 71.4997 24.5 71.4997 24.6 71.4997L52.3 70.7997C52.9 70.7997 53 70.7997 53.7 70.1997L53.8 70.0997L53.9 69.9997C54.3 69.3997 54.3 69.1997 54.3 68.6997C54.8 59.2997 54.9 50.3997 54.6 41.4997C57.1 38.0997 59.2 35.2997 61.2 32.7997C60.6 41.3997 59.9 50.1997 59.2 58.6997C58.8 63.5997 58.4 68.4997 58 73.3997C57.9 73.3997 57.8 73.4997 57.8 73.4997L57.7 73.5997C43.8 74.5997 29.7 74.4997 15.7 73.2997C15 66.8997 14.7 60.3997 14.4 54.0997C14 45.2997 13.5 36.0997 12 27.1997C24.6 27.1997 37.4 26.8997 50 26.3997C49.2 27.2997 48.6 28.1997 48 28.9997ZM20.3 51.2997C20.7 50.6997 21.1 50.1997 21.5 49.5997C21.9 48.8997 22.4 48.2997 22.8 47.5997C23 47.2997 23.2 46.8997 23.5 46.5997C24.5 44.9997 25.4 43.4997 27.4 44.0997C28.3 44.3997 29.3 44.9997 30.2 45.6997C30.6 45.9997 31.1 46.2997 31.5 46.4997C32.3 46.8997 33 47.3997 33.8 47.7997C34.6 48.1997 35.3 48.6997 36.1 49.0997C36.6 49.3997 37.3 49.1997 37.8 48.6997C42.8 41.2997 47.7 33.7997 52.7 26.4997L60 15.5997C60 15.5997 60.2 15.2997 60.3 14.9997C60.6 14.3997 61.4 13.0997 61.7 12.9997C62.5 12.5997 64.4 13.4997 65.2 13.8997L65.5 14.0997C66.5 14.4997 67.4 14.9997 68.4 15.3997C69.2 15.7997 70.1 16.1997 70.9 16.4997C58.8 30.7997 47.3 46.2997 36.6 62.4997L20.3 51.2997Z" fill="#58448B"/>
</svg>
