<svg width="18" height="18" viewBox="0 0 18 18" fill="none" xmlns="http://www.w3.org/2000/svg">
<path d="M14.7624 11.5218C14.7575 11.4195 14.7467 11.3175 14.7368 11.2155C14.7278 11.1211 14.7199 11.027 14.7064 10.9331C14.6914 10.8292 14.6705 10.7259 14.6503 10.6227C14.6324 10.5313 14.6159 10.4398 14.5938 10.3491C14.569 10.2469 14.538 10.1461 14.508 10.0453C14.481 9.95439 14.4552 9.8637 14.4237 9.77398C14.39 9.67739 14.3505 9.58252 14.3119 9.4874C14.2743 9.39498 14.2377 9.30256 14.1956 9.21162C14.1546 9.12314 14.1079 9.03662 14.0627 8.94986C14.0132 8.85548 13.9643 8.7611 13.9098 8.66892C13.8621 8.58855 13.8095 8.51039 13.7581 8.43174C13.6964 8.3376 13.635 8.24347 13.5676 8.15228C13.5123 8.07707 13.4521 8.00456 13.3929 7.93132C13.3211 7.84283 13.2496 7.75435 13.1722 7.66906C13.1515 7.6462 13.1341 7.62138 13.1129 7.59852C13.0203 7.49898 12.9234 7.40386 12.8249 7.31119C12.8165 7.30333 12.8096 7.29473 12.8015 7.28711V4.25925C12.8025 4.24622 12.8054 4.23369 12.8054 4.22017C12.8054 1.88937 10.9161 0 8.58528 0C8.58454 0 8.58405 0 8.58331 0C8.58257 0 8.58208 0 8.58134 0C6.25054 0 4.36117 1.88937 4.36117 4.22017C4.36117 4.23344 4.36412 4.24598 4.36511 4.25925V7.28711C4.35675 7.29473 4.34987 7.30358 4.34176 7.31119C4.2432 7.40386 4.1466 7.49898 4.05369 7.59852C4.03256 7.62138 4.01511 7.64596 3.99446 7.66906C3.91728 7.75459 3.84551 7.84283 3.77374 7.93132C3.71451 8.00456 3.65429 8.07707 3.59899 8.15228C3.53164 8.24371 3.47019 8.33785 3.4085 8.43174C3.35689 8.51039 3.30429 8.58855 3.25685 8.66892C3.20229 8.7611 3.15337 8.85548 3.10397 8.94986C3.0585 9.03687 3.01205 9.12314 2.971 9.21162C2.92872 9.30232 2.89235 9.39498 2.85474 9.4874C2.81615 9.58252 2.77658 9.67739 2.74291 9.77398C2.71169 9.8637 2.68564 9.95464 2.6586 10.0453C2.62837 10.1464 2.59765 10.2471 2.57282 10.3491C2.5507 10.4398 2.53424 10.5313 2.51629 10.6227C2.49614 10.7259 2.475 10.8289 2.46025 10.9331C2.44674 11.027 2.43887 11.1214 2.42978 11.2155C2.41994 11.3175 2.40913 11.4195 2.40421 11.5218C2.39954 11.6201 2.40053 11.7184 2.40053 11.8167C2.40053 11.9153 2.3993 12.0134 2.40421 12.1117C2.40913 12.2139 2.41994 12.3159 2.42978 12.4179C2.43887 12.5123 2.44674 12.6064 2.46025 12.7003C2.47525 12.8043 2.49614 12.9075 2.51629 13.0108C2.53424 13.1022 2.5507 13.1936 2.57282 13.2843C2.59765 13.3866 2.62862 13.4873 2.6586 13.5881C2.68564 13.6791 2.71145 13.7698 2.74291 13.8595C2.77658 13.9561 2.81615 14.0509 2.85474 14.1461C2.89235 14.2385 2.92897 14.3309 2.971 14.4218C3.01205 14.5103 3.05875 14.5968 3.10397 14.6836C3.15337 14.778 3.20229 14.8724 3.25685 14.9645C3.30453 15.0449 3.35713 15.1231 3.4085 15.2017C3.47019 15.2958 3.53164 15.39 3.59899 15.4812C3.65429 15.5564 3.71451 15.6289 3.77374 15.7021C3.84551 15.7906 3.91704 15.8791 3.99446 15.9644C4.01511 15.9872 4.03256 16.0121 4.05369 16.0349C4.10433 16.0892 4.15963 16.1362 4.21174 16.1883C4.26384 16.2404 4.31079 16.2957 4.36511 16.3463C4.38796 16.3675 4.41254 16.3849 4.43565 16.4056C4.52118 16.4828 4.60942 16.5545 4.6979 16.6263C4.77115 16.6855 4.84365 16.7457 4.91887 16.8011C5.0103 16.8684 5.10419 16.9298 5.19833 16.9915C5.27698 17.0431 5.35514 17.0957 5.43576 17.1434C5.52793 17.198 5.62231 17.2467 5.71645 17.2961C5.80345 17.3415 5.88973 17.388 5.97846 17.4293C6.06915 17.4713 6.16181 17.5079 6.25398 17.5455C6.3491 17.5841 6.44398 17.6237 6.54057 17.6574C6.63028 17.6886 6.72122 17.7146 6.81217 17.7417C6.91319 17.7719 7.01396 17.8026 7.11596 17.8275C7.20666 17.8496 7.29809 17.866 7.38952 17.884C7.49275 17.9041 7.59574 17.9253 7.6997 17.94C7.7936 17.9535 7.88798 17.9614 7.98211 17.9705C8.08412 17.9803 8.18612 17.9912 8.28837 17.9961C8.38668 18.0007 8.485 17.9998 8.58331 17.9998C8.68187 17.9998 8.77994 18.001 8.87826 17.9961C8.9805 17.9912 9.0825 17.9803 9.18451 17.9705C9.27889 17.9614 9.37303 17.9535 9.46692 17.94C9.57088 17.925 9.67387 17.9041 9.7771 17.884C9.86853 17.866 9.95997 17.8493 10.0507 17.8275C10.1527 17.8026 10.2534 17.7717 10.3545 17.7417C10.4454 17.7146 10.5361 17.6888 10.626 17.6574C10.7226 17.6237 10.8175 17.5841 10.9126 17.5455C11.0051 17.5082 11.0975 17.4716 11.1882 17.4293C11.2766 17.3882 11.3632 17.3415 11.4502 17.2961C11.5446 17.2467 11.6387 17.198 11.7309 17.1434C11.8115 17.0957 11.8894 17.0431 11.9683 16.9915C12.0624 16.9298 12.1563 16.8684 12.2478 16.8011C12.323 16.7457 12.3955 16.6855 12.4687 16.6263C12.5572 16.5545 12.6457 16.483 12.731 16.4056C12.7538 16.3849 12.7787 16.3675 12.8015 16.3463C12.8558 16.2957 12.9028 16.2404 12.9549 16.1883C13.007 16.1362 13.0623 16.0892 13.1129 16.0349C13.1341 16.0121 13.1515 15.9875 13.1722 15.9644C13.2496 15.8791 13.3211 15.7906 13.3929 15.7021C13.4521 15.6289 13.5123 15.5564 13.5676 15.4812C13.635 15.3897 13.6964 15.2956 13.7581 15.2017C13.8097 15.1231 13.8623 15.0449 13.9098 14.9645C13.9643 14.8724 14.0132 14.778 14.0627 14.6836C14.1081 14.5966 14.1546 14.5103 14.1956 14.4218C14.2379 14.3311 14.2743 14.2385 14.3119 14.1461C14.3505 14.0509 14.39 13.9561 14.4237 13.8595C14.4549 13.7698 14.481 13.6788 14.508 13.5881C14.5382 13.4871 14.569 13.3863 14.5938 13.2843C14.6159 13.1936 14.6324 13.1022 14.6503 13.0108C14.6705 12.9075 14.6916 12.8045 14.7064 12.7003C14.7199 12.6064 14.7278 12.5121 14.7368 12.4179C14.7467 12.3159 14.7575 12.2139 14.7624 12.1117C14.7671 12.0134 14.7661 11.915 14.7661 11.8167C14.7658 11.7184 14.7671 11.6201 14.7624 11.5218ZM9.14346 13.2236C9.14346 13.5338 8.89251 13.785 8.58282 13.7862C8.27288 13.7852 8.02218 13.5338 8.02218 13.2236V10.4101C8.02218 10.0999 8.27313 9.8487 8.58282 9.84748C8.89276 9.84846 9.14346 10.0999 9.14346 10.4101V13.2236ZM11.6758 6.45659C10.8615 5.98689 9.94571 5.70571 8.9955 5.6423C8.99156 5.64205 8.98739 5.64156 8.98345 5.64131C8.85122 5.63271 8.71849 5.62681 8.58503 5.62681C8.58429 5.62681 8.5838 5.62681 8.58307 5.62681C8.58233 5.62681 8.58184 5.62681 8.5811 5.62681C8.44764 5.62681 8.31491 5.63271 8.18268 5.64131C8.17874 5.64156 8.17457 5.64205 8.17063 5.6423C7.22042 5.70571 6.30462 5.98665 5.49032 6.45659V4.22017C5.49032 2.5117 6.87484 1.12644 8.58331 1.12546C10.2915 1.12644 11.6763 2.5117 11.6763 4.22017V6.45659H11.6758Z" fill="#A5A3B8"/>
</svg>
