<svg width="21" height="22" viewBox="0 0 21 22" fill="none" xmlns="http://www.w3.org/2000/svg">
<path fill-rule="evenodd" clip-rule="evenodd" d="M17.4862 0.422852C18.2886 0.422852 19.06 0.755214 19.6261 1.35477C20.1922 1.94781 20.5156 2.7559 20.5156 3.59658V18.4095C20.5156 19.2502 20.1922 20.0583 19.6261 20.6513C19.06 21.2509 18.2886 21.5832 17.4862 21.5832H13.4489C12.8953 21.5832 12.4412 21.114 12.4412 20.5275C12.4412 19.9475 12.8891 19.4718 13.4489 19.4718H17.4862C17.7536 19.4718 18.0149 19.3545 18.2015 19.159C18.3944 18.9569 18.5001 18.6897 18.5001 18.4095V3.6031C18.5001 3.32287 18.3882 3.04916 18.2015 2.85366C18.0087 2.65163 17.7536 2.54085 17.4862 2.54085H13.4489C12.8891 2.54085 12.4412 2.05859 12.4412 1.47859C12.4412 0.898586 12.8891 0.422852 13.4489 0.422852H17.4862ZM14.4576 10.9995C14.4576 11.1429 14.4265 11.2797 14.3767 11.4035C14.327 11.5339 14.2523 11.6512 14.1652 11.7555L9.12025 17.0407C8.72213 17.4512 8.0814 17.4512 7.6895 17.0407C7.29759 16.6236 7.29759 15.9523 7.6895 15.5418L11.0113 12.0552H1.33197C0.778328 12.0552 0.324219 11.586 0.324219 10.9995C0.324219 10.4195 0.772107 9.94376 1.33197 9.94376H11.0051L7.68328 6.46374C7.29137 6.04665 7.29137 5.37541 7.68328 4.96485C8.0814 4.55428 8.72213 4.55428 9.11403 4.96485L14.159 10.2501C14.2523 10.3478 14.327 10.4651 14.3767 10.5954C14.4265 10.7193 14.4576 10.8561 14.4576 10.9995Z" fill="white"/>
</svg>
