<svg width="120" height="99" viewBox="0 0 120 99" fill="none" xmlns="http://www.w3.org/2000/svg">
<path d="M12.2199 16.8354C12.2248 17.3535 12.031 17.8537 11.6785 18.2327C11.5147 18.4269 11.3103 18.5826 11.0797 18.6886C10.8491 18.7947 10.598 18.8485 10.3443 18.8463C9.84433 18.8234 9.37149 18.6118 9.02077 18.254L4.20789 13.6824V16.8744C4.22789 17.1494 4.1836 17.4253 4.07855 17.6802C3.9735 17.9351 3.81058 18.1619 3.60274 18.3427C3.17843 18.6836 2.64572 18.8599 2.10225 18.8392C1.55897 18.8586 1.02669 18.6825 0.601766 18.3427C0.396626 18.1615 0.235711 17.9355 0.131411 17.6822C0.0271109 17.4288 -0.0177931 17.1549 0.000156077 16.8815V3.87605C-0.0189007 3.60144 0.0254623 3.32611 0.1298 3.07147C0.234137 2.81682 0.39564 2.5897 0.601766 2.40776C1.02635 2.06694 1.55857 1.88957 2.10225 1.90769C2.64612 1.8883 3.17877 2.06582 3.60274 2.40776C3.81058 2.58849 3.9735 2.81531 4.07855 3.07019C4.1836 3.32508 4.22789 3.60101 4.20789 3.87605V11.9056L8.58195 7.44749C8.75485 7.25508 8.96604 7.10108 9.20191 6.99541C9.43779 6.88974 9.69313 6.83473 9.9515 6.83392C10.2018 6.83364 10.4496 6.88516 10.6791 6.98524C10.9087 7.08532 11.1152 7.23182 11.2857 7.41557C11.4665 7.58316 11.6112 7.786 11.711 8.01165C11.8108 8.2373 11.8636 8.481 11.866 8.72781C11.8602 8.98279 11.803 9.23394 11.6978 9.46617C11.5925 9.69839 11.4415 9.90687 11.2538 10.0791L8.67396 12.6362L11.6077 15.4735C11.8001 15.6471 11.954 15.8594 12.0595 16.0964C12.165 16.3334 12.2196 16.59 12.2199 16.8495" fill="white"/>
<path d="M14.5983 4.61072C14.3909 4.42622 14.2272 4.19779 14.1188 3.94199C14.0105 3.68619 13.9603 3.40943 13.9719 3.13178C13.9596 2.85561 14.0095 2.5802 14.118 2.32601C14.2264 2.07182 14.3906 1.84538 14.5983 1.66348C15.0741 1.28433 15.6724 1.09372 16.2793 1.12795C16.8863 1.0976 17.4834 1.29199 17.9567 1.67412C18.1682 1.85362 18.3359 2.07928 18.447 2.33379C18.558 2.5883 18.6094 2.86491 18.5972 3.14242C18.6082 3.41775 18.5583 3.6921 18.4513 3.94591C18.3442 4.19971 18.1826 4.42671 17.9779 4.61072C17.5035 5.00798 16.8967 5.21069 16.2793 5.17817C15.6678 5.20653 15.068 5.00404 14.5983 4.61072ZM14.7859 18.3751C14.5802 18.1951 14.4188 17.9699 14.3144 17.717C14.2101 17.4641 14.1655 17.1905 14.1843 16.9174V8.76025C14.1655 8.48723 14.2101 8.21357 14.3144 7.96069C14.4188 7.7078 14.5802 7.48256 14.7859 7.30259C15.2228 6.9869 15.7477 6.81702 16.2864 6.81702C16.825 6.81702 17.3499 6.9869 17.7868 7.30259C17.9995 7.48225 18.1662 7.71015 18.2733 7.96737C18.3804 8.22459 18.4247 8.5037 18.4026 8.78153V16.9387C18.4226 17.2122 18.3783 17.4866 18.2731 17.7397C18.168 17.9929 18.0051 18.2178 17.7975 18.3964C17.3606 18.7121 16.8356 18.8819 16.297 18.8819C15.7583 18.8819 15.2334 18.7121 14.7965 18.3964" fill="white"/>
<path d="M32.6076 2.44363C32.8033 2.6111 32.9593 2.8203 33.064 3.05594C33.1687 3.29157 33.2195 3.54768 33.2127 3.80553V16.928C33.2255 17.1916 33.1811 17.4549 33.0828 17.6998C32.9844 17.9447 32.8344 18.1653 32.643 18.3466C32.2252 18.674 31.7128 18.8568 31.1826 18.8677C30.6524 18.8785 30.1329 18.7169 29.7021 18.4069C29.5167 18.2502 29.3654 18.0569 29.2577 17.8391C29.1499 17.6213 29.088 17.3836 29.0758 17.1408C28.7268 17.7066 28.2216 18.1587 27.6213 18.4424C26.8647 18.8012 26.0297 18.9621 25.1943 18.91C24.3588 18.8579 23.5502 18.5945 22.8438 18.1445C22.0439 17.6076 21.4101 16.8569 21.0142 15.9775C20.5583 14.9765 20.3321 13.8857 20.3524 12.7855C20.3287 11.6964 20.5513 10.6161 21.0036 9.62551C21.3948 8.76521 22.0267 8.03711 22.8226 7.52947C23.6285 7.03314 24.5593 6.77839 25.505 6.79532C26.2118 6.78752 26.9111 6.9403 27.5505 7.24219C28.1377 7.50722 28.6444 7.92325 29.0191 8.44804V3.7346C29.0083 3.48611 29.0525 3.2383 29.1486 3.00896C29.2446 2.77962 29.3902 2.57445 29.5747 2.40817C29.9941 2.05824 30.5304 1.8808 31.0752 1.91164C31.639 1.88842 32.191 2.07829 32.6217 2.44363H32.6076ZM28.4848 15.0093C28.918 14.3695 29.1259 13.6032 29.0758 12.8316C29.1248 12.0702 28.9166 11.3144 28.4848 10.6859C28.2805 10.4345 28.0199 10.235 27.724 10.1037C27.4282 9.97243 27.1056 9.91308 26.7826 9.93052C26.4651 9.91252 26.1479 9.96959 25.8565 10.0971C25.5651 10.2247 25.3077 10.4191 25.1051 10.6647C24.6721 11.2766 24.4622 12.0192 24.5106 12.7678C24.4619 13.5561 24.6788 14.3379 25.1264 14.988C25.3206 15.2434 25.5737 15.4478 25.864 15.5837C26.1543 15.7196 26.4731 15.7829 26.7932 15.7682C27.1168 15.787 27.4401 15.7279 27.7362 15.5959C28.0324 15.4638 28.2927 15.2627 28.4954 15.0093" fill="white"/>
<path d="M46.3065 17.1649C46.3065 18.2076 45.6765 18.7289 44.4167 18.7289H36.9851C36.7367 18.7387 36.489 18.6976 36.2571 18.6079C36.0253 18.5182 35.8141 18.382 35.6367 18.2076C35.4691 18.0449 35.3365 17.8497 35.247 17.6337C35.1576 17.4178 35.1132 17.1858 35.1165 16.9521C35.1241 16.4133 35.3353 15.8974 35.7075 15.5086L40.662 10.1887H36.8506C35.5907 10.1887 34.9608 9.66734 34.9608 8.62463C34.9608 7.59612 35.5907 7.08541 36.8506 7.08541H44.0133C44.2616 7.07558 44.5093 7.11676 44.7412 7.20642C44.9731 7.29608 45.1842 7.43232 45.3616 7.60676C45.5296 7.76978 45.6625 7.96564 45.752 8.18221C45.8415 8.39877 45.8857 8.63144 45.8818 8.8658C45.8727 9.39558 45.6642 9.90234 45.2979 10.2844L40.3116 15.6398H44.4238C45.6836 15.6398 46.3135 16.1529 46.3135 17.179" fill="white"/>
<path d="M58.0805 17.2863C58.0948 17.5303 58.0427 17.7737 57.9299 17.9904C57.8171 18.2071 57.6478 18.3891 57.4399 18.517C56.8824 18.8133 56.2467 18.9285 55.621 18.8468L54.9592 18.7972C53.5436 18.6884 52.4678 18.2581 51.7317 17.5062C50.9992 16.7579 50.6347 15.7081 50.6347 14.3675V10.1789H49.9481C48.6859 10.1789 48.0548 9.65756 48.0548 8.61486C48.0548 7.58634 48.6847 7.07563 49.9481 7.07563H50.6347V5.5364C50.6245 5.27336 50.6696 5.01111 50.7671 4.7667C50.8647 4.52229 51.0125 4.30118 51.2009 4.11776C51.6382 3.77141 52.1793 3.58301 52.7368 3.58301C53.2942 3.58301 53.8353 3.77141 54.2726 4.11776C54.4617 4.30087 54.6101 4.52184 54.7083 4.76626C54.8065 5.01069 54.8521 5.2731 54.8424 5.5364V7.09336H56.1412C57.401 7.09336 58.0309 7.60408 58.0309 8.63259C58.0309 9.66111 57.401 10.1966 56.1412 10.1966H54.853V14.7257C54.8443 15.0035 54.9404 15.2745 55.122 15.4846C55.2101 15.5864 55.3188 15.6685 55.4407 15.7253C55.5627 15.7821 55.6952 15.8125 55.8297 15.8145L56.5163 15.8641C57.578 15.928 58.1017 16.3997 58.1017 17.2828" fill="white"/>
<path d="M60.4548 4.61029C60.2474 4.4258 60.0836 4.19737 59.9753 3.94157C59.8669 3.68577 59.8167 3.40901 59.8284 3.13136C59.8161 2.85519 59.866 2.57978 59.9744 2.32559C60.0828 2.0714 60.247 1.84496 60.4548 1.66306C60.945 1.30819 61.5345 1.11719 62.1393 1.11719C62.744 1.11719 63.3335 1.30819 63.8238 1.66306C64.0342 1.84325 64.201 2.06913 64.3113 2.32353C64.4217 2.57794 64.4728 2.85421 64.4608 3.13136C64.4724 3.40901 64.4222 3.68577 64.3139 3.94157C64.2055 4.19737 64.0417 4.4258 63.8344 4.61029C63.3459 4.97446 62.7534 5.17113 62.1446 5.17113C61.5358 5.17113 60.9432 4.97446 60.4548 4.61029ZM60.6458 18.3747C60.4382 18.1961 60.2753 17.9712 60.1702 17.718C60.0651 17.4649 60.0207 17.1905 60.0407 16.917V8.75982C60.0207 8.48635 60.0651 8.21198 60.1702 7.95881C60.2753 7.70564 60.4382 7.48073 60.6458 7.30217C61.0828 6.98648 61.6077 6.8166 62.1463 6.8166C62.685 6.8166 63.2099 6.98648 63.6468 7.30217C63.8525 7.48214 64.0139 7.70738 64.1183 7.96026C64.2226 8.21315 64.2672 8.48681 64.2484 8.75982V16.917C64.2672 17.19 64.2226 17.4637 64.1183 17.7166C64.0139 17.9695 63.8525 18.1947 63.6468 18.3747C63.2099 18.6904 62.685 18.8602 62.1463 18.8602C61.6077 18.8602 61.0828 18.6904 60.6458 18.3747Z" fill="white"/>
<path d="M84.0098 7.93713C84.7035 8.70319 85.0503 9.99534 85.0503 11.8136V16.9278C85.069 17.2008 85.0245 17.4745 84.9201 17.7273C84.8157 17.9802 84.6544 18.2055 84.4487 18.3854C84.0112 18.7014 83.4856 18.8715 82.9464 18.8715C82.4072 18.8715 81.8816 18.7014 81.4442 18.3854C81.2384 18.2055 81.0771 17.9802 80.9727 17.7273C80.8684 17.4745 80.8238 17.2008 80.8425 16.9278V11.7036C80.8881 11.2367 80.7719 10.7683 80.5134 10.3772C80.3894 10.2466 80.2383 10.145 80.0707 10.0794C79.9032 10.0138 79.7233 9.98593 79.5438 9.99771C79.2897 9.98839 79.037 10.0383 78.8055 10.1436C78.574 10.2488 78.37 10.4065 78.2096 10.6042C77.8531 11.0716 77.676 11.6518 77.7106 12.2392V16.9278C77.7342 17.1977 77.6957 17.4694 77.5982 17.7221C77.5006 17.9748 77.3466 18.2017 77.148 18.3854C76.7092 18.7015 76.1825 18.8715 75.6422 18.8715C75.1018 18.8715 74.5751 18.7015 74.1364 18.3854C73.9287 18.2069 73.7658 17.982 73.6607 17.7288C73.5556 17.4756 73.5112 17.2013 73.5312 16.9278V11.7036C73.5767 11.2367 73.4605 10.7683 73.2021 10.3772C73.0784 10.2462 72.9273 10.1443 72.7596 10.0787C72.592 10.0131 72.412 9.98543 72.2324 9.99771C71.9828 9.98783 71.7342 10.0362 71.5064 10.139C71.2786 10.2417 71.0777 10.3961 70.9195 10.59C70.5655 11.064 70.3901 11.6481 70.4241 12.2392V16.9278C70.4428 17.2008 70.3983 17.4745 70.2939 17.7273C70.1895 17.9802 70.0282 18.2055 69.8225 18.3854C69.3856 18.7011 68.8606 18.871 68.322 18.871C67.7834 18.871 67.2584 18.7011 66.8215 18.3854C66.6138 18.2069 66.4509 17.982 66.3458 17.7288C66.2407 17.4756 66.1964 17.2013 66.2163 16.9278V8.73157C66.1988 8.462 66.2466 8.19218 66.3557 7.94514C66.4647 7.6981 66.6318 7.48119 66.8427 7.31292C67.2736 6.98542 67.8026 6.81412 68.3432 6.82704C68.8383 6.8151 69.3227 6.97273 69.7163 7.27391C69.9031 7.42727 70.0526 7.62138 70.1531 7.84142C70.2537 8.06147 70.3028 8.30164 70.2967 8.5436C71.0682 7.37322 72.2478 6.78921 73.8356 6.79157C75.5201 6.79157 76.6466 7.47843 77.2152 8.85215C77.6068 8.22248 78.1526 7.70361 78.8006 7.34484C79.4872 6.96989 80.2589 6.7793 81.0407 6.79157C82.3194 6.79157 83.3044 7.17342 83.9957 7.93713" fill="white"/>
<path d="M97.6732 15.4134C97.9178 15.7315 98.043 16.1257 98.0271 16.527C98.0301 16.8316 97.9443 17.1305 97.7802 17.3869C97.6162 17.6433 97.3809 17.8462 97.1034 17.9705C96.4949 18.267 95.8551 18.4942 95.196 18.6479C94.5357 18.8196 93.8573 18.9113 93.1753 18.921C92.005 18.9488 90.845 18.6959 89.7921 18.1833C88.8593 17.7187 88.0865 16.985 87.5732 16.0766C87.0342 15.0909 86.7644 13.98 86.7911 12.8563C86.7723 11.7626 87.0291 10.6818 87.5378 9.71398C88.0124 8.81217 88.7344 8.0652 89.6187 7.56119C90.5361 7.04013 91.5759 6.77442 92.6303 6.79158C93.6295 6.76815 94.6168 7.01305 95.4897 7.5009C96.3075 7.97101 96.9696 8.67149 97.3936 9.51537C97.8606 10.4639 98.0913 11.5116 98.066 12.569C98.0865 12.8699 97.9986 13.1681 97.8183 13.4095C97.7304 13.5095 97.621 13.5882 97.4985 13.6398C97.3759 13.6914 97.2433 13.7145 97.1105 13.7075H90.8644C90.9072 14.3223 91.1668 14.9019 91.5969 15.3424C92.0772 15.7069 92.6736 15.8834 93.2744 15.839C93.6418 15.843 94.0083 15.7988 94.3643 15.7078C94.7408 15.6096 95.1118 15.4912 95.4756 15.3531C95.7091 15.2573 95.9427 15.1758 96.1833 15.1048C96.3856 15.0381 96.5968 15.0022 96.8097 14.9984C96.9802 14.9948 97.1491 15.0315 97.3028 15.1054C97.4564 15.1793 97.5906 15.2885 97.6944 15.424L97.6732 15.4134ZM91.4412 10.175C91.0806 10.6057 90.8695 11.1422 90.8396 11.7036H94.5519C94.4575 10.3134 93.8595 9.61822 92.7577 9.61822C92.5115 9.60729 92.2657 9.64908 92.0369 9.74081C91.8081 9.83255 91.6014 9.97212 91.4306 10.1502" fill="white"/>
<path d="M103.859 0.04224C105.638 -0.0878023 106.936 0.0895281 107.752 0.574231C108.568 1.05893 108.96 2.12292 108.927 3.76618C108.833 5.61592 108.4 7.4325 107.649 9.1251C107.043 10.6454 106.342 12.1261 105.551 13.5584C105.257 14.0655 104.949 14.3315 104.634 14.3563C104.305 14.3791 103.979 14.2737 103.725 14.062C103.414 13.8181 103.144 13.5259 102.925 13.1966C102.688 12.8419 102.49 12.5369 102.341 12.2745C102.001 11.7094 101.723 10.7636 101.506 9.4372C101.286 8.10387 101.2 6.75167 101.251 5.40116C101.276 4.15535 101.502 2.9218 101.92 1.74816C102.316 0.684176 102.96 0.113172 103.852 0.04224" fill="white"/>
<path d="M103.966 20.3852L103.449 19.5943C103.405 19.5299 103.347 19.4769 103.278 19.4399C103.21 19.4028 103.134 19.3828 103.056 19.3815L102.115 19.3602C102.027 19.3558 101.941 19.3271 101.868 19.2773C101.795 19.2276 101.737 19.1586 101.701 19.0781C101.664 18.9975 101.65 18.9084 101.661 18.8206C101.672 18.7327 101.706 18.6495 101.761 18.58L102.352 17.8387C102.4 17.7784 102.434 17.7072 102.448 17.6312C102.463 17.5551 102.459 17.4766 102.437 17.4025L102.164 16.4945C102.138 16.4087 102.137 16.3172 102.16 16.2306C102.184 16.1439 102.231 16.0657 102.297 16.0046C102.362 15.9436 102.444 15.9023 102.532 15.8855C102.62 15.8687 102.711 15.8769 102.794 15.9094L103.679 16.2427C103.751 16.2703 103.83 16.2798 103.907 16.2705C103.984 16.2613 104.057 16.2335 104.121 16.1895L104.896 15.6505C104.97 15.5992 105.056 15.5696 105.145 15.5651C105.235 15.5605 105.324 15.5813 105.402 15.6249C105.48 15.6685 105.544 15.7333 105.588 15.8118C105.631 15.8903 105.651 15.9794 105.647 16.069L105.59 17.023C105.586 17.1005 105.602 17.1778 105.634 17.2482C105.667 17.3186 105.716 17.38 105.777 17.4273L106.521 17.9877C106.592 18.0421 106.646 18.1154 106.678 18.1991C106.71 18.2829 106.718 18.3739 106.701 18.4619C106.684 18.55 106.643 18.6315 106.582 18.6975C106.522 18.7634 106.444 18.8112 106.358 18.8353L105.448 19.0836C105.374 19.1046 105.305 19.1433 105.249 19.1964C105.192 19.2494 105.149 19.3153 105.123 19.3886L104.811 20.2823C104.781 20.3662 104.728 20.4399 104.658 20.4954C104.589 20.5509 104.505 20.5859 104.416 20.5966C104.328 20.6072 104.239 20.5931 104.158 20.5558C104.077 20.5185 104.008 20.4594 103.958 20.3852" fill="white"/>
<path fill-rule="evenodd" clip-rule="evenodd" d="M77.8424 40.5018C76.6541 38.7841 75.3076 37.1645 73.8125 35.6661C67.2242 29.0634 58.2886 25.3541 48.9715 25.3541C42.0233 25.3541 35.2312 27.419 29.454 31.2876C23.6768 35.1562 19.1741 40.6548 16.5151 47.0881C13.8562 53.5214 13.1605 60.6004 14.516 67.4299C15.3761 71.7636 17.0377 75.8734 19.3927 79.5565C16.6612 75.6079 14.752 71.1217 13.8081 66.3658C12.4526 59.5363 13.1483 52.4573 15.8072 46.024C18.4662 39.5907 22.9689 34.0921 28.7461 30.2235C34.5233 26.3549 41.3154 24.29 48.2636 24.29C57.5808 24.29 66.5163 27.9994 73.1046 34.602C74.905 36.4063 76.4898 38.3863 77.8424 40.5018Z" fill="white"/>
<path d="M41.6634 78.0956L40.0072 77.5565C38.9905 77.2267 38.0127 76.7867 37.0912 76.2443C36.1777 75.7071 35.3277 75.0682 34.5573 74.3398C33.3784 73.272 32.4761 71.9332 31.9279 70.4385C31.698 69.4905 31.5593 68.5226 31.5139 67.548C31.0836 62.2862 31.3957 56.9898 32.4411 51.8153L34.8687 39.7213C34.9258 39.3224 34.873 38.9154 34.7162 38.5443C34.5594 38.1732 34.3044 37.8521 33.9788 37.6155C33.6532 37.379 33.2693 37.2361 32.8686 37.2022C32.4679 37.1683 32.0655 37.2447 31.705 37.4231C28.9323 38.7952 26.7605 41.1421 25.6039 44.0163C25.3257 44.705 25.109 45.4171 24.9563 46.1442C23.4417 51.5067 20.0904 65.6045 24.2485 73.2758L24.3335 73.4283C25.3171 76.0312 26.8922 78.3688 28.934 80.2555C30.1501 81.4063 31.4915 82.4164 32.933 83.2666C34.3792 84.121 35.9149 84.8133 37.5123 85.3307L41.3484 86.5756C42.0885 86.8158 42.8935 86.7515 43.5863 86.3971C44.2791 86.0426 44.8031 85.4268 45.043 84.6852C45.2543 84.0313 45.3349 83.3421 45.2803 82.657C45.2256 81.9718 45.0368 81.3042 44.7246 80.6922C44.4124 80.0803 43.9829 79.536 43.4607 79.0904C42.9384 78.6449 42.3337 78.3068 41.6811 78.0956" fill="white"/>
<path d="M50.656 31.0682C43.0191 30.2631 39.0662 33.87 36.9712 41.9314C36.8296 42.4776 36.6951 43.045 36.5713 43.6338C34.593 52.8869 33.4323 65.8994 35.5839 70.3539C36.4077 72.1662 37.8301 73.6381 39.6112 74.5212L39.6997 74.5673C39.9246 74.6792 40.1734 74.7348 40.4245 74.7293C40.6756 74.7239 40.9217 74.6574 41.1416 74.5357C41.3614 74.414 41.5486 74.2407 41.687 74.0306C41.8254 73.8206 41.9109 73.58 41.9362 73.3295L42.5945 66.8321C42.664 66.1441 42.9731 65.5026 43.4675 65.0201C43.9619 64.5376 44.61 64.2449 45.2982 64.1935L45.9529 64.1403C46.2516 64.1141 46.5525 64.1516 46.8357 64.2504C47.119 64.3492 47.3781 64.5069 47.5961 64.7133C47.8141 64.9197 47.9859 65.1701 48.1004 65.4479C48.2149 65.7256 48.2693 66.0246 48.2602 66.325L47.9629 80.7845C47.9558 81.1082 48.0239 81.4291 48.162 81.7218C48.3 82.0145 48.5042 82.271 48.7583 82.4709C49.0124 82.6709 49.3094 82.8088 49.6259 82.8737C49.9424 82.9386 50.2697 82.9288 50.5817 82.8451L51.0064 82.7316C52.3989 82.3575 53.6335 81.5426 54.5263 80.4082C55.4191 79.2738 55.9223 77.8806 55.9608 76.4363L56.5731 53.6991L56.8102 44.8893C56.566 38.7395 55.2849 31.5469 50.6667 31.0575L50.656 31.0682ZM49.9766 39.119L48.9149 53.4898C48.7238 56.0505 46.512 58.0614 43.7941 58.1394C43.541 58.1512 43.2912 58.0781 43.0842 57.9316C42.8772 57.7852 42.7248 57.5737 42.6511 57.3308C42.6108 57.1878 42.6023 57.0376 42.6263 56.891L42.6723 56.6108C43.1819 40.0978 45.829 38.7005 45.829 38.7005C46.0831 38.3361 46.4118 38.0302 46.7932 37.8033C47.1746 37.5764 47.6 37.4337 48.0408 37.3847C48.2866 37.3462 48.5378 37.3628 48.7764 37.4333C49.015 37.5037 49.2351 37.6262 49.4208 37.7921C49.6066 37.9579 49.7534 38.1628 49.8507 38.3923C49.948 38.6217 49.9934 38.8699 49.9837 39.119" fill="white"/>
<path d="M73.2727 60.5158C72.6463 60.2073 72.1261 59.9306 71.6979 59.6788C71.1403 59.3549 70.7195 58.8385 70.5143 58.2262C70.3092 57.6139 70.3336 56.9476 70.5831 56.3521C71.3334 54.5788 71.9385 53.0041 72.2712 52.1387C72.4666 51.6356 72.5859 51.106 72.6251 50.5676C73.3045 39.8426 64.7723 34.9058 61.2582 35.2427C57.6485 35.5974 57.8538 40.3711 57.8538 40.3711C58.3634 42.2082 57.7087 72.7303 57.6698 78.412C57.6308 84.0936 60.0762 84.7249 60.0762 84.7249C67.0053 86.7465 71.4006 77.5324 73.9168 72.5282C76.4329 67.5239 76.1781 61.9238 73.2833 60.5158H73.2727ZM63.7956 41.3251C69.4401 42.2437 67.6883 49.0815 66.6479 51.7557C65.6075 54.4298 63.4629 54.9476 62.7551 54.0326C62.0474 53.1176 61.6935 41.9068 61.6935 41.9068C61.6475 40.6761 63.792 41.3251 63.792 41.3251H63.7956ZM66.0038 76.3479C62.9675 78.3091 63.3957 75.9932 63.3957 75.9932L63.1904 64.2681C63.1692 63.6333 63.8239 60.874 67.2884 63.9135C70.753 66.9529 69.0402 74.3724 66.0038 76.3266" fill="white"/>
<path d="M46.7454 95.6947C45.4845 95.6154 44.2288 95.4685 42.9836 95.2549C42.484 95.5713 42.021 95.9424 41.6034 96.3614C42.434 97.0383 43.3429 97.6122 44.3106 98.0709C45.4017 97.6294 46.2761 96.776 46.7454 95.6947Z" fill="#EFEFED"/>
<path d="M47.1028 93.5591C45.6361 93.8613 44.2389 94.4363 42.9835 95.2544C44.2285 95.4698 45.4843 95.6166 46.7454 95.6942C46.9844 95.1265 47.1048 94.5157 47.0992 93.8996C47.0992 93.7861 47.0992 93.6691 47.0992 93.5449" fill="#EFEFED"/>
<path d="M42.9836 95.2543C35.7286 93.9938 29.0517 90.482 23.8952 85.2143C18.7387 79.9466 15.363 73.1892 14.2444 65.8955H14.1559C13.4314 65.8962 12.7179 66.0725 12.0761 66.4094C11.4344 66.7463 10.8835 67.2338 10.4705 67.8303C10.0575 68.4268 9.79455 69.1146 9.70422 69.835C9.61389 70.5553 9.69879 71.2869 9.9517 71.9673C8.97571 72.8038 8.27898 73.9199 7.95538 75.1654C7.63179 76.4108 7.69687 77.7258 8.14186 78.9331C8.58685 80.1403 9.39036 81.1819 10.4442 81.9174C11.4979 82.653 12.7514 83.0472 14.0356 83.0469C14.5559 83.0488 15.0744 82.9845 15.5785 82.8554C15.78 83.4228 16.0821 83.9491 16.4703 84.4088C15.5187 85.4682 14.9747 86.8325 14.9359 88.2574C14.897 89.6822 15.3657 91.0744 16.2581 92.1843C17.1505 93.2942 18.4081 94.0493 19.8056 94.3142C21.2031 94.5791 22.6491 94.3366 23.8843 93.63C24.8312 94.7499 26.1555 95.4823 27.6057 95.6882C29.0559 95.8942 30.5311 95.5593 31.7512 94.7472C31.905 95.648 32.2977 96.4909 32.8881 97.1874C33.4786 97.8839 34.2451 98.4085 35.1073 98.7062C35.9695 99.0039 36.8957 99.0638 37.789 98.8795C38.6822 98.6953 39.5096 98.2737 40.1844 97.6589C40.912 98.1336 41.7616 98.3862 42.6298 98.386C43.2061 98.3866 43.7771 98.2746 44.3107 98.0562C43.3423 97.5988 42.4332 97.0247 41.6035 96.3467C42.0211 95.9277 42.484 95.5565 42.9836 95.2402" fill="#AADFF3"/>
<path d="M81.1961 74.7341C77.1653 84.6646 65.3065 95.7654 48.971 95.7654C48.2255 95.7654 47.4835 95.7418 46.7451 95.6945C46.2743 96.7761 45.3987 97.6293 44.3068 98.0707C50.245 100.83 54.5377 96.3613 54.5377 96.3613C71.9242 94.9604 85.7754 77.6707 92.3648 60.5938C91.3385 61.8563 83.1637 73.2729 81.189 74.7341" fill="#AADFF3"/>
<path d="M34.4227 89.761C34.4227 90.9471 34.0718 92.1066 33.4142 93.0929C32.7566 94.0791 31.822 94.8478 30.7286 95.3018C29.6351 95.7557 28.4318 95.8744 27.271 95.643C26.1102 95.4116 25.0439 94.8404 24.207 94.0017C23.3701 93.163 22.8001 92.0944 22.5692 90.931C22.3383 89.7676 22.4568 88.5618 22.9098 87.4659C23.3627 86.37 24.1297 85.4334 25.1138 84.7744C26.0979 84.1154 27.2549 83.7637 28.4385 83.7637C30.0256 83.7637 31.5477 84.3955 32.67 85.5202C33.7923 86.645 34.4227 88.1704 34.4227 89.761Z" fill="#AADFF3"/>
<path d="M41.8438 93.8992C41.8438 94.9072 41.5456 95.8925 40.9868 96.7306C40.428 97.5688 39.6338 98.222 38.7046 98.6077C37.7753 98.9935 36.7528 99.0944 35.7664 98.8977C34.7799 98.7011 33.8738 98.2157 33.1626 97.5029C32.4514 96.7902 31.967 95.8821 31.7708 94.8935C31.5746 93.9049 31.6753 92.8801 32.0602 91.9489C32.4451 91.0176 33.0969 90.2217 33.9332 89.6616C34.7695 89.1016 35.7527 88.8027 36.7585 88.8027C38.1072 88.8027 39.4007 89.3397 40.3544 90.2955C41.3081 91.2512 41.8438 92.5475 41.8438 93.8992Z" fill="#AADFF3"/>
<path d="M47.1133 93.8994C47.114 94.7897 46.8512 95.6602 46.3582 96.4008C45.8651 97.1414 45.164 97.7188 44.3435 98.06C43.5229 98.4012 42.6199 98.4908 41.7485 98.3176C40.8771 98.1443 40.0766 97.716 39.4482 97.0867C38.8198 96.4574 38.3917 95.6555 38.2181 94.7823C38.0446 93.9092 38.1333 93.0041 38.4731 92.1815C38.8129 91.3589 39.3885 90.6558 40.1271 90.1611C40.8657 89.6664 41.7341 89.4023 42.6224 89.4023C43.8129 89.4023 44.9546 89.876 45.7967 90.7193C46.6388 91.5626 47.1123 92.7064 47.1133 93.8994Z" fill="#AADFF3"/>
<path d="M50.2276 93.8389C50.2283 94.3141 50.0883 94.7788 49.8253 95.1742C49.5623 95.5696 49.1881 95.8779 48.7502 96.0601C48.3123 96.2422 47.8303 96.2901 47.3652 96.1976C46.9001 96.105 46.4729 95.8763 46.1376 95.5403C45.8024 95.2043 45.5741 94.7761 45.4818 94.31C45.3894 93.8439 45.4372 93.3609 45.619 92.922C45.8007 92.4831 46.1084 92.1082 46.5029 91.8446C46.8974 91.581 47.3611 91.4407 47.8353 91.4414C48.4695 91.4423 49.0774 91.6952 49.5258 92.1447C49.9743 92.5941 50.2266 93.2034 50.2276 93.8389Z" fill="#AADFF3"/>
<path d="M54.0602 94.3815C54.0602 94.9631 53.8882 95.5315 53.5658 96.015C53.2434 96.4985 52.7852 96.8753 52.2492 97.0979C51.7131 97.3204 51.1232 97.3786 50.5541 97.2652C49.9851 97.1517 49.4623 96.8717 49.052 96.4605C48.6417 96.0494 48.3623 95.5255 48.2491 94.9551C48.1359 94.3848 48.194 93.7936 48.4161 93.2564C48.6381 92.7192 49.0141 92.26 49.4966 91.9369C49.979 91.6138 50.5462 91.4414 51.1265 91.4414C51.9046 91.4414 52.6508 91.7512 53.201 92.3026C53.7511 92.8539 54.0602 93.6018 54.0602 94.3815Z" fill="#AADFF3"/>
<path d="M56.0952 93.9598C56.0959 94.2924 55.9981 94.6178 55.8142 94.8947C55.6303 95.1716 55.3686 95.3877 55.0622 95.5154C54.7557 95.6432 54.4183 95.677 54.0927 95.6126C53.7671 95.5481 53.4679 95.3883 53.2329 95.1533C52.998 94.9183 52.8379 94.6188 52.7728 94.2926C52.7078 93.9664 52.7408 93.6282 52.8677 93.3208C52.9946 93.0134 53.2096 92.7507 53.4855 92.5658C53.7614 92.3809 54.0859 92.2822 54.4178 92.2822C54.8621 92.2822 55.2882 92.4589 55.6027 92.7734C55.9171 93.0879 56.0943 93.5145 56.0952 93.9598Z" fill="#AADFF3"/>
<path d="M57.5285 94.6939C57.5285 94.9043 57.4662 95.11 57.3496 95.285C57.2329 95.46 57.0671 95.5963 56.8731 95.6769C56.6791 95.7574 56.4656 95.7785 56.2597 95.7374C56.0538 95.6964 55.8646 95.595 55.7161 95.4462C55.5676 95.2974 55.4665 95.1078 55.4256 94.9014C55.3846 94.695 55.4056 94.4811 55.486 94.2867C55.5663 94.0923 55.7024 93.9261 55.877 93.8092C56.0516 93.6923 56.2568 93.6299 56.4668 93.6299C56.7484 93.6299 57.0184 93.742 57.2175 93.9415C57.4166 94.1411 57.5285 94.4117 57.5285 94.6939Z" fill="#AADFF3"/>
<path d="M59.0993 94.7407C59.0993 94.9189 59.0466 95.093 58.9478 95.2412C58.849 95.3893 58.7086 95.5048 58.5444 95.573C58.3801 95.6411 58.1994 95.659 58.025 95.6242C57.8507 95.5895 57.6905 95.5037 57.5648 95.3777C57.4391 95.2517 57.3535 95.0912 57.3188 94.9164C57.2841 94.7417 57.3019 94.5606 57.3699 94.396C57.438 94.2313 57.5532 94.0906 57.701 93.9917C57.8488 93.8927 58.0226 93.8398 58.2004 93.8398C58.4388 93.8398 58.6674 93.9348 58.836 94.1037C59.0046 94.2726 59.0993 94.5018 59.0993 94.7407Z" fill="#AADFF3"/>
<path d="M31.0325 94.0771L30.8768 94.1729L30.7281 94.258C30.6432 94.3041 30.5618 94.3502 30.4769 94.3892L30.3212 94.4637L30.1159 94.5488L29.9743 94.6056C29.8788 94.641 29.7832 94.6765 29.6877 94.7049L29.5568 94.7439C29.4718 94.7687 29.3869 94.7935 29.302 94.8112C29.2581 94.8256 29.2131 94.8363 29.1675 94.8432C29.0613 94.868 28.9551 94.8893 28.8454 94.907H28.757C28.6508 94.907 28.5446 94.9354 28.4385 94.9425H28.3217C28.2014 94.9425 28.074 94.9425 27.9678 94.9425C27.8616 94.9425 27.7555 94.9425 27.6493 94.9425H27.5679C27.4794 94.9425 27.3874 94.9425 27.2989 94.9212H27.2423L26.984 94.8857H26.9309L26.669 94.8325H26.6301L26.3541 94.7616C25.2512 94.4481 24.2659 93.8136 23.523 92.9386C22.7205 93.4018 21.8188 93.6652 20.8937 93.7066C19.9686 93.7481 19.0471 93.5664 18.2066 93.1769C17.3661 92.7873 16.6312 92.2013 16.0636 91.468C15.4959 90.7347 15.1123 89.8756 14.9447 88.9629C15.0344 89.9645 15.374 90.9274 15.9322 91.7631C16.4904 92.5987 17.2493 93.2803 18.1392 93.7451C19.029 94.2099 20.0212 94.4429 21.0244 94.4229C22.0277 94.4028 23.0098 94.1302 23.8804 93.6302C24.6436 94.5316 25.6557 95.1868 26.7893 95.5135L27.076 95.588H27.1149L27.3839 95.6412H27.4405C27.529 95.6589 27.6174 95.6695 27.7059 95.6802H27.7661L28.0421 95.705H28.0952H28.4208C28.5482 95.705 28.6756 95.705 28.8065 95.705H28.9233C29.0365 95.705 29.1462 95.6837 29.2524 95.666H29.3444C29.4577 95.6483 29.5674 95.6234 29.6771 95.6021L29.8151 95.5702L30.077 95.4993L30.215 95.4603L30.5087 95.3574L30.6573 95.2971L30.8697 95.2049L31.0289 95.1305C31.1174 95.0879 31.2023 95.0453 31.2873 94.9957L31.3687 94.9496C31.246 94.6406 31.1559 94.3197 31.0997 93.992L30.9971 94.0558" fill="#8DD5E2"/>
<path d="M86.3486 68.6623C79.1788 82.3344 67.4156 94.4142 53.2211 95.5597C53.2211 95.5597 49.0665 99.8866 43.3123 97.216L43.2061 97.255H43.1601L43.0115 97.3047H42.9584L42.8062 97.3472H42.7531L42.5903 97.3862H42.5479L42.3674 97.4182H42.3355L42.1303 97.4465C41.9852 97.4465 41.8401 97.4678 41.6915 97.4678H41.3977H41.3446C40.6271 97.4112 39.9349 97.1759 39.331 96.7833C38.6776 97.3768 37.877 97.7835 37.0131 97.9608L36.7795 97.9998L36.5459 98.0282L36.2982 98.0459H36.0505H36.008H35.8134H35.686H35.5798L35.4347 98.0282H35.3533L35.1941 98.0034H35.1339L34.964 97.9679H34.9251L34.734 97.9218C33.8877 97.6859 33.1202 97.2266 32.5116 96.5918C33.1847 97.6712 34.2362 98.4593 35.4595 98.8013L35.6541 98.851H35.6966L35.8735 98.89H35.9372L36.1 98.9148H36.1814L36.3336 98.9326H36.4433H36.5742H36.8184H37.0768C37.1617 98.9326 37.2466 98.9326 37.328 98.9113C37.4094 98.9113 37.4908 98.8936 37.5687 98.8794L37.8058 98.8368C38.6993 98.6533 39.5269 98.2318 40.2016 97.6168C40.8249 98.0243 41.5405 98.2683 42.2824 98.3261H42.3355C42.4382 98.3261 42.5372 98.3261 42.6399 98.3261C42.792 98.3261 42.9442 98.3261 43.0929 98.3013L43.3052 98.2729H43.337L43.5246 98.2374H43.5706L43.7369 98.1984H43.79L43.9457 98.1559L44.0023 98.1381L44.1545 98.0849L44.2041 98.0672L44.3138 98.0246H44.3421H44.3173C50.252 100.784 54.5447 96.3152 54.5447 96.3152C71.9241 94.9604 85.7753 77.6707 92.3647 60.5938C91.7949 61.3031 89.0169 65.137 86.3238 68.6623H86.3486ZM44.6606 97.9111L44.7384 97.8686L44.6606 97.9111Z" fill="#8DD5E2"/>
<path d="M15.3131 73.7691C13.4481 75.3083 11.6786 76.9398 9.95166 78.6386C8.22441 80.3262 6.60846 82.1246 5.11401 84.0223C4.37252 84.9736 3.69735 85.9749 3.0933 87.0192C2.46827 88.0493 2.02083 89.1776 1.76976 90.3566C1.65473 90.9421 1.65473 91.5444 1.76976 92.1299C1.79807 92.2753 1.85469 92.4136 1.89362 92.5555C1.93255 92.6973 2.01394 92.825 2.07764 92.9598C2.14134 93.0946 2.22982 93.2152 2.31829 93.3322C2.40676 93.4492 2.49523 93.5663 2.6014 93.6691C3.02043 94.0929 3.51655 94.4324 4.06296 94.6693C4.19782 94.7345 4.33603 94.7925 4.47701 94.8431L4.6858 94.9246L4.89813 94.992L5.32634 95.1268L5.76162 95.2332C6.93667 95.4891 8.13367 95.6304 9.33589 95.6552C10.5387 95.6866 11.7424 95.6558 12.942 95.563C15.3421 95.3544 17.724 94.9728 20.0693 94.421C24.7626 93.2916 29.3738 91.8436 33.871 90.087C38.3795 88.3669 42.8102 86.4482 47.1843 84.4125C51.5583 82.3767 55.8934 80.2452 60.179 78.0286C68.7644 73.6201 77.1869 68.8783 85.4714 63.9131L85.4891 63.945C83.4437 65.2324 81.3805 66.4879 79.3102 67.7292C77.24 68.9705 75.145 70.1764 73.0464 71.3716C68.8493 73.7667 64.6121 76.0874 60.3347 78.3336C56.0456 80.5573 51.714 82.703 47.3293 84.7175C42.9447 86.732 38.4821 88.6188 33.9701 90.3389C29.4588 92.0817 24.8346 93.5154 20.1295 94.6303C17.777 95.179 15.3879 95.5559 12.9809 95.7581C11.7739 95.8461 10.5632 95.8722 9.35359 95.8361C8.14031 95.8105 6.93247 95.6656 5.74747 95.4034L5.30864 95.2899L4.87336 95.1516L4.65749 95.0807L4.44516 94.9956C4.3036 94.9353 4.15851 94.8892 4.02403 94.8182C3.45988 94.5718 2.94903 94.2177 2.52 93.7755C2.4103 93.6691 2.32183 93.5379 2.22274 93.4209C2.12365 93.3038 2.05641 93.162 1.97502 93.0307C1.89362 92.8995 1.84054 92.7505 1.78392 92.6087C1.72729 92.4668 1.68483 92.3143 1.65652 92.1618C1.53621 91.5589 1.53621 90.9382 1.65652 90.3353C1.91177 89.1425 2.36516 88.0012 2.99775 86.9589C3.61069 85.9133 4.2941 84.9109 5.04323 83.9585C6.54772 82.0651 8.17312 80.2715 9.90919 78.5889C11.6362 76.896 13.4327 75.28 15.2989 73.7407L15.3131 73.7691Z" fill="#7BB9C4"/>
<path d="M15.3131 76.3509C13.4563 77.8948 11.6692 79.5168 9.95166 81.2168C8.22442 82.9045 6.60846 84.7028 5.11401 86.6006C4.37337 87.5524 3.69825 88.5537 3.09331 89.5975C2.46723 90.6296 2.01975 91.7603 1.76976 92.9419C1.65473 93.5274 1.65473 94.1297 1.76976 94.7152C1.79808 94.8606 1.8547 94.9954 1.89363 95.1408C1.93255 95.2862 2.01395 95.4104 2.07765 95.5416C2.14135 95.6728 2.22982 95.7969 2.31829 95.914C2.40688 96.031 2.50137 96.1435 2.6014 96.2509C3.02029 96.6758 3.51639 97.0165 4.06296 97.2546C4.1939 97.322 4.33899 97.3681 4.47701 97.4248L4.6858 97.5064L4.89814 97.5773L5.32634 97.7086L5.76162 97.815C6.94437 98.0754 8.14992 98.218 9.36067 98.2406C10.5634 98.2731 11.7671 98.2435 12.9668 98.1519C15.3669 97.9421 17.7489 97.5593 20.0941 97.0063C24.7868 95.8765 29.3979 94.4297 33.8957 92.6759C38.4043 90.9523 42.835 89.0371 47.209 87.0014C51.5831 84.9656 55.9182 82.8341 60.2038 80.6175C68.7891 76.2055 77.2117 71.4672 85.4962 66.502L85.5139 66.5303C83.4684 67.8177 81.4052 69.0732 79.335 70.3146C77.2647 71.5559 75.1697 72.7617 73.0712 73.9605C68.8741 76.3509 64.6368 78.6716 60.3595 80.9225C56.0822 83.1734 51.747 85.3013 47.3541 87.3064C42.9624 89.3208 38.5069 91.2076 33.9948 92.9242C29.4831 94.6666 24.859 96.1015 20.1543 97.2191C17.7966 97.7645 15.4029 98.139 12.9916 98.3399C11.7846 98.4297 10.5739 98.4557 9.36421 98.4179C8.1507 98.39 6.94286 98.2427 5.75809 97.9781L5.30865 97.8859L4.87337 97.7511L4.65749 97.6802L4.44516 97.5951C4.30177 97.5421 4.1612 97.4817 4.02403 97.4142C3.46079 97.1678 2.95016 96.8149 2.52001 96.375C2.4103 96.2651 2.32183 96.1374 2.22274 96.0204C2.12365 95.9033 2.05641 95.7579 1.97502 95.6267C1.89363 95.4955 1.84054 95.3465 1.78392 95.2047C1.7273 95.0628 1.68483 94.9138 1.65652 94.7613C1.53621 94.1573 1.53621 93.5353 1.65652 92.9313C1.91241 91.7387 2.36576 90.5974 2.99776 89.5549C3.60643 88.5034 4.28631 87.495 5.03261 86.5367C6.54073 84.6443 8.16967 82.8519 9.90919 81.1707C11.6362 79.4778 13.4327 77.8617 15.2989 76.3225L15.3131 76.3509Z" fill="#7BB9C4"/>
<path d="M92.082 55.1885L82.1378 58.7954C82.0899 58.8148 82.0499 58.8499 82.0243 58.895C81.9988 58.94 81.9891 58.9924 81.9969 59.0436C82.0046 59.0948 82.0294 59.142 82.0672 59.1773C82.1049 59.2127 82.1535 59.2343 82.205 59.2387L85.0361 59.3735C85.0837 59.3755 85.1295 59.3926 85.1669 59.4223C85.2042 59.4519 85.2313 59.4926 85.2442 59.5386C85.2572 59.5846 85.2553 59.6335 85.2389 59.6783C85.2225 59.7232 85.1924 59.7617 85.1529 59.7884L79.88 63.3811C79.8406 63.4091 79.811 63.4489 79.7953 63.4947C79.7797 63.5405 79.7789 63.5901 79.793 63.6364C79.8071 63.6828 79.8354 63.7234 79.8739 63.7527C79.9124 63.782 79.9591 63.7984 80.0074 63.7996H82.6863C82.7248 63.7994 82.7628 63.8089 82.7966 63.8275C82.8304 63.846 82.8589 63.8729 82.8795 63.9056C82.9 63.9382 82.9119 63.9756 82.914 64.0142C82.9162 64.0527 82.9084 64.0912 82.8916 64.1259L78.8643 72.5952C78.8368 72.6427 78.8273 72.6985 78.8377 72.7524C78.8481 72.8063 78.8776 72.8546 78.9208 72.8883C78.964 72.9221 79.0179 72.939 79.0726 72.936C79.1273 72.9329 79.179 72.9102 79.2182 72.8719L85.659 67.7399C85.6892 67.7187 85.724 67.7051 85.7605 67.7002C85.7971 67.6953 85.8343 67.6992 85.869 67.7118C85.9036 67.7243 85.9348 67.745 85.9599 67.7721C85.9849 67.7992 86.0031 67.832 86.0129 67.8676L86.7596 71.0595C86.7689 71.1027 86.7907 71.1421 86.8221 71.173C86.8535 71.204 86.8932 71.2251 86.9364 71.2337C86.9796 71.2424 87.0244 71.2382 87.0652 71.2218C87.1061 71.2053 87.1413 71.1773 87.1665 71.1411L90.3091 66.8426C90.3303 66.816 90.3572 66.7945 90.3878 66.7798C90.4185 66.765 90.452 66.7573 90.486 66.7573C90.52 66.7573 90.5535 66.765 90.5842 66.7798C90.6148 66.7945 90.6417 66.816 90.6629 66.8426L92.0785 68.701C92.0997 68.7277 92.1266 68.7491 92.1573 68.7639C92.1879 68.7787 92.2214 68.7863 92.2554 68.7863C92.2894 68.7863 92.323 68.7787 92.3536 68.7639C92.3842 68.7491 92.4112 68.7277 92.4324 68.701L95.9394 63.2073C95.9608 63.1735 95.9907 63.146 96.026 63.1275C96.0614 63.109 96.1011 63.1002 96.1409 63.102C96.1808 63.1038 96.2195 63.1162 96.2531 63.1378C96.2867 63.1594 96.314 63.1895 96.3322 63.2251C96.718 63.9841 97.6098 65.619 97.8539 64.9984C98.0981 64.3777 98.5405 61.356 98.675 60.292C98.6797 60.2542 98.6749 60.2157 98.661 60.1802C98.647 60.1447 98.6243 60.1133 98.5951 60.089C98.5658 60.0646 98.5308 60.048 98.4935 60.0407C98.4561 60.0334 98.4175 60.0357 98.3812 60.0473L95.7695 60.8595C95.7312 60.872 95.6902 60.874 95.6508 60.8654C95.6114 60.8567 95.575 60.8376 95.5455 60.8101C95.5159 60.7827 95.4941 60.7478 95.4825 60.7091C95.4709 60.6703 95.4698 60.6292 95.4794 60.5899C95.4912 60.542 95.4871 60.4914 95.4676 60.446C95.4482 60.4006 95.4145 60.3627 95.3717 60.3383C95.3288 60.3138 95.2792 60.304 95.2303 60.3104C95.1814 60.3167 95.1359 60.3389 95.1007 60.3736L92.0113 63.4166C91.9726 63.4474 91.925 63.4648 91.8756 63.466C91.8263 63.4672 91.7779 63.4522 91.7378 63.4233C91.6977 63.3944 91.6682 63.3531 91.6536 63.3058C91.6391 63.2585 91.6404 63.2077 91.6574 63.1612L92.9597 60.1856C92.982 60.1383 92.9875 60.0848 92.9754 60.0339C92.9633 59.9829 92.9343 59.9377 92.8931 59.9055C92.8519 59.8733 92.8011 59.8561 92.7488 59.8567C92.6966 59.8574 92.6462 59.8758 92.6058 59.909L90.0967 61.7107C90.0514 61.7445 89.995 61.7601 89.9388 61.7544C89.8826 61.7487 89.8305 61.7221 89.7928 61.6799C89.7551 61.6377 89.7345 61.5828 89.7351 61.5262C89.7357 61.4696 89.7574 61.4152 89.7959 61.3737L92.9243 57.852C92.9549 57.8184 92.9747 57.7764 92.9812 57.7314C92.9878 57.6864 92.9806 57.6405 92.9608 57.5996C92.941 57.5587 92.9094 57.5247 92.87 57.5021C92.8307 57.4794 92.7855 57.4691 92.7403 57.4725L91.2999 57.5647C91.2586 57.5648 91.218 57.5538 91.1824 57.5328C91.1468 57.5118 91.1175 57.4815 91.0976 57.4453C91.0777 57.409 91.0679 57.368 91.0692 57.3266C91.0706 57.2852 91.083 57.2449 91.1053 57.21L92.3439 55.536C92.3733 55.4963 92.3893 55.4482 92.3893 55.3987C92.3894 55.3493 92.3736 55.3011 92.3442 55.2614C92.3148 55.2216 92.2735 55.1924 92.2263 55.178C92.1791 55.1636 92.1285 55.1647 92.082 55.1814" fill="#F8981D"/>
<path d="M98.381 60.0723L95.7693 60.8881C95.7308 60.9001 95.6898 60.9015 95.6506 60.8924C95.6113 60.8832 95.5752 60.8637 95.546 60.8358C95.5168 60.808 95.4955 60.7729 95.4844 60.734C95.4732 60.6952 95.4726 60.6541 95.4826 60.615C95.4929 60.567 95.4875 60.517 95.4674 60.4722C95.4473 60.4275 95.4134 60.3903 95.3708 60.3662C95.3282 60.342 95.2789 60.3322 95.2303 60.338C95.1817 60.3438 95.1362 60.3651 95.1005 60.3986L92.011 63.431C91.9724 63.4618 91.9248 63.4792 91.8754 63.4804C91.826 63.4816 91.7776 63.4666 91.7375 63.4377C91.6975 63.4087 91.6679 63.3675 91.6534 63.3202C91.6389 63.2729 91.6402 63.2221 91.6571 63.1756L92.9559 60.2C92.9834 60.1526 92.9929 60.0968 92.9825 60.0429C92.9721 59.989 92.9426 59.9407 92.8994 59.9069C92.8562 59.8732 92.8023 59.8563 92.7476 59.8593C92.6929 59.8623 92.6412 59.8851 92.602 59.9234L90.0929 61.7357C90.0476 61.7695 89.9912 61.7851 89.935 61.7794C89.8788 61.7737 89.8267 61.7471 89.789 61.7049C89.7513 61.6627 89.7307 61.6079 89.7313 61.5512C89.7319 61.4946 89.7536 61.4402 89.7921 61.3988L92.9205 57.877C92.9499 57.8433 92.9687 57.8017 92.9745 57.7573C92.9803 57.7129 92.973 57.6678 92.9533 57.6277C92.9336 57.5875 92.9026 57.554 92.864 57.5315C92.8254 57.509 92.781 57.4984 92.7365 57.5011L91.2962 57.5897C91.2544 57.5911 91.213 57.5809 91.1766 57.5601C91.1403 57.5394 91.1104 57.509 91.0902 57.4722C91.0701 57.4355 91.0605 57.3939 91.0625 57.3521C91.0645 57.3102 91.078 57.2697 91.1015 57.2351L92.3401 55.5575C92.3696 55.5178 92.3855 55.4697 92.3855 55.4202C92.3856 55.3708 92.3698 55.3226 92.3404 55.2829C92.3111 55.2431 92.2697 55.2139 92.2225 55.1995C92.1753 55.185 92.1247 55.1862 92.0782 55.2028L87.9201 56.7137L84.3493 59.1467C84.3164 59.1694 84.29 59.2003 84.2726 59.2364C84.2552 59.2724 84.2475 59.3124 84.2502 59.3524L85.0359 59.3878C85.0865 59.3893 85.1351 59.4081 85.1737 59.4409C85.2123 59.4738 85.2386 59.5189 85.2482 59.5687H87.1557C87.1938 59.5694 87.2313 59.5796 87.2645 59.5983C87.2978 59.6171 87.3259 59.6439 87.3463 59.6763C87.3666 59.7087 87.3786 59.7456 87.3812 59.7838C87.3838 59.822 87.3768 59.8602 87.3609 59.895L83.3408 68.3714C83.3132 68.4189 83.3038 68.4747 83.3142 68.5286C83.3246 68.5825 83.3541 68.6307 83.3972 68.6645C83.4404 68.6982 83.4943 68.7152 83.549 68.7121C83.6037 68.7091 83.6554 68.6864 83.6946 68.648L90.1389 63.5161C90.1691 63.4949 90.204 63.4813 90.2405 63.4764C90.2771 63.4715 90.3142 63.4754 90.3489 63.4879C90.3836 63.5005 90.4148 63.5211 90.4398 63.5483C90.4649 63.5754 90.4831 63.6081 90.4928 63.6438L91.2395 66.8357C91.2502 66.8779 91.2726 66.9162 91.3041 66.9461C91.3355 66.9761 91.3748 66.9965 91.4174 67.005C91.4599 67.0136 91.504 67.0099 91.5446 66.9943C91.5851 66.9788 91.6205 66.9521 91.6465 66.9173L94.7855 62.6188C94.8067 62.5922 94.8336 62.5707 94.8643 62.5559C94.8949 62.5412 94.9284 62.5335 94.9624 62.5335C94.9964 62.5335 95.03 62.5412 95.0606 62.5559C95.0912 62.5707 95.1182 62.5922 95.1394 62.6188L95.7941 63.4806L95.9604 63.2182C95.982 63.1845 96.0122 63.1572 96.0478 63.139C96.0833 63.1208 96.1231 63.1124 96.163 63.1145C96.2029 63.1167 96.2415 63.1294 96.2749 63.1513C96.3083 63.1733 96.3353 63.2037 96.3532 63.2395C96.5089 63.5409 96.7425 63.9843 96.9831 64.3673L98.4199 62.1152C98.5261 61.3881 98.6146 60.6965 98.6641 60.3135C98.6689 60.2757 98.6641 60.2372 98.6501 60.2017C98.6361 60.1662 98.6135 60.1348 98.5842 60.1104C98.5549 60.086 98.52 60.0694 98.4826 60.0622C98.4452 60.0549 98.4066 60.0572 98.3704 60.0688" fill="#F58120"/>
<path d="M87.3575 60.1179L84.1336 66.9026C84.1177 66.9399 84.1146 66.9814 84.1247 67.0207C84.1348 67.06 84.1575 67.0949 84.1893 67.1199C84.2211 67.1449 84.2603 67.1588 84.3008 67.1592C84.3413 67.1597 84.3808 67.1468 84.4132 67.1225L89.5729 63.0155C89.5972 62.997 89.6257 62.9848 89.6558 62.9801C89.686 62.9753 89.7169 62.9782 89.7457 62.9884C89.7745 62.9986 89.8003 63.0158 89.8208 63.0385C89.8412 63.0612 89.8558 63.0886 89.863 63.1184L90.4611 65.679C90.4685 65.7136 90.4859 65.7453 90.5111 65.7701C90.5363 65.7949 90.5682 65.8117 90.6029 65.8185C90.6376 65.8253 90.6735 65.8217 90.7061 65.8083C90.7388 65.7949 90.7668 65.7721 90.7867 65.7429L93.3028 62.3026C93.3196 62.2799 93.3415 62.2614 93.3667 62.2487C93.3919 62.236 93.4197 62.2293 93.4479 62.2293C93.4761 62.2293 93.504 62.236 93.5292 62.2487C93.5544 62.2614 93.5762 62.2799 93.593 62.3026L94.7219 63.7922C94.7389 63.8164 94.7615 63.8361 94.7876 63.8497C94.8138 63.8633 94.8428 63.8704 94.8723 63.8704C94.9018 63.8704 94.9309 63.8633 94.957 63.8497C94.9832 63.8361 95.0057 63.8164 95.0227 63.7922L97.1036 60.5293L95.7942 60.9372C95.7559 60.9497 95.7149 60.9517 95.6755 60.9431C95.6361 60.9344 95.5997 60.9153 95.5701 60.8879C95.5405 60.8604 95.5188 60.8255 95.5072 60.7868C95.4956 60.7481 95.4945 60.7069 95.504 60.6677C95.5159 60.6197 95.5117 60.5691 95.4923 60.5237C95.4729 60.4783 95.4392 60.4405 95.3963 60.416C95.3535 60.3915 95.3038 60.3817 95.2549 60.3881C95.206 60.3945 95.1605 60.4167 95.1254 60.4513L92.0359 63.4801C91.9973 63.511 91.9497 63.5283 91.9003 63.5295C91.8509 63.5307 91.8025 63.5157 91.7624 63.4868C91.7224 63.4579 91.6928 63.4166 91.6783 63.3693C91.6638 63.322 91.6651 63.2713 91.682 63.2248L92.9843 60.2492C93.0066 60.2018 93.0122 60.1483 93.0001 60.0974C92.988 60.0465 92.959 60.0012 92.9178 59.969C92.8766 59.9368 92.8257 59.9196 92.7735 59.9203C92.7213 59.9209 92.6708 59.9393 92.6304 59.9725L90.1249 61.7884C90.0796 61.8222 90.0232 61.8378 89.967 61.8321C89.9108 61.8264 89.8587 61.7998 89.821 61.7576C89.7833 61.7154 89.7627 61.6606 89.7633 61.6039C89.7639 61.5473 89.7856 61.4929 89.8241 61.4515L92.8392 58.0574C92.8394 58.0118 92.8557 57.9678 92.8852 57.9332L93.0091 57.7949C93.0117 57.7624 93.0073 57.7297 92.9962 57.6991C92.9851 57.6685 92.9675 57.6406 92.9447 57.6174C92.9218 57.5941 92.8943 57.5761 92.8639 57.5645C92.8335 57.5529 92.8009 57.548 92.7685 57.5502L91.3281 57.6424C91.2868 57.6425 91.2462 57.6315 91.2106 57.6105C91.175 57.5895 91.1457 57.5593 91.1258 57.523C91.1059 57.4867 91.0961 57.4457 91.0974 57.4043C91.0988 57.3629 91.1112 57.3226 91.1335 57.2877L92.3721 55.6137C92.4047 55.5747 92.4232 55.5258 92.4247 55.4749C92.4262 55.424 92.4106 55.3741 92.3804 55.3332C92.3502 55.2923 92.3071 55.2627 92.2581 55.2493C92.2091 55.2358 92.157 55.2393 92.1102 55.2591L89.134 56.3231C89.1651 56.3346 89.1924 56.3545 89.213 56.3805C89.2336 56.4066 89.2466 56.4378 89.2506 56.4708C89.2546 56.5037 89.2495 56.5372 89.2358 56.5674C89.2221 56.5977 89.2004 56.6236 89.173 56.6423L85.0856 59.4299C85.1308 59.436 85.1732 59.4556 85.2071 59.4863C85.241 59.5169 85.2649 59.5571 85.2756 59.6016C85.2863 59.6461 85.2834 59.6928 85.2671 59.7356C85.2509 59.7783 85.2222 59.8152 85.1846 59.8413H85.1634H87.1983C87.2288 59.8413 87.2588 59.8491 87.2854 59.8638C87.3121 59.8786 87.3347 59.8999 87.3509 59.9257C87.3672 59.9516 87.3766 59.9812 87.3784 60.0117C87.3802 60.0422 87.3742 60.0726 87.3611 60.1002" fill="#FBD206"/>
<path d="M95.3591 43.9454L91.3778 45.1761C91.1209 45.267 90.9058 45.4485 90.7727 45.6868L87.7044 50.9393C87.1878 51.8259 87.9274 52.631 88.6847 52.0033L90.2701 50.6981C90.3919 50.5952 90.5382 50.5255 90.6948 50.496L92.7297 50.1413C92.8792 50.1085 93.0199 50.0436 93.142 49.9512C93.2642 49.8587 93.365 49.7409 93.4374 49.6058L96.0173 45.1938C96.4278 44.4845 96.0385 43.7362 95.3661 43.9419" fill="#F95474"/>
<path d="M109.723 57.9651L108.602 61.9834C108.519 62.2437 108.344 62.4646 108.11 62.604L102.954 65.8172C102.083 66.3599 101.258 65.6399 101.86 64.8668L103.12 63.2424C103.221 63.1188 103.288 62.9709 103.315 62.8133L103.612 60.7633C103.642 60.6154 103.704 60.4756 103.792 60.3533C103.881 60.231 103.994 60.129 104.125 60.054L108.46 57.3515C109.168 56.9188 109.915 57.2912 109.723 57.9722" fill="#F95474"/>
<path d="M93.4514 49.6518L96.0277 45.2363C96.4418 44.527 96.049 43.7786 95.3766 43.9879L92.6764 44.8213C92.4073 46.6192 92.296 48.4373 92.3438 50.2547L92.7472 50.1838C92.8958 50.1498 93.0356 50.0849 93.1576 49.9933C93.2795 49.9016 93.3808 49.7853 93.455 49.6518" fill="#D33D65"/>
<path d="M104.104 59.998L108.467 57.3416C109.175 56.916 109.918 57.2955 109.724 57.9729L108.934 60.6932C107.145 60.9932 105.334 61.1357 103.52 61.1188L103.584 60.7109C103.615 60.5623 103.677 60.4221 103.767 60.2998C103.857 60.1775 103.972 60.0758 104.104 60.0016" fill="#D33D65"/>
<path d="M92.3826 51.8799L91.2395 52.3268C90.9089 52.4565 90.6365 52.7019 90.4725 53.0175C90.3086 53.3331 90.2642 53.6975 90.3477 54.0433C90.8689 56.3346 92.0402 58.426 93.7205 60.0652C95.4007 61.7045 97.5183 62.8217 99.8178 63.2822C100.165 63.3573 100.528 63.3033 100.838 63.1305C101.149 62.9576 101.386 62.6775 101.506 62.3424L101.92 61.1862C99.6311 60.6624 97.5302 59.5176 95.8471 57.8772C92.5984 54.7739 92.4144 51.8976 92.3826 51.8799Z" fill="#F95474"/>
<path d="M95.8367 57.8453C92.5879 54.742 92.4039 51.8693 92.3721 51.8516L91.2432 52.2913C92.0893 54.7866 93.6111 56.9969 95.6385 58.6752C97.4281 60.1037 99.54 61.0706 101.789 61.4912L101.909 61.1366C99.6196 60.6155 97.5179 59.4704 95.8367 57.8276" fill="#D33D65"/>
<path d="M115.297 51.4504L119.682 39.6402C120.744 35.9801 118.797 34.2246 118.797 34.2246C118.797 34.2246 116.992 32.3094 113.372 33.4833L101.694 38.1897C101.694 38.1897 99.0891 39.2891 96.4561 42.4846C95.5416 43.6081 94.6898 44.7815 93.9046 45.9993C92.1705 48.6734 91.7813 51.759 92.9137 54.0714C94.4135 56.933 96.7817 59.243 99.6765 60.6681C102.012 61.732 105.077 61.271 107.703 59.4622C108.896 58.6426 110.043 57.7582 111.139 56.8129C114.257 54.0891 115.283 51.4504 115.283 51.4504" fill="#E9F0F1"/>
<g style="mix-blend-mode:multiply">
<g style="mix-blend-mode:multiply">
<g style="mix-blend-mode:multiply">
<g style="mix-blend-mode:multiply">
<path d="M111.942 51.6382C110.953 52.6568 109.685 53.3585 108.297 53.6546C106.91 53.9507 105.467 53.8279 104.149 53.3017C102.832 52.7754 101.7 51.8694 100.896 50.6983C100.092 49.5271 99.6535 48.1434 99.6347 46.7222C99.6158 45.301 100.018 43.9061 100.79 42.714C101.563 41.5218 102.67 40.5861 103.974 40.025C105.277 39.4639 106.716 39.3027 108.111 39.5618C109.505 39.8209 110.792 40.4887 111.808 41.4807C113.169 42.8101 113.948 44.6268 113.973 46.5315C113.998 48.4362 113.268 50.273 111.942 51.6382Z" fill="#E9F0F1"/>
</g>
</g>
</g>
</g>
<path d="M111.139 50.8578C110.304 51.7159 109.234 52.3068 108.064 52.5556C106.894 52.8045 105.677 52.7002 104.567 52.256C103.456 51.8117 102.502 51.0474 101.824 50.0597C101.147 49.072 100.777 47.9052 100.761 46.7068C100.745 45.5084 101.084 44.3322 101.735 43.3269C102.386 42.3215 103.32 41.5322 104.419 41.0586C105.517 40.5851 106.731 40.4486 107.907 40.6663C109.083 40.8841 110.168 41.4463 111.026 42.2821C111.595 42.8375 112.05 43.5 112.364 44.2317C112.678 44.9634 112.845 45.7499 112.856 46.5464C112.866 47.3428 112.72 48.1335 112.426 48.8733C112.131 49.6131 111.694 50.2874 111.139 50.8578Z" fill="#2CC5F4"/>
<path d="M111.025 42.2822C110.085 41.3661 108.874 40.7805 107.573 40.6136C106.273 40.4467 104.953 40.7074 103.813 41.3565C104.76 40.8548 105.826 40.6252 106.895 40.6933C107.964 40.7614 108.993 41.1244 109.868 41.7421C110.744 42.3599 111.432 43.2084 111.856 44.1937C112.28 45.179 112.424 46.2627 112.272 47.3249C112.119 48.3871 111.677 49.3864 110.993 50.2122C110.309 51.038 109.411 51.6582 108.397 52.0041C107.384 52.3499 106.294 52.408 105.25 52.172C104.205 51.9359 103.246 51.4148 102.479 50.6664C101.673 49.8846 101.114 48.8834 100.869 47.7865C101.051 48.7194 101.449 49.5963 102.032 50.3463C102.615 51.0964 103.365 51.6986 104.223 52.1043C105.081 52.51 106.022 52.7078 106.97 52.6818C107.918 52.6557 108.847 52.4066 109.681 51.9544C110.515 51.5022 111.232 50.8598 111.773 50.0789C112.314 49.298 112.664 48.4005 112.794 47.4591C112.925 46.5176 112.833 45.5585 112.526 44.6592C112.219 43.7599 111.705 42.9456 111.025 42.2822Z" fill="#00B4DC"/>
<path d="M118.793 34.2207C118.793 34.2207 116.985 32.3055 113.365 33.4794L110.311 34.7101C111.892 38.3649 114.838 41.2545 118.517 42.7609L119.675 39.6363C120.736 35.9762 118.793 34.2207 118.793 34.2207Z" fill="#F95474"/>
<g style="mix-blend-mode:multiply">
<g style="mix-blend-mode:multiply">
<g style="mix-blend-mode:multiply">
<g style="mix-blend-mode:multiply">
<path d="M98.452 55.7698C98.4129 55.8093 98.3663 55.8408 98.3149 55.8622C98.2636 55.8836 98.2085 55.8946 98.1529 55.8946C98.0973 55.8946 98.0422 55.8836 97.9909 55.8622C97.9396 55.8408 97.893 55.8093 97.8538 55.7698C97.7941 55.7104 97.7532 55.6346 97.7366 55.5519C97.7199 55.4693 97.7281 55.3835 97.7601 55.3055C97.7922 55.2276 97.8466 55.1609 97.9166 55.114C97.9865 55.067 98.0688 55.042 98.1529 55.042C98.2371 55.042 98.3193 55.067 98.3893 55.114C98.4592 55.1609 98.5137 55.2276 98.5457 55.3055C98.5777 55.3835 98.586 55.4693 98.5693 55.5519C98.5526 55.6346 98.5118 55.7104 98.452 55.7698Z" fill="#E9F0F1"/>
</g>
<g style="mix-blend-mode:multiply">
<path d="M94.7646 50.7477C94.7053 50.8076 94.6297 50.8485 94.5472 50.8652C94.4647 50.8819 94.3791 50.8737 94.3012 50.8416C94.2234 50.8095 94.1569 50.7549 94.11 50.6849C94.0632 50.6148 94.0382 50.5324 94.0382 50.4481C94.0382 50.3637 94.0632 50.2813 94.11 50.2112C94.1569 50.1412 94.2234 50.0866 94.3012 50.0545C94.3791 50.0224 94.4647 50.0142 94.5472 50.0309C94.6297 50.0476 94.7053 50.0885 94.7646 50.1484C94.8041 50.1876 94.8354 50.2343 94.8568 50.2857C94.8782 50.3372 94.8892 50.3923 94.8892 50.4481C94.8892 50.5038 94.8782 50.559 94.8568 50.6104C94.8354 50.6618 94.8041 50.7085 94.7646 50.7477Z" fill="#E9F0F1"/>
</g>
<g style="mix-blend-mode:multiply">
<path d="M103.562 59.3347C103.503 59.3945 103.427 59.4354 103.345 59.4521C103.262 59.4688 103.176 59.4606 103.099 59.4285C103.021 59.3964 102.954 59.3419 102.907 59.2718C102.861 59.2017 102.836 59.1193 102.836 59.035C102.836 58.9506 102.861 58.8682 102.907 58.7982C102.954 58.7281 103.021 58.6735 103.099 58.6414C103.176 58.6093 103.262 58.6011 103.345 58.6178C103.427 58.6345 103.503 58.6754 103.562 58.7353C103.641 58.815 103.685 58.9227 103.685 59.035C103.685 59.1472 103.641 59.255 103.562 59.3347Z" fill="#E9F0F1"/>
</g>
<g style="mix-blend-mode:multiply">
<path d="M106.432 59.0684C106.386 59.0705 106.341 59.0594 106.301 59.0365C101.471 56.1976 97.3961 52.2311 94.4245 47.4745L94.382 47.4072C94.3619 47.3788 94.3478 47.3465 94.3406 47.3125C94.3333 47.2784 94.3331 47.2432 94.3399 47.209C94.3468 47.1749 94.3605 47.1425 94.3803 47.1139C94.4001 47.0852 94.4255 47.0609 94.455 47.0425C94.4845 47.0241 94.5175 47.0119 94.5519 47.0067C94.5862 47.0016 94.6213 47.0035 94.6549 47.0124C94.6885 47.0213 94.7199 47.037 94.7473 47.0585C94.7746 47.0801 94.7972 47.107 94.8138 47.1376L94.8563 47.205C97.7846 51.8904 101.798 55.7983 106.556 58.5967C106.604 58.6239 106.643 58.6666 106.665 58.718C106.686 58.7694 106.691 58.8266 106.676 58.8807C106.662 58.9347 106.63 58.9825 106.586 59.0165C106.542 59.0504 106.488 59.0687 106.432 59.0684Z" fill="#E9F0F1"/>
</g>
</g>
</g>
</g>
<g style="mix-blend-mode:multiply">
<g style="mix-blend-mode:multiply">
<g style="mix-blend-mode:multiply">
<path d="M91.0063 54.1606C91.0908 54.0708 91.1902 53.9964 91.3002 53.9407C91.3996 53.8846 91.5054 53.8406 91.6152 53.8095C91.7305 53.7757 91.8493 53.7555 91.9692 53.7492C92.0884 53.7398 92.2082 53.7518 92.3232 53.7846C92.2402 53.8746 92.1419 53.9491 92.0329 54.0045C91.9319 54.06 91.8251 54.104 91.7143 54.1357C91.5986 54.1676 91.48 54.1878 91.3603 54.196C91.2412 54.202 91.1219 54.1901 91.0063 54.1606Z" fill="#E9F0F1"/>
</g>
<g style="mix-blend-mode:multiply">
<path d="M92.4431 56.9094C92.5171 56.8113 92.6068 56.7262 92.7086 56.6576C92.8047 56.5947 92.9066 56.5412 93.013 56.498C93.1194 56.4555 93.2297 56.4234 93.3422 56.4023C93.4595 56.3841 93.5789 56.3841 93.6962 56.4023C93.6218 56.5013 93.5308 56.5865 93.4272 56.6541C93.3328 56.7188 93.232 56.7734 93.1263 56.8172C93.0182 56.8575 92.9069 56.8884 92.7936 56.9094C92.6763 56.9279 92.5568 56.9279 92.4396 56.9094" fill="#E9F0F1"/>
</g>
<g style="mix-blend-mode:multiply">
<path d="M99.698 62.6439C99.6648 62.5288 99.6504 62.409 99.6555 62.2893C99.6644 62.0586 99.7223 61.8325 99.8254 61.626C99.8805 61.5155 99.9535 61.4148 100.041 61.3281C100.075 61.4433 100.089 61.563 100.084 61.6828C100.081 61.8025 100.064 61.9216 100.034 62.0374C100.006 62.149 99.9654 62.2572 99.9139 62.3602C99.8592 62.471 99.7862 62.5717 99.698 62.6581" fill="#E9F0F1"/>
</g>
<g style="mix-blend-mode:multiply">
<path d="M96.9198 61.2785C96.9019 61.1609 96.9019 61.0413 96.9198 60.9238C96.9532 60.6956 97.034 60.4769 97.157 60.2819C97.2225 60.1778 97.3051 60.0854 97.4012 60.0088C97.421 60.1262 97.421 60.2461 97.4012 60.3634C97.3838 60.4759 97.3553 60.5864 97.3162 60.6933C97.277 60.8014 97.226 60.9049 97.164 61.0018C97.0993 61.1076 97.0167 61.2012 96.9198 61.2785Z" fill="#E9F0F1"/>
</g>
<g style="mix-blend-mode:multiply">
<path d="M94.4462 59.3C94.4754 59.1808 94.5258 59.0679 94.5948 58.9666C94.6573 58.8696 94.7309 58.7803 94.8143 58.7006C94.8947 58.619 94.9837 58.5465 95.0798 58.4843C95.1895 58.4176 95.3089 58.3686 95.4338 58.3389C95.4026 58.4591 95.3512 58.573 95.2816 58.6758C95.2195 58.7721 95.1471 58.8613 95.0656 58.9418C94.9832 59.0215 94.8931 59.0927 94.7966 59.1546C94.693 59.2207 94.5795 59.2698 94.4603 59.3" fill="#E9F0F1"/>
</g>
</g>
</g>
<path d="M104.089 45.7114C104.466 44.8211 104.961 43.986 105.561 43.2288L105.162 42.9947C104.816 44.4057 104.629 45.8511 104.606 47.3038C104.606 47.3678 104.631 47.4291 104.676 47.4744C104.722 47.5196 104.783 47.545 104.847 47.545C104.91 47.545 104.972 47.5196 105.017 47.4744C105.062 47.4291 105.087 47.3678 105.087 47.3038C105.109 45.8941 105.289 44.4914 105.625 43.1224C105.678 42.9096 105.381 42.6897 105.225 42.8883C104.591 43.6734 104.069 44.5437 103.675 45.4738C103.555 45.754 103.965 45.9987 104.089 45.715" fill="#ABE0F2"/>
<path d="M107.582 42.4382C107.268 45.0839 107.022 47.7356 106.843 50.3932C106.814 50.8294 107.494 50.8294 107.522 50.3932C107.704 47.7332 107.95 45.0816 108.262 42.4382C108.315 42.0019 107.632 42.0055 107.582 42.4382Z" fill="#ABE0F2"/>
<path d="M108.934 43.6549C108.718 45.278 108.697 46.9211 108.87 48.5493C108.902 48.8436 109.355 49.0671 109.507 48.7231C109.975 47.6626 110.377 46.574 110.711 45.4637L110.042 45.3715L110.137 47.0668C110.162 47.503 110.845 47.503 110.82 47.0668L110.725 45.3715C110.712 45.2973 110.675 45.2293 110.621 45.1772C110.567 45.1251 110.497 45.0917 110.423 45.0818C110.348 45.072 110.272 45.0861 110.207 45.1223C110.141 45.1584 110.088 45.2146 110.056 45.2828C109.74 46.3368 109.36 47.3708 108.92 48.379L109.553 48.5493C109.379 46.9213 109.399 45.2782 109.614 43.6549C109.67 43.2187 108.991 43.2223 108.934 43.6549Z" fill="#ABE0F2"/>
<path d="M105.728 49.532C105.764 49.6671 105.759 49.8098 105.714 49.9421C105.669 50.0745 105.586 50.1906 105.476 50.276C105.365 50.3613 105.232 50.412 105.093 50.4218C104.954 50.4316 104.815 50.3999 104.694 50.3308C104.573 50.2618 104.474 50.1583 104.412 50.0335C104.349 49.9087 104.324 49.7681 104.341 49.6293C104.358 49.4906 104.415 49.3598 104.506 49.2536C104.596 49.1473 104.716 49.0702 104.85 49.0319C104.941 49.0062 105.035 48.9987 105.128 49.01C105.222 49.0212 105.312 49.051 105.394 49.0976C105.475 49.1441 105.547 49.2065 105.604 49.2811C105.662 49.3557 105.704 49.441 105.728 49.532Z" fill="#ABE0F2"/>
<path d="M103.495 48.8403C103.515 48.912 103.513 48.988 103.49 49.0587C103.466 49.1293 103.423 49.1915 103.364 49.2372C103.305 49.2829 103.235 49.3102 103.16 49.3156C103.086 49.3209 103.012 49.3041 102.948 49.2673C102.883 49.2305 102.831 49.1753 102.798 49.1087C102.765 49.0422 102.752 48.9672 102.761 48.8934C102.77 48.8196 102.801 48.7502 102.85 48.694C102.899 48.6378 102.963 48.5974 103.035 48.5778C103.131 48.5527 103.232 48.5661 103.318 48.6151C103.404 48.6642 103.468 48.745 103.495 48.8403Z" fill="#ABE0F2"/>
<g style="mix-blend-mode:multiply">
<g style="mix-blend-mode:multiply">
<path d="M97.3794 57.7599C96.2612 56.6987 95.3324 55.4536 94.6332 54.0785C93.5433 51.8583 93.9255 48.9004 95.5852 46.3327C96.3368 45.1626 97.1544 44.0365 98.0341 42.9599C100.561 39.892 103.063 38.8351 103.063 38.8351L114.256 34.3168C117.137 33.384 118.818 34.487 119.31 34.8913C119.169 34.647 118.997 34.4227 118.797 34.2246C118.797 34.2246 116.992 32.3094 113.372 33.4833L101.693 38.1897C101.693 38.1897 99.0887 39.2891 96.4558 42.4846C95.5404 43.6075 94.6886 44.7809 93.9042 45.9993C92.1702 48.677 91.7809 51.759 92.9133 54.0714C94.4131 56.933 96.7813 59.243 99.6761 60.6681C101.284 61.3532 103.086 61.4313 104.747 60.888C103.515 61.0808 102.254 60.9158 101.113 60.4127C99.722 59.749 98.4545 58.8517 97.3653 57.7599" fill="#DBDFE0"/>
</g>
</g>
</svg>
