<svg width="202" height="59" viewBox="0 0 202 59" fill="none" xmlns="http://www.w3.org/2000/svg">
<path d="M12.2296 36.029C12.2294 36.5487 12.0299 37.0484 11.6724 37.4252C11.5071 37.6219 11.3 37.7791 11.0663 37.8856C10.8326 37.992 10.5781 38.0449 10.3214 38.0404C9.82065 38.0162 9.34712 37.8051 8.99407 37.4488L4.20827 32.8784V36.0764C4.22779 36.3507 4.18368 36.6259 4.0794 36.8804C3.97511 37.1349 3.81347 37.3618 3.60709 37.5435C3.18134 37.8832 2.6483 38.0595 2.10414 38.0404C1.561 38.0595 1.029 37.8832 0.604567 37.5435C0.397165 37.3625 0.2346 37.1358 0.129687 36.8812C0.0247738 36.6266 -0.0196186 36.3511 9.36026e-06 36.0764V23.0783C-0.0196186 22.8036 0.0247738 22.5281 0.129687 22.2735C0.2346 22.0189 0.397165 21.7921 0.604567 21.6112C1.02794 21.2691 1.5604 21.0915 2.10414 21.1108C2.64894 21.0912 3.18254 21.2689 3.60709 21.6112C3.81347 21.7928 3.97511 22.0197 4.0794 22.2742C4.18368 22.5287 4.22779 22.8039 4.20827 23.0783V31.1002L8.59892 26.6481C8.77009 26.4565 8.97916 26.3026 9.21288 26.1961C9.4466 26.0896 9.69986 26.0329 9.95664 26.0295C10.2098 26.0274 10.4606 26.0781 10.6931 26.1782C10.9257 26.2783 11.1349 26.4256 11.3076 26.6109C11.4893 26.7786 11.6346 26.9818 11.7345 27.208C11.8344 27.4343 11.8869 27.6786 11.8885 27.9259C11.8826 28.1812 11.8251 28.4326 11.7195 28.665C11.6139 28.8974 11.4622 29.106 11.2738 29.2781L8.67997 31.8372L11.6149 34.6565C11.8078 34.8294 11.9621 35.041 12.068 35.2774C12.1739 35.5138 12.229 35.7699 12.2296 36.029Z" fill="#58448B"/>
<path d="M14.6073 23.8227C14.3995 23.6386 14.2353 23.4105 14.1267 23.155C14.018 22.8995 13.9676 22.6229 13.9791 22.3454C13.9669 22.0688 14.0171 21.7931 14.1258 21.5385C14.2345 21.284 14.3991 21.0572 14.6073 20.8749C15.0843 20.492 15.6854 20.2983 16.296 20.3306C16.9064 20.2999 17.5069 20.4934 17.9847 20.8749C18.1955 21.0555 18.3625 21.2818 18.4731 21.5366C18.5837 21.7913 18.6349 22.0679 18.623 22.3454C18.6345 22.6229 18.5841 22.8995 18.4754 23.155C18.3668 23.4105 18.2026 23.6386 17.9948 23.8227C17.522 24.2145 16.9191 24.4136 16.3061 24.3805C15.6932 24.4133 15.0904 24.2142 14.6174 23.8227H14.6073ZM14.8065 37.5814C14.5967 37.4038 14.4312 37.1796 14.3233 36.9266C14.2154 36.6736 14.1681 36.3989 14.1851 36.1244V27.9807C14.1655 27.7075 14.2099 27.4335 14.3149 27.1805C14.4199 26.9276 14.5824 26.7026 14.7897 26.5237C15.2264 26.2073 15.7518 26.0369 16.2909 26.0369C16.8301 26.0369 17.3555 26.2073 17.7922 26.5237C17.9994 26.7026 18.162 26.9276 18.2669 27.1805C18.3719 27.4335 18.4164 27.7075 18.3967 27.9807V36.1244C18.4158 36.3975 18.3711 36.6714 18.2662 36.9243C18.1613 37.1771 17.999 37.4021 17.7922 37.5814C17.3547 37.8959 16.8296 38.065 16.2909 38.065C15.7523 38.065 15.2272 37.8959 14.7897 37.5814" fill="#58448B"/>
<path d="M32.6327 21.6356C32.8266 21.8025 32.981 22.0104 33.085 22.2442C33.1889 22.478 33.2398 22.732 33.2339 22.9879V36.1042C33.2475 36.3679 33.2038 36.6313 33.1059 36.8765C33.0079 37.1216 32.858 37.3425 32.6665 37.524C32.2481 37.8864 31.706 38.073 31.1534 38.0446C30.6391 38.0731 30.1314 37.9173 29.7214 37.6052C29.5357 37.4482 29.3844 37.2547 29.2769 37.0365C29.1694 36.8184 29.108 36.5804 29.0965 36.3375C28.7488 36.9043 28.2427 37.3568 27.6409 37.639C26.8835 37.9947 26.0489 38.1543 25.2138 38.1029C24.3788 38.0515 23.57 37.7908 22.8618 37.3449C22.0615 36.8069 21.4265 36.0566 21.0279 35.178C20.5664 34.176 20.3356 33.0832 20.3524 31.98C20.3288 30.8907 20.5516 29.8101 21.0043 28.8192C21.3963 27.9594 22.0286 27.2315 22.8247 26.7233C23.6317 26.2279 24.5632 25.9734 25.5097 25.9897C26.2171 25.983 26.9169 26.1367 27.5564 26.4394C28.1398 26.7073 28.6419 27.1248 29.0121 27.6496V22.9371C29.001 22.6885 29.0449 22.4406 29.1407 22.2109C29.2364 21.9812 29.3817 21.7756 29.566 21.6086C29.9877 21.2591 30.5256 21.0816 31.0723 21.1117C31.6398 21.0834 32.1971 21.2706 32.6327 21.6356ZM28.5055 34.2078C28.9378 33.5663 29.1456 32.7995 29.0965 32.0273C29.1447 31.2668 28.9366 30.5122 28.5055 29.8841C28.2894 29.6523 28.0279 29.4676 27.7374 29.3412C27.4469 29.2149 27.1335 29.1497 26.8168 29.1497C26.5 29.1497 26.1867 29.2149 25.8962 29.3412C25.6057 29.4676 25.3442 29.6523 25.1281 29.8841C24.6958 30.4976 24.4871 31.2411 24.537 31.9901C24.4885 32.7712 24.6999 33.5463 25.1382 34.1942C25.333 34.4492 25.5864 34.6533 25.8769 34.7892C26.1674 34.9252 26.4863 34.9889 26.8067 34.9751C27.1308 34.9949 27.4549 34.9365 27.7517 34.8047C28.0485 34.6729 28.3094 34.4717 28.5123 34.2179" fill="#58448B"/>
<path d="M46.3382 36.3604C46.3382 37.4016 45.71 37.9222 44.4468 37.9222H36.9963C36.7475 37.9327 36.4991 37.8919 36.2667 37.8024C36.0343 37.7128 35.8228 37.5764 35.6453 37.4016C35.4767 37.2399 35.3434 37.045 35.2539 36.8291C35.1643 36.6132 35.1205 36.3811 35.1252 36.1475C35.132 35.6087 35.3433 35.0926 35.7162 34.704L40.6878 29.3763H36.8781C35.6149 29.3763 34.9867 28.8557 34.9867 27.8145C34.9867 26.7733 35.6149 26.273 36.8781 26.273H44.0449C44.2937 26.2629 44.5419 26.3038 44.7742 26.3934C45.0066 26.4829 45.2181 26.6191 45.3959 26.7936C45.564 26.9576 45.6967 27.1545 45.7856 27.372C45.8745 27.5895 45.9177 27.823 45.9126 28.0579C45.9021 28.5883 45.6923 29.0952 45.325 29.4777L40.3331 34.8189H44.4468C45.71 34.8189 46.3382 35.3328 46.3382 36.357" fill="#58448B"/>
<path d="M58.1187 36.4787C58.1331 36.7224 58.0814 36.9654 57.969 37.1821C57.8567 37.3987 57.6878 37.5809 57.4803 37.7092C56.9234 38.0086 56.2871 38.1268 55.6599 38.0473L54.9844 37.9999C53.5659 37.8918 52.4885 37.4591 51.7556 36.712C51.0227 35.9649 50.6613 34.9068 50.6613 33.5681V29.3763H49.9858C48.7227 29.3763 48.0945 28.8557 48.0945 27.8111C48.0945 26.7665 48.7227 26.273 49.9858 26.273H50.6613V24.7348C50.6488 24.4693 50.693 24.2041 50.7908 23.957C50.8887 23.7099 51.0379 23.4864 51.2287 23.3015C51.6679 22.9574 52.2095 22.7705 52.7671 22.7705C53.3248 22.7705 53.8664 22.9574 54.3055 23.3015C54.4963 23.4864 54.6456 23.7099 54.7434 23.957C54.8413 24.2041 54.8854 24.4693 54.873 24.7348V26.273H56.1733C57.4364 26.273 58.0646 26.7868 58.0646 27.8111C58.0646 28.8354 57.4364 29.3763 56.1733 29.3763H54.873V33.923C54.8662 34.2002 54.9625 34.4701 55.1432 34.6803C55.2306 34.7812 55.3378 34.8632 55.458 34.9213C55.5781 34.9795 55.7089 35.0125 55.8423 35.0183L56.5178 35.0657C57.5749 35.1265 58.1018 35.6032 58.1018 36.4855" fill="#58448B"/>
<path d="M60.4963 23.8225C60.2897 23.6376 60.1265 23.4093 60.0185 23.1539C59.9105 22.8985 59.8603 22.6223 59.8715 22.3452C59.8596 22.069 59.9095 21.7936 60.0177 21.5392C60.1258 21.2847 60.2893 21.0577 60.4963 20.8747C60.9878 20.5194 61.5787 20.3281 62.185 20.3281C62.7913 20.3281 63.3822 20.5194 63.8737 20.8747C64.0837 21.0558 64.2499 21.2822 64.3599 21.5369C64.4699 21.7916 64.5207 22.068 64.5087 22.3452C64.5202 22.6227 64.4697 22.8992 64.3611 23.1548C64.2524 23.4103 64.0882 23.6384 63.8805 23.8225C63.3912 24.1832 62.7994 24.3778 62.1917 24.3778C61.5841 24.3778 60.9923 24.1832 60.503 23.8225H60.4963ZM60.6956 37.5811C60.4881 37.4024 60.3254 37.1775 60.2204 36.9245C60.1154 36.6715 60.0711 36.3974 60.091 36.1241V27.9805C60.0706 27.7072 60.1147 27.4329 60.2197 27.1798C60.3247 26.9267 60.4877 26.7019 60.6956 26.5235C61.1323 26.207 61.6577 26.0367 62.1968 26.0367C62.736 26.0367 63.2614 26.207 63.6981 26.5235C63.9047 26.7027 64.0666 26.9278 64.171 27.1808C64.2754 27.4337 64.3193 27.7076 64.2993 27.9805V36.1241C64.319 36.397 64.275 36.6708 64.1706 36.9237C64.0663 37.1766 63.9045 37.4017 63.6981 37.5811C63.2606 37.8956 62.7355 38.0648 62.1968 38.0648C61.6582 38.0648 61.1331 37.8956 60.6956 37.5811Z" fill="#58448B"/>
<path d="M84.0708 27.1391C84.7643 27.9031 85.111 29.1934 85.111 31.0098V36.1245C85.13 36.3974 85.0856 36.6709 84.9813 36.9237C84.877 37.1764 84.7156 37.4016 84.5098 37.5815C84.0716 37.8958 83.546 38.0649 83.0069 38.0649C82.4678 38.0649 81.9422 37.8958 81.504 37.5815C81.2971 37.4023 81.1349 37.1773 81.0299 36.9244C80.925 36.6715 80.8803 36.3977 80.8994 36.1245V30.9152C80.8994 30.283 80.7913 29.8435 80.5616 29.59C80.4383 29.4589 80.2873 29.3568 80.1196 29.2913C79.952 29.2258 79.7718 29.1985 79.5923 29.2114C79.3411 29.2014 79.0909 29.2496 78.8612 29.3522C78.6316 29.4548 78.4287 29.6091 78.2684 29.803C77.9158 30.2726 77.7421 30.8528 77.7787 31.4391V36.1279C77.7978 36.3998 77.7545 36.6725 77.6521 36.9251C77.5496 37.1776 77.3907 37.4033 77.1876 37.5849C76.7474 37.8991 76.2202 38.068 75.6796 38.068C75.1389 38.068 74.6118 37.8991 74.1716 37.5849C73.9648 37.4057 73.8025 37.1807 73.6976 36.9278C73.5926 36.6749 73.5479 36.4011 73.567 36.1279V30.9152C73.6111 30.4476 73.4917 29.9793 73.2293 29.59C73.1078 29.4611 72.9595 29.3604 72.795 29.295C72.6305 29.2296 72.4536 29.2011 72.2768 29.2114C72.027 29.2009 71.7781 29.2489 71.55 29.3516C71.322 29.4543 71.121 29.6089 70.963 29.803C70.6119 30.2735 70.4373 30.8527 70.4699 31.4391V36.1279C70.489 36.4011 70.4443 36.6749 70.3394 36.9278C70.2345 37.1807 70.0722 37.4057 69.8654 37.5849C69.4279 37.8994 68.9028 38.0686 68.3641 38.0686C67.8254 38.0686 67.3004 37.8994 66.8629 37.5849C66.6554 37.4062 66.4927 37.1813 66.3877 36.9283C66.2827 36.6753 66.2384 36.4012 66.2583 36.1279V27.9336C66.2404 27.6665 66.2869 27.399 66.3938 27.1537C66.5008 26.9083 66.6651 26.6923 66.873 26.5239C67.3052 26.1893 67.8399 26.0149 68.3861 26.0303C68.8845 26.0123 69.3738 26.1676 69.7708 26.4698C69.9579 26.6219 70.1076 26.8151 70.2083 27.0343C70.309 27.2535 70.3581 27.4929 70.3517 27.7341C71.1218 26.5667 72.3039 25.983 73.898 25.983C75.5867 25.983 76.7125 26.6704 77.2754 28.0451C77.6658 27.416 78.2113 26.8979 78.8594 26.5408C79.5469 26.1626 80.321 25.9704 81.1054 25.983C82.3821 25.983 83.3683 26.3661 84.064 27.1324" fill="#58448B"/>
<path d="M97.7526 34.6101C97.9917 34.9298 98.1112 35.3234 98.0904 35.7222C98.0935 36.0265 98.008 36.3251 97.8442 36.5815C97.6804 36.8378 97.4456 37.0409 97.1683 37.1657C96.5596 37.4591 95.9209 37.6858 95.2635 37.8418C94.6011 38.0124 93.9208 38.1032 93.237 38.1123C92.0691 38.1388 90.9115 37.8873 89.8596 37.3787C88.9247 36.9155 88.1504 36.1817 87.6373 35.2726C87.1 34.2856 86.831 33.1747 86.8571 32.051C86.8394 30.9592 87.0961 29.8805 87.6035 28.9139C88.0786 28.0129 88.8003 27.266 89.684 26.7605C90.6029 26.2397 91.6441 25.9736 92.7 25.9898C93.707 25.9667 94.7019 26.2142 95.581 26.7064C96.3991 27.1821 97.0602 27.8872 97.4824 28.7347C97.9502 29.6792 98.182 30.7233 98.1579 31.7772C98.1784 32.0787 98.0897 32.3775 97.908 32.6189C97.8184 32.7195 97.7069 32.7983 97.5823 32.8493C97.4576 32.9002 97.323 32.922 97.1886 32.913H90.9302C90.9724 33.5283 91.2322 34.1084 91.6631 34.5492C92.1466 34.9155 92.7472 35.0922 93.3519 35.0461C93.7185 35.0496 94.0841 35.0053 94.4394 34.9143C94.8172 34.8128 95.1893 34.691 95.5539 34.5492C95.7904 34.4545 96.0234 34.37 96.2497 34.299C96.4527 34.233 96.6644 34.1976 96.8779 34.1943C97.0485 34.1903 97.2176 34.2268 97.3714 34.3008C97.5252 34.3749 97.6593 34.4843 97.7628 34.6202L97.7526 34.6101ZM91.4976 29.3635C91.1329 29.8 90.9248 30.3463 90.9066 30.9152H94.6218C94.5238 29.5258 93.926 28.8328 92.8216 28.8328C92.5759 28.8217 92.3306 28.8633 92.1023 28.9548C91.874 29.0464 91.6678 29.1857 91.4976 29.3635Z" fill="#58448B"/>
<path d="M103.933 19.2448C105.717 19.1118 107.018 19.2899 107.838 19.7789C108.657 20.268 109.05 21.3283 109.016 22.96C108.924 24.8083 108.491 26.6236 107.74 28.3147C107.135 29.8347 106.434 31.315 105.642 32.7465C105.345 33.2536 105.041 33.5207 104.724 33.5477C104.393 33.5668 104.068 33.4606 103.812 33.2502C103.5 33.0082 103.23 32.717 103.011 32.3882C102.772 32.0501 102.572 31.7121 102.424 31.4653C102.086 30.9008 101.806 29.9576 101.589 28.6358C101.365 27.304 101.275 25.9528 101.323 24.6029C101.349 23.3595 101.577 22.1287 101.998 20.9587C102.393 19.8938 103.038 19.3225 103.93 19.2684" fill="#58448B"/>
<path d="M104.024 39.5788L103.508 38.7911C103.465 38.7261 103.407 38.6724 103.338 38.6348C103.27 38.5971 103.194 38.5765 103.116 38.5747L102.174 38.5545C102.084 38.5528 101.996 38.526 101.921 38.4771C101.846 38.4282 101.786 38.3592 101.748 38.2778C101.71 38.1965 101.696 38.1061 101.706 38.017C101.717 37.9278 101.753 37.8435 101.809 37.7736L102.4 37.0332C102.448 36.9726 102.48 36.9014 102.495 36.8255C102.51 36.7496 102.506 36.6713 102.484 36.5972L102.214 35.6912C102.188 35.6054 102.187 35.5141 102.21 35.4276C102.233 35.3411 102.28 35.2628 102.346 35.2016C102.411 35.1404 102.492 35.0987 102.58 35.0813C102.668 35.0639 102.759 35.0714 102.842 35.103L103.727 35.441C103.8 35.4694 103.878 35.4793 103.955 35.4699C104.032 35.4604 104.106 35.4319 104.17 35.3869L104.946 34.8494C105.02 34.799 105.106 34.7702 105.196 34.7661C105.285 34.7621 105.373 34.783 105.451 34.8266C105.529 34.8701 105.593 34.9346 105.637 35.0127C105.68 35.0908 105.701 35.1794 105.696 35.2686L105.649 36.2118C105.646 36.2896 105.662 36.3669 105.695 36.4375C105.727 36.508 105.777 36.5697 105.838 36.6174L106.591 37.1887C106.663 37.2426 106.718 37.3155 106.75 37.3991C106.781 37.4827 106.789 37.5737 106.772 37.6615C106.755 37.7494 106.713 37.8306 106.652 37.8958C106.591 37.9611 106.512 38.0077 106.426 38.0305L105.517 38.2806C105.441 38.3003 105.37 38.3382 105.311 38.3912C105.252 38.4442 105.207 38.5106 105.18 38.5849L104.869 39.4773C104.839 39.5621 104.787 39.6369 104.717 39.6932C104.647 39.7495 104.563 39.7852 104.474 39.7961C104.385 39.807 104.295 39.7927 104.214 39.7549C104.132 39.7171 104.063 39.6572 104.014 39.5821" fill="#58448B"/>
<path d="M173.201 28.2036C173.201 33.7827 171.549 39.2367 168.453 43.8758C165.356 48.5149 160.955 52.1308 155.806 54.2661C150.656 56.4015 144.989 56.9604 139.523 55.8721C134.056 54.7838 129.034 52.0973 125.092 48.1523C121.151 44.2073 118.467 39.181 117.38 33.709C116.292 28.2371 116.851 22.5653 118.984 17.4111C121.118 12.2568 124.73 7.85148 129.365 4.75232C134 1.65316 139.449 -0.000668393 145.023 2.02641e-07C152.496 2.02641e-07 159.663 2.97144 164.948 8.26064C170.232 13.5498 173.201 20.7235 173.201 28.2036Z" fill="#58448B"/>
<path d="M139.15 42.2564L137.822 41.8237C137.007 41.5608 136.224 41.2094 135.485 40.7757C134.755 40.3429 134.076 39.8304 133.459 39.2477C132.512 38.3937 131.787 37.3216 131.348 36.1241C131.16 35.3663 131.047 34.5918 131.01 33.8119C130.665 29.5958 130.916 25.3522 131.753 21.206L133.699 11.5174C133.745 11.1978 133.703 10.8715 133.578 10.5739C133.452 10.2763 133.248 10.0187 132.987 9.82894C132.725 9.63922 132.417 9.52459 132.096 9.49747C131.774 9.47034 131.451 9.53175 131.162 9.67504C128.937 10.7738 127.195 12.6549 126.268 14.9588C126.046 15.5151 125.872 16.0897 125.748 16.6761C124.532 20.9727 121.844 32.267 125.187 38.4127L125.258 38.5344C126.055 40.6219 127.327 42.4946 128.974 44.0041C129.949 44.9272 131.025 45.7369 132.182 46.4178C133.334 47.0939 134.556 47.6425 135.826 48.054L138.903 49.0681C139.497 49.257 140.141 49.204 140.695 48.9204C141.25 48.6368 141.67 48.1457 141.865 47.5536C142.036 47.0274 142.102 46.4725 142.058 45.9209C142.014 45.3692 141.861 44.8317 141.609 44.3393C141.357 43.8469 141.009 43.4094 140.587 43.0519C140.165 42.6944 139.677 42.4241 139.15 42.2564Z" fill="white"/>
<path d="M146.374 4.57766C140.251 3.93198 137.076 6.82231 135.397 13.2825C135.282 13.7186 135.174 14.1715 135.076 14.6347C133.489 22.0481 132.557 32.4736 134.283 36.0434C134.943 37.4964 136.085 38.6763 137.515 39.3834L137.586 39.4205C137.766 39.5101 137.966 39.5545 138.167 39.5501C138.368 39.5457 138.565 39.4925 138.742 39.3951C138.918 39.2978 139.068 39.1592 139.179 38.9911C139.29 38.823 139.359 38.6305 139.379 38.4301L139.906 33.2241C139.964 32.6764 140.211 32.1662 140.604 31.7811C140.997 31.3961 141.513 31.1604 142.061 31.1146L142.584 31.0741C142.824 31.0546 143.064 31.0857 143.291 31.1651C143.517 31.2446 143.725 31.3708 143.9 31.5355C144.074 31.7003 144.213 31.8999 144.305 32.1214C144.398 32.343 144.444 32.5816 144.439 32.8218L144.216 44.4136C144.214 44.6719 144.271 44.9272 144.384 45.1598C144.496 45.3925 144.66 45.5963 144.863 45.7556C145.066 45.9149 145.303 46.0254 145.556 46.0788C145.808 46.1321 146.07 46.1268 146.32 46.0632L146.658 45.9754C147.775 45.6756 148.765 45.0227 149.482 44.1138C150.198 43.205 150.602 42.0888 150.633 40.9316L151.126 22.7141L151.308 15.6556C151.112 10.7302 150.086 4.96642 146.381 4.57766H146.374ZM145.827 11.0344L144.962 22.5484C144.81 24.6038 143.034 26.2129 140.855 26.267C140.652 26.2762 140.452 26.2178 140.286 26.1009C140.12 25.9841 139.997 25.8154 139.937 25.6213C139.908 25.5111 139.901 25.3962 139.916 25.2833L139.953 25.0602C140.362 11.8322 142.486 10.7099 142.486 10.7099C142.691 10.4184 142.956 10.1737 143.262 9.99195C143.568 9.81015 143.909 9.69537 144.263 9.65518C144.46 9.62459 144.661 9.63804 144.853 9.69456C145.044 9.75108 145.22 9.84927 145.369 9.98209C145.518 10.1149 145.636 10.279 145.714 10.4627C145.791 10.6464 145.828 10.8451 145.82 11.0446" fill="white"/>
<path d="M164.517 28.1698C164.014 27.923 163.595 27.6999 163.251 27.4937C162.804 27.2347 162.466 26.821 162.302 26.3305C162.138 25.84 162.158 25.3064 162.359 24.8299C162.96 23.3999 163.447 22.1491 163.71 21.4494C163.866 21.0456 163.96 20.6204 163.987 20.1884C164.531 11.5952 157.692 7.63999 154.868 7.91043C151.974 8.19101 152.139 12.0211 152.139 12.0211C152.548 13.4916 152.024 37.9462 151.991 42.4964C151.957 47.0466 153.923 47.5672 153.923 47.5672C159.482 49.1864 162.998 41.8203 165.024 37.7941C167.051 33.7679 166.838 29.3023 164.517 28.1732V28.1698ZM156.905 12.7919C161.441 13.5221 160.022 19.0086 159.191 21.1519C158.36 23.2951 156.628 23.7075 156.081 22.974C155.534 22.2404 155.223 13.2584 155.223 13.2584C155.186 12.2747 156.912 12.7919 156.912 12.7919H156.905ZM158.685 40.8501C156.25 42.422 156.594 40.5729 156.594 40.5729L156.429 31.1751C156.412 30.668 156.935 28.4707 159.718 30.8979C162.501 33.3251 161.123 39.2782 158.685 40.8501Z" fill="white"/>
<path d="M143.236 56.3527C142.225 56.2937 141.217 56.1809 140.217 56.0146C139.818 56.268 139.448 56.5639 139.112 56.897C139.777 57.4406 140.505 57.9015 141.281 58.2694C142.156 57.9157 142.858 57.2324 143.236 56.3662" fill="#EFEFED"/>
<path d="M143.54 54.6389C142.364 54.8809 141.243 55.3394 140.234 55.9911C141.234 56.1573 142.241 56.2702 143.253 56.3291C143.451 55.876 143.552 55.3868 143.55 54.8924C143.55 54.7978 143.55 54.7065 143.55 54.6152" fill="#EFEFED"/>
<path d="M140.217 56.0011C134.398 54.9901 129.043 52.176 124.907 47.9558C120.771 43.7356 118.064 38.3223 117.166 32.4795H117.085C116.612 32.479 116.144 32.5718 115.707 32.7525C115.27 32.9332 114.873 33.1983 114.538 33.5326C114.204 33.8669 113.938 34.2639 113.757 34.7009C113.575 35.138 113.482 35.6065 113.481 36.0797C113.48 36.5103 113.556 36.9376 113.708 37.3407C112.843 38.0805 112.254 39.0912 112.037 40.2085C111.819 41.3257 111.985 42.4839 112.509 43.4945C113.032 44.5052 113.881 45.309 114.919 45.7752C115.956 46.2414 117.121 46.3426 118.223 46.0624C118.385 46.5213 118.63 46.9465 118.946 47.3165C118.176 48.1641 117.734 49.2591 117.7 50.4039C117.666 51.5488 118.042 52.6682 118.759 53.5603C119.477 54.4524 120.49 55.0585 121.614 55.2693C122.739 55.48 123.902 55.2816 124.894 54.7097C125.655 55.6054 126.717 56.191 127.88 56.3561C129.043 56.5211 130.226 56.2542 131.206 55.6056C131.331 56.3253 131.646 56.9983 132.119 57.5546C132.592 58.1108 133.205 58.5299 133.895 58.7682C134.585 59.0064 135.326 59.055 136.041 58.909C136.756 58.7631 137.419 58.4278 137.961 57.9381C138.445 58.254 138.999 58.4478 139.575 58.5032C140.151 58.5585 140.731 58.4737 141.267 58.2559C140.492 57.8879 139.764 57.427 139.099 56.8834C139.434 56.5503 139.805 56.2545 140.203 56.0011" fill="#AADFF3"/>
<path d="M170.874 39.5518C167.638 47.496 158.124 56.4036 145.023 56.4036C144.422 56.4036 143.827 56.3833 143.236 56.3461C142.858 57.2123 142.156 57.8956 141.281 58.2494C146.046 60.4602 149.488 56.8769 149.488 56.8769C163.433 55.7782 174.545 41.9181 179.837 28.2305C179.013 29.2446 172.464 38.3889 170.874 39.5585" fill="#AADFF3"/>
<path d="M133.354 51.5996C133.355 52.5506 133.073 53.4805 132.546 54.2715C132.018 55.0626 131.268 55.6792 130.391 56.0435C129.513 56.4078 128.547 56.5032 127.615 56.3179C126.683 56.1325 125.827 55.6746 125.155 55.0021C124.483 54.3296 124.026 53.4728 123.841 52.54C123.655 51.6072 123.751 50.6403 124.115 49.7618C124.479 48.8833 125.095 48.1326 125.885 47.6046C126.675 47.0767 127.604 46.7952 128.555 46.7959C129.827 46.7959 131.048 47.302 131.948 48.2029C132.848 49.1037 133.354 50.3256 133.354 51.5996Z" fill="#AADFF3"/>
<path d="M139.305 54.9167C139.305 55.7243 139.066 56.5139 138.617 57.1854C138.169 57.857 137.532 58.3804 136.786 58.6895C136.041 58.9985 135.221 59.0794 134.429 58.9218C133.638 58.7643 132.911 58.3753 132.34 57.8042C131.77 57.2331 131.381 56.5055 131.224 55.7133C131.066 54.9212 131.147 54.1001 131.456 53.3539C131.765 52.6077 132.287 51.9699 132.958 51.5212C133.629 51.0725 134.418 50.833 135.225 50.833C136.307 50.833 137.345 51.2633 138.11 52.0291C138.875 52.7949 139.305 53.8336 139.305 54.9167Z" fill="#AADFF3"/>
<path d="M143.54 54.9161C143.54 55.6288 143.329 56.3256 142.934 56.9182C142.538 57.5108 141.976 57.9727 141.318 58.2454C140.66 58.5182 139.936 58.5895 139.238 58.4505C138.539 58.3115 137.898 57.9682 137.394 57.4643C136.891 56.9603 136.548 56.3182 136.409 55.6192C136.27 54.9201 136.341 54.1956 136.614 53.5371C136.886 52.8786 137.348 52.3158 137.94 51.9198C138.532 51.5239 139.228 51.3125 139.94 51.3125C140.413 51.3125 140.881 51.4057 141.318 51.5868C141.755 51.7679 142.151 52.0334 142.486 52.368C142.82 52.7026 143.085 53.0999 143.266 53.5371C143.447 53.9743 143.54 54.4429 143.54 54.9161Z" fill="#AADFF3"/>
<path d="M146.033 54.8688C146.033 55.2493 145.92 55.6212 145.709 55.9375C145.498 56.2538 145.198 56.5003 144.846 56.6459C144.495 56.7915 144.109 56.8296 143.736 56.7554C143.363 56.6812 143.021 56.498 142.752 56.229C142.483 55.9599 142.3 55.6172 142.226 55.2441C142.152 54.871 142.19 54.4842 142.336 54.1327C142.481 53.7813 142.727 53.4808 143.043 53.2695C143.359 53.0581 143.731 52.9453 144.111 52.9453C144.364 52.9449 144.614 52.9943 144.847 53.0908C145.08 53.1873 145.292 53.329 145.471 53.5077C145.649 53.6864 145.791 53.8986 145.887 54.1322C145.984 54.3658 146.033 54.6161 146.033 54.8688Z" fill="#AADFF3"/>
<path d="M149.103 55.298C149.103 55.766 148.964 56.2235 148.704 56.6127C148.445 57.0018 148.075 57.3051 147.643 57.4842C147.211 57.6633 146.736 57.7102 146.277 57.6189C145.819 57.5276 145.398 57.3022 145.067 56.9713C144.736 56.6403 144.511 56.2187 144.42 55.7596C144.329 55.3006 144.376 54.8248 144.554 54.3924C144.733 53.96 145.036 53.5905 145.425 53.3304C145.814 53.0704 146.271 52.9316 146.739 52.9316C147.366 52.9316 147.967 53.181 148.41 53.6247C148.854 54.0685 149.103 54.6704 149.103 55.298Z" fill="#AADFF3"/>
<path d="M150.734 54.9635C150.734 55.231 150.655 55.4924 150.506 55.7148C150.358 55.9371 150.147 56.1105 149.9 56.2128C149.653 56.3152 149.382 56.3419 149.12 56.2898C148.858 56.2376 148.617 56.1088 148.428 55.9197C148.239 55.7306 148.11 55.4896 148.058 55.2273C148.006 54.965 148.033 54.6931 148.135 54.4461C148.237 54.199 148.41 53.9878 148.633 53.8392C148.855 53.6906 149.116 53.6113 149.383 53.6113C149.741 53.6113 150.085 53.7538 150.338 54.0074C150.592 54.261 150.734 54.6049 150.734 54.9635Z" fill="#AADFF3"/>
<path d="M151.886 55.5388C151.887 55.7102 151.836 55.878 151.742 56.0209C151.647 56.1637 151.512 56.2751 151.354 56.3411C151.196 56.407 151.021 56.4244 150.853 56.3911C150.685 56.3578 150.531 56.2753 150.41 56.1541C150.289 56.0329 150.206 55.8784 150.173 55.7102C150.14 55.542 150.157 55.3677 150.223 55.2094C150.289 55.0512 150.4 54.916 150.543 54.8212C150.686 54.7264 150.853 54.6761 151.025 54.6768C151.253 54.6768 151.472 54.7676 151.634 54.9292C151.795 55.0909 151.886 55.3102 151.886 55.5388Z" fill="#AADFF3"/>
<path d="M153.136 55.5887C153.135 55.7309 153.092 55.8698 153.013 55.9878C152.933 56.1057 152.821 56.1975 152.689 56.2515C152.558 56.3055 152.413 56.3193 152.274 56.2911C152.134 56.2629 152.007 56.1941 151.906 56.0932C151.806 55.9924 151.738 55.8641 151.71 55.7245C151.683 55.5849 151.697 55.4403 151.752 55.309C151.806 55.1776 151.899 55.0653 152.017 54.9864C152.135 54.9074 152.274 54.8652 152.416 54.8652C152.511 54.8652 152.605 54.884 152.692 54.9204C152.78 54.9568 152.859 55.0101 152.926 55.0773C152.993 55.1445 153.046 55.2243 153.082 55.3121C153.118 55.3998 153.136 55.4938 153.136 55.5887Z" fill="#AADFF3"/>
<path d="M130.632 55.0586L130.507 55.1329L130.389 55.2039L130.186 55.3087L130.061 55.3662L129.899 55.4372L129.784 55.4811L129.554 55.5623L129.45 55.5927L129.247 55.6468L129.139 55.6704C129.051 55.6907 128.967 55.7076 128.879 55.7211H128.808L128.551 55.7482H128.46C128.359 55.7482 128.261 55.7482 128.16 55.7482H127.903H127.866C127.791 55.7482 127.72 55.7482 127.65 55.7279H127.602L127.396 55.6975H127.352L127.143 55.6569H127.113L126.89 55.6028C126.01 55.3498 125.224 54.843 124.63 54.1458C123.986 54.5152 123.263 54.7248 122.521 54.757C121.78 54.7892 121.041 54.6431 120.367 54.331C119.694 54.0189 119.105 53.5497 118.649 52.9629C118.194 52.376 117.886 51.6886 117.75 50.958C117.818 51.763 118.087 52.538 118.534 53.211C118.98 53.8841 119.589 54.4335 120.304 54.8083C121.019 55.1832 121.817 55.3713 122.624 55.3554C123.431 55.3395 124.221 55.1199 124.921 54.7171C125.532 55.4397 126.345 55.9644 127.254 56.2248C127.329 56.2485 127.406 56.2654 127.484 56.2857H127.514L127.731 56.3296H127.775L127.987 56.3601H128.038H128.258H128.301C128.386 56.3601 128.474 56.3601 128.565 56.3601C128.67 56.3601 128.771 56.3601 128.876 56.3601H128.97L129.234 56.3296H129.308L129.575 56.2789L129.686 56.2519L129.896 56.1978L130.004 56.164C130.085 56.1403 130.162 56.1099 130.243 56.0829L130.362 56.0355L130.531 55.9612L130.659 55.9037L130.865 55.7955L130.932 55.7583C130.834 55.5094 130.762 55.2512 130.716 54.9876L130.632 55.0417" fill="#8DD5E2"/>
<path d="M174.991 34.694C169.249 45.6502 159.792 55.3151 148.417 56.2414C148.417 56.2414 145.084 59.7131 140.474 57.5699L140.389 57.6037H140.352L140.234 57.6443H140.19L140.068 57.6781H140.028C139.985 57.6914 139.941 57.7016 139.896 57.7085H139.862L139.717 57.7322H139.693L139.525 57.7524C139.407 57.765 139.288 57.7706 139.17 57.7693H138.933H138.893C138.316 57.7237 137.76 57.5343 137.275 57.2183C136.753 57.6959 136.111 58.023 135.418 58.1649L135.232 58.1987L135.046 58.2223H134.85H134.651H134.421H134.32H134.235H134.117H134.053L133.928 58.202H133.877L133.739 58.1716H133.709L133.557 58.1344C132.878 57.9467 132.263 57.5788 131.777 57.0696C132.317 57.9339 133.16 58.5655 134.141 58.841L134.296 58.8815H134.327L134.472 58.912H134.519L134.654 58.9356H134.718H134.84H134.928H135.033H135.195H135.228H135.434H135.637L135.83 58.912C135.894 58.9043 135.959 58.893 136.022 58.8781C136.739 58.731 137.402 58.3935 137.944 57.9012C138.444 58.2277 139.017 58.423 139.612 58.4691H139.656H139.899C140.021 58.4693 140.143 58.4625 140.264 58.4488L140.436 58.4285H140.46L140.609 58.4015H140.646L140.781 58.3711H140.825L140.95 58.3373H140.994L141.115 58.2967H141.152L141.24 58.2629H141.264H141.24C146.006 60.4737 149.447 56.8904 149.447 56.8904C163.433 55.7782 174.545 41.9181 179.837 28.2305C179.378 28.795 177.135 31.8713 174.991 34.694ZM141.554 58.1277L141.619 58.0939L141.554 58.1277Z" fill="#8DD5E2"/>
<path d="M118.021 38.785C116.53 40.0223 115.097 41.3226 113.721 42.6861C112.336 44.0352 111.04 45.4727 109.84 46.9895C109.246 47.7519 108.705 48.5538 108.219 49.3897C107.722 50.2156 107.366 51.1196 107.169 52.0636C107.076 52.5323 107.076 53.0148 107.169 53.4835C107.196 53.598 107.23 53.7109 107.27 53.8215C107.314 53.9297 107.365 54.0379 107.415 54.1596C107.466 54.2813 107.537 54.3624 107.608 54.457C107.68 54.5511 107.757 54.6413 107.838 54.7275C108.173 55.0679 108.571 55.34 109.01 55.5287C109.114 55.5861 109.229 55.6199 109.347 55.6673L109.513 55.7315L109.685 55.789L110.023 55.8938L110.361 55.9783C111.303 56.1838 112.263 56.2971 113.228 56.3163C114.193 56.3417 115.159 56.318 116.122 56.2453C118.047 56.0787 119.957 55.7725 121.837 55.3292C125.599 54.4228 129.296 53.2629 132.901 51.8574C136.515 50.4782 140.072 48.9434 143.581 47.314C147.09 45.6846 150.565 43.9741 154.004 42.1926C160.89 38.6599 167.645 34.8636 174.292 30.8848V30.9084C172.654 31.9429 170.999 32.9367 169.337 33.9509C167.675 34.965 165.993 35.9082 164.311 36.8683C160.934 38.7861 157.535 40.6454 154.115 42.4461C150.673 44.2276 147.201 45.9449 143.682 47.5676C140.163 49.1902 136.59 50.7047 132.966 52.0704C129.347 53.4669 125.638 54.6155 121.864 55.5084C119.975 55.9492 118.056 56.2509 116.122 56.411C115.154 56.4803 114.182 56.5006 113.211 56.4718C112.239 56.4539 111.27 56.3406 110.32 56.1338L109.965 56.0459C109.847 56.0121 109.732 55.9715 109.628 55.9343L109.452 55.8802L109.28 55.8126C109.168 55.7619 109.054 55.7247 108.942 55.6673C108.49 55.469 108.081 55.1855 107.736 54.8323C107.652 54.7423 107.573 54.6475 107.5 54.5483C107.426 54.4503 107.365 54.3387 107.301 54.2373C107.236 54.1359 107.193 54.0108 107.149 53.8993C107.105 53.7877 107.068 53.666 107.044 53.5612C106.946 53.0771 106.946 52.5782 107.044 52.0941C107.248 51.1381 107.612 50.2236 108.121 49.3897C108.61 48.5507 109.157 47.7474 109.759 46.9861C110.966 45.4671 112.271 44.0295 113.667 42.6827C115.052 41.3305 116.492 40.0358 117.987 38.7985L118.021 38.785Z" fill="#7BB9C4"/>
<path d="M118.021 40.857C116.531 42.0909 115.099 43.3991 113.721 44.7581C112.336 46.1111 111.04 47.5519 109.84 49.0716C109.247 49.8345 108.705 50.6364 108.219 51.4718C107.722 52.2977 107.366 53.2017 107.169 54.1458C107.076 54.6156 107.076 55.0991 107.169 55.569C107.196 55.6835 107.23 55.7964 107.27 55.907C107.314 56.0186 107.365 56.1234 107.415 56.2451C107.466 56.3668 107.537 56.4479 107.608 56.5425C107.679 56.6372 107.756 56.7275 107.838 56.813C108.173 57.1534 108.571 57.4255 109.01 57.6142C109.114 57.6716 109.229 57.7054 109.347 57.7528L109.513 57.8204L109.685 57.8745L110.023 57.9792L110.361 58.0671C111.303 58.2743 112.263 58.3875 113.228 58.4052C114.193 58.4323 115.16 58.4086 116.122 58.3342C118.047 58.1675 119.957 57.8614 121.837 57.4181C125.6 56.5132 129.296 55.3533 132.901 53.9463C136.515 52.5671 140.072 51.0323 143.581 49.4029C147.09 47.7735 150.586 46.0461 154.01 44.2848C160.897 40.7488 167.652 36.9525 174.298 32.9736V32.9973C172.66 34.0317 171.005 35.0256 169.344 36.0398C167.682 37.0539 166 37.9971 164.318 38.9571C160.941 40.875 157.542 42.7343 154.122 44.535C150.68 46.3165 147.208 48.0338 143.689 49.6598C140.17 51.2858 136.596 52.7936 132.972 54.1593C129.354 55.5568 125.645 56.7066 121.871 57.6006C119.981 58.0387 118.062 58.3393 116.129 58.4999C115.16 58.5708 114.189 58.5912 113.218 58.5607C112.245 58.5427 111.277 58.4295 110.327 58.2226L109.972 58.1348L109.634 58.0266L109.459 57.9691L109.287 57.9015C109.172 57.8588 109.059 57.8103 108.949 57.7561C108.497 57.5578 108.088 57.2743 107.743 56.9212C107.659 56.8312 107.58 56.7363 107.507 56.6372C107.432 56.5392 107.372 56.431 107.307 56.3262C107.243 56.2214 107.199 56.0997 107.155 55.9881C107.111 55.8766 107.074 55.7515 107.051 55.6298C106.953 55.1468 106.953 54.649 107.051 54.166C107.255 53.2101 107.619 52.2957 108.128 51.4616C108.616 50.6092 109.163 49.7924 109.766 49.0175C110.973 47.4985 112.278 46.0609 113.674 44.7141C115.059 43.3619 116.498 42.0672 117.993 40.8299L118.021 40.857Z" fill="#7BB9C4"/>
<path d="M179.604 23.9001L171.627 26.7904C171.594 26.8087 171.568 26.8365 171.552 26.8701C171.536 26.9037 171.53 26.9414 171.536 26.9782C171.542 27.0151 171.559 27.0492 171.585 27.076C171.611 27.1029 171.644 27.1212 171.681 27.1284L173.954 27.2366C173.993 27.2368 174.032 27.25 174.063 27.274C174.095 27.2981 174.118 27.3317 174.129 27.37C174.139 27.4082 174.137 27.4488 174.123 27.4857C174.108 27.5227 174.082 27.5539 174.048 27.5747L169.82 30.4549C169.786 30.4759 169.759 30.5078 169.745 30.5454C169.731 30.583 169.729 30.6243 169.741 30.6629C169.752 30.7015 169.776 30.7352 169.809 30.7587C169.841 30.7822 169.881 30.7942 169.921 30.7929H172.069C172.1 30.7928 172.13 30.8005 172.157 30.8153C172.184 30.8301 172.207 30.8515 172.224 30.8775C172.24 30.9034 172.25 30.9332 172.252 30.9639C172.254 30.9946 172.248 31.0254 172.235 31.0532L169.003 37.8616C168.985 37.899 168.98 37.9415 168.99 37.9819C168.999 38.0223 169.022 38.0583 169.055 38.0839C169.087 38.1095 169.128 38.1232 169.169 38.1228C169.211 38.1223 169.251 38.1076 169.283 38.0813L174.454 33.974C174.478 33.955 174.506 33.9423 174.537 33.9373C174.567 33.9322 174.598 33.9348 174.627 33.9449C174.656 33.9551 174.682 33.9723 174.702 33.9951C174.723 34.0179 174.737 34.0455 174.744 34.0754L175.345 36.6378C175.351 36.6751 175.368 36.7097 175.394 36.7368C175.421 36.7639 175.455 36.7823 175.492 36.7893C175.529 36.7964 175.567 36.7918 175.601 36.7761C175.635 36.7605 175.664 36.7346 175.683 36.702L178.203 33.2573C178.22 33.2342 178.242 33.2155 178.267 33.2026C178.293 33.1897 178.321 33.1829 178.35 33.1829C178.378 33.1829 178.406 33.1897 178.432 33.2026C178.457 33.2155 178.48 33.2342 178.496 33.2573L179.625 34.7447C179.642 34.7685 179.664 34.7878 179.691 34.8011C179.717 34.8144 179.746 34.8214 179.775 34.8214C179.804 34.8214 179.833 34.8144 179.859 34.8011C179.885 34.7878 179.908 34.7685 179.925 34.7447L182.735 30.3501C182.752 30.3227 182.777 30.3005 182.806 30.2856C182.834 30.2708 182.867 30.2639 182.899 30.2656C182.931 30.2673 182.962 30.2776 182.989 30.2954C183.016 30.3132 183.038 30.3379 183.053 30.367C183.36 30.9721 184.066 32.2837 184.272 31.7936C184.478 31.3034 184.799 28.8559 184.903 28.0243C184.908 27.9941 184.904 27.9633 184.894 27.9347C184.883 27.9062 184.865 27.8809 184.842 27.8613C184.818 27.8416 184.79 27.8283 184.76 27.8225C184.73 27.8167 184.699 27.8187 184.67 27.8282L182.576 28.4807C182.546 28.4905 182.513 28.492 182.481 28.485C182.45 28.478 182.42 28.4627 182.397 28.4407C182.373 28.4186 182.356 28.3907 182.346 28.3597C182.337 28.3287 182.336 28.2958 182.343 28.2643C182.368 28.2244 182.377 28.1764 182.367 28.1303C182.357 28.0843 182.33 28.0438 182.292 28.0172C182.253 27.9906 182.205 27.98 182.159 27.9876C182.113 27.9952 182.071 28.0205 182.043 28.0581L179.564 30.4853C179.533 30.5141 179.494 30.5317 179.452 30.5349C179.411 30.5382 179.369 30.527 179.335 30.5032C179.3 30.4794 179.275 30.4445 179.263 30.4043C179.251 30.3641 179.254 30.3211 179.27 30.2825L180.314 27.9161C180.33 27.8794 180.334 27.8381 180.325 27.7988C180.316 27.7595 180.294 27.7243 180.263 27.6988C180.232 27.6733 180.193 27.6589 180.152 27.6579C180.112 27.6568 180.073 27.6692 180.04 27.693L178.03 29.1466C177.994 29.1743 177.948 29.1873 177.903 29.183C177.857 29.1787 177.815 29.1574 177.784 29.1234C177.754 29.0894 177.737 29.045 177.738 28.9992C177.738 28.9535 177.756 28.9095 177.787 28.8762L180.297 26.0568C180.321 26.0298 180.337 25.9961 180.342 25.96C180.347 25.9239 180.341 25.8872 180.325 25.8545C180.309 25.8218 180.284 25.7946 180.252 25.7764C180.221 25.7583 180.184 25.75 180.148 25.7526L178.993 25.827C178.958 25.8284 178.924 25.8201 178.893 25.8028C178.863 25.7856 178.838 25.7602 178.822 25.7296C178.805 25.6989 178.798 25.6642 178.8 25.6294C178.802 25.5946 178.814 25.5612 178.834 25.5328L179.831 24.1806C179.854 24.1491 179.867 24.1107 179.867 24.0713C179.867 24.0319 179.854 23.9936 179.831 23.962C179.807 23.9304 179.774 23.9073 179.736 23.8961C179.698 23.885 179.658 23.8864 179.621 23.9001" fill="#F8981D"/>
<path d="M184.66 27.8144L182.566 28.4668C182.535 28.4767 182.503 28.4782 182.471 28.4712C182.439 28.4642 182.41 28.4489 182.387 28.4268C182.363 28.4048 182.345 28.3769 182.336 28.3459C182.327 28.3149 182.326 28.282 182.333 28.2505C182.343 28.2119 182.34 28.1712 182.325 28.1346C182.309 28.0979 182.282 28.0673 182.248 28.0474C182.213 28.0275 182.173 28.0194 182.134 28.0244C182.095 28.0293 182.058 28.0469 182.029 28.0747L179.55 30.5019C179.52 30.5307 179.481 30.5483 179.439 30.5515C179.397 30.5548 179.356 30.5436 179.321 30.5198C179.287 30.496 179.261 30.4611 179.25 30.4209C179.238 30.3807 179.24 30.3377 179.256 30.2991L180.3 27.9327C180.317 27.896 180.321 27.8547 180.312 27.8154C180.303 27.7761 180.281 27.7409 180.249 27.7154C180.218 27.6899 180.179 27.6755 180.139 27.6745C180.099 27.6734 180.059 27.6858 180.027 27.7096L178.017 29.1632C177.981 29.1909 177.935 29.2039 177.889 29.1996C177.844 29.1953 177.802 29.174 177.771 29.14C177.74 29.106 177.724 29.0616 177.724 29.0158C177.725 28.9701 177.742 28.9261 177.774 28.8928L180.283 26.0734C180.308 26.0464 180.323 26.0127 180.328 25.9766C180.333 25.9405 180.327 25.9038 180.312 25.8711C180.296 25.8384 180.27 25.8112 180.239 25.793C180.207 25.7749 180.171 25.7666 180.135 25.7692L178.98 25.8402C178.945 25.8418 178.911 25.8336 178.881 25.8166C178.851 25.7996 178.826 25.7744 178.81 25.7439C178.794 25.7135 178.787 25.6791 178.789 25.6447C178.791 25.6102 178.804 25.5772 178.824 25.5495L179.817 24.1972C179.841 24.1657 179.853 24.1274 179.853 24.0879C179.854 24.0485 179.841 24.0102 179.817 23.9786C179.794 23.947 179.761 23.9239 179.723 23.9127C179.685 23.9016 179.645 23.903 179.608 23.9167L176.271 25.1269L173.407 27.0774C173.38 27.0944 173.358 27.1187 173.345 27.1474C173.331 27.1761 173.325 27.2081 173.329 27.2397L173.957 27.2701C173.997 27.2709 174.036 27.2854 174.067 27.3113C174.098 27.3371 174.118 27.3727 174.126 27.4121H175.66C175.69 27.4126 175.72 27.4207 175.746 27.4357C175.773 27.4507 175.795 27.4722 175.811 27.4981C175.828 27.524 175.837 27.5535 175.839 27.5839C175.84 27.6144 175.835 27.6448 175.822 27.6724L172.586 34.4605C172.568 34.4976 172.563 34.5398 172.572 34.5801C172.581 34.6205 172.604 34.6565 172.636 34.6824C172.668 34.7083 172.708 34.7225 172.749 34.7228C172.79 34.723 172.831 34.7092 172.863 34.6836L178.034 30.5729C178.058 30.5539 178.086 30.5413 178.117 30.5362C178.147 30.5311 178.178 30.5337 178.207 30.5439C178.236 30.554 178.262 30.5712 178.282 30.594C178.303 30.6168 178.317 30.6444 178.324 30.6743L178.925 33.2367C178.931 33.2743 178.947 33.3092 178.973 33.3368C178.999 33.3644 179.033 33.3832 179.07 33.3906C179.107 33.398 179.146 33.3937 179.181 33.3783C179.215 33.3628 179.244 33.337 179.263 33.3043L181.783 29.8596C181.8 29.8365 181.822 29.8178 181.847 29.8049C181.873 29.7919 181.901 29.7852 181.93 29.7852C181.958 29.7852 181.986 29.7919 182.012 29.8049C182.038 29.8178 182.06 29.8365 182.077 29.8596L182.6 30.5357L182.735 30.3261C182.752 30.2987 182.776 30.2763 182.805 30.2613C182.833 30.2463 182.865 30.2394 182.897 30.2411C182.929 30.2428 182.961 30.2532 182.987 30.2711C183.014 30.2891 183.035 30.3139 183.049 30.343C183.174 30.583 183.36 30.938 183.556 31.2456L184.708 29.4438C184.792 28.859 184.863 28.3147 184.9 28.0003C184.905 27.9701 184.901 27.9393 184.89 27.9108C184.879 27.8822 184.862 27.8569 184.838 27.8373C184.815 27.8177 184.787 27.8043 184.757 27.7985C184.727 27.7927 184.696 27.7947 184.667 27.8042" fill="#F58120"/>
<path d="M175.815 27.8517L173.228 33.2842C173.211 33.3141 173.206 33.3489 173.213 33.3823C173.22 33.4157 173.238 33.4457 173.264 33.4671C173.291 33.4884 173.324 33.4998 173.358 33.4991C173.392 33.4984 173.425 33.4858 173.451 33.4634L177.591 30.1708C177.611 30.1552 177.633 30.1448 177.658 30.1406C177.682 30.1363 177.707 30.1383 177.73 30.1465C177.754 30.1546 177.775 30.1685 177.791 30.187C177.808 30.2054 177.819 30.2278 177.824 30.2519L178.304 32.3038C178.31 32.3314 178.324 32.3566 178.344 32.3764C178.364 32.3963 178.389 32.4099 178.417 32.4156C178.444 32.4214 178.473 32.419 178.499 32.4087C178.525 32.3985 178.548 32.3808 178.564 32.3579L180.591 29.5994C180.604 29.5813 180.622 29.5665 180.642 29.5563C180.662 29.5461 180.684 29.5408 180.707 29.5408C180.73 29.5408 180.752 29.5461 180.772 29.5563C180.793 29.5665 180.81 29.5813 180.824 29.5994L181.729 30.7894C181.742 30.8089 181.76 30.8249 181.781 30.8359C181.802 30.847 181.825 30.8527 181.849 30.8527C181.872 30.8527 181.896 30.847 181.916 30.8359C181.937 30.8249 181.955 30.8089 181.969 30.7894L183.657 28.1729L182.607 28.5109C182.576 28.52 182.543 28.5207 182.512 28.5132C182.48 28.5056 182.451 28.4899 182.428 28.4677C182.404 28.4455 182.387 28.4176 182.377 28.3866C182.368 28.3556 182.367 28.3228 182.374 28.2912C182.383 28.2529 182.379 28.2128 182.363 28.1769C182.347 28.141 182.32 28.1112 182.286 28.0918C182.252 28.0724 182.212 28.0646 182.173 28.0695C182.135 28.0743 182.098 28.0916 182.07 28.1188L179.591 30.546C179.561 30.5748 179.521 30.5923 179.479 30.5956C179.438 30.5989 179.396 30.5877 179.362 30.5639C179.327 30.5401 179.302 30.5052 179.29 30.465C179.278 30.4248 179.281 30.3818 179.297 30.3432L180.341 27.9768C180.357 27.9401 180.361 27.8988 180.352 27.8595C180.343 27.8202 180.321 27.785 180.29 27.7595C180.259 27.734 180.22 27.7196 180.179 27.7186C180.139 27.7175 180.1 27.7299 180.067 27.7537L178.041 29.2073C178.004 29.235 177.959 29.248 177.913 29.2437C177.868 29.2394 177.825 29.2181 177.795 29.1841C177.764 29.15 177.747 29.1057 177.748 29.0599C177.748 29.0141 177.766 28.9702 177.797 28.9369L180.216 26.2325C180.215 26.1962 180.228 26.1612 180.253 26.1344L180.351 26.0229C180.353 25.9968 180.35 25.9704 180.341 25.9457C180.333 25.921 180.319 25.8985 180.3 25.8798C180.282 25.8611 180.26 25.8467 180.235 25.8375C180.211 25.8284 180.184 25.8247 180.158 25.8268L179.003 25.8978C178.968 25.9009 178.933 25.8937 178.902 25.8769C178.871 25.8602 178.846 25.8348 178.829 25.8038C178.813 25.7729 178.806 25.7377 178.809 25.7027C178.812 25.6677 178.826 25.6345 178.848 25.6071L179.841 24.2549C179.864 24.2233 179.877 24.185 179.877 24.1456C179.877 24.1061 179.864 24.0678 179.841 24.0362C179.817 24.0046 179.784 23.9815 179.746 23.9704C179.709 23.9592 179.668 23.9606 179.631 23.9743L177.244 24.8397C177.269 24.8496 177.29 24.8661 177.307 24.8874C177.323 24.9087 177.333 24.934 177.337 24.9607C177.34 24.9874 177.335 25.0145 177.324 25.039C177.313 25.0635 177.296 25.0846 177.274 25.1L173.998 27.3311C174.037 27.3322 174.076 27.3465 174.106 27.3716C174.137 27.3967 174.158 27.4314 174.167 27.4701C174.176 27.5087 174.172 27.5493 174.155 27.5853C174.139 27.6214 174.111 27.6509 174.076 27.6692H175.707C175.732 27.6689 175.756 27.675 175.778 27.6869C175.8 27.6988 175.818 27.7161 175.831 27.7371C175.844 27.7581 175.852 27.7822 175.853 27.807C175.855 27.8318 175.849 27.8565 175.839 27.8788" fill="#FBD206"/>
<path d="M182.232 14.8948L179.04 15.8886C178.834 15.9612 178.661 16.1066 178.554 16.2977L176.092 20.5064C175.68 21.2163 176.271 21.8586 176.879 21.3617L178.149 20.3137C178.247 20.2333 178.362 20.1777 178.486 20.1515L180.118 19.8675C180.24 19.8415 180.354 19.789 180.453 19.7136C180.553 19.6382 180.634 19.5419 180.692 19.4314L182.755 15.8886C183.093 15.3241 182.755 14.7224 182.232 14.8745" fill="#F95474"/>
<path d="M193.756 26.1241L192.851 29.3457C192.784 29.5551 192.642 29.7322 192.452 29.8426L188.325 32.4152C187.626 32.8513 186.974 32.2766 187.45 31.6546L188.463 30.3531C188.541 30.2546 188.593 30.1385 188.615 30.015L188.855 28.3755C188.879 28.2561 188.929 28.1431 189 28.0441C189.071 27.9451 189.162 27.8622 189.267 27.8008L192.746 25.6339C193.303 25.2959 193.911 25.5866 193.759 26.1308" fill="#F95474"/>
<path d="M180.692 19.4715L182.759 15.9355C183.097 15.371 182.776 14.7692 182.239 14.9214L180.07 15.5975C179.86 17.0365 179.774 18.491 179.814 19.9448L180.152 19.8873C180.265 19.8583 180.371 19.8065 180.464 19.735C180.557 19.6635 180.635 19.5739 180.692 19.4715Z" fill="#D33D65"/>
<path d="M189.247 27.7541L192.746 25.6244C193.307 25.2863 193.911 25.5906 193.759 26.1314L193.128 28.3119C191.691 28.5505 190.237 28.6636 188.781 28.6499L188.831 28.3119C188.857 28.1925 188.908 28.0798 188.98 27.9813C189.052 27.8829 189.144 27.8008 189.25 27.7406" fill="#D33D65"/>
<path d="M179.848 21.25L178.929 21.6083C178.663 21.7124 178.444 21.9096 178.312 22.1633C178.18 22.4169 178.145 22.7099 178.213 22.9876C178.631 24.8231 179.571 26.4985 180.918 27.8119C182.266 29.1254 183.964 30.021 185.809 30.3909C186.087 30.4494 186.377 30.4053 186.625 30.2668C186.873 30.1282 187.063 29.9046 187.16 29.637L187.497 28.7108C185.66 28.2913 183.974 27.3731 182.624 26.0571C180.02 23.5724 179.871 21.2669 179.848 21.2534" fill="#F95474"/>
<path d="M182.614 26.0303C180.01 23.5456 179.864 21.2401 179.837 21.2266L178.932 21.5815C179.609 23.5845 180.83 25.3592 182.458 26.7064C183.893 27.8503 185.586 28.6255 187.389 28.9645L187.487 28.6907C185.649 28.2688 183.963 27.3483 182.614 26.0303Z" fill="#D33D65"/>
<path d="M198.227 20.9054L201.743 11.4399C202.605 8.50903 201.034 7.09936 201.034 7.09936C201.034 7.09936 199.585 5.56799 196.681 6.50439L187.325 10.277C187.325 10.277 185.234 11.156 183.124 13.7252C182.389 14.6249 181.706 15.565 181.077 16.5411C179.685 18.6844 179.388 21.1555 180.283 23.0047C180.867 24.153 181.643 25.1933 182.576 26.0809C183.487 26.9908 184.546 27.7385 185.707 28.2918C187.582 29.1572 190.041 28.7752 192.145 27.3249C193.104 26.6712 194.024 25.9624 194.901 25.202C197.403 23.0216 198.227 20.9054 198.227 20.9054Z" fill="#E9F0F1"/>
<g style="mix-blend-mode:multiply">
<g style="mix-blend-mode:multiply">
<g style="mix-blend-mode:multiply">
<g style="mix-blend-mode:multiply">
<path d="M195.552 21.057C194.759 21.8694 193.744 22.4284 192.633 22.6634C191.523 22.8983 190.368 22.7987 189.315 22.3772C188.261 21.9556 187.356 21.231 186.713 20.2948C186.071 19.3586 185.72 18.2529 185.705 17.1172C185.69 15.9815 186.011 14.8668 186.628 13.9138C187.246 12.9609 188.132 12.2124 189.174 11.763C190.216 11.3136 191.368 11.1833 192.484 11.3887C193.6 11.594 194.63 12.1258 195.444 12.9168C195.987 13.4435 196.42 14.0722 196.719 14.7668C197.018 15.4614 197.177 16.2082 197.187 16.9644C197.197 17.7207 197.058 18.4715 196.777 19.1738C196.497 19.8761 196.081 20.5161 195.552 21.057Z" fill="#E9F0F1"/>
</g>
</g>
</g>
</g>
<path d="M194.877 20.4313C194.207 21.1197 193.349 21.5938 192.41 21.7938C191.471 21.9937 190.494 21.9105 189.602 21.5547C188.711 21.1989 187.945 20.5864 187.401 19.7947C186.857 19.003 186.56 18.0676 186.547 17.1069C186.534 16.1462 186.806 15.2033 187.329 14.3974C187.852 13.5915 188.601 12.9589 189.483 12.5794C190.365 12.2 191.34 12.0908 192.283 12.2658C193.227 12.4407 194.098 12.8918 194.786 13.5621C195.707 14.4614 196.234 15.6899 196.251 16.9778C196.268 18.2658 195.774 19.5079 194.877 20.4313Z" fill="#2CC5F4"/>
<path d="M194.799 13.5628C194.045 12.8285 193.074 12.3593 192.03 12.2257C190.987 12.0922 189.928 12.3017 189.014 12.8225C189.874 12.3669 190.856 12.1926 191.82 12.3241C192.785 12.4556 193.684 12.8864 194.392 13.5558C195.099 14.2252 195.579 15.0997 195.764 16.0563C195.949 17.0129 195.83 18.0035 195.424 18.8889C195.018 19.7744 194.344 20.5101 193.499 20.9928C192.653 21.4754 191.678 21.6807 190.709 21.5798C189.741 21.4789 188.829 21.0768 188.101 20.4301C187.372 19.7834 186.865 18.9246 186.65 17.9744C186.795 18.7227 187.114 19.4263 187.582 20.0281C188.049 20.63 188.652 21.1133 189.341 21.439C190.029 21.7646 190.785 21.9235 191.546 21.9027C192.308 21.8818 193.053 21.682 193.723 21.3192C194.393 20.9564 194.968 20.4409 195.402 19.8144C195.836 19.1879 196.117 18.468 196.221 17.7128C196.326 16.9577 196.251 16.1885 196.003 15.4676C195.756 14.7466 195.342 14.0941 194.796 13.5628" fill="#00B4DC"/>
<path d="M201.031 7.09936C201.031 7.09936 199.582 5.56799 196.677 6.50439L194.225 7.4915C194.854 8.95401 195.764 10.2784 196.904 11.3892C198.027 12.4846 199.352 13.3524 200.804 13.9449L201.737 11.4399C202.594 8.50903 201.027 7.10274 201.027 7.10274" fill="#F95474"/>
<g style="mix-blend-mode:multiply">
<g style="mix-blend-mode:multiply">
<g style="mix-blend-mode:multiply">
<g style="mix-blend-mode:multiply">
<path d="M184.714 24.3671C184.667 24.4141 184.607 24.4461 184.541 24.4589C184.476 24.4717 184.408 24.4648 184.347 24.4392C184.285 24.4135 184.233 24.3702 184.196 24.3146C184.159 24.2591 184.139 24.1939 184.139 24.1271C184.139 24.0604 184.159 23.9951 184.196 23.9396C184.233 23.8841 184.285 23.8407 184.347 23.8151C184.408 23.7894 184.476 23.7825 184.541 23.7954C184.607 23.8082 184.667 23.8401 184.714 23.8871C184.746 23.9185 184.771 23.9559 184.788 23.9971C184.805 24.0383 184.814 24.0825 184.814 24.1271C184.814 24.1717 184.805 24.2159 184.788 24.2571C184.771 24.2983 184.746 24.3357 184.714 24.3671Z" fill="#E9F0F1"/>
</g>
<g style="mix-blend-mode:multiply">
<path d="M181.756 20.3447C181.708 20.3917 181.648 20.4236 181.583 20.4364C181.517 20.4492 181.45 20.4424 181.388 20.4167C181.326 20.391 181.274 20.3477 181.237 20.2922C181.2 20.2366 181.18 20.1714 181.18 20.1047C181.18 20.0379 181.2 19.9727 181.237 19.9171C181.274 19.8616 181.326 19.8183 181.388 19.7926C181.45 19.7669 181.517 19.7601 181.583 19.7729C181.648 19.7857 181.708 19.8176 181.756 19.8646C181.787 19.8961 181.813 19.9335 181.83 19.9746C181.847 20.0158 181.856 20.06 181.856 20.1047C181.856 20.1493 181.847 20.1935 181.83 20.2347C181.813 20.2759 181.787 20.3132 181.756 20.3447Z" fill="#E9F0F1"/>
</g>
<g style="mix-blend-mode:multiply">
<path d="M188.798 27.2233C188.75 27.2698 188.69 27.3013 188.625 27.3137C188.559 27.3261 188.492 27.319 188.43 27.2932C188.369 27.2674 188.317 27.2241 188.28 27.1686C188.243 27.1132 188.224 27.0481 188.224 26.9816C188.224 26.9151 188.243 26.85 188.28 26.7946C188.317 26.7392 188.369 26.6958 188.43 26.67C188.492 26.6442 188.559 26.6371 188.625 26.6495C188.69 26.6619 188.75 26.6934 188.798 26.7399C188.83 26.7714 188.855 26.809 188.873 26.8505C188.89 26.892 188.899 26.9366 188.899 26.9816C188.899 27.0266 188.89 27.0712 188.873 27.1127C188.855 27.1542 188.83 27.1918 188.798 27.2233Z" fill="#E9F0F1"/>
</g>
<g style="mix-blend-mode:multiply">
<path d="M191.115 27.0107C191.078 27.0114 191.042 27.002 191.01 26.9837C187.135 24.7103 183.867 21.5324 181.486 17.7211L181.448 17.667C181.433 17.6232 181.433 17.5754 181.448 17.5315C181.463 17.4876 181.493 17.4501 181.532 17.4251C181.571 17.4001 181.617 17.389 181.663 17.3936C181.71 17.3982 181.753 17.4183 181.786 17.4506L181.82 17.5047C184.169 21.259 187.389 24.3902 191.206 26.6321C191.229 26.6454 191.249 26.6631 191.265 26.6844C191.281 26.7056 191.293 26.7299 191.3 26.7557C191.306 26.7815 191.308 26.8085 191.304 26.8348C191.3 26.8612 191.291 26.8866 191.277 26.9093C191.26 26.9401 191.235 26.9658 191.205 26.9837C191.174 27.0015 191.14 27.0108 191.105 27.0107" fill="#E9F0F1"/>
</g>
</g>
</g>
</g>
<g style="mix-blend-mode:multiply">
<g style="mix-blend-mode:multiply">
<g style="mix-blend-mode:multiply">
<g style="mix-blend-mode:multiply">
<path d="M178.74 23.0791C178.808 23.0063 178.888 22.9457 178.976 22.8999C179.057 22.8567 179.142 22.8216 179.229 22.7951C179.318 22.7709 179.408 22.7551 179.5 22.7478C179.598 22.742 179.697 22.7511 179.794 22.7748C179.727 22.8482 179.648 22.9089 179.56 22.954C179.479 22.9979 179.393 23.033 179.304 23.0588C179.216 23.0837 179.125 23.0996 179.034 23.1061C178.935 23.1118 178.836 23.1027 178.74 23.0791Z" fill="#E9F0F1"/>
</g>
<g style="mix-blend-mode:multiply">
<path d="M179.895 25.2794C179.953 25.1993 180.025 25.1305 180.108 25.0766C180.26 24.974 180.433 24.9048 180.614 24.8738C180.712 24.8585 180.811 24.8585 180.908 24.8738C180.85 24.9539 180.778 25.0226 180.695 25.0766C180.543 25.1792 180.37 25.2483 180.189 25.2794C180.091 25.2947 179.992 25.2947 179.895 25.2794Z" fill="#E9F0F1"/>
</g>
<g style="mix-blend-mode:multiply">
<path d="M185.714 29.874C185.687 29.7785 185.675 29.6791 185.68 29.5799C185.684 29.4885 185.697 29.3978 185.721 29.3094C185.742 29.2193 185.774 29.132 185.815 29.0491C185.86 28.9615 185.918 28.8816 185.988 28.8125C186.016 28.9067 186.029 29.0049 186.025 29.1032C186.018 29.1954 186.005 29.287 185.984 29.377C185.96 29.4655 185.927 29.5515 185.886 29.634C185.843 29.7231 185.785 29.8043 185.714 29.874Z" fill="#E9F0F1"/>
</g>
<g style="mix-blend-mode:multiply">
<path d="M183.485 28.7787C183.468 28.6813 183.468 28.5819 183.485 28.4846C183.496 28.3934 183.518 28.3038 183.549 28.2175C183.583 28.1316 183.625 28.049 183.674 27.9707C183.727 27.8873 183.793 27.8131 183.87 27.751C183.887 27.8483 183.887 27.9478 183.87 28.0451C183.857 28.1362 183.834 28.2257 183.803 28.3121C183.77 28.3979 183.729 28.4805 183.681 28.5589C183.628 28.6423 183.562 28.7165 183.485 28.7787Z" fill="#E9F0F1"/>
</g>
<g style="mix-blend-mode:multiply">
<path d="M181.499 27.1932C181.525 27.0982 181.566 27.008 181.621 26.9261C181.671 26.8493 181.728 26.7779 181.793 26.7131C181.86 26.6492 181.932 26.5915 182.009 26.5407C182.093 26.4884 182.184 26.4496 182.279 26.4258C182.255 26.5208 182.215 26.611 182.161 26.6928C182.11 26.7696 182.051 26.8409 181.985 26.9058C181.92 26.9705 181.847 27.0283 181.769 27.0782C181.687 27.132 181.595 27.1709 181.499 27.1932Z" fill="#E9F0F1"/>
</g>
</g>
</g>
</g>
<path d="M189.233 16.3106C189.536 15.5947 189.934 14.9236 190.419 14.3161L190.081 14.1302C189.809 15.2597 189.665 16.4164 189.652 17.5783C189.652 17.6294 189.672 17.6784 189.709 17.7146C189.745 17.7507 189.794 17.771 189.845 17.771C189.896 17.771 189.945 17.7507 189.981 17.7146C190.017 17.6784 190.037 17.6294 190.037 17.5783C190.055 16.4491 190.198 15.3254 190.466 14.2282C190.51 14.0558 190.274 13.8902 190.128 14.0423C189.621 14.6716 189.203 15.3677 188.885 16.1112C188.791 16.3377 189.122 16.5337 189.223 16.3072" fill="#ABE0F2"/>
<path d="M192.023 13.6881C191.771 15.8066 191.573 17.9306 191.429 20.0604C191.405 20.3984 191.952 20.3984 191.976 20.0604C192.122 17.9306 192.32 15.8066 192.57 13.6881C192.611 13.3501 192.064 13.3501 192.023 13.6881Z" fill="#ABE0F2"/>
<path d="M193.121 14.6617C192.948 15.9622 192.932 17.2788 193.073 18.5831C193.097 18.8164 193.459 18.9989 193.58 18.7217C193.953 17.8723 194.273 17.0008 194.539 16.112L194.002 16.0376C194.026 16.4906 194.053 16.9402 194.077 17.3898C194.097 17.7279 194.644 17.7279 194.624 17.3898C194.6 16.9368 194.573 16.4872 194.546 16.0376C194.543 15.9735 194.518 15.9126 194.474 15.8654C194.431 15.8182 194.372 15.7877 194.309 15.7792C194.245 15.7708 194.181 15.7849 194.127 15.8191C194.073 15.8534 194.032 15.9056 194.012 15.9666C193.758 16.81 193.453 17.6374 193.101 18.4445L193.611 18.5831C193.469 17.2788 193.485 15.9622 193.658 14.6617C193.702 14.3237 193.155 14.3237 193.111 14.6617" fill="#ABE0F2"/>
<path d="M190.551 19.37C190.581 19.4789 190.578 19.5943 190.542 19.7015C190.507 19.8087 190.44 19.903 190.351 19.9724C190.262 20.0418 190.154 20.0833 190.042 20.0915C189.929 20.0997 189.817 20.0744 189.719 20.0186C189.621 19.9629 189.541 19.8793 189.49 19.7783C189.44 19.6774 189.42 19.5637 189.434 19.4516C189.448 19.3395 189.494 19.234 189.568 19.1485C189.642 19.0629 189.739 19.0012 189.848 18.9711C189.994 18.9316 190.15 18.9513 190.281 19.026C190.413 19.1007 190.51 19.2243 190.551 19.37Z" fill="#ABE0F2"/>
<path d="M188.761 18.8157C188.776 18.8729 188.775 18.9336 188.756 18.99C188.738 19.0465 188.703 19.0961 188.656 19.1327C188.609 19.1693 188.553 19.1912 188.493 19.1956C188.434 19.2001 188.375 19.1869 188.323 19.1577C188.271 19.1285 188.23 19.0847 188.203 19.0317C188.176 18.9787 188.165 18.9189 188.172 18.8599C188.179 18.8009 188.204 18.7453 188.242 18.7001C188.281 18.6549 188.332 18.6222 188.389 18.6061C188.427 18.5953 188.467 18.5921 188.506 18.5969C188.546 18.6016 188.584 18.614 188.618 18.6335C188.653 18.653 188.683 18.6791 188.708 18.7104C188.732 18.7416 188.75 18.7774 188.761 18.8157Z" fill="#ABE0F2"/>
<g style="mix-blend-mode:multiply">
<g style="mix-blend-mode:multiply">
<path d="M183.853 25.9616C182.956 25.1111 182.211 24.1129 181.651 23.0104C180.776 21.2323 181.08 18.8625 182.414 16.8038C183.018 15.8667 183.673 14.9638 184.377 14.0994C186.403 11.6418 188.429 10.7967 188.429 10.7967L197.407 7.17613C199.72 6.42904 201.068 7.31136 201.46 7.63588C201.343 7.43808 201.2 7.25723 201.034 7.09838C201.034 7.09838 199.585 5.56701 196.681 6.50341L187.325 10.2761C187.325 10.2761 185.234 11.155 183.124 13.7242C182.389 14.6239 181.706 15.564 181.077 16.5401C179.685 18.6834 179.388 21.1545 180.283 23.0037C180.867 24.152 181.643 25.1923 182.576 26.0799C183.487 26.9898 184.546 27.7375 185.707 28.2908C186.993 28.8347 188.432 28.8971 189.76 28.4666C188.771 28.62 187.759 28.4875 186.842 28.0846C185.726 27.5541 184.71 26.836 183.836 25.9616" fill="#DBDFE0"/>
</g>
</g>
</svg>
