<svg width="200" height="59" viewBox="0 0 200 59" fill="none" xmlns="http://www.w3.org/2000/svg">
<g clip-path="url(#clip0)">
<path d="M12.1497 36.0299C12.1494 36.5496 11.9513 37.0493 11.596 37.4261C11.4314 37.6222 11.2256 37.7791 10.9936 37.8855C10.7615 37.9919 10.5089 38.0451 10.254 38.0413C9.75651 38.0171 9.2861 37.806 8.93537 37.4497L4.18106 32.8793V36.0773C4.19993 36.3516 4.15588 36.6266 4.05231 36.881C3.94875 37.1354 3.78845 37.3624 3.58383 37.5444C3.16088 37.8841 2.63135 38.0604 2.09077 38.0413C1.5512 38.0605 1.0227 37.8842 0.60106 37.5444C0.395227 37.3633 0.233873 37.1365 0.129668 36.8819C0.0254623 36.6274 -0.0187577 36.3519 0.000479945 36.0773V23.0758C-0.0187577 22.8012 0.0254623 22.5257 0.129668 22.2712C0.233873 22.0166 0.395227 21.7898 0.60106 21.6087C1.0227 21.2689 1.5512 21.0926 2.09077 21.1118C2.63135 21.0927 3.16088 21.269 3.58383 21.6087C3.78845 21.7907 3.94875 22.0177 4.05231 22.2721C4.15588 22.5265 4.19993 22.8015 4.18106 23.0758V31.1012L8.54281 26.649C8.71286 26.4574 8.92056 26.3035 9.15274 26.197C9.38492 26.0905 9.63652 26.0338 9.8916 26.0304C10.1431 26.0284 10.3922 26.079 10.6233 26.1791C10.8543 26.2792 11.0622 26.4265 11.2337 26.6118C11.4139 26.779 11.5581 26.9817 11.6574 27.2073C11.7567 27.4329 11.8089 27.6767 11.8108 27.9235C11.8049 28.1787 11.7478 28.4302 11.6429 28.6626C11.5379 28.895 11.3873 29.1035 11.2001 29.2757L8.62334 31.8381L11.539 34.6541C11.7303 34.8279 11.8835 35.0401 11.9886 35.277C12.0938 35.5139 12.1486 35.7704 12.1497 36.0299Z" fill="white"/>
<path d="M14.5126 23.8227C14.3064 23.6377 14.1436 23.4089 14.0357 23.1529C13.9278 22.8969 13.8775 22.62 13.8885 22.342C13.8764 22.066 13.9263 21.7907 14.0343 21.5367C14.1423 21.2827 14.3058 21.0565 14.5126 20.8749C14.9864 20.492 15.5836 20.2983 16.1902 20.3306C16.7965 20.2999 17.3931 20.4934 17.8678 20.8749C18.0771 21.0549 18.243 21.2805 18.3529 21.5347C18.4628 21.7889 18.5137 22.065 18.5019 22.342C18.5129 22.62 18.4626 22.8969 18.3547 23.1529C18.2468 23.4089 18.0839 23.6377 17.8778 23.8227C17.4081 24.2145 16.8091 24.4136 16.2002 24.3805C15.5914 24.4133 14.9925 24.2142 14.5226 23.8227H14.5126ZM14.7105 37.578C14.5047 37.3997 14.3432 37.1754 14.2389 36.923C14.1346 36.6706 14.0905 36.3971 14.1099 36.1244V27.9773C14.0905 27.7046 14.1346 27.4311 14.2389 27.1787C14.3432 26.9263 14.5047 26.702 14.7105 26.5237C15.1444 26.2073 15.6663 26.0369 16.2019 26.0369C16.7375 26.0369 17.2594 26.2073 17.6933 26.5237C17.8991 26.702 18.0606 26.9263 18.1649 27.1787C18.2692 27.4311 18.3133 27.7046 18.2939 27.9773V36.1244C18.3133 36.3971 18.2692 36.6706 18.1649 36.923C18.0606 37.1754 17.8991 37.3997 17.6933 37.578C17.2594 37.8944 16.7375 38.0648 16.2019 38.0648C15.6663 38.0648 15.1444 37.8944 14.7105 37.578Z" fill="white"/>
<path d="M32.418 21.6356C32.6106 21.8025 32.7641 22.0104 32.8673 22.2442C32.9706 22.478 33.0211 22.732 33.0153 22.9879V36.1076C33.0284 36.3712 32.9848 36.6345 32.8875 36.8796C32.7902 37.1246 32.6415 37.3456 32.4516 37.5274C32.036 37.8898 31.4974 38.0763 30.9485 38.048C30.4367 38.0742 29.9324 37.916 29.5259 37.6018C29.3415 37.4455 29.1912 37.2525 29.0844 37.035C28.9776 36.8174 28.9166 36.5799 28.9051 36.3375C28.5586 36.9035 28.0562 37.3557 27.4591 37.639C26.7066 37.9952 25.8772 38.1546 25.0475 38.1026C24.2177 38.0506 23.4143 37.7889 22.7115 37.3415C21.9149 36.8052 21.2837 36.0544 20.8896 35.1746C20.4307 34.174 20.2014 33.0821 20.2185 31.98C20.1947 30.8907 20.4161 29.81 20.8661 28.8192C21.2546 27.9588 21.8829 27.2306 22.6745 26.7233C23.4755 26.2263 24.4014 25.9717 25.3419 25.9897C26.0448 25.9813 26.7404 26.1351 27.3752 26.4394C27.9537 26.7072 28.4524 27.1233 28.8213 27.6462V22.9338C28.8108 22.6857 28.8546 22.4384 28.9497 22.2094C29.0448 21.9803 29.1888 21.7752 29.3715 21.6086C29.7905 21.2591 30.3248 21.0816 30.8679 21.1117C31.4317 21.0834 31.9853 21.2706 32.418 21.6356ZM28.318 34.2044C28.7478 33.5644 28.9544 32.7985 28.9051 32.0273C28.9549 31.2666 28.748 30.5114 28.318 29.8841C28.1038 29.6514 27.8442 29.4659 27.5556 29.3389C27.2669 29.212 26.9553 29.1465 26.6404 29.1465C26.3254 29.1465 26.0139 29.212 25.7252 29.3389C25.4365 29.4659 25.177 29.6514 24.9628 29.8841C24.5328 30.4973 24.3255 31.241 24.3756 31.9901C24.3274 32.7701 24.5374 33.5441 24.9729 34.1909C25.1664 34.4458 25.4181 34.6499 25.7067 34.7858C25.9952 34.9218 26.3121 34.9856 26.6303 34.9718C26.9523 34.9915 27.2743 34.9331 27.5692 34.8013C27.864 34.6695 28.1231 34.4683 28.3247 34.2145" fill="white"/>
<path d="M46.0346 36.3607C46.0346 37.4018 45.4106 37.9224 44.1557 37.9224H36.7542C36.507 37.933 36.2603 37.8922 36.0294 37.8026C35.7986 37.7131 35.5884 37.5767 35.4121 37.4018C35.2455 37.2394 35.1138 37.0443 35.0249 36.8286C34.936 36.6129 34.892 36.3812 34.8954 36.1477C34.9013 35.6077 35.1113 35.0903 35.4825 34.7008L40.418 29.3731H36.6367C35.3819 29.3731 34.7578 28.8525 34.7578 27.8114C34.7578 26.7702 35.3819 26.2732 36.6367 26.2732H43.7565C44.0037 26.2623 44.2505 26.3029 44.4814 26.3925C44.7123 26.4821 44.9224 26.6187 45.0985 26.7938C45.2667 26.957 45.3992 27.1537 45.4876 27.3714C45.576 27.5891 45.6183 27.823 45.6119 28.0581C45.6027 28.5888 45.3941 29.0962 45.0281 29.4779L40.0691 34.8191H44.1557C45.4106 34.8191 46.0346 35.333 46.0346 36.3607Z" fill="white"/>
<path d="M57.7375 36.4795C57.7519 36.7232 57.7006 36.9662 57.5889 37.1829C57.4773 37.3995 57.3095 37.5817 57.1034 37.71C56.5493 38.0069 55.9179 38.1249 55.295 38.0481L54.6239 38.0007C53.2147 37.8903 52.1455 37.4599 51.4163 36.7094C50.6871 35.9589 50.3248 34.911 50.3293 33.5655V29.3737H49.6582C48.4034 29.3737 47.7793 28.8531 47.7793 27.8119C47.7793 26.7707 48.4034 26.2738 49.6582 26.2738H50.3293V24.7356C50.3166 24.4701 50.3604 24.2049 50.4576 23.9577C50.5548 23.7105 50.7032 23.4871 50.8929 23.3023C51.3284 22.9566 51.8668 22.7686 52.4212 22.7686C52.9757 22.7686 53.514 22.9566 53.9495 23.3023C54.1392 23.4871 54.2876 23.7105 54.3848 23.9577C54.482 24.2049 54.5258 24.4701 54.5132 24.7356V26.2738H55.8049C57.0598 26.2738 57.6839 26.7876 57.6839 27.8119C57.6839 28.8362 57.0598 29.3737 55.8049 29.3737H54.5132V33.9205C54.5051 34.1979 54.601 34.4682 54.7816 34.6777C54.8676 34.7797 54.9738 34.8625 55.0934 34.9207C55.213 34.9789 55.3434 35.0113 55.4761 35.0158L56.1472 35.0631C57.1985 35.1262 57.723 35.6006 57.7208 36.4863" fill="white"/>
<path d="M60.099 23.8225C59.8938 23.6368 59.7319 23.4079 59.6246 23.1519C59.5173 22.896 59.4673 22.6194 59.4783 22.3418C59.4665 22.0661 59.5161 21.7912 59.6235 21.5373C59.731 21.2835 59.8934 21.057 60.099 20.8747C60.5872 20.5194 61.1742 20.3281 61.7766 20.3281C62.3789 20.3281 62.9659 20.5194 63.4542 20.8747C63.6639 21.0545 63.8303 21.28 63.9408 21.5342C64.0512 21.7884 64.1028 22.0646 64.0917 22.3418C64.1026 22.6197 64.0524 22.8966 63.9445 23.1527C63.8365 23.4087 63.6737 23.6374 63.4676 23.8225C62.9815 24.1832 62.3937 24.3778 61.79 24.3778C61.1863 24.3778 60.5984 24.1832 60.1124 23.8225H60.099ZM60.3036 37.5778C60.0972 37.4 59.9353 37.1758 59.8309 36.9233C59.7266 36.6707 59.6828 36.3969 59.7031 36.1241V27.9771C59.6828 27.7043 59.7266 27.4305 59.8309 27.178C59.9353 26.9254 60.0972 26.7012 60.3036 26.5235C60.7375 26.207 61.2594 26.0367 61.795 26.0367C62.3306 26.0367 62.8526 26.207 63.2864 26.5235C63.4916 26.7021 63.6525 26.9265 63.7562 27.1789C63.8599 27.4313 63.9035 27.7047 63.8836 27.9771V36.1241C63.9035 36.3966 63.8599 36.6699 63.7562 36.9223C63.6525 37.1747 63.4916 37.3992 63.2864 37.5778C62.8526 37.8942 62.3306 38.0646 61.795 38.0646C61.2594 38.0646 60.7375 37.8942 60.3036 37.5778Z" fill="white"/>
<path d="M83.5185 27.1391C84.2074 27.9031 84.5519 29.1933 84.5519 31.0098V36.1245C84.5713 36.3969 84.5274 36.6701 84.4237 36.9224C84.32 37.1747 84.1595 37.3992 83.9547 37.5781C83.5201 37.8944 82.9977 38.0646 82.4616 38.0646C81.9256 38.0646 81.4031 37.8944 80.9686 37.5781C80.7628 37.3999 80.6013 37.1756 80.497 36.9231C80.3927 36.6707 80.3485 36.3972 80.368 36.1245V30.9151C80.368 30.283 80.2606 29.8401 80.0325 29.5866C79.9093 29.4562 79.7592 29.3547 79.5928 29.2892C79.4264 29.2238 79.2478 29.1961 79.0695 29.208C78.8197 29.1987 78.571 29.2475 78.3429 29.3507C78.1148 29.4539 77.9134 29.6086 77.7543 29.8029C77.4029 30.272 77.2303 30.8526 77.2678 31.4391V36.1279C77.2871 36.3993 77.2441 36.6716 77.1423 36.9236C77.0405 37.1757 76.8825 37.4008 76.6806 37.5815C76.2443 37.8981 75.7202 38.0685 75.1825 38.0685C74.6448 38.0685 74.1207 37.8981 73.6844 37.5815C73.4786 37.4033 73.3171 37.1789 73.2128 36.9265C73.1085 36.6741 73.0644 36.4006 73.0838 36.1279V30.9151C73.1267 30.4466 73.0083 29.9775 72.7483 29.5866C72.6271 29.4584 72.4797 29.3582 72.3164 29.2929C72.1531 29.2275 71.9776 29.1986 71.8022 29.208C71.5536 29.1979 71.3062 29.2464 71.0796 29.3497C70.8531 29.453 70.6535 29.6082 70.497 29.8029C70.1471 30.2729 69.9735 30.8525 70.0071 31.4391V36.1279C70.0266 36.4006 69.9824 36.6741 69.8781 36.9265C69.7738 37.1789 69.6123 37.4033 69.4065 37.5815C68.9727 37.8979 68.4508 38.0683 67.9152 38.0683C67.3795 38.0683 66.8576 37.8979 66.4238 37.5815C66.2174 37.4038 66.0554 37.1795 65.9511 36.927C65.8467 36.6744 65.8029 36.4007 65.8232 36.1279V27.9301C65.8054 27.6636 65.8516 27.3966 65.9579 27.1518C66.0642 26.907 66.2274 26.6916 66.4338 26.5238C66.8632 26.1893 67.3944 26.0149 67.937 26.0303C68.4315 26.0126 68.9172 26.1666 69.3126 26.4664C69.4983 26.6194 69.6469 26.8131 69.7469 27.0329C69.8469 27.2526 69.8958 27.4924 69.8897 27.7341C70.6547 26.5667 71.829 25.983 73.4127 25.983C75.0903 25.983 76.2087 26.6692 76.7678 28.0417C77.1566 27.4133 77.6982 26.8955 78.3414 26.5374C79.0253 26.1618 79.7939 25.9708 80.5726 25.983C81.8409 25.983 82.8206 26.3661 83.5118 27.1323" fill="white"/>
<path d="M97.1108 34.6064C97.3484 34.9274 97.467 35.322 97.4464 35.7219C97.449 36.0261 97.3639 36.3245 97.2013 36.5808C97.0386 36.8371 96.8056 37.0402 96.5304 37.1654C95.9262 37.4602 95.2916 37.6869 94.6381 37.8415C93.9805 38.0146 93.3045 38.1066 92.6249 38.1153C91.4647 38.1418 90.3147 37.8904 89.2697 37.3818C88.3415 36.9162 87.5726 36.1816 87.062 35.2723C86.5276 34.2868 86.2603 33.1768 86.287 32.0541C86.269 30.9622 86.524 29.8834 87.0285 28.917C87.5004 28.0151 88.2173 27.2671 89.0953 26.7602C90.0091 26.2419 91.043 25.9771 92.0915 25.9928C93.0916 25.9687 94.0798 26.215 94.9535 26.7061C95.7659 27.1823 96.4224 27.8873 96.8424 28.7344C97.307 29.679 97.5373 30.723 97.5135 31.7769C97.5332 32.0783 97.4451 32.3769 97.2652 32.6186C97.1761 32.7192 97.0655 32.798 96.9416 32.8489C96.8178 32.8999 96.684 32.9217 96.5505 32.9127H90.3333C90.3751 33.527 90.6333 34.1061 91.0614 34.5455C91.5417 34.9118 92.1384 35.0885 92.739 35.0424C93.1031 35.0469 93.4663 35.0038 93.8194 34.914C94.1948 34.8112 94.5644 34.6882 94.9266 34.5455C95.1615 34.4509 95.393 34.3697 95.6178 34.2987C95.8193 34.2316 96.0296 34.1952 96.2418 34.1906C96.4113 34.1866 96.5794 34.2231 96.7322 34.2971C96.885 34.3712 97.0182 34.4806 97.1209 34.6165L97.1108 34.6064ZM90.897 29.3632C90.5347 29.7997 90.3279 30.346 90.3099 30.9148H94.0006C93.9033 29.5255 93.3094 28.8291 92.2123 28.8291C91.9679 28.8186 91.7242 28.8609 91.4974 28.953C91.2706 29.0451 91.0659 29.185 90.897 29.3632Z" fill="white"/>
<path d="M103.25 19.2448C105.022 19.1118 106.315 19.2899 107.129 19.7789C107.943 20.268 108.333 21.3272 108.3 22.9566C108.208 24.806 107.778 26.6224 107.032 28.3147C106.43 29.8344 105.734 31.3146 104.948 32.7465C104.653 33.2536 104.351 33.5173 104.035 33.5443C103.707 33.5664 103.383 33.4612 103.129 33.2502C102.82 33.0069 102.551 32.7146 102.334 32.3848C102.096 32.0468 101.898 31.7087 101.751 31.4619C101.415 30.9008 101.137 29.9542 100.922 28.6358C100.699 27.304 100.61 25.9528 100.657 24.6029C100.683 23.3595 100.909 22.1287 101.328 20.9587C101.719 19.895 102.359 19.3316 103.247 19.2684" fill="white"/>
<path d="M103.34 39.5787L102.827 38.7876C102.784 38.7226 102.727 38.669 102.659 38.6313C102.591 38.5936 102.515 38.573 102.438 38.5713L101.502 38.551C101.413 38.5501 101.326 38.5239 101.251 38.4755C101.176 38.427 101.116 38.3582 101.078 38.2769C101.04 38.1957 101.026 38.1054 101.037 38.0163C101.048 37.9272 101.083 37.8431 101.139 37.7735L101.727 37.0331C101.774 36.9725 101.807 36.9012 101.821 36.8254C101.836 36.7495 101.832 36.6712 101.81 36.597L101.542 35.6877C101.517 35.6022 101.516 35.5113 101.54 35.4253C101.563 35.3394 101.61 35.2617 101.675 35.201C101.739 35.1403 101.82 35.0989 101.907 35.0816C101.993 35.0643 102.083 35.0716 102.166 35.1029L103.045 35.4409C103.117 35.4676 103.195 35.4766 103.271 35.4672C103.348 35.4578 103.421 35.4302 103.485 35.3868L104.256 34.8493C104.329 34.7991 104.415 34.7703 104.503 34.7661C104.591 34.762 104.679 34.7826 104.756 34.8258C104.833 34.8689 104.897 34.9328 104.94 35.0104C104.984 35.088 105.005 35.1762 105.001 35.2651L104.954 36.2083C104.951 36.2862 104.966 36.3637 104.999 36.4344C105.031 36.505 105.081 36.5666 105.142 36.6139L105.89 37.1853C105.961 37.2396 106.015 37.3128 106.047 37.3966C106.078 37.4804 106.086 37.5714 106.069 37.6593C106.052 37.7473 106.011 37.8287 105.95 37.8942C105.889 37.9598 105.812 38.007 105.726 38.0304L104.823 38.2805C104.747 38.2996 104.676 38.3374 104.618 38.3904C104.559 38.4435 104.515 38.5102 104.488 38.5848L104.179 39.4772C104.15 39.562 104.098 39.6367 104.028 39.6931C103.959 39.7494 103.876 39.7851 103.787 39.796C103.699 39.8069 103.609 39.7926 103.528 39.7548C103.448 39.717 103.379 39.6571 103.33 39.582" fill="white"/>
<path d="M171.244 27.8047C171.244 33.3041 169.625 38.68 166.593 43.2525C163.56 47.825 159.25 51.3888 154.207 53.4932C149.164 55.5975 143.616 56.148 138.262 55.0748C132.909 54.0017 127.992 51.3532 124.132 47.4644C120.273 43.5755 117.645 38.6208 116.581 33.227C115.516 27.8332 116.063 22.2425 118.152 17.1619C120.242 12.0814 123.779 7.7391 128.318 4.68429C132.857 1.62948 138.192 -0.000668413 143.651 2.05597e-07C147.275 1.78605e-07 150.863 0.719214 154.211 2.11657C157.559 3.51393 160.601 5.56206 163.163 8.14401C165.725 10.726 167.758 13.7911 169.144 17.1645C170.531 20.5379 171.244 24.1535 171.244 27.8047Z" fill="white"/>
<path d="M171.787 28.6426C171.787 34.1424 170.168 39.5187 167.135 44.0914C164.102 48.6642 159.791 52.228 154.748 54.332C149.705 56.4361 144.155 56.9859 138.802 55.912C133.448 54.838 128.531 52.1886 124.672 48.2987C120.813 44.4087 118.186 39.4532 117.122 34.0587C116.059 28.6642 116.608 23.0732 118.698 17.9928C120.789 12.9124 124.328 8.57084 128.868 5.51725C133.408 2.46366 138.745 0.835219 144.204 0.837894C151.52 0.842375 158.535 3.77366 163.708 8.98746C168.88 14.2013 171.786 21.2709 171.787 28.6426Z" fill="#181743"/>
<path d="M138.462 42.4893L137.16 42.0634C136.363 41.8037 135.595 41.4568 134.872 41.0289C134.155 40.6048 133.487 40.1002 132.883 39.5246C131.955 38.6829 131.246 37.6257 130.816 36.445C130.631 35.6971 130.518 34.9329 130.48 34.1631C130.143 30.0081 130.388 25.8259 131.208 21.7398L133.114 12.1898C133.159 11.8748 133.119 11.5533 132.996 11.26C132.873 10.9667 132.673 10.7127 132.417 10.5255C132.162 10.3383 131.86 10.225 131.546 10.1978C131.231 10.1706 130.915 10.2305 130.631 10.3711C128.453 11.4559 126.746 13.3101 125.837 15.5805C125.619 16.1279 125.45 16.6935 125.33 17.2707C124.139 21.5065 121.505 32.6385 124.78 38.6964L124.847 38.8181C125.624 40.874 126.864 42.7198 128.471 44.21C129.426 45.1152 130.479 45.909 131.611 46.5764C132.738 47.2457 133.936 47.7876 135.181 48.1922L138.201 49.1726C138.781 49.3621 139.413 49.3116 139.956 49.032C140.5 48.7524 140.911 48.2667 141.099 47.6818C141.266 47.1653 141.329 46.6208 141.287 46.0795C141.244 45.5382 141.096 45.0107 140.85 44.5272C140.605 44.0437 140.268 43.6136 139.857 43.2616C139.447 42.9096 138.972 42.6426 138.459 42.4758" fill="white"/>
<path d="M145.528 5.35162C139.529 4.71608 136.422 7.56247 134.792 13.9313C134.678 14.3607 134.574 14.8103 134.476 15.2836C132.923 22.5922 132.01 32.8622 133.698 36.3881C134.347 37.8177 135.464 38.979 136.862 39.6773L136.936 39.7145C137.112 39.803 137.308 39.8471 137.505 39.8428C137.702 39.8386 137.895 39.7861 138.068 39.69C138.24 39.5939 138.387 39.457 138.496 39.2911C138.604 39.1252 138.671 38.9352 138.691 38.7375L139.207 33.6059C139.262 33.0654 139.503 32.5613 139.889 32.1814C140.274 31.8016 140.78 31.57 141.318 31.5269L141.831 31.4863C142.065 31.4668 142.301 31.4972 142.523 31.5755C142.745 31.6539 142.949 31.7784 143.12 31.9409C143.291 32.1035 143.426 32.3006 143.517 32.5193C143.608 32.738 143.652 32.9734 143.646 33.2104L143.395 44.623C143.39 44.8787 143.444 45.1321 143.553 45.3631C143.662 45.5942 143.822 45.7967 144.022 45.9546C144.221 46.1125 144.455 46.2216 144.703 46.2733C144.952 46.325 145.209 46.3178 145.455 46.2524L145.79 46.1611C146.885 45.8675 147.857 45.2249 148.559 44.3293C149.262 43.4337 149.658 42.333 149.689 41.1918L150.169 23.2311L150.357 16.274C150.165 11.4196 149.159 5.737 145.532 5.355L145.528 5.35162ZM144.988 11.7205L144.149 23.0689C143.998 25.0972 142.26 26.6792 140.123 26.7401C139.927 26.7463 139.734 26.6871 139.574 26.5715C139.415 26.456 139.298 26.2907 139.241 26.1012C139.21 25.9912 139.203 25.876 139.221 25.7631L139.258 25.54C139.657 12.5014 141.737 11.396 141.737 11.396C141.937 11.109 142.196 10.8681 142.496 10.6892C142.795 10.5103 143.129 10.3975 143.475 10.3582C143.666 10.3314 143.861 10.3465 144.045 10.4024C144.23 10.4583 144.401 10.5536 144.546 10.6819C144.691 10.8103 144.806 10.9686 144.885 11.146C144.964 11.3235 145.003 11.516 145.002 11.7104" fill="white"/>
<path d="M163.295 28.6054C162.801 28.3654 162.392 28.1423 162.053 27.9293C161.616 27.6728 161.287 27.2648 161.126 26.7815C160.966 26.2982 160.985 25.7726 161.181 25.3027C161.768 23.893 162.248 22.6557 162.506 21.9729C162.658 21.5754 162.748 21.1571 162.775 20.7322C163.308 12.2641 156.608 8.36295 153.846 8.63001C151.011 8.90383 151.162 12.6866 151.162 12.6866C151.562 14.1402 151.052 38.2433 151.018 42.7292C150.984 47.2151 152.907 47.7154 152.907 47.7154C158.352 49.311 161.795 42.0362 163.781 38.081C165.767 34.1258 165.559 29.7075 163.285 28.5953L163.295 28.6054ZM155.839 13.4506C160.275 14.1774 158.893 19.5761 158.081 21.6889C157.269 23.8017 155.568 24.2074 155.031 23.4873C154.494 22.7673 154.192 13.9104 154.192 13.9104C154.155 12.9368 155.839 13.4506 155.839 13.4506ZM157.577 41.1099C155.192 42.6582 155.527 40.8361 155.527 40.8361L155.366 31.5735C155.366 31.0732 155.863 28.8961 158.587 31.2997C161.312 33.7032 159.963 39.5617 157.581 41.1032" fill="white"/>
<path d="M142.456 56.3898C141.465 56.329 140.479 56.2161 139.5 56.0518C139.107 56.301 138.744 56.5936 138.416 56.9239C139.068 57.4605 139.782 57.9146 140.543 58.2761C141.399 57.9255 142.085 57.2524 142.456 56.3999" fill="#EFEFED"/>
<path d="M142.738 54.7002C141.584 54.9435 140.486 55.4022 139.5 56.0524C140.479 56.2168 141.465 56.3296 142.456 56.3905C142.649 55.9436 142.748 55.4614 142.748 54.974C142.748 54.8827 142.748 54.7915 142.748 54.7002" fill="#EFEFED"/>
<path d="M139.5 56.0424C133.801 55.0466 128.555 52.2729 124.505 48.1127C120.454 43.9525 117.802 38.6157 116.923 32.8555H116.845C116.276 32.856 115.715 32.9952 115.211 33.2614C114.707 33.5275 114.274 33.9126 113.949 34.3838C113.624 34.8551 113.418 35.3985 113.346 35.9676C113.275 36.5368 113.342 37.1148 113.541 37.6524C112.776 38.315 112.231 39.1974 111.979 40.1813C111.727 41.1651 111.78 42.203 112.131 43.1557C112.481 44.1083 113.113 44.9299 113.941 45.5101C114.769 46.0903 115.753 46.4013 116.762 46.4012C117.17 46.4006 117.577 46.3495 117.973 46.249C118.132 46.7003 118.372 47.1184 118.681 47.4829C117.931 48.3183 117.501 49.3957 117.469 50.5215C117.437 51.6474 117.805 52.7479 118.506 53.6252C119.207 54.5026 120.195 55.0993 121.294 55.3081C122.392 55.5169 123.529 55.3242 124.499 54.7645C125.242 55.6483 126.282 56.2267 127.42 56.3899C128.559 56.5531 129.717 56.29 130.676 55.6502C130.797 56.3617 131.105 57.0274 131.569 57.5774C132.034 58.1274 132.636 58.5416 133.313 58.7766C133.991 59.0116 134.718 59.0588 135.42 58.9132C136.122 58.7676 136.772 58.4346 137.302 57.949C137.778 58.2589 138.321 58.4492 138.885 58.5039C139.449 58.5587 140.017 58.4761 140.543 58.2634C139.782 57.9018 139.068 57.4477 138.416 56.9112C138.744 56.5808 139.107 56.2883 139.5 56.039" fill="#AADFF3"/>
<path d="M169.518 39.8363C166.351 47.6656 157.024 56.4549 144.203 56.4549C143.616 56.4549 143.033 56.4346 142.455 56.4008C142.085 57.2533 141.399 57.9264 140.543 58.277C145.207 60.4574 148.575 56.9248 148.575 56.9248C162.234 55.8194 173.115 42.1655 178.299 28.6807C177.49 29.6948 171.079 38.6937 169.518 39.8363Z" fill="#AADFF3"/>
<path d="M132.775 51.722C132.775 52.658 132.5 53.573 131.984 54.3513C131.468 55.1296 130.734 55.7362 129.876 56.0944C129.017 56.4526 128.073 56.5464 127.162 56.3637C126.251 56.1811 125.414 55.7304 124.757 55.0685C124.1 54.4066 123.652 53.5633 123.471 52.6453C123.29 51.7272 123.383 50.7756 123.738 49.9108C124.094 49.046 124.696 48.3069 125.468 47.7869C126.241 47.2668 127.149 46.9893 128.078 46.9893C129.324 46.9893 130.519 47.4879 131.4 48.3754C132.28 49.263 132.775 50.4668 132.775 51.722Z" fill="#AADFF3"/>
<path d="M138.607 54.9734C138.607 55.7698 138.373 56.5482 137.934 57.2103C137.495 57.8724 136.871 58.3884 136.14 58.6932C135.41 58.9979 134.607 59.0776 133.832 58.9223C133.057 58.7669 132.344 58.3835 131.786 57.8204C131.227 57.2573 130.846 56.5399 130.692 55.7589C130.538 54.9779 130.617 54.1684 130.919 53.4327C131.222 52.697 131.734 52.0682 132.391 51.6258C133.048 51.1834 133.821 50.9473 134.611 50.9473C135.136 50.9473 135.656 51.0514 136.14 51.2537C136.625 51.4561 137.066 51.7526 137.437 52.1265C137.808 52.5004 138.102 52.9442 138.303 53.4327C138.504 53.9212 138.607 54.4447 138.607 54.9734Z" fill="#AADFF3"/>
<path d="M142.744 54.9738C142.744 55.6765 142.537 56.3634 142.15 56.9477C141.762 57.532 141.212 57.9874 140.567 58.2563C139.923 58.5252 139.214 58.5955 138.53 58.4585C137.846 58.3214 137.217 57.983 136.724 57.4861C136.231 56.9892 135.895 56.3561 135.759 55.6669C135.623 54.9778 135.693 54.2634 135.96 53.6142C136.227 52.965 136.679 52.4101 137.259 52.0197C137.838 51.6293 138.52 51.4209 139.218 51.4209C140.153 51.4209 141.05 51.7952 141.711 52.4615C142.373 53.1278 142.744 54.0315 142.744 54.9738Z" fill="#AADFF3"/>
<path d="M145.189 54.9267C145.189 55.301 145.078 55.6667 144.871 55.9776C144.664 56.2884 144.371 56.5305 144.027 56.6733C143.684 56.8161 143.306 56.8531 142.942 56.7797C142.578 56.7062 142.243 56.5257 141.981 56.2608C141.718 55.9959 141.54 55.6586 141.467 55.2914C141.395 54.9243 141.433 54.5439 141.575 54.1981C141.717 53.8524 141.958 53.5569 142.267 53.3491C142.576 53.1412 142.939 53.0303 143.311 53.0303C143.558 53.0303 143.802 53.0794 144.03 53.1747C144.259 53.27 144.466 53.4098 144.64 53.5859C144.815 53.7621 144.953 53.9712 145.047 54.2013C145.142 54.4313 145.19 54.6779 145.189 54.9267Z" fill="#AADFF3"/>
<path d="M148.2 55.3527C148.2 55.8122 148.065 56.2613 147.811 56.6433C147.558 57.0253 147.198 57.323 146.776 57.4986C146.355 57.6743 145.891 57.7201 145.444 57.6302C144.997 57.5403 144.586 57.3188 144.264 56.9937C143.942 56.6685 143.722 56.2544 143.634 55.8037C143.545 55.353 143.591 54.8859 143.766 54.4616C143.941 54.0373 144.237 53.6748 144.617 53.42C144.996 53.1652 145.442 53.0296 145.898 53.0303C146.201 53.0303 146.5 53.0904 146.78 53.2071C147.059 53.3239 147.313 53.495 147.527 53.7107C147.741 53.9264 147.91 54.1824 148.026 54.4642C148.141 54.7459 148.2 55.0479 148.2 55.3527Z" fill="#AADFF3"/>
<path d="M149.799 55.0209C149.799 55.2837 149.722 55.5405 149.577 55.759C149.432 55.9775 149.226 56.1478 148.985 56.2483C148.744 56.3489 148.479 56.3752 148.223 56.3239C147.968 56.2727 147.733 56.1461 147.548 55.9603C147.364 55.7745 147.238 55.5378 147.187 55.2801C147.137 55.0224 147.163 54.7553 147.262 54.5125C147.362 54.2698 147.531 54.0623 147.748 53.9163C147.965 53.7703 148.22 53.6924 148.481 53.6924C148.83 53.6924 149.166 53.8324 149.413 54.0815C149.66 54.3306 149.799 54.6686 149.799 55.0209Z" fill="#AADFF3"/>
<path d="M150.927 55.5892C150.927 55.7577 150.878 55.9224 150.785 56.0625C150.692 56.2026 150.56 56.3118 150.405 56.3762C150.251 56.4407 150.081 56.4576 149.917 56.4247C149.753 56.3918 149.602 56.3107 149.484 56.1916C149.366 56.0724 149.285 55.9206 149.253 55.7554C149.22 55.5901 149.237 55.4188 149.301 55.2632C149.365 55.1075 149.473 54.9745 149.612 54.8809C149.751 54.7873 149.915 54.7373 150.082 54.7373C150.306 54.7373 150.521 54.8271 150.68 54.9868C150.838 55.1466 150.927 55.3633 150.927 55.5892Z" fill="#AADFF3"/>
<path d="M152.149 55.6367C152.149 55.7771 152.108 55.9143 152.031 56.0311C151.953 56.1478 151.843 56.2388 151.714 56.2925C151.586 56.3463 151.444 56.3603 151.307 56.3329C151.171 56.3055 151.045 56.2379 150.947 56.1386C150.848 56.0394 150.781 55.9129 150.754 55.7752C150.727 55.6375 150.741 55.4947 150.794 55.365C150.847 55.2353 150.938 55.1244 151.053 55.0464C151.169 54.9684 151.305 54.9268 151.445 54.9268C151.632 54.9268 151.811 55.0016 151.943 55.1347C152.075 55.2678 152.149 55.4484 152.149 55.6367Z" fill="#AADFF3"/>
<path d="M130.112 55.1024L129.991 55.1768L129.873 55.2444L129.675 55.3492L129.555 55.4067L129.394 55.4743L129.28 55.5182C129.206 55.5487 129.132 55.5757 129.055 55.5994L128.954 55.6298L128.753 55.6839L128.649 55.7075L128.394 55.7549H128.327L128.075 55.7853H127.984C127.887 55.7853 127.79 55.7853 127.689 55.7853H127.441H127.401H127.189H127.146L126.941 55.7583H126.901C126.834 55.7583 126.763 55.7346 126.696 55.7177H126.666L126.448 55.6636C125.586 55.4153 124.817 54.9153 124.237 54.2269C123.606 54.5921 122.897 54.7994 122.17 54.8317C121.443 54.8639 120.719 54.7199 120.059 54.412C119.399 54.104 118.821 53.641 118.376 53.0618C117.93 52.4825 117.628 51.804 117.496 51.083C117.56 51.8777 117.823 52.6432 118.259 53.3083C118.696 53.9735 119.292 54.5167 119.993 54.8877C120.693 55.2586 121.475 55.4452 122.267 55.4302C123.058 55.4151 123.832 55.1989 124.519 54.8016C125.118 55.5136 125.913 56.0311 126.803 56.289L127.028 56.3465H127.058L127.273 56.3904H127.313L127.525 56.4208H127.572C127.642 56.4208 127.716 56.4208 127.786 56.4411H127.833H128.092H128.394H128.488L128.746 56.4141H128.817L129.078 56.3634L129.189 56.3363L129.394 56.2822L129.501 56.2518L129.733 56.1673L129.85 56.1233L130.014 56.0524L130.142 55.9915L130.343 55.8867L130.407 55.8495C130.312 55.605 130.242 55.3513 130.199 55.0923L130.115 55.143" fill="#8DD5E2"/>
<path d="M173.551 35.0392C167.918 45.8365 158.678 55.3797 147.529 56.2823C147.529 56.2823 144.264 59.7 139.748 57.5905L139.667 57.621H139.63L139.513 57.6615H139.473L139.352 57.6953H139.312L139.184 57.7224H139.151L139.006 57.746H138.983L138.822 57.7697C138.708 57.7697 138.594 57.7697 138.486 57.7697C138.408 57.7697 138.331 57.7697 138.255 57.7697H138.214C137.65 57.727 137.105 57.5409 136.631 57.2288C136.119 57.7006 135.489 58.0231 134.809 58.1618L134.628 58.1957C134.567 58.2071 134.505 58.215 134.443 58.2193H134.252H134.057H133.87H133.769H133.688H133.574H133.511L133.386 58.199H133.336L133.202 58.1686H133.172L133.024 58.1314C132.36 57.9452 131.758 57.5834 131.279 57.0835C131.808 57.9354 132.634 58.5575 133.594 58.8278L133.745 58.8684H133.779L133.916 58.8988H133.967L134.098 58.9225H134.161H134.279H134.366H134.467H134.661H134.863H135.061L135.252 58.8988C135.315 58.8911 135.378 58.8798 135.44 58.865C136.141 58.7196 136.79 58.3868 137.319 57.9015C137.809 58.2239 138.372 58.4169 138.956 58.4627H139H139.238C139.357 58.4639 139.475 58.4583 139.593 58.4458L139.761 58.4221H139.785L139.932 58.3951H139.969L140.1 58.3647H140.144L140.265 58.3309H140.308L140.429 58.2903H140.466L140.553 58.2565H140.577H140.556C145.22 60.4369 148.589 56.9043 148.589 56.9043C162.248 55.7989 173.129 42.145 178.312 28.6602C177.863 29.2146 175.682 32.2469 173.565 35.029L173.551 35.0392ZM140.815 58.1449L140.879 58.1111L140.815 58.1449Z" fill="#8DD5E2"/>
<path d="M117.768 39.0714C116.308 40.2884 114.906 41.5764 113.554 42.9185C112.197 44.2512 110.928 45.6718 109.756 47.1711C109.173 47.922 108.643 48.7127 108.169 49.5375C107.68 50.3517 107.332 51.2432 107.139 52.1743C107.046 52.6362 107.046 53.1119 107.139 53.5738C107.159 53.6888 107.206 53.7969 107.236 53.9119C107.266 54.0268 107.33 54.1215 107.38 54.2296C107.43 54.3378 107.498 54.4291 107.568 54.5237C107.638 54.6166 107.713 54.7058 107.793 54.7908C108.121 55.1257 108.511 55.3932 108.94 55.5785C109.05 55.6305 109.162 55.6767 109.276 55.7171L109.437 55.7813L109.605 55.8354L109.94 55.9402L110.276 56.0247C111.198 56.2287 112.137 56.342 113.081 56.3627C114.026 56.3881 114.973 56.3644 115.916 56.2917C117.8 56.1279 119.671 55.8263 121.512 55.3892C125.196 54.4981 128.816 53.3551 132.346 51.9681C135.886 50.6159 139.369 49.0946 142.804 47.4889C146.24 45.8832 149.646 44.1963 153.011 42.4418C159.758 38.9599 166.371 35.2143 172.88 31.2861V31.3098C171.276 32.3239 169.653 33.3212 168.025 34.3015C166.398 35.2819 164.754 36.2318 163.107 37.1784C159.81 39.0669 156.481 40.8992 153.122 42.6751C149.766 44.4329 146.351 46.1266 142.905 47.7255C139.459 49.3245 135.963 50.8187 132.41 52.1641C128.866 53.5378 125.234 54.6673 121.539 55.5447C119.694 55.9835 117.821 56.2874 115.932 56.454C114.985 56.525 114.034 56.5453 113.084 56.5149C112.13 56.4969 111.18 56.3837 110.249 56.1768L109.913 56.0889L109.578 55.9807L109.407 55.9267L109.239 55.859C109.132 55.8117 109.014 55.7745 108.903 55.7171C108.461 55.523 108.059 55.244 107.722 54.8956C107.635 54.8077 107.565 54.7063 107.487 54.615C107.41 54.5237 107.357 54.4088 107.293 54.304C107.229 54.1992 107.189 54.0843 107.145 53.966C107.102 53.8476 107.065 53.7327 107.041 53.6279C106.947 53.1503 106.947 52.6587 107.041 52.1811C107.242 51.2399 107.598 50.3394 108.095 49.5172C108.577 48.6931 109.114 47.9025 109.702 47.1509C110.885 45.6553 112.163 44.2382 113.527 42.9083C114.886 41.5561 116.295 40.2918 117.761 39.0816L117.768 39.0714Z" fill="#7BB9C4"/>
<path d="M117.767 41.1139C116.308 42.3309 114.905 43.6188 113.553 44.9575C112.198 46.2911 110.929 47.7116 109.755 49.2102C109.173 49.9616 108.643 50.7522 108.168 51.5766C107.68 52.3908 107.332 53.2823 107.138 54.2133C107.046 54.6764 107.046 55.1532 107.138 55.6163C107.158 55.7312 107.205 55.8394 107.235 55.9543C107.266 56.0692 107.329 56.1673 107.38 56.2721C107.43 56.3769 107.497 56.4715 107.568 56.5662C107.638 56.6591 107.713 56.7482 107.792 56.8332C108.122 57.1678 108.511 57.4362 108.94 57.6243C109.049 57.6752 109.161 57.7203 109.275 57.7595L109.437 57.8237L109.604 57.8778C109.718 57.9116 109.829 57.9522 109.94 57.9826L110.275 58.0671C111.197 58.2711 112.137 58.3844 113.08 58.4052C114.026 58.4306 114.972 58.4069 115.915 58.3342C117.8 58.1676 119.67 57.8648 121.512 57.4282C125.196 56.5371 128.816 55.3941 132.346 54.0071C135.886 52.6549 139.368 51.1337 142.804 49.528C146.24 47.9222 149.645 46.2387 153.01 44.4809C159.758 40.9989 166.371 37.2567 172.88 33.3252V33.3489C171.276 34.363 169.652 35.3569 168.025 36.3372C166.398 37.3176 164.754 38.2709 163.106 39.214C159.809 41.1026 156.481 42.936 153.121 44.7141C149.766 46.4686 146.35 48.1622 142.905 49.7646C139.459 51.367 135.963 52.8544 132.41 54.2032C128.866 55.5754 125.234 56.7048 121.539 57.5837C119.694 58.0191 117.82 58.3196 115.932 58.4829C114.984 58.5522 114.034 58.5725 113.084 58.5438C112.13 58.5241 111.18 58.4109 110.248 58.2057L109.913 58.1178L109.577 58.0097L109.406 57.9556L109.239 57.888C109.131 57.8406 109.014 57.8034 108.903 57.7494C108.461 57.5529 108.06 57.2729 107.722 56.9245C107.638 56.8357 107.56 56.742 107.487 56.6439C107.417 56.5459 107.356 56.4377 107.293 56.3363C107.229 56.2349 107.189 56.1166 107.145 55.9983C107.101 55.8799 107.064 55.7684 107.041 55.6602C106.947 55.1837 106.947 54.6933 107.041 54.2167C107.241 53.2745 107.598 52.3729 108.094 51.5495C108.577 50.7253 109.114 49.9348 109.702 49.1832C110.884 47.6868 112.161 46.2697 113.526 44.9406C114.885 43.6053 116.295 42.3241 117.761 41.1105L117.767 41.1139Z" fill="#7BB9C4"/>
<path d="M178.072 24.4004L170.257 27.2502C170.223 27.2672 170.196 27.2946 170.178 27.3286C170.161 27.3627 170.155 27.4014 170.161 27.4392C170.167 27.477 170.184 27.5118 170.212 27.5387C170.239 27.5655 170.274 27.5829 170.311 27.5883L172.539 27.6931C172.58 27.691 172.62 27.703 172.652 27.7271C172.685 27.7512 172.709 27.7858 172.72 27.8253C172.73 27.8648 172.727 27.9068 172.711 27.9442C172.694 27.9816 172.666 28.0123 172.63 28.0311L168.486 30.8707C168.449 30.8897 168.419 30.9212 168.402 30.9599C168.386 30.9986 168.383 31.042 168.395 31.0823C168.407 31.1227 168.433 31.1575 168.468 31.1806C168.503 31.2038 168.545 31.2137 168.587 31.2088H170.694C170.724 31.2092 170.753 31.2172 170.779 31.2321C170.805 31.2469 170.827 31.2681 170.842 31.2937C170.858 31.3193 170.867 31.3485 170.869 31.3786C170.87 31.4086 170.864 31.4386 170.851 31.4657L167.691 38.1557C167.674 38.1923 167.669 38.2337 167.679 38.2731C167.688 38.3124 167.71 38.3475 167.741 38.3726C167.773 38.3977 167.812 38.4113 167.852 38.4112C167.892 38.4111 167.931 38.3973 167.963 38.3721L173.026 34.3155C173.049 34.2964 173.077 34.2835 173.106 34.2782C173.136 34.2729 173.167 34.2752 173.195 34.285C173.224 34.2948 173.249 34.3117 173.269 34.3342C173.29 34.3567 173.304 34.384 173.311 34.4135L173.898 36.9421C173.902 36.9808 173.918 37.0171 173.943 37.0458C173.969 37.0745 174.004 37.0939 174.042 37.1011C174.08 37.1084 174.119 37.1031 174.153 37.086C174.188 37.0689 174.216 37.0409 174.233 37.0064L176.699 33.6259C176.716 33.6034 176.738 33.5853 176.763 33.5728C176.788 33.5602 176.816 33.5537 176.844 33.5537C176.872 33.5537 176.899 33.5602 176.924 33.5728C176.949 33.5853 176.971 33.6034 176.988 33.6259L178.095 35.093C178.112 35.1167 178.133 35.1361 178.159 35.1495C178.184 35.1628 178.212 35.1698 178.241 35.1698C178.27 35.1698 178.298 35.1628 178.324 35.1495C178.349 35.1361 178.371 35.1167 178.387 35.093L181.142 30.7558C181.157 30.7284 181.18 30.7056 181.207 30.6898C181.234 30.674 181.265 30.6656 181.296 30.6656C181.327 30.6656 181.358 30.674 181.385 30.6898C181.412 30.7056 181.435 30.7284 181.45 30.7558C181.752 31.3542 182.457 32.6489 182.645 32.1621C182.833 31.6753 183.162 29.2684 183.266 28.4435C183.269 28.4136 183.265 28.3832 183.254 28.3551C183.243 28.3271 183.225 28.3023 183.202 28.2831C183.179 28.2639 183.152 28.2508 183.122 28.2452C183.093 28.2396 183.063 28.2415 183.034 28.2508L180.984 28.8931C180.954 28.9031 180.922 28.9048 180.891 28.898C180.86 28.8911 180.831 28.8761 180.808 28.8543C180.784 28.8326 180.767 28.805 180.758 28.7744C180.749 28.7437 180.748 28.7112 180.756 28.6802C180.766 28.6419 180.764 28.6013 180.749 28.5646C180.734 28.528 180.707 28.4974 180.673 28.4777C180.639 28.458 180.599 28.4502 180.56 28.4557C180.521 28.4611 180.485 28.4794 180.457 28.5078L178.031 30.9012C178.002 30.931 177.963 30.9495 177.922 30.9534C177.88 30.9574 177.839 30.9465 177.805 30.9228C177.77 30.899 177.745 30.8639 177.734 30.8235C177.723 30.7831 177.726 30.74 177.743 30.7017L178.749 28.3354C178.765 28.2992 178.769 28.2588 178.759 28.2204C178.75 28.1821 178.728 28.1479 178.698 28.1232C178.667 28.0985 178.629 28.0847 178.59 28.084C178.551 28.0832 178.513 28.0955 178.481 28.119L176.515 29.5523C176.48 29.5842 176.434 29.6006 176.386 29.5981C176.339 29.5956 176.295 29.5742 176.263 29.5388C176.232 29.5034 176.215 29.4568 176.218 29.4093C176.22 29.3617 176.242 29.3171 176.277 29.2853L178.736 26.5031C178.759 26.4766 178.774 26.4436 178.779 26.4085C178.784 26.3734 178.778 26.3376 178.763 26.3058C178.747 26.274 178.723 26.2474 178.692 26.2296C178.662 26.2118 178.627 26.2034 178.592 26.2056L177.461 26.2766C177.427 26.2799 177.392 26.2729 177.361 26.2566C177.331 26.2403 177.306 26.2154 177.289 26.1849C177.272 26.1544 177.265 26.1197 177.267 26.0849C177.27 26.0502 177.282 26.0169 177.303 25.9893L178.276 24.6675C178.3 24.6368 178.312 24.5993 178.313 24.5607C178.313 24.5221 178.301 24.4844 178.278 24.4533C178.256 24.4221 178.224 24.3991 178.187 24.3878C178.15 24.3764 178.111 24.3773 178.075 24.3903" fill="#F8981D"/>
<path d="M183.02 28.2577L180.97 28.9C180.94 28.9099 180.908 28.9116 180.877 28.9048C180.846 28.898 180.817 28.8829 180.794 28.8612C180.771 28.8394 180.754 28.8118 180.744 28.7812C180.735 28.7506 180.735 28.7181 180.742 28.687C180.752 28.6487 180.75 28.6081 180.735 28.5715C180.72 28.5348 180.693 28.5043 180.659 28.4845C180.625 28.4648 180.585 28.4571 180.546 28.4625C180.507 28.468 180.471 28.4863 180.443 28.5146L178.018 30.908C177.988 30.9378 177.95 30.9563 177.908 30.9602C177.867 30.9642 177.825 30.9533 177.791 30.9296C177.756 30.9059 177.731 30.8707 177.72 30.8303C177.709 30.7899 177.712 30.7468 177.729 30.7085L178.736 28.3422C178.752 28.306 178.755 28.2656 178.746 28.2273C178.736 28.1889 178.715 28.1547 178.684 28.13C178.653 28.1053 178.616 28.0915 178.576 28.0908C178.537 28.09 178.499 28.1024 178.467 28.1258L176.501 29.5592C176.466 29.591 176.42 29.6075 176.373 29.6049C176.325 29.6024 176.281 29.5811 176.249 29.5457C176.218 29.5102 176.202 29.4636 176.204 29.4161C176.207 29.3685 176.228 29.3239 176.263 29.2921L178.722 26.51C178.746 26.4834 178.761 26.4505 178.765 26.4154C178.77 26.3802 178.764 26.3445 178.749 26.3126C178.733 26.2808 178.709 26.2543 178.678 26.2364C178.648 26.2186 178.613 26.2103 178.578 26.2125L177.447 26.2835C177.413 26.2853 177.38 26.2774 177.35 26.2608C177.32 26.2442 177.296 26.2195 177.279 26.1895C177.263 26.1595 177.255 26.1255 177.257 26.0913C177.259 26.0571 177.27 26.0241 177.29 25.9961L178.263 24.6743C178.286 24.6436 178.299 24.6062 178.299 24.5675C178.299 24.5289 178.287 24.4912 178.265 24.4601C178.242 24.4289 178.21 24.406 178.173 24.3946C178.137 24.3833 178.097 24.3842 178.061 24.3971L174.807 25.6006L172.005 27.5241C171.979 27.5405 171.957 27.5642 171.944 27.5923C171.93 27.6204 171.925 27.6519 171.928 27.683L172.545 27.7134C172.585 27.715 172.622 27.7298 172.652 27.7556C172.682 27.7814 172.702 27.8165 172.71 27.8554H174.21C174.239 27.8561 174.269 27.8643 174.294 27.8791C174.32 27.8939 174.342 27.915 174.358 27.9404C174.374 27.9658 174.384 27.9948 174.386 28.0248C174.388 28.0548 174.383 28.0849 174.371 28.1123L171.203 34.8192C171.185 34.856 171.179 34.8981 171.187 34.9385C171.196 34.9789 171.218 35.015 171.25 35.0409C171.282 35.0667 171.322 35.0807 171.363 35.0803C171.404 35.08 171.444 35.0654 171.475 35.039L176.538 30.9824C176.562 30.9641 176.59 30.9522 176.62 30.9475C176.649 30.9429 176.679 30.9457 176.708 30.9558C176.736 30.9658 176.761 30.9828 176.781 31.0051C176.802 31.0274 176.816 31.0545 176.823 31.0838L177.41 33.609C177.413 33.6479 177.429 33.6847 177.455 33.7139C177.48 33.743 177.515 33.7629 177.553 33.7706C177.591 33.7782 177.63 33.7732 177.665 33.7562C177.7 33.7393 177.728 33.7113 177.746 33.6766L180.215 30.2961C180.232 30.2737 180.253 30.2556 180.278 30.243C180.303 30.2305 180.33 30.224 180.358 30.224C180.386 30.224 180.413 30.2305 180.438 30.243C180.462 30.2556 180.484 30.2737 180.501 30.2961L181.014 30.9722L181.145 30.766C181.16 30.7386 181.183 30.7158 181.21 30.7C181.237 30.6842 181.268 30.6758 181.299 30.6758C181.33 30.6758 181.361 30.6842 181.388 30.7C181.415 30.7158 181.438 30.7386 181.453 30.766C181.574 31.006 181.759 31.3542 181.947 31.6585L183.077 29.8803C183.158 29.3056 183.228 28.7681 183.269 28.4571C183.272 28.4272 183.268 28.3968 183.257 28.3687C183.246 28.3407 183.228 28.3159 183.205 28.2967C183.182 28.2774 183.155 28.2644 183.125 28.2588C183.096 28.2531 183.066 28.2551 183.037 28.2644" fill="#F58120"/>
<path d="M174.36 28.2948L171.827 33.6495C171.814 33.6789 171.811 33.7118 171.819 33.7431C171.826 33.7744 171.844 33.8022 171.869 33.8224C171.894 33.8425 171.924 33.8537 171.956 33.8542C171.988 33.8547 172.02 33.8445 172.045 33.8253L176.098 30.58C176.117 30.5652 176.14 30.5555 176.163 30.5517C176.187 30.5479 176.211 30.5501 176.234 30.5582C176.257 30.5662 176.277 30.5799 176.293 30.5978C176.309 30.6158 176.321 30.6376 176.326 30.6611L176.796 32.6894C176.803 32.7159 176.817 32.7399 176.837 32.7586C176.857 32.7774 176.881 32.7901 176.908 32.7954C176.934 32.8007 176.962 32.7984 176.987 32.7886C177.013 32.7788 177.035 32.762 177.051 32.7401L179.027 30.0357C179.041 30.0175 179.058 30.0028 179.078 29.9926C179.098 29.9824 179.121 29.9771 179.143 29.9771C179.166 29.9771 179.188 29.9824 179.208 29.9926C179.228 30.0028 179.245 30.0175 179.259 30.0357L180.145 31.2121C180.158 31.231 180.176 31.2463 180.196 31.2569C180.216 31.2675 180.239 31.2731 180.262 31.2731C180.285 31.2731 180.308 31.2675 180.328 31.2569C180.348 31.2463 180.366 31.231 180.379 31.2121L182.013 28.6362L180.987 28.9573C180.956 28.9665 180.924 28.9674 180.893 28.96C180.862 28.9526 180.834 28.9372 180.811 28.9153C180.788 28.8934 180.771 28.8658 180.762 28.8352C180.752 28.8046 180.751 28.7721 180.759 28.741C180.768 28.703 180.764 28.663 180.749 28.6271C180.733 28.5913 180.707 28.5615 180.673 28.5423C180.639 28.5232 180.6 28.5157 180.561 28.5211C180.523 28.5264 180.487 28.5443 180.46 28.572L178.034 30.9654C178.005 30.9966 177.965 31.0163 177.923 31.0207C177.881 31.0251 177.838 31.014 177.803 30.9894C177.768 30.9648 177.743 30.9284 177.732 30.8867C177.722 30.8451 177.727 30.801 177.746 30.7625L178.752 28.3962C178.769 28.3599 178.774 28.3188 178.765 28.2795C178.757 28.2402 178.735 28.2051 178.704 28.1797C178.673 28.1543 178.634 28.1402 178.594 28.1396C178.554 28.139 178.515 28.152 178.484 28.1764L176.518 29.6098C176.482 29.6363 176.438 29.6486 176.394 29.6443C176.35 29.64 176.31 29.6194 176.28 29.5866C176.25 29.5537 176.234 29.5109 176.234 29.4665C176.234 29.422 176.25 29.3791 176.279 29.3461L178.648 26.6654C178.648 26.6291 178.661 26.5941 178.685 26.5673L178.782 26.4591C178.784 26.4332 178.781 26.4071 178.772 26.3826C178.763 26.3582 178.749 26.3359 178.731 26.3174C178.713 26.2988 178.691 26.2843 178.667 26.275C178.643 26.2656 178.617 26.2616 178.591 26.2631L177.46 26.3374C177.426 26.34 177.392 26.3325 177.362 26.3159C177.332 26.2993 177.307 26.2744 177.291 26.244C177.275 26.2137 177.268 26.1792 177.27 26.1448C177.273 26.1104 177.285 26.0775 177.306 26.0501L178.279 24.7249C178.303 24.694 178.316 24.656 178.317 24.6168C178.317 24.5775 178.305 24.5393 178.282 24.5078C178.258 24.4763 178.225 24.4534 178.188 24.4425C178.151 24.4317 178.111 24.4335 178.074 24.4477L175.726 25.303C175.75 25.3123 175.771 25.3281 175.788 25.3486C175.804 25.3692 175.814 25.3937 175.818 25.4197C175.821 25.4457 175.817 25.4721 175.807 25.4962C175.797 25.5203 175.78 25.5411 175.759 25.5565L172.548 27.7573C172.588 27.7583 172.626 27.7726 172.656 27.7977C172.687 27.8229 172.708 27.8575 172.717 27.8962C172.726 27.9349 172.721 27.9754 172.705 28.0115C172.688 28.0475 172.661 28.077 172.626 28.0953H172.609H174.206C174.23 28.0953 174.254 28.1015 174.275 28.1132C174.296 28.1249 174.314 28.1418 174.327 28.1624C174.34 28.1829 174.348 28.2064 174.35 28.2307C174.351 28.255 174.347 28.2794 174.337 28.3015" fill="#FBD206"/>
<path d="M180.644 15.5232L177.517 16.4934C177.314 16.5654 177.144 16.7112 177.041 16.9024L174.632 21.0503C174.226 21.7501 174.803 22.4025 175.4 21.8955L176.645 20.8813C176.741 20.7982 176.856 20.7422 176.981 20.719L178.581 20.4418C178.697 20.4143 178.806 20.3624 178.901 20.2896C178.996 20.2168 179.074 20.1247 179.131 20.0193L181.144 16.5306C181.48 15.9728 181.161 15.3812 180.634 15.5469" fill="#F95474"/>
<path d="M191.917 26.5911L191.035 29.7654C190.971 29.9714 190.833 30.1462 190.649 30.2556L186.606 32.791C185.935 33.2203 185.264 32.6524 185.75 32.0405L186.757 30.7559C186.835 30.658 186.887 30.5416 186.908 30.4179L187.143 28.802C187.165 28.6836 187.212 28.5715 187.282 28.4734C187.352 28.3754 187.441 28.2937 187.545 28.2341L190.951 26.101C191.494 25.7629 192.092 26.0536 191.957 26.5878" fill="#F95474"/>
<path d="M179.144 20.036L181.181 16.5642C181.516 16.0064 181.181 15.4148 180.671 15.5771L178.55 16.2532C178.338 17.6726 178.249 19.108 178.285 20.543L178.604 20.4856C178.72 20.4586 178.83 20.4074 178.925 20.3352C179.02 20.263 179.1 20.1714 179.158 20.0664" fill="#D33D65"/>
<path d="M187.512 28.2001L190.938 26.1008C191.485 25.7628 192.079 26.0636 191.924 26.5977L191.307 28.7342C189.901 28.9714 188.478 29.0845 187.053 29.0723L187.103 28.7342C187.128 28.6168 187.177 28.5061 187.248 28.4094C187.319 28.3127 187.409 28.2321 187.512 28.1731" fill="#D33D65"/>
<path d="M178.305 21.7874L177.409 22.1255C177.15 22.2278 176.936 22.4209 176.806 22.6692C176.677 22.9176 176.641 23.2046 176.704 23.4777C177.115 25.2864 178.036 26.937 179.355 28.2312C180.675 29.5254 182.337 30.4079 184.143 30.7728C184.418 30.8356 184.707 30.7946 184.954 30.6576C185.201 30.5205 185.39 30.2969 185.485 30.0291L185.82 29.1164C184.022 28.7041 182.371 27.7999 181.049 26.5032C178.496 24.0524 178.365 21.7705 178.328 21.7705" fill="#F95474"/>
<path d="M181.017 26.4993C178.467 24.0451 178.333 21.7666 178.299 21.7666L177.41 22.1047C178.074 24.0761 179.27 25.8225 180.863 27.1484C182.268 28.2769 183.927 29.0407 185.694 29.3727L185.788 29.1057C183.99 28.6928 182.339 27.7887 181.017 26.4926" fill="#D33D65"/>
<path d="M196.307 21.4488L199.749 12.1186C200.592 9.2317 199.055 7.84231 199.055 7.84231C199.055 7.84231 197.636 6.33122 194.794 7.25748L185.631 10.976C185.631 10.976 183.584 11.8313 181.517 14.3667C180.794 15.2525 180.122 16.1791 179.504 17.1421C178.162 19.2684 177.827 21.6922 178.732 23.5177C179.304 24.6537 180.064 25.6827 180.98 26.5602C181.873 27.4551 182.91 28.1902 184.047 28.7338C185.882 29.5857 188.288 29.2105 190.348 27.7805C191.281 27.1343 192.177 26.4357 193.032 25.688C195.482 23.538 196.29 21.4556 196.29 21.4556" fill="#E9F0F1"/>
<g style="mix-blend-mode:multiply">
<g style="mix-blend-mode:multiply">
<g style="mix-blend-mode:multiply">
<path d="M193.669 21.5986C192.891 22.4017 191.895 22.9545 190.806 23.1873C189.717 23.4201 188.584 23.3223 187.55 22.9064C186.516 22.4905 185.628 21.775 184.997 20.8505C184.367 19.926 184.023 18.834 184.008 17.7124C183.994 16.5908 184.31 15.49 184.916 14.5493C185.522 13.6085 186.392 12.8699 187.414 12.427C188.437 11.984 189.567 11.8564 190.662 12.0605C191.757 12.2645 192.767 12.791 193.565 13.5733C194.634 14.6237 195.246 16.0593 195.266 17.5643C195.285 19.0693 194.711 20.5204 193.669 21.5986Z" fill="#E9F0F1"/>
</g>
</g>
</g>
<path d="M193.038 20.979C192.383 21.6585 191.543 22.127 190.624 22.3251C189.704 22.5233 188.747 22.4421 187.874 22.092C187 21.7419 186.249 21.1385 185.716 20.3583C185.183 19.578 184.892 18.656 184.879 17.7088C184.867 16.7617 185.133 15.8321 185.645 15.0376C186.157 14.2432 186.891 13.6196 187.755 13.2458C188.619 12.8721 189.574 12.7649 190.498 12.938C191.422 13.111 192.275 13.5565 192.948 14.218C193.847 15.1041 194.361 16.3127 194.378 17.5796C194.395 18.8466 193.913 20.0688 193.038 20.979Z" fill="#2CC5F4"/>
<path d="M192.948 14.1976C192.21 13.4744 191.258 13.0122 190.237 12.8805C189.216 12.7489 188.18 12.9548 187.284 13.4675C188.128 13.0156 189.091 12.8417 190.037 12.9701C190.984 13.0986 191.867 13.5229 192.562 14.1835C193.257 14.844 193.728 15.7074 193.911 16.6523C194.093 17.5971 193.976 18.5757 193.578 19.4503C193.179 20.3249 192.518 21.0515 191.688 21.5278C190.858 22.0041 189.9 22.2062 188.95 22.1055C188 22.0048 187.106 21.6064 186.392 20.9665C185.678 20.3266 185.182 19.4773 184.973 18.5382C185.114 19.2761 185.426 19.9702 185.883 20.5641C186.34 21.158 186.929 21.6352 187.603 21.957C188.278 22.2787 189.017 22.4361 189.763 22.4162C190.509 22.3964 191.239 22.1999 191.896 21.8427C192.552 21.4855 193.115 20.9777 193.541 20.3602C193.966 19.7428 194.241 19.0331 194.343 18.2887C194.446 17.5443 194.373 16.786 194.131 16.0753C193.888 15.3646 193.483 14.7213 192.948 14.1976Z" fill="#00B4DC"/>
<path d="M199.05 7.83938C199.05 7.83938 197.631 6.32829 194.786 7.25455L192.387 8.22814C193.005 9.66797 193.897 10.9716 195.014 12.065C196.112 13.1468 197.409 14.0022 198.832 14.5835L199.745 12.1157C200.587 9.22877 199.05 7.83938 199.05 7.83938Z" fill="#F95474"/>
<g style="mix-blend-mode:multiply">
<g style="mix-blend-mode:multiply">
<g style="mix-blend-mode:multiply">
<path d="M183.073 24.8608C183.027 24.9088 182.967 24.9416 182.902 24.9552C182.836 24.9688 182.768 24.9625 182.707 24.9371C182.645 24.9118 182.592 24.8684 182.555 24.8127C182.518 24.757 182.498 24.6913 182.498 24.6242C182.498 24.557 182.518 24.4914 182.555 24.4357C182.592 24.3799 182.645 24.3366 182.707 24.3112C182.768 24.2858 182.836 24.2795 182.902 24.2931C182.967 24.3067 183.027 24.3396 183.073 24.3875C183.135 24.4507 183.169 24.5357 183.169 24.6242C183.169 24.7127 183.135 24.7976 183.073 24.8608Z" fill="#E9F0F1"/>
</g>
<g style="mix-blend-mode:multiply">
<path d="M180.175 20.8959C180.112 20.9579 180.028 20.9926 179.94 20.9926C179.852 20.9926 179.768 20.9579 179.705 20.8959C179.642 20.8326 179.607 20.7469 179.607 20.6576C179.607 20.5683 179.642 20.4826 179.705 20.4193C179.77 20.3679 179.851 20.3423 179.933 20.3473C180.015 20.3523 180.093 20.3877 180.151 20.4465C180.209 20.5054 180.243 20.5838 180.248 20.6666C180.252 20.7495 180.226 20.8311 180.175 20.8959Z" fill="#E9F0F1"/>
</g>
<g style="mix-blend-mode:multiply">
<path d="M187.087 27.6733C187.04 27.7213 186.98 27.7541 186.915 27.7677C186.85 27.7813 186.782 27.775 186.72 27.7496C186.659 27.7243 186.606 27.6809 186.569 27.6252C186.532 27.5695 186.512 27.5038 186.512 27.4367C186.512 27.3695 186.532 27.3039 186.569 27.2482C186.606 27.1924 186.659 27.1491 186.72 27.1237C186.782 27.0983 186.85 27.092 186.915 27.1056C186.98 27.1192 187.04 27.1521 187.087 27.2C187.148 27.2632 187.183 27.3482 187.183 27.4367C187.183 27.5252 187.148 27.6101 187.087 27.6733Z" fill="#E9F0F1"/>
</g>
<g style="mix-blend-mode:multiply">
<path d="M189.341 27.4674C189.305 27.4665 189.27 27.4573 189.237 27.4404C185.445 25.1982 182.245 22.0672 179.91 18.313L179.876 18.2589C179.857 18.237 179.842 18.211 179.833 18.1827C179.825 18.1544 179.822 18.1245 179.826 18.0952C179.83 18.0659 179.84 18.0378 179.856 18.0129C179.872 17.988 179.893 17.9669 179.918 17.9511C179.943 17.9354 179.971 17.9253 180 17.9215C180.029 17.9178 180.059 17.9206 180.087 17.9296C180.115 17.9386 180.141 17.9537 180.162 17.9738C180.184 17.9939 180.201 18.0186 180.212 18.046L180.245 18.1C182.546 21.7999 185.698 24.8858 189.435 27.0956C189.458 27.1086 189.478 27.126 189.494 27.1468C189.51 27.1676 189.522 27.1915 189.529 27.217C189.536 27.2424 189.538 27.269 189.534 27.2952C189.531 27.3213 189.522 27.3466 189.509 27.3694C189.491 27.3993 189.466 27.4243 189.436 27.442C189.406 27.4597 189.373 27.4696 189.338 27.4708" fill="#E9F0F1"/>
</g>
</g>
</g>
<g style="mix-blend-mode:multiply">
<g style="mix-blend-mode:multiply">
<g style="mix-blend-mode:multiply">
<path d="M177.225 23.5887C177.29 23.5174 177.367 23.4579 177.453 23.4129C177.532 23.3699 177.615 23.3359 177.701 23.3115C177.787 23.2838 177.876 23.2679 177.966 23.2641C178.063 23.2555 178.161 23.2635 178.255 23.2878C178.189 23.3593 178.111 23.4198 178.026 23.467C177.946 23.5077 177.861 23.5416 177.775 23.5684C177.688 23.5934 177.6 23.6082 177.51 23.6123C177.414 23.6209 177.318 23.6129 177.225 23.5887Z" fill="#E9F0F1"/>
</g>
<g style="mix-blend-mode:multiply">
<path d="M178.352 25.7587C178.409 25.6805 178.479 25.613 178.56 25.5593C178.635 25.5093 178.715 25.4663 178.798 25.4308C178.882 25.3974 178.97 25.3725 179.06 25.3565C179.154 25.3395 179.25 25.3395 179.345 25.3565C179.287 25.4337 179.217 25.5001 179.137 25.5525C179.062 25.6038 178.982 25.6469 178.898 25.681C178.814 25.7144 178.726 25.7393 178.637 25.7554C178.542 25.7706 178.446 25.7706 178.352 25.7554" fill="#E9F0F1"/>
</g>
<g style="mix-blend-mode:multiply">
<path d="M184.053 30.2858C184.025 30.1927 184.013 30.0956 184.016 29.9984C184.023 29.9074 184.036 29.817 184.057 29.728C184.08 29.6409 184.112 29.556 184.15 29.4745C184.194 29.3874 184.252 29.3085 184.322 29.2412C184.347 29.3347 184.359 29.4316 184.355 29.5286C184.352 29.6188 184.338 29.7084 184.315 29.7956C184.292 29.884 184.26 29.97 184.221 30.0525C184.177 30.1383 184.12 30.2169 184.053 30.2858Z" fill="#E9F0F1"/>
</g>
<g style="mix-blend-mode:multiply">
<path d="M181.868 29.2071C181.851 29.112 181.851 29.0148 181.868 28.9197C181.879 28.8295 181.9 28.741 181.932 28.656C181.964 28.571 182.004 28.4895 182.053 28.4126C182.103 28.3297 182.168 28.2564 182.244 28.1963C182.259 28.2915 182.259 28.3884 182.244 28.4836C182.218 28.6642 182.154 28.8371 182.056 28.9907C182.005 29.0737 181.941 29.1469 181.865 29.2071" fill="#E9F0F1"/>
</g>
<g style="mix-blend-mode:multiply">
<path d="M179.922 27.6449C179.948 27.551 179.988 27.462 180.043 27.3813C180.091 27.3049 180.149 27.2346 180.214 27.1717C180.275 27.1063 180.345 27.0494 180.422 27.0026C180.503 26.9495 180.593 26.9106 180.687 26.8877C180.664 26.9819 180.624 27.0712 180.569 27.1514C180.521 27.2277 180.463 27.2981 180.398 27.361C180.335 27.4256 180.264 27.4823 180.187 27.53C180.106 27.5843 180.016 27.6233 179.922 27.6449Z" fill="#E9F0F1"/>
</g>
</g>
</g>
<path d="M187.499 16.9022C187.794 16.197 188.185 15.5361 188.659 14.9381L188.344 14.7522C188.072 15.8667 187.925 17.0087 187.908 18.1563C187.908 18.2065 187.928 18.2547 187.963 18.2902C187.998 18.3257 188.046 18.3456 188.096 18.3456C188.146 18.3456 188.193 18.3257 188.229 18.2902C188.264 18.2547 188.284 18.2065 188.284 18.1563C188.305 17.0499 188.446 15.9491 188.706 14.8739C188.747 14.7048 188.515 14.5358 188.391 14.6913C187.896 15.3091 187.487 15.9913 187.173 16.7196C187.079 16.9393 187.405 17.132 187.509 16.9089" fill="#ABE0F2"/>
<path d="M190.239 14.3297C189.993 16.4189 189.8 18.5125 189.659 20.6107C189.635 20.9487 190.172 20.9487 190.192 20.6107C190.333 18.5148 190.527 16.4211 190.773 14.3297C190.813 13.9917 190.28 13.9917 190.239 14.3297Z" fill="#ABE0F2"/>
<path d="M191.308 15.2905C191.134 16.5725 191.113 17.8709 191.248 19.1578C191.275 19.3877 191.627 19.5668 191.748 19.293C192.116 18.4564 192.432 17.5972 192.694 16.7205L192.167 16.6495C192.194 17.0957 192.217 17.5385 192.244 18.0017C192.264 18.3397 192.798 18.3397 192.778 18.0017C192.754 17.5554 192.727 17.1126 192.704 16.6495C192.7 16.5883 192.676 16.5302 192.635 16.4848C192.594 16.4394 192.539 16.4093 192.479 16.3995C192.419 16.3896 192.357 16.4007 192.304 16.4307C192.251 16.4608 192.21 16.5081 192.187 16.5649C191.94 17.3973 191.642 18.2136 191.295 19.0091L191.795 19.1443C191.658 17.8579 191.673 16.5596 191.842 15.277C191.885 14.9389 191.352 14.9389 191.308 15.277" fill="#ABE0F2"/>
<path d="M188.788 19.9453C188.819 20.0535 188.817 20.1687 188.783 20.2758C188.748 20.383 188.683 20.4773 188.595 20.5466C188.506 20.616 188.4 20.6571 188.288 20.6649C188.177 20.6726 188.065 20.6465 187.969 20.59C187.872 20.5335 187.794 20.4491 187.745 20.3477C187.697 20.2463 187.679 20.1325 187.695 20.021C187.711 19.9095 187.76 19.8054 187.835 19.722C187.91 19.6386 188.008 19.5798 188.117 19.5532C188.258 19.5187 188.406 19.5402 188.531 19.6133C188.656 19.6864 188.748 19.8053 188.788 19.9453Z" fill="#ABE0F2"/>
<path d="M187.033 19.3875C187.048 19.4436 187.046 19.5029 187.028 19.5581C187.009 19.6132 186.975 19.6617 186.93 19.6973C186.884 19.7329 186.829 19.7541 186.771 19.7582C186.714 19.7623 186.656 19.7491 186.606 19.7203C186.556 19.6915 186.516 19.6484 186.49 19.5964C186.464 19.5444 186.454 19.4859 186.461 19.4282C186.468 19.3705 186.492 19.3163 186.53 19.2723C186.568 19.2283 186.618 19.1967 186.673 19.1812C186.711 19.1705 186.749 19.1674 186.788 19.172C186.826 19.1766 186.863 19.1889 186.896 19.2081C186.93 19.2273 186.959 19.2531 186.982 19.2839C187.006 19.3147 187.023 19.3499 187.033 19.3875Z" fill="#ABE0F2"/>
<g style="mix-blend-mode:multiply">
<g style="mix-blend-mode:multiply">
<g style="mix-blend-mode:multiply">
<path d="M182.227 26.4317C181.35 25.592 180.621 24.6077 180.073 23.5211C179.214 21.77 179.512 19.4341 180.821 17.4058C181.41 16.4808 182.051 15.5913 182.743 14.7419C184.726 12.3181 186.692 11.4831 186.692 11.4831L195.486 7.91668C197.751 7.17973 199.07 8.0519 199.456 8.36967C199.345 8.17702 199.209 7.99974 199.053 7.84231C199.053 7.84231 197.634 6.33122 194.792 7.25748L185.629 10.976C185.629 10.976 183.582 11.8313 181.515 14.3667C180.794 15.2534 180.121 16.1799 179.502 17.1421C178.16 19.2684 177.825 21.6922 178.73 23.5177C179.302 24.6537 180.062 25.6827 180.978 26.5602C181.871 27.4551 182.908 28.1902 184.045 28.7338C185.309 29.272 186.723 29.3333 188.028 28.9063C187.06 29.0584 186.069 28.9282 185.172 28.531C184.08 28.0072 183.083 27.2996 182.227 26.4385" fill="#DBDFE0"/>
</g>
</g>
</g>
</g>
<defs>
<clipPath id="clip0">
<path d="M0 0H200V59H0V0Z" fill="white"/>
</clipPath>
</defs>
</svg>
