<svg width="349" height="272" viewBox="0 0 349 272" fill="none" xmlns="http://www.w3.org/2000/svg">
<g clip-path="url(#clip0)">
<path d="M2.30253 189.52C3.08536 192.469 4.05237 195.326 5.20358 198.091H93.8005C105.266 198.091 105.266 214.587 93.8005 214.587H14.5053C19.0181 220.807 24.1755 226.429 29.5171 231.497C38.1281 239.699 47.2457 246.934 56.7777 253.246H135.106C138.698 253.246 141.737 256.287 141.737 259.882C141.737 263.476 138.698 266.517 135.106 266.517H79.986C84.0382 268.498 88.0905 270.295 92.2348 271.954H272.974C281.77 268.314 290.196 263.568 298.025 257.255C301.11 254.767 304.057 252.002 306.958 249.145H268.323C256.857 249.145 256.857 232.649 268.323 232.649H321.878C322.154 232.327 322.43 232.05 322.66 231.728C330.166 222.927 337.856 213.895 342.461 202.33C346.467 192.285 347.803 180.996 348.447 169.752H303.182C299.59 169.752 296.551 166.711 296.551 163.117C296.551 159.523 299.59 156.482 303.182 156.482H348.954C349.046 151.828 349.046 147.082 348.816 142.428H210.118C198.652 142.428 198.652 125.932 210.118 125.932H346.652C345.639 121.508 344.211 117.269 342.231 113.307C337.027 103.031 328.601 95.935 319.805 90.6821C310.181 84.9684 299.959 81.1439 289.552 78.3331C288.861 72.343 287.249 66.3528 285.039 60.6852H210.118C204.777 60.6852 200.817 56.3077 200.586 51.147C200.356 45.9862 205.145 41.6088 210.118 41.6088H274.448C274.218 41.2862 273.987 40.9637 273.757 40.6872C269.659 35.296 265.146 30.5039 260.357 26.1725H131.054C122.673 26.1725 122.719 14.1461 131.054 14.1461H244.056C236.919 9.86083 229.459 6.40496 221.769 3.73242H90.4389C76.5324 9.76868 63.5007 19.0304 52.4491 31.149C47.6601 36.4019 43.1934 42.3921 39.5095 48.9352H61.1062C72.5722 48.9352 72.5722 65.4312 61.1062 65.4312H34.3061C33.6614 65.4312 33.1088 65.3851 32.5563 65.293C30.5301 72.2508 29.6092 79.5772 30.2078 87.0419C30.392 89.2076 30.6683 91.2811 31.0827 93.3547H98.6816C102.273 93.3547 105.313 96.3958 105.313 99.9899C105.313 103.584 102.273 106.625 98.6816 106.625H30.0696C25.6951 110.311 21.5968 114.505 17.8669 119.251C3.59189 137.544 -4.14422 165.283 2.30253 189.52ZM261.877 183.576H305.162C310.504 183.576 314.464 187.953 314.694 193.114C314.924 198.275 310.135 202.652 305.162 202.652H261.877C256.535 202.652 252.575 198.275 252.345 193.114C252.114 187.953 256.904 183.576 261.877 183.576ZM108.214 110.173C108.214 106.579 111.253 103.538 114.845 103.538H165.498C169.089 103.538 172.129 106.579 172.129 110.173C172.129 113.767 169.089 116.808 165.498 116.808H114.845C111.207 116.762 108.214 113.767 108.214 110.173ZM174.201 150.86H122.166C118.574 150.86 115.535 147.819 115.535 144.225C115.535 140.631 118.574 137.59 122.166 137.59H174.201C177.793 137.59 180.832 140.631 180.832 144.225C180.832 147.819 177.793 150.86 174.201 150.86ZM258.93 82.8027C262.521 82.8027 265.561 85.8439 265.561 89.438C265.561 93.0321 262.521 96.0733 258.93 96.0733H151.177C147.585 96.0733 144.546 93.0321 144.546 89.438C144.546 85.8439 147.585 82.8027 151.177 82.8027H258.93ZM159.189 62.7126C159.189 66.3067 156.15 69.3479 152.558 69.3479H121.706C118.114 69.3479 115.075 66.3067 115.075 62.7126C115.075 59.1185 118.114 56.0773 121.706 56.0773H152.558C156.15 56.0773 159.189 59.1185 159.189 62.7126ZM90.8534 49.9489C87.2616 49.9489 84.2224 46.9078 84.2224 43.3137C84.2224 39.7196 87.2616 36.6784 90.8534 36.6784H149.795C153.387 36.6784 156.426 39.7196 156.426 43.3137C156.426 46.9078 153.387 49.9489 149.795 49.9489H90.8534ZM35.9638 137.774H93.2018C98.5434 137.774 102.504 142.152 102.734 147.312C102.964 152.473 98.175 156.85 93.2018 156.85H35.9638C30.6222 156.85 26.6621 152.473 26.4318 147.312C26.2016 142.152 30.9906 137.774 35.9638 137.774Z" fill="#EBEBF2"/>
<path d="M131.284 81.6964C131.33 81.5121 131.468 81.3738 131.56 81.2356C131.883 80.0376 132.205 78.8395 132.527 77.6415C132.435 77.3189 132.435 76.9964 132.481 76.6738C132.619 75.9827 132.804 75.2915 133.034 74.6464C133.724 72.7111 134.461 70.7758 135.198 68.8405C135.474 68.0572 135.751 67.2278 136.119 66.4906C137.224 64.1866 138.329 61.9288 139.481 59.671C139.711 59.1641 139.941 58.6572 140.217 58.1504C141.138 56.169 142.197 54.1877 143.487 52.3906C144.684 50.7779 145.835 49.1191 146.94 47.4142C148.552 44.9259 150.486 42.6681 152.466 40.5024C154.769 37.9681 157.209 35.572 159.88 33.4064C160.939 32.577 161.906 31.5632 163.011 30.7799C164.116 29.9966 165.406 29.5358 166.419 28.6142C166.603 28.4299 166.925 28.3838 167.156 28.2456C167.57 28.0152 167.984 27.8309 168.399 27.6005C168.537 27.5083 168.583 27.3701 168.721 27.1397C167.248 27.0936 165.958 27.324 164.669 27.5544C163.011 27.877 161.4 28.3378 159.742 28.7064C156.841 29.3515 153.94 29.9044 151.269 31.1485C151.039 31.2407 150.808 31.3328 150.624 31.3789C149.335 31.7475 148.092 32.3005 146.894 32.9456C146.204 33.3142 145.467 33.6368 144.73 34.0054C144.177 34.2819 143.671 34.5583 143.118 34.8809C142.382 35.2956 141.645 35.7103 140.908 36.125C137.823 37.876 134.691 39.6269 131.883 41.8387C130.409 42.9906 128.982 44.2348 127.6 45.5249C125.758 47.322 123.686 48.8887 121.982 50.8239C121.844 50.9622 121.706 51.1004 121.568 51.1926C120.324 52.2524 119.219 53.4965 118.206 54.7867C116.595 56.8141 114.983 58.7955 113.371 60.8229C111.483 63.219 109.641 65.6611 108.352 68.4258C108.03 69.117 107.707 69.7621 107.339 70.4533C106.28 72.3425 105.451 74.3239 104.76 76.3974C104.023 78.6091 103.517 80.9131 102.918 83.1709C102.734 83.8621 102.596 84.5532 102.412 85.1983C102.273 85.7052 101.997 85.9356 101.675 85.9817C101.629 86.2581 101.537 86.5346 101.445 86.8571C101.583 86.8571 101.675 86.9032 101.767 86.9954C101.997 87.1797 102.089 87.4562 101.951 87.7326C101.537 88.516 101.491 89.3454 101.353 90.1748C101.03 91.9258 100.708 93.6767 100.386 95.4277C100.339 95.7042 100.386 95.9806 100.386 96.2571C100.57 96.3032 100.662 96.3493 100.8 96.3493C103.148 96.3953 105.497 96.211 107.799 95.9806C109.595 95.7963 111.345 95.8885 113.141 96.0728C115.628 96.3493 118.022 96.8561 120.509 97.0865C122.581 97.2708 124.607 97.2248 126.679 97.2248C127.001 97.2248 127.278 97.0865 127.6 97.0404C127.83 94.6905 128.245 92.4326 128.797 90.1748C129.258 88.1934 129.718 86.2581 130.225 84.2768C130.593 83.4474 130.962 82.5719 131.284 81.6964Z" fill="white"/>
<path d="M172.727 27.0935C172.221 27.3239 171.714 27.5543 171.208 27.8308C170.194 28.4298 169.227 29.0749 168.168 29.5817C166.603 30.4111 165.221 31.517 163.61 32.3004C163.425 32.3925 163.241 32.5768 163.057 32.7611C160.34 35.2033 157.393 37.415 155.045 40.2258C154.768 40.5484 154.446 40.8248 154.17 41.1013C153.387 42.0229 152.558 42.9444 151.775 43.866C151.407 44.2807 151.084 44.7415 150.716 45.2023C149.979 46.1699 149.289 47.1836 148.598 48.1513C147.631 49.5336 146.756 51.0081 145.743 52.3444C144.638 53.8189 143.625 55.3395 142.842 56.9983C141.506 59.9473 139.849 62.7581 138.651 65.7532C138.513 66.1679 138.283 66.4904 138.099 66.9051C137.823 67.5963 137.5 68.2875 137.27 68.9787C136.257 71.6051 135.29 74.2316 134.277 76.858C134.139 77.2267 133.862 77.5953 133.586 77.9178C133.494 78.01 133.356 78.1021 133.218 78.1021C132.987 79.0237 132.711 79.8992 132.481 80.8208C132.573 80.9129 132.665 81.0051 132.711 81.1433C132.757 81.4198 132.757 81.6963 132.665 81.9727C132.435 82.71 132.159 83.4011 131.974 84.0923C131.007 87.7786 130.132 91.4649 129.488 95.1972C129.442 95.5658 129.396 95.9344 129.396 96.3031C129.396 96.5795 129.488 96.8099 129.58 97.0403C130.363 97.2707 131.053 97.0403 131.744 96.9021C133.034 96.6256 134.369 96.5335 135.658 96.7178C137.638 96.9942 139.572 96.856 141.552 96.9482C142.704 96.9942 143.901 97.0403 145.052 97.0864C146.341 97.1325 147.677 97.2246 148.966 97.2707C150.946 97.3168 152.926 97.3168 154.86 97.3168C155.735 97.3168 156.656 97.2707 157.531 97.2246C157.807 97.2246 158.038 97.0864 158.314 97.0403C158.36 96.0266 158.406 95.105 158.452 94.1835C158.544 92.9393 158.728 91.6492 158.821 90.405C159.051 86.9953 159.511 83.5855 160.294 80.2678C160.616 78.8855 160.939 77.5031 161.123 76.1208C161.63 72.3424 162.044 68.5639 162.781 64.8316C162.965 64.0022 163.057 63.1728 163.149 62.3434C163.656 58.0581 164.438 53.8189 165.544 49.6258C165.774 48.7042 166.05 47.8287 166.188 46.9072C166.603 44.2346 167.155 41.5621 167.984 38.9356C168.813 36.217 170.01 33.6827 171.484 31.2866C172.313 29.9504 173.096 28.6602 173.878 27.3239C173.924 27.2317 173.97 27.0474 174.016 26.9092C173.602 26.817 173.142 26.9092 172.727 27.0935Z" fill="#FF7071"/>
<path d="M215.874 232.419C215.828 226.89 216.058 221.36 215.598 215.785C215.506 214.633 215.322 213.527 215.045 212.237C214.723 212.605 214.493 212.882 214.263 213.158C213.802 213.665 213.342 214.264 212.835 214.679C211.269 215.923 209.658 217.167 208.046 218.365C204.731 220.899 201.323 223.296 197.685 225.415C195.935 226.429 194.186 227.443 192.482 228.502C188.706 230.852 184.93 233.202 181.154 235.598C179.45 236.704 177.608 237.488 175.674 238.133C173.372 238.916 171.115 238.686 168.951 237.672C167.846 237.165 166.833 236.474 165.774 235.829C161.353 233.248 157.255 230.207 153.341 226.89C152.512 226.198 151.683 225.507 150.808 224.862C146.48 221.499 142.289 217.904 138.237 214.218C137.638 213.665 137.178 213.02 136.948 212.283C136.763 212.145 136.579 212.006 136.349 211.868C136.349 211.914 136.349 211.914 136.349 211.96C136.211 213.251 136.073 214.587 135.888 215.877C135.612 218.089 135.658 220.254 135.888 222.466C135.981 223.296 135.981 224.171 135.888 225C135.796 225.553 135.704 226.106 135.704 226.659C135.704 228.226 135.75 229.747 135.704 231.313C135.612 234.999 135.474 238.732 135.382 242.418C135.336 243.662 135.382 244.952 135.474 246.196C135.612 247.901 136.349 249.422 137.362 250.804C138.007 250.85 138.559 250.943 139.112 250.989C140.171 251.081 141.276 251.265 142.335 251.219C144.085 251.127 145.789 251.265 147.539 251.311C148.275 251.357 149.058 251.311 149.795 251.311C151.729 251.357 153.617 251.449 155.551 251.495C157.853 251.542 160.156 251.634 162.458 251.634C164.991 251.634 167.524 251.495 170.056 251.495C173.832 251.495 177.562 251.588 181.338 251.634C182.673 251.634 183.963 251.726 185.298 251.726C188.153 251.772 191.008 251.91 193.863 251.772C197.455 251.634 201.093 251.634 204.685 251.634C205.928 251.634 207.217 251.542 208.461 251.495C208.645 251.495 208.829 251.449 209.013 251.495C210.026 251.68 210.993 251.449 211.96 251.357C212.927 251.265 213.664 250.758 214.124 249.975C215.138 248.408 215.828 246.795 215.782 244.814C215.828 240.667 215.92 236.52 215.874 232.419Z" fill="#DCDCE8"/>
<path d="M137.546 210.808C137.638 210.67 137.915 210.577 138.053 210.67C138.329 210.854 138.559 211.084 138.789 211.269C139.388 211.822 139.987 212.421 140.631 213.02C140.954 213.296 141.276 213.573 141.598 213.849C143.809 215.738 145.973 217.673 148.229 219.517C150.532 221.452 152.88 223.295 155.229 225.184C157.807 227.304 160.294 229.516 163.057 231.359C165.175 232.787 167.385 234.17 169.596 235.506C171.346 236.566 173.326 236.842 175.306 236.335C177.056 235.874 178.667 235.183 180.233 234.262C182.489 232.925 184.7 231.497 186.91 230.069C188.752 228.871 190.594 227.672 192.482 226.521C194.278 225.415 196.12 224.401 197.915 223.295C200.218 221.867 202.612 220.53 204.731 218.779C205.652 217.996 206.619 217.259 207.678 216.614C209.842 215.277 211.776 213.619 213.664 211.96C214.124 211.591 214.447 211.038 214.769 210.485C215.184 209.748 214.907 209.103 214.124 208.78C213.848 208.688 213.572 208.596 213.296 208.55C212.467 208.504 211.592 208.458 210.763 208.412C210.441 208.412 210.118 208.366 209.796 208.274C209.704 208.227 209.612 208.181 209.52 208.089C208.783 208.135 208.046 208.135 207.355 208.135C207.309 208.181 207.217 208.181 207.125 208.181C206.619 208.227 206.112 208.181 205.559 208.181C202.566 208.135 199.573 208.089 196.58 208.366C195.521 208.458 194.416 208.412 193.357 208.366C192.159 208.32 190.916 208.227 189.719 208.227C187.37 208.181 185.022 208.227 182.673 208.227C175.582 208.181 168.491 208.32 161.399 208.089C157.301 207.951 153.249 208.227 149.15 207.997C149.104 207.997 149.058 207.997 149.012 207.997C147.032 207.997 145.052 207.997 143.118 208.043C141.276 208.089 139.48 208.32 137.869 209.287C137.408 209.564 137.178 209.84 137.086 210.347C137.224 210.577 137.362 210.67 137.546 210.808Z" fill="white"/>
<path d="M250.088 36.8624C250.226 37.1849 250.319 37.5536 250.457 37.9222C250.917 39.1202 251.378 40.2722 252.022 41.3781C252.437 42.0692 252.897 42.7143 253.266 43.4055C254.509 45.8477 255.66 48.2898 257.18 50.5476C257.732 51.377 258.147 52.2525 258.607 53.128C259.528 54.7868 260.449 56.4917 261.462 58.1506C262.061 59.1643 262.706 60.1319 263.35 61.0996C263.442 61.2378 263.58 61.376 263.765 61.5603C264.179 61.1456 264.317 60.6388 264.547 60.178C265.008 59.3025 265.468 58.427 265.975 57.5976C266.205 57.229 266.482 57.0908 266.758 57.1368C266.85 56.8143 266.942 56.5378 267.034 56.2153C266.896 56.031 266.85 55.7084 267.034 55.2937C267.449 54.28 267.863 53.3123 268.277 52.2986C268.876 50.9623 269.475 49.6261 270.119 48.3359C270.626 47.2761 271.224 46.2624 271.685 45.2026C272.698 42.9447 273.619 40.6408 274.586 38.3369C275.046 37.3232 275.553 36.3095 275.967 35.2497C277.027 32.7614 278.086 30.2732 278.408 27.5085C278.684 25.2046 278.822 22.9468 278.27 20.6428C277.855 19.0301 277.487 17.4634 276.981 15.8968C276.52 14.5144 275.783 13.2703 274.862 12.1184C274.126 11.2429 273.389 10.4135 272.468 9.76837C271.04 8.70857 269.567 8.20171 267.495 7.60269C267.172 7.51054 266.85 7.46446 266.574 7.28015C265.791 6.91152 264.962 6.81936 264.087 6.86544C262.936 6.9576 261.739 7.09583 260.587 7.23407C259.989 7.32622 259.436 7.51054 258.884 7.83308C258.423 8.10955 257.824 8.24779 257.318 8.47818C256.443 8.89288 255.476 9.26151 254.693 9.81445C253.496 10.6899 252.299 11.6576 251.286 12.7635C250.18 13.9154 249.398 15.2978 248.937 16.8644C248.154 19.3987 247.924 22.0252 247.51 24.6056C247.464 24.9281 247.464 25.2507 247.51 25.5732C247.878 29.4899 248.569 33.2683 250.088 36.8624ZM256.397 21.334C256.535 20.8272 256.765 20.3664 257.226 20.0438C258.101 19.3987 258.976 18.7997 259.851 18.2007C260.864 17.5095 263.765 17.0948 264.87 17.6017C265.607 17.9242 266.343 18.2007 267.034 18.5693C268.185 19.1683 269.244 19.9977 270.027 21.1036C270.856 22.3017 271.363 23.684 271.271 25.2046C271.178 25.9418 271.132 26.7252 270.948 27.4163C270.488 29.0291 269.475 30.3193 268.369 31.5634C268.185 31.7477 267.955 31.932 267.679 32.0703C266.528 32.5771 265.376 33.1301 264.087 33.2222C263.673 33.2683 263.258 33.2683 262.844 33.1761C260.91 32.8536 259.16 32.2546 257.778 30.734C256.903 29.7663 256.305 28.7065 256.029 27.4624C255.568 25.3428 255.89 23.3615 256.397 21.334Z" fill="#FF7071"/>
<path d="M302.261 63.4954C301.939 63.0807 301.524 62.7582 301.11 62.4817C300.834 62.2513 300.465 62.1131 300.097 61.9749C298.577 61.2376 297.058 60.5464 295.538 59.8092C294.617 59.3945 293.604 59.0719 292.591 58.9337C291.532 58.7955 290.473 58.519 289.46 58.1964C288.493 57.92 287.48 57.6435 286.467 57.4592C284.164 57.0906 281.816 56.768 279.513 56.4455C279.007 56.3533 278.454 56.4455 277.994 56.2612C277.027 55.9386 276.06 55.9386 275.093 55.8925C273.711 55.8004 272.284 55.7082 270.902 55.57C270.718 55.57 270.488 55.4778 270.304 55.3857C270.35 55.2935 270.35 55.2474 270.396 55.1553C269.981 55.1553 269.521 55.2014 269.106 55.2474C268.738 55.9847 268.278 56.6759 267.771 57.2749C267.633 57.4131 267.541 57.5513 267.403 57.5974C267.311 58.1043 267.126 58.6111 266.942 59.118C266.988 59.2562 266.988 59.3945 266.942 59.5327C266.896 59.6709 266.85 59.8092 266.804 59.9013C266.113 61.3758 265.469 62.8964 264.732 64.3709C264.502 64.8317 264.179 65.2464 263.857 65.615C263.489 65.9837 262.982 65.9837 262.614 65.615C262.337 65.3386 262.107 65.0621 261.969 64.7396C260.772 62.3435 259.16 60.2239 257.779 57.92C257.548 57.5513 257.318 57.2288 257.042 56.9062C256.673 56.8602 256.351 56.8602 256.029 56.8602C253.911 56.8141 251.792 56.768 249.72 56.9062C246.543 57.1366 243.365 57.2288 240.142 57.4131C239.405 57.4592 238.669 57.6896 237.932 57.6896C235.814 57.6896 233.741 58.0121 231.623 58.2886C227.018 58.9337 222.736 60.4543 218.776 62.9425C217.901 63.4954 217.118 64.1405 216.473 64.9699C216.289 65.2003 216.151 65.5229 216.013 65.7994C216.427 66.5366 217.072 66.9513 217.717 67.3199C219.328 68.2876 221.078 68.9788 222.874 69.5317C227.801 71.1444 232.866 72.066 237.978 72.8954C241.247 73.4483 244.563 73.817 247.878 74.2317C248.201 74.2778 248.523 74.2317 248.845 74.2317C249.214 74.2317 249.582 74.2317 249.95 74.2778C251.976 74.3699 253.957 74.5081 255.983 74.6464C258.055 74.7846 260.127 74.8768 262.153 75.015C269.106 75.4297 276.014 75.2454 282.921 74.0013C284.302 73.7709 285.73 73.7248 287.065 73.3101C288.769 72.8033 290.473 72.2964 292.223 71.8817C293.788 71.5131 295.262 70.9601 296.735 70.2689C297.795 69.7621 298.854 69.2552 299.821 68.6101C300.235 68.3337 300.696 68.1033 301.202 67.8729C302.86 67.1356 303.459 65.016 302.261 63.4954Z" fill="#EBEBF2"/>
<path d="M270.027 26.9556C269.567 28.5683 268.554 29.8585 267.448 31.1026C267.264 31.287 267.034 31.4713 266.758 31.6095C265.607 32.1164 264.455 32.6693 263.166 32.7615C262.752 32.8075 262.337 32.8075 261.923 32.7154C259.989 32.3928 258.239 31.7938 256.857 30.2732C255.982 29.3056 255.384 28.2458 255.107 27.0017C254.647 24.9282 254.923 22.9007 255.476 20.8733C255.614 20.3664 255.844 19.9056 256.305 19.5831C257.18 18.938 258.055 18.339 258.929 17.74C259.943 17.0488 262.844 16.6341 263.949 17.1409C264.686 17.4635 265.422 17.74 266.113 18.1086C267.264 18.7076 268.323 19.537 269.106 20.6429C269.935 21.8409 270.442 23.2233 270.349 24.7438C270.257 25.4811 270.257 26.2644 270.027 26.9556ZM256.903 27.0938C257.088 27.8772 257.364 28.6144 258.147 29.0291C258.239 29.0752 258.285 29.1674 258.331 29.2134C259.206 30.5036 260.587 30.8262 261.969 31.0566C263.304 31.287 264.547 30.9183 265.791 30.3654C266.067 30.2272 266.389 30.0428 266.574 29.7664C267.126 29.0291 267.633 28.2458 268.185 27.4625C268.876 26.4027 268.83 25.2507 268.554 24.0527C268.369 23.4076 268.139 22.8086 267.955 22.1635C267.679 21.4723 267.264 20.9194 266.712 20.3664C265.883 19.5831 264.962 19.0301 263.857 18.6154C262.383 18.0625 261.002 18.2007 259.666 18.9841C258.883 19.4448 258.239 20.0439 257.502 20.5507C257.18 20.7811 256.995 21.1037 256.903 21.4723C256.719 22.3939 256.581 23.3154 256.489 24.1909C256.627 25.2507 256.719 26.1723 256.903 27.0938Z" fill="#A5A3B8"/>
<path d="M191.008 88.8851C191.008 88.8391 190.962 88.8391 190.962 88.793C190.87 88.6087 190.778 88.3322 190.778 88.1479C190.686 87.4106 190.594 86.6734 190.502 85.8901C190.317 83.2636 190.133 80.6371 189.949 78.0107C189.765 75.1999 189.581 72.3891 189.212 69.5784C188.66 65.0166 188.199 60.4549 187.647 55.8931C187.094 51.3314 186.542 46.7696 185.39 42.3C184.377 38.2912 183.134 34.3746 181.246 30.6422C180.555 29.2599 179.496 28.2001 178.529 27.0481C178.391 26.8638 178.069 26.7256 177.792 26.7256C177.378 26.6795 176.963 26.7256 176.457 26.7256C176.227 27.002 175.904 27.3246 175.674 27.6932C174.891 28.9373 174.108 30.1353 173.372 31.3795C172.727 32.4393 172.174 33.4991 171.576 34.5589C170.056 37.4157 169.135 40.4569 168.537 43.5902C168.26 44.8804 168.122 46.1706 167.846 47.4608C167.478 49.3961 167.063 51.3314 166.649 53.2666C166.004 56.4921 165.405 59.7176 165.083 62.9892C165.037 63.5421 164.945 64.095 164.853 64.648C164.116 68.5646 163.609 72.5274 163.149 76.4901C163.011 77.5499 162.827 78.6097 162.55 79.6695C161.629 83.4018 161.123 87.2263 160.754 91.0508C160.616 92.6175 160.386 94.2302 160.202 95.7969C160.156 96.1655 160.156 96.5341 160.11 96.9488C160.432 96.9949 160.708 97.0871 160.985 97.041C162.873 96.9489 164.715 96.8567 166.603 96.8106C167.478 96.7645 168.398 96.8567 169.273 96.8567C170.194 96.8567 171.161 96.8567 172.082 96.7645C173.924 96.6263 175.72 96.442 177.562 96.5341C177.746 96.5341 177.93 96.5802 178.115 96.5341C180.463 96.4881 182.812 96.3959 185.16 96.3037C185.805 96.2577 186.449 96.0734 187.094 96.0734C188.245 96.0734 189.397 96.1194 190.64 96.1655C190.87 95.6126 190.778 95.0136 190.778 94.4145C190.824 93.6312 190.778 92.8018 190.778 92.0185C190.778 91.6959 190.916 91.4195 191.1 91.2812C191.1 90.544 191.008 89.7146 191.008 88.8851Z" fill="white"/>
<path d="M221.63 84.8303C221.354 83.1715 220.894 81.5127 220.433 79.8999C219.834 77.8264 219.098 75.799 218.361 73.7715C217.486 71.2372 216.427 68.7951 215.091 66.4451C214.999 66.3068 214.953 66.2147 214.907 66.0764C213.157 62.3441 211.223 58.7039 209.105 55.1559C208.967 54.9716 208.875 54.7412 208.783 54.5569C207.125 50.8245 204.685 47.6451 202.29 44.3736C201.691 43.5903 201.001 42.853 200.402 42.1158C200.08 41.701 199.803 41.2863 199.573 40.8716C199.481 40.8256 199.435 40.7795 199.389 40.7334C198.975 40.1344 198.422 39.5814 197.869 39.0746C197.777 39.0746 197.731 39.0285 197.685 39.0285C197.547 38.9364 197.409 38.7981 197.271 38.6599C195.153 36.5403 192.896 34.5589 190.363 32.9001C190.041 32.7158 189.765 32.4393 189.489 32.2089C187.601 30.6883 185.528 29.5364 183.272 28.707C182.627 28.4766 182.029 28.154 181.338 27.9697C181.338 28.108 181.292 28.154 181.292 28.2001C183.226 31.057 184.469 34.2364 185.574 37.5079C187.324 42.7608 188.291 48.152 188.89 53.5892C189.35 57.552 189.765 61.5147 190.271 65.4774C190.916 70.3157 191.331 75.1999 191.607 80.0382C191.699 81.9274 191.837 83.7705 191.975 85.6597C192.021 86.443 192.205 87.2264 192.251 88.0558C192.251 88.3783 192.159 88.7009 192.021 88.9773C191.975 89.0695 191.929 89.1156 191.883 89.1617C191.883 89.8989 191.975 90.6822 192.021 91.4195C192.39 91.5116 192.666 91.8342 192.712 92.2028C192.758 92.4793 192.758 92.7558 192.758 93.0322C192.712 94.3685 192.712 95.7508 192.666 97.1332C192.804 97.3636 193.126 97.3636 193.357 97.3636C194.001 97.3636 194.692 97.4097 195.337 97.3175C196.718 97.041 198.146 97.041 199.527 97.2714C201.507 97.5479 203.441 97.5018 205.421 97.5479C208.414 97.5479 211.408 97.5018 214.447 97.4557C215.46 97.4097 216.519 97.2714 217.532 97.1332C218.683 96.995 219.834 96.8106 220.986 96.6263C221.446 96.5803 221.907 96.5803 222.597 96.5342C222.689 95.1058 222.735 93.7695 222.597 92.3871C222.321 89.7607 222.045 87.2724 221.63 84.8303Z" fill="#FF7071"/>
<path d="M235.721 54.6948C233.787 52.8056 231.807 50.9164 229.873 49.0272C227.755 46.9998 225.36 45.387 223.104 43.5439C222.874 43.3596 222.644 43.2213 222.413 43.0831C219.558 41.2861 216.703 39.4429 213.802 37.738C210.993 36.1253 208.231 34.4665 205.237 33.1763C202.521 32.0243 199.712 31.0567 196.903 30.1812C196.12 29.9047 195.291 29.6743 194.508 29.3979C192.896 28.891 191.239 28.5224 189.535 28.4763C188.153 28.4302 186.818 28.292 185.437 28.292C184.608 28.292 183.733 28.3381 182.904 28.3841C182.766 28.3841 182.674 28.4763 182.397 28.5685C182.674 28.7528 182.812 28.891 182.996 28.9371C183.549 29.1675 184.147 29.3979 184.7 29.6283C186.634 30.4116 188.384 31.4714 189.995 32.7616C190.732 33.3606 191.469 33.9135 192.252 34.4204C194.094 35.6184 195.705 37.139 197.271 38.7057C197.593 39.0282 197.87 39.4429 198.146 39.8116C198.192 39.8576 198.238 39.9498 198.238 40.0419C198.837 40.687 199.481 41.2861 199.988 42.0233C200.402 42.2998 200.817 42.6223 201.139 42.9449C202.797 44.6959 204.455 46.539 205.79 48.5664C205.836 48.6125 205.836 48.6586 205.882 48.6586C207.678 50.686 208.967 52.9899 210.165 55.4321C210.625 56.3537 211.178 57.2291 211.638 58.1507C212.605 59.8556 213.526 61.6066 214.493 63.3575C214.677 63.7262 214.908 64.0948 215.138 64.5556C215.322 64.3713 215.506 64.233 215.644 64.0487C216.519 62.7585 217.716 61.7448 219.052 60.9154C223.242 58.335 227.755 56.7223 232.59 56.0772C233.419 55.985 234.248 55.8468 235.123 55.7546C235.491 55.7086 235.86 55.6164 236.32 55.5242C236.09 55.1556 235.906 54.8791 235.721 54.6948Z" fill="white"/>
<path d="M217.486 67.3203C219.236 70.9605 220.387 74.5546 221.63 78.1487C222.736 81.3742 223.426 84.6457 223.795 88.0094C223.979 90.0369 224.117 92.0183 224.255 94.0457C224.301 94.9212 224.209 95.7967 224.163 96.7643C224.439 96.8104 224.716 96.9486 224.946 96.9026C226.373 96.7643 227.847 96.7643 229.275 96.8565C230.011 96.9025 230.748 96.7182 231.531 96.6261C231.945 96.58 232.36 96.58 232.774 96.58C235.583 96.6261 238.392 96.7182 241.201 96.7643C242.214 96.7643 243.273 96.8104 244.286 96.8104C245.023 96.8104 245.76 96.7643 246.543 96.6722C247.187 96.6261 247.832 96.5339 248.477 96.4418C250.319 96.1192 252.115 96.3957 253.91 96.58C254.233 96.6261 254.555 96.6261 254.831 96.6261C255.2 96.3496 255.108 96.0271 255.062 95.7045C254.785 92.5712 254.463 89.4379 253.772 86.3967C253.358 84.4614 252.897 82.5722 252.437 80.6369C251.976 78.5173 251.101 76.536 250.088 74.5085C249.306 74.4164 248.477 74.3242 247.648 74.2321C240.925 73.633 234.294 72.4811 227.709 70.9144C224.393 70.1311 221.124 69.0252 218.085 67.4585C217.993 67.4585 217.855 67.4125 217.486 67.3203Z" fill="white"/>
<path d="M223.61 98.7455C223.472 98.6073 223.472 98.5612 223.426 98.5612C222.321 97.9622 221.17 97.7318 219.927 98.2386C217.762 98.4229 215.644 98.8376 213.48 98.7916C212.191 98.7916 210.855 98.9759 209.566 98.9759C206.619 98.9298 203.672 98.9298 200.724 98.7455C198.744 98.6073 196.81 98.4229 194.876 98.7916C194.232 98.9298 193.587 98.7916 192.896 98.7916C192.574 98.7916 192.252 98.8377 191.883 98.8377C191.653 99.4827 191.745 100.082 191.883 100.681C192.344 102.616 192.988 104.459 193.817 106.256C194.922 108.698 196.764 110.495 198.929 111.924C200.448 112.938 202.244 113.26 203.994 113.398C205.56 113.537 207.171 113.583 208.783 113.675C211.592 113.859 214.171 113.076 216.565 111.74C218.315 110.818 219.604 109.39 220.617 107.731C221.124 106.901 221.584 106.026 222.045 105.15C222.782 103.768 223.196 102.294 223.38 100.727C223.472 100.036 223.564 99.3906 223.61 98.7455Z" fill="#FF7071"/>
<path d="M225.453 98.561C225.499 99.0218 225.499 99.2983 225.591 99.5748C225.913 100.819 226.235 102.017 226.512 103.261C226.788 104.597 227.433 105.703 228.169 106.809C229.643 109.067 231.577 110.772 233.695 112.385C235.952 114.089 238.576 114.735 241.339 114.827C242.629 114.873 243.872 114.873 245.115 114.55C246.036 114.32 246.911 113.951 247.648 113.398C249.812 111.924 251.608 110.081 252.851 107.777C253.174 107.178 253.542 106.533 253.864 105.934C255.016 103.63 255.154 101.188 254.785 98.6071C254.417 98.561 254.095 98.4689 253.818 98.4228C253.22 98.3306 252.621 98.2385 252.023 98.2385C250.503 98.2385 249.029 98.2846 247.51 98.3306C246.359 98.3767 245.161 98.4228 244.01 98.4689C243.089 98.4689 242.122 98.4689 241.201 98.4228C238.484 98.4228 235.767 98.515 233.051 98.2385C232.498 98.1924 231.945 98.2846 231.393 98.2846C230.472 98.3306 229.505 98.4228 228.584 98.4228C227.571 98.4689 226.604 98.4228 225.453 98.561Z" fill="white"/>
<path d="M160.432 99.1142C160.478 102.017 161.031 104.597 162.504 106.947C162.919 107.593 163.425 108.284 164.024 108.791C165.359 109.896 166.741 110.956 168.122 111.97C169.688 113.03 171.53 113.491 173.418 113.767C176.825 114.182 180.049 113.537 183.088 112.108C185.62 110.956 187.37 108.975 188.706 106.579C188.89 106.256 188.982 105.888 189.12 105.519C189.719 103.584 189.995 101.602 190.087 99.575C190.087 99.3906 190.087 99.2063 190.087 99.022C190.041 98.5152 189.811 98.2848 189.304 98.1926C188.798 98.1465 188.245 98.0544 187.785 98.1004C185.528 98.4691 183.226 98.423 180.923 98.4691C179.68 98.5152 178.391 98.5612 177.148 98.5152C175.444 98.4691 173.786 98.6995 172.082 98.7916C171.161 98.8377 170.194 98.7916 169.273 98.8377C168.03 98.8377 166.741 98.8838 165.497 98.9299C164.392 98.9759 163.241 98.9759 162.136 99.022C161.583 99.022 161.077 99.0681 160.432 99.1142Z" fill="white"/>
<path d="M129.534 98.976C129.442 100.45 129.626 101.741 129.994 102.985C130.317 104.091 130.685 105.243 131.007 106.348C131.33 107.454 131.928 108.376 132.757 109.205C133.862 110.357 135.06 111.371 136.441 112.2C136.994 112.523 137.592 112.799 138.237 112.938C139.664 113.214 141.092 113.491 142.519 113.767C145.374 114.32 148.091 113.859 150.716 112.615C150.992 112.477 151.315 112.339 151.591 112.2C153.387 111.325 154.768 110.035 155.597 108.238C156.058 107.27 156.472 106.256 156.887 105.289C157.255 104.321 157.577 103.353 157.9 102.386C158.406 100.957 158.452 100.773 158.038 98.9299C157.854 98.9299 157.669 98.8838 157.531 98.8838C153.709 99.2064 149.841 99.0681 146.019 98.8838C143.348 98.7917 140.678 98.7456 138.007 98.6073C137.178 98.5613 136.303 98.4691 135.474 98.423C135.06 98.377 134.645 98.377 134.231 98.377C133.862 98.377 133.494 98.423 133.126 98.4691C131.974 98.6073 130.823 98.7917 129.534 98.976Z" fill="#FF7071"/>
<path d="M127.784 99.0681C127.508 99.0221 127.185 98.9299 126.909 98.9299C125.251 98.9299 123.64 99.0681 121.982 98.9299C120.094 98.8378 118.252 98.5613 116.41 98.3309C114.798 98.1466 113.187 97.8701 111.529 97.7319C110.378 97.6397 109.18 97.6858 108.029 97.7779C106.049 98.0083 104.023 98.2848 101.997 98.1466C101.49 98.1005 100.984 98.0544 100.477 98.3309C100.293 99.0221 100.201 99.6672 100.385 100.404C100.615 101.418 100.754 102.432 101.03 103.399C101.628 105.473 102.688 107.27 104.253 108.745C105.22 109.712 106.187 110.68 107.431 111.279C109.134 112.154 110.884 112.707 112.818 112.753C114.844 112.799 116.824 112.707 118.851 112.523C121.429 112.293 123.363 111.049 124.883 109.113C125.666 108.099 126.31 106.994 126.633 105.749C127.139 103.999 127.508 102.201 127.922 100.45C128.014 100.082 128.106 99.575 127.784 99.0681Z" fill="white"/>
<path d="M92.0505 13.8239C93.0636 13.5474 93.3859 12.8562 93.5241 12.0268C93.6162 11.4739 93.6162 10.921 93.5241 10.3219C93.478 9.81507 93.6622 9.40037 94.0306 9.1239C94.8134 8.52488 95.5962 7.92587 96.4251 7.37293C97.1158 6.91214 97.8986 6.77391 98.7275 6.95822C99.2801 7.05038 99.8327 7.18861 100.339 7.41901C101.859 8.0641 103.24 8.89351 104.438 10.0915C105.405 11.0592 105.957 12.2572 105.957 13.6396C105.957 14.3768 105.911 15.1602 105.865 15.8974C105.865 16.3121 105.865 16.7268 105.865 17.0954C106.325 17.3719 106.556 17.0954 106.786 16.865C107.615 15.9435 108.674 15.7131 109.825 15.8513C112.496 16.1278 114.384 17.6023 115.857 19.768C116.226 20.3209 116.41 20.966 116.41 21.6111C116.41 21.9797 116.41 22.3484 116.41 22.717C116.41 23.5464 116.226 24.2836 115.719 24.9748C115.397 25.4817 115.167 26.0807 114.983 26.6336C114.844 26.9562 114.937 27.2787 115.259 27.5091C115.581 27.6934 115.996 27.6474 116.272 27.2787C116.871 26.4493 117.561 25.6199 117.884 24.6523C118.482 22.9935 120.232 22.0258 121.752 22.3944C123.271 22.7631 124.699 23.316 125.528 24.8366C126.034 25.8042 126.218 26.864 126.08 27.9699C126.034 28.3846 125.804 28.7532 125.666 29.1679C125.574 29.3983 125.389 29.5366 125.251 29.7209C124.561 30.9189 123.501 31.4719 122.12 31.4258C121.475 31.4258 120.831 31.6562 120.186 31.7022C118.943 31.7944 117.653 31.9326 116.41 31.9326C112.404 31.8866 108.444 32.2091 104.484 32.3934C101.352 32.5777 98.221 32.5777 95.0437 32.5777C89.9783 32.6238 84.913 32.5777 79.8477 32.5777C79.3872 32.5777 78.9268 32.4395 78.4663 32.4395C77.8216 32.4856 77.1769 32.5777 76.5322 32.6238C75.7034 32.6699 74.8745 32.762 73.9996 32.762C73.1247 32.762 72.2958 32.4395 71.6511 31.8866C70.6381 31.0111 69.625 30.0434 68.704 29.0758C68.4277 28.7993 68.2896 28.3385 68.1975 27.9699C67.8752 26.7258 68.0594 25.4356 68.2896 24.1915C68.4738 23.2238 68.7961 22.2562 69.2106 21.3807C70.2236 19.169 71.9735 17.6484 74.2298 16.6807C75.0587 16.3121 75.9797 16.22 76.8546 16.5425C77.5914 16.819 78.0058 16.4964 78.4663 16.0356C78.7426 15.7592 78.7426 15.2523 78.3742 15.068C78.0979 14.9298 77.7755 14.7915 77.4532 14.6994C76.3941 14.3768 75.7955 13.6396 75.6113 12.5798C75.5192 11.9808 75.4731 11.3357 75.6113 10.7827C76.302 7.09646 78.19 4.42392 82.5185 3.08765C83.6237 2.7651 84.7288 2.81118 85.834 3.22588C87.1694 3.73274 88.3667 4.47 89.4718 5.29941C89.656 5.43764 89.8402 5.57587 89.9783 5.80627C91.2216 7.55724 92.1426 9.44645 91.9124 11.7043C91.8203 12.4415 91.6821 13.0866 92.0505 13.8239Z" fill="white"/>
<path d="M231.761 174.129C230.886 173.669 230.057 173.254 229.689 172.286C229.459 171.779 228.998 171.595 228.446 171.595C227.433 171.595 226.604 171.964 225.913 172.655C225.222 173.346 224.578 174.083 223.933 174.821C223.012 175.834 222.828 177.171 222.459 178.415C221.907 180.396 222.137 182.331 222.736 184.221C222.828 184.451 222.874 184.681 223.012 184.866C223.841 185.879 224.624 186.893 225.499 187.907C226.097 188.598 226.972 189.059 227.709 189.566C228.538 190.165 229.413 190.303 230.334 190.303C231.761 190.303 233.143 190.257 234.57 190.211C236.274 190.165 237.932 190.211 239.635 190.119C242.122 190.026 244.609 190.072 247.095 190.119C250.457 190.211 253.864 190.119 257.226 190.119C259.943 190.119 262.66 190.165 265.376 190.211C266.297 190.211 267.264 190.211 268.185 190.165C269.06 190.165 269.981 190.119 270.856 190.349C271.317 190.441 271.777 190.441 272.238 190.441C273.067 190.441 273.941 190.395 274.77 190.349C275.369 190.303 275.968 190.211 276.566 190.026C277.441 189.75 278.132 189.197 278.546 188.368C280.849 183.852 280.48 179.152 276.935 175.189C276.198 174.36 275.369 173.715 274.448 173.116C273.067 172.194 271.593 171.733 269.935 171.825C269.383 171.872 268.83 171.825 268.37 172.332C268.093 172.609 267.771 172.517 267.495 172.24C267.357 172.056 267.218 171.872 267.08 171.641C266.896 171.365 266.988 171.042 267.264 170.904C269.198 169.66 269.198 167.725 269.152 165.789C269.106 164.499 268.692 163.209 268.185 161.965C267.955 161.458 267.633 160.951 267.264 160.536C266.39 159.569 265.515 158.555 264.548 157.726C262.844 156.251 260.864 155.376 258.653 154.915C256.581 154.5 254.463 154.5 252.345 154.684C250.411 154.823 248.753 155.744 247.372 157.08C246.405 158.048 245.622 159.154 244.977 160.398C244.517 161.227 244.24 162.103 244.286 163.071C244.286 163.485 244.194 163.9 244.056 164.315C243.964 164.637 243.504 164.776 243.227 164.545C242.997 164.361 242.813 164.176 242.629 163.946C241.385 162.518 239.774 162.379 238.116 162.978C237.103 163.347 236.182 163.9 235.261 164.453C234.524 164.868 233.879 165.421 233.189 165.927C232.406 166.526 231.899 167.31 231.715 168.231C231.485 169.475 231.393 170.766 231.807 171.964C231.899 172.286 232.037 172.609 232.084 172.885C232.268 173.438 232.176 173.807 231.761 174.129Z" fill="white"/>
<path d="M94.3988 6.68153C95.2276 6.03643 95.9184 5.48349 96.6091 4.93055C97.6682 4.10115 98.8654 3.82468 100.155 3.96291C101.306 4.10115 102.365 4.37761 103.332 4.97663C104.345 5.57565 105.312 6.22075 106.279 6.86584C107.154 7.51094 107.845 8.34035 108.351 9.30799C108.72 9.95308 108.996 10.6443 109.042 11.4276C109.088 11.8884 109.18 12.3492 109.272 12.856C110.884 12.6717 112.404 12.7178 113.877 13.3168C115.305 13.9158 116.548 14.8374 117.653 15.9893C118.758 17.1413 119.403 18.5236 119.541 20.0442C119.863 20.2746 120.048 20.0903 120.232 19.9521C121.613 19.1687 122.995 19.2148 124.422 19.7217C124.975 19.906 125.527 20.2285 126.08 20.4589C127.646 21.1962 128.474 22.4864 128.889 24.0991C129.027 24.6521 129.073 25.205 129.165 25.7579C129.303 26.8638 129.027 27.8775 128.382 28.8452C128.152 29.1677 127.968 29.4442 127.784 29.7667C126.955 31.2873 125.573 31.8863 124.008 32.1167C123.317 32.2089 122.626 32.255 121.936 32.0246C121.521 31.8863 121.015 31.8403 120.554 31.8863C117.377 31.9785 114.2 32.0706 110.976 32.2089C108.582 32.301 106.187 32.4854 103.793 32.5775C101.49 32.6697 99.1878 32.7157 96.8854 32.7618C91.2675 32.8079 85.6496 32.8079 79.9856 32.7618C79.387 32.7618 78.7884 32.5775 78.1898 32.6236C77.6372 32.6697 77.0846 32.9001 76.532 32.9461C74.7822 33.0383 73.1705 32.7157 71.7891 31.5638C70.822 30.7344 69.9471 29.8589 69.0262 28.9834C68.2433 28.2462 67.875 27.2785 67.8289 26.2187C67.6447 23.3158 68.2433 20.5511 69.809 18.155C71.0983 16.1737 72.8482 14.5609 75.1966 13.8237C75.4269 13.7315 75.6111 13.6393 75.7953 13.5933C75.9794 13.2246 75.7032 13.0403 75.6111 12.8099C75.1045 11.658 75.0124 10.4599 75.2427 9.21583C75.565 7.64917 76.0715 6.12859 76.9925 4.79232C78.9265 1.93547 81.6434 0.368806 85.051 0.000179842C86.1101 -0.0919767 87.0771 0.184493 88.0441 0.599197C89.3334 1.15214 90.5768 1.84331 91.6819 2.7188C92.5108 3.36389 93.1094 4.1933 93.5699 5.11487C93.8922 5.62173 94.1225 6.08251 94.3988 6.68153ZM93.4317 12.4413C93.0634 11.7041 93.2015 11.059 93.2476 10.4139C93.4778 8.15603 92.5568 6.3129 91.3135 4.51585C91.1754 4.33154 90.9912 4.1933 90.807 4.00899C89.7018 3.1335 88.5046 2.39625 87.1692 1.93547C86.064 1.52076 85.0049 1.47468 83.8537 1.79723C79.5252 3.1335 77.6372 5.80604 76.9465 9.4923C76.8544 10.0913 76.8544 10.7364 76.9465 11.2894C77.1307 12.3492 77.6832 13.0864 78.7884 13.409C79.1107 13.5011 79.4331 13.5933 79.7094 13.7776C80.0777 13.9619 80.0777 14.4688 79.8015 14.7452C79.341 15.1599 78.8805 15.5286 78.1898 15.2521C77.3148 14.8835 76.4399 15.0217 75.565 15.3903C73.3086 16.358 71.6049 17.8785 70.5457 20.0903C70.1313 20.9658 69.855 21.9334 69.6248 22.9011C69.3485 24.1452 69.2103 25.3893 69.5327 26.6795C69.6248 27.0942 69.7629 27.5089 70.0392 27.7854C71.0062 28.753 71.9732 29.6746 72.9863 30.5961C73.631 31.1491 74.4599 31.4256 75.3348 31.4716C76.1636 31.4716 76.9925 31.4256 77.8674 31.3334C78.5121 31.2873 79.1568 31.1491 79.8015 31.1491C80.2619 31.1491 80.7224 31.2873 81.1829 31.2873C86.2482 31.2873 91.3135 31.2873 96.3788 31.2873C99.5101 31.2873 102.687 31.2873 105.819 31.103C109.779 30.8726 113.785 30.5961 117.745 30.6422C118.989 30.6422 120.278 30.504 121.521 30.4118C122.166 30.3658 122.811 30.0893 123.455 30.1354C124.883 30.1814 125.896 29.6285 126.586 28.4305C126.725 28.2462 126.909 28.0618 127.001 27.8775C127.185 27.5089 127.369 27.0942 127.415 26.6795C127.554 25.5736 127.369 24.5138 126.863 23.5462C126.08 22.0256 124.652 21.4727 123.087 21.104C121.567 20.7354 119.817 21.703 119.219 23.3619C118.896 24.3295 118.16 25.1128 117.607 25.9883C117.377 26.3569 116.916 26.403 116.594 26.2187C116.272 25.9883 116.18 25.6658 116.318 25.3432C116.502 24.7903 116.732 24.1913 117.055 23.6844C117.515 22.9932 117.745 22.256 117.745 21.4266C117.745 21.0579 117.745 20.6893 117.745 20.3207C117.745 19.6295 117.561 19.0305 117.193 18.4776C115.719 16.358 113.831 14.8374 111.16 14.5609C109.963 14.4227 108.95 14.6531 108.121 15.5746C107.891 15.805 107.661 16.0815 107.2 15.805C107.2 15.4364 107.2 15.0217 107.2 14.607C107.246 13.8697 107.292 13.0864 107.292 12.3492C107.292 10.9668 106.786 9.81485 105.773 8.80113C104.575 7.60309 103.194 6.77368 101.674 6.12859C101.168 5.8982 100.615 5.80604 100.063 5.66781C99.2338 5.52957 98.451 5.62173 97.7603 6.08251C96.9314 6.63545 96.1486 7.23447 95.3658 7.83348C94.9513 8.15603 94.8132 8.52466 94.8592 9.03152C94.9053 9.58446 94.9053 10.1835 94.8592 10.7364C94.7671 11.4276 94.4448 12.1188 93.4317 12.4413Z" fill="#A5A3B8"/>
<path d="M268.6 169.015C270.165 169.061 271.501 169.66 272.79 170.443C273.849 171.088 274.816 171.825 275.599 172.747C277.579 174.959 278.914 177.539 279.099 180.534C279.283 183.114 278.638 185.557 277.441 187.861C277.026 188.644 276.428 189.197 275.691 189.658C274.862 190.118 273.987 190.395 273.02 190.487C271.823 190.579 270.58 190.579 269.382 190.625C269.106 190.625 268.784 190.671 268.554 190.579C267.863 190.349 267.172 190.395 266.481 190.395C263.488 190.533 260.495 190.579 257.502 190.349C257.087 190.303 256.673 190.303 256.259 190.303C254.509 190.349 252.805 190.441 251.055 190.441C248.891 190.441 246.727 190.533 244.562 190.395C242.628 190.303 240.74 190.211 238.806 190.349C234.524 190.579 230.287 190.671 226.005 190.579C224.992 190.579 224.117 190.441 223.564 189.519C223.472 189.381 223.38 189.289 223.288 189.197C221.953 188.183 220.847 186.985 219.973 185.603C219.88 185.464 219.742 185.326 219.604 185.188C219.144 184.727 218.821 184.128 218.683 183.483C218.499 182.562 218.223 181.64 218.085 180.718C217.992 180.073 217.992 179.428 218.085 178.783C218.177 178 218.315 177.216 218.499 176.433C218.959 174.682 219.65 173.069 220.94 171.733C221.446 171.226 221.907 170.719 222.413 170.213C223.242 169.429 224.209 168.83 225.406 168.784C226.143 168.738 226.88 168.784 227.663 168.784C227.709 168.369 227.755 167.955 227.801 167.54C227.985 165.973 228.584 164.637 229.827 163.623C231.393 162.379 233.05 161.181 234.938 160.444C236.458 159.845 238.023 159.661 239.589 160.26C239.773 160.352 240.004 160.352 240.28 160.398C240.832 158.555 241.892 157.034 242.997 155.56C244.562 153.486 246.635 152.288 249.121 151.92C252.206 151.413 255.292 151.643 258.285 152.565C260.127 153.118 261.876 153.993 263.304 155.329C264.271 156.205 265.146 157.172 266.067 158.14C266.666 158.739 267.126 159.476 267.402 160.26C267.771 161.412 268.093 162.61 268.369 163.808C268.646 165.006 268.507 166.25 268.185 167.448C268.047 167.909 267.955 168.323 267.817 168.876C268.047 168.922 268.323 168.968 268.6 169.015ZM227.386 170.95C227.156 170.443 226.696 170.259 226.143 170.259C225.13 170.259 224.301 170.627 223.61 171.318C222.92 172.01 222.275 172.747 221.63 173.484C220.709 174.498 220.525 175.834 220.157 177.078C219.604 179.06 219.834 180.995 220.433 182.884C220.525 183.114 220.571 183.345 220.709 183.529C221.538 184.543 222.321 185.557 223.196 186.57C223.795 187.262 224.669 187.722 225.406 188.229C226.235 188.828 227.11 188.966 228.031 188.966C229.459 188.966 230.84 188.92 232.267 188.874C233.971 188.828 235.629 188.874 237.333 188.782C239.819 188.69 242.306 188.736 244.793 188.782C248.154 188.874 251.562 188.782 254.923 188.782C257.64 188.782 260.357 188.828 263.074 188.874C263.995 188.874 264.962 188.874 265.883 188.828C266.758 188.828 267.679 188.782 268.554 189.013C269.014 189.105 269.474 189.105 269.935 189.105C270.764 189.105 271.639 189.059 272.468 189.013C273.066 188.966 273.665 188.874 274.263 188.69C275.138 188.414 275.829 187.861 276.244 187.031C278.546 182.515 278.178 177.815 274.632 173.853C273.895 173.023 273.066 172.378 272.145 171.779C270.764 170.858 269.29 170.397 267.633 170.489C267.08 170.535 266.527 170.489 266.067 170.996C265.791 171.272 265.468 171.18 265.192 170.904C265.054 170.719 264.916 170.535 264.778 170.305C264.593 170.028 264.685 169.706 264.962 169.567C266.896 168.323 266.896 166.388 266.85 164.453C266.804 163.163 266.389 161.872 265.883 160.628C265.652 160.121 265.33 159.615 264.962 159.2C264.087 158.232 263.212 157.218 262.245 156.389C260.541 154.915 258.561 154.039 256.351 153.578C254.279 153.164 252.16 153.164 250.042 153.348C248.108 153.486 246.45 154.408 245.069 155.744C244.102 156.712 243.319 157.818 242.674 159.062C242.214 159.891 241.938 160.767 241.984 161.734C241.984 162.149 241.892 162.564 241.753 162.978C241.661 163.301 241.201 163.439 240.925 163.209C240.694 163.024 240.51 162.84 240.326 162.61C239.083 161.181 237.471 161.043 235.813 161.642C234.8 162.011 233.879 162.564 232.958 163.117C232.221 163.531 231.577 164.084 230.886 164.591C230.103 165.19 229.597 165.973 229.412 166.895C229.182 168.139 229.09 169.429 229.505 170.627C229.597 170.95 229.735 171.272 229.781 171.549C229.873 171.964 229.781 172.286 229.32 172.655C228.538 172.286 227.755 171.871 227.386 170.95Z" fill="#A5A3B8"/>
<path d="M165.037 203.897C163.011 201.086 160.893 198.321 158.959 195.464C154.4 188.829 149.887 182.102 145.283 175.466C141.414 169.845 137.592 164.223 133.586 158.74C129.672 153.303 125.62 147.911 121.568 142.612C117.976 137.912 114.845 132.89 111.575 127.96C110.654 126.577 109.825 125.057 108.95 123.628C108.352 122.661 107.661 121.785 107.108 120.817C105.911 118.79 104.53 116.901 103.056 115.058C101.997 113.767 101.076 112.431 100.247 111.003C99.7408 110.127 99.0961 109.298 98.5435 108.422C98.2672 108.008 97.9909 107.547 97.7146 107.086C97.4844 106.717 97.3463 106.257 97.4844 105.888C97.7146 105.289 97.5305 104.782 97.4384 104.229C97.1621 102.663 96.8858 101.096 96.6555 99.5293C96.5634 98.9763 96.5174 98.4694 95.9648 98.1008C95.4122 97.7322 95.5504 97.0871 96.103 96.7185C96.3332 96.5802 96.6095 96.4881 96.9318 96.3959C97.2081 94.9675 97.4844 93.5391 97.7607 92.1106C97.9909 90.9126 98.1751 89.7146 98.4054 88.5165C98.4975 88.0097 98.6356 87.5028 99.05 87.1342C99.2803 86.9499 99.7408 86.9038 99.971 87.0881C100.201 87.2724 100.293 87.5489 100.155 87.8254C99.7408 88.6087 99.6947 89.4381 99.5566 90.2675C99.2342 92.0185 98.9119 93.7695 98.5896 95.5204C98.5435 95.7969 98.5896 96.0734 98.5896 96.3499C98.7738 96.3959 98.8659 96.442 99.004 96.442C101.352 96.4881 103.701 96.3038 106.003 96.0734C107.799 95.8891 109.549 95.9812 111.345 96.1655C113.832 96.442 116.226 96.9489 118.713 97.1793C120.785 97.3636 122.811 97.3175 124.883 97.3175C125.205 97.3175 125.482 97.1793 125.804 97.1332C126.034 94.7832 126.449 92.5254 127.001 90.2675C127.462 88.2861 127.922 86.3509 128.429 84.3695C128.659 83.4479 129.027 82.5724 129.35 81.697C129.442 81.4205 129.672 81.144 129.902 80.9136C130.179 80.6372 130.731 80.8215 130.777 81.1901C130.823 81.4666 130.823 81.743 130.731 82.0195C130.501 82.7568 130.225 83.4479 130.041 84.1391C129.074 87.8254 128.199 91.5116 127.554 95.244C127.508 95.6126 127.462 95.9812 127.462 96.3499C127.462 96.6263 127.554 96.8567 127.646 97.0871C128.429 97.3175 129.12 97.0871 129.81 96.9489C131.1 96.6724 132.435 96.5802 133.724 96.7646C135.704 97.041 137.639 96.9028 139.619 96.9949C140.77 97.041 141.967 97.0871 143.118 97.1332C144.408 97.1793 145.743 97.2714 147.032 97.3175C149.012 97.3636 150.993 97.3636 152.927 97.3636C153.801 97.3636 154.722 97.3175 155.597 97.2714C155.874 97.2714 156.104 97.1332 156.38 97.0871C156.426 96.0734 156.472 95.1518 156.518 94.2302C156.61 92.9861 156.795 91.6959 156.887 90.4518C157.117 87.042 157.577 83.6322 158.36 80.3146C158.683 78.9323 159.005 77.5499 159.189 76.1676C159.696 72.3892 160.11 68.6107 160.847 64.8784C161.031 64.049 161.123 63.2196 161.215 62.3902C161.722 58.1049 162.505 53.8657 163.61 49.6726C163.84 48.751 164.116 47.8755 164.254 46.9539C164.669 44.2814 165.221 41.6089 166.05 38.9824C166.879 36.2638 168.076 33.7295 169.55 31.3334C170.379 29.9971 171.162 28.707 171.944 27.3707C171.991 27.2785 172.037 27.0942 172.083 26.956C171.576 26.8638 171.116 26.9099 170.701 27.0942C170.195 27.3246 169.688 27.555 169.182 27.8315C168.169 28.4305 167.201 29.0756 166.142 29.5824C164.577 30.4118 163.195 31.5177 161.584 32.3011C161.399 32.3932 161.215 32.5775 161.031 32.7618C158.314 35.204 155.367 37.4157 153.019 40.2265C152.742 40.5491 152.42 40.8255 152.144 41.102C151.361 42.0236 150.532 42.9451 149.749 43.8667C149.381 44.2814 149.058 44.7422 148.69 45.203C147.953 46.1706 147.263 47.1843 146.572 48.152C145.605 49.5343 144.73 51.0088 143.717 52.3451C142.612 53.8196 141.599 55.3402 140.816 56.999C139.48 59.948 137.823 62.7588 136.625 65.7539C136.487 66.1686 136.257 66.4911 136.073 66.9058C135.797 67.597 135.474 68.2882 135.244 68.9794C134.231 71.6058 133.264 74.2323 132.251 76.8587C132.113 77.2274 131.836 77.596 131.56 77.9185C131.192 78.3333 130.593 78.1489 130.455 77.596C130.363 77.2734 130.363 76.9509 130.409 76.6284C130.547 75.9372 130.731 75.246 130.962 74.6009C131.652 72.6656 132.389 70.7303 133.126 68.7951C133.402 68.0117 133.678 67.1823 134.047 66.4451C135.152 64.1411 136.257 61.8833 137.408 59.6255C137.639 59.1186 137.869 58.6117 138.145 58.1049C139.066 56.1235 140.125 54.1422 141.414 52.3451C142.612 50.7324 143.763 49.0735 144.868 47.3687C146.48 44.8804 148.414 42.6226 150.394 40.4569C152.696 37.9226 155.137 35.5265 157.808 33.3609C158.867 32.5315 159.834 31.5177 160.939 30.7344C162.044 29.9511 163.333 29.4903 164.347 28.5687C164.531 28.3844 164.853 28.3383 165.083 28.2001C165.498 27.9697 165.912 27.7854 166.327 27.555C166.465 27.4628 166.511 27.3246 166.649 27.0942C165.175 27.0481 163.886 27.2785 162.597 27.5089C160.939 27.8315 159.327 28.2922 157.67 28.6609C154.768 29.306 151.867 29.8589 149.197 31.103C148.966 31.1952 148.782 31.2873 148.552 31.3334C147.263 31.702 146.019 32.255 144.822 32.9001C144.131 33.2687 143.395 33.5912 142.658 33.9599C142.105 34.2363 141.599 34.5128 141.046 34.8354C140.309 35.2501 139.573 35.6648 138.836 36.0795C135.751 37.8305 132.619 39.5814 129.81 41.7932C128.337 42.9451 126.909 44.1893 125.528 45.4794C123.686 47.2765 121.614 48.8432 119.91 50.7784C119.772 50.9167 119.634 51.0549 119.495 51.1471C118.252 52.2069 117.147 53.451 116.134 54.7412C114.522 56.7686 112.911 58.75 111.299 60.7774C109.411 63.1735 107.569 65.6156 106.28 68.3803C105.957 69.0715 105.635 69.7166 105.267 70.4078C104.207 72.297 103.379 74.2784 102.688 76.3519C101.951 78.5636 101.445 80.8676 100.846 83.1254C100.662 83.8166 100.524 84.5077 100.339 85.1528C100.155 85.7519 99.8329 85.9822 99.4645 85.8901C99.0961 85.7979 98.9119 85.4754 99.05 84.8764C99.4645 82.895 99.8789 80.9136 100.339 78.9783C100.662 77.6421 100.984 76.3058 101.445 75.0617C102.319 72.7578 103.333 70.4539 104.3 68.196C105.128 66.2147 106.234 64.3255 107.523 62.6206C109.641 59.7637 111.759 56.9068 114.154 54.2343C114.983 53.2667 115.766 52.2529 116.64 51.3775C118.252 49.7647 119.956 48.1981 121.614 46.5853C122.535 45.7098 123.548 44.9265 124.469 44.051C126.633 41.8853 129.12 40.0883 131.56 38.2912C131.975 37.9687 132.435 37.7383 132.849 37.4618C134.784 36.3559 136.718 35.1579 138.79 34.2363C139.02 34.1442 139.204 34.006 139.388 33.9138C142.289 32.255 145.19 30.6422 148.414 29.6746C148.828 29.5364 149.197 29.3981 149.611 29.2138C150.854 28.6148 152.144 28.2922 153.479 27.9697C155.505 27.5089 157.485 27.0942 159.511 26.5874C162.274 25.8962 165.129 25.4815 167.984 25.3893C168.675 25.3893 169.366 25.2972 170.103 25.2511C171.76 25.1128 173.464 24.9285 175.122 24.7442C175.352 24.7442 175.582 24.6981 175.813 24.7442C177.102 25.1129 178.437 25.0668 179.727 24.9746C182.305 24.8364 184.884 24.9285 187.463 25.0668C189.167 25.1589 190.824 25.4815 192.436 25.9883C193.403 26.2648 194.324 26.5413 195.245 26.8638C197.732 27.7393 200.218 28.5687 202.659 29.5364C206.389 30.9648 209.796 33.0844 213.25 35.0658C215.046 36.0795 216.703 37.3236 218.499 38.3373C221.769 40.1804 224.624 42.5304 227.433 44.9265C230.38 47.4147 233.143 50.0873 235.721 52.9441C235.859 53.1284 236.044 53.2667 236.228 53.451C237.471 53.3588 238.668 53.2206 239.866 53.1745C243.273 53.0363 246.727 52.898 250.134 52.8059C251.24 52.7598 252.391 52.898 253.404 53.451C253.864 53.7275 254.417 53.6353 255.338 53.3588C255.062 52.8059 254.785 52.2529 254.463 51.7461C252.851 49.35 251.516 46.8618 250.273 44.2814C249.858 43.4059 249.398 42.5304 248.753 41.7471C248.523 41.4706 248.385 41.102 248.246 40.7334C247.694 39.4432 247.233 38.1069 246.635 36.8167C246.266 35.9412 245.944 35.0658 245.714 34.1442C245.161 31.5638 244.471 29.0295 244.24 26.403C244.148 25.1589 244.056 23.9609 244.286 22.7629C244.424 22.1178 244.471 21.4727 244.609 20.8276C244.885 19.4913 245.115 18.155 245.484 16.8648C245.76 15.8972 246.128 14.8835 246.589 14.008C247.694 12.0266 249.398 10.506 251.055 8.98546C253.082 7.18841 255.568 6.12861 257.963 4.97665C258.193 4.88449 258.423 4.83841 258.653 4.79234C259.712 4.6541 260.772 4.46979 261.877 4.37763C262.521 4.33155 263.212 4.37763 263.811 4.51587C265.054 4.83841 266.297 5.2992 267.541 5.66782C268.508 5.94429 269.475 6.45115 270.35 6.95801C272.099 7.92566 273.665 9.07761 274.77 10.7825C275.553 11.9805 276.336 13.1325 277.119 14.2845C277.395 14.7452 277.671 15.2982 277.856 15.805C278.408 17.6021 278.823 19.4452 279.007 21.2884C279.467 26.0805 278.132 30.504 276.382 34.8354C276.014 35.803 275.553 36.7246 275.139 37.6461C273.895 40.5491 272.652 43.4059 271.409 46.3088C271.225 46.7236 271.04 47.0922 270.672 47.3226C270.396 47.5069 270.304 47.6912 270.212 48.0137C270.119 48.4285 269.935 48.7971 269.797 49.2118C269.429 50.1334 268.968 50.9628 268.738 51.9304C268.416 53.2206 267.679 54.3265 266.85 55.3402C266.482 55.801 266.205 55.8931 265.883 55.7549C265.515 55.6167 265.423 55.248 265.653 54.649C266.067 53.6353 266.482 52.6677 266.896 51.6539C267.495 50.3177 268.093 48.9814 268.738 47.6912C269.244 46.6314 269.843 45.6177 270.304 44.5579C271.317 42.3 272.238 39.9961 273.205 37.6922C273.665 36.6785 274.172 35.6648 274.586 34.605C275.645 32.1167 276.704 29.6285 277.027 26.8638C277.303 24.5599 277.441 22.3021 276.889 19.9982C276.474 18.3854 276.106 16.8188 275.599 15.2521C275.139 13.8698 274.402 12.6256 273.481 11.4737C272.744 10.5982 272.007 9.76879 271.086 9.12369C269.659 8.06389 268.185 7.55703 266.113 6.95801C265.791 6.86586 265.469 6.81978 265.192 6.63547C264.409 6.26684 263.581 6.17468 262.706 6.22076C261.554 6.31292 260.357 6.45115 259.206 6.58939C258.607 6.68154 258.055 6.86586 257.502 7.18841C257.042 7.46487 256.443 7.60311 255.937 7.8335C255.062 8.24821 254.095 8.61683 253.312 9.16977C252.115 10.0453 250.917 11.0129 249.904 12.1188C248.799 13.2707 248.016 14.6531 247.556 16.2197C246.773 18.7541 246.543 21.3805 246.128 23.9609C246.082 24.2834 246.082 24.606 246.128 24.9285C246.497 28.753 247.187 32.5315 248.661 36.1256C248.799 36.4481 248.891 36.8167 249.029 37.1854C249.49 38.3834 249.95 39.5353 250.595 40.6412C251.009 41.3324 251.47 41.9775 251.838 42.6687C253.082 45.1108 254.233 47.553 255.752 49.8108C256.305 50.6402 256.719 51.5157 257.18 52.3912C258.101 54.05 259.022 55.7549 260.035 57.4137C260.633 58.4274 261.278 59.3951 261.923 60.3627C262.015 60.501 262.153 60.6392 262.337 60.8235C262.752 60.4088 262.89 59.9019 263.12 59.4412C263.581 58.5657 264.041 57.6902 264.548 56.8608C264.824 56.4 265.192 56.3078 265.469 56.4461C265.837 56.6765 266.067 57.1372 265.975 57.5059C265.929 57.6441 265.883 57.7823 265.837 57.8745C265.146 59.349 264.502 60.8696 263.765 62.3441C263.535 62.8049 263.212 63.2196 262.89 63.5882C262.521 63.9568 262.015 63.9568 261.647 63.5882C261.37 63.3117 261.14 63.0353 261.002 62.7127C259.805 60.3166 258.193 58.197 256.811 55.8931C256.581 55.5245 256.351 55.202 256.075 54.8794C255.706 54.8333 255.384 54.8333 255.062 54.8333C252.943 54.7873 250.825 54.7412 248.753 54.8794C245.576 55.1098 242.398 55.202 239.175 55.3863C238.438 55.4323 237.701 55.6627 236.965 55.6627C234.846 55.6627 232.774 55.9853 230.656 56.2618C226.051 56.9069 221.769 58.4274 217.809 60.9157C216.934 61.4686 216.151 62.1137 215.506 62.9431C215.322 63.1735 215.184 63.496 215.046 63.7725C215.46 64.5098 216.105 64.9245 216.749 65.2931C218.361 66.2607 220.111 66.9519 221.907 67.5049C226.834 69.1176 231.899 70.0392 237.011 70.8686C240.28 71.4215 243.596 71.7901 246.911 72.2048C247.233 72.2509 247.556 72.2048 247.878 72.2048C248.246 72.2048 248.615 72.2048 248.983 72.2509C251.009 72.3431 252.989 72.4813 255.016 72.6195C257.088 72.7578 259.16 72.8499 261.186 72.9882C268.139 73.4029 275.047 73.2186 281.954 71.9744C283.335 71.7441 284.763 71.698 286.098 71.2833C287.802 70.7764 289.506 70.2696 291.256 69.8549C292.821 69.4862 294.295 68.9333 295.768 68.2421C296.827 67.7353 297.887 67.2284 298.854 66.5833C299.268 66.3068 299.728 66.0764 300.235 65.846C301.985 65.0627 302.583 62.897 301.432 61.3764C301.11 60.9617 300.695 60.6392 300.281 60.3627C300.005 60.1323 299.636 59.9941 299.268 59.8559C297.748 59.1186 296.229 58.4274 294.709 57.6902C293.788 57.2755 292.775 56.9529 291.762 56.8147C290.703 56.6765 289.644 56.4 288.631 56.0774C287.664 55.801 286.651 55.5245 285.638 55.3402C283.335 54.9716 280.987 54.649 278.684 54.3265C278.178 54.2343 277.625 54.3265 277.165 54.1422C276.198 53.8196 275.231 53.8196 274.264 53.7735C272.882 53.6814 271.455 53.5892 270.073 53.451C269.889 53.451 269.659 53.3588 269.475 53.2667C269.889 51.8843 270.258 51.6539 271.501 51.7C272.836 51.7922 274.218 51.8382 275.553 51.9304C276.29 51.9765 277.073 51.9304 277.809 52.0686C280.112 52.5294 282.46 52.6677 284.717 53.3127C284.947 53.3588 285.177 53.4049 285.407 53.4049C286.927 53.5431 288.355 53.9118 289.736 54.5108C290.427 54.7873 291.163 55.0176 291.854 55.248C294.295 56.0314 296.827 56.5843 299.038 57.9667C299.176 58.0588 299.36 58.151 299.544 58.197C300.603 58.6578 301.478 59.3029 302.353 60.0402C303.182 60.7774 303.597 61.699 303.643 62.7588C303.689 63.5882 303.643 64.5098 303.044 65.1549C302.261 65.9843 301.478 66.8137 300.511 67.3666C299.314 68.0578 298.071 68.749 296.827 69.3941C295.17 70.1774 293.466 70.8225 291.67 71.2833C289.229 71.8823 286.835 72.7117 284.348 73.3107C281.493 74.048 278.546 74.4627 275.599 74.7391C270.856 75.1999 266.113 75.1999 261.416 74.9695C257.778 74.8313 254.095 74.6009 250.457 74.3705C250.227 74.3705 250.042 74.4166 249.766 74.4627C249.812 74.6931 249.812 74.8313 249.904 74.9695C250.825 76.7205 251.332 78.6558 251.838 80.545C252.621 83.5401 253.266 86.5813 253.68 89.6224C253.956 91.742 254.141 93.9077 254.371 96.0734C254.417 96.3959 254.371 96.7646 254.509 97.041C254.831 97.64 254.693 98.2391 254.417 98.6538C253.956 99.3449 253.956 100.036 253.956 100.819C253.956 102.801 253.68 104.736 252.667 106.533C252.529 106.764 252.437 107.04 252.345 107.316C251.838 108.699 251.194 109.989 250.365 111.187C248.569 113.767 246.865 116.394 244.839 118.836C244.517 119.251 244.194 119.665 243.918 120.08C242.306 122.384 240.833 124.78 239.129 127.038C236.873 130.033 234.57 133.028 232.13 135.839C229.597 138.788 227.248 141.921 224.854 145.008C224.624 145.285 224.393 145.608 224.209 145.93C222.736 148.05 221.262 150.169 219.835 152.335C216.842 156.851 213.572 161.228 210.349 165.605C209.428 166.85 208.553 168.14 207.77 169.476C206.757 171.227 205.56 172.84 204.362 174.499C202.521 176.987 200.725 179.521 198.929 182.055C197.778 183.714 196.626 185.373 195.475 187.032C193.219 190.396 190.962 193.759 188.798 197.123C187.186 199.611 185.713 202.192 183.917 204.542C183.779 204.726 183.595 204.91 183.779 205.233C183.917 205.233 184.101 205.279 184.285 205.279C186.864 205.371 189.443 205.463 192.022 205.555C192.989 205.601 194.002 205.601 194.969 205.509C198.192 205.279 201.461 205.325 204.685 205.417C204.915 205.417 205.145 205.463 205.376 205.509C205.652 205.601 205.836 205.832 205.79 206.154C205.744 206.477 205.56 206.707 205.283 206.707C204.777 206.753 204.27 206.707 203.718 206.707C200.725 206.661 197.732 206.615 194.738 206.892C193.679 206.984 192.574 206.938 191.515 206.892C190.318 206.846 189.074 206.753 187.877 206.753C185.529 206.707 183.18 206.753 180.832 206.753C173.74 206.707 166.649 206.846 159.557 206.615C155.459 206.477 151.407 206.753 147.309 206.523C147.263 206.523 147.217 206.523 147.171 206.523C145.19 206.523 143.21 206.523 141.276 206.569C139.434 206.615 137.639 206.846 136.027 207.813C135.566 208.09 135.336 208.412 135.244 208.873C135.198 209.196 135.152 209.518 135.106 209.841C134.968 211.131 134.83 212.467 134.645 213.757C134.369 215.969 134.415 218.135 134.645 220.346C134.737 221.176 134.737 222.051 134.645 222.881C134.553 223.434 134.461 223.987 134.461 224.54C134.461 226.106 134.507 227.627 134.461 229.193C134.369 232.88 134.231 236.612 134.139 240.298C134.093 241.542 134.139 242.833 134.231 244.077C134.369 245.782 135.106 247.302 136.119 248.685C136.764 248.731 137.316 248.823 137.869 248.869C138.928 248.961 140.033 249.145 141.092 249.099C142.842 249.007 144.546 249.145 146.296 249.191C147.032 249.238 147.815 249.191 148.552 249.191C150.486 249.238 152.374 249.33 154.308 249.376C156.61 249.422 158.913 249.514 161.215 249.514C163.748 249.514 166.281 249.376 168.813 249.376C172.589 249.376 176.319 249.468 180.095 249.514C181.43 249.514 182.72 249.606 184.055 249.606C186.91 249.652 189.765 249.79 192.62 249.652C196.212 249.514 199.85 249.514 203.441 249.514C204.685 249.514 205.974 249.422 207.217 249.376C207.402 249.376 207.586 249.33 207.77 249.376C208.783 249.56 209.75 249.33 210.717 249.238C211.684 249.145 212.421 248.639 212.881 247.855C213.894 246.289 214.585 244.676 214.539 242.694C214.493 238.547 214.585 234.446 214.539 230.299C214.493 224.77 214.723 219.241 214.263 213.665C214.171 212.513 213.987 211.407 213.71 210.117C213.388 210.486 213.158 210.762 212.927 211.039C212.467 211.546 212.006 212.145 211.5 212.559C209.934 213.803 208.323 215.047 206.711 216.245C203.395 218.78 199.988 221.176 196.35 223.295C194.6 224.309 192.85 225.323 191.147 226.383C187.371 228.733 183.595 231.083 179.819 233.479C178.115 234.585 176.273 235.368 174.339 236.013C172.037 236.796 169.78 236.566 167.616 235.552C166.511 235.045 165.498 234.354 164.439 233.709C160.018 231.129 155.92 228.088 152.006 224.77C151.177 224.079 150.348 223.388 149.473 222.743C145.144 219.379 140.954 215.785 136.902 212.098C136.303 211.546 135.843 210.9 135.566 210.117C135.474 209.887 135.52 209.564 135.52 209.288C135.52 209.057 135.889 208.873 136.073 209.011C136.349 209.196 136.579 209.426 136.81 209.61C137.408 210.163 138.007 210.762 138.652 211.361C138.974 211.638 139.296 211.914 139.619 212.191C141.829 214.08 143.993 216.015 146.25 217.858C148.552 219.794 150.9 221.637 153.249 223.526C155.828 225.645 158.314 227.857 161.077 229.7C163.195 231.129 165.406 232.511 167.616 233.847C169.366 234.907 171.346 235.184 173.326 234.677C175.076 234.216 176.687 233.525 178.253 232.603C180.509 231.267 182.72 229.839 184.93 228.41C186.772 227.212 188.614 226.014 190.502 224.862C192.298 223.756 194.14 222.743 195.936 221.637C198.238 220.208 200.633 218.872 202.751 217.121C203.672 216.338 204.639 215.6 205.698 214.955C207.862 213.619 209.796 211.96 211.684 210.301C212.145 209.933 212.467 209.38 212.789 208.827C213.204 208.09 212.927 207.445 212.145 207.122C211.868 207.03 211.592 206.938 211.316 206.892C210.487 206.846 209.612 206.799 208.783 206.753C208.461 206.753 208.138 206.707 207.816 206.615C207.54 206.523 207.356 206.247 207.448 205.924C207.494 205.74 207.678 205.509 207.862 205.417C208.046 205.325 208.323 205.325 208.553 205.325C209.52 205.371 210.533 205.371 211.5 205.463C212.053 205.509 212.605 205.74 213.066 206.016C213.802 206.385 214.401 206.938 214.677 207.721C215.092 208.965 215.414 210.209 215.414 211.546C215.414 218.089 215.184 224.586 215.552 231.129C215.69 233.433 215.644 235.737 215.69 238.04C215.69 239.976 215.69 241.911 215.736 243.8C215.736 244.63 215.598 245.413 215.23 246.15C214.861 246.934 214.493 247.671 214.079 248.408C213.434 249.56 212.421 250.297 211.132 250.574C210.118 250.804 209.105 250.804 208.046 250.804C207.586 250.804 207.125 250.804 206.665 250.85C205.79 250.896 204.869 250.942 203.994 250.942C201.231 250.942 198.468 250.804 195.705 250.942C191.837 251.127 188.015 251.081 184.147 251.081C180.279 251.035 176.457 250.942 172.589 250.942C170.195 250.942 167.8 251.035 165.406 251.127C163.84 251.173 162.32 251.265 160.755 251.265C159.511 251.265 158.222 251.265 156.979 251.219C156.426 251.219 155.874 251.127 155.275 251.127C151.683 251.035 148.045 250.942 144.454 250.85C141.783 250.804 139.112 250.988 136.441 250.574C135.612 250.436 134.922 250.159 134.461 249.468C133.172 247.44 132.389 245.275 132.343 242.879C132.343 241.22 132.389 239.607 132.435 237.948C132.527 235.184 132.619 232.419 132.711 229.654C132.757 228.548 132.757 227.396 132.757 226.291C132.757 225.323 132.711 224.309 132.711 223.342C132.711 221.544 132.711 219.794 132.757 217.996C132.803 216.614 132.803 215.278 132.942 213.896C133.126 212.052 133.494 210.163 133.724 208.32C133.816 207.721 134.001 207.214 134.461 206.846C135.474 206.154 136.441 205.463 137.685 205.233C139.066 205.002 140.447 204.864 141.875 204.864C144.592 204.91 147.309 204.91 150.025 204.91C154.722 204.956 159.419 204.956 164.116 205.002C164.439 205.002 164.761 204.956 165.314 204.956C165.544 204.68 165.314 204.311 165.037 203.897ZM220.756 92.2489C220.479 89.7607 220.203 87.3185 219.835 84.8303C219.558 83.1715 219.098 81.5126 218.637 79.8999C218.039 77.8264 217.302 75.799 216.565 73.7715C215.69 71.2372 214.631 68.795 213.296 66.4451C213.204 66.3068 213.158 66.2147 213.112 66.0764C211.362 62.3441 209.428 58.7039 207.31 55.1559C207.171 54.9716 207.079 54.7412 206.987 54.5569C205.329 50.8245 202.889 47.6451 200.494 44.3736C199.896 43.5902 199.205 42.853 198.606 42.1157C198.192 41.6089 197.87 41.0559 197.501 40.503C197.455 40.4108 197.501 40.2265 197.593 40.1344C197.685 40.0422 197.87 39.9961 197.962 40.0422C198.468 40.4108 198.975 40.7334 199.389 41.1481C201.047 42.8991 202.705 44.7422 204.04 46.7696C204.086 46.8157 204.086 46.8618 204.132 46.8618C205.928 48.8892 207.217 51.1931 208.415 53.6353C208.875 54.5569 209.428 55.4324 209.888 56.3539C210.855 58.0588 211.776 59.8098 212.743 61.5608C212.927 61.9294 213.158 62.298 213.388 62.7588C213.572 62.5745 213.756 62.4362 213.894 62.2519C214.769 60.9617 215.967 59.948 217.302 59.1186C221.492 56.5382 226.005 54.9255 230.84 54.2804C231.669 54.1882 232.498 54.05 233.373 53.9578C233.741 53.9118 234.11 53.8196 234.57 53.7275C234.34 53.4049 234.156 53.1284 233.972 52.898C232.037 51.0088 230.057 49.1196 228.123 47.2304C226.005 45.203 223.611 43.5902 221.354 41.7471C221.124 41.5628 220.894 41.4246 220.664 41.2863C217.809 39.4893 214.954 37.6461 212.053 35.9412C209.244 34.3285 206.481 32.6697 203.488 31.3795C200.771 30.2275 197.962 29.2599 195.153 28.3844C194.37 28.1079 193.541 27.8775 192.758 27.6011C191.147 27.0942 189.489 26.7256 187.785 26.6795C186.404 26.6334 185.068 26.4952 183.687 26.4952C182.858 26.4952 181.983 26.5413 181.154 26.5874C181.016 26.5874 180.924 26.6795 180.648 26.7717C180.924 26.956 181.062 27.0942 181.246 27.1403C181.799 27.3707 182.397 27.6011 182.95 27.8315C184.884 28.6148 186.634 29.6746 188.246 30.9648C188.982 31.5638 189.719 32.1167 190.502 32.6236C192.344 33.8216 193.956 35.3422 195.521 36.9089C195.844 37.2314 196.12 37.6461 196.396 38.0148C196.488 38.153 196.58 38.3834 196.58 38.5216C196.58 38.6599 196.442 38.8442 196.304 38.9824C196.212 39.0285 196.028 39.0285 195.936 38.9363C195.797 38.8442 195.659 38.7059 195.521 38.5677C193.403 36.4481 191.147 34.4667 188.614 32.8079C188.292 32.6236 188.015 32.3471 187.739 32.1167C185.851 30.5962 183.779 29.4442 181.523 28.6148C180.878 28.3844 180.279 28.0619 179.588 27.8775C179.588 28.0158 179.542 28.0619 179.542 28.1079C181.476 30.9648 182.72 34.1442 183.825 37.4157C185.575 42.6687 186.542 48.0598 187.14 53.4971C187.601 57.4598 188.015 61.4225 188.522 65.3853C189.167 70.2235 189.581 75.1078 189.857 79.946C189.949 81.8352 190.088 83.6783 190.226 85.5675C190.272 86.3509 190.456 87.1342 190.502 87.9636C190.502 88.2861 190.41 88.6087 190.272 88.8852C190.041 89.2999 189.443 89.2538 189.259 88.8391C189.167 88.6548 189.074 88.3783 189.074 88.194C188.982 87.4567 188.89 86.7195 188.798 85.9362C188.614 83.3097 188.43 80.6832 188.246 78.0568C188.061 75.246 187.877 72.4352 187.509 69.6245C186.956 65.0627 186.496 60.501 185.943 55.9392C185.391 51.3775 184.838 46.8157 183.687 42.3461C182.674 38.3373 181.43 34.4207 179.542 30.6883C178.852 29.306 177.793 28.2462 176.826 27.0942C176.687 26.9099 176.365 26.7717 176.089 26.7717C175.674 26.7256 175.26 26.7717 174.753 26.7717C174.523 27.0481 174.201 27.3707 173.971 27.7393C173.188 28.9834 172.405 30.1815 171.668 31.4256C171.023 32.4854 170.471 33.5452 169.872 34.605C168.353 37.4618 167.432 40.503 166.833 43.6363C166.557 44.9265 166.419 46.2167 166.142 47.5069C165.774 49.4422 165.36 51.3775 164.945 53.3127C164.3 56.5382 163.702 59.7637 163.379 63.0353C163.333 63.5882 163.241 64.1411 163.149 64.6941C162.412 68.6107 161.906 72.5735 161.445 76.5362C161.307 77.596 161.123 78.6558 160.847 79.7156C159.926 83.4479 159.419 87.2724 159.051 91.0969C158.913 92.6636 158.683 94.2763 158.498 95.843C158.452 96.2116 158.452 96.5802 158.406 96.9949C158.729 97.041 159.005 97.1332 159.281 97.0871C161.169 96.9949 163.011 96.9028 164.899 96.8567C165.774 96.8106 166.695 96.9028 167.57 96.9028C168.491 96.9028 169.458 96.9028 170.379 96.8106C172.221 96.6724 174.017 96.4881 175.859 96.5802C176.043 96.5802 176.227 96.6263 176.411 96.5802C178.76 96.5342 181.108 96.442 183.457 96.3499C184.101 96.3038 184.746 96.1195 185.391 96.1195C186.542 96.1195 187.693 96.1655 188.936 96.2116C189.167 95.6587 189.074 95.0597 189.074 94.4606C189.12 93.6773 189.074 92.8479 189.074 92.0646C189.074 91.5116 189.443 91.0969 189.903 91.0969C190.364 91.0969 190.824 91.4656 190.916 91.9263C190.962 92.2028 190.962 92.4793 190.962 92.7557C190.916 94.092 190.916 95.4744 190.87 96.8567C191.008 97.0871 191.331 97.0871 191.561 97.0871C192.206 97.0871 192.896 97.1332 193.541 97.041C194.923 96.7646 196.35 96.7646 197.732 96.9949C199.712 97.2714 201.646 97.2253 203.626 97.2714C206.619 97.2714 209.612 97.2253 212.651 97.1793C213.664 97.1332 214.723 96.9949 215.736 96.8567C216.888 96.7185 218.039 96.5342 219.19 96.3499C219.65 96.3038 220.111 96.3038 220.802 96.2577C220.848 94.9214 220.894 93.5852 220.756 92.2489ZM129.258 110.911C132.297 119.343 135.704 127.637 139.757 135.609C141.507 139.064 143.302 142.566 144.914 146.068C147.355 151.275 149.841 156.528 151.913 161.873C152.973 164.546 154.124 167.126 155.275 169.753C155.459 170.167 155.643 170.628 155.828 171.043C156.61 173.024 157.485 174.913 158.406 176.803C159.281 178.507 160.018 180.304 160.755 182.055C161.722 184.359 162.735 186.617 163.794 188.875C164.761 190.902 165.544 193.022 166.419 195.096C166.971 196.432 167.57 197.768 168.215 199.058C169.182 201.086 170.241 203.067 171.3 205.187C171.622 205.371 172.083 205.371 172.543 205.095C171.898 202.56 171.714 199.934 171.392 197.307C171.116 195.372 170.931 193.391 170.701 191.455C170.517 189.889 170.287 188.276 170.056 186.709C169.642 183.852 169.089 180.95 168.767 178.093C168.261 173.853 167.524 169.66 166.741 165.467C166.142 162.38 165.774 159.247 165.314 156.159C164.439 150.307 163.61 144.456 162.459 138.65C161.998 136.346 161.492 134.042 161.123 131.738C160.663 129.019 160.34 126.255 159.972 123.536C159.327 118.744 158.544 113.998 157.393 109.298C157.117 108.238 156.979 107.178 156.749 106.118C156.426 106.072 156.38 106.303 156.288 106.487C155.782 107.593 155.321 108.745 154.768 109.805C153.847 111.464 152.558 112.708 150.9 113.583C147.124 115.611 143.118 116.21 138.928 115.242C138.283 115.104 137.639 114.919 136.994 114.827C134.415 114.551 132.481 113.122 130.639 111.464C130.133 111.003 129.672 110.45 128.935 109.759C129.12 110.404 129.166 110.634 129.258 110.911ZM176.043 205.279C176.135 205.002 176.273 204.726 176.273 204.496C176.319 201.086 177.056 197.814 177.654 194.497C178.161 191.778 178.668 189.059 179.036 186.295C179.542 182.424 179.957 178.553 180.417 174.683C180.74 171.78 181.016 168.877 181.384 166.02C181.661 163.808 182.075 161.551 182.49 159.339C183.088 155.883 183.549 152.381 183.871 148.879C184.147 145.838 184.562 142.797 184.884 139.802C185.437 135.102 186.035 130.402 186.45 125.656C186.726 122.43 187.094 119.205 187.417 115.979C187.693 113.353 188.015 110.772 188.292 108.146C188.292 108.054 188.246 107.962 188.246 107.731C188.061 107.915 187.877 108.054 187.739 108.238C187.002 109.206 186.265 110.173 185.483 111.095C184.331 112.431 182.858 113.399 181.246 114.09C178.806 115.15 176.273 115.795 173.602 115.841C170.195 115.887 166.971 115.104 164.162 113.076C162.366 111.786 160.571 110.542 159.189 108.745C159.189 108.745 159.097 108.745 158.959 108.745C159.051 109.206 159.143 109.666 159.235 110.081C160.617 115.657 161.538 121.278 162.182 126.992C162.643 131.093 163.426 135.148 164.254 139.203C164.945 142.705 165.544 146.207 166.096 149.755C166.787 154.04 167.34 158.279 168.03 162.564C168.445 165.099 168.997 167.633 169.412 170.167C169.78 172.287 170.01 174.453 170.333 176.572C170.839 180.12 171.438 183.622 171.944 187.124C172.129 188.46 172.313 189.797 172.497 191.179C172.911 194.727 173.326 198.275 173.786 201.823C173.925 202.929 174.201 204.035 174.431 205.279C175.076 205.279 175.536 205.279 176.043 205.279ZM245.714 115.196C243.411 116.348 240.971 116.624 238.438 116.302C237.333 116.163 236.182 116.025 235.123 115.795C233.419 115.38 231.899 114.505 230.518 113.491C227.893 111.556 225.637 109.252 224.025 106.349C223.565 105.519 223.196 104.552 222.874 103.768C222.736 104.183 222.598 104.736 222.413 105.243C221.585 107.224 220.71 109.206 219.835 111.187C217.578 116.302 215.184 121.37 213.066 126.531C210.993 131.508 209.059 136.53 207.402 141.691C206.573 144.271 205.514 146.806 204.501 149.294C203.073 152.75 201.507 156.159 199.896 159.569C198.56 162.334 197.501 165.191 196.304 167.955C195.844 168.969 195.383 170.029 194.923 171.043C194.002 173.024 193.035 175.005 192.16 177.033C191.147 179.383 190.18 181.825 189.213 184.175C188.752 185.235 188.2 186.295 187.739 187.354C187.002 189.059 186.312 190.81 185.575 192.561C184.976 193.99 184.285 195.372 183.687 196.8C182.536 199.473 181.43 202.146 180.325 204.818C180.233 205.002 180.233 205.187 180.187 205.417C180.786 205.601 181.338 205.555 181.983 205.463C182.766 204.311 183.641 203.113 184.378 201.869C185.989 199.104 187.601 196.386 189.397 193.713C190.686 191.824 191.791 189.797 193.173 187.953C195.521 184.682 197.685 181.272 200.126 178.047C201.968 175.651 203.672 173.208 205.376 170.72C206.619 168.923 207.678 167.034 208.921 165.283C211.039 162.288 213.25 159.385 215.414 156.436C217.67 153.257 219.881 150.031 222.091 146.852C222.874 145.746 223.657 144.64 224.44 143.534C226.788 140.355 229.229 137.267 231.853 134.318C234.662 131.093 237.195 127.683 239.82 124.273C240.372 123.582 240.879 122.845 241.339 122.062C242.444 120.311 243.596 118.606 244.977 117.039C245.438 116.486 245.944 115.933 246.22 115.196C245.898 115.196 245.806 115.15 245.714 115.196ZM178.529 205.279C178.714 205.048 178.76 204.772 178.852 204.496C179.911 201.685 180.924 198.874 182.075 196.109C183.641 192.285 185.391 188.552 187.002 184.774C188.153 182.102 189.213 179.383 190.41 176.756C191.377 174.545 192.436 172.425 193.449 170.259C193.817 169.476 194.186 168.739 194.462 167.955C196.028 163.808 197.87 159.846 199.804 155.837C201.876 151.552 203.764 147.128 205.329 142.612C207.586 136.115 210.072 129.664 212.743 123.306C213.434 121.601 214.263 119.988 215.046 118.329C215.921 116.348 216.842 114.413 217.716 112.431C217.809 112.247 217.855 112.016 218.039 111.556C217.532 111.924 217.302 112.109 217.072 112.293C215.138 113.721 213.02 114.873 210.625 115.288C209.842 115.426 209.059 115.518 208.231 115.518C206.02 115.518 203.81 115.472 201.646 115.288C196.626 114.781 193.173 112.016 190.686 107.869C190.548 107.639 190.41 107.409 190.226 107.178C190.226 107.178 190.134 107.178 189.995 107.178C189.995 107.316 189.949 107.501 189.949 107.685C189.673 110.358 189.443 113.03 189.167 115.657C189.028 117.408 188.89 119.113 188.706 120.863C188.476 123.398 188.292 125.932 188.015 128.42C187.601 132.429 187.14 136.438 186.726 140.447C186.404 143.211 186.081 145.93 185.805 148.695C185.575 150.584 185.483 152.519 185.206 154.455C184.7 157.772 184.055 161.136 183.595 164.454C183.18 167.218 182.904 170.029 182.582 172.84C182.121 176.71 181.753 180.581 181.292 184.451C181.016 186.709 180.74 188.921 180.371 191.133C180.095 192.792 179.727 194.45 179.404 196.109C178.944 198.551 178.483 200.994 178.299 203.482C178.253 204.127 178.069 204.772 177.885 205.647C178.115 205.417 178.391 205.417 178.529 205.279ZM169.089 205.325C169.228 205.325 169.366 205.279 169.596 205.233C169.55 205.002 169.504 204.772 169.412 204.588C168.537 202.883 167.616 201.178 166.695 199.473C165.912 198.045 165.221 196.524 164.669 195.003C163.748 192.607 162.689 190.257 161.445 188C160.985 187.124 160.571 186.249 160.202 185.327C158.867 182.055 157.393 178.876 155.874 175.697C154.722 173.301 153.755 170.812 152.696 168.324C149.197 160.122 145.789 151.874 141.829 143.903C139.526 139.249 137.224 134.549 134.968 129.849C133.034 125.794 131.376 121.601 129.902 117.315C129.12 115.104 128.337 112.892 127.6 110.68C127.278 109.666 127.001 108.607 126.679 107.593C126.587 107.316 126.495 107.086 126.357 106.625C125.942 107.455 125.62 108.1 125.298 108.791C123.824 111.74 121.522 113.675 118.252 114.274C115.581 114.781 112.865 114.873 110.102 114.735C108.352 114.643 106.694 114.136 105.128 113.353C104.668 113.122 104.207 112.892 103.701 112.615C103.563 113.03 103.885 113.261 104.023 113.445C106.832 116.993 109.319 120.725 111.621 124.596C114.062 128.697 116.733 132.706 119.403 136.668C121.614 139.94 124.054 143.027 126.403 146.207C128.475 149.017 130.547 151.782 132.619 154.547C136.81 160.168 140.77 165.928 144.684 171.688C149.289 178.461 153.894 185.281 158.498 192.054C160.755 195.326 163.057 198.598 165.36 201.869C166.142 202.975 166.925 204.081 167.754 205.325C168.353 205.371 168.721 205.371 169.089 205.325ZM219.789 78.195C220.894 81.4205 221.585 84.6921 221.953 88.0558C222.137 90.0832 222.275 92.0646 222.413 94.092C222.459 94.9675 222.367 95.843 222.321 96.8106C222.598 96.8567 222.874 96.9949 223.104 96.9489C224.532 96.8106 226.005 96.8106 227.433 96.9028C228.169 96.9489 228.906 96.7646 229.689 96.6724C230.103 96.6263 230.518 96.6263 230.932 96.6263C233.741 96.6724 236.55 96.7646 239.359 96.8106C240.372 96.8106 241.431 96.8567 242.444 96.8567C243.181 96.8567 243.918 96.8106 244.701 96.7185C245.345 96.6724 245.99 96.5802 246.635 96.4881C248.477 96.1655 250.273 96.442 252.068 96.6263C252.391 96.6724 252.713 96.6724 252.989 96.6724C253.358 96.3959 253.266 96.0734 253.22 95.7508C252.943 92.6175 252.621 89.4842 251.93 86.443C251.516 84.5077 251.055 82.6185 250.595 80.6832C250.134 78.5636 249.26 76.5823 248.246 74.5548C247.464 74.4627 246.635 74.3705 245.806 74.2784C239.083 73.6793 232.452 72.5274 225.867 70.9607C222.552 70.1774 219.282 69.0715 216.243 67.5049C216.151 67.4588 216.013 67.4588 215.644 67.3666C217.44 70.9607 218.591 74.6009 219.789 78.195ZM221.585 98.5616C220.479 97.9626 219.328 97.7322 218.085 98.2391C215.921 98.4234 213.802 98.8381 211.638 98.792C210.349 98.792 209.013 98.9763 207.724 98.9763C204.777 98.9302 201.83 98.9302 198.883 98.7459C196.903 98.6077 194.969 98.4234 193.035 98.792C192.39 98.9302 191.745 98.792 191.055 98.792C190.732 98.792 190.41 98.8381 190.041 98.8381C189.811 99.4832 189.903 100.082 190.041 100.681C190.502 102.616 191.147 104.46 191.975 106.257C193.081 108.699 194.923 110.496 197.087 111.924C198.606 112.938 200.402 113.261 202.152 113.399C203.718 113.537 205.329 113.583 206.941 113.675C209.75 113.86 212.329 113.076 214.723 111.74C216.473 110.818 217.763 109.39 218.776 107.731C219.282 106.902 219.743 106.026 220.203 105.151C220.94 103.768 221.354 102.294 221.538 100.727C221.631 100.082 221.677 99.4371 221.723 98.7459C221.631 98.6077 221.631 98.5616 221.585 98.5616ZM223.749 99.5753C224.071 100.819 224.393 102.017 224.67 103.262C224.946 104.598 225.591 105.704 226.327 106.81C227.801 109.067 229.735 110.772 231.853 112.385C234.11 114.09 236.734 114.735 239.497 114.827C240.787 114.873 242.03 114.873 243.273 114.551C244.194 114.32 245.069 113.952 245.806 113.399C247.97 111.924 249.766 110.081 251.009 107.777C251.332 107.178 251.7 106.533 252.022 105.934C253.174 103.63 253.312 101.188 252.943 98.6077C252.575 98.5616 252.253 98.4695 251.976 98.4234C251.378 98.3312 250.779 98.2391 250.18 98.2391C248.661 98.2391 247.187 98.2851 245.668 98.3312C244.517 98.3773 243.319 98.4234 242.168 98.4695C241.247 98.4695 240.28 98.4695 239.359 98.4234C236.642 98.4234 233.925 98.5155 231.209 98.2391C230.656 98.193 230.103 98.2851 229.551 98.2851C228.63 98.3312 227.663 98.4234 226.742 98.4234C225.775 98.4234 224.762 98.3773 223.657 98.5155C223.703 99.0224 223.703 99.2989 223.749 99.5753ZM160.663 106.902C161.077 107.547 161.584 108.238 162.182 108.745C163.518 109.851 164.899 110.911 166.281 111.924C167.846 112.984 169.688 113.445 171.576 113.721C174.984 114.136 178.207 113.491 181.246 112.063C183.779 110.911 185.529 108.929 186.864 106.533C187.048 106.211 187.14 105.842 187.279 105.473C187.877 103.538 188.153 101.557 188.246 99.5293C188.246 99.3449 188.246 99.1606 188.246 98.9763C188.2 98.4695 187.969 98.2391 187.463 98.1469C186.956 98.1008 186.404 98.0087 185.943 98.0547C183.687 98.4234 181.384 98.3773 179.082 98.4234C177.839 98.4695 176.549 98.5155 175.306 98.4695C173.602 98.4234 171.944 98.6538 170.241 98.7459C169.32 98.792 168.353 98.7459 167.432 98.792C166.188 98.792 164.899 98.8381 163.656 98.8842C162.551 98.9302 161.399 98.9302 160.294 98.9763C159.788 98.9763 159.281 99.0224 158.637 99.0685C158.683 102.017 159.189 104.598 160.663 106.902ZM128.153 102.985C128.475 104.091 128.843 105.243 129.166 106.349C129.488 107.455 130.087 108.376 130.915 109.206C132.021 110.358 133.218 111.371 134.599 112.201C135.152 112.523 135.751 112.8 136.395 112.938C137.823 113.215 139.25 113.491 140.678 113.767C143.533 114.32 146.25 113.86 148.874 112.615C149.151 112.477 149.473 112.339 149.749 112.201C151.545 111.325 152.927 110.035 153.755 108.238C154.216 107.27 154.63 106.257 155.045 105.289C155.413 104.321 155.735 103.354 156.058 102.386C156.564 100.958 156.61 100.773 156.196 98.9302C156.012 98.9302 155.828 98.8842 155.689 98.8842C151.867 99.2067 147.999 99.0685 144.177 98.8842C141.507 98.792 138.836 98.7459 136.165 98.6077C135.336 98.5616 134.461 98.4695 133.632 98.4234C133.218 98.3773 132.803 98.3773 132.389 98.3773C132.021 98.3773 131.652 98.4234 131.284 98.4695C130.133 98.6538 128.981 98.8381 127.738 99.0224C127.646 100.405 127.784 101.741 128.153 102.985ZM125.067 98.9302C123.41 98.9302 121.798 99.0685 120.14 98.9302C118.252 98.8381 116.41 98.5616 114.568 98.3312C112.957 98.1469 111.345 97.8704 109.687 97.7322C108.536 97.64 107.339 97.6861 106.188 97.7783C104.207 98.0087 102.181 98.2851 100.155 98.1469C99.6487 98.1008 99.1421 98.0547 98.6356 98.3312C98.4514 99.0224 98.3593 99.6675 98.5435 100.405C98.7738 101.418 98.9119 102.432 99.1882 103.4C99.7868 105.473 100.846 107.27 102.412 108.745C103.379 109.713 104.346 110.68 105.589 111.279C107.293 112.155 109.043 112.708 110.977 112.754C113.003 112.8 114.983 112.708 117.009 112.523C119.588 112.293 121.522 111.049 123.041 109.114C123.824 108.1 124.469 106.994 124.791 105.75C125.298 103.999 125.666 102.202 126.08 100.451C126.172 99.99 126.265 99.5293 125.942 98.9763C125.666 99.0224 125.39 98.9302 125.067 98.9302Z" fill="#A5A3B8"/>
<path d="M58.8036 157.541C58.8036 160.721 59.5404 163.762 60.7376 166.711C61.5204 168.692 61.6586 168.922 64.0991 169.061C64.4215 169.061 64.7438 169.061 65.0662 169.107C66.5397 169.383 68.0593 169.291 69.5328 169.107C72.1115 168.784 74.6902 168.922 77.269 169.015C80.4002 169.107 83.5315 169.107 86.7088 168.922C90.0243 168.738 93.3858 168.784 96.7013 168.83C97.8525 168.83 99.0498 169.015 100.201 169.107C104.944 169.66 109.733 169.614 114.522 169.614C118.758 169.614 122.949 169.66 127.185 169.66C128.843 169.66 130.455 169.66 132.112 169.706C132.435 169.706 132.757 169.706 133.079 169.752C134.415 169.936 135.75 170.12 137.132 170.305C138.099 170.443 138.974 170.213 139.803 169.66C141.552 168.554 142.704 167.079 143.302 165.052C144.315 161.596 144.085 158.278 142.335 155.099C141.368 153.348 138.283 150.537 136.487 149.754C134.461 148.832 132.389 148.832 130.271 149.247C129.764 149.339 129.304 149.616 128.843 149.8C128.475 149.984 128.106 150.215 127.692 150.307C127.462 150.353 127.139 150.215 126.955 150.03C126.725 149.846 126.679 149.523 126.863 149.247C127.83 147.726 127.876 146.022 127.6 144.363C127.277 142.105 126.356 140.077 124.745 138.373C123.363 136.944 121.89 135.654 120.278 134.548C118.666 133.396 116.87 132.751 114.982 132.475C113.325 132.244 111.621 132.152 109.917 132.336C107.569 132.613 105.497 133.488 103.701 135.055C103.01 135.654 102.365 136.207 101.628 136.76C101.352 136.99 100.984 137.175 100.661 137.313C100.017 137.589 99.4642 137.359 99.234 136.622C99.1419 136.299 99.1419 135.976 99.0498 135.654C98.7275 133.719 98.3591 131.783 97.392 129.986C97.1158 129.479 96.8395 129.019 96.5171 128.558C94.9975 126.669 93.2017 125.102 91.1295 123.858C88.781 122.476 86.2484 122.061 83.5776 122.107C82.3803 122.107 81.2752 122.522 80.2621 123.167C78.1439 124.549 76.0256 125.977 74.2298 127.775C73.493 128.512 72.7102 129.157 71.9734 129.894C71.2827 130.585 70.638 131.323 70.0394 132.106C68.9342 133.58 68.5198 135.331 68.704 137.175C68.9342 139.386 69.6249 141.506 70.5459 143.487C70.7301 143.902 71.0064 144.317 71.2827 144.685C71.559 145.1 71.7892 145.469 72.0655 145.837C72.3418 146.252 72.4799 146.713 72.2036 147.127C71.9734 147.542 71.559 147.68 71.0985 147.634C70.7301 147.634 70.3617 147.588 69.9933 147.542C68.0593 147.22 66.2634 147.68 64.6057 148.694C63.3624 149.477 62.1651 150.307 61.06 151.228C59.6325 152.426 58.8496 153.993 58.8036 155.882C58.8036 156.527 58.8036 157.034 58.8036 157.541Z" fill="white"/>
<path d="M129.396 147.312C132.435 147.082 135.106 148.049 137.408 150.077C138.099 150.722 138.79 151.367 139.48 152.012C140.908 153.302 141.829 154.915 142.427 156.758C143.44 159.984 143.302 163.209 142.151 166.434C141.368 168.646 139.803 170.121 137.869 171.273C137.362 171.595 136.809 171.687 136.257 171.687C135.52 171.687 134.737 171.641 134.001 171.641C131.744 171.641 129.488 171.733 127.231 171.687C123.455 171.641 119.633 171.457 115.858 171.549C112.772 171.595 109.687 171.595 106.556 171.549C104.115 171.503 101.675 171.411 99.2341 171.227C96.7935 171.042 94.399 170.72 91.9124 170.766C89.3798 170.812 86.8471 170.812 84.3144 170.858C83.9921 170.858 83.6698 170.904 83.3474 170.904C81.9199 170.95 80.5385 171.088 79.111 171.042C77.4072 171.042 75.7495 170.904 74.0457 170.858C72.2958 170.812 70.546 170.72 68.8422 170.858C67.3687 170.996 65.9412 170.996 64.5137 170.904C63.3164 170.812 62.0731 170.72 60.8759 170.628C60.1391 170.535 59.3102 170.489 58.7576 169.983C57.9748 169.291 57.0999 168.646 56.7315 167.586C56.5013 166.941 56.1789 166.296 55.9947 165.605C55.6724 164.499 55.3501 163.347 55.0277 162.195C54.4752 160.03 54.291 157.864 54.5212 155.652C54.7514 153.21 55.7645 151.137 57.6985 149.57C58.7116 148.74 59.7707 147.957 60.8759 147.266C62.3034 146.344 63.869 145.745 65.5728 145.561C65.9412 145.515 66.2635 145.423 66.724 145.331C66.5858 145.008 66.4477 144.732 66.3556 144.501C65.4807 142.612 64.8821 140.631 64.5137 138.603C63.9151 135.055 64.8821 132.014 67.4608 129.48C67.9213 129.019 68.4278 128.558 68.8883 128.097C71.3749 125.609 74.2299 123.674 77.177 121.877C78.6505 120.955 80.2622 120.541 82.012 120.633C82.933 120.679 83.9 120.771 84.821 120.909C86.5248 121.186 88.1825 121.739 89.7021 122.66C91.8203 123.996 93.7083 125.563 95.32 127.498C95.7344 128.005 96.1028 128.558 96.4251 129.157C97.1619 130.54 97.6684 131.968 97.9908 133.535C98.0829 134.041 98.221 134.502 98.3592 135.101C98.6355 134.963 98.8657 134.871 99.0038 134.733C99.4183 134.41 99.7867 134.041 100.155 133.719C101.951 132.198 103.977 131.139 106.326 130.816C109.042 130.447 111.759 130.54 114.43 131.139C115.443 131.369 116.41 131.645 117.331 132.198C119.864 133.673 122.166 135.47 124.054 137.682C126.126 140.078 127.278 142.842 127.185 146.068C127.185 146.483 127.185 146.897 127.185 147.496C128.014 147.404 128.705 147.358 129.396 147.312ZM58.4353 166.711C59.2181 168.692 59.3563 168.923 61.7968 169.061C62.1192 169.061 62.4415 169.061 62.7638 169.107C64.2374 169.383 65.757 169.291 67.2305 169.107C69.8092 168.784 72.3879 168.923 74.9666 169.015C78.0979 169.107 81.2292 169.107 84.4065 168.923C87.722 168.738 91.0835 168.784 94.399 168.831C95.5502 168.831 96.7475 169.015 97.8987 169.107C102.642 169.66 107.431 169.614 112.22 169.614C116.456 169.614 120.647 169.66 124.883 169.66C126.541 169.66 128.152 169.66 129.81 169.706C130.132 169.706 130.455 169.706 130.777 169.752C132.113 169.936 133.448 170.121 134.829 170.305C135.796 170.443 136.671 170.213 137.5 169.66C139.25 168.554 140.401 167.08 141 165.052C142.013 161.596 141.783 158.279 140.033 155.099C139.066 153.348 135.981 150.537 134.185 149.754C132.159 148.833 130.086 148.833 127.968 149.247C127.462 149.339 127.001 149.616 126.541 149.8C126.172 149.985 125.804 150.215 125.39 150.307C125.159 150.353 124.837 150.215 124.653 150.031C124.423 149.846 124.376 149.524 124.561 149.247C125.528 147.727 125.574 146.022 125.297 144.363C124.975 142.105 124.054 140.078 122.442 138.373C121.061 136.944 119.587 135.654 117.976 134.548C116.364 133.396 114.568 132.751 112.68 132.475C111.022 132.244 109.319 132.152 107.615 132.337C105.266 132.613 103.194 133.489 101.398 135.055C100.708 135.654 100.063 136.207 99.3262 136.76C99.0499 136.99 98.6815 137.175 98.3592 137.313C97.7145 137.589 97.1619 137.359 96.9317 136.622C96.8396 136.299 96.8396 135.977 96.7475 135.654C96.4251 133.719 96.0568 131.784 95.0897 129.987C94.8135 129.48 94.5372 129.019 94.2148 128.558C92.6952 126.669 90.8993 125.102 88.8272 123.858C86.4787 122.476 83.9461 122.061 81.2753 122.107C80.078 122.107 78.9728 122.522 77.9598 123.167C75.8416 124.549 73.7233 125.978 71.9275 127.775C71.1907 128.512 70.4079 129.157 69.6711 129.894C68.9804 130.586 68.3357 131.323 67.7371 132.106C66.6319 133.581 66.2175 135.332 66.4017 137.175C66.6319 139.387 67.3226 141.506 68.2436 143.488C68.4278 143.902 68.7041 144.317 68.9804 144.686C69.2567 145.1 69.4869 145.469 69.7632 145.838C70.0395 146.252 70.1776 146.713 69.9013 147.128C69.6711 147.542 69.2566 147.681 68.7962 147.635C68.4278 147.635 68.0594 147.588 67.691 147.542C65.757 147.22 63.9611 147.681 62.3034 148.694C61.0601 149.478 59.8628 150.307 58.7576 151.229C57.3301 152.427 56.5473 153.993 56.5013 155.883C56.5013 156.389 56.5013 156.896 56.5013 157.449C56.5013 160.767 57.238 163.808 58.4353 166.711Z" fill="#A5A3B8"/>
</g>
<defs>
<clipPath id="clip0">
<path d="M0 0H349V272H0V0Z" fill="white"/>
</clipPath>
</defs>
</svg>
