<svg width="130" height="152" viewBox="0 0 130 152" fill="none" xmlns="http://www.w3.org/2000/svg">
<g clip-path="url(#clip0)">
<path d="M18.6645 15.2923C18.6645 17.6745 18.4402 20.0234 18 22.3664L41.8437 123.968L97.5 139C98.7712 138.141 99.8935 139.595 101.394 139.595C104.319 139.595 107.173 139.729 110.069 139.913C112.676 140.078 115.36 139.963 117.969 139.932C119.197 139.917 121.331 139.883 122.251 138.846C122.853 138.168 122.367 135.755 122.731 134.879C123.633 132.707 122.903 130.476 123.506 128.291C124.628 124.228 124.893 119.682 125.481 115.509C126.543 107.977 126.976 100.778 126.976 93.1826V72.559C126.976 64.3146 127.139 56.0082 126.607 47.7809C126.084 39.6825 125.315 31.7154 125.315 23.5641C125.315 22.6885 126.085 17.358 124.503 17.3135C122.511 17.2573 120.584 17.1032 118.597 16.9017C109.622 15.9919 100.594 16.3029 91.5739 16.3029C82.1415 16.3029 72.6435 16.3815 63.2223 15.9473C59.9587 15.7969 56.818 15.2923 53.5133 15.2923C48.7518 15.2923 43.9824 15.3917 39.2268 15.1239C32.9167 14.7684 26.665 14.5413 20.3626 14.0197C19.2536 13.9279 18.6645 14.1254 18.6645 15.2923Z" fill="#DCDCE8"/>
<path fill-rule="evenodd" clip-rule="evenodd" d="M19.6864 15.0169C19.6758 15.0686 19.6645 15.1559 19.6645 15.2919C19.6645 17.6668 19.4473 20.0087 19.0215 22.3418L42.6808 123.158L97.3753 137.93C98.2903 137.53 99.1417 137.805 99.7391 138.049C99.9107 138.119 100.045 138.178 100.168 138.233C100.337 138.307 100.484 138.372 100.675 138.442C100.952 138.543 101.181 138.594 101.394 138.594C104.349 138.594 107.226 138.73 110.132 138.915C112.101 139.039 114.105 139.001 116.133 138.962C116.739 138.95 117.347 138.939 117.957 138.931C118.578 138.924 119.342 138.911 120.054 138.787C120.773 138.661 121.242 138.453 121.478 138.209C121.485 138.189 121.514 138.11 121.538 137.931C121.573 137.669 121.581 137.336 121.58 136.937C121.58 136.85 121.58 136.759 121.579 136.665C121.578 136.36 121.576 136.028 121.588 135.731C121.603 135.364 121.643 134.892 121.808 134.495C122.177 133.606 122.225 132.681 122.231 131.584C122.231 131.476 122.231 131.365 122.231 131.251C122.232 130.276 122.233 129.145 122.542 128.025C123.322 125.204 123.671 122.18 124.024 119.13C124.169 117.877 124.315 116.619 124.491 115.369C125.545 107.889 125.976 100.738 125.976 93.1822V72.5587C125.976 70.9857 125.982 69.4133 125.988 67.8419C126.013 61.1494 126.038 54.4737 125.609 47.845C125.482 45.8756 125.34 43.9078 125.197 41.9388C124.757 35.8526 124.315 29.7551 124.315 23.5638C124.315 23.3672 124.345 23.006 124.377 22.6048C124.39 22.4559 124.402 22.3016 124.414 22.148C124.461 21.5318 124.505 20.8137 124.503 20.1304C124.5 19.4282 124.447 18.8446 124.337 18.4633C124.318 18.3963 124.3 18.3452 124.285 18.307C122.327 18.2458 120.433 18.0927 118.496 17.8963C111.403 17.1771 104.285 17.2268 97.1021 17.2768C95.2639 17.2897 93.4214 17.3025 91.5739 17.3025C90.3228 17.3025 89.0699 17.3039 87.8155 17.3053C79.6248 17.3144 71.3715 17.3235 63.1763 16.9459C61.8035 16.8826 60.4495 16.7575 59.123 16.635C58.8452 16.6094 58.5686 16.5838 58.2933 16.559C56.6916 16.4144 55.1179 16.2919 53.5133 16.2919C52.5092 16.2919 51.5013 16.2964 50.4906 16.3009C46.7374 16.3177 42.9466 16.3346 39.1706 16.1219C37.2877 16.0158 35.4045 15.921 33.5201 15.8261C29.1161 15.6043 24.7058 15.3822 20.2801 15.0159C20.0318 14.9954 19.8602 14.9956 19.7416 15.009C19.7198 15.0115 19.7015 15.0142 19.6864 15.0169ZM124.232 18.2062C124.232 18.2062 124.239 18.2111 124.25 18.2302C124.237 18.2174 124.232 18.2062 124.232 18.2062ZM18.557 13.3424C19.1533 12.9591 19.892 12.9769 20.4451 13.0227C24.8373 13.3863 29.1954 13.6057 33.5846 13.8267C35.4766 13.922 37.3743 14.0175 39.283 14.1251C42.9922 14.334 46.7037 14.3175 50.4485 14.301C51.4675 14.2964 52.4888 14.2919 53.5133 14.2919C55.2134 14.2919 56.8624 14.4217 58.4731 14.5671C58.7574 14.5927 59.04 14.6188 59.3215 14.6448C60.6466 14.7671 61.9459 14.887 63.2683 14.948C71.4126 15.3233 79.6143 15.3143 87.8085 15.3053C89.0639 15.3039 90.3191 15.3025 91.5739 15.3025C93.3893 15.3025 95.2104 15.2897 97.0354 15.2769C104.23 15.2263 111.486 15.1753 118.697 15.9065C120.672 16.1066 122.572 16.2583 124.531 16.3135C125.647 16.3449 126.092 17.333 126.258 17.9076C126.449 18.5656 126.5 19.3777 126.503 20.1232C126.505 20.8875 126.456 21.669 126.408 22.2999C126.39 22.5311 126.374 22.7318 126.36 22.9026C126.333 23.2339 126.315 23.4527 126.315 23.5638C126.315 29.6761 126.749 35.6725 127.188 41.7412C127.332 43.7229 127.476 45.7123 127.605 47.716C128.039 54.4197 128.013 61.1802 127.988 67.8775C127.982 69.4419 127.976 71.0028 127.976 72.5587V93.1822C127.976 100.818 127.54 108.063 126.472 115.648C126.311 116.789 126.173 117.981 126.032 119.198C125.672 122.308 125.293 125.578 124.47 128.557C124.237 129.402 124.235 130.257 124.232 131.27C124.232 131.376 124.231 131.485 124.231 131.595C124.225 132.703 124.187 133.979 123.655 135.262C123.655 135.262 123.654 135.263 123.654 135.265C123.654 135.265 123.652 135.269 123.651 135.272C123.649 135.279 123.646 135.29 123.642 135.304C123.635 135.332 123.627 135.371 123.62 135.421C123.604 135.524 123.593 135.654 123.586 135.814C123.576 136.06 123.578 136.323 123.579 136.616C123.58 136.718 123.58 136.825 123.58 136.936C123.581 137.335 123.575 137.787 123.52 138.196C123.471 138.564 123.36 139.103 122.999 139.51C122.306 140.291 121.255 140.607 120.397 140.757C119.505 140.913 118.588 140.924 117.981 140.931C117.404 140.938 116.817 140.95 116.225 140.961C114.182 141 112.065 141.041 110.006 140.911C107.119 140.728 104.289 140.594 101.394 140.594C100.857 140.594 100.382 140.464 99.9877 140.32C99.7583 140.236 99.4848 140.117 99.2629 140.02C99.153 139.973 99.0557 139.93 98.9828 139.901C98.4202 139.671 98.2547 139.697 98.06 139.828C97.8193 139.991 97.5197 140.041 97.2393 139.965L41.583 124.933C41.2279 124.837 40.9542 124.554 40.8701 124.196L17.0264 22.5945C16.9946 22.459 16.9915 22.3182 17.0172 22.1814C17.4462 19.8977 17.6645 17.6106 17.6645 15.2919C17.6645 14.5679 17.8498 13.7969 18.557 13.3424Z" fill="#A5A3B8"/>
<path d="M27.8777 22.3567C18.9312 22.3567 10.1765 22.874 1.49667 20.3955C0.492277 21.9138 1.0541 23.7004 1.0541 25.4622C1.0541 29.0867 1.23632 32.4485 1.88944 36.032C3.30103 43.7773 3.93981 51.7149 5.06372 59.5102C5.71192 64.0062 6.06612 68.321 6.06612 72.8676C6.06612 76.2463 6.35174 79.3437 6.69726 82.6517C7.2665 88.1016 6.94907 93.9924 7.06852 99.4699C7.23564 107.133 7.4319 114.857 7.75536 122.518C7.97365 127.688 8.7392 132.756 8.7392 137.933C8.7392 140.108 7.80349 145.685 10.9296 146.258C13.1489 146.665 15.8381 146.277 18.0764 146.277C21.6444 146.277 25.6426 146.794 29.1214 146.015C33.0997 145.124 37.4456 145.266 41.5029 145.266H57.5971C63.523 145.266 69.7012 146.532 75.5661 147.455C77.3012 147.728 78.7658 147.862 80.4296 148.465C81.6575 148.911 85.1708 150.677 86.3327 149.719C87.4272 148.816 88.0154 146.863 89.0986 145.772C90.6917 144.166 92.7073 143.027 94.3519 141.487C95.9326 140.008 98.7313 137.96 100.7 137.11C101.951 136.57 102.735 135.226 103.893 134.491C104.716 133.969 105.605 133.687 106.492 133.294C108.382 132.455 110.495 132.025 112.321 131.105C113.71 130.405 114.843 129.541 116.256 129.028C117.064 128.735 116.999 125.446 116.999 124.538C116.999 120.116 116.665 115.817 116.665 111.387C116.665 99.2583 116.995 87.0848 116.646 74.9628C116.365 65.203 114.326 55.6 114.326 45.8162C114.326 40.774 113.992 35.7032 113.992 30.7003C113.992 28.2791 113.467 26.4594 112.971 24.2088C112.515 22.144 106.577 22.3567 105.156 22.3567H44.9371H27.8777Z" fill="#F0F1F7"/>
<path fill-rule="evenodd" clip-rule="evenodd" d="M0.662647 19.8439C0.903269 19.4801 1.35188 19.3143 1.77124 19.434C9.01893 21.5035 16.309 21.4425 23.8927 21.3789C25.2117 21.3679 26.5396 21.3568 27.8777 21.3568H105.156C105.25 21.3568 105.369 21.3557 105.508 21.3544C106.364 21.3466 108.001 21.3316 109.544 21.5156C110.438 21.6221 111.375 21.8027 112.145 22.1266C112.881 22.4359 113.726 22.991 113.947 23.9935C114.024 24.341 114.102 24.6828 114.181 25.022C114.594 26.8193 114.992 28.5472 114.992 30.7004C114.992 33.1802 115.074 35.6795 115.158 38.2033L115.158 38.2105C115.242 40.7311 115.326 43.2759 115.326 45.8163C115.326 50.6454 115.829 55.4409 116.374 60.2867C116.415 60.6465 116.456 61.0066 116.496 61.367C117.003 65.8445 117.514 70.3707 117.646 74.9341C117.881 83.1096 117.808 91.3232 117.735 99.5086C117.7 103.477 117.665 107.439 117.665 111.387C117.665 113.58 117.747 115.743 117.831 117.927L117.832 117.94C117.915 120.114 117.999 122.309 117.999 124.538C117.999 124.59 117.999 124.652 117.999 124.722C118.001 125.234 118.005 126.197 117.927 127.101C117.882 127.61 117.808 128.155 117.672 128.614C117.604 128.843 117.509 129.095 117.366 129.322C117.226 129.543 116.986 129.827 116.597 129.968C115.977 130.193 115.402 130.501 114.782 130.861C114.641 130.943 114.496 131.028 114.347 131.116C113.859 131.404 113.33 131.716 112.771 131.998C111.784 132.495 110.735 132.853 109.744 133.18C109.648 133.211 109.554 133.242 109.459 133.273C108.554 133.571 107.703 133.851 106.898 134.208C106.567 134.354 106.27 134.475 105.993 134.587C105.416 134.821 104.93 135.017 104.429 135.335C104.025 135.592 103.677 135.941 103.234 136.385C103.171 136.448 103.105 136.514 103.038 136.582C102.541 137.076 101.915 137.675 101.097 138.028C99.27 138.817 96.5668 140.784 95.0352 142.218C94.2292 142.972 93.3426 143.632 92.5075 144.254C92.4393 144.305 92.3714 144.356 92.304 144.406C91.3925 145.086 90.5463 145.732 89.8084 146.476C89.3947 146.893 89.0545 147.492 88.6289 148.241L88.5893 148.31C88.1892 149.014 87.6835 149.901 86.9689 150.49C86.3765 150.979 85.6131 151.031 85.0192 150.987C84.3921 150.941 83.719 151.104 83.1006 150.906C82.4739 150.705 81.8542 150.461 81.3273 150.245C81.1532 150.173 80.9936 150.107 80.8478 150.046C80.532 149.915 80.2811 149.811 80.0886 149.741C78.8363 149.287 77.7288 149.123 76.394 148.927C76.0804 148.881 75.7542 148.833 75.4106 148.779C74.2669 148.598 73.1185 148.407 71.968 148.215C67.1511 147.411 62.2977 146.602 57.5971 146.602L41.503 146.267C41.0082 146.267 40.5122 146.265 40.0157 146.263C36.3813 146.248 32.7203 146.234 29.34 146.991C27.4838 147.406 25.5205 147.47 23.6154 147.438C22.7345 147.423 21.9023 147.39 21.0912 147.357C20.0715 147.316 19.085 147.277 18.0764 147.277C17.3802 147.277 16.6634 147.314 15.9031 147.354C15.4627 147.377 15.0076 147.401 14.5334 147.419C13.2891 147.466 11.9715 147.466 10.7494 147.242C9.62466 147.036 8.34936 146.359 7.87795 145.505C7.42843 144.691 7.23455 143.712 7.15102 142.786C7.06633 141.848 7.08833 140.874 7.12777 140.025C7.14253 139.707 7.15903 139.415 7.17414 139.147C7.20134 138.666 7.22405 138.264 7.22405 137.933C7.22405 135.39 7.55117 132.865 7.33277 130.308C7.29713 129.891 7.26064 129.472 7.22405 129.052C7.03751 126.913 6.84848 124.744 6.75625 122.56C6.43235 114.889 6.23592 107.157 6.06877 99.4918C6.02813 97.6286 6.03659 95.7483 6.04504 93.8693C6.06194 90.1105 6.81574 88.709 6.43959 85.1078C6.09359 81.7951 5.06612 76.3018 5.06612 72.8676C5.06612 68.3753 4.71634 64.1086 4.07395 59.653C3.63127 56.5826 3.26708 53.5259 2.90435 50.4815C2.33418 45.6961 1.76765 40.9411 0.905646 36.2114C0.238006 32.5482 0.0541045 29.1217 0.0541045 25.4623C0.0541045 25.0692 0.0227285 24.6662 -0.0144574 24.2248C-0.0170053 24.1945 -0.0195853 24.1641 -0.0221829 24.1334C-0.0563291 23.7301 -0.0935241 23.2907 -0.101106 22.855C-0.117638 21.9049 0.00112683 20.8439 0.662647 19.8439ZM1.31549 20.6561C1.20632 21.0193 1.8904 22.3494 1.89859 22.8202C1.90496 23.1861 1.93669 23.5619 1.9721 23.9812C1.97422 24.0063 1.97635 24.0315 1.97848 24.0569C2.01525 24.4934 2.0541 24.9744 2.0541 25.4623C2.0541 29.0519 2.63846 32.7075 3.27706 36.2114C4.14608 40.9796 4.32577 45.5093 4.90437 50.3565C5.26642 53.3894 5.62654 56.4063 6.05349 59.3676C6.70751 63.9039 7.06612 68.2669 7.06612 72.8676C7.06612 76.1909 7.34682 79.2445 7.69186 82.5479C8.07893 86.2537 8.06209 90.2043 8.04579 94.0288C8.03791 95.8787 8.03015 97.6992 8.06829 99.4482C8.23537 107.11 8.43145 114.826 8.75447 122.476C8.84464 124.611 9.02905 126.727 9.2155 128.867C9.25233 129.29 9.28924 129.713 9.32552 130.138C9.54447 132.701 9.7392 135.299 9.7392 137.933C9.7392 138.319 9.71116 138.818 9.68171 139.343C9.66737 139.599 9.6527 139.86 9.64077 140.117C9.60246 140.943 9.58591 141.807 9.65807 142.606C9.73137 143.419 9.88972 144.078 10.144 144.538C10.3764 144.959 10.6715 145.194 11.1099 145.274C12.107 145.457 13.2437 145.466 14.4584 145.421C14.8647 145.405 15.2888 145.383 15.7171 145.361C16.5183 145.319 17.3344 145.277 18.0764 145.277C19.0779 145.277 20.1725 145.319 21.2567 145.362C22.0749 145.394 22.8872 145.425 23.6493 145.438C25.5051 145.47 27.2802 145.402 28.9029 145.039C32.5204 144.229 36.4261 144.246 40.0345 144.262C40.5301 144.264 41.0201 144.267 41.503 144.267H57.5971C62.4806 144.267 67.5412 145.112 72.3691 145.918C73.5012 146.107 74.6205 146.294 75.7217 146.468C76.0218 146.515 76.32 146.558 76.6176 146.602C77.9702 146.8 79.3108 146.996 80.7707 147.525C81.0085 147.612 81.3286 147.745 81.6705 147.887C81.8068 147.944 81.9465 148.002 82.0859 148.059C82.5994 148.269 83.1609 148.49 83.7113 148.666C84.2699 148.845 84.7696 148.963 85.1665 148.993C85.5498 149.021 85.68 148.955 85.6956 148.947L85.6971 148.947C86.0768 148.634 86.4123 148.093 86.8505 147.322C86.8788 147.272 86.9075 147.222 86.9367 147.17C87.3154 146.501 87.7792 145.682 88.3887 145.067C89.2441 144.205 90.2022 143.479 91.108 142.803C91.1706 142.756 91.2329 142.71 91.2949 142.664C92.1486 142.028 92.9483 141.432 93.6686 140.757C95.2984 139.232 98.1926 137.104 100.304 136.192C100.737 136.005 101.128 135.661 101.626 135.165C101.683 135.108 101.743 135.048 101.805 134.985C102.229 134.557 102.75 134.032 103.358 133.647C104.018 133.227 104.767 132.923 105.417 132.659C105.657 132.562 105.883 132.47 106.087 132.379C106.989 131.979 107.937 131.668 108.827 131.376C108.925 131.344 109.022 131.312 109.118 131.28C110.112 130.952 111.032 130.634 111.871 130.212C112.365 129.963 112.816 129.697 113.29 129.417C113.449 129.323 113.611 129.228 113.778 129.131C114.37 128.788 115.005 128.44 115.715 128.163C115.727 128.133 115.74 128.095 115.754 128.047C115.833 127.779 115.894 127.39 115.934 126.927C116.004 126.123 116.001 125.26 115.999 124.738C115.999 124.664 115.999 124.597 115.999 124.538C115.999 122.35 115.916 120.188 115.832 118.004L115.832 117.997C115.749 115.821 115.665 113.622 115.665 111.387C115.665 107.401 115.7 103.419 115.736 99.4409C115.808 91.2777 115.881 83.1303 115.647 74.9916C115.518 70.516 115.015 66.0705 114.507 61.5763C114.467 61.2213 114.427 60.866 114.387 60.5104C113.842 55.6689 113.326 50.771 113.326 45.8163C113.326 43.3145 113.243 40.8027 113.159 38.2767L113.159 38.2544C113.075 35.7414 112.992 33.2138 112.992 30.7004C112.992 28.7913 112.651 27.3031 112.241 25.5144C112.16 25.1643 112.078 24.8027 111.994 24.4242C111.988 24.3943 111.92 24.2017 111.37 23.9702C110.854 23.7533 110.132 23.5999 109.307 23.5015C107.907 23.3346 106.423 23.347 105.551 23.3544C105.399 23.3557 105.266 23.3568 105.156 23.3568H27.8777C26.5735 23.3568 25.2676 23.3682 23.9604 23.3797C12.2042 24.5392 8.59765 22.5831 1.31549 20.6561Z" fill="#A5A3B8"/>
<path fill-rule="evenodd" clip-rule="evenodd" d="M50.1853 3.00179C50.04 3.00227 49.8914 3.00276 49.7388 3.00276C49.488 3.00276 49.3666 3.04094 49.3039 3.07263C49.2547 3.09757 49.1794 3.14871 49.0842 3.31275C49.0048 3.44948 48.9391 3.57495 48.8636 3.7193C48.8177 3.80712 48.7681 3.90192 48.7095 4.0105C48.5916 4.22909 48.4503 4.47682 48.2742 4.71885C48.275 4.76632 48.2796 4.83238 48.291 4.91835C48.3162 5.10862 48.3531 5.27023 48.3908 5.43537C48.4094 5.51671 48.4281 5.5989 48.4458 5.68579C48.799 7.42339 49.5711 9.25236 49.5711 11.0649C49.5711 12.7767 48.7151 14.6575 47.899 16.3304C47.6568 16.8267 47.0582 17.0328 46.5618 16.7907C46.0654 16.5486 45.8593 15.9499 46.1015 15.4535C46.7324 14.1601 46.9927 12.3942 46.9927 10.8402C46.9927 9.18427 46.8174 7.71502 46.4859 6.08416C46.4817 6.06377 46.4737 6.02872 46.4632 5.98268C46.4232 5.80735 46.3469 5.4726 46.3083 5.18066C46.2822 4.9837 46.2624 4.74276 46.2821 4.49987C46.3001 4.27685 46.3606 3.91982 46.6078 3.60708C46.7207 3.46424 46.8266 3.2885 46.9493 3.06104C46.9828 2.99894 47.0209 2.92623 47.062 2.84799C47.1517 2.67695 47.2553 2.47946 47.3547 2.30835C47.6098 1.86897 47.9501 1.51622 48.4009 1.28812C48.8383 1.06677 49.3013 1.00276 49.7388 1.00276C49.8813 1.00276 50.0252 1.00208 50.1704 1.0014C51.2254 0.996434 52.3485 0.991151 53.4997 1.24286C55.6601 1.71526 57.3442 3.39308 57.6119 5.64645C57.6432 5.9096 57.6789 6.18343 57.7157 6.46564C57.9061 7.92605 58.1258 9.61103 57.91 11.2036C57.7592 12.3166 57.5059 13.4413 57.2621 14.4906C57.2397 14.5871 57.2456 14.6281 57.247 14.6373C57.2488 14.6486 57.2537 14.6738 57.2866 14.738C57.3157 14.7947 57.3391 14.8336 57.3746 14.8927C57.4004 14.9355 57.4326 14.989 57.478 15.0676C57.5677 15.223 57.6764 15.4266 57.7621 15.6796C57.9393 16.2027 57.6589 16.7704 57.1358 16.9476C56.6127 17.1248 56.045 16.8444 55.8678 16.3213C55.8423 16.246 55.8057 16.1711 55.7459 16.0675C55.7356 16.0497 55.7204 16.0243 55.7022 15.9938C55.6473 15.9017 55.5649 15.7636 55.5066 15.6498C55.2914 15.2298 55.1559 14.7185 55.314 14.038C55.5584 12.986 55.7914 11.9444 55.9281 10.935C56.1049 9.63078 55.9289 8.26227 55.741 6.80102C55.7021 6.49886 55.6627 6.19272 55.6259 5.88237C55.4677 4.55119 54.5097 3.15523 53.1046 2.84799C52.1835 2.6466 51.2612 2.99824 50.1853 3.00179Z" fill="#A5A3B8"/>
<path fill-rule="evenodd" clip-rule="evenodd" d="M54.911 3.04316C54.9278 3.039 54.9483 3.03459 54.9729 3.03027C55.1323 3.00221 55.3193 3.00001 55.5335 3.00001C56.4464 3.00001 57.2484 3.13264 58.0876 3.45339C58.1802 3.48879 58.2745 3.52383 58.3699 3.55929C58.6596 3.66701 58.9598 3.77862 59.2564 3.91588C59.676 4.11002 59.8856 4.26905 59.9504 4.35373C60.4722 5.03593 60.822 5.92679 60.822 7.05785C60.822 7.56752 60.4886 8.00589 60.3189 8.59529C60.2725 8.75631 60.2188 8.93147 60.1624 9.1156C60.028 9.55427 59.878 10.0439 59.7738 10.5147C59.4655 11.9081 59.5752 13.1686 59.999 14.4747C60.1745 15.0154 60.4087 15.3811 60.6185 15.6816C60.6544 15.7329 60.688 15.7806 60.7199 15.8257C60.8743 16.0441 60.9872 16.2039 61.1011 16.4377C61.3428 16.9343 61.9413 17.1409 62.4379 16.8991C62.9345 16.6574 63.1411 16.0589 62.8993 15.5623C62.7081 15.1694 62.4928 14.8669 62.3346 14.6445C62.3074 14.6063 62.2819 14.5704 62.2585 14.5369C62.0996 14.3092 61.9896 14.1292 61.9014 13.8573C61.5735 12.8471 61.6793 12.0531 61.9014 11.0496C61.9882 10.6573 62.1118 10.1954 62.234 9.79744C62.2964 9.5945 62.3618 9.38145 62.4288 9.14877C62.6143 8.50458 62.7883 7.775 62.7883 6.98167C62.7883 5.74845 62.4779 4.36608 61.5389 3.13859C61.1551 2.63681 60.548 2.30978 60.0963 2.10078C59.7212 1.9272 59.3163 1.77691 59.0181 1.66624C58.9372 1.63619 58.8641 1.60907 58.8016 1.58519C57.7106 1.16819 56.6635 1.00001 55.5335 1.00001C55.5267 1.00001 55.5196 1.00001 55.5123 1.00001C55.3175 0.999917 54.9715 0.999756 54.6261 1.06055C54.2949 1.11885 53.7461 1.26758 53.368 1.74217C53.1965 1.95754 53.0875 2.20507 53.0161 2.39837C52.9401 2.60429 52.8807 2.82192 52.8336 3.02141C52.7601 3.33317 52.7032 3.66236 52.6643 3.88769C52.6545 3.94463 52.6458 3.99494 52.6383 4.03665C52.6327 4.06787 52.627 4.09919 52.6213 4.13064C52.5146 4.72039 52.4002 5.35275 52.4002 6.06865C52.4002 6.73341 52.3272 7.32816 52.2455 7.99355C52.2056 8.31872 52.1637 8.66076 52.1271 9.03607C52.0929 9.38807 52.0872 9.74008 52.0824 10.0442C52.0815 10.0962 52.0807 10.1469 52.0798 10.1959C52.0731 10.5505 52.0606 10.8478 52.0135 11.1329C51.9832 11.3167 51.9507 11.5066 51.9176 11.7C51.8482 12.1057 51.7762 12.5265 51.7162 12.9373C51.6596 13.3254 51.5511 13.7019 51.4162 14.1369C51.4013 14.1847 51.3861 14.2336 51.3705 14.2834C51.2509 14.6664 51.114 15.1047 51.0203 15.5641C50.9101 16.1053 51.2594 16.6334 51.8005 16.7436C52.3417 16.8539 52.8698 16.5046 52.9801 15.9634C53.052 15.6103 53.157 15.2732 53.2797 14.8794C53.295 14.8303 53.3106 14.7803 53.3264 14.7293C53.4632 14.2882 53.6141 13.782 53.6953 13.2263C53.7518 12.839 53.8165 12.4611 53.8834 12.0701C53.9176 11.8706 53.9523 11.6678 53.9869 11.4585C54.0592 11.0199 54.0725 10.5984 54.0794 10.2338C54.0806 10.1747 54.0815 10.1174 54.0824 10.0616C54.0876 9.7552 54.0919 9.49454 54.1177 9.22987C54.144 8.95987 54.1789 8.67375 54.2151 8.37636C54.3036 7.65075 54.4002 6.85805 54.4002 6.06865C54.4002 5.53571 54.4856 5.06232 54.5997 4.42959C54.602 4.41696 54.6043 4.40427 54.6066 4.39151C54.618 4.32802 54.6295 4.26175 54.6413 4.19334C54.6798 3.97118 54.7222 3.72646 54.7802 3.48077C54.8171 3.32432 54.8549 3.19244 54.8923 3.09111C54.8991 3.07267 54.9054 3.05676 54.911 3.04316Z" fill="#A5A3B8"/>
<path d="M40.6086 24.3136C40.1581 20.9756 39.1457 17.0883 41.4851 14.5975C44.0217 13.4757 48.2829 14.2778 51.6511 14.2778C55.5167 14.2778 60.3513 13.577 64.0693 14.5972C66.0466 15.1398 68.3611 15.8643 68.5537 18.1824C68.7005 19.9498 69.2368 21.8644 68.8794 23.6845C68.3982 26.1357 68.208 27.7488 64.9882 27.9263C61.7684 28.1038 60.1196 28.1038 57.9742 28.1038C54.9302 28.1038 51.9462 27.8908 48.9672 27.2873C46.3857 26.7643 40.9613 26.9271 40.6086 24.3136Z" fill="#DCDCE8"/>
<path fill-rule="evenodd" clip-rule="evenodd" d="M49.0615 13.1722C49.9739 13.2298 50.8438 13.278 51.6511 13.278C52.5912 13.278 53.5967 13.2354 54.6523 13.1856C54.7858 13.1793 54.9202 13.1729 55.0553 13.1664C55.9805 13.1222 56.9388 13.0765 57.8935 13.0554C60.0717 13.0073 62.3295 13.0831 64.3339 13.6331C65.3084 13.9005 66.5222 14.2496 67.5162 14.8797C68.5575 15.5397 69.4216 16.5515 69.5502 18.0999C69.5926 18.6097 69.6609 19.0772 69.7343 19.5804C69.7892 19.9558 69.8469 20.3511 69.8989 20.7985C70.0108 21.7608 70.0691 22.8158 69.8607 23.8774C69.8437 23.9642 69.8267 24.0515 69.8097 24.139C69.7115 24.6447 69.6122 25.1561 69.4861 25.6194C69.3359 26.1707 69.129 26.7311 68.7811 27.2301C68.028 28.3105 66.8204 28.827 65.0433 28.925C61.797 29.104 60.1274 29.104 57.9742 29.104C54.8841 29.104 51.8304 28.888 48.7686 28.2677C48.2175 28.156 47.5127 28.0766 46.6918 27.9841C46.6316 27.9773 46.5708 27.9704 46.5094 27.9635C45.6357 27.8648 44.663 27.7502 43.7523 27.5645C42.8531 27.3811 41.9291 27.1126 41.1845 26.6642C40.4177 26.2024 39.7587 25.4934 39.6176 24.4476C39.5635 24.0468 39.4981 23.6223 39.4304 23.1827C39.2321 21.8948 39.0139 20.4774 39.0007 19.1481C38.9824 17.3234 39.3359 15.4254 40.7562 13.9132C40.8479 13.8156 40.9582 13.7374 41.0806 13.6832C42.5768 13.0215 44.4824 12.9573 46.2897 13.0178C47.0598 13.0435 47.8495 13.0943 48.6152 13.1436C48.765 13.1533 48.9138 13.1629 49.0615 13.1722ZM42.2163 16.5689C41.4025 17.5277 40.312 17.6525 40.3269 19.1481C40.3387 20.3223 41.1972 21.5047 41.3887 22.7498C41.4611 23.2202 41.5343 23.6967 41.5996 24.1801C41.6348 24.4411 41.7862 24.6918 42.2163 24.9509C42.6687 25.2233 43.3283 25.4369 44.1519 25.6048C44.9641 25.7705 46.7107 26.5647 47.5911 26.6642C47.6609 26.6721 47.5211 26.6563 47.5911 26.6642C48.3785 26.7527 49.9778 26.7979 50.62 26.928C53.5161 27.5148 55.6432 27.5645 58.6411 27.5645C60.7778 27.5645 61.7409 27.104 64.9332 26.928C66.3759 26.8485 66.8732 26.4698 67.1404 26.0864C67.3027 25.8536 67.4348 25.54 67.5563 25.0939C67.6614 24.7083 67.7444 24.2814 67.8437 23.7713C67.8613 23.6809 67.8794 23.5879 67.8982 23.4921C68.0471 22.7336 68.0159 21.9212 67.9123 21.0294C67.8756 20.7138 67.8244 20.3564 67.7713 19.9858C67.6887 19.4088 67.6015 18.7996 67.5571 18.2655C67.4932 17.4958 67.1038 16.9862 66.4454 16.5689C65.7396 16.1215 65.9361 15.4585 64.9332 15.1833C63.2196 14.7131 60.723 14.8325 58.5879 14.8797C57.6608 14.9002 56.0799 15.1198 55.1525 15.164C55.0171 15.1705 54.8818 15.177 54.7465 15.1833C53.6923 15.2331 53.754 14.8797 52.7613 14.8797C51.8845 14.8797 49.8484 15.2259 48.9354 15.1682C48.7825 15.1586 48.6301 15.1488 48.4782 15.139C47.7126 15.0897 46.9593 15.0413 46.2228 15.0166C44.5291 14.96 43.2452 16.1755 42.2163 16.5689Z" fill="#A5A3B8"/>
<path fill-rule="evenodd" clip-rule="evenodd" d="M100.441 31.965C99.408 32.0181 98.3386 32.0408 97.3844 31.9002C96.838 31.8197 95.9304 31.5084 96.0109 30.962C96.0914 30.4157 97.4029 30.575 97.9492 30.6555C98.8077 30.6963 98.7879 30.217 99.8088 30.1646C100.125 30.1483 100.457 30.1278 100.797 30.1068C101.51 30.0626 102.255 30.0164 102.961 30.0038C104.011 29.985 105.434 30.2756 106.404 30.5422C107.391 30.8135 107.984 31.0869 108.612 32.0329C109.426 33.2602 109.798 34.7566 109.934 36.3044C110.071 37.8573 109.978 39.537 109.804 41.1867C109.672 42.4366 109.488 43.7027 109.315 44.8998C109.26 45.2795 109.206 45.6523 109.155 46.0154C108.94 47.5484 108.779 48.9023 108.779 50.0003C108.779 50.5526 108.331 51.0003 107.779 51.0003C107.226 51.0003 107.779 48.9502 107.779 48.3979C107.779 47.1429 107.486 47.2759 107.7 45.7497C107.754 45.3689 107.809 44.9847 107.865 44.5979C108.037 43.4091 108.212 42.1968 108.34 40.9887C108.509 39.3907 108.461 37.9626 108.34 36.5973C108.744 35.2393 108.035 33.7854 107.475 32.9418C107.191 32.5135 106.742 32.2183 106.067 32.0329C105.376 31.8429 104.518 31.7888 103.526 31.8065C102.864 31.8184 102.197 31.8598 101.511 31.9025C101.16 31.9243 100.804 31.9464 100.441 31.965Z" fill="#A5A3B8"/>
<path fill-rule="evenodd" clip-rule="evenodd" d="M106.699 61.9259C107.217 61.734 106.745 61.1342 106.937 61.6521C108.373 65.5245 109 69.8011 109 73.9996C109 74.5519 108.552 74.9996 108 74.9996C107.447 74.9996 107.434 73.8458 107.434 73.2935C107.434 69.2838 107.446 66.8198 106.108 63.2111C105.917 62.6933 106.181 62.1179 106.699 61.9259Z" fill="#A5A3B8"/>
<path fill-rule="evenodd" clip-rule="evenodd" d="M9.73981 43.0346C10.2731 42.8911 10.8218 43.2072 10.9652 43.7405C12.5641 49.6844 14.7524 64.6538 16.1813 75.185C17.6053 85.6805 18.2973 91.8938 17.3213 98.2548C17.2376 98.8007 16.7271 100.174 16.1813 100.09C15.6354 100.006 15.2607 98.4974 15.3445 97.9515C16.2712 91.911 15.5033 81.4639 14.0773 70.9539C13.3799 60.3422 11.3109 53.3678 9.74044 47.5295C9.59699 46.9961 9.20648 43.178 9.73981 43.0346ZM16.1803 111.041C16.7261 110.957 17.2369 111.331 17.3212 111.877C18.124 117.077 18.1235 121.16 17.9236 124.952C17.856 126.235 17.7673 127.468 17.6792 128.691C17.5047 131.114 17.3329 133.501 17.3329 136.169C17.3329 136.832 17.4333 137.496 17.469 137.754C17.4704 137.764 17.4718 137.773 17.4732 137.782C17.5224 137.789 17.5894 137.796 17.6785 137.801C17.9269 137.815 18.2284 137.813 18.6403 137.811C18.809 137.81 18.9961 137.809 19.2058 137.809L24.3078 137.754C24.8601 137.754 25.5817 137.635 25.5817 138.187C25.5817 138.739 25.5518 139.535 24.9996 139.535H19.1107C18.9434 139.535 18.7808 139.536 18.6242 139.536C18.1799 139.539 17.7843 139.541 17.469 139.523C17.0657 139.5 16.5271 139.439 16.0892 139.102C15.6001 138.726 15.4529 138.186 15.3929 137.754C15.334 137.328 15.1901 137.494 15.1901 136.88C15.1901 134.143 16.0042 130.413 16.1813 127.948C16.2679 126.741 16.1178 124.66 16.1813 123.455C16.3762 119.757 16.1207 117.209 15.3446 112.182C15.2603 111.637 15.6345 111.126 16.1803 111.041Z" fill="#A5A3B8"/>
<path fill-rule="evenodd" clip-rule="evenodd" d="M94.2119 118.004C93.9292 118.503 93.706 119.123 93.5224 119.786C93.3676 120.346 93.2543 120.883 93.1509 121.374C93.1154 121.541 93.0812 121.704 93.0468 121.86C92.7548 123.185 92.7693 124.349 92.7895 125.628L92.7901 125.667C92.81 126.923 92.8317 128.293 92.4889 129.858C92.3457 130.512 92.3147 131.181 92.279 131.954C92.2776 131.984 92.2762 132.014 92.2748 132.044C92.2385 132.825 92.1926 133.71 91.9628 134.602C91.6259 135.909 91.3943 137.02 91.3082 138.307C91.1888 140.092 90.7999 141.549 90.3737 142.937C90.2852 143.225 90.196 143.508 90.1072 143.789C89.7643 144.876 89.4292 145.938 89.1765 147.183C89.0666 147.724 88.5388 148.074 87.9975 147.964C87.4563 147.854 87.1066 147.326 87.2165 146.785C87.4922 145.427 87.8665 144.242 88.213 143.145C88.2982 142.875 88.3818 142.61 88.4618 142.35C88.8712 141.016 89.2085 139.731 89.3127 138.174C89.4105 136.711 89.6752 135.465 90.0261 134.103C90.1977 133.436 90.2401 132.746 90.277 131.951C90.2791 131.905 90.2812 131.859 90.2833 131.813C90.3167 131.082 90.3544 130.256 90.5352 129.43C90.8255 128.104 90.81 126.94 90.7898 125.66L90.7893 125.632C90.7694 124.372 90.7477 122.999 91.0937 121.429C91.1216 121.303 91.1516 121.16 91.1841 121.006C91.2895 120.506 91.4217 119.879 91.5948 119.253C91.807 118.486 92.1014 117.636 92.5425 116.897C92.58 116.783 92.6352 116.674 92.709 116.572C92.8557 116.369 93.0397 116.246 93.192 116.172C93.4748 116.036 93.776 116.008 93.9837 116.001C94.4255 115.988 94.9514 116.069 95.4169 116.165C95.8994 116.265 96.3897 116.397 96.7882 116.522C96.9876 116.584 97.1717 116.647 97.3257 116.706C97.4296 116.746 97.5697 116.802 97.6958 116.871C99.2584 117.563 100.187 118.071 101.024 118.527C101.074 118.555 101.125 118.583 101.175 118.61C102.039 119.081 102.841 119.509 104.27 120.081C104.872 120.322 105.499 120.554 106.139 120.79C107.676 121.357 109.284 121.951 110.773 122.761C111.976 123.416 112.818 123.756 113.636 124.086C113.791 124.149 113.946 124.211 114.101 124.275C115.105 124.688 116.102 125.149 117.566 126.155C118.021 126.468 118.137 127.091 117.824 127.546C117.511 128.001 116.888 128.116 116.433 127.803C115.113 126.896 114.248 126.498 113.341 126.125C113.197 126.066 113.05 126.007 112.899 125.946C112.073 125.613 111.127 125.231 109.817 124.518C108.459 123.78 107.073 123.268 105.6 122.725C104.929 122.477 104.239 122.223 103.526 121.938C101.995 121.324 101.116 120.856 100.217 120.366C100.167 120.338 100.117 120.311 100.066 120.283C99.2343 119.829 98.3543 119.348 96.8401 118.679C96.8031 118.663 96.7672 118.644 96.7325 118.624C96.7325 118.624 96.6988 118.608 96.6121 118.575C96.5062 118.534 96.3623 118.484 96.1904 118.431C95.8462 118.323 95.4206 118.208 95.0118 118.123C94.6882 118.057 94.4137 118.017 94.2119 118.004ZM93.9721 118.006L93.974 118.006L93.9721 118.006Z" fill="#A5A3B8"/>
</g>
<defs>
<clipPath id="clip0">
<path d="M0 0H130V152H0V0Z" fill="white"/>
</clipPath>
</defs>
</svg>
