<svg width="339" height="382" viewBox="0 0 339 382" fill="none" xmlns="http://www.w3.org/2000/svg">
<path d="M321.956 1.72906C321.966 2.89906 321.009 2.89906 321.02 1.72906C321.009 0.559063 321.966 0.559063 321.956 1.72906Z" fill="#B9E9F9"/>
<path d="M1.58275 198.509C1.59315 199.679 0.636167 199.679 0.646569 198.509C0.636167 197.339 1.59315 197.339 1.58275 198.509Z" fill="#B9E9F9"/>
<path d="M69.0723 344.009C69.0879 345.759 67.6576 345.759 67.668 344.009C67.6576 342.259 69.0879 342.259 69.0723 344.009Z" fill="#B9E9F9"/>
<path d="M338.776 131.749C338.787 132.919 337.83 132.919 337.84 131.749C337.83 130.589 338.787 130.589 338.776 131.749Z" fill="#B9E9F9"/>
<path d="M142.292 23.7587C142.302 24.9287 141.345 24.9287 141.356 23.7587C141.35 22.5987 142.302 22.5987 142.292 23.7587Z" fill="#B9E9F9"/>
<path d="M251.868 372.329C251.873 373.179 251.176 373.179 251.182 372.329C251.176 371.479 251.879 371.479 251.868 372.329Z" fill="#B9E9F9"/>
<path d="M251.351 371.789L235.025 381.259L251.528 372.989L251.351 371.789Z" fill="#B9E9F9"/>
<path d="M141.902 375.769C141.912 374.629 140.976 374.629 140.986 375.769C140.976 376.909 141.907 376.909 141.902 375.769Z" fill="#B9E9F9"/>
<path d="M9.07819 4.18953C9.08339 3.62953 8.6257 3.62953 8.6309 4.18953C8.6257 4.74953 9.08339 4.74953 9.07819 4.18953Z" fill="#B9E9F9"/>
<path d="M321.956 1.72906C321.966 2.89906 321.009 2.89906 321.02 1.72906C321.009 0.559063 321.966 0.559063 321.956 1.72906Z" fill="#B9E9F9"/>
<path d="M240.076 51.1992C240.092 52.9492 238.662 52.9492 238.672 51.1992C238.662 49.4492 240.092 49.4492 240.076 51.1992Z" fill="#B9E9F9"/>
<path d="M1.58275 198.509C1.59315 199.679 0.636167 199.679 0.646569 198.509C0.636167 197.339 1.59315 197.339 1.58275 198.509Z" fill="#B9E9F9"/>
<path d="M103.795 230.209C103.811 231.959 102.38 231.959 102.391 230.209C102.38 228.459 103.811 228.459 103.795 230.209Z" fill="#B9E9F9"/>
<path d="M338.776 131.749C338.787 132.919 337.83 132.919 337.84 131.749C337.83 130.589 338.787 130.589 338.776 131.749Z" fill="#B9E9F9"/>
<path d="M142.292 23.7587C142.302 24.9287 141.345 24.9287 141.356 23.7587C141.35 22.5987 142.302 22.5987 142.292 23.7587Z" fill="#B9E9F9"/>
<path d="M251.868 372.329C251.873 373.179 251.176 373.179 251.182 372.329C251.176 371.479 251.879 371.479 251.868 372.329Z" fill="#B9E9F9"/>
<path d="M251.351 371.789L235.025 381.259L251.528 372.989L251.351 371.789Z" fill="#B9E9F9"/>
<path d="M141.902 375.769C141.912 374.629 140.976 374.629 140.986 375.769C140.976 376.909 141.907 376.909 141.902 375.769Z" fill="#B9E9F9"/>
<path d="M47.9141 133.729C47.9193 133.169 47.4616 133.169 47.4668 133.729C47.4616 134.279 47.9141 134.279 47.9141 133.729Z" fill="#B9E9F9"/>
<path d="M47.5755 134.079L36.9082 127.889L47.6848 133.289L47.5755 134.079Z" fill="#B9E9F9"/>
</svg>
