<svg width="375" height="172" viewBox="0 0 375 172" fill="none" xmlns="http://www.w3.org/2000/svg">
<path opacity="0.21" d="M322.69 51.9718C295.117 35.6713 278.073 43.2297 278.073 43.2297C278.073 43.2297 248.37 59.6804 225.434 33.4494C202.498 7.21835 170.539 0.402226 170.539 0.402226C170.539 0.402226 147.225 -3.00818 129.302 10.0322C111.38 23.0725 53.7273 2.17789 53.7273 2.17789C53.7273 2.17789 29.4481 -6.15553 0 9.802V159.052C17.1993 158.169 52.3249 151.996 79.7944 118.658C117.646 72.7208 136.947 63.8283 169.033 80.7207C201.119 97.613 217.663 78.0525 217.663 78.0525C217.663 78.0525 249.499 55.7439 258.772 87.3489C268.045 118.954 291.859 148.295 291.859 148.295C291.859 148.295 313.417 180.304 353.525 169.932C363.707 167.296 370.911 167.32 376 168.818V45.5221C362.766 53.2918 340.656 62.5929 322.69 51.9718Z" fill="#48376D"/>
</svg>
