<svg width="375" height="191" viewBox="0 0 375 191" fill="none" xmlns="http://www.w3.org/2000/svg">
<g clip-path="url(#clip0)">
<path d="M354.986 58.2255C354.986 55.6296 357.202 53.5254 359.935 53.5254C362.668 53.5254 364.883 55.6296 364.883 58.2255C364.883 60.8214 362.668 62.9256 359.935 62.9256C357.202 62.9297 354.986 60.8214 354.986 58.2255Z" fill="#58448B"/>
<path d="M309.017 130.498C310.875 130.498 312.382 129.067 312.382 127.302C312.382 125.537 310.875 124.106 309.017 124.106C307.159 124.106 305.652 125.537 305.652 127.302C305.652 129.067 307.159 130.498 309.017 130.498Z" fill="#58448B"/>
<path d="M181.458 130.498C183.317 130.498 184.823 129.067 184.823 127.302C184.823 125.537 183.317 124.106 181.458 124.106C179.6 124.106 178.094 125.537 178.094 127.302C178.094 129.067 179.6 130.498 181.458 130.498Z" fill="#58448B"/>
<path d="M141.675 98.6466C144.899 98.6466 147.514 96.1636 147.514 93.1006C147.514 90.0377 144.899 87.5547 141.675 87.5547C138.45 87.5547 135.836 90.0377 135.836 93.1006C135.836 96.1636 138.45 98.6466 141.675 98.6466Z" fill="#58448B"/>
<path d="M390.884 40.4758C381.606 40.4758 374.074 47.6259 374.074 56.4428C374.074 59.2637 374.851 61.9137 376.202 64.2138C376.118 64.2054 376.031 64.1971 375.956 64.1971C371.925 64.1971 368.652 67.2263 368.485 71.0181C366.709 69.5722 364.401 68.7013 361.883 68.7013C356.238 68.7013 351.658 73.0514 351.658 78.414C351.658 78.514 351.666 78.6015 351.675 78.7015C350.653 78.5224 349.596 78.414 348.517 78.414C339.239 78.414 331.707 85.5642 331.707 94.381C331.707 102.169 337.572 108.64 345.336 110.06C344.937 111.498 344.713 112.998 344.713 114.544C344.713 122.89 350.741 129.882 358.883 131.84C356.97 133.34 355.759 135.603 355.759 138.14C355.759 138.403 355.777 138.653 355.808 138.903C355.505 138.886 355.202 138.865 354.9 138.865C352.241 138.865 349.828 139.836 348.012 141.415C345.139 133.869 337.532 128.478 328.601 128.478C317.213 128.478 307.97 137.244 307.97 148.074C307.97 150.124 308.312 152.099 308.926 153.957C307.307 154.27 305.842 154.953 304.605 155.899C301.012 150.815 294.91 147.461 287.983 147.461C276.938 147.461 267.989 155.97 267.989 166.453C267.989 167.191 268.046 167.916 268.129 168.628C266.322 167.091 263.94 166.141 261.316 166.141C257.052 166.141 253.398 168.62 251.867 172.141C250.336 168.62 246.682 166.141 242.427 166.141C240.334 166.141 238.395 166.741 236.781 167.766C236.781 167.649 236.79 167.532 236.79 167.424C236.79 155.161 226.318 145.215 213.408 145.215C208.982 145.215 204.836 146.382 201.309 148.424C199.599 141.649 193.194 136.611 185.543 136.611C180.898 136.611 176.726 138.469 173.765 141.428C171.988 139.874 169.632 138.911 167.031 138.865C168.079 136.378 168.659 133.665 168.659 130.815C168.659 118.802 158.415 109.065 145.768 109.065C140.851 109.065 136.288 110.548 132.555 113.052C130.577 110.556 127.835 108.631 124.637 107.644C128.515 103.644 130.888 98.3102 130.888 92.4518C130.888 80.0724 120.321 70.043 107.296 70.043C106.134 70.043 104.997 70.1222 103.883 70.2764C104.383 68.4347 104.651 66.493 104.651 64.5013C104.651 51.7718 93.7936 41.455 80.3876 41.455C72.8292 41.455 66.0867 44.7342 61.6385 49.8843C58.6686 46.1467 53.9748 43.73 48.6799 43.73C45.9382 43.73 43.3631 44.3759 41.0951 45.5176C41.1039 45.2384 41.1215 44.9592 41.1215 44.68C41.1215 30.2048 28.7683 18.4712 13.5198 18.4712C8.97949 18.4712 4.6936 19.5212 0.920959 21.3629C1.71497 19.5379 2.17119 17.5337 2.17119 15.4336C2.17558 6.90847 -5.09771 0 -14.0643 0C-16.9508 0 -19.6531 0.708347 -22 1.97504V28.8756V175.845H191.794H249.389H267.853H305.36H393.091V72.2806V40.63C392.363 40.5383 391.634 40.4758 390.884 40.4758Z" fill="#58448B"/>
<path d="M392.959 128.927C386.615 128.819 380.627 133.694 381.698 138.357C367.037 130.798 362.418 145.432 362.418 145.432C346.928 139.069 336.729 156.361 336.729 156.361C318.638 146.794 308.947 166.945 308.947 166.945C280.486 148.644 267.479 168.616 267.479 168.616C265.672 167.078 263.29 166.128 260.671 166.128C256.407 166.128 252.753 168.607 251.222 172.128C249.691 168.607 246.036 166.128 241.781 166.128C239.689 166.128 237.75 166.728 236.135 167.753C236.135 167.636 236.144 167.52 236.144 167.411C236.144 155.149 225.673 145.203 212.763 145.203C208.336 145.203 204.191 146.369 200.664 148.411C198.953 141.636 192.548 136.598 184.898 136.598C180.252 136.598 176.08 138.457 173.119 141.415C171.465 139.969 169.307 139.048 166.921 138.886C161.376 121.373 141.999 126.715 139.008 130.082C124.531 122.619 118.021 134.723 118.021 134.723C93.3236 129.636 91.8408 149.982 91.8408 149.982C77.518 139.348 66.1562 152.294 66.1562 152.294C48.3722 138.423 35.0363 153.682 35.0363 153.682C29.6011 134.723 10.8344 139.811 10.8344 139.811C10.8344 139.811 12.8085 125.94 2.92945 112.994C-3.41823 104.673 -11.3978 103.231 -16.2891 103.26V191.858H146.86H166.21H268.308L268.312 191.924H394.06L392.959 128.927Z" fill="#58448B"/>
<path d="M196.822 151.777C198.169 150.49 199.674 149.356 201.319 148.41C199.603 141.639 193.203 136.598 185.548 136.598C184.061 136.598 182.626 136.802 181.258 137.16C189.654 137.469 196.401 143.823 196.822 151.777Z" fill="#AD6475"/>
<path d="M270.647 190.857H393.087V72.2794V40.6288C392.359 40.5371 391.63 40.4746 390.885 40.4746C381.607 40.4746 374.075 47.6248 374.075 56.4416C374.075 59.2625 374.851 61.9125 376.202 64.2126C376.119 64.2042 376.031 64.1959 375.956 64.1959C371.925 64.1959 368.652 67.2251 368.486 71.0169C366.709 69.571 364.402 68.7002 361.884 68.7002C356.238 68.7002 351.658 73.0502 351.658 78.4128C351.658 78.5129 351.667 78.6004 351.676 78.7004C350.654 78.5212 349.596 78.4128 348.517 78.4128C339.239 78.4128 331.707 85.563 331.707 94.3798C331.707 102.167 337.572 108.638 345.337 110.059C344.938 111.497 344.714 112.997 344.714 114.543C344.714 122.889 350.741 129.881 358.883 131.839C356.97 133.339 355.76 135.601 355.76 138.139C355.76 138.402 355.777 138.652 355.808 138.902C355.505 138.885 355.203 138.864 354.9 138.864C352.242 138.864 349.829 139.835 348.013 141.414C345.135 133.868 337.533 128.476 328.601 128.476C317.213 128.476 307.97 137.243 307.97 148.073C307.97 150.123 308.312 152.098 308.926 153.956C307.308 154.268 305.843 154.952 304.605 155.898C301.013 150.814 294.911 147.46 287.984 147.46C276.934 147.46 267.989 155.969 267.989 166.452C267.989 166.952 268.02 167.444 268.063 167.935C262.545 169.06 258.408 173.715 258.408 179.294C258.408 185.169 263.001 190.011 268.958 190.79L268.963 190.865" fill="#58448B"/>
<path d="M270.647 190.859H393.087V72.2813V40.6307C392.359 40.5391 391.63 40.4766 390.885 40.4766C381.607 40.4766 374.075 47.6267 374.075 56.4435C374.075 59.2644 374.851 61.9145 376.202 64.2145C376.119 64.2062 376.031 64.1979 375.956 64.1979C371.925 64.1979 368.653 67.2271 368.486 71.0188C366.709 69.573 364.402 68.7021 361.884 68.7021C356.238 68.7021 351.658 73.0522 351.658 78.4148C351.658 78.5148 351.667 78.6023 351.676 78.7023C350.654 78.5231 349.596 78.4148 348.517 78.4148C339.239 78.4148 331.707 85.5649 331.707 94.3818C331.707 102.169 337.572 108.64 345.337 110.061C344.938 111.499 344.714 112.999 344.714 114.545C344.714 122.891 350.741 129.882 358.883 131.841C356.97 133.341 355.76 135.603 355.76 138.141C355.76 138.403 355.777 138.653 355.808 138.903C355.505 138.887 355.203 138.866 354.9 138.866C352.242 138.866 349.829 139.837 348.013 141.416C345.135 133.87 337.533 128.478 328.601 128.478C317.213 128.478 307.97 137.245 307.97 148.074C307.97 150.125 308.312 152.1 308.926 153.958C307.308 154.27 305.843 154.954 304.605 155.9C301.013 150.816 294.911 147.462 287.984 147.462C276.934 147.462 267.989 155.97 267.989 166.454C267.989 166.954 268.02 167.446 268.063 167.937C262.545 169.062 258.408 173.717 258.408 179.296C258.408 185.171 263.001 190.013 268.958 190.792L268.963 190.867" fill="url(#paint0_radial)"/>
<path d="M304.604 155.895C301.015 150.807 294.913 147.457 287.987 147.457C276.945 147.457 267.996 155.957 267.996 166.445C267.996 167.182 268.053 167.907 268.136 168.62C268.22 169.328 268.351 170.02 268.518 170.699C268.518 170.137 268.558 169.587 268.606 169.037C269.505 159.341 278.068 151.732 288.509 151.732C294.163 151.732 299.261 153.974 302.897 157.557C305.367 159.995 307.153 163.053 307.977 166.466C307.977 166.457 307.977 166.449 307.977 166.441C307.977 162.541 306.736 158.911 304.604 155.895Z" fill="#AD6475"/>
<path d="M355.732 74.7638C356.85 71.8429 359.39 69.5804 362.566 68.7345C362.338 68.7178 362.11 68.7012 361.877 68.7012C357.627 68.7012 353.981 71.1679 352.441 74.6763C352.823 74.6513 353.205 74.6221 353.591 74.6221C354.319 74.618 355.03 74.6763 355.732 74.7638Z" fill="#AD6475"/>
<path d="M368.894 68.98C367.784 68.5883 366.586 68.3633 365.336 68.3633C364.38 68.3633 363.454 68.4966 362.572 68.73C364.823 68.8716 366.876 69.7008 368.494 71.0092C368.521 70.3008 368.657 69.6216 368.894 68.98Z" fill="#AD6475"/>
<path d="M335.141 130.381C336.067 130.381 336.979 130.444 337.874 130.556C335.088 129.223 331.943 128.469 328.609 128.469C317.217 128.469 307.982 137.24 307.982 148.061C307.982 150.115 308.316 152.09 308.934 153.948C310.781 159.515 315.168 164.007 320.809 166.199C320.989 165.615 321.116 165.011 321.178 164.39C318.217 161.803 316.059 158.399 315.089 154.557C314.716 153.086 314.514 151.553 314.514 149.969C314.51 139.152 323.749 130.381 335.141 130.381Z" fill="#AD6475"/>
<path d="M349.665 111.014C349.665 110.768 349.691 110.531 349.705 110.289C349.31 110.314 348.919 110.348 348.52 110.348C347.432 110.348 346.371 110.239 345.34 110.052C344.949 111.489 344.717 112.989 344.717 114.539C344.717 122.881 350.744 129.869 358.886 131.836C360.373 130.665 362.286 129.956 364.374 129.956C366.252 129.956 367.984 130.535 369.397 131.506C372.362 130.581 374.999 128.973 377.104 126.881C374.516 128.152 371.59 128.885 368.476 128.885C358.088 128.877 349.665 120.881 349.665 111.014Z" fill="#AD6475"/>
<path d="M358.883 131.831C360.37 132.19 361.918 132.402 363.524 132.402C365.577 132.402 367.547 132.077 369.398 131.502C367.985 130.531 366.253 129.952 364.375 129.952C362.283 129.956 360.374 130.661 358.883 131.831Z" fill="#AD6475"/>
<path d="M336.783 90.5883C336.783 86.6007 338.331 82.9631 340.88 80.1631C335.44 82.809 331.707 88.1716 331.707 94.3759C331.707 102.159 337.577 108.634 345.337 110.051C345.789 108.401 346.477 106.847 347.372 105.418C341.174 103.064 336.783 97.3176 336.783 90.5883Z" fill="#AD6475"/>
<path d="M349.705 110.285C349.762 108.894 349.985 107.544 350.363 106.252C349.327 106.06 348.332 105.773 347.375 105.41C346.48 106.839 345.787 108.394 345.34 110.044C346.371 110.231 347.432 110.339 348.52 110.339C348.919 110.344 349.31 110.314 349.705 110.285Z" fill="#AD6475"/>
<path d="M363.892 87.9215C364.147 87.8715 364.397 87.809 364.642 87.7423C364.344 87.7215 364.046 87.6923 363.752 87.6465C363.796 87.7423 363.848 87.8298 363.892 87.9215Z" fill="#AD6475"/>
<path d="M351.674 78.6972C352.929 78.9222 354.135 79.2805 355.276 79.7597C355.175 79.2097 355.113 78.6472 355.113 78.0721C355.113 76.9096 355.341 75.7971 355.736 74.7637C355.034 74.6804 354.324 74.6221 353.6 74.6221C353.209 74.6221 352.832 74.6512 352.45 74.6762C351.946 75.8263 351.665 77.0846 351.665 78.4055C351.661 78.5055 351.67 78.6013 351.674 78.6972Z" fill="#AD6475"/>
<path d="M355.277 79.7588C354.137 79.2838 352.93 78.9255 351.676 78.6963C351.838 83.9214 356.339 88.1131 361.879 88.1131C362.568 88.1131 363.239 88.0465 363.889 87.9215C363.845 87.8298 363.797 87.7381 363.748 87.6465C359.445 87.0131 356.027 83.8256 355.277 79.7588Z" fill="#AD6475"/>
<path d="M167.575 138.89C168.606 136.403 169.176 133.694 169.176 130.861C169.176 118.736 158.828 108.906 146.062 108.906C141.039 108.906 136.389 110.435 132.599 113.019C132.586 113.027 132.573 113.036 132.56 113.044C130.581 110.548 127.839 108.623 124.641 107.635C128.519 103.635 130.893 98.3019 130.893 92.4435C130.893 80.0641 120.325 70.0347 107.301 70.0347C106.138 70.0347 105.002 70.1139 103.888 70.268C104.388 68.4263 104.655 66.4846 104.655 64.4929C104.655 51.7635 93.798 41.4466 80.392 41.4466C72.8335 41.4466 66.0911 44.7259 61.6429 49.876C58.673 46.1384 53.9791 43.7217 48.6843 43.7217C45.9426 43.7217 43.3675 44.3675 41.0995 45.5092C41.1083 45.23 41.1259 44.9509 41.1259 44.6717C41.1259 30.1964 28.7727 18.4629 13.5242 18.4629C8.98388 18.4629 4.69798 19.5129 0.925346 21.3546C1.71935 19.5295 2.17558 17.5253 2.17558 15.4253C2.17558 6.90847 -5.09771 0 -14.0643 0C-16.9508 0 -19.6531 0.708347 -22 1.97504V28.8756V143.453V190.858H147.514V190.666C158.165 190.1 166.619 181.72 166.619 171.462C166.619 161.953 159.354 154.061 149.808 152.507C157.933 151.249 164.64 145.974 167.575 138.89Z" fill="#58448B"/>
<path d="M167.575 138.89C168.606 136.403 169.176 133.694 169.176 130.861C169.176 118.736 158.828 108.906 146.062 108.906C141.039 108.906 136.389 110.435 132.599 113.019C132.586 113.027 132.573 113.036 132.56 113.044C130.581 110.548 127.839 108.623 124.641 107.635C128.519 103.635 130.893 98.3019 130.893 92.4435C130.893 80.0641 120.325 70.0347 107.301 70.0347C106.138 70.0347 105.002 70.1139 103.888 70.268C104.388 68.4263 104.655 66.4846 104.655 64.4929C104.655 51.7635 93.798 41.4466 80.392 41.4466C72.8335 41.4466 66.0911 44.7259 61.6429 49.876C58.673 46.1384 53.9791 43.7217 48.6843 43.7217C45.9426 43.7217 43.3675 44.3675 41.0995 45.5092C41.1083 45.23 41.1259 44.9509 41.1259 44.6717C41.1259 30.1964 28.7727 18.4629 13.5242 18.4629C8.98388 18.4629 4.69798 19.5129 0.925346 21.3546C1.71935 19.5295 2.17558 17.5253 2.17558 15.4253C2.17558 6.90847 -5.09771 0 -14.0643 0C-16.9508 0 -19.6531 0.708347 -22 1.97504V28.8756V143.453V190.858H147.514V190.666C158.165 190.1 166.619 181.72 166.619 171.462C166.619 161.953 159.354 154.061 149.808 152.507C157.933 151.249 164.64 145.974 167.575 138.89Z" fill="url(#paint1_radial)"/>
<path d="M163.592 130.382C163.592 134.132 162.592 137.657 160.832 140.736C162.526 139.557 164.605 138.853 166.864 138.853C166.921 138.853 166.978 138.861 167.04 138.861C168.088 136.369 168.667 133.653 168.667 130.807C168.667 118.794 158.415 109.061 145.773 109.061C145.606 109.061 145.444 109.069 145.281 109.073C155.731 111.086 163.592 119.861 163.592 130.382Z" fill="#AD6475"/>
<path d="M157.186 145.457C153.128 149.461 147.469 151.991 141.188 152.116C142.67 152.403 144.201 152.553 145.772 152.553C149.751 152.553 153.492 151.586 156.752 149.89C156.69 149.453 156.647 149.011 156.647 148.557C156.647 147.474 156.84 146.432 157.186 145.457Z" fill="#AD6475"/>
<path d="M167.039 138.862C166.982 138.862 166.925 138.854 166.864 138.854C164.605 138.854 162.525 139.558 160.832 140.737C159.845 142.466 158.612 144.049 157.187 145.458C156.84 146.433 156.643 147.475 156.643 148.562C156.643 149.016 156.686 149.458 156.748 149.895C161.398 147.474 165.061 143.574 167.039 138.862Z" fill="#AD6475"/>
<path d="M320.807 166.199C322.408 166.82 324.106 167.253 325.878 167.478C324.158 166.657 322.579 165.616 321.18 164.391C321.114 165.011 320.986 165.616 320.807 166.199Z" fill="#AD6475"/>
<path d="M129.001 175.854V175.846V175.838C129.001 165.387 123.106 159.6 117.613 157.354C112.577 155.296 108.085 156.304 105.611 157.492C106.028 156.387 106.265 155.208 106.265 153.971C106.265 148.212 101.356 143.55 95.2934 143.55C91.7357 143.55 88.5772 145.166 86.5725 147.666C86.4891 141.762 81.4268 137.004 75.1932 137.004C72.8199 137.004 70.6134 137.695 68.7972 138.883C68.9859 137.879 69.0999 136.854 69.0999 135.799C69.0999 126.562 61.2212 119.078 51.4957 119.078C45.034 119.078 39.4058 122.395 36.3438 127.308C36.3526 127.191 36.3613 127.083 36.3613 126.958C36.3613 121.232 31.6719 116.562 25.7497 116.187C31.2463 114.445 35.2295 109.528 35.2295 103.715C35.2295 96.457 29.0266 90.5694 21.3805 90.5694C19.1958 90.5694 17.1428 91.0652 15.3091 91.9152C16.1777 89.8402 16.6822 87.586 16.6822 85.2109C16.6822 75.2732 8.19816 67.2147 -2.26433 67.2147C-5.97993 67.2147 -9.4455 68.2481 -12.3671 69.9981C-14.0209 67.9939 -16.4249 66.5731 -19.1886 66.1356C-16.6267 63.7563 -15.0255 60.4313 -15.0255 56.7562C-15.0255 51.8686 -17.833 47.6102 -21.9961 45.3477V86.7735V175.846V264.919C34.0407 263.894 33.8784 230.31 33.8784 230.31C87.27 265.994 117.899 216.534 105.616 194.201C121.891 199.042 129.519 185.234 129.001 175.854Z" fill="#171742"/>
<path d="M309.018 168.629C309.018 166.8 310.575 165.32 312.501 165.32C314.426 165.32 315.984 166.8 315.984 168.629C315.984 170.458 314.426 171.937 312.501 171.937C310.575 171.937 309.018 170.454 309.018 168.629Z" fill="#48376D"/>
<path d="M366.814 157.264C366.814 154.748 368.964 152.706 371.614 152.706C374.263 152.706 376.413 154.748 376.413 157.264C376.413 159.781 374.263 161.823 371.614 161.823C368.964 161.823 366.814 159.785 366.814 157.264Z" fill="#3E3063"/>
<path d="M176.73 163.458C176.73 161.629 178.288 160.149 180.214 160.149C182.139 160.149 183.697 161.629 183.697 163.458C183.697 165.287 182.139 166.766 180.214 166.766C178.288 166.766 176.73 165.283 176.73 163.458Z" fill="#48376D"/>
<path d="M149.914 183.304C155.903 183.304 160.759 178.693 160.759 173.004C160.759 167.316 155.903 162.704 149.914 162.704C143.925 162.704 139.07 167.316 139.07 173.004C139.07 178.693 143.925 183.304 149.914 183.304Z" fill="#48376D"/>
<path d="M97.938 91.8862C101.056 89.3373 101.409 84.87 98.7254 81.9081C96.0419 78.9463 91.3387 78.6114 88.2204 81.1603C85.1021 83.7091 84.7496 88.1765 87.433 91.1383C90.1165 94.1002 94.8197 94.435 97.938 91.8862Z" fill="#48376D"/>
<path d="M79.1113 122.782C79.1113 120.049 81.4451 117.832 84.3228 117.832C87.2006 117.832 89.5343 120.049 89.5343 122.782C89.5343 125.516 87.2006 127.732 84.3228 127.732C81.4451 127.732 79.1113 125.52 79.1113 122.782Z" fill="#48376D"/>
<path d="M114.412 143.424C114.412 141.594 115.969 140.115 117.895 140.115C119.821 140.115 121.378 141.594 121.378 143.424C121.378 145.253 119.821 146.732 117.895 146.732C115.974 146.732 114.412 145.253 114.412 143.424Z" fill="#48376D"/>
<path d="M35.8047 113.903C35.8047 112.074 37.362 110.595 39.2878 110.595C41.2136 110.595 42.7709 112.074 42.7709 113.903C42.7709 115.732 41.2136 117.211 39.2878 117.211C37.3664 117.211 35.8047 115.732 35.8047 113.903Z" fill="#48376D"/>
<path d="M110.855 94.7936C112.819 94.7936 114.412 93.2807 114.412 91.4144C114.412 89.5481 112.819 88.0352 110.855 88.0352C108.89 88.0352 107.297 89.5481 107.297 91.4144C107.297 93.2807 108.89 94.7936 110.855 94.7936Z" fill="#48376D"/>
<path d="M12.3929 145.098C10.6031 145.098 8.86591 145.286 7.19016 145.636C6.56723 140.873 2.29012 137.173 -2.89507 137.173C-2.91261 137.173 -2.92577 137.181 -2.94332 137.181C-1.9212 134.531 -1.37285 131.673 -1.37285 128.69C-1.37285 116.785 -10.2166 106.831 -22.0039 104.46V175.841V213.625C-9.93586 212.262 -8.45312 209.77 -7.02742 202.929C-6.6677 201.216 -6.87388 199.574 -7.58015 198.049C-7.56261 198.049 -7.54945 198.045 -7.5319 198.053C-2.33356 200.287 2.38662 198.541 3.56667 193.191C5.19855 193.391 6.91817 193.499 8.7036 193.499C21.9078 193.499 30.8305 185.095 34.7611 175.836C35.7525 173.34 36.3009 170.636 36.3009 167.803C36.3053 155.269 25.5971 145.098 12.3929 145.098Z" fill="#3E3063"/>
<path d="M14.643 138.965C18.7811 138.965 22.1357 135.779 22.1357 131.848C22.1357 127.918 18.7811 124.731 14.643 124.731C10.505 124.731 7.15039 127.918 7.15039 131.848C7.15039 135.779 10.505 138.965 14.643 138.965Z" fill="#3E3063"/>
<path d="M43.4609 158.644C43.4609 157.103 44.777 155.853 46.4001 155.853C48.0232 155.853 49.3392 157.103 49.3392 158.644C49.3392 160.186 48.0232 161.436 46.4001 161.436C44.777 161.436 43.4609 160.186 43.4609 158.644Z" fill="#3E3063"/>
<path d="M5.20868 120.986C6.83193 120.986 8.14783 119.736 8.14783 118.194C8.14783 116.652 6.83193 115.402 5.20868 115.402C3.58543 115.402 2.26953 116.652 2.26953 118.194C2.26953 119.736 3.58543 120.986 5.20868 120.986Z" fill="#3E3063"/>
<path d="M95.1636 162.705C95.899 159.756 93.9782 156.799 90.8733 156.101C87.7683 155.402 84.6551 157.226 83.9196 160.176C83.1841 163.125 85.1049 166.082 88.2099 166.781C91.3148 167.479 94.4281 165.655 95.1636 162.705Z" fill="#3E3063"/>
<path d="M63.3366 196.329C72.921 196.329 80.6907 188.949 80.6907 179.845C80.6907 170.741 72.921 163.361 63.3366 163.361C53.7521 163.361 45.9824 170.741 45.9824 179.845C45.9824 188.949 53.7521 196.329 63.3366 196.329Z" fill="#3E3063"/>
<path d="M393.091 152.765C392.705 152.736 392.319 152.711 391.929 152.711C384.454 152.711 378.391 158.469 378.391 165.57V165.574C377.755 165.432 377.097 165.349 376.417 165.349C371.675 165.349 367.832 168.999 367.832 173.503C367.832 173.882 367.867 174.253 367.92 174.62C367.937 174.753 367.959 174.882 367.981 175.016C367.999 175.099 368.016 175.182 368.034 175.266C368.073 175.441 368.1 175.624 368.148 175.795H368.179C369.122 178.857 371.903 181.166 375.316 181.582C376.417 185.312 379.685 188.174 383.756 188.862C383.589 189.495 383.493 190.149 383.493 190.833C383.493 195.337 387.336 198.987 392.078 198.987C392.42 198.987 392.758 198.962 393.091 198.924V171.486V152.765Z" fill="#3E3063"/>
</g>
<defs>
<radialGradient id="paint0_radial" cx="0" cy="0" r="1" gradientUnits="userSpaceOnUse" gradientTransform="translate(325.752 115.668) scale(73.4883 69.8022)">
<stop stop-color="#D37575"/>
<stop offset="0.9946" stop-color="#58448B" stop-opacity="0"/>
</radialGradient>
<radialGradient id="paint1_radial" cx="0" cy="0" r="1" gradientUnits="userSpaceOnUse" gradientTransform="translate(98.8052 39.0016) scale(98.0584 93.1398)">
<stop stop-color="#D37575"/>
<stop offset="0.9946" stop-color="#58448B" stop-opacity="0"/>
</radialGradient>
<clipPath id="clip0">
<rect width="375" height="191" fill="white"/>
</clipPath>
</defs>
</svg>
