<svg width="171" height="158" viewBox="0 0 171 158" fill="none" xmlns="http://www.w3.org/2000/svg">
<g clip-path="url(#clip0)">
<g clip-path="url(#clip1)">
<path fill-rule="evenodd" clip-rule="evenodd" d="M139.708 7.77025C139.352 8.89874 139.539 10.0964 137.996 10.5252C135.224 8.87454 137.185 8.71335 133.81 10.4706C132.024 11.3877 132.036 7.30672 130.279 8.6453C126.902 11.2334 128.18 8.0648 125.853 8.59867C123.976 9.02738 124.626 6.53733 121.818 6.57048C122.477 10.0236 122.199 14.8725 122.041 18.4711C121.765 24.6857 123.026 25.045 116.188 24.7662C111.895 24.5758 106.175 25.3735 101.909 25.1061C98.5758 24.9019 94.564 24.9203 91.1573 24.8904C88.7494 24.8609 83.7877 24.6519 81.447 24.3935C79.7052 24.1981 77.6019 24.2458 75.7748 24.1153C73.9842 23.9807 70.8376 23.6266 69.2622 23.5976C65.8331 23.5331 62.6437 23.4607 59.1843 23.2889C57.5094 23.197 54.7644 23.297 53.3313 23.0491C50.2763 22.5189 47.7925 23.31 47.954 19.914C48.0573 17.835 48.8193 17.1971 48.3949 15.0287C48.1302 13.6365 48.2865 11.3671 48.3524 10.2891C48.4765 7.72794 48.7428 5.11411 47.0622 2.45683C45.8596 3.12496 44.6571 3.79309 43.4546 4.46121C42.9818 4.1996 42.511 3.95622 42.0382 3.69461C41.7762 3.8343 41.5141 3.974 41.2521 4.11369C40.5479 3.76686 39.8417 3.4018 39.1375 3.05497C38.4143 3.54095 37.6729 4.02895 36.9497 4.51493C36.2596 4.29577 35.5878 4.07459 34.8977 3.85543C34.5991 3.99916 34.3188 4.14087 34.0202 4.2846C33.669 4.28646 33.336 4.28631 32.9868 4.30641C32.2402 3.74275 31.4935 3.17909 30.7469 2.61542C30.507 2.95573 30.6753 10.0074 30.5618 11.9952C30.4606 13.9262 30.5023 19.4965 31.1873 20.8423C29.9885 21.8793 28.6184 21.5321 26.9964 21.4159C26.1011 21.3486 23.3259 21.1751 22.9788 21.0472C21.5195 20.5623 16.2837 20.3836 13.9923 19.5659C13.6073 20.9375 16.8494 45.9438 17.1851 49.6541C17.7018 55.3382 17.989 61.1214 18.5199 66.767C18.7572 69.2513 18.2569 72.4263 18.6771 74.7244C19.1074 77.1136 18.4072 79.1477 18.7443 81.3626C19.1498 84.1976 18.592 85.8468 18.7971 88.0394C18.9561 89.6463 19.8554 89.7501 19.6766 92.1512C19.5492 93.8451 19.4766 95.533 19.3878 97.2411C19.2202 100.749 19.217 104.238 18.8444 107.731C18.5168 110.795 19.0296 113.932 18.9518 116.912C18.7821 122.746 18.2438 127.587 18.5633 133.496C18.7976 137.125 15.7606 143.626 16.221 148.633C18.9293 148.703 22.0156 148.344 24.7911 148.185C28.2488 148.006 31.5171 148.458 34.9974 147.981C38.2949 147.525 46.6553 147.691 50.0314 147.946C55.87 148.39 63.4436 147.462 68.5877 148.149C74.4443 148.924 80.9066 148.819 87.0031 149.254C90.5842 149.523 94.3384 149.182 98.1449 149.482C101.578 149.749 104.278 149.912 107.729 150.011C111.126 150.116 113.878 151.252 117.512 151.164C121.552 151.069 125.472 151.891 129.114 151.711C134.081 151.458 142.602 153.249 147.805 154.133C151.085 154.694 152.527 154.682 152.258 150.743C152.098 148.453 152.473 146.326 152.276 143.874C152.053 141.185 152.299 138.721 152.08 136.068C151.831 133.142 151.567 131.584 151.659 128.564C151.878 121.673 150.669 113.74 151.225 107.051C151.502 103.697 151.791 99.4383 151.773 96.0989C151.761 92.1314 151.391 89.6247 151.988 85.4791C152.922 79.0257 152.997 71.8364 153.342 65.2449C153.513 61.9401 154.221 58.9637 154.341 55.8676C154.495 51.9001 154.594 48.1049 155.121 44.17C155.593 40.5735 155.828 37.0033 156.469 33.4251C156.959 30.6574 158.316 28.883 157.296 26.1713C156.153 23.1961 140.959 25.4646 140.658 23.4118C140.951 20.5366 141.282 18.1741 141.463 15.1266C141.563 13.3435 141.108 13.0798 141.38 11.0192C141.551 9.89266 141.139 7.83373 139.708 7.77025Z" fill="#A5A3B8"/>
<path fill-rule="evenodd" clip-rule="evenodd" d="M39.2772 5.49369C39.3401 5.56058 39.403 5.62748 39.4659 5.69438C39.991 6.43018 40.5182 7.18421 41.0251 7.92202C41.1307 7.87344 41.2161 7.80864 41.3217 7.76006C41.5798 7.41773 41.8197 7.07742 42.0779 6.73509C42.6723 7.26018 43.2646 7.76704 43.859 8.29213C43.9341 8.30229 44.0092 8.31246 44.0641 8.30641C44.6454 7.54073 45.2267 6.77505 45.8101 6.02761C45.871 6.07627 45.9501 6.12291 46.013 6.18981C46.8298 7.72411 46.1941 17.0428 46.0863 19.4176C45.9583 21.7762 45.9972 35.0263 45.9829 35.0648C45.3351 35.2286 43.9502 35.5846 43.2277 35.2398C41.2166 34.2804 42.4035 35.1462 40.2758 35.1412C39.9127 34.8675 39.5698 34.61 39.2066 34.3362C38.2661 34.8647 37.3439 35.3911 36.4054 35.9377C35.0872 34.385 35.2795 34.9545 33.9428 35.9143C33.7033 35.7562 33.4639 35.598 33.2408 35.4196C33.1081 31.7053 32.9734 27.9727 32.8407 24.2584C32.9138 24.2504 32.9889 24.2605 33.062 24.2525C33.0784 24.066 33.0786 23.8999 33.095 23.7135C33.1261 22.9901 32.8581 16.2079 32.8096 15.9363C32.3912 13.8227 32.5735 14.301 32.5066 12.0193C32.4811 10.9515 32.9604 8.59102 32.4742 7.37095C36.3739 7.84489 34.2167 6.7355 35.9202 6.58431C36.4883 7.03847 37.0544 7.47439 37.6224 7.92855C38.1612 7.11219 38.7182 6.29382 39.2772 5.49369Z" fill="#F0F1F7"/>
<path fill-rule="evenodd" clip-rule="evenodd" d="M131.04 11.0152C131.647 11.6497 131.418 12.7641 132.096 13.7046C133.188 15.2268 133.765 13.4095 134.697 12.642C135.969 11.597 136.406 11.3642 136.926 13.0604C137.596 15.2755 138.773 13.2072 139.139 13.0007C140.554 13.4167 138.882 21.0592 138.832 22.2831C138.748 23.8615 137.982 37.6989 137.842 37.9359C136.901 38.2982 136.732 36.7662 135.699 36.788C135.015 36.7897 134.871 37.8393 134.11 38.3111C131.995 39.5968 132.559 35.9902 130.011 37.8776C127.874 39.4611 127.545 35.307 125.613 37.9201C124.05 40.0126 124.216 36.4868 124.267 35.7797C124.356 34.0715 123.841 33.5931 123.936 31.7735C124.035 29.8242 123.922 29.4675 123.733 27.587C123.61 26.3084 124.148 14.9329 124.427 13.776C125.065 13.1887 125.668 13.9529 126.067 12.7089C126.325 11.8681 126.839 11.6637 127.533 12.2516C129.568 13.9283 129.599 12.7065 131.04 11.0152Z" fill="#F0F1F7"/>
<path fill-rule="evenodd" clip-rule="evenodd" d="M155.187 27.3435C154.678 28.7657 154.854 31.6999 154.471 33.4221C153.79 36.4693 153.786 38.9435 153.149 42.0597C152.835 43.5711 152.577 48.6024 152.683 50.2336C152.883 53.5528 151.715 56.2108 151.639 59.3758C151.582 61.8743 150.922 64.2731 150.796 66.9822C150.678 69.432 150.725 72.0298 150.473 74.4389C150.026 78.771 149.987 83.6118 149.752 88.0129C149.453 93.5102 149.649 98.805 149.36 104.393C149.271 106.268 149.163 108.144 149.056 110.02C148.953 111.933 149.441 113.171 149.427 114.89C149.399 117.311 148.913 119.783 149.364 122.189C149.548 123.184 149.631 129.635 149.664 131.275C149.697 133.579 149.79 135.765 149.731 138.079C149.685 140.17 150.611 151.236 149.544 151.631C148.957 151.843 141.597 150.847 140.267 150.699C138.395 150.499 138.304 150.509 136.509 150.504C135.084 150.496 134.051 149.853 132.679 149.654C129.557 149.186 126.761 149.163 123.503 148.636C120.846 148.191 117.743 148.903 114.331 148.32C108.976 147.397 103.458 147.342 97.9984 147.151C92.2631 146.972 86.4287 146.398 80.7117 146.217C77.0553 146.104 68.6835 144.998 65.6886 145.347C60.6287 145.924 54.0071 144.754 48.99 145.049C43.5507 145.373 38.7822 144.737 33.3184 145.174C31.9987 145.283 28.2814 145.121 26.6004 145.14C24.9741 145.154 20.028 145.589 19.1167 145.376C19.3981 141.727 20.4359 139.065 20.476 135.073C20.5201 131.284 21.123 126.861 20.9841 123.258C20.7761 117.521 20.8707 111.677 21.3854 105.953C21.5967 103.512 21.0941 100.3 21.2671 97.5114C21.3702 95.7648 21.8799 91.1673 21.7634 89.7772C21.6348 88.2777 20.7993 87.2439 20.817 85.562C20.8205 83.9187 20.9924 82.4598 20.933 80.7496C20.8402 77.8985 20.579 74.863 20.5227 72.0079C20.429 67.8093 20.801 64.9807 19.9908 60.6582C19.4473 57.7462 19.2567 53.0045 19.0402 49.8717C18.6515 44.1735 17.5262 38.0029 17.0157 32.2074C15.8625 18.7481 13.9338 23.2253 25.7819 23.6523C32.1323 23.8741 30.546 22.4063 30.8502 27.3385C30.9042 28.1632 31.4382 28.1412 31.3288 30.1654C31.2607 31.3913 31.1518 32.7509 31.1386 33.9708C31.1348 35.9464 32.0764 36.4332 30.897 38.4832C30.8847 38.54 30.8542 38.5987 30.842 38.6555C31.934 38.9964 33.0239 39.3191 34.1342 39.658C34.1626 39.581 34.1749 39.5243 34.2034 39.4473C34.8132 38.6046 34.3878 37.5994 35.8918 37.9871C36.34 38.5283 36.7902 39.0878 37.2384 39.629C37.3481 39.6169 37.4577 39.6048 37.5674 39.5927C37.9926 38.5858 38.3996 37.581 38.8228 36.5558C38.9953 36.6106 39.1861 36.6634 39.3606 36.7364C39.9625 37.9991 39.6994 39.3019 41.5084 39.2683C41.7688 38.6119 42.0456 37.9352 42.306 37.2788C42.9023 37.9883 43.4803 38.6998 44.0785 39.4275C44.1862 39.3972 44.2918 39.3486 44.3994 39.3183C44.6049 38.8341 44.8084 38.3316 45.0321 37.8454C45.3022 37.7787 45.5743 37.7302 45.8627 37.6614C46.0956 38.2633 46.2396 40.7396 47.895 39.8184C48.5455 39.0081 48.2102 30.2766 48.0404 29.4092C47.8323 28.3615 47.7422 24.6979 48.6557 24.7632C51.0229 24.9264 53.4143 25.1423 55.7814 25.3055C61.482 25.6729 67.1665 25.8944 72.8263 26.5616C75.3191 26.8586 83.4121 26.4449 84.8005 26.7901C89.2721 27.9208 94.0946 27.2037 98.628 27.3861C100.634 27.46 103.026 26.5128 105.139 27.3871C105.255 27.4297 109.488 27.4054 109.947 27.3731C111.721 27.1957 113.475 27.9989 115.14 27.5012C116.752 27.0278 119.877 27.3474 121.649 27.4839C121.817 27.6684 121.988 27.8711 122.156 28.0556C122.31 31.1215 121.804 41.958 124.088 42.5365C125.069 42.0406 126.627 36.8843 127.335 39.9444C128.556 45.3106 129.327 39.2259 131.14 39.5611C131.504 40.5177 131.887 41.4723 132.252 42.4289C132.341 42.4006 132.428 42.354 132.536 42.3236C134.27 42.1137 134.048 38.2616 136.057 39.2027C137.656 39.9492 136.706 44.2445 139.001 43.4188C140.423 40.8805 139.955 27.9362 140.693 27.0794C142.669 26.8797 145.586 27.3329 147.352 27.2487C149.354 27.1199 153.91 26.8383 155.187 27.3435Z" fill="#F0F1F7"/>
<path fill-rule="evenodd" clip-rule="evenodd" d="M23.7893 57.1937C24.2563 57.0683 27.6052 53.7264 28.633 53.1514C29.4496 52.6736 33.0252 50.0451 33.714 49.4152C36.4043 46.9768 41.663 44.3471 43.866 41.8517C42.8654 41.5006 34.1112 47.9869 32.815 48.9792C31.6732 49.8621 22.3285 56.0259 23.7893 57.1937Z" fill="#A5A3B8"/>
<path fill-rule="evenodd" clip-rule="evenodd" d="M27.1205 63.5822C27.3274 63.7809 27.5343 63.9796 27.7412 64.1782C29.8742 60.5461 42.1604 52.5438 45.698 49.2364C44.5842 48.3626 28.5924 61.3337 27.1205 63.5822Z" fill="#A5A3B8"/>
<path fill-rule="evenodd" clip-rule="evenodd" d="M26.6581 59.3875C26.6802 59.5881 26.6821 59.7725 26.7042 59.9731C32.8279 54.9588 38.9536 49.9627 45.0773 44.9484C43.0255 44.1227 29.4778 57.4516 26.6581 59.3875Z" fill="#A5A3B8"/>
<path fill-rule="evenodd" clip-rule="evenodd" d="M29.5471 65.7881C29.5225 66.0677 29.4959 66.3291 29.453 66.6108C29.6337 66.5723 29.8327 66.5319 30.0114 66.4753C34.4104 62.5928 37.8889 59.5874 42.5128 56.234C40.7451 55.4692 31.9935 63.6535 29.5471 65.7881Z" fill="#A5A3B8"/>
<path fill-rule="evenodd" clip-rule="evenodd" d="M29.7464 69.4395C29.21 69.9418 28.6533 70.4279 28.1168 70.9301C28.1673 71.2199 28.1996 71.5117 28.2501 71.8015C28.4836 71.7388 28.7191 71.6943 28.9527 71.6316C28.9269 70.8961 37.4451 64.9528 37.4581 64.0653C35.7139 64.3502 30.7374 69.2009 29.7464 69.4395Z" fill="#A5A3B8"/>
<path fill-rule="evenodd" clip-rule="evenodd" d="M130.475 25.3283C131.834 24.2367 131.364 21.4827 130.214 19.616C129.854 20.5418 129.705 24.2134 130.475 25.3283Z" fill="#A5A3B8"/>
<path fill-rule="evenodd" clip-rule="evenodd" d="M37.376 20.6009C38.0958 19.4138 36.5722 15.8346 35.1578 15.0862C35.0916 16.4965 35.8026 20.59 37.376 20.6009Z" fill="#A5A3B8"/>
<path fill-rule="evenodd" clip-rule="evenodd" d="M24.0095 134.24C23.7643 136.04 24.7725 139.14 26.6215 139.804C27.4453 138.051 25.9683 134.726 24.0095 134.24Z" fill="#A5A3B8"/>
<path fill-rule="evenodd" clip-rule="evenodd" d="M127.93 25.5731C128.892 24.0639 128.216 21.9603 126.695 20.2453C125.76 20.9946 126.743 24.8735 127.93 25.5731Z" fill="#A5A3B8"/>
<path fill-rule="evenodd" clip-rule="evenodd" d="M30.7781 136.908C29.6977 134.997 30.025 134.444 27.7976 132.53C27.0778 133.717 29.0266 138.468 30.7781 136.908Z" fill="#A5A3B8"/>
<path fill-rule="evenodd" clip-rule="evenodd" d="M40.4883 18.1346C40.9093 17.4235 40.4729 14.9796 39.0624 14.4338C38.5822 15.6129 38.9436 17.8806 40.4883 18.1346Z" fill="#A5A3B8"/>
<path fill-rule="evenodd" clip-rule="evenodd" d="M29.0326 76.0349C29.2968 75.7473 29.559 75.4414 29.8415 75.1518C30.1137 74.9371 30.386 74.7224 30.6582 74.5078C31.1621 74.046 31.666 73.5843 32.17 73.1225C32.8791 72.5088 33.5902 71.9134 34.2993 71.2998C33.1875 70.4442 28.3129 74.8775 29.0326 76.0349Z" fill="#A5A3B8"/>
<path fill-rule="evenodd" clip-rule="evenodd" d="M28.7454 81.3086C29.6206 81.1935 32.0528 78.9313 31.8343 78.1247C30.5757 77.9498 28.7425 80.109 28.7454 81.3086Z" fill="#A5A3B8"/>
<path fill-rule="evenodd" clip-rule="evenodd" d="M28.8779 87.7007C29.6674 87.9828 31.1549 86.5448 31.0927 85.6471C30.1035 86.2363 28.6354 86.5091 28.8779 87.7007Z" fill="#A5A3B8"/>
<path fill-rule="evenodd" clip-rule="evenodd" d="M150.201 27.0834C149.113 41.1779 145.35 91.1958 145.498 107.111C145.666 125.718 144.918 140.551 144.796 143.13C144.674 145.377 63.9979 141.086 31.8736 145.151C32.4462 145.143 32.9639 145.141 33.2928 145.105C38.7546 144.649 43.5231 145.286 48.9644 144.98C53.9814 144.685 60.6031 145.855 65.663 145.278C68.6579 144.928 77.0296 146.035 80.686 146.148C86.403 146.329 92.2375 146.903 97.9728 147.082C103.448 147.253 108.95 147.328 114.305 148.251C117.717 148.834 120.802 148.124 123.477 148.567C126.738 149.111 129.533 149.135 132.653 149.584C134.044 149.781 135.058 150.426 136.484 150.435C138.28 150.458 138.37 150.43 140.241 150.629C141.571 150.778 148.95 151.772 149.519 151.562C150.587 151.185 149.641 140.103 149.706 138.01C149.767 135.714 149.671 133.509 149.639 131.205C149.624 129.564 149.52 123.096 149.338 122.119C148.888 119.714 149.373 117.242 149.402 114.82C149.415 113.102 148.927 111.864 149.03 109.951C149.138 108.075 149.245 106.198 149.334 104.324C149.625 98.7539 149.429 93.459 149.726 87.9435C149.962 83.5425 150.001 78.7016 150.447 74.3696C150.699 71.9604 150.653 69.3627 150.771 66.9129C150.897 64.2038 151.557 61.8049 151.614 59.3065C151.671 56.1434 152.858 53.4834 152.657 50.1642C152.551 48.533 152.828 43.4998 153.124 41.9903C153.76 38.8741 153.764 36.4 154.445 33.3527C154.83 31.6488 154.652 28.6963 155.161 27.2741C154.355 27.0123 152.191 27.0113 150.201 27.0834Z" fill="#DCDCE8"/>
</g>
<path d="M103.593 69.1362C103.733 68.7582 103.633 68.4065 103.295 68.0813C101.636 66.7536 99.8453 64.7757 97.8742 63.9055C97.4296 63.7129 97.0245 63.8785 96.6989 64.2166C94.9516 65.9204 93.96 68.9912 92.863 71.1066L88.9603 78.4875C86.3075 83.4943 83.4092 88.4678 81.2076 93.7269C78.74 91.0986 76.04 88.5563 73.4726 86.1202C73.2072 85.9078 72.7226 85.9009 72.5034 86.1064C71.5069 86.9416 70.2846 87.9227 70.2504 89.256C69.3 90.5092 71.3766 92.3347 72.0199 93.2306C74.7854 96.9139 77.6573 100.465 80.5358 104.075C80.8939 104.579 81.8166 104.719 82.2353 104.129C85.9575 98.3998 89.6133 92.6175 93.3355 86.8883C96.845 81.4242 101.091 76.0602 103.838 70.2574C104.031 69.8131 103.865 69.4083 103.593 69.1362ZM91.298 85.965C87.948 91.2301 84.5914 96.4355 81.2413 101.701C79.5831 99.8289 77.978 97.8909 76.3197 96.0193C75.6232 95.1897 70.3756 90.3904 70.8211 89.4952L70.8145 89.4355C71.6181 89.0446 72.2095 88.3749 72.8738 87.8181C75.4675 90.493 78.0147 93.2939 80.8211 95.7035C81.4248 96.2412 82.3681 95.4723 82.1097 94.7756C85.074 90.3992 87.4412 85.5448 89.8879 80.8629C91.191 78.4225 92.4875 75.9224 93.8503 73.4754C95.0005 71.2936 96.0918 68.0306 97.7464 66.0348C99.2329 66.8981 100.679 68.491 101.946 69.5598C97.8926 74.4795 94.7544 80.5673 91.298 85.965Z" fill="#A5A3B8"/>
</g>
<defs>
<clipPath id="clip0">
<path d="M0 0H171V158H0V0Z" fill="white"/>
</clipPath>
<clipPath id="clip1">
<rect x="0.464844" y="5.93945" width="153.865" height="164" transform="rotate(-6.30113 0.464844 5.93945)" fill="white"/>
</clipPath>
</defs>
</svg>
