<svg width="22" height="23" viewBox="0 0 22 23" fill="none" xmlns="http://www.w3.org/2000/svg">
<g clip-path="url(#clip0)">
<path fill-rule="evenodd" clip-rule="evenodd" d="M17.151 2.40534L20.4951 5.7494C21.1361 6.39049 21.5 7.2395 21.5 8.14049V18.987C21.5 19.9053 21.1535 20.7544 20.5124 21.3954C19.8713 22.0365 19.005 22.3831 18.104 22.3831H3.89604C2.97772 22.3831 2.12871 22.0365 1.48762 21.3954C0.846535 20.7544 0.5 19.888 0.5 18.987V8.14049C0.5 7.2395 0.846535 6.39049 1.50495 5.7494L4.83168 2.40534C5.47277 1.74693 6.33911 1.40039 7.2401 1.40039H14.7599C15.6436 1.40039 16.5272 1.76425 17.151 2.40534ZM7.2401 3.46227C6.89356 3.46227 6.56436 3.60089 6.30446 3.84346L4.01733 6.13059H17.9827L15.6955 3.84346C15.4356 3.60089 15.1064 3.46227 14.7426 3.46227H7.2401ZM19.0396 19.9573C19.2995 19.6974 19.4381 19.3509 19.4381 19.0044H19.4035V8.19247H2.52723V19.0044C2.52723 19.3682 2.68317 19.7147 2.92574 19.9573C3.18564 20.2172 3.53218 20.3558 3.87871 20.3558H18.0866C18.4505 20.3558 18.797 20.1999 19.0396 19.9573ZM14.2399 15.1579C13.3736 16.0242 12.23 16.492 10.9998 16.492C9.7696 16.492 8.62603 16.0069 7.7597 15.1579C6.91069 14.2915 6.42554 13.148 6.42554 11.9178C6.42554 11.6406 6.5295 11.3807 6.72009 11.1901C6.91069 10.9995 7.17059 10.8955 7.44781 10.8955C7.72504 10.8955 7.98494 10.9995 8.17554 11.1901C8.36613 11.3807 8.47009 11.6406 8.47009 11.9178C8.47009 12.5935 8.72999 13.2173 9.21514 13.7024C9.70029 14.1876 10.3241 14.4475 10.9998 14.4475C11.6755 14.4475 12.3166 14.1703 12.7845 13.7024C13.2696 13.2173 13.5295 12.5935 13.5295 11.9178C13.5295 11.6406 13.6335 11.3807 13.8241 11.1901C14.2052 10.8089 14.8983 10.8089 15.2795 11.1901C15.4701 11.3807 15.5741 11.6406 15.5741 11.9178C15.5741 13.148 15.1062 14.2915 14.2399 15.1579Z" fill="white"/>
</g>
<defs>
<clipPath id="clip0">
<path d="M0 0.700195H22V22.7002H0V0.700195Z" fill="white"/>
</clipPath>
</defs>
</svg>
