<svg xmlns="http://www.w3.org/2000/svg" viewBox="0 0 103.62 127.75"><defs><style>.cls-1{fill:#a1edff;}.cls-2{fill:#ff9810;}.cls-3{fill:#ff8212;}.cls-4{fill:#fcd200;}.cls-5{fill:#fb5373;}.cls-6{fill:#d33d65;}.cls-7{fill:#e9f0f2;}.cls-8{fill:#06c8fc;}.cls-9{fill:#05b4dd;}.cls-10{fill:#a4ebfc;}.cls-11{fill:#dadfe0;}</style></defs><title>simple-rocket</title><g id="Слой_2" data-name="Слой 2"><g id="Слой_1-2" data-name="Слой 1"><path class="cls-1" d="M46.1,93.86a2,2,0,0,1-1.12.3Z"/><path class="cls-2" d="M31.45,72.21c.39.68-30.78,14.5-26.39,15.46l8.1-.76c3.73-.07-13.38,13.07-13,13.44-1.53,3.21,9.38-1.74,8.85.93.8-.29-10.68,29.05-7,26.29.68.05,16.71-19.4,17.31-16.93.52.16,3.17,11.16,4.59,8.82L31.13,106c1.35-1.88,5.5,6.34,6.83,4.36l7.72-17c1.26-1.93,5.19,7.08,6.16,4.34-.05-.68,1.58-14.52-.59-14.23l-7.09,3.36c-1.22.55-.75-2.31-2.09-1.11l-7.54,9.84c-3.81,2.06,3.93-11.94.29-10.14l-6.38,6.18a.64.64,0,0,1-.45.23.67.67,0,0,1-.47-.15.67.67,0,0,1-.08-.93c-.28-.39,9.87-12.76,6.76-12.23-.67-.09-5.46,1.92-4.74-.12-.07-.48,4.75-6.86,2-6.11"/><path class="cls-3" d="M51.3,83.53l-7.08,3.36c-1.22.55-.75-2.32-2.09-1.11C41.68,85.6,33.52,99,33.45,95l2.5-9c-.13-4.07-8.81,9.32-8.46,4.67L34.9,79.51c.89-2.16-4.07,0-4.71-.16-2.42.15,2.19-5.55,2.14-6.16,1.16-3.33-11.73,5.37-12,5l-9.17,8.29a.59.59,0,0,0-.18.29.62.62,0,0,0,0,.33c.53.08,2.72-.63,2.91.22.68.3,6.6-1.83,6.13.1l-8,25.6c-.6,4.49,17.11-17.14,17.31-16.5,1.38-1.67,4,8.7,4.49,9,1.05,2.86,7.85-13.46,8.36-13.41.76-1.32,2.64,1.74,3.23,2,1-3,2.47.89,3.73,2l3.17-7c-.41-2.28,1-5.64-1-5.77"/><path class="cls-4" d="M20,88.1c.58.09-8.5,23-5.53,21l13-13.71a.46.46,0,0,1,.22-.14.57.57,0,0,1,.26,0,.51.51,0,0,1,.23.12.49.49,0,0,1,.16.21c.43.19,2.53,8.87,3.67,7.07l5.75-10.77a.46.46,0,0,1,.16-.18.43.43,0,0,1,.22-.09.53.53,0,0,1,.25,0,.49.49,0,0,1,.2.13c.48.14,4.07,5,4.64,3.6l4.59-10.09c-7,4-2.85-.48-5.64.57-.44-.16-8.63,13.21-8.67,9.27-.3-.46,4.27-11.27,1.41-9.62l-6.38,6.18c-4.08,1.69,6.56-11.45,6.2-11.66-.07-.25.26-.62.37-.82a.68.68,0,0,0-.07-.27.91.91,0,0,0-.18-.21.8.8,0,0,0-.25-.11.66.66,0,0,0-.28,0c-8.29,2.37-3.62-1.27-1.91-5.37.9-3.08-8.4,3.57-8.9,3.37,2.31.31-10.39,10.06-10.22,10.44a.66.66,0,0,1,.38.12.64.64,0,0,1,.23.33.61.61,0,0,1,0,.4.69.69,0,0,1-.23.33c.49.23,6.82-1.71,6.34-.12"/><path class="cls-5" d="M36.22,39,25.44,44.16c-1.63,0-7.31,16.66-8.11,17.82-1.1,2.71,1.27,4.72,3.22,2.63l4-4.34c.54-.87,5.83-2.17,6.75-2.57,2.18-.17,6.32-13.89,7.31-15.36.89-2.16-.53-4.14-2.35-3.27"/><path class="cls-5" d="M82.62,73,81.05,84.83c.56,1.54-13.63,12-14.48,13.15-2.25,1.88-4.87.18-3.47-2.26L66,90.62c.67-.8.3-6.24.4-7.23-.51-2.1,11.29-10.25,12.38-11.65,1.82-1.5,4.1-.75,3.82,1.21"/><path class="cls-6" d="M33.07,56c2.19-7.71,13.84-23.83-4.15-13.42a89.91,89.91,0,0,0,1.24,15.54,3.77,3.77,0,0,0,1.73-.68A3.67,3.67,0,0,0,33.07,56"/><path class="cls-6" d="M67.5,81c6.74-4.35,18.61-20.29,14,0a90.25,90.25,0,0,1-15.14,3.38,3.71,3.71,0,0,1,.16-1.87,3.6,3.6,0,0,1,1-1.55"/><path class="cls-5" d="M31,62.72c-11.38,4.17-.9,15.78,7.09,22.68,9,5.54,23.17,12,23.72-.12C52.34,86.29,32,72.21,31,62.72Z"/><path class="cls-6" d="M43.18,78.24C32.7,70.75,31,62.67,30.93,62.63l-3,1.71c2.78,9.51,22.54,23.24,33.63,21.85l.21-1a36.59,36.59,0,0,1-18.6-6.93"/><path class="cls-7" d="M95.82,52.29,103.49,17C104.79,2.33,96.62-3.54,83.1,2.13,68.17,12.69,50.9,15.4,38.78,34.44c-16,21.78-7.72,42.22,16.48,50.26C70.71,92,94.77,61.46,95.83,52.29"/><path class="cls-7" d="M86.37,54.17C70.43,75.81,37.43,51.64,53.18,29.88,69.12,8.24,102.13,32.41,86.37,54.17Z"/><path class="cls-8" d="M83.78,52.27c-13.45,18.26-41.3-2.13-28-20.49C69.23,13.51,97.07,33.89,83.78,52.27Z"/><path class="cls-9" d="M80,28a17.31,17.31,0,0,0-20.83.29c14.41-11.22,34.59,8.6,23.19,23.31C75.07,62.26,57.6,59.75,53.42,47.7,65.23,75.59,103.21,47.56,80,28"/><path class="cls-5" d="M98.78,2c-4.63-4.17-15-1.49-23.87,4.79a43.89,43.89,0,0,0,26.53,19.51c3.31-10.49,2.78-21-2.66-24.32"/><path class="cls-7" d="M28,69.73a4,4,0,0,1,1.58-1.24,4.12,4.12,0,0,1,2-.35A4.14,4.14,0,0,1,30,69.39a4,4,0,0,1-2,.34"/><path class="cls-7" d="M33.17,77a4.08,4.08,0,0,1,1.45-1.41A4.14,4.14,0,0,1,36.56,75a4.08,4.08,0,0,1-1.45,1.41,4.14,4.14,0,0,1-1.94.55"/><path class="cls-7" d="M56.06,90.29a4.15,4.15,0,0,1,.44-3.9,4.08,4.08,0,0,1-.44,3.9Z"/><path class="cls-7" d="M47.63,87.53a4.07,4.07,0,0,1-.07-2,4,4,0,0,1,.9-1.81,4.19,4.19,0,0,1,.07,2,4,4,0,0,1-.9,1.81"/><path class="cls-7" d="M39.81,82.92a4.27,4.27,0,0,1,.79-1.86,4.05,4.05,0,0,1,1.59-1.25,4.27,4.27,0,0,1-.79,1.86,4.14,4.14,0,0,1-1.59,1.25"/><path class="cls-10" d="M67.88,50.7c1.09,2.41-2.72,4.08-3.73,1.63S66.87,48.24,67.88,50.7Z"/><path class="cls-10" d="M61.2,45.37a1.08,1.08,0,0,1-.57,1.43,1.09,1.09,0,0,1-.86-2,1.08,1.08,0,0,1,.83,0,1.1,1.1,0,0,1,.6.58"/><path class="cls-10" d="M68.75,29.3c1.78,2.8,2.1,6.08,2.12,9.29,1.37,5.11,3.74,10.17,2.94,15.59l-.19,0C70.75,49.5,71,44,70.22,38.74c-1.23-3-2.21-6.11-1.67-9.37Z"/><path class="cls-10" d="M78.43,40.89A57.44,57.44,0,0,1,76.67,51c-1-4.52-2.1-9.25-2-13.9a45.23,45.23,0,0,1,2.76,10.29l-1.46,0A37.67,37.67,0,0,1,78.4,40.9"/><path class="cls-11" d="M47.52,77.38c-24.64-14-5.6-46.59,8.5-55.9C63.54,18.14,93.1-4.25,100.53,3.76,91.72-9.13,62,16,51.91,20.14c0,0-6.95,4.17-13.13,14.29C32.22,44.51,26.32,58.94,33.4,68.71,40.91,79.1,56.51,90.06,69.72,83.27c-8.59,2.3-14.45-.6-22.2-5.89"/><path class="cls-7" d="M49.76,71.31a1.3,1.3,0,0,1-.34.32,1.21,1.21,0,0,1-.45.16,1.25,1.25,0,0,1-.47,0,1.4,1.4,0,0,1-.43-.2,1.2,1.2,0,0,1-.32-.35,1.11,1.11,0,0,1-.16-.44,1.23,1.23,0,0,1,0-.47,1.06,1.06,0,0,1,.2-.43,1.21,1.21,0,1,1,1.95,1.43"/><path class="cls-7" d="M37.28,58.55a1.22,1.22,0,0,1-.79.43,1.26,1.26,0,0,1-.86-.23,1.22,1.22,0,0,1-.48-.75,1.24,1.24,0,0,1,.16-.88,1.26,1.26,0,0,1,.78-.42,1.24,1.24,0,0,1,.86.23,1.19,1.19,0,0,1,.48.75,1.2,1.2,0,0,1-.15.87"/><path class="cls-7" d="M65.69,79.35a1.25,1.25,0,0,1-.76.37,1.2,1.2,0,0,1-.82-.22,1.26,1.26,0,0,1-.47-.7,1.22,1.22,0,0,1,.1-.84,1.21,1.21,0,0,1,1.69-.26,1.22,1.22,0,0,1,.27,1.69"/><path class="cls-7" d="M73.73,77.45c-14.48-6-30.79-16.13-38.8-29.25,11.16,10.41,23.62,22.39,39,27.86a.76.76,0,0,1,.34.3.74.74,0,0,1,.09.46.71.71,0,0,1-.19.41.67.67,0,0,1-.41.22"/></g></g></svg>