<svg width="140" height="210" viewBox="0 0 140 210" fill="none" xmlns="http://www.w3.org/2000/svg">
<g clip-path="url(#clip0)">
<path d="M128.013 184.085C127.986 187.702 130.897 190.656 134.515 190.682C138.132 190.709 141.086 187.798 141.112 184.18C141.139 180.563 138.228 177.609 134.61 177.583C130.993 177.551 128.039 180.462 128.013 184.085Z" fill="#58448B"/>
<path d="M67.8995 82.9269C70.3592 82.9448 72.3386 84.9533 72.3207 87.413C72.3028 89.8727 70.2943 91.8521 67.8345 91.8342C65.3748 91.8163 63.3954 89.8078 63.4133 87.3481C63.4312 84.8884 65.4397 82.9089 67.8995 82.9269Z" fill="#58448B"/>
<path d="M17.7217 -1.55922L179.79 -0.378256L178.586 164.867L178.265 208.974C177.3 209.094 176.336 209.175 175.348 209.167C163.067 209.078 153.17 199.041 153.26 186.754C153.288 182.823 154.343 179.138 156.155 175.945C156.044 175.956 155.928 175.967 155.829 175.966C150.493 175.927 146.192 171.674 146.01 166.389C143.644 168.387 140.58 169.578 137.247 169.554C129.774 169.499 123.756 163.393 123.811 155.92C123.812 155.78 123.824 155.658 123.837 155.519C122.482 155.759 121.082 155.9 119.653 155.889C107.372 155.8 97.4749 145.763 97.5645 133.476C97.6435 122.624 105.473 113.663 115.765 111.757C115.251 109.75 114.97 107.658 114.986 105.503C115.071 93.8728 123.12 84.1874 133.917 81.5369C131.4 79.428 129.821 76.2634 129.847 72.7271C129.849 72.3613 129.875 72.0131 129.918 71.665C129.517 71.6853 129.116 71.7114 128.716 71.7085C125.197 71.6828 122.013 70.3066 119.625 68.0884C115.74 78.5764 105.622 86.0169 93.7996 85.9307C78.7256 85.8209 66.5801 73.5146 66.69 58.4232C66.7109 55.5663 67.1838 52.8173 68.0156 50.2335C65.8762 49.7823 63.9437 48.8159 62.3158 47.4859C57.5086 54.5353 49.3975 59.1508 40.2288 59.084C25.602 58.9774 13.8487 47.034 13.9551 32.4245C13.9602 31.7278 14.0058 31.0429 14.0689 30.3581C6.7813 28.7487 1.35296 22.217 1.40957 14.4478C1.46923 6.26043 7.59793 -0.442568 15.4912 -1.47095L15.4978 -1.57542" fill="#58448B"/>
<path d="M17.7217 -1.55922L179.79 -0.378256L178.586 164.867L178.265 208.974C177.3 209.094 176.336 209.175 175.348 209.167C163.067 209.078 153.17 199.041 153.26 186.754C153.288 182.823 154.343 179.138 156.155 175.945C156.044 175.956 155.928 175.967 155.829 175.966C150.493 175.927 146.192 171.674 146.01 166.389C143.644 168.387 140.58 169.578 137.247 169.554C129.774 169.499 123.756 163.393 123.811 155.92C123.812 155.78 123.824 155.658 123.837 155.519C122.482 155.759 121.082 155.9 119.653 155.889C107.372 155.8 97.4749 145.763 97.5645 133.476C97.6435 122.624 105.473 113.663 115.765 111.757C115.251 109.75 114.97 107.658 114.986 105.503C115.071 93.8728 123.12 84.1874 133.917 81.5369C131.4 79.428 129.821 76.2634 129.847 72.7271C129.849 72.3613 129.875 72.0131 129.918 71.665C129.517 71.6853 129.116 71.7114 128.716 71.7085C125.197 71.6828 122.013 70.3066 119.625 68.0884C115.74 78.5764 105.622 86.0169 93.7996 85.9307C78.7256 85.8209 66.5801 73.5146 66.69 58.4232C66.7109 55.5663 67.1838 52.8173 68.0156 50.2335C65.8762 49.7823 63.9437 48.8159 62.3158 47.4859C57.5086 54.5353 49.3975 59.1508 40.2288 59.084C25.602 58.9774 13.8487 47.034 13.9551 32.4245C13.9602 31.7278 14.0058 31.0429 14.0689 30.3581C6.7813 28.7487 1.35296 22.217 1.40957 14.4478C1.46923 6.26043 7.59793 -0.442568 15.4912 -1.47095L15.4978 -1.57542" fill="url(#paint0_radial)"/>
<path d="M62.3154 47.4911C57.5139 54.5464 49.4029 59.1561 40.2342 59.0893C25.619 58.9828 13.8598 47.051 13.9663 32.4357C13.9737 31.4079 14.0566 30.3981 14.1742 29.406C14.2917 28.4196 14.4729 27.457 14.7004 26.5121C14.6947 27.296 14.7414 28.0629 14.7997 28.8298C15.8916 42.3505 27.1489 53.036 40.9686 53.1367C48.4534 53.1913 55.2234 50.1165 60.0735 45.1578C63.3674 41.7848 65.7617 37.5399 66.888 32.7923C66.8879 32.8039 66.8879 32.8155 66.8878 32.8271C66.8482 38.2621 65.1622 43.3077 62.3154 47.4911Z" fill="#AD6475"/>
<path d="M129.168 161.047C130.62 165.128 133.959 168.306 138.154 169.515C137.852 169.536 137.55 169.557 137.242 169.555C131.615 169.514 126.815 166.041 124.813 161.137C125.318 161.176 125.822 161.22 126.333 161.224C127.297 161.237 128.239 161.162 129.168 161.047Z" fill="#AD6475"/>
<path d="M146.524 169.233C145.051 169.768 143.463 170.07 141.809 170.058C140.543 170.049 139.319 169.854 138.154 169.52C141.134 169.345 143.86 168.209 146.016 166.401C146.05 167.389 146.223 168.336 146.524 169.233Z" fill="#AD6475"/>
<path d="M102.47 83.3418C103.695 83.3507 104.904 83.2725 106.089 83.1243C102.389 84.9556 98.2177 85.9762 93.8047 85.9441C78.7249 85.8342 66.591 73.5222 66.7009 58.4424C66.7218 55.5797 67.1831 52.8306 68.0207 50.2468C70.5218 42.507 76.3741 36.2897 83.8637 33.2898C84.0958 34.1045 84.2581 34.9477 84.3331 35.8135C80.3873 39.3908 77.4959 44.114 76.1736 49.4584C75.6651 51.5045 75.3824 53.6394 75.3663 55.8459C75.2565 70.9199 87.3904 83.2319 102.47 83.3418Z" fill="#AD6475"/>
<path d="M121.507 110.47C121.504 110.813 121.537 111.144 121.552 111.481C121.029 111.442 120.513 111.392 119.985 111.388C118.545 111.378 117.138 111.518 115.772 111.77C115.27 109.763 114.977 107.67 114.993 105.51C115.078 93.8851 123.127 84.2055 133.924 81.5433C135.88 83.1893 138.405 84.1949 141.169 84.215C143.654 84.2331 145.954 83.4427 147.833 82.1034C151.749 83.4211 155.223 85.6879 157.988 88.6231C154.575 86.8271 150.71 85.7769 146.587 85.7469C132.831 85.6583 121.607 96.72 121.507 110.47Z" fill="#AD6475"/>
<path d="M133.916 81.5492C135.888 81.0642 137.94 80.783 140.065 80.7985C142.782 80.8183 145.386 81.2902 147.831 82.1093C145.951 83.4486 143.652 84.2391 141.166 84.2209C138.397 84.195 135.872 83.1952 133.916 81.5492Z" fill="#AD6475"/>
<path d="M104.244 138.81C104.204 144.367 106.216 149.451 109.562 153.378C102.388 149.638 97.5012 142.129 97.5642 133.483C97.6433 122.636 105.478 113.669 115.765 111.77C116.346 114.073 117.242 116.246 118.412 118.246C110.177 121.467 104.312 129.432 104.244 138.81Z" fill="#AD6475"/>
<path d="M121.552 111.48C121.613 113.42 121.895 115.303 122.382 117.107C121.009 117.364 119.688 117.755 118.419 118.251C117.249 116.251 116.347 114.078 115.772 111.774C117.138 111.523 118.544 111.382 119.984 111.393C120.513 111.397 121.029 111.441 121.552 111.48Z" fill="#AD6475"/>
<path d="M140.097 142.788C140.433 142.86 140.763 142.95 141.088 143.045C140.693 143.071 140.298 143.109 139.908 143.17C139.973 143.037 140.044 142.915 140.097 142.788Z" fill="#AD6475"/>
<path d="M123.836 155.525C125.499 155.224 127.1 154.736 128.614 154.079C128.475 154.845 128.388 155.628 128.382 156.43C128.37 158.05 128.661 159.602 129.173 161.046C128.243 161.155 127.302 161.23 126.344 161.223C125.827 161.219 125.328 161.175 124.823 161.136C124.167 159.529 123.808 157.772 123.822 155.932C123.811 155.792 123.829 155.659 123.836 155.525Z" fill="#AD6475"/>
<path d="M128.614 154.08C127.099 154.731 125.499 155.219 123.836 155.526C124.104 148.246 130.104 142.448 137.438 142.502C138.349 142.508 139.237 142.608 140.095 142.788C140.036 142.916 139.971 143.043 139.907 143.17C134.198 144.011 129.648 148.42 128.614 154.08Z" fill="#AD6475"/>
<path d="M83.8641 33.2875C85.9898 32.4378 88.2414 31.8503 90.5895 31.5538C88.305 32.6811 86.204 34.1176 84.3393 35.8112C84.2585 34.9454 84.0962 34.1022 83.8641 33.2875Z" fill="#AD6475"/>
<path d="M68.2875 29.7899C68.2689 32.339 70.3153 34.4154 72.8644 34.434C75.4135 34.4526 77.4899 32.4062 77.5084 29.8571C77.527 27.308 75.4807 25.2317 72.9316 25.2131C70.3825 25.1945 68.306 27.2466 68.2875 29.7899Z" fill="#48376D"/>
</g>
<defs>
<radialGradient id="paint0_radial" cx="0" cy="0" r="1" gradientUnits="userSpaceOnUse" gradientTransform="translate(89.8962 103.755) rotate(0.417494) scale(97.2764)">
<stop stop-color="#D37575"/>
<stop offset="0.9946" stop-color="#58448B" stop-opacity="0"/>
</radialGradient>
<clipPath id="clip0">
<path d="M0 207.89L178.263 209.189L179.873 -11.7012L1.60958 -13.0001L0 207.89Z" fill="white"/>
</clipPath>
</defs>
</svg>
