<svg width="222" height="248" viewBox="0 0 222 248" fill="none" xmlns="http://www.w3.org/2000/svg">
<g clip-path="url(#clip0)">
<path d="M62.5217 217.897C62.5528 222.176 58.9248 225.672 54.4177 225.705C49.9107 225.738 46.2321 222.295 46.2009 218.016C46.1697 213.736 49.7978 210.24 54.3048 210.208C58.8118 210.168 62.4904 213.61 62.5217 217.897Z" fill="#58448B"/>
<path d="M137.462 98.1952C134.398 98.2175 131.931 100.595 131.952 103.504C131.973 106.414 134.475 108.755 137.539 108.733C140.604 108.71 143.071 106.333 143.049 103.424C143.028 100.514 140.527 98.1728 137.462 98.1952Z" fill="#58448B"/>
<path d="M200.017 -1.77715L-1.90226 -0.305812L-0.477771 195.184L-0.0975463 247.364C1.10446 247.507 2.30611 247.601 3.53596 247.592C18.8367 247.48 31.1722 235.602 31.0663 221.066C31.0324 216.416 29.7201 212.056 27.4643 208.28C27.6018 208.293 27.7466 208.306 27.8696 208.305C34.518 208.256 39.8785 203.223 40.1078 196.97C43.0551 199.332 46.8709 200.74 51.0234 200.71C60.3341 200.642 67.8345 193.415 67.7701 184.574C67.7689 184.41 67.7534 184.265 67.7377 184.101C69.4255 184.384 71.1703 184.55 72.9499 184.537C88.2507 184.425 100.586 172.547 100.48 158.011C100.387 145.172 90.6366 134.574 77.8147 132.325C78.4557 129.951 78.8067 127.475 78.7881 124.926C78.6878 111.167 68.6638 99.7124 55.2132 96.5816C58.3494 94.0856 60.3189 90.341 60.2884 86.1575C60.2853 85.7247 60.2533 85.3128 60.1997 84.901C60.6991 84.9248 61.1985 84.9555 61.6977 84.9519C66.0817 84.92 70.049 83.2904 73.025 80.6651C77.8614 93.071 90.4634 101.869 105.193 101.761C123.973 101.624 139.111 87.0601 138.981 69.2065C138.956 65.8268 138.368 62.5748 137.333 59.5184C139.998 58.9838 142.407 57.8396 144.435 56.2653C150.421 64.6028 160.525 70.0594 171.948 69.9762C190.171 69.8434 204.82 55.7085 204.694 38.4251C204.688 37.6008 204.631 36.7905 204.553 35.9805C213.633 34.0732 220.399 26.3435 220.332 17.1522C220.262 7.46631 212.629 -0.460756 202.796 -1.67375L202.787 -1.79734" fill="#58448B"/>
<path d="M200.017 -1.77715L-1.90226 -0.305812L-0.477771 195.184L-0.0975463 247.364C1.10446 247.507 2.30611 247.601 3.53596 247.592C18.8367 247.48 31.1722 235.602 31.0663 221.066C31.0324 216.416 29.7201 212.056 27.4643 208.28C27.6018 208.293 27.7466 208.306 27.8696 208.305C34.518 208.256 39.8785 203.223 40.1078 196.97C43.0551 199.332 46.8709 200.74 51.0234 200.71C60.3341 200.642 67.8345 193.415 67.7701 184.574C67.7689 184.41 67.7534 184.265 67.7377 184.101C69.4255 184.384 71.1703 184.55 72.9499 184.537C88.2507 184.425 100.586 172.547 100.48 158.011C100.387 145.172 90.6366 134.574 77.8147 132.325C78.4557 129.951 78.8067 127.475 78.7881 124.926C78.6878 111.167 68.6638 99.7124 55.2132 96.5816C58.3494 94.0856 60.3189 90.341 60.2884 86.1575C60.2853 85.7247 60.2533 85.3128 60.1997 84.901C60.6991 84.9248 61.1985 84.9555 61.6977 84.9519C66.0817 84.92 70.049 83.2904 73.025 80.6651C77.8614 93.071 90.4634 101.869 105.193 101.761C123.973 101.624 139.111 87.0601 138.981 69.2065C138.956 65.8268 138.368 62.5748 137.333 59.5184C139.998 58.9838 142.407 57.8396 144.435 56.2653C150.421 64.6028 160.525 70.0594 171.948 69.9762C190.171 69.8434 204.82 55.7085 204.694 38.4251C204.688 37.6008 204.631 36.7905 204.553 35.9805C213.633 34.0732 220.399 26.3435 220.332 17.1522C220.262 7.46631 212.629 -0.460756 202.796 -1.67375L202.787 -1.79734" fill="url(#paint0_radial)"/>
<path d="M144.436 56.2715C150.415 64.616 160.518 70.0656 171.941 69.9824C190.15 69.8497 204.806 55.7286 204.68 38.4382C204.671 37.2223 204.568 36.0277 204.422 34.8541C204.277 33.6873 204.051 32.5485 203.768 31.4308C203.775 32.3582 203.716 33.2654 203.643 34.1728C202.277 50.1687 188.247 62.8152 171.029 62.9406C161.704 63.0086 153.27 59.3741 147.23 53.5101C143.128 49.5212 140.147 44.5005 138.746 38.8843C138.746 38.8981 138.746 38.9118 138.746 38.9255C138.793 45.3553 140.891 51.3236 144.436 56.2715Z" fill="#AD6475"/>
<path d="M61.0932 190.642C59.2835 195.471 55.122 199.232 49.8945 200.664C50.2709 200.689 50.6472 200.714 51.0307 200.711C58.0408 200.66 64.0229 196.549 66.52 190.747C65.8909 190.793 65.2619 190.845 64.6253 190.85C63.4244 190.866 62.2517 190.778 61.0932 190.642Z" fill="#AD6475"/>
<path d="M39.4663 200.335C41.3013 200.967 43.279 201.324 45.3408 201.309C46.9179 201.297 48.4427 201.066 49.894 200.671C46.1811 200.464 42.7855 199.122 40.1003 196.984C40.0581 198.153 39.842 199.274 39.4663 200.335Z" fill="#AD6475"/>
<path d="M94.3901 98.7026C92.8637 98.7137 91.3581 98.6216 89.881 98.4469C94.4908 100.612 99.687 101.817 105.185 101.777C123.973 101.64 139.096 87.0692 138.966 69.2293C138.941 65.8427 138.368 62.5906 137.325 59.5343C134.213 50.3789 126.924 43.0264 117.595 39.4808C117.305 40.4447 117.102 41.4423 117.009 42.4666C121.923 46.6969 125.523 52.2833 127.168 58.6053C127.801 61.0257 128.152 63.5512 128.171 66.1616C128.301 83.9946 113.178 98.5657 94.3901 98.7026Z" fill="#AD6475"/>
<path d="M70.664 130.805C70.6669 131.21 70.6264 131.602 70.6076 132C71.2584 131.954 71.9018 131.895 72.5602 131.89C74.3543 131.877 76.1063 132.043 77.8087 132.34C78.4352 129.965 78.8006 127.489 78.782 124.934C78.6818 111.181 68.6578 99.7335 55.2072 96.589C52.7688 98.5372 49.6231 99.728 46.1795 99.753C43.0832 99.7756 40.2187 98.8416 37.8775 97.258C32.9982 98.8186 28.6696 101.502 25.2223 104.976C29.4753 102.849 34.2918 101.605 39.4282 101.568C56.5666 101.457 70.5455 114.538 70.664 130.805Z" fill="#AD6475"/>
<path d="M55.2138 96.5953C52.757 96.0224 50.2007 95.6906 47.5529 95.7099C44.1672 95.7346 40.9229 96.2941 37.8769 97.2643C40.218 98.8479 43.0825 99.7819 46.1789 99.7594C49.6296 99.7273 52.7754 98.5434 55.2138 96.5953Z" fill="#AD6475"/>
<path d="M92.1569 164.323C92.2048 170.897 89.6948 176.913 85.5252 181.559C94.4641 177.132 100.556 168.246 100.482 158.018C100.388 145.186 90.6307 134.581 77.8161 132.339C77.0907 135.064 75.9736 137.635 74.515 140.002C84.7727 143.809 92.0761 153.229 92.1569 164.323Z" fill="#AD6475"/>
<path d="M70.6065 131.999C70.5292 134.294 70.1765 136.522 69.5698 138.656C71.2794 138.96 72.9251 139.422 74.5065 140.008C75.9652 137.641 77.0895 135.07 77.8076 132.345C76.1053 132.048 74.3533 131.882 72.5591 131.895C71.9008 131.9 71.2573 131.953 70.6065 131.999Z" fill="#AD6475"/>
<path d="M47.4879 169.046C47.069 169.132 46.6575 169.238 46.2532 169.351C46.7453 169.382 47.2375 169.426 47.7227 169.498C47.6419 169.341 47.5541 169.197 47.4879 169.046Z" fill="#AD6475"/>
<path d="M67.7383 184.107C65.6666 183.751 63.6728 183.175 61.7861 182.399C61.9591 183.304 62.0672 184.231 62.0741 185.179C62.0881 187.095 61.7252 188.932 61.0866 190.641C62.2451 190.77 63.4177 190.857 64.6114 190.848C65.2553 190.844 65.8771 190.791 66.5062 190.745C67.3243 188.843 67.7722 186.765 67.7563 184.588C67.7696 184.423 67.7467 184.265 67.7383 184.107Z" fill="#AD6475"/>
<path d="M61.7861 182.4C63.6727 183.169 65.6665 183.746 67.7383 184.108C67.4078 175.496 59.935 168.64 50.798 168.706C49.6622 168.714 48.5561 168.832 47.4869 169.046C47.5604 169.197 47.641 169.347 47.7217 169.498C54.8335 170.49 60.5002 175.704 61.7861 182.4Z" fill="#AD6475"/>
<path d="M117.595 39.4786C114.947 38.4743 112.143 37.7803 109.217 37.4306C112.063 38.7633 114.68 40.4616 117.002 42.4644C117.103 41.4401 117.306 40.4425 117.595 39.4786Z" fill="#AD6475"/>
<path d="M-0.641607 172.638L-1.18622 97.8988C-0.419921 97.8177 0.353953 97.7845 1.13527 97.7789C15.0325 97.6776 26.389 108.305 26.4852 121.501C26.5525 130.747 21.0765 138.784 13.003 142.827C16.8816 145.911 19.3605 150.516 19.3983 155.695C19.4665 165.058 11.535 172.701 1.67451 172.772C0.88596 172.778 0.118755 172.736 -0.641607 172.638Z" fill="#48376D"/>
<path d="M137.003 35.3328C137.025 38.3485 134.475 40.8058 131.299 40.829C128.123 40.8521 125.537 38.4322 125.515 35.4165C125.493 32.4008 128.043 29.9435 131.219 29.9203C134.395 29.8972 136.981 32.324 137.003 35.3328Z" fill="#48376D"/>
<path d="M24.8207 70.6851C24.8356 72.7253 23.1042 74.3936 20.9556 74.4092C18.8069 74.4249 17.0514 72.782 17.0365 70.7418C17.0217 68.7016 18.7531 67.0334 20.9017 67.0177C23.0503 67.0021 24.8059 68.6449 24.8207 70.6851Z" fill="#3E3063"/>
<path d="M41.8281 54.7622C41.8583 58.9113 38.338 62.3032 33.9684 62.335C29.5988 62.3669 26.0295 59.0267 25.9992 54.8775C25.969 50.7284 29.4893 47.3366 33.8589 47.3047C38.2284 47.266 41.7978 50.6062 41.8281 54.7622Z" fill="#3E3063"/>
<path d="M-1.44336 62.4945C-0.806388 62.5379 -0.169466 62.5745 0.474395 62.5698C12.8018 62.48 22.7305 52.9136 22.6453 41.2081L22.6452 41.2012C23.6959 41.4272 24.7821 41.5567 25.9034 41.5485C33.7238 41.4915 40.0172 35.4277 39.9631 28.0019C39.9586 27.3767 39.8962 26.7658 39.805 26.1619C39.7745 25.9423 39.7367 25.7296 39.699 25.5101C39.669 25.3729 39.6391 25.2357 39.6092 25.0985C39.5419 24.8105 39.4963 24.5085 39.4147 24.2275L39.3641 24.2278C37.7719 19.1902 33.1575 15.4179 27.5242 14.772C25.6635 8.63711 20.2395 3.95709 13.5178 2.87256C13.7851 1.8264 13.9364 0.746736 13.9282 -0.379849C13.8741 -7.80569 7.49288 -13.7771 -0.327493 -13.7201C-0.891775 -13.716 -1.44852 -13.6707 -1.99788 -13.6049L-1.66827 31.6302L-1.44336 62.4945V62.4945Z" fill="#3E3063"/>
</g>
<defs>
<radialGradient id="paint0_radial" cx="0" cy="0" r="1" gradientUnits="userSpaceOnUse" gradientTransform="translate(110.048 122.846) rotate(179.583) scale(121.195 115.081)">
<stop stop-color="#D37575"/>
<stop offset="0.9946" stop-color="#58448B" stop-opacity="0"/>
</radialGradient>
<clipPath id="clip0">
<path d="M222 246L-0.095702 247.618L-1.99988 -13.7012L220.096 -15.3195L222 246Z" fill="white"/>
</clipPath>
</defs>
</svg>
