<svg width="13" height="13" viewBox="0 0 13 13" fill="none" xmlns="http://www.w3.org/2000/svg">
<path fill-rule="evenodd" clip-rule="evenodd" d="M7.30007 2.84395C7.30007 2.40212 6.9419 2.04395 6.50007 2.04395C6.05825 2.04395 5.70007 2.40212 5.70007 2.84395V8.22495L4.22213 6.74701C3.90971 6.43459 3.40318 6.43459 3.09076 6.74701C2.77834 7.05943 2.77834 7.56596 3.09076 7.87838L5.92611 10.7137C6.07149 10.8634 6.27492 10.9564 6.50007 10.9564C6.59033 10.9564 6.6771 10.9415 6.75804 10.9139C6.87052 10.8757 6.9762 10.8118 7.06588 10.7221L9.90963 7.87838C10.2221 7.56596 10.2221 7.05943 9.90963 6.74701C9.59721 6.43459 9.09068 6.43459 8.77826 6.74701L7.30007 8.2252V2.84395Z" fill="#A5A3B8"/>
</svg>
