<svg width="24" height="25" viewBox="0 0 24 25" fill="none" xmlns="http://www.w3.org/2000/svg">
<path d="M12 0C5.3736 0 0 5.48107 0 12.24C0 18.9989 5.3736 24.48 12 24.48C18.6264 24.48 24 18.9989 24 12.24C24 5.48107 18.6264 0 12 0ZM17.4791 9.54345C17.4844 9.66391 17.4869 9.78494 17.4869 9.90653C17.4869 13.6189 14.7166 17.8998 9.65021 17.9H9.65039H9.65021C8.09473 17.9 6.64728 17.4349 5.42834 16.638C5.64386 16.664 5.86322 16.6768 6.08533 16.6768C7.37585 16.6768 8.56348 16.2279 9.50629 15.4743C8.30054 15.4515 7.28394 14.6392 6.93311 13.5229C7.10101 13.5558 7.27368 13.5737 7.45074 13.5737C7.70215 13.5737 7.94568 13.5392 8.17712 13.4747C6.91681 13.2174 5.96741 12.0812 5.96741 10.7208C5.96741 10.7081 5.96741 10.6967 5.96777 10.685C6.33893 10.8955 6.76337 11.0221 7.21527 11.0363C6.47571 10.5329 5.98956 9.67251 5.98956 8.69777C5.98956 8.18303 6.12598 7.7008 6.36255 7.28562C7.72083 8.98557 9.75073 10.1036 12.0399 10.221C11.9927 10.0152 11.9683 9.80082 11.9683 9.58043C11.9683 8.02951 13.2019 6.77126 14.723 6.77126C15.5153 6.77126 16.2308 7.11286 16.7335 7.65896C17.361 7.53271 17.9502 7.29888 18.4825 6.97708C18.2765 7.63282 17.84 8.18303 17.2712 8.53098C17.8284 8.463 18.3594 8.31228 18.8529 8.08853C18.4843 8.65201 18.0168 9.14694 17.4791 9.54345Z" fill="#9595AB"/>
</svg>
