<svg width="18" height="18" viewBox="0 0 18 18" fill="none" xmlns="http://www.w3.org/2000/svg">
<path d="M14.0633 14.3438C11.2508 13.8094 11.2508 12.9375 11.2508 12.375V11.475C12.2633 10.5469 12.9383 9.02812 12.9383 7.3125V4.6125C12.9383 1.6875 10.857 0.5625 9.00078 0.5625C7.14453 0.5625 5.06328 1.6875 5.06328 4.6125V7.3125C5.06328 9.02812 5.73828 10.5469 6.75078 11.475V12.375C6.75078 12.9375 6.75078 13.8375 3.93828 14.3438C3.15112 14.4829 2.42221 14.8504 1.84217 15.4004C1.26213 15.9504 0.856525 16.6588 0.675781 17.4375H17.3258C17.1384 16.662 16.7307 15.9573 16.1518 15.4084C15.573 14.8594 14.8476 14.4897 14.0633 14.3438Z" fill="#A5A3B8"/>
</svg>
