<svg width="21" height="22" viewBox="0 0 21 22" fill="none" xmlns="http://www.w3.org/2000/svg">
<path fill-rule="evenodd" clip-rule="evenodd" d="M6.97183 1.49268C8.00032 0.566258 9.31008 0.19043 10.4999 0.19043C11.6898 0.19043 12.9996 0.566258 14.0281 1.49268C15.0823 2.4423 15.7487 3.88854 15.7487 5.81709V8.88919C15.7487 10.9183 15.0504 12.7771 13.9159 14.0488V14.6494C13.9159 14.9332 13.9264 14.9696 14.0164 15.0648C14.1847 15.2429 14.704 15.5949 16.178 15.8885C17.2136 16.0907 18.1713 16.6023 18.9357 17.3617C19.4081 17.831 19.7942 18.3826 20.0787 18.9886C20.3616 19.5912 20.2615 20.2366 19.9373 20.7019C19.6245 21.1507 19.1128 21.4281 18.5536 21.4281H2.4372C1.88116 21.4281 1.37136 21.1537 1.05802 20.7081C0.733255 20.2464 0.629741 19.6044 0.906924 19.0019C1.18991 18.3868 1.5783 17.8273 2.05604 17.3527C2.82383 16.5899 3.78855 16.0802 4.83041 15.8868C6.30074 15.6095 6.81497 15.2569 6.98016 15.0804C7.07259 14.9816 7.08401 14.9363 7.08401 14.6494V14.0488C5.94947 12.7771 5.25122 10.9183 5.25122 8.88919V5.81709C5.25122 3.88854 5.91758 2.4423 6.97183 1.49268ZM8.23952 3.03728C7.65953 3.55971 7.19567 4.41754 7.19567 5.81709V8.88919C7.19567 10.4552 7.7408 11.8111 8.51936 12.6744C8.81388 13.0009 9.02845 13.4585 9.02845 13.9838V14.6494C9.02845 14.6551 9.02846 14.6609 9.02846 14.6668C9.02864 15.0279 9.02904 15.8008 8.36864 16.5064C7.77022 17.1459 6.75733 17.5933 5.17382 17.8919L5.17086 17.8924C4.50358 18.016 3.88569 18.3423 3.39399 18.8308C3.22217 19.0015 3.06841 19.1893 2.93452 19.391H18.0526C17.9194 19.1929 17.7671 19.0082 17.5977 18.8398C17.1051 18.3505 16.4879 18.0209 15.8205 17.8908L15.8168 17.8901C14.2375 17.5757 13.2299 17.1279 12.6346 16.498C11.9709 15.7958 11.9713 15.0287 11.9714 14.6656L11.9714 13.9838C11.9714 13.4585 12.186 13.0009 12.4805 12.6744C13.2591 11.8111 13.8042 10.4552 13.8042 8.88919V5.81709C13.8042 4.41754 13.3404 3.55971 12.7604 3.03728C12.1546 2.49166 11.3261 2.22747 10.4999 2.22747C9.67375 2.22747 8.84526 2.49166 8.23952 3.03728Z" fill="#58448B"/>
</svg>
