<svg width="1440" height="423" viewBox="0 0 1440 423" fill="none" xmlns="http://www.w3.org/2000/svg">
<path opacity="0.21" d="M1247 119C1193 83.04 1067 119 1067 119C1067 119 946 170 863.364 83.04C775.523 17.92 653.126 0.99855 653.126 0.99855C653.126 0.99855 563.839 -7.46799 495.201 24.9054C431 83.04 205.764 5.40675 205.764 5.40675C205.764 5.40675 112.78 -15.2815 0 24.334V394.856C65.8695 392.664 200.393 377.34 305.596 294.575C432 144 524.476 158.458 647.359 200.394C770.243 242.33 833.602 193.77 833.602 193.77C833.602 193.77 955.527 138.387 991.04 216.849C1026.55 295.31 1117.76 368.15 1117.76 368.15C1117.76 368.15 1191 432 1353.92 421.865C1392.92 415.323 1420.51 415.381 1440 419.101V113.011C1389.32 132.3 1343.17 164.977 1247 119Z" fill="#48376D"/>
</svg>
