<svg width="823" height="238" viewBox="0 0 823 238" fill="none" xmlns="http://www.w3.org/2000/svg">
<path opacity="0.21" d="M111.493 76.7475C111.493 76.7475 147.306 85.052 159.259 104.415C171.196 123.779 197.673 157.454 258.937 141.772C320.201 126.09 405.845 180.056 405.845 180.056C405.845 180.056 544.458 274.478 664.369 222.256C735.933 191.087 790.57 149.827 823 121.606V0H659.578C620.46 12.1107 577.562 30.4776 535.107 58.2977C395.713 149.606 315.518 90.1178 315.518 90.1178C315.518 90.1178 294.489 66.6022 229.078 81.1212C183.134 91.3219 146.036 34.6437 128.007 0H0C3.53534 4.49828 6.65746 9.31489 9.22862 14.4914C32.5986 61.5226 111.493 76.7475 111.493 76.7475Z" fill="#48376D"/>
</svg>
