<svg width="768" height="332" viewBox="0 0 768 332" fill="none" xmlns="http://www.w3.org/2000/svg">
<g clip-path="url(#clip0)">
<path d="M697.602 113.411C697.602 108.355 701.707 104.256 706.771 104.256C711.836 104.256 715.941 108.355 715.941 113.411C715.941 118.467 711.836 122.566 706.771 122.566C701.707 122.574 697.602 118.467 697.602 113.411Z" fill="#58448B"/>
<path d="M612.417 254.181C615.86 254.181 618.652 251.394 618.652 247.956C618.652 244.518 615.86 241.731 612.417 241.731C608.973 241.731 606.182 244.518 606.182 247.956C606.182 251.394 608.973 254.181 612.417 254.181Z" fill="#58448B"/>
<path d="M376.034 254.181C379.477 254.181 382.269 251.394 382.269 247.956C382.269 244.518 379.477 241.731 376.034 241.731C372.59 241.731 369.799 244.518 369.799 247.956C369.799 251.394 372.59 254.181 376.034 254.181Z" fill="#58448B"/>
<path d="M302.31 192.143C308.286 192.143 313.13 187.307 313.13 181.341C313.13 175.375 308.286 170.539 302.31 170.539C296.335 170.539 291.49 175.375 291.49 181.341C291.49 187.307 296.335 192.143 302.31 192.143Z" fill="#58448B"/>
<path d="M764.123 78.8377C746.929 78.8377 732.971 92.7646 732.971 109.938C732.971 115.432 734.41 120.594 736.914 125.074C736.76 125.058 736.597 125.041 736.459 125.041C728.988 125.041 722.924 130.942 722.615 138.327C719.322 135.511 715.046 133.815 710.38 133.815C699.918 133.815 691.431 142.288 691.431 152.733C691.431 152.928 691.447 153.098 691.464 153.293C689.569 152.944 687.61 152.733 685.611 152.733C668.417 152.733 654.459 166.66 654.459 183.833C654.459 199.002 665.328 211.606 679.717 214.373C678.977 217.173 678.562 220.095 678.562 223.106C678.562 239.362 689.732 252.98 704.82 256.795C701.276 259.717 699.032 264.123 699.032 269.066C699.032 269.577 699.064 270.064 699.121 270.551C698.56 270.519 697.999 270.478 697.439 270.478C692.512 270.478 688.041 272.369 684.676 275.445C679.351 260.747 665.255 250.245 648.704 250.245C627.6 250.245 610.472 267.321 610.472 288.414C610.472 292.407 611.106 296.254 612.244 299.874C609.245 300.483 606.529 301.814 604.237 303.656C597.579 293.755 586.271 287.221 573.435 287.221C552.966 287.221 536.382 303.794 536.382 324.214C536.382 325.65 536.488 327.062 536.643 328.45C533.293 325.455 528.879 323.605 524.018 323.605C516.116 323.605 509.345 328.434 506.507 335.292C503.67 328.434 496.899 323.605 489.013 323.605C485.136 323.605 481.543 324.773 478.551 326.77C478.551 326.543 478.567 326.315 478.567 326.104C478.567 302.219 459.163 282.847 435.239 282.847C427.036 282.847 419.354 285.119 412.818 289.096C409.648 275.9 397.779 266.087 383.602 266.087C374.993 266.087 367.262 269.707 361.775 275.469C358.482 272.442 354.117 270.567 349.296 270.478C351.239 265.633 352.312 260.35 352.312 254.798C352.312 231.4 333.331 212.433 309.894 212.433C300.781 212.433 292.327 215.323 285.409 220.2C281.743 215.339 276.662 211.589 270.736 209.666C277.922 201.875 282.32 191.486 282.32 180.075C282.32 155.963 262.736 136.428 238.601 136.428C236.447 136.428 234.341 136.582 232.276 136.883C233.203 133.295 233.699 129.513 233.699 125.634C233.699 100.84 213.579 80.745 188.736 80.745C174.729 80.745 162.235 87.1322 153.992 97.1634C148.488 89.8835 139.79 85.1762 129.978 85.1762C124.897 85.1762 120.125 86.4342 115.923 88.658C115.939 88.1142 115.971 87.5704 115.971 87.0267C115.971 58.8321 93.0795 35.9777 64.8223 35.9777C56.4086 35.9777 48.4663 38.0229 41.4752 41.6102C42.9466 38.0554 43.792 34.1517 43.792 30.0612C43.8002 13.4561 30.3219 0 13.7058 0C8.35674 0 3.34913 1.3797 -1 3.84693V56.2431V342.507H395.186H501.914H536.13H605.635H768.212V140.786V79.138C766.862 78.9595 765.513 78.8377 764.123 78.8377Z" fill="#58448B"/>
<path d="M767.967 251.122C756.213 250.911 745.116 260.406 747.1 269.488C719.932 254.766 711.372 283.269 711.372 283.269C682.667 270.876 663.767 304.557 663.767 304.557C630.242 285.923 612.285 325.171 612.285 325.171C559.542 289.526 535.439 328.425 535.439 328.425C532.09 325.431 527.676 323.58 522.823 323.58C514.921 323.58 508.149 328.409 505.312 335.267C502.475 328.409 495.703 323.58 487.818 323.58C483.94 323.58 480.347 324.749 477.356 326.745C477.356 326.518 477.372 326.291 477.372 326.08C477.372 302.195 457.968 282.822 434.043 282.822C425.841 282.822 418.159 285.095 411.623 289.072C408.452 275.875 396.584 266.063 382.406 266.063C373.798 266.063 366.067 269.683 360.579 275.445C357.515 272.629 353.515 270.835 349.093 270.519C338.818 236.408 302.911 246.812 297.367 253.37C270.54 238.834 258.476 262.411 258.476 262.411C212.709 252.501 209.961 292.131 209.961 292.131C183.419 271.42 162.365 296.636 162.365 296.636C129.409 269.618 104.696 299.338 104.696 299.338C94.6238 262.411 59.847 272.32 59.847 272.32C59.847 272.32 63.5051 245.303 45.1981 220.086C33.4351 203.879 18.6481 201.071 9.58398 201.128V371.748H311.918H347.776H536.976L536.984 371.878H770.008L767.967 251.122Z" fill="#58448B"/>
<path d="M404.503 295.63C406.998 293.122 409.787 290.914 412.835 289.072C409.657 275.884 397.796 266.063 383.611 266.063C380.855 266.063 378.196 266.461 375.66 267.159C391.219 267.76 403.722 280.136 404.503 295.63Z" fill="#AD6475"/>
<path d="M541.309 371.748H768.204V140.786V79.1377C766.855 78.9591 765.505 78.8374 764.123 78.8374C746.93 78.8374 732.972 92.7643 732.972 109.937C732.972 115.432 734.411 120.594 736.915 125.074C736.76 125.057 736.598 125.041 736.46 125.041C728.989 125.041 722.924 130.941 722.616 138.327C719.323 135.511 715.047 133.814 710.381 133.814C699.919 133.814 691.432 142.287 691.432 152.733C691.432 152.927 691.448 153.098 691.464 153.293C689.57 152.944 687.611 152.733 685.611 152.733C668.418 152.733 654.46 166.659 654.46 183.833C654.46 199.001 665.329 211.605 679.718 214.373C678.978 217.173 678.563 220.094 678.563 223.105C678.563 239.362 689.733 252.98 704.821 256.794C701.276 259.716 699.033 264.123 699.033 269.066C699.033 269.577 699.065 270.064 699.122 270.551C698.561 270.518 698 270.478 697.439 270.478C692.513 270.478 688.042 272.369 684.676 275.445C679.344 260.747 665.256 250.245 648.705 250.245C627.601 250.245 610.473 267.321 610.473 288.414C610.473 292.407 611.107 296.254 612.245 299.874C609.245 300.482 606.53 301.813 604.238 303.656C597.58 293.754 586.272 287.221 573.436 287.221C552.959 287.221 536.383 303.794 536.383 324.213C536.383 325.187 536.44 326.145 536.521 327.102C526.295 329.294 518.629 338.359 518.629 349.226C518.629 360.67 527.14 370.1 538.18 371.618L538.188 371.764" fill="#58448B"/>
<path d="M541.309 371.748H768.204V140.786V79.1377C766.855 78.9591 765.505 78.8374 764.123 78.8374C746.93 78.8374 732.972 92.7643 732.972 109.937C732.972 115.432 734.411 120.594 736.915 125.074C736.76 125.057 736.598 125.041 736.46 125.041C728.989 125.041 722.924 130.941 722.616 138.327C719.323 135.511 715.047 133.814 710.381 133.814C699.919 133.814 691.432 142.287 691.432 152.733C691.432 152.927 691.448 153.098 691.464 153.293C689.57 152.944 687.611 152.733 685.611 152.733C668.418 152.733 654.46 166.659 654.46 183.833C654.46 199.001 665.329 211.605 679.718 214.373C678.978 217.173 678.563 220.094 678.563 223.105C678.563 239.362 689.733 252.98 704.821 256.794C701.276 259.716 699.033 264.123 699.033 269.066C699.033 269.577 699.065 270.064 699.122 270.551C698.561 270.518 698 270.478 697.439 270.478C692.513 270.478 688.042 272.369 684.676 275.445C679.344 260.747 665.256 250.245 648.705 250.245C627.601 250.245 610.473 267.321 610.473 288.414C610.473 292.407 611.107 296.254 612.245 299.874C609.245 300.482 606.53 301.813 604.238 303.656C597.58 293.754 586.272 287.221 573.436 287.221C552.959 287.221 536.383 303.794 536.383 324.213C536.383 325.187 536.44 326.145 536.521 327.102C526.295 329.294 518.629 338.359 518.629 349.226C518.629 360.67 527.14 370.1 538.18 371.618L538.188 371.764" fill="url(#paint0_radial)"/>
<path d="M604.237 303.648C597.587 293.738 586.279 287.213 573.443 287.213C552.982 287.213 536.398 303.769 536.398 324.197C536.398 325.633 536.504 327.046 536.659 328.433C536.813 329.813 537.057 331.16 537.366 332.483C537.366 331.388 537.439 330.316 537.528 329.245C539.195 310.359 555.063 295.54 574.411 295.54C584.889 295.54 594.335 299.906 601.075 306.886C605.651 311.634 608.96 317.591 610.488 324.238C610.488 324.221 610.488 324.205 610.488 324.189C610.488 316.592 608.188 309.523 604.237 303.648Z" fill="#AD6475"/>
<path d="M698.984 145.624C701.057 139.934 705.763 135.527 711.649 133.88C711.226 133.847 710.803 133.815 710.373 133.815C702.495 133.815 695.74 138.62 692.887 145.453C693.594 145.404 694.301 145.348 695.017 145.348C696.366 145.339 697.683 145.453 698.984 145.624Z" fill="#AD6475"/>
<path d="M723.37 134.358C721.314 133.595 719.094 133.157 716.778 133.157C715.006 133.157 713.29 133.417 711.656 133.871C715.827 134.147 719.631 135.762 722.631 138.311C722.679 136.931 722.931 135.608 723.37 134.358Z" fill="#AD6475"/>
<path d="M660.824 253.954C662.539 253.954 664.23 254.076 665.889 254.295C660.727 251.698 654.898 250.229 648.72 250.229C627.608 250.229 610.496 267.313 610.496 288.39C610.496 292.391 611.114 296.238 612.26 299.858C615.683 310.7 623.812 319.449 634.266 323.718C634.599 322.582 634.835 321.405 634.949 320.196C629.462 315.156 625.462 308.525 623.665 301.043C622.974 298.178 622.601 295.191 622.601 292.107C622.592 271.038 639.713 253.954 660.824 253.954Z" fill="#AD6475"/>
<path d="M687.74 216.231C687.74 215.752 687.789 215.29 687.813 214.819C687.082 214.868 686.358 214.933 685.618 214.933C683.602 214.933 681.635 214.722 679.725 214.356C679.001 217.156 678.57 220.078 678.57 223.097C678.57 239.345 689.74 252.956 704.828 256.786C707.584 254.506 711.128 253.126 714.997 253.126C718.477 253.126 721.688 254.254 724.305 256.145C729.801 254.343 734.686 251.211 738.588 247.137C733.792 249.612 728.37 251.04 722.598 251.04C703.348 251.024 687.74 235.45 687.74 216.231Z" fill="#AD6475"/>
<path d="M704.82 256.778C707.576 257.476 710.446 257.89 713.421 257.89C717.226 257.89 720.875 257.257 724.306 256.137C721.688 254.246 718.477 253.118 714.998 253.118C711.12 253.126 707.584 254.498 704.82 256.778Z" fill="#AD6475"/>
<path d="M663.865 176.448C663.865 168.681 666.734 161.595 671.457 156.142C661.377 161.295 654.459 171.74 654.459 183.825C654.459 198.985 665.336 211.597 679.716 214.357C680.554 211.143 681.83 208.116 683.488 205.332C672.002 200.747 663.865 189.555 663.865 176.448Z" fill="#AD6475"/>
<path d="M687.813 214.811C687.919 212.1 688.333 209.471 689.033 206.955C687.114 206.582 685.269 206.022 683.497 205.315C681.838 208.099 680.554 211.126 679.725 214.34C681.635 214.706 683.602 214.917 685.618 214.917C686.358 214.925 687.082 214.868 687.813 214.811Z" fill="#AD6475"/>
<path d="M714.104 171.253C714.575 171.156 715.039 171.034 715.494 170.904C714.941 170.863 714.388 170.807 713.844 170.717C713.925 170.904 714.023 171.074 714.104 171.253Z" fill="#AD6475"/>
<path d="M691.464 153.285C693.789 153.723 696.024 154.421 698.138 155.354C697.951 154.283 697.837 153.187 697.837 152.067C697.837 149.803 698.26 147.636 698.991 145.623C697.691 145.461 696.374 145.347 695.033 145.347C694.309 145.347 693.61 145.404 692.903 145.453C691.968 147.693 691.448 150.144 691.448 152.716C691.439 152.911 691.456 153.098 691.464 153.285Z" fill="#AD6475"/>
<path d="M698.137 155.354C696.023 154.429 693.788 153.731 691.463 153.285C691.764 163.462 700.104 171.627 710.372 171.627C711.648 171.627 712.892 171.497 714.095 171.253C714.013 171.075 713.924 170.896 713.835 170.718C705.86 169.484 699.527 163.275 698.137 155.354Z" fill="#AD6475"/>
<path d="M350.304 270.527C352.215 265.682 353.272 260.406 353.272 254.888C353.272 231.27 334.095 212.125 310.439 212.125C301.131 212.125 292.514 215.103 285.49 220.135C285.466 220.152 285.441 220.168 285.417 220.184C281.751 215.323 276.67 211.573 270.744 209.65C277.93 201.858 282.328 191.47 282.328 180.059C282.328 155.947 262.745 136.412 238.609 136.412C236.455 136.412 234.349 136.566 232.284 136.866C233.211 133.279 233.707 129.497 233.707 125.618C233.707 100.824 213.587 80.7287 188.744 80.7287C174.738 80.7287 162.243 87.1159 154 97.1472C148.496 89.8672 139.798 85.16 129.986 85.16C124.905 85.16 120.134 86.418 115.931 88.6417C115.947 88.098 115.98 87.5542 115.98 87.0104C115.98 58.8158 93.0876 35.9615 64.8305 35.9615C56.4167 35.9615 48.4745 38.0067 41.4833 41.5939C42.9547 38.0392 43.8002 34.1354 43.8002 30.045C43.8002 13.4561 30.3219 0 13.7058 0C8.35674 0 3.34913 1.3797 -1 3.84693V56.2431V279.414V371.748H313.129V371.375C332.867 370.271 348.532 353.95 348.532 333.969C348.532 315.448 335.07 300.077 317.381 297.05C332.436 294.599 344.866 284.324 350.304 270.527Z" fill="#58448B"/>
<path d="M350.304 270.527C352.215 265.682 353.272 260.406 353.272 254.888C353.272 231.27 334.095 212.125 310.439 212.125C301.131 212.125 292.514 215.103 285.49 220.135C285.466 220.152 285.441 220.168 285.417 220.184C281.751 215.323 276.67 211.573 270.744 209.65C277.93 201.858 282.328 191.47 282.328 180.059C282.328 155.947 262.745 136.412 238.609 136.412C236.455 136.412 234.349 136.566 232.284 136.866C233.211 133.279 233.707 129.497 233.707 125.618C233.707 100.824 213.587 80.7287 188.744 80.7287C174.738 80.7287 162.243 87.1159 154 97.1472C148.496 89.8672 139.798 85.16 129.986 85.16C124.905 85.16 120.134 86.418 115.931 88.6417C115.947 88.098 115.98 87.5542 115.98 87.0104C115.98 58.8158 93.0876 35.9615 64.8305 35.9615C56.4167 35.9615 48.4745 38.0067 41.4833 41.5939C42.9547 38.0392 43.8002 34.1354 43.8002 30.045C43.8002 13.4561 30.3219 0 13.7058 0C8.35674 0 3.34913 1.3797 -1 3.84693V56.2431V279.414V371.748H313.129V371.375C332.867 370.271 348.532 353.95 348.532 333.969C348.532 315.448 335.07 300.077 317.381 297.05C332.436 294.599 344.866 284.324 350.304 270.527Z" fill="url(#paint1_radial)"/>
<path d="M342.924 253.955C342.924 261.259 341.07 268.125 337.81 274.123C340.948 271.826 344.801 270.454 348.988 270.454C349.094 270.454 349.199 270.471 349.313 270.471C351.256 265.617 352.329 260.326 352.329 254.783C352.329 231.385 333.331 212.426 309.903 212.426C309.594 212.426 309.293 212.442 308.992 212.45C328.356 216.37 342.924 233.462 342.924 253.955Z" fill="#AD6475"/>
<path d="M331.054 283.317C323.534 291.117 313.047 296.043 301.406 296.287C304.154 296.847 306.991 297.139 309.901 297.139C317.275 297.139 324.209 295.256 330.249 291.953C330.135 291.101 330.054 290.24 330.054 289.356C330.054 287.245 330.411 285.217 331.054 283.317Z" fill="#AD6475"/>
<path d="M349.313 270.47C349.207 270.47 349.102 270.454 348.988 270.454C344.801 270.454 340.948 271.826 337.81 274.122C335.981 277.491 333.697 280.575 331.055 283.318C330.413 285.217 330.047 287.246 330.047 289.364C330.047 290.249 330.128 291.109 330.242 291.961C338.859 287.246 345.647 279.649 349.313 270.47Z" fill="#AD6475"/>
<path d="M634.258 323.718C637.225 324.927 640.371 325.771 643.655 326.21C640.469 324.611 637.542 322.582 634.949 320.196C634.827 321.405 634.591 322.582 634.258 323.718Z" fill="#AD6475"/>
<path d="M768.212 167.423V255.724C767.35 255.813 766.48 255.845 765.602 255.845C749.986 255.845 737.312 243.193 737.312 227.602C737.312 216.678 743.531 207.231 752.636 202.524C748.303 198.847 745.556 193.385 745.556 187.266C745.556 176.204 754.53 167.244 765.61 167.244C766.488 167.244 767.35 167.301 768.212 167.423Z" fill="#48376D"/>
<path d="M278.824 342.523V342.507V342.491C278.824 322.136 267.898 310.863 257.72 306.489C248.388 302.48 240.064 304.444 235.479 306.757C236.251 304.606 236.69 302.309 236.69 299.899C236.69 288.683 227.593 279.601 216.359 279.601C209.766 279.601 203.913 282.75 200.198 287.619C200.044 276.119 190.662 266.851 179.111 266.851C174.713 266.851 170.624 268.198 167.258 270.511C167.608 268.555 167.819 266.559 167.819 264.505C167.819 246.512 153.219 231.936 135.197 231.936C123.222 231.936 112.793 238.397 107.118 247.965C107.135 247.738 107.151 247.527 107.151 247.283C107.151 236.132 98.4607 227.034 87.4863 226.304C97.6722 222.911 105.054 213.335 105.054 202.013C105.054 187.875 93.5588 176.407 79.3896 176.407C75.3412 176.407 71.5368 177.373 68.1387 179.029C69.7483 174.987 70.6832 170.596 70.6832 165.97C70.6832 146.614 54.9613 130.918 35.5731 130.918C28.6876 130.918 22.2655 132.931 16.8515 136.339C13.7867 132.436 9.33193 129.668 4.21052 128.816C8.95798 124.182 11.9251 117.705 11.9251 110.547C11.9251 101.027 6.72245 92.7326 -0.992188 88.3257V169.014V342.507V516C102.851 514.004 102.55 448.59 102.55 448.59C201.491 518.094 258.249 421.759 235.487 378.258C265.646 387.688 279.783 360.792 278.824 342.523Z" fill="#171742"/>
<path d="M612.414 328.45C612.414 324.887 615.3 322.006 618.869 322.006C622.437 322.006 625.323 324.887 625.323 328.45C625.323 332.013 622.437 334.894 618.869 334.894C615.3 334.894 612.414 332.005 612.414 328.45Z" fill="#48376D"/>
<path d="M738.76 287.651C738.76 285.241 740.719 283.285 743.133 283.285C745.548 283.285 747.507 285.241 747.507 287.651C747.507 290.061 745.548 292.017 743.133 292.017C740.719 292.017 738.76 290.061 738.76 287.651Z" fill="#3E3063"/>
<path d="M719.518 306.317C719.518 301.415 723.501 297.438 728.411 297.438C733.321 297.438 737.304 301.415 737.304 306.317C737.304 311.219 733.321 315.196 728.411 315.196C723.501 315.196 719.518 311.227 719.518 306.317Z" fill="#3E3063"/>
<path d="M367.271 318.379C367.271 314.816 370.157 311.935 373.726 311.935C377.295 311.935 380.181 314.816 380.181 318.379C380.181 321.941 377.295 324.823 373.726 324.823C370.157 324.823 367.271 321.933 367.271 318.379Z" fill="#48376D"/>
<path d="M317.576 357.034C328.674 357.034 337.671 348.052 337.671 336.972C337.671 325.891 328.674 316.909 317.576 316.909C306.478 316.909 297.48 325.891 297.48 336.972C297.48 348.052 306.478 357.034 317.576 357.034Z" fill="#48376D"/>
<path d="M221.258 178.973C227.037 174.008 227.69 165.307 222.717 159.538C217.744 153.769 209.029 153.117 203.25 158.081C197.472 163.046 196.818 171.747 201.791 177.516C206.764 183.285 215.479 183.937 221.258 178.973Z" fill="#48376D"/>
<path d="M186.371 239.151C186.371 233.827 190.696 229.509 196.029 229.509C201.361 229.509 205.686 233.827 205.686 239.151C205.686 244.475 201.361 248.793 196.029 248.793C190.696 248.793 186.371 244.483 186.371 239.151Z" fill="#48376D"/>
<path d="M251.787 279.357C251.787 275.794 254.673 272.913 258.242 272.913C261.81 272.913 264.696 275.794 264.696 279.357C264.696 282.92 261.81 285.801 258.242 285.801C254.681 285.801 251.787 282.92 251.787 279.357Z" fill="#48376D"/>
<path d="M106.119 221.856C106.119 218.293 109.005 215.412 112.574 215.412C116.142 215.412 119.028 218.293 119.028 221.856C119.028 225.419 116.142 228.3 112.574 228.3C109.013 228.3 106.119 225.419 106.119 221.856Z" fill="#48376D"/>
<path d="M245.194 184.636C248.835 184.636 251.787 181.689 251.787 178.054C251.787 174.419 248.835 171.472 245.194 171.472C241.553 171.472 238.602 174.419 238.602 178.054C238.602 181.689 241.553 184.636 245.194 184.636Z" fill="#48376D"/>
<path d="M62.7334 282.62C59.4167 282.62 56.1975 282.985 53.0922 283.667C51.9378 274.39 44.0118 267.183 34.4031 267.183C34.3706 267.183 34.3462 267.199 34.3137 267.199C36.2078 262.038 37.2239 256.47 37.2239 250.659C37.2239 227.472 20.8354 208.083 -1.00781 203.465V342.499V416.093C21.3557 413.44 24.1034 408.586 26.7454 395.26C27.412 391.924 27.0299 388.727 25.7211 385.756C25.7536 385.756 25.778 385.748 25.8105 385.764C35.4436 390.115 44.1907 386.714 46.3774 376.293C49.4015 376.683 52.5882 376.894 55.8968 376.894C80.3657 376.894 96.9006 360.524 104.184 342.491C106.022 337.629 107.038 332.362 107.038 326.843C107.046 302.43 87.2024 282.62 62.7334 282.62Z" fill="#3E3063"/>
<path d="M66.9043 270.673C74.5726 270.673 80.789 264.467 80.789 256.811C80.789 249.155 74.5726 242.949 66.9043 242.949C59.2359 242.949 53.0195 249.155 53.0195 256.811C53.0195 264.467 59.2359 270.673 66.9043 270.673Z" fill="#3E3063"/>
<path d="M120.305 309.004C120.305 306.001 122.743 303.566 125.751 303.566C128.759 303.566 131.198 306.001 131.198 309.004C131.198 312.007 128.759 314.442 125.751 314.442C122.743 314.442 120.305 312.007 120.305 309.004Z" fill="#3E3063"/>
<path d="M49.4173 235.653C52.4253 235.653 54.8639 233.219 54.8639 230.215C54.8639 227.212 52.4253 224.778 49.4173 224.778C46.4092 224.778 43.9707 227.212 43.9707 230.215C43.9707 233.219 46.4092 235.653 49.4173 235.653Z" fill="#3E3063"/>
<path d="M216.117 316.914C217.48 311.169 213.92 305.409 208.166 304.049C202.412 302.688 196.643 306.242 195.28 311.986C193.917 317.73 197.477 323.49 203.231 324.851C208.985 326.212 214.754 322.658 216.117 316.914Z" fill="#3E3063"/>
<path d="M27.8517 178.095C32.0326 173.92 32.0326 167.153 27.8517 162.979C23.6707 158.805 16.892 158.805 12.711 162.979C8.52998 167.153 8.52998 173.92 12.711 178.095C16.892 182.269 23.6707 182.269 27.8517 178.095Z" fill="#3E3063"/>
<path d="M157.138 382.404C174.899 382.404 189.297 368.03 189.297 350.298C189.297 332.566 174.899 318.191 157.138 318.191C139.377 318.191 124.979 332.566 124.979 350.298C124.979 368.03 139.377 382.404 157.138 382.404Z" fill="#3E3063"/>
<path d="M768.212 297.553C767.497 297.496 766.782 297.447 766.058 297.447C752.206 297.447 740.971 308.663 740.971 322.493V322.501C739.793 322.225 738.573 322.063 737.313 322.063C728.525 322.063 721.404 329.172 721.404 337.946C721.404 338.684 721.469 339.406 721.567 340.121C721.599 340.38 721.64 340.632 721.681 340.892C721.713 341.054 721.746 341.216 721.778 341.379C721.851 341.719 721.9 342.077 721.99 342.409H722.046C723.794 348.374 728.948 352.871 735.273 353.682C737.313 360.946 743.369 366.522 750.913 367.861C750.604 369.094 750.426 370.369 750.426 371.7C750.426 380.473 757.547 387.582 766.334 387.582C766.969 387.582 767.595 387.534 768.212 387.461V334.017V297.553Z" fill="#3E3063"/>
</g>
<defs>
<radialGradient id="paint0_radial" cx="0" cy="0" r="1" gradientUnits="userSpaceOnUse" gradientTransform="translate(643.425 225.293) scale(136.182 135.959)">
<stop stop-color="#D37575"/>
<stop offset="0.9946" stop-color="#58448B" stop-opacity="0"/>
</radialGradient>
<radialGradient id="paint1_radial" cx="0" cy="0" r="1" gradientUnits="userSpaceOnUse" gradientTransform="translate(222.866 75.9663) scale(181.714 181.415)">
<stop stop-color="#D37575"/>
<stop offset="0.9946" stop-color="#58448B" stop-opacity="0"/>
</radialGradient>
<clipPath id="clip0">
<rect x="-1" width="771" height="516" fill="white"/>
</clipPath>
</defs>
</svg>
