<svg width="1440" height="427" viewBox="0 0 1440 427" fill="none" xmlns="http://www.w3.org/2000/svg">
<mask id="mask0" mask-type="alpha" maskUnits="userSpaceOnUse" x="0" y="0" width="1440" height="427">
<rect width="1440" height="427" fill="#C4C4C4"/>
</mask>
<g mask="url(#mask0)">
<g filter="url(#filter0_d)">
<path d="M485.896 379.14C488.538 372.349 490 364.956 490 357.221C490 324.122 463.476 297.29 430.757 297.29C417.883 297.29 405.965 301.465 396.25 308.517C396.216 308.539 396.183 308.562 396.149 308.585C391.078 301.772 384.051 296.517 375.854 293.821C385.793 282.902 391.876 268.343 391.876 252.35C391.876 218.557 364.79 191.179 331.408 191.179C328.428 191.179 325.516 191.395 322.66 191.816C323.942 186.789 324.628 181.488 324.628 176.051C324.628 141.303 296.8 113.14 262.439 113.14C243.066 113.14 225.785 122.092 214.383 136.15C206.771 125.948 194.741 119.351 181.17 119.351C174.142 119.351 167.542 121.114 161.729 124.23C161.752 123.468 161.797 122.706 161.797 121.944C161.797 82.4296 130.134 50.3995 91.0514 50.3995C79.4142 50.3995 68.4291 53.2659 58.7595 58.2933C60.7946 53.3114 61.964 47.8403 61.964 42.1077C61.964 18.8586 43.3219 0 20.3398 0C12.9415 0 6.01537 1.93363 0 5.39142V78.8239V391.595V521H434.479V520.477C461.778 518.93 483.445 496.056 483.445 468.053C483.445 442.096 464.825 420.554 440.359 416.311C461.182 412.876 478.374 398.476 485.896 379.14Z" fill="#58448B"/>
<path d="M1458 273.662C1441.56 261.316 1402.16 258.264 1405.3 272.092C1362.3 249.675 1348.75 293.076 1348.75 293.076C1303.32 274.205 1273.41 325.491 1273.41 325.491C1220.35 297.117 1191.92 356.88 1191.92 356.88C1108.45 302.604 1070.3 361.836 1070.3 361.836C1065 357.276 1058.01 354.458 1050.33 354.458C1037.82 354.458 1027.1 361.811 1022.61 372.253C1018.12 361.811 1007.41 354.458 994.925 354.458C988.788 354.458 983.101 356.237 978.366 359.277C978.366 358.931 978.392 358.585 978.392 358.264C978.392 321.895 947.679 292.396 909.813 292.396C896.831 292.396 884.672 295.857 874.327 301.912C869.309 281.818 850.524 266.877 828.085 266.877C814.459 266.877 802.223 272.389 793.538 281.163C788.688 276.875 782.357 274.144 775.358 273.662C759.095 221.721 702.263 237.564 693.488 247.549C651.029 225.416 631.935 261.316 631.935 261.316C559.496 246.227 555.147 306.571 555.147 306.571C513.138 275.033 479.814 313.43 479.814 313.43C427.653 272.29 388.538 317.545 388.538 317.545C372.597 261.316 317.554 276.405 317.554 276.405C317.554 276.405 323.344 235.266 294.368 196.869C275.75 172.191 252.346 167.915 238 168.001V427.802H716.519H773.274H1072.73L1072.74 428H1441.56L1458 273.662Z" fill="#58448B"/>
<path d="M1169.76 359.138L1444 359.008V140.069L1441.5 86.1543C1441.5 86.1543 1437.5 54.6543 1394.83 62.1543C1375 68.1543 1362.07 80.0861 1362.07 97.2635C1362.07 102.759 1363.51 107.922 1366.02 112.403C1365.87 112.387 1365.71 112.371 1365.57 112.371C1358.07 112.371 1351.99 118.273 1351.68 125.66C1348.37 122.843 1344.08 121.146 1339.4 121.146C1328.9 121.146 1320.39 129.621 1320.39 140.069C1320.39 140.264 1320.4 140.434 1320.42 140.629C1318.52 140.28 1316.55 140.069 1314.55 140.069C1297.3 140.069 1283.29 153.999 1283.29 171.177C1283.29 186.349 1294.2 198.956 1308.63 201.724C1307.89 204.525 1307.47 207.447 1307.47 210.459C1307.47 226.719 1318.68 240.341 1333.82 244.157C1330.26 247.079 1328.01 251.487 1328.01 256.431C1328.01 256.942 1328.05 257.429 1328.1 257.916C1327.54 257.884 1326.98 257.843 1326.41 257.843C1321.47 257.843 1316.99 259.735 1313.61 262.811C1308.26 248.11 1294.12 237.605 1277.52 237.605C1256.34 237.605 1239.15 254.685 1239.15 275.784C1239.15 279.778 1239.79 283.626 1240.93 287.246C1237.92 287.855 1235.2 289.186 1232.9 291.029C1226.22 281.125 1214.87 274.59 1201.99 274.59C1181.45 274.59 1164.81 291.167 1164.81 311.592C1164.81 312.566 1164.87 313.524 1164.95 314.482C1154.69 316.674 1147 325.741 1147 336.611C1147 348.057 1155.54 357.49 1166.62 359.008L1166.62 359.154" fill="#58448B"/>
<path d="M1439.9 136.179V224.479C1439.04 224.569 1438.17 224.601 1437.29 224.601C1421.67 224.601 1409 211.948 1409 196.358C1409 185.434 1415.22 175.987 1424.32 171.28C1419.99 167.603 1417.24 162.141 1417.24 156.022C1417.24 144.96 1426.22 136 1437.3 136C1438.18 136 1439.04 136.057 1439.9 136.179Z" fill="#48376D"/>
<path d="M1330.66 183.998C1331.11 184.151 1331.58 184.279 1332.04 184.396C1331.58 184.083 1331.13 183.755 1330.7 183.404C1330.68 183.607 1330.68 183.803 1330.66 183.998Z" fill="#AD6475"/>
<path d="M1439.81 244.106C1439.09 244.049 1438.38 244 1437.65 244C1423.8 244 1412.57 255.216 1412.57 269.046V269.054C1411.39 268.778 1410.17 268.615 1408.91 268.615C1400.12 268.615 1393 275.725 1393 284.498C1393 285.237 1393.06 285.959 1393.16 286.673C1393.2 286.933 1393.24 287.185 1393.28 287.444C1393.31 287.607 1393.34 287.769 1393.37 287.931C1393.45 288.272 1393.5 288.629 1393.59 288.962H1393.64C1395.39 294.927 1400.54 299.423 1406.87 300.235C1408.91 307.499 1414.97 313.074 1422.51 314.413C1422.2 315.647 1422.02 316.921 1422.02 318.252C1422.02 327.026 1429.14 334.135 1437.93 334.135C1438.56 334.135 1439.19 334.086 1439.81 334.013V280.57V244.106Z" fill="#3E3063"/>
<path d="M1334 121C1334 116.029 1338.03 112 1343 112C1347.97 112 1352 116.029 1352 121C1352 125.971 1347.97 130 1343 130C1338.03 130.008 1334 125.971 1334 121Z" fill="#58448B"/>
<path d="M485.896 383.417C488.538 376.496 490 368.961 490 361.078C490 327.343 463.476 299.996 430.757 299.996C417.883 299.996 405.965 304.251 396.25 311.438C396.216 311.461 396.183 311.485 396.149 311.508C391.078 304.564 384.051 299.208 375.854 296.461C385.794 285.332 391.876 270.493 391.876 254.194C391.876 219.752 364.79 191.849 331.408 191.849C328.428 191.849 325.516 192.069 322.66 192.498C323.942 187.374 324.628 181.972 324.628 176.431C324.628 141.015 296.8 112.312 262.439 112.312C243.066 112.312 225.785 121.435 214.383 135.764C206.771 125.365 194.741 118.641 181.17 118.641C174.142 118.641 167.542 120.438 161.729 123.615C161.752 122.838 161.797 122.061 161.797 121.284C161.797 81.0117 130.134 48.3669 91.0514 48.3669C79.4142 48.3669 68.4291 51.2882 58.7595 56.4122C60.7946 51.3346 61.964 45.7586 61.964 39.9159C61.964 16.2206 43.3219 -3 20.3398 -3C12.9415 -3 6.01537 -1.02925 0 2.4949V77.3369V396.111V528H434.479V527.467C461.778 525.89 483.445 502.577 483.445 474.036C483.445 447.582 464.825 425.626 440.359 421.302C461.182 417.801 478.374 403.124 485.896 383.417Z" fill="url(#paint0_radial)"/>
<path d="M88.7412 387.154C85.4245 387.154 82.2054 387.519 79.1 388.201C77.9456 378.925 70.0196 371.718 60.4109 371.718C60.3784 371.718 60.354 371.734 60.3215 371.734C62.2156 366.572 63.2317 361.005 63.2317 355.194C63.2317 332.007 46.8432 312.618 25 308V447.033V520.628C47.3635 517.974 50.1112 513.121 52.7532 499.795C53.4198 496.459 53.0377 493.261 51.7289 490.291C51.7614 490.291 51.7858 490.283 51.8183 490.299C61.4514 494.649 70.1985 491.249 72.3852 480.828C75.4093 481.217 78.596 481.428 81.9046 481.428C106.374 481.428 122.908 465.059 130.192 447.025C132.029 442.164 133.046 436.897 133.046 431.378C133.054 406.965 113.21 387.154 88.7412 387.154Z" fill="#3E3063"/>
<path d="M314.954 444.198V444.182V444.165C314.954 423.811 303.918 412.538 293.638 408.163C284.212 404.154 275.804 406.118 271.173 408.431C271.953 406.28 272.396 403.984 272.396 401.573C272.396 390.357 263.208 381.275 251.86 381.275C245.201 381.275 239.289 384.424 235.537 389.294C235.381 377.794 225.905 368.525 214.237 368.525C209.795 368.525 205.665 369.872 202.266 372.185C202.619 370.23 202.832 368.233 202.832 366.18C202.832 348.187 188.085 333.611 169.881 333.611C157.787 333.611 147.252 340.071 141.521 349.64C141.537 349.412 141.553 349.201 141.553 348.958C141.553 337.807 132.776 328.709 121.691 327.978C131.979 324.586 139.435 315.009 139.435 303.687C139.435 289.549 127.825 278.082 113.513 278.082C109.424 278.082 105.581 279.048 102.149 280.703C103.774 276.661 104.719 272.271 104.719 267.645C104.719 248.288 88.8385 232.592 69.2552 232.592C62.3005 232.592 55.8138 234.605 50.3452 238.014C47.2497 234.11 42.75 231.342 37.5771 230.49C42.3723 225.856 51.3553 222.5 47.978 210.5C40.5979 184.278 7.79227 189.407 0 185V280.703V444.165V619C113.513 640 136.906 550.264 136.906 550.264C224 616 294.172 523.433 271.181 479.932C301.644 489.363 315.923 462.467 314.954 444.198Z" fill="#171742"/>
<path d="M67.7412 374.154C64.4245 374.154 61.2054 374.519 58.1 375.201C56.9456 365.925 49.0196 358.718 39.4109 358.718C39.3784 358.718 39.354 358.734 39.3215 358.734C41.2156 353.572 42.2317 348.005 42.2317 342.194C42.2317 319.007 21.8432 299.618 0 295V434.025V508C22.3635 505.346 29.1112 500.121 31.7532 486.795C32.4198 483.459 32.0377 480.261 30.7289 477.291C30.7614 477.291 30.7858 477.283 30.8183 477.299C40.4514 481.649 49.1985 478.249 51.3852 467.828C54.4093 468.217 57.596 468.428 60.9046 468.428C85.3735 468.428 101.908 452.059 109.192 434.025C111.029 429.164 112.046 423.897 112.046 418.378C112.054 393.965 92.2102 374.154 67.7412 374.154Z" fill="#3E3063"/>
<path d="M1072 428C1055.58 415.654 1066.42 412.683 1069.56 426.511C1026.6 404.094 1072 428 1072 428C1018.99 399.626 1071.99 427.802 1071.99 427.802C1069.56 361.836 1069.56 361.836 1069.56 361.836C1064.26 357.276 1057.28 354.458 1049.61 354.458C1037.11 354.458 1026.4 361.811 1021.92 372.253C1017.43 361.811 1006.72 354.458 994.252 354.458C988.121 354.458 982.439 356.237 977.708 359.277C977.708 358.931 977.734 358.585 977.734 358.264C977.734 321.895 947.048 292.396 909.216 292.396C896.245 292.396 884.097 295.857 873.762 301.912C868.748 281.818 849.98 266.877 827.56 266.877C813.947 266.877 801.722 272.389 793.044 281.163C788.198 276.875 781.873 274.144 774.88 273.662C758.631 221.721 701.85 237.564 693.083 247.549C650.661 225.416 631.585 261.316 631.585 261.316C559.21 246.227 554.865 306.571 554.865 306.571C512.893 275.033 479.599 313.43 479.599 313.43C427.484 272.29 388.405 317.545 388.405 317.545C372.477 261.316 317.483 276.405 317.483 276.405C317.483 276.405 323.268 235.266 294.318 196.869C275.717 172.191 252.333 167.915 238 168.001V427.802H716.094H772.798H1071.99L1072 428Z" fill="url(#paint1_radial)"/>
<path d="M1171.72 357.138H1399V127.757V66.2333C1397.65 66.056 1396.3 66.2325 1394.91 66.2325C1377.69 66.2325 1363.71 80.064 1363.71 97.1197C1363.71 102.577 1365.15 107.703 1367.66 112.152C1367.5 112.136 1367.34 112.12 1367.2 112.12C1359.72 112.12 1353.64 117.98 1353.33 125.315C1350.04 122.518 1345.75 120.833 1341.08 120.833C1330.6 120.833 1322.1 129.248 1322.1 139.622C1322.1 139.815 1322.11 139.985 1322.13 140.178C1320.23 139.831 1318.27 139.622 1316.27 139.622C1299.04 139.622 1285.06 153.453 1285.06 170.509C1285.06 185.574 1295.95 198.092 1310.36 200.84C1309.62 203.621 1309.21 206.523 1309.21 209.513C1309.21 225.658 1319.89 243.712 1335 247.5C1331.45 250.402 1329.8 250.385 1329.71 255.159C1329.71 255.667 1329.74 256.15 1329.8 256.634C1329.24 256.602 1330.42 255.133 1328.81 255.847C1330.48 255.847 1316.27 256.634 1313 262.5C1307.66 247.903 1291.5 236.467 1279.3 236.467C1258.16 236.467 1241 253.426 1241 274.375C1241 278.34 1241.64 282.161 1242.78 285.756C1239.77 286.36 1237.05 287.682 1234.75 289.512C1228.09 279.678 1216.76 273.19 1203.9 273.19C1183.39 273.19 1166.78 289.649 1166.78 309.929C1166.78 310.896 1166.84 311.847 1166.92 312.798C1156.68 314.975 1149 323.978 1149 334.771C1149 346.136 1157.53 355.502 1168.58 357.009L1168.59 357.154" fill="url(#paint2_radial)"/>
<path d="M377.15 214.481C383.031 222.253 386.594 231.313 387.967 240.779C389.444 235.367 392.425 230.261 396.862 226.3C396.975 226.2 397.1 226.118 397.22 226.01C395.372 219.007 392.249 212.361 387.787 206.463C368.948 181.564 333.546 179.365 308.711 201.531C308.384 201.823 308.078 202.125 307.766 202.418C331.448 188.269 360.651 192.674 377.15 214.481Z" fill="#AD6475"/>
<path d="M388.206 256.957C386.515 272.371 379.365 287.535 367.221 298.808C370.585 296.804 373.827 294.43 376.912 291.677C384.728 284.701 390.562 276.137 394.306 266.907C393.499 266.108 392.72 265.269 392.008 264.328C390.309 262.083 389.054 259.585 388.206 256.957Z" fill="#AD6475"/>
<path d="M397.223 226.012C397.111 226.112 396.986 226.194 396.865 226.302C392.427 230.263 389.447 235.368 387.97 240.781C388.743 246.096 388.804 251.539 388.212 256.957C389.061 259.586 390.306 262.091 392.012 264.345C392.724 265.286 393.503 266.125 394.31 266.924C399.647 253.754 400.727 239.248 397.223 226.012Z" fill="#AD6475"/>
<path d="M731.927 325.924C735.37 325.924 738.162 323.137 738.162 319.699C738.162 316.262 735.37 313.475 731.927 313.475C728.483 313.475 725.691 316.262 725.691 319.699C725.691 323.137 728.483 325.924 731.927 325.924Z" fill="#58448B"/>
<path d="M495.544 325.924C498.987 325.924 501.779 323.137 501.779 319.699C501.779 316.262 498.987 313.475 495.544 313.475C492.1 313.475 489.309 316.262 489.309 319.699C489.309 323.137 492.1 325.924 495.544 325.924Z" fill="#58448B"/>
<path d="M421.82 263.887C427.796 263.887 432.64 259.05 432.64 253.084C432.64 247.119 427.796 242.282 421.82 242.282C415.844 242.282 411 247.119 411 253.084C411 259.05 415.844 263.887 421.82 263.887Z" fill="#58448B"/>
<path d="M627.414 428.484C627.414 424.921 630.3 422.04 633.869 422.04C637.437 422.04 640.323 424.921 640.323 428.484C640.323 432.047 637.437 434.928 633.869 434.928C630.3 434.928 627.414 432.039 627.414 428.484Z" fill="#48376D"/>
<path d="M382.27 418.413C382.27 414.85 385.155 411.969 388.724 411.969C392.293 411.969 395.179 414.85 395.179 418.413C395.179 421.976 392.293 424.857 388.724 424.857C385.155 424.857 382.27 421.967 382.27 418.413Z" fill="#48376D"/>
<path d="M360.576 457.068C371.674 457.068 380.671 448.086 380.671 437.006C380.671 425.926 371.674 416.943 360.576 416.943C349.478 416.943 340.48 425.926 340.48 437.006C340.48 448.086 349.478 457.068 360.576 457.068Z" fill="#48376D"/>
<path d="M236.257 279.006C242.036 274.042 242.689 265.341 237.716 259.572C232.743 253.802 224.028 253.15 218.249 258.115C212.471 263.079 211.817 271.781 216.79 277.55C221.763 283.319 230.478 283.971 236.257 279.006Z" fill="#48376D"/>
<path d="M201.371 339.186C201.371 333.862 205.696 329.544 211.029 329.544C216.361 329.544 220.686 333.862 220.686 339.186C220.686 344.51 216.361 348.827 211.029 348.827C205.696 348.827 201.371 344.518 201.371 339.186Z" fill="#48376D"/>
<path d="M266.787 379.391C266.787 375.828 269.673 372.947 273.242 372.947C276.81 372.947 279.696 375.828 279.696 379.391C279.696 382.954 276.81 385.835 273.242 385.835C269.681 385.835 266.787 382.954 266.787 379.391Z" fill="#48376D"/>
<path d="M142.119 320.89C142.119 317.327 145.005 314.446 148.574 314.446C152.142 314.446 155.028 317.327 155.028 320.89C155.028 324.453 152.142 327.334 148.574 327.334C145.013 327.334 142.119 324.453 142.119 320.89Z" fill="#48376D"/>
<path d="M260.194 284.67C263.835 284.67 266.787 281.723 266.787 278.088C266.787 274.453 263.835 271.506 260.194 271.506C256.553 271.506 253.602 274.453 253.602 278.088C253.602 281.723 256.553 284.67 260.194 284.67Z" fill="#48376D"/>
<path d="M96.9043 359.707C104.573 359.707 110.789 353.501 110.789 345.845C110.789 338.19 104.573 331.983 96.9043 331.983C89.2359 331.983 83.0195 338.19 83.0195 345.845C83.0195 353.501 89.2359 359.707 96.9043 359.707Z" fill="#3E3063"/>
<path d="M67.4173 322.688C70.4253 322.688 72.8639 320.253 72.8639 317.25C72.8639 314.247 70.4253 311.812 67.4173 311.812C64.4092 311.812 61.9707 314.247 61.9707 317.25C61.9707 320.253 64.4092 322.688 67.4173 322.688Z" fill="#3E3063"/>
<path d="M42.8526 278.128C47.0335 273.954 47.0335 267.187 42.8526 263.012C38.6716 258.838 31.8929 258.838 27.7119 263.012C23.5309 267.187 23.5309 273.954 27.7119 278.128C31.8929 282.302 38.6716 282.302 42.8526 278.128Z" fill="#3E3063"/>
<path d="M1335.42 124.798C1341.25 122.822 1347.78 123.769 1352.87 127.421C1352.63 127.062 1352.38 126.704 1352.1 126.359C1347.03 120.065 1338.87 117.734 1331.62 119.818C1332.12 120.352 1332.62 120.88 1333.08 121.452C1333.95 122.525 1334.71 123.65 1335.42 124.798Z" fill="#AD6475"/>
<path d="M1360.05 137.092C1359.33 134.962 1358.24 132.909 1356.75 131.057C1355.61 129.641 1354.3 128.436 1352.89 127.421C1355.36 130.929 1356.53 135.001 1356.44 139.025C1357.57 138.183 1358.78 137.539 1360.05 137.092Z" fill="#AD6475"/>
<path d="M1304.93 250.268C1306.36 251.282 1307.69 252.375 1308.93 253.523C1306.2 248.478 1302.25 243.905 1297.11 240.253C1279.58 227.777 1255.11 230.787 1242.45 246.976C1240.04 250.05 1238.24 253.37 1237.02 256.827C1233.35 267.179 1234.85 278.703 1240.97 288.16C1241.93 287.485 1242.83 286.72 1243.65 285.858C1242.12 278.744 1242.78 271.287 1245.78 264.478C1246.93 261.869 1248.41 259.354 1250.27 256.985C1262.91 240.797 1287.4 237.792 1304.93 250.268Z" fill="#AD6475"/>
<path d="M1313.09 198.258C1313.25 197.795 1313.44 197.364 1313.62 196.917C1312.89 196.729 1312.16 196.56 1311.44 196.322C1309.47 195.675 1307.62 194.839 1305.88 193.873C1304.28 196.345 1302.93 199.029 1301.97 201.945C1296.8 217.641 1303.36 234.375 1316.85 242.921C1320.27 241.603 1324.16 241.408 1327.93 242.651C1331.33 243.769 1334.1 245.889 1336.05 248.557C1341.98 248.581 1347.74 247.124 1352.84 244.441C1347.38 245.292 1341.64 244.931 1336.01 243.077C1317.24 236.88 1306.98 216.822 1313.09 198.258Z" fill="#AD6475"/>
<path d="M1316.85 242.911C1319.31 244.47 1321.98 245.791 1324.88 246.747C1328.59 247.969 1332.35 248.529 1336.05 248.549C1334.1 245.882 1331.33 243.761 1327.94 242.644C1324.15 241.406 1320.27 241.595 1316.85 242.911Z" fill="#AD6475"/>
<path d="M1294.47 160.41C1296.29 152.617 1300.99 146.217 1307.27 141.91C1295.37 144.593 1285.6 153.366 1282.78 165.491C1279.24 180.702 1287.83 196.041 1302.43 202.359C1304.07 199.341 1306.13 196.619 1308.54 194.235C1297.43 186.799 1291.41 173.561 1294.47 160.41Z" fill="#AD6475"/>
<path d="M1307.62 201.909C1308.58 199.324 1309.82 196.917 1311.31 194.712C1309.55 193.735 1307.93 192.601 1306.43 191.35C1303.93 193.507 1301.71 196.018 1299.88 198.857C1301.63 199.823 1303.48 200.658 1305.44 201.306C1306.16 201.551 1306.89 201.729 1307.62 201.909Z" fill="#AD6475"/>
<path d="M1324.87 153.244C1325.25 153.559 1325.65 153.851 1326.04 154.132C1325.72 153.665 1325.41 153.187 1325.13 152.694C1325.03 152.878 1324.96 153.065 1324.87 153.244Z" fill="#AD6475"/>
<path d="M1324.5 123.679C1325.65 125.817 1326.54 128.049 1327.16 130.334C1327.89 129.5 1328.69 128.71 1329.57 127.995C1331.37 126.549 1333.35 125.503 1335.42 124.803C1334.71 123.66 1333.95 122.535 1333.09 121.463C1332.62 120.885 1332.12 120.363 1331.63 119.829C1329.25 120.512 1326.98 121.661 1324.94 123.304C1324.78 123.421 1324.64 123.554 1324.5 123.679Z" fill="#AD6475"/>
<path d="M1327.16 130.334C1326.54 128.055 1325.65 125.823 1324.5 123.68C1316.64 130.418 1315.55 142.296 1322.17 150.5C1322.99 151.52 1323.9 152.431 1324.86 153.237C1324.95 153.058 1325.04 152.872 1325.12 152.687C1320.96 145.527 1321.79 136.502 1327.16 130.334Z" fill="#AD6475"/>
<path d="M1230.21 284.033C1223.98 275.468 1213.26 269.727 1200.99 269.54C1181.44 269.242 1165.37 283.149 1165.11 300.606C1165.09 301.833 1165.17 303.042 1165.3 304.23C1165.43 305.411 1165.65 306.566 1165.92 307.701C1165.94 306.765 1166.02 305.85 1166.12 304.936C1167.96 288.821 1183.32 276.388 1201.81 276.67C1211.82 276.823 1220.79 280.692 1227.14 286.755C1231.45 290.879 1234.54 296.018 1235.91 301.72C1235.91 301.706 1235.91 301.693 1235.91 301.679C1236.01 295.187 1233.91 289.112 1230.21 284.033Z" fill="#AD6475"/>
<path d="M1332 83.1547C1332 78.0985 1336.11 74 1341.17 74C1346.23 74 1350.34 78.0985 1350.34 83.1547C1350.34 88.2109 1346.23 92.3094 1341.17 92.3094C1336.11 92.3176 1332 88.2109 1332 83.1547Z" fill="#58448B"/>
<path d="M1368 255.879C1368 250.977 1371.98 247 1376.89 247C1381.8 247 1385.79 250.977 1385.79 255.879C1385.79 260.781 1381.8 264.758 1376.89 264.758C1371.98 264.758 1368 260.789 1368 255.879Z" fill="#3E3063"/>
<path d="M1405 234.366C1405 231.956 1406.96 230 1409.37 230C1411.79 230 1413.75 231.956 1413.75 234.366C1413.75 236.777 1411.79 238.733 1409.37 238.733C1406.96 238.733 1405 236.777 1405 234.366Z" fill="#3E3063"/>
<path d="M1242.24 235.45C1245.68 235.45 1248.47 232.663 1248.47 229.225C1248.47 225.787 1245.68 223 1242.24 223C1238.79 223 1236 225.787 1236 229.225C1236 232.663 1238.79 235.45 1242.24 235.45Z" fill="#58448B"/>
<path d="M1144.53 334.913C1133.78 327.161 1118.69 324.484 1103.84 328.983C1080.18 336.153 1066.1 358.811 1072.4 379.595C1072.85 381.057 1073.4 382.457 1074.01 383.815C1074.61 385.164 1075.31 386.45 1076.08 387.687C1075.74 386.573 1075.49 385.457 1075.27 384.336C1071.37 364.536 1085.15 343.896 1107.53 337.116C1119.65 333.444 1131.92 334.576 1141.87 339.316C1148.62 342.543 1154.29 347.445 1158.1 353.672C1158.1 353.656 1158.09 353.639 1158.09 353.623C1155.75 345.893 1150.91 339.507 1144.53 334.913Z" fill="#AD6475"/>
</g>
</g>
<defs>
<filter id="filter0_d" x="-4" y="-3" width="1466" height="633.185" filterUnits="userSpaceOnUse" color-interpolation-filters="sRGB">
<feFlood flood-opacity="0" result="BackgroundImageFix"/>
<feColorMatrix in="SourceAlpha" type="matrix" values="0 0 0 0 0 0 0 0 0 0 0 0 0 0 0 0 0 0 127 0"/>
<feOffset dy="4"/>
<feGaussianBlur stdDeviation="2"/>
<feColorMatrix type="matrix" values="0 0 0 0 0 0 0 0 0 0 0 0 0 0 0 0 0 0 0.25 0"/>
<feBlend mode="normal" in2="BackgroundImageFix" result="effect1_dropShadow"/>
<feBlend mode="normal" in="SourceGraphic" in2="effect1_dropShadow" result="shape"/>
</filter>
<radialGradient id="paint0_radial" cx="0" cy="0" r="1" gradientUnits="userSpaceOnUse" gradientTransform="translate(309.633 105.509) scale(251.332 259.131)">
<stop stop-color="#D37575"/>
<stop offset="0.9946" stop-color="#58448B" stop-opacity="0"/>
</radialGradient>
<radialGradient id="paint1_radial" cx="0" cy="0" r="1" gradientUnits="userSpaceOnUse" gradientTransform="translate(832.15 276) rotate(84.2493) scale(152.769 716.271)">
<stop stop-color="#D37575"/>
<stop offset="1" stop-color="#58448B" stop-opacity="0"/>
</radialGradient>
<radialGradient id="paint2_radial" cx="0" cy="0" r="1" gradientUnits="userSpaceOnUse" gradientTransform="translate(1274.01 211.686) scale(136.414 135.029)">
<stop stop-color="#D37575"/>
<stop offset="0.9946" stop-color="#58448B" stop-opacity="0"/>
</radialGradient>
</defs>
</svg>
