<svg width="29" height="42" viewBox="0 0 29 42" fill="none" xmlns="http://www.w3.org/2000/svg">
<path fill-rule="evenodd" clip-rule="evenodd" d="M26.2429 2.75766C23.9 0.414346 20.101 0.414081 17.7577 2.75706L3.7557 16.7571C2.6303 17.8823 1.99805 19.4086 1.99805 21C1.99805 22.5914 2.6303 24.1177 3.7557 25.2429L17.7577 39.2429C20.101 41.5859 23.9 41.5857 26.2429 39.2423C28.5859 36.899 28.5857 33.1 26.2423 30.7571L16.4839 21L26.2423 11.2429C28.5857 8.89995 28.5859 5.10096 26.2429 2.75766Z" fill="white" fill-opacity="0.32" stroke="white" stroke-opacity="0.73" stroke-width="2" stroke-linecap="round" stroke-linejoin="round"/>
<circle r="2" transform="matrix(-1 0 0 1 23.998 7)" fill="white"/>
<circle r="3" transform="matrix(-1 0 0 1 11.998 16)" fill="white"/>
<circle opacity="0.7" r="2" transform="matrix(-1 0 0 1 17.998 33)" fill="white"/>
<circle r="1.5" transform="matrix(-1 0 0 1 8.49805 23.5)" fill="white"/>
</svg>
