<svg width="27" height="40" viewBox="0 0 27 40" fill="none" xmlns="http://www.w3.org/2000/svg">
<path fill-rule="evenodd" clip-rule="evenodd" d="M1.75706 1.75766C4.10005 -0.585654 7.89904 -0.585919 10.2423 1.75706L24.2443 15.7571C25.3697 16.8823 26.002 18.4086 26.002 20C26.002 21.5914 25.3697 23.1177 24.2443 24.2429L10.2423 38.2429C7.89904 40.5859 4.10005 40.5857 1.75706 38.2423C-0.585919 35.899 -0.585654 32.1 1.75766 29.7571L11.5161 20L1.75766 10.2429C-0.585654 7.89995 -0.585919 4.10096 1.75706 1.75766Z" fill="white"/>
<circle cx="4.00195" cy="6" r="2" fill="#FF653D"/>
<circle cx="16.002" cy="15" r="3" fill="#FF653D"/>
<circle opacity="0.7" cx="10.002" cy="32" r="2" fill="#FF653D"/>
<circle cx="19.502" cy="22.5" r="1.5" fill="#FF653D"/>
</svg>
