<svg width="233" height="172" viewBox="0 0 233 172" fill="none" xmlns="http://www.w3.org/2000/svg">
<g clip-path="url(#clip0)">
<path d="M63.7199 60.7406C63.9116 60.883 64.1406 60.9663 64.3789 60.9805Z" fill="#A1EDFF"/>
<path d="M188.392 123.394C205.54 152.22 209.285 179.139 168.462 154.004C134.163 130.27 106.974 97.7622 80.3513 65.9995L80.3053 66.0311C106.357 98.3185 133.818 130.704 168.254 154.329C209.393 179.413 205.967 152.375 188.445 123.345L188.392 123.394Z" fill="#7AB9C4"/>
<path d="M186.878 127.557C204.026 156.382 207.769 183.307 166.946 158.172C132.649 134.432 105.459 101.93 78.8377 70.1616L78.7894 70.1993C104.841 102.487 132.302 134.872 166.738 158.497C207.864 183.618 204.444 156.562 186.924 127.525L186.878 127.557Z" fill="#7AB9C4"/>
<path d="M73.6423 48.5328C73.377 48.92 91.3582 58.8439 88.6764 59.1878L83.8548 58.3105C81.6203 58.0708 91.2007 66.8514 90.961 67.0544C91.7115 69.0552 85.4201 65.5145 85.6015 67.1423C85.135 66.9242 90.4934 85.1215 88.4037 83.269C87.991 83.2639 79.3854 70.7608 78.9001 72.2082C78.5777 72.2775 76.4148 78.7326 75.6808 77.2561L72.0727 68.8111C71.3558 67.6103 68.4374 72.3254 67.7427 71.0636L63.9983 60.4681C63.3458 59.2423 60.5148 64.4385 60.0744 62.744C60.1388 62.339 59.8876 53.9547 61.1717 54.2424L65.2495 56.6319C65.9555 57.0271 65.8224 55.2855 66.565 56.0741L70.5748 62.3711C72.754 63.8069 68.8393 55.0084 70.9325 56.2816L74.4372 60.3215C74.4977 60.4068 74.5897 60.4645 74.6929 60.4819C74.796 60.4994 74.9019 60.4752 74.9872 60.4146C75.0724 60.354 75.1302 60.262 75.1476 60.1588C75.1651 60.0556 75.1409 59.9498 75.0803 59.8645C75.2712 59.6437 69.8256 51.6909 71.6611 52.1724C72.0683 52.1547 74.8405 53.6129 74.5175 52.3551C74.5808 52.0671 72.022 47.9914 73.6572 48.5866" fill="#FF9810"/>
<path d="M61.1393 54.2732L65.211 56.6605C65.917 57.0557 65.7861 55.308 66.5265 56.1027C66.8061 56.0179 71.0055 64.4708 71.251 62.1069L70.2204 56.6041C70.5108 54.1735 75.0175 62.6554 75.0512 59.8481L71.1892 52.7273C70.7719 51.3868 73.6384 52.9277 74.03 52.8768C75.4701 53.0968 73.0027 49.4345 73.066 49.0705C72.543 47.0143 79.8216 52.9115 80.0236 52.7363L85.0939 58.1891C85.1395 58.2402 85.171 58.3024 85.1853 58.3694C85.1997 58.4364 85.1965 58.506 85.1759 58.5713C84.8508 58.5912 83.5756 58.0511 83.4162 58.5459C82.989 58.6945 79.5467 57.103 79.7322 58.2831L83.2097 74.0543C83.3303 76.7796 73.8303 62.8798 73.6804 63.2537C72.9396 62.1755 70.8362 68.2584 70.5138 68.4037C69.7372 70.0629 66.5041 59.9231 66.2001 59.923C65.8121 59.0907 64.5239 60.8263 64.1566 60.9622C63.694 59.1007 62.6276 61.3662 61.8074 61.9868L60.2706 57.6473C60.636 56.3015 59.9721 54.2147 61.1526 54.2366" fill="#FF8212"/>
<path d="M79.6658 58.6592C79.3119 58.6824 83.566 72.8704 81.8805 71.5589L74.8054 62.6536C74.7721 62.6122 74.729 62.5798 74.6799 62.5594C74.6309 62.539 74.5775 62.5312 74.5246 62.5367C74.4718 62.5422 74.4212 62.5608 74.3774 62.5909C74.3336 62.621 74.298 62.6616 74.2739 62.709C74.0043 62.8043 72.2895 67.8953 71.7024 66.7556L68.8144 59.9962C68.7948 59.9508 68.7649 59.9105 68.727 59.8787C68.6891 59.8468 68.6443 59.8243 68.5961 59.8128C68.548 59.8013 68.4978 59.8012 68.4496 59.8125C68.4014 59.8238 68.3565 59.8462 68.3185 59.8779C68.0272 59.9378 65.6131 62.6596 65.3472 61.7957L63.118 55.5042C67.1247 58.2409 64.8556 55.3626 66.4713 56.1442C66.7465 56.0716 70.9626 64.5168 71.1936 62.1545C71.3978 61.8971 69.2215 55.1756 70.8521 56.3151L74.3568 60.3549C76.7141 61.5861 71.0168 53.1477 71.2438 53.0368C71.2971 52.8904 71.1208 52.6534 71.0625 52.5286C71.0708 52.4729 71.091 52.4196 71.1217 52.3725C71.1525 52.3254 71.1931 52.2854 71.2408 52.2555C71.2885 52.2256 71.3421 52.2063 71.3979 52.1991C71.4537 52.1918 71.5104 52.1968 71.5641 52.2136C76.4143 54.0756 73.8022 51.646 72.9887 49.097C72.6132 47.2051 77.8458 51.6803 78.1565 51.5861C76.7518 51.6484 83.8677 58.1637 83.7467 58.3822C83.6647 58.3761 83.5828 58.3956 83.5124 58.4381C83.442 58.4806 83.3866 58.544 83.3538 58.6194C83.3211 58.6948 83.3126 58.7786 83.3295 58.8591C83.3465 58.9395 83.3881 59.0127 83.4486 59.0685C83.1434 59.1854 79.4459 57.6876 79.6492 58.6669" fill="#FCD200"/>
<path d="M72.5144 28.3933L78.7147 32.0322C79.6972 32.0857 82.2351 42.408 82.6525 43.1404C83.1712 44.8288 81.6464 45.9048 80.5845 44.5508L78.4286 41.7412C78.1458 41.1891 75.0424 40.1287 74.5099 39.845C73.2074 39.6267 71.4439 31.1826 70.9272 30.2482C70.5038 28.9055 71.4605 27.7956 72.5077 28.4117" fill="#FB5373"/>
<path d="M42.8899 46.3035L43.2132 53.4838C42.7985 54.3764 50.7646 61.4222 51.2198 62.127C52.4714 63.3773 54.1327 62.4961 53.4209 60.9585L51.9374 57.7442C51.5776 57.2331 52.0874 53.991 52.077 53.3929C52.4907 52.1613 45.8383 46.651 45.2589 45.7559C44.2407 44.7565 42.8349 45.0879 42.8988 46.2791" fill="#FB5373"/>
<path d="M73.519 38.7369C72.6091 34.0036 66.4548 23.7265 76.7115 30.9149C76.4619 34.0365 75.9415 37.1305 75.1562 40.162C74.7836 40.0856 74.4372 39.9143 74.1503 39.6646C73.8635 39.4149 73.646 39.0953 73.519 38.7369" fill="#D33D65"/>
<path d="M51.5463 51.9078C47.7267 48.942 41.4403 38.7619 43.1564 51.19C46.0389 52.3868 49.0199 53.3308 52.0659 54.0112C52.1636 53.6412 52.1643 53.2522 52.0679 52.8818C51.9715 52.5115 51.7814 52.1722 51.5157 51.8967" fill="#D33D65"/>
<path d="M74.4185 42.8667C81.0362 45.9665 74.1357 52.3766 68.983 56.0919C63.3036 58.9383 54.4471 62.0657 54.7535 54.7689C60.37 55.8733 73.2866 48.5016 74.4185 42.8667Z" fill="#FB5373"/>
<path d="M66.2904 51.5312C72.9693 47.5905 74.3955 42.8367 74.4576 42.8179L76.1836 43.9989C74.0227 49.5564 61.4418 56.7462 54.8623 55.3259L54.7888 54.7117C58.8476 54.7349 62.8342 53.6366 66.3087 51.5379" fill="#D33D65"/>
<path d="M36.0541 33.1936L33.2931 11.6571C33.2795 2.77188 38.4868 -0.315384 46.3053 3.79494C54.7151 10.9125 64.939 13.445 71.2192 25.5025C79.7083 39.4075 73.6459 51.2227 58.7019 54.7675C49.0464 58.3435 36.2021 38.7484 36.0458 33.1975" fill="#E9F0F2"/>
<g style="mix-blend-mode:multiply">
<g style="mix-blend-mode:multiply">
<g style="mix-blend-mode:multiply">
<g style="mix-blend-mode:multiply">
<path d="M41.624 34.8204C50.0622 48.6378 71.1288 35.8843 62.8154 22.0088C54.375 8.19751 33.3046 20.9426 41.624 34.8204Z" fill="#E9F0F2"/>
</g>
</g>
</g>
</g>
<path d="M43.2814 33.8198C50.3983 45.477 68.1751 34.7189 61.1603 23.009C54.0372 11.3497 36.2627 22.1017 43.2814 33.8198Z" fill="#06C8FC"/>
<path d="M46.8144 19.4745C48.7524 18.3046 51.0179 17.7959 53.2699 18.0248C55.5219 18.2537 57.6386 19.2079 59.3014 20.7438C51.2384 13.2619 38.0899 24.0805 44.163 33.4988C47.9813 40.265 58.5983 39.6858 61.7356 32.6799C53.1898 48.7743 31.8631 29.9687 46.8022 19.4701" fill="#05B4DD"/>
<path d="M36.8981 2.90711C39.8951 0.653155 46.0127 2.81069 50.9769 7.03624C46.8793 12.5372 40.8051 16.2311 34.0363 17.3385C32.5967 10.8713 33.4669 4.58841 36.9025 2.89491" fill="#FB5373"/>
<g style="mix-blend-mode:multiply">
<g style="mix-blend-mode:multiply">
<g style="mix-blend-mode:multiply">
<g style="mix-blend-mode:multiply">
<path d="M75.8509 47.2293C75.6299 46.8829 75.326 46.597 74.9667 46.3974C74.6074 46.1979 74.2041 46.091 73.7932 46.0864C74.0138 46.4333 74.3176 46.7195 74.677 46.9191C75.0363 47.1187 75.4399 47.2253 75.8509 47.2293" fill="#E9F0F2"/>
</g>
<g style="mix-blend-mode:multiply">
<path d="M72.366 51.2821C72.181 50.9141 71.9076 50.5978 71.5702 50.3617C71.2329 50.1255 70.8421 49.9768 70.4331 49.9289C70.6166 50.298 70.8897 50.6152 71.2273 50.8515C71.565 51.0879 71.9564 51.2359 72.366 51.2821" fill="#E9F0F2"/>
</g>
<g style="mix-blend-mode:multiply">
<path d="M57.9266 58.0717C58.1147 57.7049 58.2077 57.2969 58.1971 56.8849C58.1864 56.4729 58.0725 56.0702 57.8658 55.7137C57.68 56.0811 57.5883 56.4888 57.5989 56.9004C57.6095 57.3119 57.7221 57.7144 57.9266 58.0717Z" fill="#E9F0F2"/>
</g>
<g style="mix-blend-mode:multiply">
<path d="M63.1337 56.8634C63.2824 56.4795 63.3333 56.0647 63.2817 55.6562C63.2301 55.2478 63.0777 54.8586 62.8382 54.5237C62.6877 54.9073 62.6359 55.3225 62.6875 55.7313C62.7391 56.1401 62.8925 56.5294 63.1337 56.8634" fill="#E9F0F2"/>
</g>
<g style="mix-blend-mode:multiply">
<path d="M68.0655 54.5129C68.0383 54.1013 67.9083 53.7031 67.6875 53.3547C67.4666 53.0063 67.1619 52.7188 66.8013 52.5186C66.8286 52.9302 66.9586 53.3284 67.1794 53.6768C67.4003 54.0252 67.7049 54.3127 68.0655 54.5129" fill="#E9F0F2"/>
</g>
</g>
</g>
</g>
<path d="M52.9035 33.7144C52.1219 35.1023 54.3239 36.3046 55.0611 34.8867C55.7983 33.4688 53.6407 32.2965 52.9035 33.7144Z" fill="#A4EBFC"/>
<path d="M57.1905 30.8736C57.1081 31.0269 57.09 31.2067 57.1401 31.3733C57.1903 31.54 57.3045 31.6799 57.4578 31.7622C57.6111 31.8446 57.7908 31.8627 57.9575 31.8125C58.1241 31.7624 58.264 31.6481 58.3464 31.4948C58.4287 31.3415 58.4468 31.1617 58.3967 30.9951C58.3465 30.8284 58.2323 30.6885 58.079 30.6062C57.9257 30.5238 57.746 30.5057 57.5793 30.5559C57.4127 30.606 57.2728 30.7203 57.1905 30.8736" fill="#A4EBFC"/>
<path d="M53.4961 20.8416C52.284 22.4253 51.9205 24.3731 51.7385 26.2971C50.6502 29.2872 48.9622 32.1973 49.1597 35.4896L49.2756 35.5318C51.2409 32.847 51.3874 29.521 52.1212 26.4226C53.0144 24.709 53.7711 22.8767 53.6159 20.8921L53.4961 20.8416Z" fill="#A4EBFC"/>
<path d="M47.0845 27.2779C47.0769 29.337 47.2537 31.3927 47.6128 33.4203C48.4558 30.7624 49.3555 27.987 49.5367 25.1919C48.5736 27.1072 47.8378 29.1286 47.3445 31.2149L48.2243 31.2656C47.97 29.9078 47.5947 28.5754 47.1028 27.2846" fill="#A4EBFC"/>
<g style="mix-blend-mode:multiply">
<g style="mix-blend-mode:multiply">
<g style="mix-blend-mode:multiply">
<g style="mix-blend-mode:multiply">
<path d="M63.7297 50.7852C79.2469 43.7104 69.5267 23.1446 61.547 16.8194C57.2086 14.4249 40.6392 -0.555177 35.7592 3.85372C41.7197 -3.40993 58.263 13.1985 64.0875 16.2375C64.0875 16.2375 68.0413 19.1002 71.2207 25.4957C74.6303 31.8852 77.4149 40.846 72.6555 46.3285C67.6092 52.1626 57.6745 57.9106 50.0959 53.1413C55.1358 54.9756 58.8004 53.5452 63.7297 50.7852" fill="#DADFE0"/>
</g>
</g>
</g>
</g>
<g style="mix-blend-mode:multiply">
<g style="mix-blend-mode:multiply">
<g style="mix-blend-mode:multiply">
<g style="mix-blend-mode:multiply">
<path d="M62.7001 47.0255C62.7496 47.1075 62.8149 47.1789 62.892 47.2357C62.9692 47.2925 63.0568 47.3336 63.1498 47.3565C63.2428 47.3795 63.3395 47.3839 63.4342 47.3695C63.5289 47.3551 63.6199 47.3222 63.7019 47.2726C63.7839 47.223 63.8553 47.1578 63.9121 47.0806C63.969 47.0035 64.01 46.9159 64.033 46.8228C64.0559 46.7298 64.0603 46.6331 64.0459 46.5384C64.0315 46.4437 63.9986 46.3527 63.9491 46.2707C63.849 46.1051 63.6873 45.986 63.4994 45.9396C63.3115 45.8933 63.1129 45.9235 62.9473 46.0236C62.7817 46.1236 62.6626 46.2854 62.6162 46.4733C62.5699 46.6612 62.6 46.8598 62.7001 47.0255" fill="#E9F0F2"/>
</g>
<g style="mix-blend-mode:multiply">
<path d="M70.8609 40.0372C70.9677 40.1883 71.1277 40.2935 71.3088 40.3317C71.4899 40.3699 71.6787 40.3382 71.8375 40.2431C71.9962 40.1479 72.1131 39.9962 72.1648 39.8185C72.2164 39.6407 72.199 39.45 72.116 39.2846C72.0092 39.1334 71.8493 39.0282 71.6682 38.99C71.4871 38.9519 71.2983 38.9835 71.1395 39.0787C70.9808 39.1739 70.8639 39.3255 70.8122 39.5033C70.7605 39.681 70.7779 39.8717 70.8609 40.0372" fill="#E9F0F2"/>
</g>
<g style="mix-blend-mode:multiply">
<path d="M52.7232 51.0092C52.8326 51.1452 52.9874 51.2373 53.1592 51.2687C53.3309 51.3 53.5083 51.2685 53.6587 51.1799C53.8092 51.0912 53.9228 50.9514 53.9787 50.786C54.0346 50.6206 54.0291 50.4405 53.9633 50.2788C53.8632 50.1132 53.7015 49.9941 53.5136 49.9477C53.3257 49.9014 53.1271 49.9316 52.9615 50.0317C52.7959 50.1318 52.6768 50.2935 52.6304 50.4814C52.584 50.6693 52.6142 50.8679 52.7143 51.0336" fill="#E9F0F2"/>
</g>
<g style="mix-blend-mode:multiply">
<path d="M47.9921 49.4462C56.9995 46.588 67.3196 41.3948 72.8125 33.9541C65.565 39.609 57.4617 46.1342 47.968 48.6012C47.8781 48.6313 47.8002 48.6894 47.7459 48.7672C47.6917 48.8449 47.6638 48.938 47.6665 49.0327C47.6692 49.1275 47.7023 49.2188 47.761 49.2933C47.8196 49.3678 47.9007 49.4214 47.9921 49.4462" fill="#E9F0F2"/>
</g>
</g>
</g>
</g>
</g>
<defs>
<clipPath id="clip0">
<path d="M232.336 71.3047L36.4277 -8.92552e-05L0.000223906 100.083L195.908 171.388L232.336 71.3047Z" fill="white"/>
</clipPath>
</defs>
</svg>
