<svg width="289" height="180" viewBox="0 0 289 180" fill="none" xmlns="http://www.w3.org/2000/svg">
<path opacity="0.4" d="M289 100.038C289 79.7964 274.706 62.4041 254.257 54.7307C254.271 54.2814 254.299 53.8203 254.299 53.371C254.299 31.3203 233.295 13.4551 207.401 13.4551C202.914 13.4551 198.594 14.0226 194.482 15.0158C188.786 6.06542 177.673 0 164.879 0C152.001 0 140.819 6.16001 135.165 15.2049C127.358 12.0836 118.648 10.3337 109.438 10.3337C79.7931 10.3337 55.1078 28.4117 49.7596 52.3305C22.0598 53.4301 0 72.9033 0 96.7512C0 121.32 23.4073 141.243 52.2739 141.243C60.6922 141.243 68.6382 139.54 75.6951 136.525C79.1958 147.793 91.2537 156.105 105.59 156.105C107.979 156.105 110.313 155.868 112.549 155.431C118.62 169.761 134.734 180 153.655 180C165.226 180 175.714 176.146 183.535 169.891C189.161 172.409 195.551 173.864 202.344 173.864C220.89 173.864 236.476 163.223 241.241 148.727C268.399 144.553 289 124.359 289 100.038Z" fill="#FEFEFE"/>
</svg>
