<svg width="276" height="154" viewBox="0 0 276 154" fill="none" xmlns="http://www.w3.org/2000/svg">
<path opacity="0.8" d="M215.961 55.6169C210.908 55.6169 206.12 56.76 201.824 58.8056C197.764 46.2714 186.193 37.2167 172.537 37.2167C171.102 37.2167 169.706 37.327 168.32 37.5175C163.699 19.9797 148.008 7.06445 129.359 7.06445C108.399 7.06445 91.1743 23.379 89.2081 44.2358C85.6885 43.0025 81.9133 42.3307 77.9809 42.3307C62.9293 42.3307 50.1193 52.1173 45.3315 65.7947C41.4777 64.1702 37.2601 63.2778 32.8263 63.2778C14.6976 63.2678 0 78.2587 0 96.7491C0 115.24 14.6976 130.23 32.8263 130.23C40.1014 130.23 46.816 127.814 52.2527 123.733C58.2497 134.552 69.6244 141.862 82.6802 141.862C91.0465 141.862 98.7246 138.864 104.731 133.86C108.192 137.871 112.449 141.14 117.256 143.406C122.064 145.673 127.422 146.936 133.065 146.936C133.92 146.936 134.776 146.896 135.621 146.846C136.938 146.755 138.246 146.595 139.524 146.364C139.819 146.314 140.114 146.254 140.399 146.194C142.198 145.833 143.958 145.332 145.659 144.72C146.18 144.529 146.701 144.329 147.222 144.118C153.76 141.421 159.393 136.919 163.512 131.203C168.693 136.157 175.427 139.426 182.889 140.168C183.951 140.278 185.042 140.328 186.134 140.328C186.891 140.328 187.628 140.298 188.375 140.248C189.85 140.147 191.305 139.947 192.73 139.656C196.987 138.774 200.949 137.069 204.449 134.693C208.529 131.925 211.97 128.265 214.506 123.973C214.998 123.993 215.489 124.013 215.981 124.013C234.503 124.013 249.515 108.702 249.515 89.8102C249.495 70.9287 234.483 55.6169 215.961 55.6169Z" fill="white"/>
</svg>
