<svg width="513" height="379" viewBox="0 0 513 379" fill="none" xmlns="http://www.w3.org/2000/svg">
<g clip-path="url(#clip0)">
<path d="M372.044 134.02C371.621 134.334 371.116 134.518 370.59 134.549L372.044 134.02Z" fill="#A1EDFF"/>
<path d="M96.9615 272.261C59.1261 335.863 50.8617 395.258 140.936 339.799C216.615 287.431 276.604 215.705 335.346 145.623L335.448 145.693C277.965 216.933 217.376 288.389 141.396 340.517C50.6245 395.862 58.1837 336.206 96.8452 272.151L96.9615 272.261Z" fill="#7AB9C4"/>
<path d="M100.303 281.444C62.4679 345.045 54.2084 404.454 144.283 348.995C219.957 296.614 279.951 224.902 338.688 154.806L338.794 154.889C281.312 226.129 220.722 297.585 144.742 349.713C54.0006 405.139 61.5451 345.442 100.202 281.374L100.303 281.444Z" fill="#7AB9C4"/>
<path d="M350.15 107.085C350.735 107.939 311.061 129.836 316.978 130.595L327.617 128.659C332.547 128.13 311.408 147.504 311.937 147.952C310.281 152.366 324.163 144.554 323.762 148.146C324.792 147.664 312.969 187.816 317.58 183.728C318.49 183.717 337.478 156.13 338.549 159.323C339.26 159.476 344.032 173.719 345.652 170.461L353.613 151.828C355.195 149.178 361.634 159.582 363.167 156.798L371.428 133.419C372.868 130.715 379.115 142.18 380.086 138.441C379.944 137.548 380.499 119.048 377.665 119.683L368.668 124.955C367.11 125.827 367.404 121.985 365.765 123.725L356.918 137.618C352.11 140.786 360.747 121.373 356.129 124.182L348.396 133.096C348.262 133.284 348.059 133.412 347.832 133.45C347.604 133.489 347.37 133.435 347.182 133.301C346.994 133.168 346.867 132.965 346.828 132.737C346.79 132.51 346.843 132.276 346.977 132.088C346.556 131.601 358.571 114.053 354.521 115.116C353.623 115.077 347.506 118.294 348.219 115.519C348.079 114.883 353.725 105.891 350.117 107.204" fill="#FF9810"/>
<path d="M377.736 119.75L368.752 125.017C367.194 125.889 367.483 122.033 365.849 123.786C365.232 123.599 355.967 142.25 355.425 137.034L357.699 124.893C357.058 119.53 347.114 138.245 347.04 132.05L355.561 116.339C356.482 113.381 350.157 116.781 349.293 116.669C346.116 117.154 351.56 109.073 351.42 108.27C352.574 103.733 336.514 116.745 336.069 116.359L324.882 128.39C324.781 128.503 324.711 128.64 324.68 128.788C324.648 128.935 324.655 129.089 324.701 129.233C325.418 129.277 328.232 128.085 328.583 129.177C329.526 129.505 337.121 125.993 336.712 128.597L329.039 163.395C328.773 169.408 349.734 138.74 350.065 139.565C351.699 137.186 356.34 150.607 357.052 150.928C358.765 154.589 365.899 132.216 366.569 132.216C367.426 130.379 370.268 134.209 371.078 134.508C372.099 130.401 374.452 135.4 376.262 136.769L379.653 127.194C378.846 124.225 380.311 119.621 377.706 119.669" fill="#FF8212"/>
<path d="M336.862 129.427C337.643 129.478 328.257 160.783 331.976 157.889L347.586 138.24C347.66 138.149 347.755 138.077 347.863 138.032C347.972 137.987 348.089 137.97 348.206 137.982C348.323 137.994 348.434 138.035 348.531 138.102C348.627 138.168 348.706 138.258 348.759 138.362C349.354 138.573 353.138 149.806 354.433 147.291L360.805 132.377C360.848 132.277 360.914 132.188 360.998 132.117C361.082 132.047 361.181 131.997 361.287 131.972C361.393 131.947 361.504 131.947 361.61 131.971C361.716 131.996 361.815 132.046 361.899 132.116C362.542 132.248 367.869 138.253 368.455 136.347L373.374 122.465C364.533 128.504 369.54 122.153 365.975 123.878C365.368 123.717 356.065 142.351 355.556 137.139C355.105 136.571 359.907 121.741 356.309 124.255L348.576 133.168C343.375 135.885 355.946 117.266 355.445 117.021C355.327 116.698 355.716 116.175 355.845 115.9C355.827 115.777 355.782 115.66 355.714 115.556C355.646 115.452 355.557 115.364 355.451 115.297C355.346 115.231 355.228 115.189 355.105 115.173C354.982 115.157 354.857 115.168 354.738 115.205C344.037 119.313 349.8 113.953 351.595 108.329C352.423 104.154 340.878 114.028 340.192 113.82C343.292 113.958 327.591 128.333 327.858 128.816C328.039 128.802 328.22 128.845 328.375 128.939C328.53 129.033 328.653 129.173 328.725 129.339C328.797 129.505 328.816 129.69 328.778 129.868C328.741 130.045 328.649 130.207 328.516 130.33C329.189 130.588 337.347 127.283 336.899 129.444" fill="#FCD200"/>
<path d="M352.638 62.6482L338.957 70.6772C336.789 70.7952 331.19 93.5706 330.268 95.1867C329.124 98.912 332.488 101.286 334.831 98.2985L339.588 92.0994C340.212 90.8813 347.06 88.5414 348.235 87.9156C351.108 87.4338 355 68.8026 356.14 66.7408C357.074 63.7782 354.963 61.3292 352.652 62.6886" fill="#FB5373"/>
<path d="M418.005 102.166L417.292 118.009C418.207 119.978 400.63 135.524 399.626 137.079C396.864 139.838 393.199 137.894 394.769 134.501L398.042 127.409C398.836 126.281 397.711 119.128 397.734 117.808C396.821 115.091 411.5 102.932 412.778 100.958C415.025 98.7523 418.126 99.4835 417.985 102.112" fill="#FB5373"/>
<path d="M350.425 85.4711C352.432 75.0274 366.011 52.3516 343.381 68.2125C343.931 75.1001 345.08 81.9268 346.812 88.6156C347.634 88.447 348.399 88.0689 349.032 87.518C349.665 86.9671 350.144 86.262 350.425 85.4711Z" fill="#D33D65"/>
<path d="M398.904 114.531C407.332 107.987 421.202 85.5252 417.416 112.947C411.056 115.588 404.478 117.67 397.758 119.172C397.542 118.355 397.541 117.497 397.753 116.68C397.966 115.863 398.385 115.114 398.971 114.506" fill="#D33D65"/>
<path d="M348.435 94.5813C333.833 101.421 349.058 115.564 360.428 123.762C372.959 130.042 392.5 136.942 391.824 120.843C379.432 123.279 350.932 107.014 348.435 94.5813Z" fill="#FB5373"/>
<path d="M366.371 113.7C351.635 105.006 348.488 94.5167 348.351 94.4751L344.542 97.081C349.31 109.343 377.069 125.207 391.586 122.073L391.749 120.718C382.793 120.769 373.997 118.346 366.331 113.715" fill="#D33D65"/>
<path d="M433.089 73.2395L439.181 25.7205C439.211 6.11589 427.721 -0.695957 410.471 8.37321C391.915 24.0775 369.357 29.6654 355.5 56.2695C336.769 86.95 350.145 113.02 383.118 120.841C404.422 128.731 432.763 85.4957 433.107 73.2481" fill="#E9F0F2"/>
<g style="mix-blend-mode:multiply">
<g style="mix-blend-mode:multiply">
<g style="mix-blend-mode:multiply">
<g style="mix-blend-mode:multiply">
<path d="M420.796 76.8295C402.178 107.317 355.696 79.1769 374.039 48.5614C392.662 18.0878 439.152 46.2091 420.796 76.8295Z" fill="#E9F0F2"/>
</g>
</g>
</g>
</g>
<path d="M417.143 74.622C401.44 100.343 362.216 76.6057 377.694 50.7687C393.411 25.0431 432.629 48.7667 417.143 74.622Z" fill="#06C8FC"/>
<path d="M409.342 42.9698C405.065 40.3886 400.067 39.266 395.098 39.7711C390.129 40.2761 385.459 42.3815 381.79 45.7704C399.58 29.262 428.592 53.1326 415.192 73.9134C406.767 88.8427 383.341 87.5646 376.419 72.1067C395.275 107.618 442.331 66.1246 409.368 42.96" fill="#05B4DD"/>
<path d="M431.226 6.41498C424.613 1.44176 411.115 6.20222 400.162 15.5256C409.203 27.6631 422.605 35.8135 437.54 38.2569C440.716 23.9875 438.796 10.1246 431.216 6.38805" fill="#FB5373"/>
<g style="mix-blend-mode:multiply">
<g style="mix-blend-mode:multiply">
<g style="mix-blend-mode:multiply">
<g style="mix-blend-mode:multiply">
<path d="M345.277 104.209C345.765 103.445 346.436 102.814 347.229 102.373C348.021 101.933 348.911 101.697 349.818 101.687C349.331 102.453 348.661 103.084 347.868 103.524C347.075 103.965 346.184 104.2 345.277 104.209Z" fill="#E9F0F2"/>
</g>
<g style="mix-blend-mode:multiply">
<path d="M352.968 113.151C353.376 112.339 353.98 111.641 354.724 111.12C355.468 110.599 356.33 110.271 357.233 110.165C356.828 110.979 356.226 111.679 355.481 112.201C354.736 112.722 353.872 113.049 352.968 113.151Z" fill="#E9F0F2"/>
</g>
<g style="mix-blend-mode:multiply">
<path d="M384.827 128.132C384.412 127.323 384.207 126.423 384.23 125.514C384.254 124.605 384.505 123.716 384.961 122.93C385.371 123.74 385.573 124.64 385.55 125.548C385.527 126.456 385.278 127.344 384.827 128.132Z" fill="#E9F0F2"/>
</g>
<g style="mix-blend-mode:multiply">
<path d="M373.338 125.468C373.01 124.621 372.897 123.705 373.011 122.804C373.125 121.903 373.461 121.044 373.99 120.305C374.322 121.152 374.436 122.068 374.322 122.97C374.208 123.872 373.87 124.731 373.338 125.468Z" fill="#E9F0F2"/>
</g>
<g style="mix-blend-mode:multiply">
<path d="M362.455 120.28C362.515 119.372 362.802 118.493 363.289 117.725C363.777 116.956 364.449 116.322 365.244 115.88C365.184 116.788 364.898 117.667 364.41 118.435C363.923 119.204 363.251 119.838 362.455 120.28Z" fill="#E9F0F2"/>
</g>
</g>
</g>
</g>
<path d="M395.911 74.3893C397.635 77.4517 392.777 80.1044 391.15 76.9759C389.523 73.8474 394.284 71.2608 395.911 74.3893Z" fill="#A4EBFC"/>
<path d="M386.449 68.1206C386.631 68.4588 386.671 68.8554 386.56 69.2231C386.45 69.5908 386.197 69.8995 385.859 70.0812C385.521 70.2629 385.124 70.3028 384.757 70.1922C384.389 70.0815 384.08 69.8293 383.899 69.491C383.717 69.1528 383.677 68.7562 383.788 68.3885C383.898 68.0208 384.15 67.7122 384.489 67.5304C384.827 67.3487 385.223 67.3088 385.591 67.4195C385.959 67.5301 386.267 67.7823 386.449 68.1206Z" fill="#A4EBFC"/>
<path d="M394.598 45.9876C397.273 49.4819 398.075 53.7796 398.476 58.0248C400.878 64.6223 404.602 71.0432 404.166 78.3074L403.91 78.4005C399.574 72.4768 399.251 65.1381 397.632 58.3017C395.661 54.5208 393.991 50.4779 394.334 46.0991L394.598 45.9876Z" fill="#A4EBFC"/>
<path d="M408.747 60.1878C408.764 64.7312 408.374 69.2669 407.582 73.7406C405.722 67.8762 403.737 61.7523 403.337 55.5852C405.462 59.8112 407.085 64.2713 408.174 68.8745L406.232 68.9864C406.793 65.9904 407.622 63.0507 408.707 60.2025" fill="#A4EBFC"/>
<g style="mix-blend-mode:multiply">
<g style="mix-blend-mode:multiply">
<g style="mix-blend-mode:multiply">
<g style="mix-blend-mode:multiply">
<path d="M372.024 112.055C337.786 96.4449 359.233 51.0679 376.84 37.1119C386.413 31.8285 422.972 -1.22408 433.739 8.50385C420.588 -7.5229 384.086 29.1225 371.235 35.8279C371.235 35.8279 362.511 42.1443 355.496 56.2555C347.973 70.3534 341.829 90.1249 352.33 102.222C363.464 115.094 385.385 127.777 402.106 117.254C390.986 121.301 382.9 118.145 372.024 112.055Z" fill="#DADFE0"/>
</g>
</g>
</g>
</g>
<g style="mix-blend-mode:multiply">
<g style="mix-blend-mode:multiply">
<g style="mix-blend-mode:multiply">
<g style="mix-blend-mode:multiply">
<path d="M374.293 103.758C374.184 103.939 374.04 104.097 373.869 104.222C373.699 104.347 373.506 104.438 373.301 104.488C373.095 104.539 372.882 104.549 372.673 104.517C372.464 104.485 372.263 104.413 372.082 104.303C371.902 104.194 371.744 104.05 371.619 103.88C371.493 103.709 371.403 103.516 371.352 103.311C371.301 103.106 371.292 102.892 371.323 102.683C371.355 102.474 371.428 102.274 371.537 102.093C371.758 101.727 372.115 101.464 372.529 101.362C372.944 101.26 373.382 101.326 373.747 101.547C374.113 101.768 374.376 102.125 374.478 102.54C374.58 102.954 374.514 103.392 374.293 103.758Z" fill="#E9F0F2"/>
</g>
<g style="mix-blend-mode:multiply">
<path d="M356.286 88.3394C356.051 88.6729 355.698 88.9051 355.298 88.9893C354.899 89.0736 354.482 89.0037 354.132 88.7937C353.782 88.5837 353.524 88.2491 353.41 87.8569C353.296 87.4647 353.334 87.044 353.517 86.679C353.753 86.3454 354.106 86.1133 354.505 86.029C354.905 85.9448 355.321 86.0146 355.672 86.2247C356.022 86.4347 356.28 86.7693 356.394 87.1615C356.508 87.5536 356.47 87.9744 356.286 88.3394Z" fill="#E9F0F2"/>
</g>
<g style="mix-blend-mode:multiply">
<path d="M396.307 112.549C396.065 112.85 395.724 113.053 395.345 113.122C394.966 113.191 394.575 113.122 394.243 112.926C393.911 112.731 393.66 112.422 393.537 112.057C393.413 111.692 393.425 111.295 393.571 110.938C393.791 110.573 394.148 110.31 394.563 110.207C394.977 110.105 395.415 110.172 395.781 110.393C396.146 110.614 396.409 110.97 396.511 111.385C396.614 111.8 396.547 112.238 396.326 112.603" fill="#E9F0F2"/>
</g>
<g style="mix-blend-mode:multiply">
<path d="M406.745 109.1C386.871 102.794 364.1 91.3355 351.98 74.918C367.972 87.3952 385.851 101.793 406.798 107.236C406.997 107.302 407.168 107.431 407.288 107.602C407.408 107.773 407.469 107.979 407.463 108.188C407.458 108.397 407.384 108.599 407.255 108.763C407.126 108.927 406.947 109.045 406.745 109.1Z" fill="#E9F0F2"/>
</g>
</g>
</g>
</g>
</g>
<defs>
<clipPath id="clip0">
<path d="M0 157.329L432.259 -0.000155568L512.633 220.828L80.3747 378.157L0 157.329Z" fill="white"/>
</clipPath>
</defs>
</svg>
