<svg width="107" height="275" viewBox="0 0 107 275" fill="none" xmlns="http://www.w3.org/2000/svg">
<g clip-path="url(#clip0)">
<path d="M84.2822 81.6575C83.9697 81.6123 87.3143 68.062 85.9021 69.2407L84.1179 72.0535C83.2056 73.2772 83.2429 64.4459 83.0321 64.4749C82.3802 63.1761 81.2435 67.9527 80.5129 67.1056C80.407 67.446 73.794 56.3805 73.7473 58.2878C73.5627 58.4991 75.833 68.5542 74.8845 68.127C74.7033 68.2605 70.4773 66.3641 70.8728 67.4035L73.4206 73.0965C73.6886 74.0082 69.985 73.2913 70.2999 74.2253L73.8564 80.9811C74.1688 81.8728 70.2674 80.8921 70.9111 81.8892C71.1462 82.0462 75.2143 86.0351 75.663 85.2619L76.3506 82.1282C76.4819 81.594 77.2883 82.462 77.2378 81.7296L75.9541 76.8245C76.2411 75.071 78.8235 81.0866 79.1805 79.4587L78.7827 75.8484C78.7747 75.7825 78.7915 75.716 78.8299 75.6618C78.8683 75.6077 78.9255 75.5697 78.9904 75.5554C79.0552 75.5411 79.1231 75.5514 79.1807 75.5844C79.2383 75.6174 79.2815 75.6706 79.302 75.7337C79.4987 75.7383 80.9591 82.1291 81.561 80.9947C81.7573 80.8012 82.3096 78.7452 82.7897 79.4846C82.961 79.5847 83.8282 82.7488 84.2831 81.6557" fill="#FF9810"/>
<path d="M75.6521 85.2614L76.3396 82.1276C76.4683 81.5897 77.2792 82.4624 77.225 81.7281C77.3945 81.6259 75.1115 75.629 76.4084 76.5956L78.6824 79.6458C80.0297 80.6212 77.8733 74.4633 79.291 75.7378L81.0563 80.9687C81.532 81.7925 82.0882 79.6507 82.2929 79.4792C82.8499 78.6584 83.5366 81.5793 83.7631 81.7236C84.549 82.9298 84.9557 76.5747 85.1521 76.544L84.7466 71.4967C84.7435 71.4502 84.7278 71.4054 84.7013 71.3672C84.6747 71.3289 84.6382 71.2986 84.5957 71.2796C84.4373 71.432 84.1167 72.3203 83.797 72.1682C83.5274 72.3139 82.7322 74.7685 82.2264 74.1292L75.9449 65.1186C74.6403 63.8026 77.1969 74.9512 76.9389 74.8536C77.1354 75.7139 73.1252 73.9668 72.9076 74.0624C71.721 73.6851 75.2897 79.9731 75.1387 80.1248C75.3839 80.7026 73.9137 80.5445 73.6746 80.6652C74.3936 81.7556 72.7677 81.2467 72.079 81.3651L73.5367 84.1357C74.3787 84.5716 75.116 85.8683 75.6501 85.2697" fill="#FF8212"/>
<path d="M82.0117 73.9911C81.8368 74.1548 76.7145 65.4933 76.5938 66.9274L77.7759 74.5681C77.7818 74.6037 77.7786 74.6403 77.7664 74.6744C77.7542 74.7084 77.7336 74.7388 77.7064 74.7626C77.6793 74.7865 77.6465 74.8031 77.6111 74.8107C77.5758 74.8184 77.5391 74.817 77.5045 74.8066C77.3296 74.8965 73.9921 73.4077 74.2925 74.2264L76.3324 78.7861C76.3463 78.8164 76.3528 78.8495 76.3515 78.8828C76.3502 78.9161 76.3411 78.9486 76.3249 78.9777C76.3087 79.0068 76.2859 79.0317 76.2583 79.0504C76.2307 79.0691 76.1992 79.0811 76.1661 79.0854C75.9996 79.202 73.5284 79.1569 73.8334 79.6853L75.9506 83.7001C76.4358 80.4406 76.826 82.8996 77.1802 81.7304C77.3414 81.6263 75.0723 75.6296 76.3622 76.5984C76.5823 76.6187 78.9321 80.802 79.1156 79.4603L78.7265 75.8534C79.2027 74.11 80.7841 80.8439 80.9469 80.7792C81.0432 80.8167 81.0783 81.0177 81.1133 81.1051C81.145 81.1267 81.1809 81.1412 81.2187 81.1476C81.2565 81.1541 81.2952 81.1523 81.3322 81.1425C81.3693 81.1327 81.4038 81.115 81.4334 81.0907C81.463 81.0663 81.487 81.0359 81.5038 81.0015C82.8114 77.7263 82.8162 80.1428 83.7183 81.7259C84.488 82.7866 84.6704 78.1101 84.86 77.9986C84.1787 78.6724 84.2161 72.1147 84.0484 72.075C84.014 72.1195 83.9665 72.1521 83.9126 72.168C83.8586 72.184 83.801 72.1825 83.748 72.1639C83.6949 72.1452 83.6491 72.1102 83.6172 72.064C83.5852 72.0178 83.5686 71.9627 83.5698 71.9065C83.3688 72.0062 82.4114 74.5421 82.0159 73.9898" fill="#FCD200"/>
<path d="M95.5392 91.946L96.6135 87.1766C97.0411 86.6651 93.0763 80.6252 92.9048 80.0812C92.3056 79.0395 91.0562 79.3224 91.2476 80.4562L91.6477 82.8292C91.7929 83.2247 90.8808 85.261 90.7771 85.6575C90.2888 86.3878 93.6673 91.1913 93.8833 91.8827C94.3599 92.7139 95.3501 92.7532 95.5321 91.9482" fill="#FB5373"/>
<path d="M90.8474 86.6732C92.7848 89.3154 95.0359 97.1244 96.2063 88.6964C94.3773 87.2078 92.2749 85.9567 90.8804 85.1942C90.6769 85.6649 90.5318 86.165 90.8474 86.6732Z" fill="#D33D65"/>
<path d="M71.9671 99.1598L68.5377 95.6795C67.9049 95.4701 68.0822 88.2481 67.9419 87.6959C67.8999 86.4938 69.1115 86.0753 69.5469 87.139L70.4573 89.3586C70.5432 89.7712 72.394 91.0194 72.6894 91.3004C73.4919 91.6641 73.1537 97.5247 73.3315 98.2265C73.3651 99.1854 72.5436 99.7401 71.9649 99.1528" fill="#FB5373"/>
<path d="M73.1826 92.2547C72.892 95.5317 75.0502 103.368 69.6555 96.7673C70.4435 94.5455 71.59 92.3836 72.3901 91.0075C72.8091 91.3052 73.1923 91.6556 73.1869 92.2533" fill="#D33D65"/>
<path d="M89.1328 84.6918C90.6409 79.962 84.4751 79.8885 80.1281 81.1133C76.2441 82.2056 70.415 85.3698 74.1896 88.5917C76.2408 85.2607 85.8862 82.2589 89.2169 84.3014" fill="#FB5373"/>
<path d="M81.1372 84.3403C86.1899 82.8397 89.1305 84.5985 89.1662 84.5751C89.3187 84.128 89.431 83.3755 89.3099 82.8403C85.545 81.3468 76.2914 84.3429 73.9511 88.2742L74.2253 88.5956C74.2253 88.5956 76.6088 85.6832 81.1368 84.3389" fill="#D33D65"/>
<path d="M73.1784 104.142C73.7943 105.406 74.4854 106.632 75.2479 107.813C76.1334 109.186 77.0902 110.512 78.1146 111.785C78.688 112.503 79.2844 113.206 79.9234 113.869C80.5396 114.507 81.171 115.13 81.8062 115.75C83.3421 117.251 84.9609 118.667 86.631 120.016C88.0933 121.192 89.9586 122.388 91.7154 121.736C93.5361 121.28 94.3944 119.238 94.9278 117.442C96.9229 110.738 98.1183 103.649 97.0242 96.7431C96.6368 94.2879 95.9504 91.8554 94.7154 89.6942C93.4804 87.533 91.6689 85.6626 89.4074 84.6256C86.5345 83.305 83.1915 83.4617 80.1597 84.4813C77.0814 85.3572 74.2409 87.1174 72.6159 89.8343C71.5472 91.6201 71.0632 93.7715 71.0608 95.8355C71.0675 97.0467 71.2104 98.2532 71.4867 99.4324C71.8706 101.061 72.4381 102.641 73.1784 104.142" fill="#E9F0F2"/>
<path d="M82.8546 116.741C84.0772 117.878 85.2138 119.119 86.5078 120.165C87.9645 121.343 89.958 122.388 91.7147 121.736C93.5355 121.28 94.3938 119.239 94.9272 117.442C95.3872 115.888 95.8082 114.312 96.1654 112.72C91.5777 112.264 86.4135 113.816 82.8546 116.741Z" fill="#FB5373"/>
<g style="mix-blend-mode:multiply">
<g style="mix-blend-mode:multiply">
<g style="mix-blend-mode:multiply">
<path d="M95.8572 102.909C95.5563 108.323 94.9781 120.073 90.2481 121.888C90.7421 121.959 91.2462 121.907 91.7154 121.736C93.5361 121.28 94.3944 119.238 94.9278 117.442C96.9229 110.738 98.1183 103.649 97.0242 96.7431C96.6368 94.2879 95.9504 91.8554 94.7154 89.6942C93.4804 87.533 91.6689 85.6626 89.4074 84.6256C86.5345 83.305 83.1915 83.4617 80.1597 84.4813C77.0814 85.3572 74.2409 87.1174 72.6159 89.8343C72.2656 90.4263 71.9753 91.0517 71.7494 91.7013C74.0122 89.1015 76.9185 87.5373 79.7968 86.5626C90.782 82.8441 96.3701 93.7198 95.8572 102.909" fill="#DADFE0"/>
</g>
</g>
</g>
<g style="mix-blend-mode:multiply">
<g style="mix-blend-mode:multiply">
<g style="mix-blend-mode:multiply">
<g style="mix-blend-mode:multiply">
<path d="M81.7154 88.2128C81.5234 87.5984 82.5114 87.3158 82.6712 87.9403C82.831 88.5648 81.8826 88.8365 81.7154 88.2128Z" fill="#E9F0F2"/>
</g>
<g style="mix-blend-mode:multiply">
<path d="M88.9752 87.3808C88.7897 86.7628 89.7708 86.4823 89.931 87.1082C90.0912 87.7341 89.1434 88.0027 88.9752 87.3808" fill="#E9F0F2"/>
</g>
<g style="mix-blend-mode:multiply">
<path d="M75.1064 91.3387C74.9144 90.7243 75.894 90.4443 76.0622 91.0661C76.2304 91.688 75.2666 91.9646 75.1064 91.3387Z" fill="#E9F0F2"/>
</g>
<g style="mix-blend-mode:multiply">
<path d="M73.7024 94.4144C79.2946 91.2551 86.6633 88.5207 92.9043 89.2236C86.7584 90.2224 79.7364 91.2322 74.1114 94.8181C74.0552 94.8557 73.9878 94.8728 73.9204 94.8664C73.8531 94.86 73.7901 94.8306 73.742 94.7832C73.6939 94.7357 73.6636 94.6731 73.6564 94.6059C73.6492 94.5387 73.6654 94.471 73.7024 94.4144" fill="#E9F0F2"/>
</g>
</g>
</g>
</g>
<g style="mix-blend-mode:multiply">
<g style="mix-blend-mode:multiply">
<g style="mix-blend-mode:multiply">
<g style="mix-blend-mode:multiply">
<path d="M77.0114 105.082C74.038 94.4896 90.1353 89.8988 93.2007 100.461C96.1727 111.055 80.0772 115.646 77.0114 105.082Z" fill="#E9F0F2"/>
</g>
</g>
</g>
</g>
<path d="M78.2768 104.723C75.7702 95.7866 89.3507 91.91 91.9376 100.823C94.4452 109.758 80.8633 113.635 78.2768 104.723Z" fill="#06C8FC"/>
<path d="M87.0559 109.596C88.5366 109.173 89.8399 108.281 90.7695 107.054C91.6992 105.827 92.2049 104.331 92.2105 102.793C92.1983 110.267 80.7267 111.804 78.8474 104.432C77.2477 99.4015 82.4526 94.383 87.3968 96.0534C75.4271 92.8668 74.9074 112.18 87.0559 109.596" fill="#05B4DD"/>
<path d="M82.7862 99.9854C81.7314 99.7297 82.1557 98.0809 83.2029 98.3666C84.2586 98.6205 83.833 100.27 82.7862 99.9854Z" fill="#A4EBFC"/>
<path d="M86.1874 99.1617C85.6334 99.0275 85.8566 98.162 86.4065 98.3128C86.9564 98.4636 86.7373 99.3125 86.1874 99.1617Z" fill="#A4EBFC"/>
<path d="M89.4694 105.638C88.1207 105.509 86.981 104.79 85.9399 103.992C83.9497 103.139 81.7371 102.652 80.1703 101.023L80.2079 100.947C82.4554 101.211 84.179 102.677 86.063 103.746C87.3272 104.092 88.5899 104.565 89.507 105.561L89.4694 105.638Z" fill="#A4EBFC"/>
<path d="M83.2949 105.854C82.2556 104.988 81.3349 103.813 80.4715 102.773C82.1892 103.58 83.9844 104.414 85.4609 105.621C84.0489 105.24 82.7288 104.608 81.4499 103.916L81.8333 103.455C82.3901 104.21 82.8792 105.013 83.2949 105.854" fill="#A4EBFC"/>
</g>
<path d="M0.5 1C27.5 5.5 56.48 26.5 68.5 48M13.5 274.5C57 274 85.3494 255.582 89.5 222C95 177.5 62.1222 175.751 49 179.5C38.5 182.5 32.5 192 45.5 196C64.2955 201.783 92.1126 192 92.1126 133" stroke="white" stroke-dasharray="4 4"/>
<defs>
<clipPath id="clip0">
<rect width="29.5156" height="66.0892" fill="white" transform="translate(106.111 117.238) rotate(162.647)"/>
</clipPath>
</defs>
</svg>
