<svg width="241" height="88" viewBox="0 0 241 88" fill="none" xmlns="http://www.w3.org/2000/svg">
<path fill-rule="evenodd" clip-rule="evenodd" d="M21 66.5477C20.4695 67.1027 19.9004 67.6992 19.3004 68.3289L18.6918 66.7827C19.2922 66.1526 19.8617 65.5556 20.3928 65L21 66.5477ZM15.9021 71.9019C14.8049 73.057 13.662 74.2612 12.5041 75.4815L11.8937 73.9372C13.0517 72.7168 14.1948 71.5124 15.2922 70.357L15.9021 71.9019ZM9.10631 79.0628C7.94833 80.2832 6.80524 81.4876 5.70778 82.643L5.09788 81.0981C6.1951 79.943 7.33801 78.7388 8.49593 77.5185L9.10631 79.0628ZM2.30818 86.2173C1.7078 86.8474 1.13831 87.4444 0.607213 88L0 86.4523C0.530542 85.8973 1.09956 85.3008 1.69959 84.6711L2.30818 86.2173Z" fill="white"/>
<path fill-rule="evenodd" clip-rule="evenodd" d="M185.724 1.5963C183.303 1.60079 180.881 1.68248 178.474 1.83465L178.291 0.244113C180.755 0.0883687 183.236 0.00460716 185.719 0L185.724 1.5963ZM200.139 2.54864C197.771 2.21762 195.376 1.97716 192.967 1.82064L193.155 0.230432C195.631 0.391322 198.097 0.638737 200.538 0.979985L200.139 2.54864ZM171.266 2.5005C170.067 2.64592 168.875 2.80767 167.691 2.98486C166.198 3.20909 164.715 3.45754 163.251 3.73804L162.712 2.19256C164.219 1.90381 165.74 1.64915 167.264 1.42026L167.265 1.42017C168.474 1.23911 169.692 1.07379 170.918 0.925133L171.266 2.5005ZM210.581 4.67603C209.451 4.36664 208.31 4.08242 207.159 3.82255L207.786 2.29545C208.976 2.56417 210.157 2.85828 211.327 3.17868C213.006 3.63867 214.657 4.15763 216.267 4.73135L215.335 6.17014C213.785 5.61802 212.197 5.11861 210.581 4.67603ZM154.701 5.90331C153.323 6.3606 151.994 6.86821 150.727 7.43438C149.343 8.05421 148.051 8.73705 146.846 9.47495L145.475 8.24438C146.76 7.45714 148.138 6.72872 149.614 6.06779L149.615 6.06724C150.965 5.46426 152.372 4.92721 153.822 4.44632L154.701 5.90331ZM231.678 15.3093C229.501 13.4176 226.962 11.6757 224.158 10.1223L225.447 8.84351C228.369 10.4623 231.027 12.2843 233.316 14.273L231.678 15.3093ZM140.458 14.6939C138.661 16.6446 137.21 18.7686 136.077 20.9943L135.378 20.7987L135.129 22.1192C133.106 21.9092 131.059 21.8473 129.055 21.937C127.06 22.0264 125.101 22.2507 123.194 22.5912L122.69 21.0392C124.714 20.6779 126.798 20.4389 128.926 20.3436C130.626 20.2675 132.352 20.2932 134.069 20.4183C135.255 18.0905 136.78 15.8558 138.68 13.7937L140.458 14.6939ZM238.918 25.208C238.486 23.9995 237.91 22.816 237.204 21.6632L239.164 21.0028C239.918 22.2328 240.536 23.5002 241 24.7991L238.918 25.208ZM150.977 28.0383C149.703 26.9319 148.174 25.9647 146.461 25.1445L147.63 23.8037C149.499 24.6988 151.191 25.7655 152.615 27.0015C153.953 28.1627 154.992 29.465 155.715 30.8324L153.71 31.4149C153.073 30.2102 152.157 29.0619 150.977 28.0383ZM112.239 25.9797C110.517 26.7527 108.885 27.6101 107.357 28.5294L106 27.2902C107.601 26.3263 109.314 25.4264 111.124 24.6142L112.239 25.9797ZM133.607 27.8821C133.343 29.0626 133.151 30.2491 133.028 31.4324L133.028 31.4337C132.949 32.1787 132.898 32.9272 132.896 33.6728L130.743 33.6702C130.745 32.8732 130.8 32.0825 130.881 31.3092C131.009 30.081 131.208 28.8482 131.483 27.6205L133.607 27.8821ZM130.881 31.3092C130.881 31.3091 130.881 31.309 130.881 31.3088L131.955 31.3713L130.881 31.3101C130.881 31.3098 130.881 31.3095 130.881 31.3092ZM133.64 37.9968C133.911 38.6751 134.269 39.3345 134.734 39.9694C135.208 40.618 135.833 41.2441 136.574 41.8124L135.027 42.9223C134.158 42.2565 133.414 41.5142 132.841 40.7304C132.299 39.9898 131.886 39.2264 131.575 38.451L133.64 37.9968ZM150.995 42.2613C152.309 41.3444 153.268 40.2602 153.892 39.0812L155.897 39.6642C155.161 41.0544 154.026 42.339 152.47 43.4239L152.469 43.4249C151.973 43.7698 151.433 44.0951 150.856 44.3908L149.632 43.0776C150.117 42.8288 150.574 42.5539 150.995 42.2613ZM141.828 44.1655C142.81 44.3616 143.82 44.4427 144.83 44.3859L144.834 44.3857C145.408 44.3551 145.969 44.2818 146.513 44.1717L147.08 45.7117C146.408 45.8476 145.71 45.9394 144.991 45.9778C143.717 46.0492 142.463 45.9456 141.268 45.7068L141.828 44.1655ZM144.991 45.9778C144.99 45.9778 144.989 45.9779 144.989 45.9779L144.911 45.1818L144.993 45.9777C144.992 45.9777 144.991 45.9778 144.991 45.9778Z" fill="white"/>
<g clip-path="url(#clip0)">
<path d="M52.1467 45.111C52.1631 45.5401 33.2134 44.4062 35.1382 46.0048L39.3404 47.698C41.2022 48.6167 29.38 50.7437 29.4707 51.0185C27.8941 52.2106 34.5636 52.5538 33.6106 53.7398C34.0919 53.7975 20.9205 65.3708 23.4832 64.9632C23.8114 65.158 36.7018 59.6428 36.3642 61.0167C36.5874 61.2263 35.0924 67.3465 36.3852 66.5613L43.3723 61.75C44.5258 61.1668 44.4798 66.2976 45.6515 65.6462L53.8117 59.2236C54.9274 58.5859 54.5772 64.0463 55.7523 62.9395C55.9043 62.5863 60.2373 56.1615 59.0925 55.7518L54.7312 55.6046C53.9843 55.5605 54.9466 54.268 53.9794 54.5161L47.7346 57.4423C45.3183 57.4906 52.7284 52.5534 50.4629 52.4771L45.7317 53.8992C45.6455 53.9261 45.5524 53.92 45.4705 53.882C45.3886 53.844 45.3237 53.7769 45.2886 53.6936C45.2535 53.6104 45.2506 53.5171 45.2805 53.4319C45.3104 53.3467 45.3709 53.2757 45.4503 53.2328C45.408 52.9686 53.5965 49.4398 51.9307 48.9143C51.6235 48.6994 48.7372 48.4675 49.6079 47.6429C49.6997 47.3893 53.7182 45.4493 52.144 45.1102" fill="#FF9810"/>
<path d="M59.0964 55.7687L54.7351 55.6215C53.9838 55.582 54.9513 54.2823 53.9824 54.5357C53.804 54.3342 46.345 58.8662 47.3183 56.8931L50.8378 53.0996C51.8105 51.0569 44.1051 55.4593 45.4605 53.2488L52.0223 49.5981C53.007 48.7587 50.005 48.5426 49.7251 48.311C48.4899 47.7684 52.2277 46.1298 52.3649 45.7913C53.7846 44.4427 45.1836 45.4652 45.0942 45.2099L38.4426 46.9966C38.3812 47.0121 38.3252 47.0441 38.2806 47.0891C38.236 47.1341 38.2044 47.1904 38.1894 47.2519C38.4323 47.4262 39.6995 47.6361 39.5749 48.1012C39.8363 48.426 43.3156 48.8846 42.5852 49.7187L32.0806 60.3421C30.6418 62.4115 44.9244 56.2437 44.8575 56.6129C45.9598 56.1379 44.6112 61.9328 44.7929 62.2004C44.5806 63.8806 52.112 57.5571 52.3521 57.7216C53.0646 57.2513 53.2154 59.2568 53.4359 59.5468C54.7172 58.3163 54.4372 60.6166 54.7654 61.5087L58.1121 58.8758C58.4877 57.6421 60.0404 56.3363 59.108 55.7694" fill="#FF8212"/>
<path d="M42.4509 50.0398C42.713 50.2333 32.3896 59.22 34.3378 59.028L44.2668 55.5634C44.313 55.5467 44.3627 55.5421 44.4113 55.55C44.4598 55.5578 44.5055 55.578 44.5441 55.6084C44.5827 55.6389 44.613 55.6787 44.632 55.724C44.651 55.7694 44.6581 55.8189 44.6527 55.8677C44.8161 56.0795 43.6473 60.9108 44.6683 60.3072L50.2647 56.4546C50.3018 56.4286 50.3445 56.4117 50.3893 56.4053C50.4342 56.3988 50.4799 56.403 50.5228 56.4175C50.5658 56.4319 50.6047 56.4563 50.6366 56.4886C50.6684 56.5208 50.6922 56.5601 50.7061 56.6033C50.903 56.7973 51.4519 60.114 52.0835 59.5757L56.9319 55.7541C52.4523 55.9085 55.6454 54.7805 53.9941 54.5948C53.8151 54.4049 46.353 58.9182 47.331 56.954C47.3039 56.6546 52.3205 52.4803 50.4806 52.5656L45.7517 53.9751C43.3023 53.7679 51.92 49.9926 51.7933 49.7908C51.8198 49.6528 52.08 49.5562 52.1883 49.4879C52.2093 49.4402 52.2198 49.3886 52.2191 49.3365C52.2185 49.2844 52.2066 49.233 52.1843 49.1859C52.162 49.1388 52.1299 49.097 52.0901 49.0634C52.0502 49.0298 52.0036 49.0051 51.9535 48.9911C47.2501 48.0494 50.4814 47.4473 52.3766 45.8503C53.6057 44.5593 47.3053 45.4681 47.1094 45.2419C48.1786 45.9871 39.3976 47.5536 39.3858 47.7877C39.4538 47.8227 39.5091 47.8782 39.5437 47.9464C39.5784 48.0147 39.5906 48.0921 39.5787 48.1676C39.5668 48.2432 39.5314 48.313 39.4775 48.3672C39.4235 48.4214 39.3539 48.4572 39.2784 48.4694C39.4613 48.7137 43.0895 49.3692 42.4481 50.0345" fill="#FCD200"/>
<path d="M63.1349 27.519L56.4904 27.2574C55.7008 26.8116 48.599 33.6037 47.9136 33.9673C46.6678 35.0256 47.3541 36.627 48.8236 36.0916L51.8991 34.9714C52.3924 34.6798 55.3411 35.3979 55.897 35.4388C56.9942 35.912 62.5868 30.2088 63.4584 29.7494C64.4528 28.9071 64.2613 27.5728 63.1396 27.5278" fill="#FB5373"/>
<path d="M57.2391 35.0934C60.296 31.8506 70.1867 26.9146 58.6245 27.4265C57.0842 30.24 55.9289 33.3605 55.2527 35.4139C55.9325 35.57 56.6372 35.6409 57.2391 35.0934Z" fill="#D33D65"/>
<path d="M78.5943 57.2703L74.7842 62.7153C74.6602 63.6134 64.956 65.1565 64.2519 65.4802C62.6544 65.8327 61.7959 64.3152 63.1114 63.4706L65.8561 61.7057C66.3867 61.4891 67.6002 58.7058 67.9033 58.2414C68.192 57.0782 76.1146 56.0861 77.0096 55.6753C78.2839 55.394 79.2284 56.3561 78.5855 57.2749" fill="#FB5373"/>
<path d="M69.0591 57.346C73.5142 56.927 83.4646 52.1086 75.9649 60.9517C72.7986 60.4454 69.6242 59.4446 67.5863 58.7136C67.8812 58.0797 68.2554 57.4808 69.0563 57.3407" fill="#D33D65"/>
<path d="M55.0095 37.8753C48.3111 37.0239 49.7326 45.2895 52.4423 50.8023C54.8609 55.7285 60.5302 62.7457 63.9095 56.9026C58.9483 54.9798 52.5555 42.8177 54.4666 37.8591" fill="#FB5373"/>
<path d="M56.5098 48.6567C53.2572 42.2679 54.885 37.9009 54.8448 37.8589C54.2092 37.7652 53.1749 37.8004 52.4889 38.0943C51.4191 43.4985 57.7077 55.1379 63.5432 57.2993L63.9056 56.8533C63.9056 56.8533 59.4223 54.383 56.508 48.6576" fill="#D33D65"/>
<path d="M84.9608 54.4218C86.4992 53.2865 87.9683 52.06 89.3601 50.7489C90.9788 49.226 92.5167 47.6192 93.9674 45.9352C94.7864 44.9912 95.5799 44.0201 96.3082 43.0021C97.0104 42.0204 97.6882 41.0223 98.3615 40.0198C99.9897 37.5955 101.485 35.0811 102.878 32.5145C104.091 30.2686 105.231 27.4787 103.926 25.2895C102.866 22.9665 99.9242 22.3216 97.3895 22.051C87.9303 21.0346 78.1538 21.1829 69.1855 24.3487C65.9968 25.4722 62.9122 26.9898 60.3257 29.1745C57.7393 31.3593 55.6838 34.2434 54.8541 37.524C53.7958 41.6924 54.8294 46.1255 56.9406 49.9297C58.871 53.8314 61.9256 57.197 65.9604 58.701C68.6125 59.6904 71.6097 59.8075 74.3711 59.302C75.9896 58.9944 77.5683 58.5059 79.0775 57.8456C81.1618 56.9307 83.1355 55.782 84.9608 54.4218" fill="#E9F0F2"/>
<path d="M99.4272 38.3729C100.647 36.4571 102.027 34.6309 103.107 32.6422C104.323 30.4033 105.23 27.4791 103.925 25.2899C102.866 22.967 99.9239 22.322 97.3891 22.0514C95.197 21.8191 92.9856 21.6444 90.7673 21.5591C91.2882 27.8082 94.6375 34.3333 99.4272 38.3729Z" fill="#FB5373"/>
<g style="mix-blend-mode:multiply">
<g style="mix-blend-mode:multiply">
<g style="mix-blend-mode:multiply">
<path d="M77.7205 24.39C85.0367 23.458 100.897 21.335 104.49 27.2149C104.463 26.5365 104.27 25.875 103.926 25.2895C102.866 22.9665 99.9242 22.3216 97.3895 22.051C87.9303 21.0346 78.1538 21.1829 69.1855 24.3487C65.9968 25.4722 62.9122 26.9898 60.3257 29.1745C57.7393 31.3593 55.6838 34.2434 54.8541 37.524C53.7958 41.6924 54.8294 46.1255 56.9406 49.9297C58.871 53.8314 61.9256 57.197 65.9604 58.701C66.8386 59.0237 67.7468 59.2579 68.6714 59.3999C64.636 57.0139 61.8274 53.5119 59.8141 49.9021C52.1324 36.1245 65.3027 25.9689 77.7205 24.39" fill="#DADFE0"/>
</g>
</g>
</g>
<g style="mix-blend-mode:multiply">
<g style="mix-blend-mode:multiply">
<g style="mix-blend-mode:multiply">
<g style="mix-blend-mode:multiply">
<path d="M61.5476 46.93C60.773 47.3383 60.1515 46.0863 60.9474 45.7187C61.7434 45.351 62.3407 46.5526 61.5476 46.93Z" fill="#E9F0F2"/>
</g>
<g style="mix-blend-mode:multiply">
<path d="M58.6452 37.4251C57.8643 37.8255 57.2473 36.5824 58.045 36.2138C58.8428 35.8452 59.4356 37.0469 58.6452 37.4251" fill="#E9F0F2"/>
</g>
<g style="mix-blend-mode:multiply">
<path d="M67.3599 54.9979C66.5853 55.4062 65.9693 54.1649 66.7597 53.7866C67.5501 53.4084 68.1576 54.6293 67.3599 54.9979Z" fill="#E9F0F2"/>
</g>
<g style="mix-blend-mode:multiply">
<path d="M71.819 56.1195C66.2145 49.4179 60.7407 40.2352 60.1426 31.7139C62.9935 39.6886 66.0751 48.8325 72.2582 55.4728C72.3223 55.5387 72.3618 55.6248 72.3699 55.7164C72.3779 55.808 72.3541 55.8996 72.3025 55.9757C72.2508 56.0517 72.1745 56.1076 72.0864 56.1338C71.9983 56.16 71.9038 56.155 71.819 56.1195" fill="#E9F0F2"/>
</g>
</g>
</g>
</g>
<g style="mix-blend-mode:multiply">
<g style="mix-blend-mode:multiply">
<g style="mix-blend-mode:multiply">
<g style="mix-blend-mode:multiply">
<path d="M85.2741 49.0631C71.8377 55.6514 61.729 35.2506 75.1022 28.5467C88.5395 21.9602 98.6491 42.3582 85.2741 49.0631Z" fill="#E9F0F2"/>
</g>
</g>
</g>
</g>
<path d="M84.4812 47.4606C73.1451 53.0162 64.6122 35.806 75.897 30.1488C87.2304 24.5922 95.7642 41.8042 84.4812 47.4606Z" fill="#06C8FC"/>
<path d="M88.8365 34.5162C87.9058 32.6399 86.3911 31.1164 84.5206 30.1753C82.6501 29.2342 80.5251 28.9263 78.4656 29.2981C88.4669 27.472 93.3504 42.438 83.9525 46.769C77.6176 50.1488 69.6216 44.4235 70.6373 37.3983C69.3253 54.1949 95.2876 50.1294 88.8365 34.5162" fill="#05B4DD"/>
<path d="M77.031 42.596C76.949 44.07 74.6388 43.9089 74.7629 42.4377C74.8423 40.9629 77.1533 41.1257 77.031 42.596Z" fill="#A4EBFC"/>
<path d="M75.0915 38.2496C75.0486 39.0237 73.8358 38.9385 73.902 38.1658C73.9681 37.393 75.1576 37.4769 75.0915 38.2496Z" fill="#A4EBFC"/>
<path d="M82.9454 32.262C83.1059 34.0978 82.4247 35.7995 81.6144 37.3887C80.9641 40.2611 80.8582 43.3407 79.0655 45.8382L78.9542 45.8066C78.7534 42.7352 80.2898 40.0682 81.2552 37.2847C81.4056 35.5085 81.7276 33.7028 82.8341 32.2305L82.9454 32.262Z" fill="#A4EBFC"/>
<path d="M84.7556 40.4669C83.8536 42.0706 82.5091 43.5917 81.3299 45.003C81.9866 42.5064 82.6596 39.8996 83.9102 37.627C83.7491 39.6096 83.2288 41.5311 82.6176 43.4126L81.9066 43.0134C82.7796 42.0824 83.7329 41.2303 84.7556 40.4669" fill="#A4EBFC"/>
</g>
<defs>
<clipPath id="clip0">
<rect width="40.1457" height="89.8914" fill="white" transform="translate(94.3594 7.1416) rotate(62.2057)"/>
</clipPath>
</defs>
</svg>
