<svg width="1440" height="2785" viewBox="0 0 1440 2785" fill="none" xmlns="http://www.w3.org/2000/svg">
<g style="mix-blend-mode:overlay">
<g clip-path="url(#clip0)">
<path d="M1287.46 223.605C1287.69 221.79 1289.23 220.511 1290.9 220.771C1292.56 221.012 1293.73 222.697 1293.5 224.513C1293.28 226.328 1291.73 227.607 1290.06 227.347C1288.4 227.107 1287.24 225.421 1287.46 223.605Z" fill="white"/>
<path d="M1082.93 349.229C1083.15 347.414 1084.7 346.135 1086.36 346.395C1088.03 346.636 1089.2 348.321 1088.96 350.137C1088.74 351.953 1087.19 353.231 1085.53 352.971C1083.88 352.731 1082.71 351.063 1082.93 349.229Z" fill="white"/>
<path d="M1007.91 275.609C1008.13 273.794 1009.68 272.515 1011.34 272.775C1013.01 273.015 1014.16 274.701 1013.94 276.517C1013.72 278.332 1012.17 279.611 1010.51 279.351C1008.84 279.092 1007.69 277.425 1007.91 275.609Z" fill="white"/>
<path d="M1076.8 149.354C1077.02 147.631 1078.48 146.427 1080.06 146.649C1081.64 146.89 1082.74 148.484 1082.52 150.206C1082.3 151.929 1080.84 153.133 1079.26 152.911C1077.68 152.689 1076.58 151.096 1076.8 149.354Z" fill="white"/>
<path d="M974.162 381.689C974.382 379.966 975.844 378.762 977.424 378.984C979.004 379.225 980.109 380.818 979.888 382.541C979.667 384.264 978.206 385.468 976.625 385.246C975.062 385.005 973.941 383.412 974.162 381.689Z" fill="white"/>
<path d="M1319.53 395.896C1319.67 394.858 1320.53 394.136 1321.48 394.284C1322.44 394.432 1323.1 395.377 1322.96 396.414C1322.83 397.452 1321.96 398.174 1321.01 398.026C1320.07 397.878 1319.41 396.933 1319.53 395.896Z" fill="white"/>
<path d="M1068.98 442.858C1069.11 441.82 1069.98 441.098 1070.93 441.246C1071.88 441.394 1072.55 442.339 1072.41 443.376C1072.27 444.414 1071.41 445.136 1070.46 444.988C1069.5 444.858 1068.84 443.895 1068.98 442.858Z" fill="white"/>
<path d="M1249.96 309.901C1250.1 308.863 1250.96 308.141 1251.92 308.289C1252.87 308.437 1253.53 309.382 1253.39 310.419C1253.26 311.457 1252.39 312.179 1251.44 312.05C1250.51 311.901 1249.84 310.938 1249.96 309.901Z" fill="white"/>
<path d="M1152.97 303.028C1153.11 301.99 1153.97 301.268 1154.92 301.416C1155.88 301.564 1156.54 302.509 1156.4 303.546C1156.27 304.584 1155.4 305.306 1154.45 305.158C1153.51 305.01 1152.85 304.065 1152.97 303.028Z" fill="white"/>
<path d="M1024.49 310.472C1024.63 309.434 1025.5 308.712 1026.45 308.86C1027.4 309.008 1028.06 309.953 1027.93 310.991C1027.79 312.028 1026.92 312.75 1025.97 312.621C1025.02 312.473 1024.36 311.509 1024.49 310.472Z" fill="white"/>
<path d="M1069.18 288.576C1069.32 287.539 1070.19 286.816 1071.14 286.965C1072.09 287.113 1072.75 288.058 1072.63 289.095C1072.5 290.133 1071.63 290.855 1070.68 290.707C1069.71 290.577 1069.05 289.614 1069.18 288.576Z" fill="white"/>
<path d="M1428.04 443.232C1428.37 440.657 1430.56 438.841 1432.92 439.193C1435.28 439.545 1436.95 441.935 1436.62 444.51C1436.3 447.085 1434.11 448.901 1431.75 448.549C1429.37 448.197 1427.72 445.807 1428.04 443.232Z" fill="white"/>
<path d="M1238.77 470.629C1237.88 469.202 1238.22 467.257 1239.53 466.294C1240.84 465.33 1242.62 465.701 1243.51 467.127C1244.39 468.554 1244.05 470.499 1242.74 471.462C1241.43 472.426 1239.67 472.055 1238.77 470.629Z" fill="white"/>
<path d="M1437.88 278.756C1436.84 277.089 1437.24 274.81 1438.76 273.68C1440.29 272.55 1442.38 272.976 1443.42 274.644C1444.46 276.311 1444.07 278.59 1442.54 279.72C1441.01 280.868 1438.92 280.424 1437.88 278.756Z" fill="white"/>
<path d="M1244.66 226.369C1243.63 224.701 1244.02 222.423 1245.55 221.293C1247.08 220.163 1249.17 220.589 1250.2 222.256C1251.24 223.923 1250.85 226.202 1249.32 227.332C1247.79 228.481 1245.7 228.036 1244.66 226.369Z" fill="white"/>
<path d="M1425.17 395.083C1423.63 392.582 1424.2 389.191 1426.5 387.487C1428.79 385.801 1431.9 386.45 1433.46 388.932C1435.01 391.433 1434.42 394.823 1432.12 396.528C1429.83 398.232 1426.72 397.584 1425.17 395.083Z" fill="white"/>
<path d="M1253.89 306.659C1252.34 304.158 1252.94 300.768 1255.23 299.082C1257.52 297.378 1260.63 298.026 1262.18 300.527C1263.74 303.028 1263.13 306.418 1260.86 308.123C1258.56 309.809 1255.45 309.16 1253.89 306.659Z" fill="white"/>
<path d="M9.37237 230.425C9.21944 232.648 7.45231 234.297 5.43021 234.149C3.39112 233.982 1.87878 232.056 2.01471 229.851C2.16765 227.646 3.93487 225.979 5.95697 226.127C7.99607 226.276 9.50831 228.221 9.37237 230.425Z" fill="white"/>
<path d="M595.08 279.108C594.995 280.942 593.568 282.35 591.885 282.258C590.203 282.165 588.912 280.59 588.997 278.775C589.082 276.941 590.526 275.533 592.191 275.625C593.874 275.718 595.165 277.274 595.08 279.108Z" fill="white"/>
<path d="M869.642 201.692C869.558 203.526 868.13 204.934 866.448 204.842C864.766 204.749 863.474 203.174 863.559 201.359C863.644 199.525 865.072 198.117 866.754 198.209C868.453 198.302 869.727 199.877 869.642 201.692Z" fill="white"/>
<path d="M167.673 157.894C167.605 159.377 166.432 160.525 165.073 160.451C163.713 160.377 162.66 159.099 162.728 157.617C162.796 156.135 163.968 154.986 165.328 155.06C166.687 155.134 167.741 156.412 167.673 157.894Z" fill="white"/>
<path d="M810.728 333.798C810.643 335.54 809.284 336.873 807.687 336.781C806.089 336.688 804.866 335.206 804.951 333.465C805.036 331.723 806.395 330.389 807.992 330.482C809.59 330.575 810.813 332.057 810.728 333.798Z" fill="white"/>
<path d="M795.914 40.6275C795.863 41.665 795.047 42.4801 794.095 42.4245C793.144 42.3689 792.396 41.4797 792.447 40.4423C792.498 39.4048 793.314 38.5897 794.265 38.6453C795.217 38.6823 795.965 39.5715 795.914 40.6275Z" fill="white"/>
<path d="M625.802 189.685C625.751 190.723 624.936 191.538 623.984 191.482C623.033 191.427 622.285 190.537 622.336 189.481C622.387 188.444 623.202 187.629 624.154 187.684C625.106 187.758 625.853 188.648 625.802 189.685Z" fill="white"/>
<path d="M722.982 187.666C722.931 188.703 722.115 189.518 721.147 189.463C720.195 189.407 719.465 188.518 719.516 187.48C719.567 186.443 720.382 185.628 721.334 185.683C722.285 185.72 723.033 186.628 722.982 187.666Z" fill="white"/>
<path d="M807.585 194.373C807.534 195.41 806.719 196.225 805.767 196.17C804.816 196.114 804.068 195.225 804.119 194.169C804.17 193.131 804.986 192.316 805.937 192.372C806.906 192.446 807.636 193.335 807.585 194.373Z" fill="white"/>
<path d="M289.507 183.739C289.439 185.221 288.266 186.37 286.907 186.296C285.548 186.222 284.494 184.943 284.562 183.461C284.63 181.979 285.803 180.831 287.162 180.905C288.538 180.979 289.592 182.257 289.507 183.739Z" fill="white"/>
<path d="M507.401 56.4689C507.282 59.0811 505.243 61.0633 502.847 60.9336C500.468 60.804 498.633 58.5809 498.752 55.9687C498.871 53.3751 500.91 51.3743 503.306 51.504C505.702 51.6337 507.537 53.8568 507.401 56.4689Z" fill="white"/>
<path d="M1079.07 319.054C1078.5 320.517 1076.95 321.184 1075.62 320.554C1074.28 319.924 1073.67 318.238 1074.25 316.793C1074.83 315.33 1076.37 314.663 1077.71 315.293C1079.04 315.923 1079.65 317.609 1079.07 319.054Z" fill="white"/>
<path d="M1275.89 266.05C1275.32 267.495 1273.77 268.18 1272.44 267.55C1271.1 266.92 1270.49 265.235 1271.07 263.79C1271.65 262.326 1273.19 261.659 1274.52 262.289C1275.84 262.919 1276.47 264.605 1275.89 266.05Z" fill="white"/>
<path d="M1322.71 346.231C1322.13 347.676 1320.58 348.362 1319.26 347.732C1317.93 347.102 1317.3 345.416 1317.88 343.971C1318.46 342.508 1320.01 341.841 1321.35 342.471C1322.67 343.082 1323.29 344.768 1322.71 346.231Z" fill="white"/>
<path d="M766.344 81.0345C765.886 82.2202 764.628 82.7574 763.541 82.2572C762.453 81.7385 761.96 80.3676 762.419 79.2004C762.878 78.0148 764.152 77.4776 765.223 77.9777C766.327 78.4779 766.82 79.8489 766.344 81.0345Z" fill="white"/>
<path d="M611.597 175.108C611.053 176.497 609.575 177.127 608.318 176.534C607.043 175.941 606.465 174.33 607.009 172.959C607.553 171.569 609.031 170.939 610.289 171.532C611.546 172.125 612.141 173.737 611.597 175.108Z" fill="white"/>
<path d="M1238.65 433.912C1238.1 435.302 1236.62 435.932 1235.37 435.339C1234.09 434.746 1233.51 433.134 1234.06 431.763C1234.6 430.374 1236.08 429.744 1237.34 430.337C1238.59 430.93 1239.19 432.542 1238.65 433.912Z" fill="white"/>
<path d="M1373.28 266.46C1372.73 267.85 1371.25 268.48 1370 267.887C1368.72 267.294 1368.14 265.682 1368.69 264.311C1369.23 262.922 1370.71 262.292 1371.97 262.885C1373.24 263.478 1373.82 265.089 1373.28 266.46Z" fill="white"/>
<path d="M1307.35 191.672C1307.02 192.506 1306.14 192.895 1305.38 192.524C1304.61 192.172 1304.27 191.209 1304.59 190.375C1304.92 189.542 1305.8 189.171 1306.57 189.523C1307.33 189.875 1307.69 190.839 1307.35 191.672Z" fill="white"/>
<path d="M1128.57 256.694C1128.25 257.527 1127.36 257.898 1126.6 257.546C1125.83 257.194 1125.49 256.231 1125.82 255.397C1126.14 254.563 1127.02 254.193 1127.79 254.545C1128.55 254.897 1128.89 255.86 1128.57 256.694Z" fill="white"/>
<path d="M1207.82 286.876C1207.5 287.71 1206.62 288.081 1205.85 287.729C1205.09 287.377 1204.75 286.413 1205.07 285.58C1205.39 284.746 1206.28 284.375 1207.04 284.727C1207.79 285.079 1208.15 286.043 1207.82 286.876Z" fill="white"/>
<path d="M1316.32 313.032C1316 313.865 1315.11 314.254 1314.35 313.884C1313.58 313.532 1313.23 312.568 1313.57 311.735C1313.89 310.901 1314.77 310.531 1315.54 310.883C1316.28 311.235 1316.64 312.198 1316.32 313.032Z" fill="white"/>
<path d="M1274.48 319.999C1274.16 320.833 1273.28 321.222 1272.51 320.852C1271.75 320.5 1271.41 319.536 1271.73 318.703C1272.05 317.869 1272.94 317.498 1273.7 317.85C1274.45 318.202 1274.81 319.166 1274.48 319.999Z" fill="white"/>
<path d="M857.9 141.836C857.441 143.022 856.166 143.559 855.096 143.059C854.008 142.54 853.516 141.169 853.974 140.002C854.433 138.817 855.691 138.279 856.778 138.78C857.866 139.28 858.375 140.651 857.9 141.836Z" fill="white"/>
<path d="M1008.65 100.892C1007.84 102.967 1005.63 103.912 1003.74 103.023C1001.86 102.133 1000.97 99.7251 1001.79 97.6687C1002.61 95.5938 1004.81 94.649 1006.7 95.5383C1008.6 96.4275 1009.47 98.8359 1008.65 100.892Z" fill="white"/>
<path d="M654.231 136.592C653.415 138.667 651.206 139.611 649.32 138.722C647.417 137.833 646.55 135.425 647.366 133.368C648.181 131.312 650.39 130.348 652.276 131.238C654.18 132.127 655.046 134.517 654.231 136.592Z" fill="white"/>
<path d="M558.751 331.947C558.429 332.78 557.545 333.151 556.78 332.799C556.015 332.447 555.676 331.484 555.998 330.65C556.321 329.816 557.205 329.446 557.97 329.798C558.734 330.15 559.074 331.113 558.751 331.947Z" fill="white"/>
<path d="M543.627 337.264C543.304 338.098 542.42 338.468 541.656 338.116C540.891 337.764 540.551 336.801 540.874 335.967C541.197 335.134 542.081 334.763 542.845 335.115C543.593 335.467 543.95 336.43 543.627 337.264Z" fill="white"/>
<path d="M552.599 312.496C551.936 314.145 550.186 314.905 548.674 314.201C547.161 313.497 546.465 311.57 547.11 309.921C547.756 308.272 549.523 307.513 551.036 308.217C552.548 308.921 553.245 310.847 552.599 312.496Z" fill="white"/>
<path d="M144.854 355.956C145.534 357.938 144.633 360.161 142.798 360.902C140.98 361.662 138.941 360.643 138.261 358.66C137.564 356.678 138.499 354.455 140.317 353.696C142.135 352.973 144.157 353.973 144.854 355.956Z" fill="white"/>
<path d="M289.237 105.041C289.916 107.023 289.016 109.246 287.181 109.987C285.363 110.728 283.323 109.728 282.644 107.745C281.964 105.763 282.882 103.54 284.7 102.799C286.518 102.058 288.54 103.058 289.237 105.041Z" fill="white"/>
<path d="M402.846 134.757C403.526 136.739 402.625 138.962 400.79 139.703C398.972 140.444 396.933 139.444 396.236 137.461C395.557 135.479 396.474 133.256 398.292 132.515C400.127 131.774 402.149 132.774 402.846 134.757Z" fill="white"/>
<path d="M396.731 304.62C397.393 306.51 396.51 308.622 394.777 309.325C393.043 310.029 391.106 309.085 390.461 307.195C389.798 305.305 390.681 303.193 392.415 302.489C394.148 301.785 396.085 302.749 396.731 304.62Z" fill="white"/>
<path d="M383.441 6.55935C384.086 8.44898 383.22 10.5609 381.487 11.2649C379.754 11.9689 377.816 11.0241 377.171 9.13444C376.508 7.24481 377.392 5.13287 379.125 4.42889C380.841 3.72491 382.778 4.68825 383.441 6.55935Z" fill="white"/>
<path d="M256.015 1.42681C256.406 2.55688 255.896 3.81663 254.843 4.24272C253.806 4.66882 252.634 4.09452 252.243 2.96445C251.852 1.83437 252.379 0.574619 253.416 0.13C254.469 -0.277567 255.625 0.296732 256.015 1.42681Z" fill="white"/>
<path d="M139.279 245.613C139.67 246.743 139.143 248.003 138.107 248.429C137.07 248.855 135.915 248.281 135.524 247.151C135.133 246.021 135.66 244.761 136.696 244.335C137.733 243.909 138.888 244.483 139.279 245.613Z" fill="white"/>
<path d="M241.42 194.226C241.811 195.356 241.284 196.616 240.247 197.06C239.211 197.486 238.055 196.912 237.664 195.782C237.274 194.652 237.8 193.392 238.837 192.966C239.873 192.522 241.029 193.096 241.42 194.226Z" fill="white"/>
<path d="M368.318 109.284C368.709 110.414 368.182 111.692 367.146 112.118C366.109 112.544 364.954 111.97 364.546 110.84C364.155 109.71 364.682 108.45 365.718 108.024C366.772 107.579 367.927 108.135 368.318 109.284Z" fill="white"/>
<path d="M333.961 158.451C334.352 159.582 333.825 160.841 332.788 161.286C331.752 161.712 330.596 161.138 330.205 160.008C329.815 158.878 330.341 157.618 331.378 157.192C332.397 156.747 333.57 157.321 333.961 158.451Z" fill="white"/>
</g>
</g>
<g style="mix-blend-mode:overlay">
<path d="M1326.83 1604.82C1326.71 1606.7 1328.14 1608.33 1330.03 1608.45C1331.92 1608.56 1333.55 1607.13 1333.66 1605.25C1333.78 1603.36 1332.35 1601.73 1330.46 1601.62C1328.58 1601.5 1326.95 1602.94 1326.83 1604.82Z" fill="white"/>
<path d="M251.547 1770.09C251.421 1771.98 252.859 1773.6 254.738 1773.72C256.626 1773.84 258.254 1772.41 258.371 1770.52C258.496 1768.63 257.058 1767.01 255.179 1766.89C253.291 1766.76 251.664 1768.2 251.547 1770.09Z" fill="white"/>
<path d="M1185.4 1685.8C1185.3 1687.34 1186.47 1688.65 1187.99 1688.75C1189.52 1688.84 1190.84 1687.69 1190.94 1686.15C1191.04 1684.61 1189.88 1683.29 1188.34 1683.2C1186.82 1683.1 1185.49 1684.27 1185.4 1685.8Z" fill="white"/>
<path d="M1276.72 1720.85C1276.62 1722.38 1277.78 1723.7 1279.32 1723.8C1280.85 1723.9 1282.18 1722.74 1282.28 1721.2C1282.38 1719.67 1281.21 1718.35 1279.68 1718.25C1278.14 1718.15 1276.82 1719.32 1276.72 1720.85Z" fill="white"/>
<path d="M1392.82 1812.87C1392.76 1813.78 1393.45 1814.58 1394.38 1814.64C1395.3 1814.7 1396.09 1814 1396.15 1813.08C1396.2 1812.17 1395.51 1811.38 1394.6 1811.31C1393.67 1811.26 1392.88 1811.95 1392.82 1812.87Z" fill="white"/>
<path d="M4.33119 1798.03C4.21432 1799.83 5.58083 1801.37 7.36988 1801.48C9.16792 1801.6 10.7052 1800.24 10.8221 1798.44C10.939 1796.66 9.58144 1795.11 7.7834 1794.99C5.98536 1794.88 4.43907 1796.24 4.33119 1798.03Z" fill="white"/>
<path d="M905.687 1591.78C905.624 1592.85 906.433 1593.78 907.512 1593.85C908.591 1593.92 909.517 1593.11 909.58 1592.03C909.643 1590.96 908.834 1590.02 907.755 1589.95C906.685 1589.89 905.759 1590.71 905.687 1591.78Z" fill="white"/>
<path d="M920.348 1606.35C920.276 1607.43 921.094 1608.36 922.173 1608.42C923.252 1608.49 924.178 1607.67 924.241 1606.6C924.313 1605.52 923.495 1604.59 922.416 1604.53C921.346 1604.47 920.42 1605.27 920.348 1606.35Z" fill="white"/>
<path d="M322.141 1603.29C322.069 1604.37 322.887 1605.29 323.966 1605.36C325.045 1605.44 325.971 1604.62 326.034 1603.54C326.106 1602.46 325.288 1601.54 324.218 1601.47C323.13 1601.39 322.204 1602.21 322.141 1603.29Z" fill="white"/>
<path d="M227.911 1674.58C227.839 1675.66 228.657 1676.59 229.736 1676.66C230.806 1676.73 231.741 1675.91 231.803 1674.83C231.875 1673.76 231.057 1672.83 229.987 1672.77C228.909 1672.69 227.983 1673.5 227.911 1674.58Z" fill="white"/>
<path d="M119.704 1659.89C119.632 1660.96 120.45 1661.89 121.529 1661.96C122.607 1662.03 123.533 1661.21 123.596 1660.13C123.659 1659.05 122.85 1658.13 121.771 1658.06C120.693 1657.99 119.767 1658.81 119.704 1659.89Z" fill="white"/>
<path d="M1069.35 1610.48C1069.25 1612.01 1070.42 1613.34 1071.95 1613.43C1073.48 1613.52 1074.81 1612.37 1074.91 1610.83C1075 1609.3 1073.84 1607.98 1072.31 1607.88C1070.77 1607.78 1069.45 1608.95 1069.35 1610.48Z" fill="white"/>
<path d="M643.572 1501.5C643.473 1503.03 644.633 1504.35 646.171 1504.45C647.708 1504.55 649.03 1503.38 649.128 1501.85C649.227 1500.32 648.067 1498.99 646.53 1498.9C644.993 1498.8 643.671 1499.96 643.572 1501.5Z" fill="white"/>
<path d="M1328.28 1949.33C1328.11 1952.01 1330.15 1954.32 1332.83 1954.49C1335.51 1954.66 1337.82 1952.63 1337.99 1949.95C1338.16 1947.27 1336.13 1944.96 1333.45 1944.79C1330.76 1944.62 1328.45 1946.65 1328.28 1949.33Z" fill="white"/>
<path d="M451.315 1579.71C451.144 1582.38 453.176 1584.69 455.864 1584.86C458.543 1585.04 460.853 1583 461.024 1580.33C461.195 1577.65 459.154 1575.34 456.484 1575.17C453.805 1575 451.486 1577.03 451.315 1579.71Z" fill="white"/>
<path d="M923.344 1574.73C923.209 1576.87 924.836 1578.72 926.976 1578.86C929.124 1579 930.967 1577.37 931.111 1575.23C931.246 1573.08 929.619 1571.23 927.479 1571.1C925.339 1570.95 923.488 1572.58 923.344 1574.73Z" fill="white"/>
<path d="M1269.01 2103.89C1268.9 2105.78 1270.33 2107.39 1272.21 2107.52C1274.1 2107.64 1275.73 2106.21 1275.85 2104.33C1275.96 2102.44 1274.53 2100.82 1272.66 2100.7C1270.77 2100.57 1269.13 2102 1269.01 2103.89Z" fill="white"/>
<path d="M193.733 2657.73C193.616 2659.62 195.046 2661.24 196.934 2661.36C198.822 2661.48 200.449 2660.06 200.566 2658.17C200.692 2656.29 199.253 2654.66 197.374 2654.54C195.477 2654.42 193.85 2655.85 193.733 2657.73Z" fill="white"/>
<path d="M-5.78238 2096.66C-5.89925 2098.54 -4.46982 2100.17 -2.5908 2100.29C-0.702789 2100.4 0.924533 2098.97 1.04141 2097.09C1.15829 2095.2 -0.271152 2093.57 -2.15916 2093.46C-4.03819 2093.34 -5.6655 2094.77 -5.78238 2096.66Z" fill="white"/>
<path d="M1127.58 2573.45C1127.48 2574.99 1128.64 2576.3 1130.17 2576.4C1131.7 2576.5 1133.02 2575.34 1133.12 2573.8C1133.22 2572.26 1132.06 2570.95 1130.53 2570.85C1129 2570.75 1127.68 2571.91 1127.58 2573.45Z" fill="white"/>
<path d="M1218.9 2608.49C1218.81 2610.03 1219.97 2611.35 1221.5 2611.45C1223.03 2611.55 1224.35 2610.39 1224.45 2608.85C1224.55 2607.32 1223.39 2606 1221.85 2605.9C1220.32 2605.8 1219 2606.96 1218.9 2608.49Z" fill="white"/>
<path d="M685.209 2589.23C685.11 2590.76 686.27 2592.08 687.807 2592.18C689.336 2592.28 690.657 2591.11 690.765 2589.58C690.855 2588.05 689.695 2586.72 688.167 2586.63C686.63 2586.53 685.308 2587.7 685.209 2589.23Z" fill="white"/>
<path d="M1335 2311.94C1334.94 2312.86 1335.63 2313.66 1336.55 2313.71C1337.47 2313.77 1338.27 2313.08 1338.32 2312.16C1338.38 2311.23 1337.68 2310.44 1336.77 2310.39C1335.85 2310.33 1335.06 2311.03 1335 2311.94Z" fill="white"/>
<path d="M951.64 2645.18C951.523 2646.97 952.88 2648.51 954.679 2648.63C956.468 2648.75 958.023 2647.39 958.131 2645.59C958.248 2643.8 956.881 2642.26 955.092 2642.14C953.294 2642.03 951.757 2643.39 951.64 2645.18Z" fill="white"/>
<path d="M813.718 2780.58C813.601 2782.37 814.959 2783.91 816.757 2784.03C818.546 2784.14 820.101 2782.79 820.209 2780.99C820.326 2779.19 818.959 2777.65 817.17 2777.54C815.372 2777.43 813.826 2778.79 813.718 2780.58Z" fill="white"/>
<path d="M847.872 2479.43C847.8 2480.5 848.618 2481.43 849.697 2481.49C850.767 2481.57 851.702 2480.75 851.765 2479.67C851.837 2478.59 851.018 2477.67 849.939 2477.6C848.87 2477.54 847.944 2478.35 847.872 2479.43Z" fill="white"/>
<path d="M862.536 2494C862.464 2495.08 863.282 2496.01 864.36 2496.07C865.43 2496.14 866.356 2495.33 866.428 2494.25C866.491 2493.18 865.682 2492.24 864.603 2492.18C863.533 2492.11 862.608 2492.93 862.536 2494Z" fill="white"/>
<path d="M264.325 2490.94C264.253 2492.01 265.071 2492.94 266.15 2493.01C267.229 2493.08 268.146 2492.26 268.218 2491.18C268.289 2490.1 267.471 2489.18 266.392 2489.12C265.323 2489.04 264.388 2489.86 264.325 2490.94Z" fill="white"/>
<path d="M-1.97997 1999C-2.05189 2000.08 -1.23379 2001.01 -0.155013 2001.07C0.914776 2001.14 1.84066 2000.32 1.91258 1999.24C1.97551 1998.17 1.16651 1997.24 0.0877295 1997.18C-0.99105 1997.11 -1.91705 1997.92 -1.97997 1999Z" fill="white"/>
<path d="M170.106 2562.24C170.034 2563.31 170.852 2564.24 171.931 2564.3C173.001 2564.37 173.936 2563.56 173.999 2562.49C174.071 2561.41 173.253 2560.48 172.174 2560.41C171.104 2560.34 170.169 2561.16 170.106 2562.24Z" fill="white"/>
<path d="M61.8862 2158.95C61.8233 2160.03 62.6324 2160.96 63.7112 2161.03C64.7811 2161.1 65.7161 2160.28 65.779 2159.21C65.842 2158.13 65.0328 2157.2 63.954 2157.14C62.8751 2157.07 61.9492 2157.89 61.8862 2158.95Z" fill="white"/>
<path d="M1011.53 2498.13C1011.43 2499.67 1012.59 2500.99 1014.13 2501.08C1015.66 2501.18 1016.98 2500.01 1017.08 2498.48C1017.18 2496.95 1016.01 2495.63 1014.48 2495.53C1012.95 2495.43 1011.63 2496.59 1011.53 2498.13Z" fill="white"/>
<path d="M546.135 2599.85C546.036 2601.37 547.196 2602.69 548.733 2602.79C550.261 2602.89 551.583 2601.72 551.682 2600.2C551.781 2598.67 550.621 2597.34 549.084 2597.25C547.555 2597.15 546.234 2598.31 546.135 2599.85Z" fill="white"/>
<path d="M888.408 2562.23C888.238 2564.91 890.269 2567.23 892.949 2567.4C895.628 2567.57 897.947 2565.53 898.118 2562.85C898.289 2560.18 896.248 2557.87 893.569 2557.7C890.89 2557.52 888.57 2559.56 888.408 2562.23Z" fill="white"/>
<path d="M1270.46 2448.4C1270.29 2451.08 1272.32 2453.39 1275 2453.56C1277.68 2453.73 1279.99 2451.7 1280.16 2449.02C1280.33 2446.34 1278.3 2444.03 1275.62 2443.86C1272.94 2443.68 1270.63 2445.72 1270.46 2448.4Z" fill="white"/>
<path d="M393.506 2467.36C393.335 2470.04 395.367 2472.35 398.046 2472.52C400.725 2472.69 403.045 2470.66 403.216 2467.97C403.386 2465.29 401.346 2462.97 398.666 2462.8C395.987 2462.64 393.677 2464.68 393.506 2467.36Z" fill="white"/>
<path d="M865.539 2462.38C865.404 2464.53 867.031 2466.38 869.171 2466.51C871.311 2466.65 873.163 2465.02 873.307 2462.88C873.441 2460.74 871.814 2458.89 869.674 2458.76C867.517 2458.6 865.674 2460.23 865.539 2462.38Z" fill="white"/>
<path d="M573.268 2521.68C573.097 2524.36 575.129 2526.68 577.808 2526.85C580.487 2527.02 582.798 2524.98 582.968 2522.3C583.139 2519.63 581.107 2517.32 578.428 2517.15C575.749 2516.97 573.439 2519.01 573.268 2521.68Z" fill="white"/>
<path d="M785.127 2714.46C784.956 2717.14 786.997 2719.45 789.677 2719.62C792.356 2719.79 794.667 2717.76 794.837 2715.08C795.008 2712.39 792.976 2710.09 790.288 2709.92C787.609 2709.74 785.298 2711.77 785.127 2714.46Z" fill="white"/>
<path d="M644.104 634.213C643.115 632.811 641.173 632.479 639.77 633.476C638.368 634.474 638.044 636.415 639.033 637.808C640.031 639.21 641.973 639.533 643.376 638.545C644.778 637.556 645.102 635.615 644.104 634.213Z" fill="white"/>
<path d="M883.549 641.924C882.551 640.522 880.618 640.198 879.215 641.187C877.813 642.185 877.489 644.126 878.478 645.519C879.467 646.921 881.409 647.244 882.811 646.256C884.223 645.258 884.546 643.326 883.549 641.924Z" fill="white"/>
<path d="M919.564 545.429C918.566 544.027 916.633 543.694 915.231 544.692C913.829 545.68 913.505 547.622 914.494 549.024C915.492 550.426 917.434 550.749 918.827 549.752C920.229 548.772 920.553 546.831 919.564 545.429Z" fill="white"/>
<path d="M336.46 963.457C335.651 962.316 334.077 962.055 332.936 962.855C331.803 963.664 331.533 965.237 332.342 966.378C333.142 967.511 334.725 967.78 335.866 966.971C336.999 966.163 337.269 964.59 336.46 963.457Z" fill="white"/>
<path d="M802.582 473.208C801.638 471.878 799.795 471.564 798.465 472.507C797.134 473.451 796.819 475.293 797.763 476.623C798.707 477.953 800.55 478.268 801.881 477.324C803.211 476.381 803.526 474.538 802.582 473.208Z" fill="white"/>
<path d="M996.021 617.505C995.068 616.175 993.234 615.86 991.904 616.804C990.573 617.748 990.259 619.59 991.212 620.92C992.156 622.25 993.999 622.565 995.329 621.621C996.651 620.678 996.965 618.835 996.021 617.505Z" fill="white"/>
<path d="M936.729 713.003C936.163 712.203 935.057 712.014 934.257 712.58C933.457 713.147 933.268 714.252 933.834 715.052C934.401 715.852 935.506 716.04 936.307 715.474C937.107 714.908 937.295 713.803 936.729 713.003Z" fill="white"/>
<path d="M715.403 688.108C714.837 687.308 713.731 687.12 712.931 687.686C712.131 688.252 711.951 689.357 712.517 690.157C713.084 690.957 714.189 691.146 714.99 690.58C715.781 690.013 715.969 688.908 715.403 688.108Z" fill="white"/>
<path d="M800.174 636.63C799.608 635.83 798.502 635.641 797.702 636.207C796.911 636.774 796.722 637.879 797.288 638.679C797.854 639.479 798.96 639.667 799.751 639.101C800.552 638.535 800.741 637.43 800.174 636.63Z" fill="white"/>
<path d="M919.663 582.186C919.096 581.387 917.982 581.198 917.191 581.764C916.39 582.33 916.211 583.436 916.768 584.235C917.334 585.035 918.44 585.224 919.24 584.649C920.04 584.092 920.229 582.977 919.663 582.186Z" fill="white"/>
<path d="M869.742 585.107C869.176 584.307 868.07 584.119 867.27 584.685C866.479 585.251 866.29 586.357 866.848 587.156C867.414 587.956 868.52 588.136 869.32 587.579C870.12 587.013 870.309 585.907 869.742 585.107Z" fill="white"/>
<path d="M428.533 876.479C427.724 875.337 426.15 875.077 425.009 875.877C423.867 876.685 423.606 878.258 424.415 879.4C425.224 880.532 426.798 880.802 427.93 879.993C429.063 879.193 429.333 877.611 428.533 876.479Z" fill="white"/>
<path d="M612.017 882.735C610.605 880.748 607.845 880.281 605.858 881.692C603.871 883.103 603.404 885.862 604.815 887.848C606.227 889.834 608.987 890.302 610.974 888.891C612.961 887.489 613.428 884.73 612.017 882.735Z" fill="white"/>
<path d="M638.924 256.69C637.935 255.288 635.993 254.955 634.59 255.953C633.188 256.95 632.864 258.891 633.853 260.284C634.842 261.686 636.784 262.01 638.186 261.021C639.589 260.033 639.913 258.092 638.924 256.69Z" fill="white"/>
<path d="M751.392 232.281C750.449 230.95 748.605 230.636 747.275 231.58C745.944 232.523 745.63 234.366 746.583 235.696C747.527 237.026 749.37 237.34 750.7 236.397C752.022 235.444 752.336 233.611 751.392 232.281Z" fill="white"/>
<path d="M692.092 327.778C691.526 326.978 690.42 326.799 689.62 327.356C688.82 327.922 688.631 329.027 689.198 329.827C689.764 330.627 690.87 330.816 691.661 330.25C692.47 329.683 692.659 328.578 692.092 327.778Z" fill="white"/>
<path d="M810.568 786.132C810.28 784.442 808.671 783.31 806.98 783.597C805.29 783.885 804.149 785.494 804.445 787.183C804.742 788.873 806.351 790.014 808.042 789.718C809.723 789.439 810.855 787.83 810.568 786.132Z" fill="white"/>
<path d="M1097.37 824.992C1097.08 823.303 1095.48 822.161 1093.79 822.458C1092.1 822.755 1090.95 824.354 1091.25 826.053C1091.55 827.742 1093.15 828.875 1094.85 828.587C1096.53 828.291 1097.66 826.682 1097.37 824.992Z" fill="white"/>
<path d="M1091.41 1194.36C1091.18 1192.99 1089.86 1192.06 1088.49 1192.31C1087.11 1192.54 1086.19 1193.85 1086.43 1195.23C1086.66 1196.6 1087.98 1197.53 1089.35 1197.29C1090.72 1197.04 1091.64 1195.74 1091.41 1194.36Z" fill="white"/>
<path d="M937.53 1052.4C937.251 1050.79 935.723 1049.72 934.114 1050C932.504 1050.27 931.425 1051.8 931.704 1053.41C931.983 1055.02 933.511 1056.1 935.112 1055.82C936.73 1055.53 937.809 1054.01 937.53 1052.4Z" fill="white"/>
<path d="M1023.06 709.346C1022.78 707.737 1021.26 706.659 1019.66 706.937C1018.05 707.216 1016.97 708.744 1017.25 710.353C1017.53 711.961 1019.05 713.04 1020.66 712.761C1022.26 712.482 1023.34 710.955 1023.06 709.346Z" fill="white"/>
<path d="M1040.44 983.544C1040.27 982.582 1039.36 981.935 1038.39 982.097C1037.43 982.259 1036.78 983.176 1036.95 984.146C1037.11 985.108 1038.03 985.755 1039 985.593C1039.97 985.422 1040.61 984.506 1040.44 983.544Z" fill="white"/>
<path d="M851.593 865.524C851.422 864.563 850.505 863.916 849.543 864.078C848.581 864.239 847.933 865.165 848.095 866.127C848.257 867.088 849.174 867.735 850.145 867.573C851.107 867.403 851.754 866.495 851.593 865.524Z" fill="white"/>
<path d="M950.289 855.702C950.128 854.741 949.21 854.093 948.239 854.255C947.277 854.417 946.63 855.334 946.801 856.304C946.963 857.266 947.88 857.913 948.851 857.751C949.804 857.58 950.451 856.664 950.289 855.702Z" fill="white"/>
<path d="M1081.58 858.182C1081.41 857.22 1080.5 856.573 1079.53 856.735C1078.56 856.897 1077.92 857.813 1078.09 858.784C1078.25 859.745 1079.17 860.392 1080.14 860.231C1081.1 860.069 1081.74 859.143 1081.58 858.182Z" fill="white"/>
<path d="M912.608 966.459C912.374 965.084 911.062 964.158 909.695 964.401C908.32 964.635 907.394 965.938 907.636 967.313C907.87 968.688 909.174 969.605 910.558 969.371C911.916 969.137 912.842 967.825 912.608 966.459Z" fill="white"/>
<path d="M1075.39 1051.32C1074.98 1048.93 1072.69 1047.31 1070.28 1047.72C1067.88 1048.13 1066.26 1050.42 1066.68 1052.82C1067.09 1055.23 1069.37 1056.83 1071.78 1056.42C1074.19 1056.02 1075.8 1053.73 1075.39 1051.32Z" fill="white"/>
<path d="M976.728 1104.79C976.315 1102.39 974.031 1100.77 971.631 1101.19C969.221 1101.6 967.612 1103.88 968.026 1106.28C968.439 1108.68 970.732 1110.3 973.132 1109.89C975.524 1109.48 977.142 1107.2 976.728 1104.79Z" fill="white"/>
<path d="M969.012 443.407C968.715 441.718 967.115 440.585 965.416 440.873C963.726 441.169 962.593 442.769 962.881 444.468C963.168 446.157 964.778 447.29 966.477 447.002C968.167 446.705 969.299 445.097 969.012 443.407Z" fill="white"/>
<path d="M1081 469.947C1080.72 468.338 1079.19 467.259 1077.58 467.538C1075.97 467.817 1074.9 469.344 1075.17 470.944C1075.45 472.553 1076.97 473.631 1078.58 473.353C1080.19 473.074 1081.28 471.555 1081 469.947Z" fill="white"/>
<path d="M916.682 872.57C916.52 871.609 915.603 870.962 914.632 871.123C913.67 871.285 913.023 872.211 913.185 873.172C913.356 874.134 914.273 874.781 915.235 874.619C916.206 874.458 916.844 873.541 916.682 872.57Z" fill="white"/>
<path d="M900.651 862.792C900.489 861.83 899.572 861.183 898.601 861.345C897.639 861.507 896.992 862.424 897.154 863.394C897.316 864.356 898.242 865.003 899.204 864.841C900.175 864.67 900.822 863.754 900.651 862.792Z" fill="white"/>
<path d="M986.256 530.475C986.095 529.513 985.178 528.866 984.207 529.037C983.245 529.199 982.597 530.116 982.759 531.086C982.921 532.048 983.838 532.695 984.8 532.533C985.771 532.353 986.418 531.437 986.256 530.475Z" fill="white"/>
<path d="M863.416 807.961C863.002 805.562 860.719 803.944 858.318 804.357C855.909 804.771 854.3 807.063 854.713 809.462C855.127 811.862 857.41 813.479 859.82 813.066C862.211 812.653 863.83 810.361 863.416 807.961Z" fill="white"/>
<path d="M904.67 891.363C904.337 889.44 902.512 888.145 900.588 888.478C898.664 888.81 897.379 890.635 897.702 892.558C898.035 894.481 899.86 895.766 901.784 895.443C903.716 895.11 905.002 893.277 904.67 891.363Z" fill="white"/>
<path d="M536.699 2412.55C536.555 2414.26 537.822 2415.77 539.53 2415.91C541.239 2416.06 542.74 2414.79 542.893 2413.08C543.037 2411.38 541.769 2409.87 540.052 2409.72C538.335 2409.58 536.842 2410.85 536.699 2412.55Z" fill="white"/>
<path d="M1116.82 1748.84C1116.7 1750.23 1117.74 1751.45 1119.12 1751.58C1120.52 1751.69 1121.74 1750.66 1121.85 1749.27C1121.96 1747.89 1120.93 1746.66 1119.55 1746.54C1118.16 1746.42 1116.95 1747.45 1116.82 1748.84Z" fill="white"/>
<path d="M438.245 2511.1C438.11 2512.72 439.315 2514.15 440.942 2514.29C442.569 2514.42 443.999 2513.22 444.133 2511.59C444.268 2509.96 443.064 2508.54 441.436 2508.4C439.809 2508.27 438.389 2509.47 438.245 2511.1Z" fill="white"/>
<path d="M648.588 2483.57C648.454 2485.2 649.658 2486.63 651.286 2486.76C652.913 2486.89 654.342 2485.69 654.477 2484.06C654.621 2482.44 653.407 2481.01 651.78 2480.87C650.153 2480.74 648.723 2481.94 648.588 2483.57Z" fill="white"/>
<path d="M496.573 1553.01C496.492 1553.99 497.211 1554.85 498.191 1554.93C499.162 1555.01 500.016 1554.29 500.106 1553.31C500.187 1552.34 499.459 1551.48 498.488 1551.4C497.508 1551.31 496.654 1552.04 496.573 1553.01Z" fill="white"/>
<path d="M450.076 2445.23C449.996 2446.21 450.724 2447.06 451.695 2447.14C452.675 2447.23 453.529 2446.5 453.619 2445.53C453.7 2444.56 452.972 2443.69 452.001 2443.61C451.021 2443.53 450.157 2444.25 450.076 2445.23Z" fill="white"/>
<path d="M1361.44 1788.95C1361.23 1791.38 1363.04 1793.52 1365.47 1793.73C1367.89 1793.93 1370.03 1792.13 1370.24 1789.7C1370.45 1787.27 1368.64 1785.13 1366.2 1784.93C1363.78 1784.71 1361.64 1786.52 1361.44 1788.95Z" fill="white"/>
<path d="M786.235 1607.7C786.028 1610.13 787.835 1612.27 790.263 1612.47C792.69 1612.68 794.83 1610.87 795.036 1608.45C795.243 1606.02 793.427 1603.88 791 1603.67C788.581 1603.47 786.442 1605.27 786.235 1607.7Z" fill="white"/>
<path d="M1364.12 1921.57C1363.97 1923.28 1365.24 1924.79 1366.95 1924.93C1368.67 1925.07 1370.17 1923.81 1370.31 1922.09C1370.45 1920.38 1369.19 1918.88 1367.47 1918.74C1365.77 1918.59 1364.26 1919.86 1364.12 1921.57Z" fill="white"/>
<path d="M327.877 2428.41C327.743 2430.03 328.947 2431.46 330.575 2431.6C332.202 2431.73 333.622 2430.53 333.766 2428.9C333.901 2427.27 332.696 2425.85 331.069 2425.71C329.442 2425.58 328.012 2426.78 327.877 2428.41Z" fill="white"/>
<path d="M1369.38 1832.96C1369.3 1833.94 1370.02 1834.8 1371 1834.88C1371.97 1834.96 1372.82 1834.24 1372.91 1833.26C1372.99 1832.29 1372.27 1831.43 1371.29 1831.35C1370.32 1831.27 1369.47 1831.99 1369.38 1832.96Z" fill="white"/>
<path d="M1316.15 2218.37C1315.99 2220.31 1317.43 2222.03 1319.38 2222.19C1321.32 2222.35 1323.04 2220.9 1323.2 2218.96C1323.36 2217.02 1321.92 2215.3 1319.97 2215.14C1318.02 2214.99 1316.31 2216.43 1316.15 2218.37Z" fill="white"/>
<path d="M441.844 567.025C441.637 569.451 443.445 571.59 445.872 571.797C448.299 572.004 450.439 570.197 450.646 567.771C450.853 565.344 449.046 563.205 446.618 562.999C444.182 562.792 442.051 564.598 441.844 567.025Z" fill="white"/>
<path d="M465.925 691.353C465.781 693.061 467.049 694.57 468.766 694.714C470.483 694.858 471.976 693.591 472.129 691.874C472.272 690.167 471.005 688.666 469.288 688.522C467.57 688.369 466.078 689.646 465.925 691.353Z" fill="white"/>
<path d="M733.944 545.716C733.863 546.686 734.582 547.549 735.562 547.63C736.533 547.711 737.396 546.992 737.477 546.021C737.558 545.042 736.83 544.188 735.859 544.107C734.879 544.017 734.025 544.745 733.944 545.716Z" fill="white"/>
<path d="M746.991 559.223C746.91 560.194 747.638 561.057 748.609 561.138C749.58 561.219 750.443 560.5 750.524 559.52C750.605 558.549 749.877 557.687 748.906 557.606C747.935 557.525 747.071 558.253 746.991 559.223Z" fill="white"/>
<path d="M471.182 602.749C471.101 603.728 471.829 604.582 472.8 604.663C473.78 604.744 474.626 604.025 474.715 603.045C474.796 602.075 474.077 601.212 473.097 601.131C472.126 601.05 471.263 601.778 471.182 602.749Z" fill="white"/>
<path d="M769.211 621.657C769.005 624.084 770.812 626.223 773.239 626.43C775.676 626.636 777.806 624.83 778.013 622.394C778.22 619.968 776.413 617.829 773.976 617.622C771.549 617.425 769.418 619.231 769.211 621.657Z" fill="white"/>
<path d="M417.95 988.153C417.788 990.094 419.227 991.811 421.178 991.972C423.12 992.134 424.828 990.687 424.999 988.746C425.16 986.805 423.713 985.088 421.771 984.926C419.829 984.765 418.112 986.212 417.95 988.153Z" fill="white"/>
<path d="M457.671 1252.3C458.3 1253.89 460.107 1254.69 461.708 1254.05C463.308 1253.42 464.081 1251.61 463.452 1250.02C462.823 1248.42 461.016 1247.64 459.415 1248.28C457.824 1248.91 457.041 1250.71 457.671 1252.3Z" fill="white"/>
<path d="M168.991 1273.04C169.62 1274.64 171.427 1275.42 173.028 1274.78C174.628 1274.15 175.41 1272.34 174.772 1270.74C174.134 1269.14 172.335 1268.37 170.735 1269C169.144 1269.64 168.362 1271.45 168.991 1273.04Z" fill="white"/>
<path d="M834.837 1005.68C835.349 1006.97 836.815 1007.61 838.119 1007.1C839.413 1006.59 840.051 1005.12 839.539 1003.82C839.026 1002.52 837.561 1001.89 836.267 1002.4C834.963 1002.91 834.325 1004.38 834.837 1005.68Z" fill="white"/>
<path d="M741.967 1201.45C742.569 1202.97 744.286 1203.71 745.805 1203.12C747.325 1202.51 748.062 1200.8 747.459 1199.29C746.857 1197.77 745.14 1197.03 743.63 1197.62C742.11 1198.22 741.373 1199.93 741.967 1201.45Z" fill="white"/>
<path d="M265.429 1371.01C266.031 1372.52 267.748 1373.26 269.259 1372.66C270.778 1372.06 271.515 1370.35 270.913 1368.83C270.311 1367.31 268.602 1366.57 267.083 1367.17C265.564 1367.76 264.826 1369.5 265.429 1371.01Z" fill="white"/>
<path d="M401.25 1183C401.61 1183.92 402.644 1184.36 403.552 1184C404.46 1183.64 404.909 1182.61 404.541 1181.7C404.181 1180.79 403.156 1180.34 402.239 1180.71C401.331 1181.07 400.891 1182.09 401.25 1183Z" fill="white"/>
<path d="M306.66 1212.85C307.02 1213.76 308.054 1214.21 308.962 1213.85C309.87 1213.49 310.311 1212.45 309.96 1211.55C309.6 1210.64 308.566 1210.19 307.658 1210.55C306.741 1210.91 306.292 1211.94 306.66 1212.85Z" fill="white"/>
<path d="M177.64 1237.32C177.999 1238.24 179.033 1238.68 179.941 1238.32C180.849 1237.96 181.299 1236.93 180.939 1236.02C180.579 1235.11 179.546 1234.66 178.638 1235.03C177.73 1235.38 177.28 1236.41 177.64 1237.32Z" fill="white"/>
<path d="M226.836 1246.34C227.196 1247.25 228.229 1247.7 229.137 1247.34C230.045 1246.98 230.495 1245.95 230.135 1245.04C229.776 1244.13 228.742 1243.68 227.834 1244.04C226.917 1244.41 226.467 1245.44 226.836 1246.34Z" fill="white"/>
<path d="M724.716 1068.26C725.228 1069.56 726.694 1070.2 727.998 1069.68C729.292 1069.17 729.93 1067.71 729.418 1066.4C728.905 1065.11 727.44 1064.47 726.146 1064.98C724.842 1065.5 724.204 1066.97 724.716 1068.26Z" fill="white"/>
<path d="M547.991 1018.55C548.89 1020.81 551.452 1021.93 553.727 1021.03C555.992 1020.13 557.107 1017.57 556.208 1015.29C555.309 1013.03 552.747 1011.91 550.472 1012.81C548.207 1013.71 547.092 1016.28 547.991 1018.55Z" fill="white"/>
<path d="M692.858 1158.21C693.757 1160.47 696.32 1161.59 698.594 1160.69C700.86 1159.79 701.975 1157.23 701.076 1154.95C700.177 1152.69 697.605 1151.57 695.34 1152.47C693.074 1153.37 691.959 1155.94 692.858 1158.21Z" fill="white"/>
<path d="M257.826 1617.2C258.428 1618.72 260.145 1619.45 261.665 1618.86C263.184 1618.26 263.921 1616.54 263.319 1615.02C262.717 1613.5 260.999 1612.77 259.489 1613.37C257.97 1613.96 257.224 1615.68 257.826 1617.2Z" fill="white"/>
<path d="M799.25 1373.19C799.61 1374.1 800.644 1374.54 801.552 1374.18C802.46 1373.82 802.909 1372.79 802.55 1371.88C802.19 1370.97 801.156 1370.52 800.248 1370.88C799.331 1371.25 798.891 1372.28 799.25 1373.19Z" fill="white"/>
<path d="M816.946 1379.48C817.305 1380.39 818.339 1380.84 819.247 1380.47C820.155 1380.11 820.605 1379.08 820.236 1378.17C819.876 1377.26 818.843 1376.82 817.935 1377.17C817.027 1377.55 816.586 1378.57 816.946 1379.48Z" fill="white"/>
<path d="M338.136 1538.54C338.495 1539.44 339.529 1539.88 340.437 1539.52C341.345 1539.16 341.795 1538.14 341.426 1537.22C341.066 1536.32 340.042 1535.87 339.134 1536.23C338.226 1536.6 337.776 1537.63 338.136 1538.54Z" fill="white"/>
<path d="M864.641 1425.51C865.54 1427.78 868.102 1428.89 870.376 1427.99C872.642 1427.09 873.757 1424.52 872.858 1422.26C871.959 1419.99 869.397 1418.88 867.122 1419.78C864.847 1420.68 863.742 1423.25 864.641 1425.51Z" fill="white"/>
<path d="M807.148 1352.34C807.867 1354.15 809.917 1355.04 811.742 1354.32C813.549 1353.61 814.439 1351.55 813.719 1349.74C813 1347.93 810.951 1347.04 809.135 1347.76C807.319 1348.47 806.429 1350.53 807.148 1352.34Z" fill="white"/>
<path d="M585.56 1065.73C584.742 1067.24 585.3 1069.13 586.81 1069.95C588.321 1070.76 590.209 1070.21 591.027 1068.7C591.845 1067.19 591.288 1065.3 589.777 1064.48C588.267 1063.66 586.379 1064.22 585.56 1065.73Z" fill="white"/>
<path d="M486.998 847.451C486.18 848.961 486.737 850.839 488.248 851.666C489.758 852.484 491.646 851.927 492.465 850.417C493.283 848.907 492.725 847.02 491.215 846.202C489.704 845.384 487.825 845.941 486.998 847.451Z" fill="white"/>
<path d="M384.49 857.643C383.672 859.152 384.229 861.04 385.74 861.858C387.25 862.675 389.138 862.118 389.956 860.608C390.775 859.098 390.217 857.211 388.707 856.393C387.187 855.576 385.299 856.133 384.49 857.643Z" fill="white"/>
<path d="M1016.76 1196.8C1016.09 1198.02 1016.54 1199.56 1017.77 1200.22C1018.99 1200.89 1020.53 1200.43 1021.2 1199.21C1021.86 1197.99 1021.4 1196.45 1020.18 1195.78C1018.96 1195.12 1017.42 1195.58 1016.76 1196.8Z" fill="white"/>
<path d="M1049.6 1403.53C1048.82 1404.97 1049.35 1406.76 1050.79 1407.54C1052.22 1408.31 1054.01 1407.79 1054.79 1406.35C1055.57 1404.92 1055.03 1403.13 1053.6 1402.35C1052.16 1401.56 1050.37 1402.09 1049.6 1403.53Z" fill="white"/>
<path d="M371.148 994.436C370.366 995.874 370.906 997.662 372.335 998.435C373.774 999.208 375.563 998.687 376.345 997.249C377.127 995.82 376.588 994.023 375.158 993.25C373.729 992.477 371.93 993.007 371.148 994.436Z" fill="white"/>
<path d="M415.533 757.274C414.751 758.712 415.281 760.5 416.72 761.282C418.149 762.055 419.947 761.525 420.72 760.096C421.494 758.667 420.963 756.87 419.534 756.097C418.104 755.306 416.315 755.845 415.533 757.274Z" fill="white"/>
<path d="M527.419 768.419C526.952 769.281 527.267 770.351 528.13 770.818C528.993 771.285 530.063 770.971 530.53 770.108C530.998 769.245 530.674 768.167 529.82 767.709C528.957 767.241 527.887 767.565 527.419 768.419Z" fill="white"/>
<path d="M602.552 978.007C602.085 978.87 602.399 979.94 603.262 980.407C604.116 980.874 605.195 980.551 605.663 979.697C606.13 978.834 605.815 977.765 604.952 977.297C604.098 976.83 603.02 977.154 602.552 978.007Z" fill="#2C2B57"/>
<path d="M518.98 924.605C518.513 925.468 518.836 926.537 519.69 927.014C520.553 927.481 521.623 927.157 522.091 926.304C522.558 925.441 522.244 924.371 521.381 923.904C520.526 923.428 519.448 923.751 518.98 924.605Z" fill="white"/>
<path d="M417.451 841.358C416.983 842.221 417.298 843.299 418.161 843.766C419.024 844.234 420.103 843.91 420.571 843.056C421.038 842.194 420.715 841.124 419.852 840.657C418.988 840.181 417.918 840.495 417.451 841.358Z" fill="white"/>
<path d="M442.068 884.873C441.6 885.736 441.915 886.806 442.778 887.273C443.641 887.74 444.711 887.417 445.179 886.563C445.646 885.709 445.322 884.631 444.468 884.163C443.614 883.696 442.535 884.011 442.068 884.873Z" fill="white"/>
<path d="M898.092 1152.48C897.427 1153.71 897.877 1155.24 899.108 1155.91C900.331 1156.57 901.868 1156.11 902.534 1154.89C903.199 1153.67 902.741 1152.13 901.518 1151.47C900.286 1150.81 898.758 1151.26 898.092 1152.48Z" fill="white"/>
<path d="M822.885 985.062C821.726 987.201 822.517 989.888 824.666 991.048C826.805 992.207 829.493 991.416 830.653 989.277C831.813 987.138 831.022 984.451 828.882 983.292C826.733 982.123 824.054 982.914 822.885 985.062Z" fill="white"/>
<path d="M1051.29 1338.12C1050.12 1340.27 1050.92 1342.95 1053.06 1344.11C1055.21 1345.27 1057.89 1344.48 1059.06 1342.34C1060.22 1340.2 1059.42 1337.51 1057.28 1336.35C1055.13 1335.19 1052.45 1335.98 1051.29 1338.12Z" fill="white"/>
<path d="M248.799 1236.68C247.981 1238.19 248.538 1240.08 250.048 1240.9C251.559 1241.72 253.447 1241.16 254.265 1239.65C255.083 1238.14 254.526 1236.26 253.015 1235.44C251.505 1234.62 249.617 1235.17 248.799 1236.68Z" fill="white"/>
<path d="M954.535 1557.61C954.067 1558.47 954.391 1559.55 955.245 1560.01C956.108 1560.47 957.187 1560.16 957.645 1559.3C958.113 1558.43 957.789 1557.36 956.935 1556.9C956.072 1556.43 955.002 1556.75 954.535 1557.61Z" fill="white"/>
<path d="M961.05 1575.21C960.583 1576.07 960.907 1577.14 961.761 1577.61C962.624 1578.08 963.703 1577.75 964.161 1576.9C964.629 1576.04 964.305 1574.97 963.451 1574.5C962.588 1574.03 961.518 1574.36 961.05 1575.21Z" fill="white"/>
<path d="M289.21 1157.65C288.743 1158.51 289.066 1159.58 289.93 1160.05C290.793 1160.52 291.862 1160.2 292.33 1159.34C292.797 1158.48 292.483 1157.41 291.62 1156.94C290.757 1156.47 289.678 1156.8 289.21 1157.65Z" fill="white"/>
<path d="M975.599 1550.3C974.664 1552.02 975.302 1554.16 977.019 1555.09C978.736 1556.02 980.885 1555.39 981.811 1553.67C982.737 1551.95 982.108 1549.81 980.391 1548.88C978.673 1547.95 976.525 1548.58 975.599 1550.3Z" fill="white"/>
<path d="M237.924 1755.93C237.259 1757.16 237.709 1758.69 238.94 1759.36C240.163 1760.02 241.701 1759.57 242.366 1758.34C243.031 1757.12 242.582 1755.58 241.359 1754.92C240.127 1754.25 238.59 1754.71 237.924 1755.93Z" fill="white"/>
<path d="M270.767 1962.67C269.985 1964.09 270.516 1965.89 271.954 1966.66C273.383 1967.45 275.182 1966.92 275.964 1965.48C276.737 1964.05 276.207 1962.25 274.777 1961.48C273.33 1960.71 271.541 1961.24 270.767 1962.67Z" fill="white"/>
<path d="M119.262 1711.63C118.597 1712.85 119.056 1714.39 120.278 1715.05C121.501 1715.72 123.039 1715.26 123.704 1714.04C124.369 1712.81 123.92 1711.29 122.688 1710.61C121.456 1709.95 119.928 1710.41 119.262 1711.63Z" fill="white"/>
<path d="M272.46 1897.27C271.291 1899.4 272.091 1902.09 274.231 1903.25C276.38 1904.42 279.059 1903.62 280.228 1901.48C281.387 1899.34 280.596 1896.65 278.447 1895.49C276.299 1894.33 273.62 1895.13 272.46 1897.27Z" fill="white"/>
<path d="M175.707 2505.33C175.239 2506.19 175.563 2507.26 176.417 2507.73C177.28 2508.19 178.35 2507.87 178.817 2507.02C179.285 2506.15 178.961 2505.09 178.107 2504.61C177.244 2504.15 176.174 2504.47 175.707 2505.33Z" fill="white"/>
<path d="M182.222 2522.93C181.755 2523.8 182.078 2524.87 182.933 2525.33C183.787 2525.8 184.865 2525.48 185.333 2524.62C185.8 2523.77 185.477 2522.69 184.623 2522.22C183.769 2521.76 182.69 2522.08 182.222 2522.93Z" fill="white"/>
<path d="M177.483 2589.03C176.324 2591.17 177.115 2593.86 179.254 2595.02C181.403 2596.18 184.082 2595.39 185.251 2593.24C186.411 2591.1 185.62 2588.41 183.48 2587.25C181.331 2586.1 178.643 2586.89 177.483 2589.03Z" fill="white"/>
<path d="M196.767 2498.02C195.832 2499.74 196.47 2501.88 198.187 2502.81C199.895 2503.75 202.053 2503.11 202.979 2501.39C203.914 2499.67 203.276 2497.53 201.559 2496.6C199.841 2495.67 197.693 2496.3 196.767 2498.02Z" fill="white"/>
<path d="M775.552 1264.37C776.703 1265.63 778.672 1265.73 779.939 1264.58C781.216 1263.43 781.306 1261.46 780.155 1260.2C779.004 1258.93 777.035 1258.83 775.768 1259.98C774.491 1261.13 774.401 1263.1 775.552 1264.37Z" fill="white"/>
<path d="M536.904 1285.37C538.054 1286.63 540.014 1286.73 541.291 1285.58C542.559 1284.43 542.657 1282.46 541.507 1281.2C540.356 1279.92 538.387 1279.83 537.119 1280.98C535.843 1282.13 535.753 1284.1 536.904 1285.37Z" fill="white"/>
<path d="M512.709 1385.48C513.86 1386.74 515.829 1386.84 517.097 1385.69C518.364 1384.54 518.463 1382.57 517.312 1381.31C516.162 1380.04 514.193 1379.94 512.916 1381.1C511.648 1382.24 511.559 1384.21 512.709 1385.48Z" fill="white"/>
<path d="M1041.57 900.682C1042.5 901.716 1044.1 901.788 1045.14 900.853C1046.17 899.918 1046.24 898.318 1045.31 897.285C1044.37 896.251 1042.77 896.17 1041.74 897.114C1040.71 898.058 1040.63 899.658 1041.57 900.682Z" fill="white"/>
<path d="M839.369 1209.96C840.466 1211.16 842.336 1211.26 843.541 1210.15C844.746 1209.06 844.836 1207.19 843.739 1205.98C842.642 1204.78 840.772 1204.69 839.567 1205.78C838.362 1206.88 838.272 1208.74 839.369 1209.96Z" fill="white"/>
<path d="M637.497 1443.18C638.594 1444.39 640.464 1444.48 641.669 1443.38C642.883 1442.28 642.973 1440.41 641.876 1439.21C640.779 1438 638.909 1437.91 637.704 1439C636.49 1440.11 636.4 1441.98 637.497 1443.18Z" fill="white"/>
<path d="M428.174 1323.07C429.271 1324.27 431.14 1324.36 432.345 1323.27C433.55 1322.17 433.64 1320.3 432.543 1319.1C431.446 1317.89 429.576 1317.8 428.372 1318.9C427.167 1320 427.077 1321.86 428.174 1323.07Z" fill="white"/>
<path d="M475.607 1221.15C476.263 1221.87 477.387 1221.94 478.106 1221.28C478.825 1220.62 478.888 1219.5 478.223 1218.77C477.567 1218.05 476.443 1217.99 475.724 1218.66C474.996 1219.32 474.951 1220.44 475.607 1221.15Z" fill="white"/>
<path d="M698.319 1219.39C698.975 1220.11 700.099 1220.18 700.818 1219.52C701.546 1218.86 701.6 1217.74 700.935 1217.02C700.279 1216.29 699.155 1216.24 698.436 1216.89C697.716 1217.55 697.662 1218.67 698.319 1219.39Z" fill="white"/>
<path d="M620.318 1280.65C620.974 1281.37 622.098 1281.42 622.826 1280.77C623.546 1280.11 623.599 1278.99 622.943 1278.27C622.287 1277.54 621.163 1277.49 620.444 1278.14C619.715 1278.81 619.662 1279.92 620.318 1280.65Z" fill="white"/>
<path d="M508.206 1349C508.862 1349.72 509.986 1349.78 510.714 1349.12C511.442 1348.47 511.496 1347.34 510.831 1346.61C510.174 1345.89 509.051 1345.83 508.322 1346.5C507.603 1347.15 507.549 1348.28 508.206 1349Z" fill="white"/>
<path d="M557.419 1340.12C558.076 1340.84 559.199 1340.9 559.918 1340.23C560.637 1339.58 560.701 1338.45 560.044 1337.74C559.388 1337.01 558.264 1336.96 557.545 1337.61C556.817 1338.28 556.763 1339.4 557.419 1340.12Z" fill="white"/>
<path d="M960.574 998.05C961.509 999.083 963.11 999.155 964.144 998.22C965.177 997.286 965.258 995.686 964.314 994.652C963.379 993.619 961.779 993.547 960.745 994.482C959.72 995.425 959.639 997.016 960.574 998.05Z" fill="white"/>
<path d="M777.656 1013.79C779.293 1015.6 782.089 1015.74 783.896 1014.09C785.703 1012.46 785.838 1009.66 784.193 1007.85C782.557 1006.05 779.76 1005.91 777.953 1007.56C776.155 1009.19 776.02 1011.99 777.656 1013.79Z" fill="white"/>
<path d="M778.159 1186.79C779.805 1188.59 782.592 1188.73 784.399 1187.09C786.206 1185.45 786.341 1182.66 784.704 1180.86C783.068 1179.05 780.263 1178.91 778.465 1180.56C776.658 1182.19 776.523 1184.98 778.159 1186.79Z" fill="white"/>
<path d="M953.518 1350.49C954.174 1351.22 955.298 1351.27 956.017 1350.61C956.737 1349.96 956.8 1348.84 956.143 1348.12C955.487 1347.39 954.363 1347.33 953.635 1347.99C952.916 1348.65 952.862 1349.77 953.518 1350.49Z" fill="white"/>
<path d="M972.298 1350.15C972.954 1350.88 974.078 1350.93 974.806 1350.26C975.525 1349.61 975.588 1348.48 974.923 1347.77C974.266 1347.05 973.143 1346.98 972.423 1347.64C971.686 1348.3 971.641 1349.43 972.298 1350.15Z" fill="white"/>
<path d="M1033.15 1376.42C1034.79 1378.22 1037.58 1378.36 1039.39 1376.72C1041.2 1375.08 1041.33 1372.29 1039.69 1370.48C1038.05 1368.68 1035.26 1368.54 1033.45 1370.19C1031.65 1371.82 1031.52 1374.62 1033.15 1376.42Z" fill="white"/>
<path d="M953.562 1328.2C954.875 1329.64 957.105 1329.76 958.552 1328.44C960 1327.13 960.107 1324.89 958.795 1323.46C957.482 1322.01 955.244 1321.9 953.805 1323.21C952.358 1324.52 952.25 1326.75 953.562 1328.2Z" fill="white"/>
<g opacity="0.63">
<g opacity="0.63">
<path opacity="0.63" d="M590.728 1135.1C590.845 1133.22 589.416 1131.59 587.537 1131.47C585.649 1131.35 584.022 1132.78 583.905 1134.67C583.788 1136.56 585.218 1138.18 587.097 1138.3C588.976 1138.42 590.612 1136.99 590.728 1135.1Z" fill="white"/>
<path opacity="0.63" d="M732.162 1054.12C732.261 1052.58 731.092 1051.27 729.564 1051.17C728.036 1051.07 726.714 1052.23 726.615 1053.77C726.516 1055.31 727.676 1056.62 729.213 1056.72C730.741 1056.81 732.072 1055.66 732.162 1054.12Z" fill="white"/>
<path opacity="0.63" d="M640.835 1019.07C640.934 1017.54 639.774 1016.22 638.237 1016.12C636.7 1016.02 635.378 1017.18 635.279 1018.72C635.18 1020.25 636.349 1021.57 637.878 1021.67C639.415 1021.76 640.736 1020.6 640.835 1019.07Z" fill="white"/>
<path opacity="0.63" d="M1174.53 1038.35C1174.63 1036.81 1173.47 1035.49 1171.93 1035.4C1170.41 1035.3 1169.09 1036.46 1168.99 1038C1168.89 1039.52 1170.05 1040.84 1171.58 1040.94C1173.11 1041.04 1174.43 1039.87 1174.53 1038.35Z" fill="white"/>
<path opacity="0.63" d="M524.746 927.05C524.809 926.133 524.107 925.333 523.181 925.279C522.264 925.216 521.473 925.917 521.41 926.834C521.347 927.751 522.048 928.542 522.966 928.605C523.892 928.667 524.683 927.966 524.746 927.05Z" fill="white"/>
<path opacity="0.63" d="M908.103 982.392C908.22 980.603 906.854 979.057 905.065 978.941C903.276 978.824 901.72 980.19 901.612 981.978C901.496 983.767 902.862 985.312 904.651 985.429C906.449 985.537 907.987 984.18 908.103 982.392Z" fill="white"/>
<path opacity="0.63" d="M1011.87 1148.14C1011.94 1147.06 1011.13 1146.14 1010.05 1146.07C1008.97 1145.99 1008.04 1146.81 1007.98 1147.89C1007.92 1148.96 1008.73 1149.89 1009.8 1149.97C1010.87 1150.04 1011.8 1149.21 1011.87 1148.14Z" fill="white"/>
<path opacity="0.63" d="M997.21 1133.57C997.282 1132.5 996.464 1131.57 995.385 1131.51C994.306 1131.44 993.38 1132.25 993.317 1133.33C993.245 1134.41 994.063 1135.34 995.142 1135.4C996.212 1135.46 997.138 1134.64 997.21 1133.57Z" fill="white"/>
<path opacity="0.63" d="M848.21 1129.44C848.309 1127.91 847.14 1126.59 845.612 1126.49C844.074 1126.39 842.753 1127.55 842.654 1129.09C842.555 1130.62 843.724 1131.94 845.252 1132.04C846.79 1132.14 848.111 1130.98 848.21 1129.44Z" fill="white"/>
<path opacity="0.63" d="M1313.61 1027.72C1313.71 1026.2 1312.54 1024.87 1311.01 1024.78C1309.48 1024.68 1308.16 1025.84 1308.06 1027.37C1307.96 1028.9 1309.12 1030.22 1310.66 1030.32C1312.19 1030.42 1313.51 1029.26 1313.61 1027.72Z" fill="white"/>
<path opacity="0.63" d="M1273.98 1238.43C1274.08 1236.9 1272.91 1235.58 1271.39 1235.48C1269.85 1235.38 1268.53 1236.55 1268.43 1238.08C1268.33 1239.6 1269.49 1240.93 1271.03 1241.02C1272.56 1241.12 1273.88 1239.96 1273.98 1238.43Z" fill="white"/>
<path opacity="0.63" d="M971.343 1065.33C971.514 1062.66 969.482 1060.34 966.803 1060.17C964.124 1060 961.814 1062.04 961.643 1064.71C961.472 1067.39 963.504 1069.7 966.183 1069.87C968.862 1070.04 971.172 1068.01 971.343 1065.33Z" fill="white"/>
<path opacity="0.63" d="M589.278 790.589C589.449 787.91 587.408 785.601 584.729 785.43C582.05 785.259 579.739 787.29 579.569 789.968C579.398 792.647 581.43 794.956 584.109 795.127C586.797 795.307 589.107 793.267 589.278 790.589Z" fill="white"/>
<path opacity="0.63" d="M994.213 1165.19C994.348 1163.05 992.72 1161.2 990.581 1161.06C988.432 1160.92 986.589 1162.55 986.445 1164.69C986.31 1166.84 987.938 1168.68 990.077 1168.82C992.217 1168.97 994.069 1167.34 994.213 1165.19Z" fill="white"/>
<path opacity="0.63" d="M1286.47 1105.88C1286.64 1103.21 1284.61 1100.9 1281.93 1100.73C1279.25 1100.56 1276.94 1102.59 1276.76 1105.27C1276.59 1107.95 1278.62 1110.26 1281.31 1110.43C1283.99 1110.59 1286.31 1108.56 1286.47 1105.88Z" fill="white"/>
<path opacity="0.63" d="M648.542 636.027C648.659 634.14 647.23 632.522 645.342 632.396C643.454 632.271 641.827 633.708 641.71 635.587C641.593 637.474 643.022 639.101 644.901 639.218C646.798 639.343 648.416 637.914 648.542 636.027Z" fill="white"/>
<path opacity="0.63" d="M789.983 555.053C790.082 553.516 788.922 552.204 787.384 552.105C785.856 552.007 784.534 553.166 784.436 554.703C784.337 556.24 785.496 557.552 787.034 557.651C788.562 557.74 789.884 556.581 789.983 555.053Z" fill="white"/>
<path opacity="0.63" d="M698.655 520.004C698.753 518.467 697.585 517.146 696.056 517.047C694.528 516.948 693.206 518.107 693.107 519.644C693.009 521.172 694.168 522.493 695.706 522.592C697.234 522.691 698.556 521.531 698.655 520.004Z" fill="white"/>
<path opacity="0.63" d="M1232.35 539.272C1232.45 537.744 1231.28 536.423 1229.75 536.324C1228.22 536.225 1226.89 537.394 1226.79 538.921C1226.7 540.458 1227.86 541.779 1229.39 541.869C1230.93 541.968 1232.25 540.809 1232.35 539.272Z" fill="white"/>
<path opacity="0.63" d="M582.565 427.975C582.619 427.058 581.918 426.258 581.001 426.204C580.084 426.15 579.292 426.842 579.23 427.759C579.176 428.685 579.868 429.475 580.785 429.529C581.711 429.592 582.502 428.9 582.565 427.975Z" fill="white"/>
<path opacity="0.63" d="M965.92 483.317C966.037 481.52 964.679 479.983 962.881 479.866C961.092 479.75 959.537 481.116 959.429 482.904C959.312 484.692 960.678 486.238 962.468 486.355C964.266 486.472 965.803 485.106 965.92 483.317Z" fill="white"/>
<path opacity="0.63" d="M1103.84 347.917C1103.95 346.129 1102.6 344.583 1100.8 344.466C1099.01 344.349 1097.47 345.715 1097.35 347.504C1097.23 349.301 1098.6 350.838 1100.39 350.955C1102.19 351.072 1103.73 349.714 1103.84 347.917Z" fill="white"/>
<path opacity="0.63" d="M1069.69 649.076C1069.76 648.007 1068.94 647.072 1067.86 647.009C1066.78 646.946 1065.86 647.755 1065.79 648.834C1065.72 649.912 1066.54 650.838 1067.62 650.901C1068.69 650.964 1069.61 650.146 1069.69 649.076Z" fill="white"/>
<path opacity="0.63" d="M1055.03 634.5C1055.1 633.422 1054.28 632.496 1053.2 632.433C1052.13 632.361 1051.2 633.179 1051.13 634.257C1051.07 635.327 1051.89 636.262 1052.96 636.325C1054.03 636.387 1054.95 635.57 1055.03 634.5Z" fill="white"/>
<path opacity="0.63" d="M906.03 630.375C906.129 628.838 904.96 627.517 903.432 627.427C901.903 627.328 900.581 628.487 900.482 630.024C900.384 631.552 901.552 632.873 903.081 632.972C904.609 633.071 905.931 631.902 906.03 630.375Z" fill="white"/>
<path opacity="0.63" d="M1371.42 528.659C1371.52 527.131 1370.36 525.81 1368.83 525.711C1367.3 525.612 1365.98 526.78 1365.88 528.308C1365.78 529.836 1366.94 531.166 1368.48 531.256C1370 531.355 1371.33 530.186 1371.42 528.659Z" fill="white"/>
<path opacity="0.63" d="M1029.16 566.269C1029.33 563.591 1027.3 561.273 1024.62 561.102C1021.94 560.931 1019.62 562.971 1019.45 565.649C1019.28 568.327 1021.32 570.637 1024 570.808C1026.68 570.979 1028.99 568.939 1029.16 566.269Z" fill="white"/>
<path opacity="0.63" d="M647.095 291.514C647.266 288.836 645.225 286.526 642.555 286.356C639.875 286.185 637.565 288.216 637.385 290.894C637.214 293.581 639.246 295.891 641.934 296.062C644.614 296.233 646.924 294.202 647.095 291.514Z" fill="white"/>
<path opacity="0.63" d="M1052.02 666.125C1052.16 663.977 1050.53 662.135 1048.39 661.991C1046.25 661.856 1044.4 663.483 1044.25 665.631C1044.12 667.77 1045.75 669.621 1047.89 669.756C1050.03 669.891 1051.89 668.264 1052.02 666.125Z" fill="white"/>
<path opacity="0.63" d="M1344.29 606.82C1344.46 604.142 1342.43 601.823 1339.75 601.653C1337.07 601.482 1334.76 603.522 1334.59 606.2C1334.42 608.878 1336.45 611.188 1339.13 611.359C1341.81 611.529 1344.12 609.498 1344.29 606.82Z" fill="white"/>
<path opacity="0.63" d="M1132.43 414.046C1132.6 411.367 1130.57 409.058 1127.89 408.887C1125.21 408.716 1122.9 410.747 1122.73 413.425C1122.56 416.113 1124.59 418.422 1127.27 418.584C1129.95 418.755 1132.26 416.724 1132.43 414.046Z" fill="white"/>
</g>
<g opacity="0.63">
<path opacity="0.63" d="M1296.81 826.861C1296.89 825.89 1296.17 825.028 1295.19 824.947C1294.21 824.866 1293.36 825.585 1293.28 826.555C1293.2 827.535 1293.93 828.389 1294.9 828.47C1295.88 828.559 1296.73 827.831 1296.81 826.861Z" fill="white"/>
<path opacity="0.63" d="M1283.77 813.353C1283.85 812.382 1283.12 811.52 1282.15 811.439C1281.18 811.358 1280.32 812.077 1280.24 813.057C1280.16 814.027 1280.88 814.89 1281.85 814.971C1282.83 815.052 1283.69 814.324 1283.77 813.353Z" fill="white"/>
<path opacity="0.63" d="M1261.54 750.919C1261.75 748.493 1259.94 746.354 1257.52 746.147C1255.09 745.94 1252.95 747.747 1252.74 750.182C1252.54 752.609 1254.34 754.748 1256.78 754.954C1259.21 755.152 1261.35 753.346 1261.54 750.919Z" fill="white"/>
</g>
<g opacity="0.63">
<path opacity="0.63" d="M1391.63 1362.3C1392.45 1360.8 1391.89 1358.91 1390.38 1358.08C1388.87 1357.26 1386.98 1357.82 1386.17 1359.33C1385.35 1360.84 1385.91 1362.73 1387.42 1363.55C1388.93 1364.36 1390.81 1363.8 1391.63 1362.3Z" fill="white"/>
<path opacity="0.63" d="M960.436 1231.23C961.101 1230.01 960.652 1228.47 959.42 1227.8C958.198 1227.14 956.66 1227.59 955.995 1228.82C955.329 1230.04 955.779 1231.58 957.011 1232.24C958.234 1232.91 959.771 1232.45 960.436 1231.23Z" fill="white"/>
<path opacity="0.63" d="M927.594 1024.5C928.376 1023.07 927.845 1021.27 926.407 1020.5C924.977 1019.72 923.179 1020.25 922.406 1021.68C921.624 1023.11 922.163 1024.91 923.593 1025.68C925.031 1026.47 926.821 1025.93 927.594 1024.5Z" fill="white"/>
<path opacity="0.63" d="M1374.64 1450.02C1375.11 1449.16 1374.79 1448.08 1373.93 1447.62C1373.07 1447.15 1372 1447.48 1371.53 1448.34C1371.06 1449.19 1371.39 1450.27 1372.24 1450.74C1373.1 1451.2 1374.17 1450.87 1374.64 1450.02Z" fill="white"/>
<path opacity="0.63" d="M1079.1 1275.54C1079.77 1274.32 1079.32 1272.78 1078.08 1272.12C1076.86 1271.45 1075.32 1271.91 1074.66 1273.14C1073.99 1274.36 1074.44 1275.89 1075.67 1276.56C1076.91 1277.22 1078.43 1276.77 1079.1 1275.54Z" fill="white"/>
<path opacity="0.63" d="M1154.31 1442.97C1155.47 1440.83 1154.67 1438.14 1152.53 1436.98C1150.39 1435.82 1147.71 1436.61 1146.54 1438.75C1145.38 1440.89 1146.17 1443.58 1148.31 1444.74C1150.46 1445.9 1153.15 1445.1 1154.31 1442.97Z" fill="white"/>
<path opacity="0.63" d="M925.906 1089.9C927.066 1087.76 926.274 1085.07 924.135 1083.91C921.995 1082.74 919.307 1083.54 918.147 1085.68C916.987 1087.82 917.778 1090.51 919.927 1091.67C922.067 1092.85 924.746 1092.05 925.906 1089.9Z" fill="white"/>
<path opacity="0.63" d="M1022.66 870.413C1023.13 869.55 1022.82 868.481 1021.95 868.013C1021.1 867.546 1020.02 867.869 1019.55 868.723C1019.08 869.586 1019.4 870.655 1020.26 871.132C1021.13 871.599 1022.2 871.276 1022.66 870.413Z" fill="white"/>
<path opacity="0.63" d="M1016.14 852.816C1016.61 851.953 1016.29 850.884 1015.43 850.417C1014.57 849.949 1013.49 850.273 1013.03 851.126C1012.56 851.98 1012.89 853.059 1013.74 853.526C1014.6 853.993 1015.68 853.67 1016.14 852.816Z" fill="white"/>
<path opacity="0.63" d="M1020.88 786.707C1022.04 784.568 1021.25 781.88 1019.11 780.721C1016.96 779.562 1014.28 780.353 1013.11 782.501C1011.95 784.64 1012.74 787.327 1014.89 788.486C1017.03 789.645 1019.72 788.845 1020.88 786.707Z" fill="white"/>
<path opacity="0.63" d="M1001.6 877.728C1002.52 876.012 1001.89 873.864 1000.18 872.938C998.468 872.004 996.319 872.642 995.384 874.358C994.449 876.075 995.087 878.223 996.804 879.148C998.522 880.083 1000.67 879.445 1001.6 877.728Z" fill="white"/>
</g>
</g>
</g>
<defs>
<clipPath id="clip0">
<path d="M1444 0H2V472H1444V0Z" fill="white"/>
</clipPath>
</defs>
</svg>
