<svg width="196" height="70" viewBox="0 0 196 70" fill="none" xmlns="http://www.w3.org/2000/svg">
<path fill-rule="evenodd" clip-rule="evenodd" d="M92.088 0.0805801C93.8245 -0.0669001 95.6114 -0.0155737 97.4225 0.264635L97.4232 0.264742C99.0606 0.518887 100.592 0.931594 102.016 1.47895L101.019 3.01384C99.7688 2.53295 98.4241 2.17042 96.9833 1.94674M92.088 0.0805801L92.3324 1.78598L92.088 0.0805801ZM92.3324 1.78598C93.8447 1.65754 95.4008 1.70193 96.9831 1.9467L92.3324 1.78598ZM75.4731 9.14823C77.2957 6.81082 79.6491 4.74073 82.3795 3.16256L83.718 4.53455C81.2397 5.96701 79.0736 7.86473 77.3843 10.0312L75.4731 9.14823ZM109.312 6.24932C111.189 8.14755 112.657 10.3517 113.727 12.6881L111.625 13.2588C110.619 11.0631 109.253 9.02301 107.538 7.28835L109.312 6.24932ZM71.3437 20.6285C71.3056 19.2877 71.457 17.9401 71.7758 16.6122L73.9677 16.924C73.6749 18.1439 73.5376 19.3743 73.5722 20.591C73.6085 21.8648 73.7695 23.1205 74.0404 24.359L71.8423 24.6438C71.5544 23.3277 71.3824 21.9893 71.3437 20.6285ZM115.741 19.7528C115.895 20.9681 115.954 22.1811 115.919 23.3721L114.805 23.3525L115.919 23.3716C115.919 23.3718 115.919 23.3719 115.919 23.3721C115.883 24.6114 115.771 25.8338 115.587 27.0382L113.373 26.8375C113.549 25.6865 113.656 24.5181 113.691 23.3335L113.691 23.3329C113.724 22.2121 113.668 21.0679 113.522 19.9196L115.741 19.7528ZM79.7114 39.3289C77.8608 37.0729 76.1945 34.7354 74.8446 32.314L76.893 31.6374C78.1866 33.9577 79.793 36.2146 81.5962 38.4129L79.7114 39.3289ZM113.585 34.2132C112.626 36.563 111.397 38.8229 109.941 40.9833L107.962 40.1931C109.362 38.1165 110.541 35.9487 111.459 33.699L113.585 34.2132ZM88.7791 48.8798C87.7208 47.8675 86.6621 46.8373 85.6192 45.7892L87.3887 44.7459C88.418 45.7802 89.4651 46.7993 90.5158 47.8043L90.5159 47.8044C91.2473 48.5043 92.0092 49.1762 92.7985 49.824L91.1725 50.9976C90.3468 50.3199 89.5477 49.6153 88.7791 48.8798ZM104.907 47.1878C103.026 49.1529 100.959 51.0083 98.7513 52.7449L97.1583 51.5447C99.2978 49.8621 101.296 48.0674 103.112 46.1702L104.907 47.1878ZM196 53.1109C194.964 53.8495 193.774 54.5848 192.45 55.3097L191.158 53.9119C192.417 53.2217 193.532 52.5324 194.485 51.8524L196 53.1109ZM102.233 58.1638C100.261 57.1028 98.3308 55.9967 96.4773 54.8138L97.9 53.493C99.6947 54.6384 101.573 55.7158 103.51 56.7575L102.233 58.1638ZM91.6996 57.6169C89.1953 59.1388 86.587 60.528 83.9208 61.7746L82.7636 60.3081C85.3534 59.0973 87.8867 57.748 90.3184 56.2702L91.6996 57.6169ZM184.703 58.8681C182.185 59.8564 179.442 60.8041 176.535 61.6874L175.716 60.0915C178.564 59.2264 181.241 58.3009 183.69 57.3396L184.703 58.8681ZM110.595 62.4037C109.795 62.0103 108.995 61.6167 108.199 61.2218L109.405 59.7792C110.2 60.1729 110.997 60.5652 111.797 60.9589C111.999 61.0582 112.201 61.1575 112.403 61.257C113.588 61.8402 114.84 62.3642 116.151 62.8318L115.214 64.3887C113.817 63.8906 112.477 63.3299 111.202 62.7024L111.802 61.9797L111.202 62.7024C111 62.6028 110.797 62.5033 110.595 62.4037ZM168.09 63.9547C165.285 64.6149 162.391 65.2078 159.448 65.7166L158.959 64.0426C161.846 63.5435 164.686 62.9617 167.438 62.3139L168.09 63.9547ZM4.33873 66.0864C2.52275 65.6446 1.0392 65.2023 0 64.7844L1.03223 63.2637C1.90369 63.6142 3.24606 64.0212 5.01052 64.4505L4.33873 66.0864ZM75.5354 65.1659C74.073 65.669 72.6069 66.1287 71.1441 66.5433C69.735 66.9428 68.2898 67.3021 66.8158 67.6239L66.2076 65.9733C67.6307 65.6626 69.0216 65.3167 70.3735 64.9333L70.3737 64.9332C71.7885 64.5322 73.2082 64.0872 74.6258 63.5995L75.5354 65.1659ZM132.757 67.5661C129.685 67.4064 126.692 67.0909 123.83 66.5967L124.318 64.9226C127.055 65.3952 129.934 65.6997 132.907 65.8543L132.757 67.5661ZM150.651 66.9591C147.676 67.2832 144.691 67.5083 141.737 67.6173L141.63 65.9035C144.51 65.7973 147.426 65.5776 150.339 65.2603L150.651 66.9591ZM21.9933 68.9498C18.806 68.6126 15.8171 68.2153 13.1117 67.7891L13.5586 66.1082C16.2155 66.5268 19.1565 66.9178 22.2968 67.25L21.9933 68.9498ZM57.9507 69.0965C54.9958 69.4511 51.9838 69.6915 48.9633 69.8359L48.8251 68.1235C51.785 67.9819 54.728 67.7467 57.6073 67.4012L57.9507 69.0965ZM39.946 70C36.8906 69.9706 33.8733 69.86 30.9451 69.6871L31.1155 67.9764C33.9999 68.1467 36.9696 68.2555 39.9739 68.2844L39.946 70Z" fill="white"/>
</svg>
