<svg width="1440" height="679" viewBox="0 0 1440 679" fill="none" xmlns="http://www.w3.org/2000/svg">
<g clip-path="url(#clip0)">
<path d="M-1 606.836H432.328L432.343 606.624H786.735H853.901H1420.21V328.204C1403.23 328.111 1375.53 332.693 1353.5 359.141C1319.2 400.288 1326.06 444.376 1326.06 444.376C1326.06 444.376 1260.9 428.206 1242.05 488.464C1242.05 488.464 1195.76 439.966 1134.03 484.054C1134.03 484.054 1094.59 442.906 1044.88 476.704C1044.88 476.704 1039.73 412.036 954.002 428.206C954.002 428.206 931.39 389.747 881.157 413.453C870.772 402.739 803.515 385.76 784.268 441.436C775.984 441.94 768.493 444.88 762.752 449.475C752.474 440.086 737.993 434.166 721.868 434.166C695.312 434.166 673.081 450.19 667.142 471.711C654.9 465.235 640.51 461.514 625.146 461.514C580.334 461.514 543.987 493.126 543.987 532.102C543.987 532.446 544.017 532.817 544.017 533.188C538.399 529.93 531.668 528.023 524.42 528.023C509.65 528.023 496.966 535.903 491.652 547.094C486.338 535.903 473.654 528.023 458.853 528.023C449.763 528.023 441.479 531.056 435.221 535.93C435.221 535.93 390.058 472.453 291.281 530.619C291.281 530.619 257.645 466.56 194.849 496.98C194.849 496.98 159.431 442.006 105.68 462.242C105.68 462.242 89.6459 415.731 38.7575 439.754C42.5186 424.802 21.277 409.135 -0.954319 409.797L-1 606.836Z" fill="#FD9617"/>
<path d="M680.465 482.412C675.79 478.32 670.568 474.717 664.857 471.711C670.811 450.19 693.027 434.166 719.598 434.166C724.76 434.166 729.739 434.814 734.49 435.953C705.331 436.933 681.912 457.13 680.465 482.412Z" fill="#E07F0B"/>
<path d="M781.984 441.449C778.405 433.543 776.426 424.934 776.426 415.929C776.426 377.39 812.346 346.148 856.656 346.148C874.091 346.148 890.232 351.009 903.388 359.22C903.434 359.246 903.479 359.273 903.525 359.299C910.392 351.366 919.909 345.248 931.01 342.109C917.549 329.395 909.311 312.443 909.311 293.823C909.311 254.476 945.993 222.599 991.202 222.599C995.237 222.599 999.18 222.85 1003.05 223.34C1001.31 217.487 1000.38 211.315 1000.38 204.985C1000.38 164.525 1038.07 131.734 1084.6 131.734C1110.84 131.734 1134.24 142.157 1149.68 158.526C1159.99 146.646 1176.28 138.965 1194.66 138.965C1204.18 138.965 1213.12 141.018 1220.99 144.647C1220.96 143.759 1220.9 142.872 1220.9 141.985C1220.9 95.9764 1263.78 58.6824 1316.71 58.6824C1332.47 58.6824 1347.34 62.0198 1360.44 67.8735C1357.68 62.0728 1356.1 55.7026 1356.1 49.0278C1356.08 21.9579 1381.33 0 1412.45 0C1422.47 0 1431.85 2.25141 1440 6.27747V91.7782V455.951V606.624H851.616V606.014C814.645 604.213 785.303 577.58 785.303 544.975C785.303 514.753 810.519 489.669 843.653 484.729C815.437 480.73 792.17 463.963 781.984 441.449Z" fill="#FD9617"/>
<g style="mix-blend-mode:lighten">
<path d="M781.984 441.449C778.405 433.543 776.426 424.934 776.426 415.929C776.426 377.39 812.346 346.148 856.656 346.148C874.091 346.148 890.232 351.009 903.388 359.22C903.434 359.246 903.479 359.273 903.525 359.299C910.392 351.366 919.909 345.248 931.01 342.109C917.549 329.395 909.311 312.443 909.311 293.823C909.311 254.476 945.993 222.599 991.202 222.599C995.237 222.599 999.18 222.85 1003.05 223.34C1001.31 217.487 1000.38 211.315 1000.38 204.985C1000.38 164.525 1038.07 131.734 1084.6 131.734C1110.84 131.734 1134.24 142.157 1149.68 158.526C1159.99 146.646 1176.28 138.965 1194.66 138.965C1204.18 138.965 1213.12 141.018 1220.99 144.647C1220.96 143.759 1220.9 142.872 1220.9 141.985C1220.9 95.9764 1263.78 58.6824 1316.71 58.6824C1332.47 58.6824 1347.34 62.0198 1360.44 67.8735C1357.68 62.0728 1356.1 55.7026 1356.1 49.0278C1356.08 21.9579 1381.33 0 1412.45 0C1422.47 0 1431.85 2.25141 1440 6.27747V91.7782V455.951V606.624H851.616V606.014C814.645 604.213 785.303 577.58 785.303 544.975C785.303 514.753 810.519 489.669 843.653 484.729C815.437 480.73 792.17 463.963 781.984 441.449Z" fill="url(#paint0_radial)"/>
</g>
<path d="M857.645 346.625C858.224 346.625 858.787 346.651 859.35 346.665C823.08 353.075 795.793 380.966 795.793 414.406C795.793 426.325 799.265 437.529 805.371 447.316C808.797 452.812 813.076 457.845 818.025 462.321C832.11 475.048 851.752 483.087 873.557 483.485C868.41 484.398 863.096 484.875 857.645 484.875C843.834 484.875 830.846 481.803 819.532 476.412C803.407 468.731 790.708 456.335 783.825 441.357C780.186 433.437 778.176 424.802 778.176 415.757C778.176 377.575 813.761 346.625 857.645 346.625Z" fill="#E07F0B"/>
<path d="M962.165 341.129C957.81 340.188 953.272 339.632 948.567 339.632C942.431 339.632 936.538 340.519 931.011 342.095C917.535 329.408 909.297 312.443 909.297 293.809C909.297 267.375 925.864 244.331 950.44 232.041C935.655 244.927 926.503 262.713 926.503 282.353C926.519 306.761 940.649 328.296 962.165 341.129Z" fill="#E07F0B"/>
<path d="M1030.59 212.203C1030.59 212.746 1030.62 213.275 1030.64 213.818C1023.57 212.083 1016.11 211.143 1008.41 211.143C1005.8 211.143 1003.25 211.262 1000.7 211.461C1000.49 209.329 1000.35 207.17 1000.35 204.985C1000.35 164.526 1038.06 131.734 1084.57 131.734C1097.88 131.734 1110.46 134.423 1121.65 139.204C1119.38 139.045 1117.11 138.939 1114.8 138.939C1068.3 138.952 1030.59 171.743 1030.59 212.203Z" fill="#E07F0B"/>
<path d="M1030.64 213.805C1030.81 220.52 1031.99 226.996 1034.11 233.141C1024.82 228.161 1014.3 224.744 1003.03 223.327C1001.89 219.487 1001.11 215.514 1000.72 211.448C1003.25 211.236 1005.82 211.13 1008.42 211.13C1016.11 211.13 1023.57 212.083 1030.64 213.805Z" fill="#E07F0B"/>
<path d="M424.194 640.735H-0.804688L-0.803084 229.737V129.138C1.72459 128.847 4.25225 128.648 6.84083 128.648C39.0458 128.648 65.1904 151.374 65.1904 179.398C65.1904 188.364 62.4952 196.787 57.8053 204.097C58.0947 204.071 58.3992 204.044 58.6581 204.044C72.6516 204.044 84.0109 213.672 84.5895 225.724C90.7564 221.129 98.7658 218.361 107.506 218.361C127.103 218.361 143 232.187 143 249.232C143 249.549 142.97 249.827 142.939 250.145C146.487 249.576 150.157 249.232 153.902 249.232C186.107 249.232 212.252 271.958 212.252 299.981C212.252 324.733 191.894 345.301 164.942 349.817C166.328 354.386 167.104 359.153 167.104 364.067C167.104 390.594 146.182 412.817 117.921 419.041C124.56 423.809 128.763 431 128.763 439.065C128.763 439.9 128.702 440.694 128.595 441.489C129.646 441.436 130.697 441.37 131.747 441.37C140.975 441.37 149.35 444.456 155.654 449.475C165.642 425.491 192.031 408.354 223.033 408.354C262.562 408.354 294.645 436.218 294.645 470.638C294.645 477.154 293.457 483.432 291.325 489.338C296.944 490.331 302.03 492.503 306.324 495.51C318.795 479.353 339.975 468.691 364.019 468.691C402.375 468.691 433.423 495.735 433.423 529.056C433.423 530.645 433.317 532.208 433.164 533.771C452.32 537.346 466.679 552.139 466.679 569.873C466.679 588.546 450.736 603.935 430.058 606.412L430.043 606.65" fill="#FD9617"/>
<g style="mix-blend-mode:lighten">
<path d="M424.196 646.434H-0.802734V229.737V129.138C1.72493 128.847 4.2526 128.648 6.84118 128.648C39.0461 128.648 65.1908 151.374 65.1908 179.398C65.1908 188.364 62.4956 196.787 57.8057 204.097C58.095 204.071 58.3995 204.044 58.6584 204.044C72.6519 204.044 84.0112 213.672 84.5899 225.724C90.7568 221.129 98.7661 218.361 107.506 218.361C127.103 218.361 143 232.187 143 249.232C143 249.549 142.97 249.827 142.939 250.145C146.487 249.576 150.157 249.232 153.903 249.232C186.108 249.232 212.252 271.958 212.252 299.981C212.252 324.733 191.894 345.301 164.942 349.817C166.328 354.386 167.105 359.153 167.105 364.067C167.105 390.594 146.183 412.817 117.922 419.041C124.561 423.809 128.763 431 128.763 439.065C128.763 439.9 128.702 440.694 128.596 441.489C129.646 441.436 130.697 441.37 131.748 441.37C140.975 441.37 149.35 444.456 155.654 449.475C165.643 425.491 192.031 408.354 223.033 408.354C262.562 408.354 294.645 436.218 294.645 470.638C294.645 477.154 293.458 483.432 291.326 489.338C296.945 490.331 302.03 492.503 306.324 495.51C318.795 479.353 339.976 468.691 364.019 468.691C402.376 468.691 433.423 495.735 433.423 529.056C433.423 530.645 433.317 532.208 433.165 533.771C452.32 537.346 466.679 552.139 466.679 569.873C466.679 588.546 465.299 643.958 444.621 646.434L430.043 606.65" fill="url(#paint1_radial)"/>
</g>
<path d="M128.856 237.631C124.974 228.347 116.157 221.156 105.133 218.467C105.925 218.414 106.716 218.361 107.523 218.361C122.278 218.361 134.932 226.202 140.277 237.353C138.952 237.273 137.627 237.18 136.287 237.18C133.759 237.167 131.293 237.353 128.856 237.631Z" fill="#E07F0B"/>
<path d="M83.1895 219.248C87.0419 218.003 91.1988 217.288 95.5385 217.288C98.858 217.288 102.071 217.712 105.131 218.454C97.32 218.904 90.1938 221.539 84.5751 225.698C84.4685 223.446 83.9965 221.288 83.1895 219.248Z" fill="#E07F0B"/>
<path d="M200.346 414.406C197.133 414.406 193.966 414.605 190.859 414.962C200.528 410.724 211.446 408.327 223.019 408.327C262.563 408.327 294.616 436.205 294.616 470.599C294.616 477.128 293.458 483.405 291.311 489.312C284.901 507.005 269.674 521.282 250.092 528.248C249.468 526.394 249.026 524.474 248.813 522.5C259.091 514.276 266.583 503.456 269.948 491.245C271.242 486.57 271.943 481.697 271.943 476.664C271.943 442.284 239.89 414.406 200.346 414.406Z" fill="#E07F0B"/>
<path d="M149.914 352.85C149.914 352.068 149.823 351.314 149.777 350.545C151.148 350.625 152.503 350.731 153.889 350.731C157.665 350.731 161.35 350.386 164.928 349.791C166.283 354.36 167.09 359.127 167.09 364.054C167.09 390.568 146.169 412.777 117.907 419.028C112.745 415.307 106.106 413.055 98.8585 413.055C92.3413 413.055 86.3267 414.896 81.4236 417.982C71.1302 415.042 61.9788 409.93 54.6699 403.282C63.6538 407.321 73.8102 409.652 84.6213 409.652C120.694 409.625 149.914 384.211 149.914 352.85Z" fill="#E07F0B"/>
<path d="M117.923 419.015C112.761 420.154 107.386 420.829 101.813 420.829C94.6865 420.829 87.8496 419.796 81.4238 417.969C86.3269 414.883 92.3415 413.042 98.8587 413.042C106.122 413.055 112.761 415.293 117.923 419.015Z" fill="#E07F0B"/>
<path d="M194.635 287.929C194.635 275.255 189.26 263.693 180.413 254.793C199.294 263.203 212.252 280.248 212.252 299.967C212.252 324.706 191.879 345.287 164.942 349.79C163.374 344.545 160.983 339.606 157.877 335.063C179.408 327.58 194.635 309.317 194.635 287.929Z" fill="#E07F0B"/>
<path d="M149.778 350.532C149.58 346.109 148.804 341.818 147.494 337.712C151.088 337.103 154.544 336.189 157.864 335.037C160.97 339.58 163.376 344.52 164.929 349.764C161.351 350.36 157.666 350.704 153.889 350.704C152.504 350.718 151.149 350.625 149.778 350.532Z" fill="#E07F0B"/>
<path d="M100.549 279.454C99.666 279.295 98.798 279.096 97.9453 278.884C98.9807 278.818 100.016 278.725 101.036 278.58C100.869 278.884 100.701 279.162 100.549 279.454Z" fill="#E07F0B"/>
<path d="M142.94 250.132C138.585 250.848 134.398 251.987 130.439 253.51C130.789 251.761 131.002 249.974 131.002 248.146C131.002 244.451 130.21 240.915 128.84 237.63C131.276 237.366 133.743 237.18 136.255 237.18C137.611 237.18 138.92 237.273 140.245 237.352C141.996 241.008 142.97 245.007 142.97 249.205C143.001 249.523 142.955 249.828 142.94 250.132Z" fill="#E07F0B"/>
<path d="M130.439 253.509C134.398 251.999 138.586 250.86 142.941 250.132C142.377 266.739 126.754 280.062 107.523 280.062C105.132 280.062 102.802 279.851 100.549 279.453C100.701 279.162 100.869 278.871 101.036 278.579C115.989 276.566 127.835 266.435 130.439 253.509Z" fill="#E07F0B"/>
<path d="M250.106 528.248C244.548 530.221 238.656 531.598 232.504 532.313C238.473 529.704 243.955 526.394 248.812 522.5C249.025 524.473 249.467 526.394 250.106 528.248Z" fill="#ED860C"/>
<path d="M-0.802734 273.202V417.293C0.81132 417.439 2.4406 417.492 4.08511 417.492C33.336 417.492 57.0748 396.845 57.0748 371.404C57.0748 353.578 45.4262 338.162 28.3721 330.481C36.488 324.482 41.6347 315.569 41.6347 305.583C41.6347 287.532 24.8242 272.911 4.06988 272.911C2.41015 272.911 0.796093 273.004 -0.802734 273.202Z" fill="#ED860C"/>
<path d="M105.924 282.751C105.924 273.56 97.3663 266.117 86.7989 266.117C76.2314 266.117 67.6738 273.56 67.6738 282.751C67.6738 291.942 76.2314 299.385 86.7989 299.385C97.3511 299.385 105.924 291.928 105.924 282.751Z" fill="#ED860C"/>
<path d="M1440 558.908V275.799V144.131C1425.55 151.322 1415.81 164.857 1415.81 180.392C1415.81 192.073 1421.35 202.641 1430.26 210.203C1420.66 211.607 1412.33 216.11 1406.58 222.48C1396.44 216.918 1384.42 213.633 1371.51 213.633C1335.19 213.633 1305.74 239.246 1305.74 270.833C1305.74 278.368 1307.48 285.533 1310.51 292.141C1304.15 289.427 1297.02 287.864 1289.44 287.864C1262.91 287.864 1241.37 306.564 1241.37 329.647C1241.37 348.122 1255.19 363.75 1274.27 369.286C1253.71 370.491 1237.44 385.337 1237.44 403.52C1237.44 403.918 1237.47 404.262 1237.5 404.633C1226.85 389.019 1207.32 378.477 1184.9 378.477C1151.15 378.477 1123.8 402.262 1123.8 431.623C1123.8 434.961 1124.19 438.219 1124.85 441.423C1118.54 437.649 1110.9 435.451 1102.65 435.451C1081.01 435.451 1063.44 450.588 1063.15 469.341C1056.19 461.408 1045.23 456.256 1032.88 456.256C1011.83 456.256 994.796 471.076 994.796 489.379C994.796 493.325 995.618 497.06 997.065 500.569C988.477 496.795 972.884 493.59 955.404 500.132C936.34 507.271 915.875 525.666 915.875 558.881V558.908V558.934C914.078 588.745 940.573 632.635 997.065 617.246C988.126 632.118 985.736 650.778 989.238 669.942H1440.02V558.908H1440Z" fill="#ED860C"/>
<path d="M291.007 535.969C291.007 530.155 285.601 525.454 278.916 525.454C272.232 525.454 266.826 530.155 266.826 535.969C266.826 541.783 272.232 546.484 278.916 546.484C285.601 546.484 291.007 541.77 291.007 535.969Z" fill="#ED860C"/>
<path d="M54.351 469.393C54.351 465.46 50.6813 462.268 46.1589 462.268C41.6365 462.268 37.9668 465.46 37.9668 469.393C37.9668 473.326 41.6365 476.518 46.1589 476.518C50.6813 476.518 54.351 473.326 54.351 469.393Z" fill="#ED860C"/>
<path d="M90.3927 499.853C90.3927 491.854 82.9315 485.365 73.7344 485.365C64.5374 485.365 57.0762 491.854 57.0762 499.853C57.0762 507.852 64.5374 514.342 73.7344 514.342C82.9315 514.342 90.3927 507.866 90.3927 499.853Z" fill="#ED860C"/>
<path d="M750.206 519.534C750.206 513.72 744.8 509.018 738.116 509.018C731.431 509.018 726.025 513.72 726.025 519.534C726.025 525.347 731.431 530.049 738.116 530.049C744.785 530.049 750.206 525.334 750.206 519.534Z" fill="#E07F0B"/>
<path d="M843.287 582.613C864.076 582.613 880.928 567.955 880.928 549.874C880.928 531.794 864.076 517.136 843.287 517.136C822.499 517.136 805.646 531.794 805.646 549.874C805.646 567.955 822.499 582.613 843.287 582.613Z" fill="#E07F0B"/>
<path d="M1060.22 289.683C1069.54 280.269 1068.31 266.07 1057.49 257.969C1046.67 249.868 1030.34 250.932 1021.03 260.346C1011.71 269.76 1012.93 283.959 1023.76 292.06C1034.58 300.162 1050.91 299.097 1060.22 289.683Z" fill="#E07F0B"/>
<path d="M1089.03 390.25C1089.03 381.562 1080.93 374.516 1070.95 374.516C1060.96 374.516 1052.86 381.562 1052.86 390.25C1052.86 398.937 1060.96 405.983 1070.95 405.983C1080.93 405.983 1089.03 398.951 1089.03 390.25Z" fill="#E07F0B"/>
<path d="M966.505 455.858C966.505 450.044 961.099 445.343 954.414 445.343C947.73 445.343 942.324 450.044 942.324 455.858C942.324 461.672 947.73 466.374 954.414 466.374C961.099 466.374 966.505 461.672 966.505 455.858Z" fill="#E07F0B"/>
<path d="M1239.36 362.028C1239.36 356.214 1233.94 351.512 1227.27 351.512C1220.6 351.512 1215.18 356.214 1215.18 362.028C1215.18 367.842 1220.58 372.543 1227.27 372.543C1233.95 372.543 1239.36 367.842 1239.36 362.028Z" fill="#E07F0B"/>
<path d="M978.853 301.293C985.673 301.293 991.202 296.484 991.202 290.552C991.202 284.62 985.673 279.812 978.853 279.812C972.033 279.812 966.504 284.62 966.504 290.552C966.504 296.484 972.033 301.293 978.853 301.293Z" fill="#E07F0B"/>
<path d="M1320.62 461.183C1326.83 461.183 1332.86 461.778 1338.68 462.891C1340.84 447.754 1355.69 435.993 1373.69 435.993C1373.75 435.993 1373.79 436.02 1373.85 436.02C1370.31 427.597 1368.4 418.512 1368.4 409.029C1368.4 371.192 1399.1 339.553 1440.02 332.018V558.894V678.987C1398.13 674.656 1392.98 666.737 1388.03 644.991C1386.78 639.548 1387.5 634.33 1389.95 629.482C1389.89 629.482 1389.84 629.469 1389.78 629.496C1371.74 636.594 1355.35 631.045 1351.26 614.04C1345.59 614.676 1339.62 615.02 1333.43 615.02C1287.59 615.02 1256.62 588.308 1242.98 558.881C1239.54 550.948 1237.63 542.353 1237.63 533.347C1237.62 493.51 1274.79 461.183 1320.62 461.183Z" fill="#E07F0B"/>
<path d="M1312.81 441.687C1327.17 441.687 1338.82 431.56 1338.82 419.067C1338.82 406.574 1327.17 396.447 1312.81 396.447C1298.45 396.447 1286.8 406.574 1286.8 419.067C1286.8 431.56 1298.45 441.687 1312.81 441.687Z" fill="#E07F0B"/>
<path d="M1212.8 504.237C1212.8 499.337 1208.23 495.364 1202.6 495.364C1196.96 495.364 1192.39 499.337 1192.39 504.237C1192.39 509.138 1196.96 513.111 1202.6 513.111C1208.22 513.111 1212.8 509.138 1212.8 504.237Z" fill="#E07F0B"/>
<path d="M1345.56 384.541C1351.2 384.541 1355.77 380.568 1355.77 375.668C1355.77 370.767 1351.2 366.794 1345.56 366.794C1339.93 366.794 1335.36 370.767 1335.36 375.668C1335.36 380.568 1339.93 384.541 1345.56 384.541Z" fill="#E07F0B"/>
<path d="M1057.52 530.072C1068.29 527.852 1074.96 518.453 1072.41 509.079C1069.85 499.705 1059.05 493.906 1048.27 496.127C1037.49 498.347 1030.83 507.746 1033.38 517.12C1035.93 526.493 1046.74 532.292 1057.52 530.072Z" fill="#E07F0B"/>
<path d="M1414.32 290.623C1422.15 283.812 1422.15 272.768 1414.32 265.957C1406.49 259.146 1393.79 259.146 1385.96 265.957C1378.13 272.768 1378.13 283.812 1385.96 290.623C1393.79 297.435 1406.49 297.435 1414.32 290.623Z" fill="#E07F0B"/>
<path d="M1143.81 624.012C1177.07 624.012 1204.04 600.555 1204.04 571.62C1204.04 542.685 1177.07 519.229 1143.81 519.229C1110.54 519.229 1083.57 542.685 1083.57 571.62C1083.57 600.555 1110.54 624.012 1143.81 624.012Z" fill="#E07F0B"/>
<path d="M100.716 609.75C100.609 608.584 100.518 607.419 100.518 606.24C100.518 583.673 121.561 565.371 147.508 565.371H147.523C147.005 563.45 146.701 561.464 146.701 559.411C146.701 545.095 160.04 533.493 176.5 533.493C177.886 533.493 179.241 533.599 180.581 533.758C181.068 533.811 181.54 533.877 182.027 533.943C182.332 533.996 182.636 534.049 182.941 534.102C183.58 534.222 184.25 534.301 184.875 534.447V534.539C196.067 537.387 204.502 545.783 206.025 556.087C219.653 559.411 230.114 569.277 232.626 581.567C234.941 581.064 237.332 580.773 239.829 580.773C256.289 580.773 269.628 592.374 269.628 606.691C269.628 607.724 269.536 608.743 269.399 609.75H169.13H100.716V609.75Z" fill="#ED860C"/>
</g>
<defs>
<radialGradient id="paint0_radial" cx="0" cy="0" r="1" gradientUnits="userSpaceOnUse" gradientTransform="translate(1028.89 171.277) scale(393.82 342.525)">
<stop stop-color="#D37575"/>
<stop offset="0.9946" stop-color="#58448B" stop-opacity="0"/>
</radialGradient>
<radialGradient id="paint1_radial" cx="0" cy="0" r="1" gradientUnits="userSpaceOnUse" gradientTransform="translate(168.639 325.949) scale(292.418 254.33)">
<stop stop-color="#D37575"/>
<stop offset="0.9946" stop-color="#58448B" stop-opacity="0"/>
</radialGradient>
<clipPath id="clip0">
<rect width="1441" height="679" fill="white" transform="translate(-1)"/>
</clipPath>
</defs>
</svg>
