<svg width="39" height="39" viewBox="0 0 39 39" fill="none" xmlns="http://www.w3.org/2000/svg">
<path d="M9.80469 7.24609C16.4388 16.5297 23.3858 25.6001 30.619 34.4217Z" fill="white"/>
<path d="M15.5977 36.4032C18.4319 25.103 21.8473 13.9538 25.8081 3Z" fill="white"/>
<path d="M23.6721 5.02674C24.5393 5.96842 26.0593 6.27936 27.2126 5.70191C29.7161 4.44929 28.7505 1.29553 26.6047 0.282774C23.6095 -1.11199 21.8124 3.00122 23.6721 5.02674Z" fill="white"/>
<path d="M7.79339 4.54802C8.03479 4.43253 8.31196 4.34369 8.62489 4.29927C10.118 4.08606 11.8615 4.54802 12.4695 6.01385C12.693 6.55576 12.8092 7.16875 12.6214 7.72843C12.5142 8.0216 12.3264 8.29699 12.1208 8.53686C11.4234 9.3364 10.3952 9.86055 9.33122 9.84278C6.64002 9.79836 5.50453 5.68515 7.79339 4.54802Z" fill="white"/>
<path d="M36.9394 17.207C25.5309 19.9521 14.0151 22.2619 2.42773 24.1275Z" fill="white"/>
<path d="M36.4925 14.9337C37.467 14.9248 38.5221 15.5556 38.8707 16.6394C39.2016 17.6521 38.8439 18.8426 38.0214 19.5177C37.771 19.7221 37.476 19.882 37.1541 19.9353C36.1796 20.0952 35.3302 19.2068 34.9457 18.3007C34.7132 17.7587 34.5791 17.1635 34.6685 16.5861C34.8474 15.4489 35.6342 14.9426 36.4925 14.9337Z" fill="white"/>
<path d="M0.00511082 23.8706C-0.0574751 24.9899 0.461094 26.0738 1.21213 26.9088C1.56976 27.3086 2.00786 27.6728 2.53537 27.7617C3.11653 27.8594 3.69768 27.6018 4.19837 27.282C5.08352 26.7134 5.85243 25.8161 5.90607 24.7678C5.94184 24.0038 5.60209 23.2842 5.27127 22.6002C3.93909 19.8551 0.157105 20.9744 0.00511082 23.8706Z" fill="white"/>
<path d="M12.9065 34.7621C12.835 35.2507 12.9512 35.7482 13.0942 36.219C13.4072 37.2495 13.9347 38.3245 14.9182 38.7864C16.2235 39.3994 17.9134 38.5821 18.4856 37.2673C19.0578 35.9525 18.6644 34.3534 17.7703 33.234C16.2772 31.3773 13.2373 32.3723 12.9065 34.7621Z" fill="white"/>
<path d="M27.6858 36.2001C28.7676 37.9236 31.3337 38.501 33.0592 37.4172C33.5152 37.1329 33.9086 36.7509 34.1769 36.289C34.7491 35.3029 34.6775 34.0236 34.1143 33.0286C31.6377 28.6755 24.8515 31.696 27.6858 36.2001Z" fill="white"/>
</svg>
