<svg width="468" height="358" viewBox="0 0 468 358" fill="none" xmlns="http://www.w3.org/2000/svg">
<path d="M88.1575 67.2094C84.594 86.1497 66.2489 60.3559 60.524 56.3698C60.0481 59.8544 61.9778 70.1668 58.44 72.417C54.1817 75.9402 45.601 73.96 45.9998 67.3765V22.6424C45.9226 18.2448 49.1645 15.8789 53.2683 15.8789C57.3722 15.8789 60.6141 18.2448 60.524 22.6424V50.2621L75.5887 34.9478C79.3709 30.4474 86.9739 33.8034 86.9225 39.3454C87.4242 43.3314 78.0458 50.0178 75.9103 52.7823C78.2002 55.7012 88.775 62.9147 88.1446 67.2094" fill="white"/>
<path d="M96.3523 25.2007C88.9165 17.7171 101.202 9.05063 107.931 15.0683C115.482 22.4876 102.991 31.347 96.3523 25.2007ZM96.9955 72.5451C92.8788 70.5649 95.7091 43.1766 94.9243 39.512C94.3969 30.6012 109.95 30.6012 109.436 39.512V67.5303C109.847 74.1266 101.241 75.9654 96.9955 72.5451Z" fill="white"/>
<path d="M158.462 17.7179C162.618 17.9365 159.749 64.8694 160.534 67.531C161.074 76.0047 146.665 76.5319 146.267 68.264C135.615 82.6653 114.182 69.7041 116.202 53.2711C114.259 36.9411 135.126 24.9057 146.035 38.3683C146.344 29.6633 142.587 9.23137 158.462 17.7179ZM144.234 60.9347C150.589 53.1426 142.214 36.7739 132.579 46.0191C126.146 53.7341 134.817 70.3599 144.234 60.9347Z" fill="white"/>
<path d="M205.691 68.341C205.691 71.9242 203.516 73.7201 199.168 73.7287H173.439C154.656 70.3598 182.727 49.8893 186.226 44.3088H173.091C164.382 45.0546 164.318 32.8906 173.091 33.6364C176.706 34.3307 200.107 31.9005 202.436 35.4366C205.009 38.0082 204.7 41.9429 202.191 44.6431L184.94 63.0048C189.764 63.9306 206.308 59.816 205.639 68.2896" fill="white"/>
<path d="M246.291 68.7519C245.455 78.1514 228.281 73.8953 224.421 69.5363C218.838 64.8816 221.051 50.9688 220.639 44.3082C208.701 46.147 208.649 31.7971 220.639 33.6358C220.163 28.2739 220.716 21.1504 227.895 21.5876C235.061 21.1504 235.614 28.2867 235.151 33.6358C239.537 33.4301 246.729 33.3144 246.15 38.9334C246.677 44.6297 239.576 44.5268 235.151 44.3082C235.498 46.3527 234.237 61.2555 236.077 62.5671C239.293 65.0359 246.858 62.7342 246.369 68.7519" fill="white"/>
<path d="M254.485 25.2007C247.049 17.7171 259.335 9.05063 266.063 15.0683C273.628 22.4876 261.136 31.347 254.485 25.2007ZM255.128 72.5451C251.012 70.5649 253.842 43.1766 253.057 39.512C252.53 30.6012 268.083 30.6012 267.556 39.512V67.5303C267.98 74.1266 259.361 75.9654 255.128 72.5451Z" fill="white"/>
<path d="M335.701 36.6191C341.117 41.5181 338.84 60.0984 339.291 67.4791C339.702 74.0754 331.109 75.9142 326.863 72.4939C320.341 67.9163 331.932 35.0761 315.735 45.7228C310.409 53.4378 320.881 81.829 301.584 72.4939C295.062 67.942 306.627 35.089 290.495 45.7228C285.928 51.2648 292.026 67.3763 286.738 72.4939C282.506 75.9142 273.874 74.0754 274.311 67.4791V39.3451C273.861 31.1801 288.462 30.3443 288.462 38.6893C293.055 30.6529 309.174 30.2928 312.352 39.7566C316.662 31.9644 329.951 30.0871 335.74 36.6191" fill="white"/>
<path d="M382.862 62.3227C391.069 81.5074 331.313 79.8229 347.895 42.7266C356.901 25.355 386.039 31.9513 384.2 52.5375C384.2 54.8392 383.196 56.395 380.855 56.395H359.345C361.918 71.9793 376.378 57.2308 382.862 62.2713V62.3227ZM361.3 44.2696C360.044 45.7717 359.324 47.6493 359.255 49.6058H372.055C372.145 42.7266 365.469 40.3607 361.3 44.2696Z" fill="white"/>
<path d="M404.154 9.44959C425.728 5.69496 423.721 26.0111 417.25 40.6696C412.953 47.8703 411.512 61.6801 403.716 57.6555C393.849 49.9405 389.694 13.7314 404.154 9.44959Z" fill="white"/>
<path d="M404.514 79.4246C403.832 78.6017 402.726 75.85 401.388 75.9658C399.69 75.9658 395.084 76.2101 396.872 73.2141C397.438 72.3011 399.728 70.3981 399.201 69.1637C397.207 64.0204 398.506 62.8117 403.485 65.1776C404.681 65.7948 406.752 63.6089 407.679 63.1331C410.792 61.5773 410.252 66.1163 410.11 67.8264C410.11 70.0766 416.851 71.8768 412.786 74.0884C411.795 74.487 408.836 74.6799 408.528 75.9915C408.039 77.6245 406.817 82.0477 404.514 79.4246Z" fill="white"/>
<path d="M354.873 224.865C354.636 225.098 354.354 225.282 354.044 225.405C353.734 225.528 353.402 225.588 353.069 225.581C352.736 225.574 352.407 225.5 352.103 225.363C351.798 225.227 351.524 225.031 351.297 224.788C341.301 377.673 109.067 370.73 108.848 216.867C112.129 54.6847 354.037 59.0436 351.477 221.161C353.06 219.76 354.127 216.545 356.623 217.06C353.96 50.8786 106.738 50.66 103.767 216.88C103.239 291.959 170.934 351.892 245.395 342.338C245.242 341.953 245.18 341.537 245.213 341.124C245.246 340.71 245.372 340.31 245.583 339.953C245.794 339.596 246.084 339.291 246.43 339.063C246.776 338.835 247.17 338.688 247.582 338.635C307.338 336.256 353.664 282.779 356.482 222.91C355.928 223.54 355.388 224.196 354.873 224.813" fill="white"/>
<path d="M213.208 337.697C208.857 337.432 204.524 336.93 200.228 336.192C198.511 337.303 196.919 338.597 195.48 340.05C198.338 342.385 201.47 344.362 204.807 345.939C208.569 344.415 211.585 341.48 213.208 337.761" fill="#EFEFED"/>
<path d="M214.442 330.355C209.403 331.403 204.603 333.383 200.291 336.193C204.587 336.931 208.921 337.433 213.272 337.698C214.289 335.391 214.731 332.871 214.558 330.355" fill="#EFEFED"/>
<path d="M209.553 336.193C184.544 331.844 161.532 319.76 143.76 301.644C125.988 283.527 114.353 260.293 110.495 235.216C99.7655 234.728 91.725 246.172 95.6488 256.098C78.32 269.882 93.4489 299.727 115.036 293.542C115.732 295.511 116.787 297.333 118.149 298.916C102.338 315.362 124.17 342.635 143.711 330.651C149.796 338.366 162.7 340.307 170.843 334.508C172.541 347.727 190.41 353.86 199.93 344.525C202.014 345.857 204.385 346.675 206.848 346.912C209.311 347.149 211.794 346.798 214.094 345.888C210.757 344.311 207.625 342.334 204.767 339.999C206.209 338.544 207.805 337.251 209.527 336.141" fill="#A1EDFF"/>
<path d="M372.641 230.831C370.981 231.963 369.206 233.57 367.212 233.904C357.602 246.763 345.496 262.553 341.328 265.613C327.678 301.475 279.461 342.274 222.522 337.697C220.904 341.431 217.875 344.375 214.096 345.887C234.576 355.377 249.371 339.998 249.371 339.998C304.599 335.562 349.484 284.707 374.004 230.87C373.55 230.997 373.069 230.997 372.615 230.87" fill="#A1EDFF"/>
<path d="M180.044 317.304C179.915 344.306 138.876 344.306 138.773 317.304C138.889 290.301 179.941 290.301 180.044 317.304Z" fill="#A1EDFF"/>
<path d="M205.629 331.538C205.964 354.285 170.213 354.285 170.547 331.538C170.213 308.792 205.964 308.792 205.629 331.538Z" fill="#A1EDFF"/>
<path d="M223.783 331.538C224.079 351.61 192.534 351.61 192.83 331.538C192.534 311.466 224.079 311.466 223.783 331.538Z" fill="#A1EDFF"/>
<path d="M234.537 331.332C234.691 342.03 217.813 342.03 218.031 331.332C217.864 320.621 234.691 320.621 234.537 331.332Z" fill="#A1EDFF"/>
<path d="M247.75 333.184C247.93 346.3 227.334 346.3 227.527 333.184C227.334 320.069 247.943 320.069 247.75 333.184Z" fill="#A1EDFF"/>
<path d="M254.761 331.743C254.864 339.227 243.092 339.227 243.182 331.743C243.067 324.247 254.851 324.247 254.761 331.743Z" fill="#A1EDFF"/>
<path d="M259.714 334.212C259.714 339.034 252.213 339.034 252.278 334.212C252.342 329.39 259.778 329.403 259.714 334.212Z" fill="#A1EDFF"/>
<path d="M265.079 334.418C265.143 338.43 258.827 338.43 258.891 334.418C258.955 330.406 265.143 330.406 265.079 334.418Z" fill="#A1EDFF"/>
<path d="M206.016 345.322L206.286 345.181L206.016 345.322Z" fill="#7FE5EF"/>
<path d="M168.323 332.142C164.249 334.691 159.394 335.695 154.642 334.97C149.891 334.246 145.556 331.842 142.427 328.195C131.029 335.19 114.806 327.591 112.838 314.514C113.623 329.121 131.17 338.289 143.713 330.651C146.837 334.298 151.132 336.747 155.862 337.58C160.593 338.412 165.466 337.577 169.649 335.216C169.238 334.151 168.932 333.048 168.735 331.924L168.375 332.142" fill="#7FE5EF"/>
<path d="M359.003 244.731C334.277 291.754 293.715 333.3 244.777 337.234C244.777 337.234 230.446 352.124 210.622 342.93C208.389 343.832 205.973 344.186 203.576 343.962C201.179 343.739 198.87 342.944 196.843 341.645C193.565 344.588 189.274 346.15 184.869 346.004C180.465 345.858 176.287 344.015 173.211 340.86C178.511 349.964 192.289 351.867 199.88 344.551C201.97 345.891 204.352 346.712 206.825 346.944C209.298 347.177 211.791 346.815 214.095 345.888H214.198H214.108C234.576 355.377 249.37 339.999 249.37 339.999C309.32 335.19 357.099 275.707 379.844 217.009C377.876 219.413 368.266 232.632 359.003 244.744V244.731ZM215.304 345.335L215.587 345.193L215.304 345.335Z" fill="#7FE5EF"/>
<path d="M196.986 275.025C165.261 273.739 163.537 245.76 164.206 245.837C162.92 183.744 180.93 148.975 179.116 142.764C177.303 136.554 171.037 132.208 157.375 144.05C127.001 179.822 132.083 259.029 149.913 281.904C165.441 302.401 215.151 314.205 216.386 294.326C217.518 276.234 200.099 275.128 196.986 275.038" fill="white"/>
<path d="M321.954 246.364C330.638 210.463 300.92 221.65 305.539 202.89C327.897 167.838 293.278 125.74 272.836 129.147C260.203 130.356 260.911 147.059 260.911 147.059C262.699 153.488 260.409 260.122 260.268 279.963C261.065 307.57 272.901 304.599 285.418 300.729C306.002 290.777 320.706 257.808 321.954 246.364ZM275.101 152.074C275.101 147.766 282.524 150.286 282.524 150.286C307.069 152.858 292.61 204.291 277.378 194.545C275.088 191.266 275.101 152.112 275.101 152.112V152.074ZM276.837 271.425V230.445C276.837 228.234 279.256 218.641 291.207 229.481C303.159 240.32 296.739 266.127 285.984 272.788C275.229 279.448 276.863 271.425 276.863 271.425" fill="white"/>
<path d="M252.38 140.849C248.83 102.274 199.815 110.683 190.025 141.299C185.188 156.459 150.453 265.137 197.615 268.365C199.008 268.431 200.374 267.962 201.432 267.053C202.489 266.144 203.158 264.865 203.301 263.478L205.617 240.783C205.887 230.252 225.094 227.076 225.403 239.035L224.387 289.517C224.258 295.136 230.073 298.427 235.064 296.331C248.328 293.104 253.731 279.616 252.638 267.092C253.255 235.846 256.574 168.532 252.432 140.849H252.38ZM226.445 193.928C227.255 202.594 214.095 216.61 208.01 207.918C207.495 153.745 214.815 141.723 215.587 142.572C218.16 136.708 228.117 135.551 228.13 143.652L226.445 193.928Z" fill="white"/>
<path d="M99.4701 262.977C48.0112 304.998 22.7834 352.548 115.821 333.428C195.775 312.495 268.41 270.422 339.5 229.34L339.565 229.443C269.182 271.875 196.11 313.536 115.988 334.174C22.3975 353.076 47.0978 305.037 99.3929 262.887L99.4701 262.977Z" fill="#7AB9C4"/>
<path d="M99.471 271.786C48.0121 313.807 22.7843 361.37 115.822 342.236C195.776 321.303 268.411 279.231 339.501 238.161L339.566 238.251C269.183 280.684 196.111 322.345 115.989 342.982C22.4112 361.884 47.0987 313.845 99.3938 271.696L99.471 271.786Z" fill="#7AB9C4"/>
<path d="M363.827 201.438C364.059 202.325 323.857 208.625 328.629 211.081L338.188 212.701C342.51 213.781 318.724 223.631 319.032 224.158C316.279 227.373 330.392 225.045 328.951 228.016C329.967 227.926 307.673 258.143 312.857 256.124C313.616 256.394 338.111 238.958 338.034 241.98C338.587 242.314 338.252 255.802 340.607 253.552L353.034 240.257C355.182 238.508 357.421 249.258 359.569 247.367L373.72 230.202C375.766 228.363 377.58 239.948 379.484 237.094C379.638 236.284 385.787 220.866 383.202 220.532L374.003 222.217C372.421 222.474 373.836 219.323 371.932 220.288L360.2 229.289C355.157 230.497 368.42 216.777 363.647 217.652L354.385 222.795C354.214 222.913 354.004 222.958 353.8 222.921C353.596 222.883 353.415 222.766 353.298 222.596C353.18 222.425 353.135 222.215 353.172 222.011C353.21 221.808 353.326 221.627 353.497 221.509C353.291 220.969 368.819 209.847 365.075 209.513C364.342 209.204 358.193 210.04 359.633 207.905C359.711 207.339 367.249 201.476 363.789 201.476" fill="#FF9810"/>
<path d="M383.227 220.57L374.016 222.255C372.434 222.525 373.862 219.362 371.945 220.326C371.482 219.992 357.935 232.876 359.08 228.311L364.728 218.757C365.834 214.051 351.696 226.768 353.535 221.535L365.615 210.901C367.288 208.689 360.907 209.615 360.212 209.255C357.382 208.676 364.458 203.546 364.599 202.826C366.953 199.354 349.406 205.398 349.161 204.935L336.039 211.698C335.919 211.762 335.818 211.856 335.745 211.971C335.673 212.086 335.632 212.218 335.628 212.354C336.219 212.598 338.96 212.47 338.921 213.498C339.616 214.051 347.103 213.421 345.958 215.504L328.797 242.507C326.725 247.496 353.831 228.067 353.857 228.864C355.967 227.36 355.761 240.102 356.263 240.591C356.584 244.191 369.475 227.527 370.041 227.733C371.327 226.447 372.614 230.548 373.141 231.05C375.277 227.887 375.714 232.837 376.821 234.547L382.623 227.514C382.854 224.762 385.517 221.316 383.304 220.558" fill="#FF8212"/>
<path d="M345.765 216.199C346.396 216.481 328.874 239.999 332.901 238.701L352.108 226.91C352.198 226.855 352.3 226.824 352.405 226.819C352.51 226.814 352.615 226.836 352.71 226.882C352.804 226.928 352.886 226.997 352.947 227.083C353.008 227.168 353.047 227.268 353.06 227.372C353.497 227.745 353.24 238.379 355.118 236.656L365.075 226.035C365.141 225.964 365.223 225.909 365.314 225.876C365.406 225.842 365.503 225.83 365.6 225.842C365.697 225.853 365.789 225.887 365.87 225.941C365.951 225.994 366.018 226.066 366.066 226.151C366.568 226.46 369.231 233.146 370.298 231.731L378.712 221.535C369.411 223.914 375.573 220.082 372.035 220.455C371.572 220.133 358.013 232.979 359.17 228.427C358.965 227.81 367.584 216.79 363.763 217.806L354.501 222.949C349.277 223.631 365.603 211.788 365.255 211.377C365.255 211.081 365.744 210.759 365.937 210.567C365.96 210.457 365.958 210.343 365.933 210.234C365.907 210.125 365.859 210.022 365.791 209.933C365.723 209.844 365.636 209.771 365.537 209.718C365.438 209.666 365.329 209.635 365.217 209.628C354.925 209.808 361.435 207.056 364.677 202.864C366.658 199.611 353.883 204.382 353.381 204.009C355.954 205.063 338.278 212.367 338.355 212.868C338.518 212.905 338.665 212.994 338.773 213.121C338.881 213.248 338.945 213.407 338.955 213.574C338.965 213.741 338.921 213.906 338.829 214.045C338.737 214.185 338.603 214.291 338.445 214.347C338.934 214.771 346.833 214.488 345.804 216.173" fill="#FCD200"/>
<path d="M379.574 164.714L365.564 167.286C363.699 166.72 351.979 184.207 350.719 185.288C348.596 188.078 350.719 191.112 353.6 189.312L359.518 185.532C360.419 184.696 366.915 184.837 368.099 184.657C370.672 185.146 379.677 170.629 381.272 169.227C382.97 167.003 381.954 164.303 379.574 164.727" fill="#FB5373"/>
<path d="M422.595 218.101L417.14 231.255C417.295 233.197 397.702 240.912 396.364 241.915C393.199 243.394 390.69 240.629 393.057 238.237L397.998 233.261C399.014 232.567 400.262 226.189 400.686 225.071C400.686 222.499 416.87 216.764 418.555 215.491C421.128 214.308 423.521 215.89 422.595 218.063" fill="#FB5373"/>
<path d="M370.749 183.281C375.65 175.09 394.073 160.136 370.106 166.565C368.452 172.545 367.329 178.66 366.748 184.837C367.496 184.941 368.258 184.849 368.96 184.57C369.661 184.29 370.278 183.833 370.749 183.242" fill="#D33D65"/>
<path d="M402.681 222.679C411.802 219.735 430.404 205.05 418.787 227.025C412.592 227.301 406.385 227.034 400.236 226.228C400.302 225.476 400.562 224.754 400.991 224.132C401.419 223.51 402.001 223.009 402.681 222.679Z" fill="#D33D65"/>
<path d="M366.222 190.302C351.8 191.588 360.304 208.201 367.379 218.59C376.025 227.732 390.394 239.549 394.768 225.765C383.499 224.042 364.511 201.579 366.222 190.315" fill="#FB5373"/>
<path d="M375.483 211.982C365.731 200.139 366.285 190.328 366.195 190.251L362.168 191.28C362.425 203.084 380.976 224.981 394.188 226.794L394.741 225.689C387.171 222.979 380.494 218.237 375.444 211.982" fill="#D33D65"/>
<path d="M444.208 198.339L463.942 160.149C469.989 143.614 462.399 134.343 445.057 136.696C424.563 144.244 403.89 142.045 383.949 160.227C358.722 180.35 362.002 206.517 387.41 223.13C402.963 236.335 440.155 208.574 444.208 198.339Z" fill="#E9F0F2"/>
<g style="mix-blend-mode:multiply">
<g style="mix-blend-mode:multiply">
<g style="mix-blend-mode:multiply">
<g style="mix-blend-mode:multiply">
<path d="M432.796 197.606C407.722 217.6 377.143 179.604 402.036 159.416C427.097 139.422 457.689 177.418 432.796 197.606Z" fill="#E9F0F2"/>
</g>
</g>
</g>
</g>
<path d="M430.325 194.622C409.175 211.492 383.369 179.462 404.364 162.399C425.526 145.529 451.333 177.559 430.325 194.622Z" fill="#06C8FC"/>
<path d="M433.465 165.537C430.65 162.048 426.777 159.567 422.429 158.468C418.081 157.368 413.493 157.71 409.357 159.442C429.438 150.994 446.587 180.015 428.898 193.427C417.204 203.43 397.83 195.175 396.736 180.015C401.754 215.736 454.19 195.188 433.491 165.55" fill="#05B4DD"/>
<path d="M463.156 141.44C459.104 135.217 446.252 135.088 434.146 139.614C438.048 152.625 446.854 163.611 458.705 170.256C465.768 159.198 468.418 146.905 463.156 141.44Z" fill="#FB5373"/>
<g style="mix-blend-mode:multiply">
<g style="mix-blend-mode:multiply">
<g style="mix-blend-mode:multiply">
<g style="mix-blend-mode:multiply">
<path d="M360.6 197.515C361.247 197.017 362.008 196.688 362.814 196.558C363.621 196.428 364.447 196.501 365.218 196.77C364.572 197.27 363.811 197.6 363.004 197.731C362.197 197.861 361.37 197.787 360.6 197.515Z" fill="#E9F0F2"/>
</g>
<g style="mix-blend-mode:multiply">
<path d="M364.344 207.416C364.934 206.852 365.657 206.445 366.447 206.234C367.236 206.023 368.066 206.013 368.859 206.207C368.268 206.77 367.544 207.175 366.755 207.386C365.967 207.597 365.138 207.608 364.344 207.416Z" fill="#E9F0F2"/>
</g>
<g style="mix-blend-mode:multiply">
<path d="M386.626 229.816C386.524 229.006 386.628 228.184 386.927 227.425C387.225 226.665 387.71 225.993 388.337 225.47C388.435 226.279 388.33 227.1 388.031 227.859C387.733 228.618 387.25 229.29 386.626 229.816Z" fill="#E9F0F2"/>
</g>
<g style="mix-blend-mode:multiply">
<path d="M377.749 224.055C377.731 223.238 377.919 222.43 378.294 221.704C378.669 220.979 379.221 220.359 379.898 219.901C379.912 220.717 379.723 221.524 379.348 222.249C378.973 222.974 378.424 223.594 377.749 224.055Z" fill="#E9F0F2"/>
</g>
<g style="mix-blend-mode:multiply">
<path d="M370.158 216.327C370.489 215.581 371.001 214.93 371.648 214.434C372.295 213.937 373.057 213.611 373.863 213.485C373.531 214.23 373.018 214.879 372.371 215.376C371.724 215.872 370.964 216.199 370.158 216.327Z" fill="#E9F0F2"/>
</g>
</g>
</g>
</g>
<path d="M412.495 187.898C412.997 191.022 408.095 191.755 407.671 188.618C407.246 185.48 412.071 184.76 412.495 187.898Z" fill="#A4EBFC"/>
<path d="M406.423 179.707C406.449 179.876 406.44 180.048 406.399 180.214C406.358 180.379 406.284 180.535 406.183 180.673C406.081 180.81 405.954 180.926 405.807 181.014C405.661 181.102 405.499 181.16 405.33 181.186C405.161 181.211 404.989 181.203 404.823 181.162C404.657 181.12 404.501 181.047 404.364 180.945C404.226 180.844 404.11 180.716 404.022 180.57C403.934 180.424 403.876 180.262 403.85 180.093C403.799 179.752 403.886 179.404 404.091 179.127C404.296 178.85 404.603 178.665 404.944 178.614C405.285 178.563 405.633 178.649 405.91 178.854C406.187 179.059 406.372 179.366 406.423 179.707Z" fill="#A4EBFC"/>
<path d="M420.098 163.557C421.282 167.324 420.638 171.194 419.674 174.885C419.674 181.198 420.844 187.743 418.246 193.735H418.001C416.161 187.409 418.143 181.121 418.876 174.859C418.374 171.066 418.207 167.144 419.854 163.557H420.098Z" fill="#A4EBFC"/>
<path d="M427.65 179.874C426.292 183.709 424.592 187.415 422.568 190.945C422.8 185.416 423.006 179.655 424.562 174.332C425.058 178.548 425.058 182.807 424.562 187.023L422.89 186.522C424.284 184.168 425.885 181.943 427.676 179.874" fill="#A4EBFC"/>
<g style="mix-blend-mode:multiply">
<g style="mix-blend-mode:multiply">
<g style="mix-blend-mode:multiply">
<g style="mix-blend-mode:multiply">
<path d="M380.757 212.329C356.662 188.656 388.695 157.038 407.838 150.609C417.538 149.104 458.538 132.453 464.635 143.961C458.46 126.409 416.418 146.108 403.502 147.818C403.502 147.818 394.214 150.467 383.948 160.214C373.309 169.78 362.078 184.645 367.224 197.992C372.678 212.264 387.267 229.674 404.609 225.946C393.982 225.946 388.129 220.802 380.822 212.316" fill="#DADFE0"/>
</g>
</g>
</g>
</g>
<g style="mix-blend-mode:multiply">
<g style="mix-blend-mode:multiply">
<g style="mix-blend-mode:multiply">
<g style="mix-blend-mode:multiply">
<path d="M385.197 206.041C384.894 206.252 384.522 206.34 384.157 206.288C383.792 206.235 383.46 206.046 383.229 205.758C382.999 205.47 382.886 205.105 382.914 204.738C382.943 204.37 383.11 204.027 383.383 203.778C383.685 203.566 384.057 203.478 384.422 203.53C384.787 203.583 385.119 203.772 385.35 204.06C385.581 204.348 385.693 204.713 385.665 205.081C385.636 205.448 385.469 205.792 385.197 206.041Z" fill="#E9F0F2"/>
</g>
<g style="mix-blend-mode:multiply">
<path d="M374.763 187.511C374.46 187.723 374.089 187.811 373.723 187.759C373.358 187.706 373.026 187.517 372.796 187.229C372.565 186.941 372.452 186.576 372.481 186.208C372.509 185.841 372.677 185.497 372.949 185.248C373.252 185.037 373.623 184.949 373.988 185.001C374.354 185.054 374.685 185.243 374.916 185.531C375.147 185.819 375.26 186.184 375.231 186.551C375.203 186.919 375.035 187.262 374.763 187.511Z" fill="#E9F0F2"/>
</g>
<g style="mix-blend-mode:multiply">
<path d="M401.111 220.21C400.808 220.375 400.456 220.428 400.119 220.357C399.781 220.287 399.479 220.099 399.268 219.827C399.056 219.555 398.947 219.217 398.962 218.873C398.977 218.528 399.114 218.2 399.348 217.947C399.648 217.705 400.033 217.592 400.416 217.633C400.606 217.654 400.79 217.711 400.958 217.802C401.126 217.894 401.274 218.017 401.394 218.166C401.514 218.315 401.603 218.485 401.657 218.668C401.711 218.852 401.728 219.044 401.708 219.233C401.688 219.423 401.63 219.607 401.539 219.775C401.447 219.943 401.324 220.091 401.175 220.21" fill="#E9F0F2"/>
</g>
<g style="mix-blend-mode:multiply">
<path d="M410.926 220.493C396.106 209.088 380.398 192.424 375.227 174.872C384.875 190.238 395.54 207.918 411.544 218.938C411.691 219.054 411.796 219.215 411.845 219.397C411.893 219.578 411.882 219.77 411.813 219.945C411.743 220.119 411.62 220.267 411.46 220.365C411.301 220.464 411.113 220.509 410.926 220.493Z" fill="#E9F0F2"/>
</g>
</g>
</g>
</g>
</svg>
