<svg width="556" height="180" viewBox="0 0 556 180" fill="none" xmlns="http://www.w3.org/2000/svg">
<path d="M546 0H10C4.47715 0 0 4.47716 0 10V180C167.134 104 437.892 160 556 95.1811V10C556 4.47715 551.523 0 546 0Z" fill="#181743"/>
<mask id="mask0" mask-type="alpha" maskUnits="userSpaceOnUse" x="0" y="0" width="556" height="180">
<path d="M546 0H10C4.47715 0 0 4.47716 0 10V180C167.134 104 437.892 160 556 95.1811V10C556 4.47715 551.523 0 546 0Z" fill="#181743"/>
</mask>
<g mask="url(#mask0)">
<g clip-path="url(#clip0)">
<path fill-rule="evenodd" clip-rule="evenodd" d="M526.545 82.8682C505.882 77.8542 499.405 110.251 521.48 111.467C530.475 112.214 537.36 107.767 538.453 99.0405C539.692 89.7854 536.022 84.6741 526.545 82.8682Z" fill="#EEB820"/>
<g opacity="0.7">
<path opacity="0.7" fill-rule="evenodd" clip-rule="evenodd" d="M529.731 107.304C521.708 105.641 516.694 97.7309 518.706 89.9123C519.472 86.9361 521.164 84.3523 523.402 82.3799C505.28 81.1811 500.565 110.314 521.481 111.468C526.797 111.908 531.365 110.521 534.451 107.518C532.902 107.686 531.31 107.631 529.731 107.304Z" fill="#B38A18"/>
</g>
<path d="M510.183 88.8349C509.213 88.3497 508.157 88.0703 507.109 87.7971C506.059 87.5284 504.997 87.2941 503.931 87.106C501.802 86.7438 499.636 86.4673 497.571 86.5423C496.56 86.589 495.521 86.7276 494.85 87.0683C494.52 87.2375 494.372 87.4211 494.324 87.551C494.349 87.5468 494.382 87.4745 494.392 87.4906C494.408 87.5032 494.442 87.5941 494.523 87.7086C494.681 87.9464 494.974 88.2586 495.311 88.5473C495.646 88.8404 496.031 89.1297 496.432 89.4086C497.24 89.9672 498.131 90.478 499.036 90.9731C502.695 92.9332 506.668 94.5626 510.647 96.1139C512.65 96.8738 514.653 97.6337 516.681 98.3335C518.706 99.0467 520.74 99.743 522.79 100.396C524.83 101.066 526.889 101.702 528.954 102.298C531.012 102.916 533.091 103.477 535.165 104.014C537.245 104.552 539.334 105.032 541.419 105.455C543.509 105.86 545.611 106.216 547.67 106.368C548.699 106.437 549.722 106.477 550.666 106.393C551.596 106.325 552.499 106.065 552.804 105.811C552.881 105.753 552.927 105.702 552.976 105.642C553.015 105.585 553.029 105.569 553.04 105.525C553.075 105.443 552.986 105.159 552.742 104.862C552.255 104.249 551.411 103.664 550.546 103.144C548.787 102.104 546.794 101.267 544.797 100.462C543.796 100.064 542.778 99.6899 541.754 99.3239L540.213 98.7762L539.44 98.5089L539.055 98.3731L538.862 98.3052L538.766 98.2668C538.747 98.2675 538.769 98.2207 538.778 98.2412L538.805 98.2469L538.854 98.2616L538.802 98.2601C538.789 98.2529 538.755 98.2738 538.777 98.2456L538.878 98.2619L539.082 98.2856L539.495 98.3339L540.318 98.4394L541.96 98.6725C543.053 98.8477 544.138 99.0495 545.227 99.2752C547.399 99.7345 549.548 100.297 551.664 101.177C552.194 101.399 552.717 101.652 553.238 101.951C553.757 102.254 554.277 102.595 554.772 103.065C555.021 103.304 555.262 103.577 555.474 103.924C555.682 104.265 555.86 104.688 555.921 105.176C555.987 105.66 555.909 106.189 555.737 106.633C555.567 107.073 555.308 107.485 554.997 107.821C554.367 108.502 553.643 108.864 552.98 109.136C552.311 109.398 551.67 109.549 551.042 109.666C549.789 109.891 548.591 109.959 547.413 109.967C545.065 109.974 542.798 109.756 540.56 109.445C538.324 109.145 536.124 108.722 533.945 108.256C531.766 107.79 529.617 107.243 527.475 106.668C525.343 106.077 523.226 105.443 521.129 104.771C519.036 104.081 516.95 103.364 514.888 102.592C512.834 101.808 510.783 101.01 508.763 100.13C506.746 99.2555 504.74 98.3413 502.776 97.3334C500.805 96.338 498.875 95.2578 496.996 94.0345C496.055 93.4202 495.14 92.7601 494.247 92.0115C493.804 91.6354 493.36 91.2408 492.939 90.7807C492.523 90.3172 492.106 89.8208 491.769 89.1222C491.606 88.7716 491.454 88.3582 491.421 87.8389C491.38 87.3274 491.527 86.701 491.835 86.2291C492.09 85.8303 492.432 85.4865 492.792 85.2397C493.149 84.9875 493.519 84.8127 493.876 84.6865C494.585 84.4375 495.248 84.3513 495.88 84.3099C496.511 84.273 497.117 84.2961 497.706 84.3483C500.051 84.5781 502.212 85.1704 504.3 85.9153C505.34 86.2939 506.368 86.7026 507.362 87.1649C507.856 87.4023 508.347 87.6485 508.822 87.9193C509.307 88.1876 509.779 88.4717 510.183 88.8349Z" fill="#FBF49C"/>
</g>
<path d="M115.852 101.037C115.864 101.67 114.754 101.67 114.766 101.037C114.754 100.403 115.864 100.403 115.852 101.037Z" fill="#B9E9F9"/>
<path d="M194.147 179.829C194.165 180.777 192.506 180.777 192.518 179.829C192.506 178.881 194.165 178.881 194.147 179.829Z" fill="#B9E9F9"/>
<path d="M507.037 64.8842C507.049 65.5178 505.939 65.5178 505.951 64.8842C505.939 64.256 507.049 64.256 507.037 64.8842Z" fill="#B9E9F9"/>
<path d="M279.092 6.40472C279.104 7.0383 277.994 7.0383 278.006 6.40472C278 5.77655 279.104 5.77655 279.092 6.40472Z" fill="#B9E9F9"/>
<path d="M392.532 21.2645C392.55 22.2121 390.89 22.2121 390.902 21.2645C390.89 20.3168 392.55 20.3168 392.532 21.2645Z" fill="#B9E9F9"/>
<path d="M115.852 101.037C115.864 101.67 114.754 101.67 114.766 101.037C114.754 100.403 115.864 100.403 115.852 101.037Z" fill="#B9E9F9"/>
<path d="M234.428 118.203C234.446 119.151 232.787 119.151 232.799 118.203C232.787 117.255 234.446 117.255 234.428 118.203Z" fill="#B9E9F9"/>
<path d="M507.037 64.8842C507.049 65.5178 505.939 65.5178 505.951 64.8842C505.939 64.256 507.049 64.256 507.037 64.8842Z" fill="#B9E9F9"/>
<path d="M279.092 6.40472C279.104 7.0383 277.994 7.0383 278.006 6.40472C278 5.77655 279.104 5.77655 279.092 6.40472Z" fill="#B9E9F9"/>
<path d="M169.601 65.956C169.607 65.6527 169.076 65.6527 169.082 65.956C169.076 66.2538 169.601 66.2538 169.601 65.956Z" fill="#B9E9F9"/>
<path d="M169.209 66.146L156.834 62.7939L169.336 65.7182L169.209 66.146Z" fill="#B9E9F9"/>
<path opacity="0.21" d="M263.293 1.74227C263.293 1.74227 271.716 2.99745 274.896 7.21277C278.073 11.4284 284.912 18.6567 298.656 13.9652C312.4 9.27362 333.301 20.0792 333.301 20.0792C333.301 20.0792 367.287 39.1878 393.708 25.0792C409.477 16.6583 421.128 6.23349 427.96 -0.808034L425.255 -28.633L387.663 -25.6898C378.934 -22.2141 369.475 -17.2389 360.327 -10.1087C330.293 13.2943 310.523 1.12702 310.523 1.12702C310.523 1.12702 305.163 -3.87494 290.439 0.625296C280.097 3.78682 270.303 -8.51377 265.385 -16.116L235.939 -13.8105C236.853 -12.845 237.678 -11.7991 238.385 -10.6609C244.807 -0.320481 263.293 1.74227 263.293 1.74227Z" fill="#48376D"/>
<path d="M39.8043 144.248C39.8261 147.095 37.4803 149.419 34.5646 149.439C31.649 149.459 29.2679 147.168 29.2461 144.321C29.2244 141.474 31.5702 139.15 34.4858 139.13C37.4015 139.105 39.7825 141.396 39.8043 144.248Z" fill="#58448B"/>
<path d="M88.2631 64.6518C86.2806 64.6656 84.6854 66.2459 84.7002 68.1817C84.715 70.1174 86.3342 71.6754 88.3166 71.6616C90.2991 71.6479 91.8943 70.0675 91.8795 68.1318C91.8647 66.1961 90.2455 64.638 88.2631 64.6518Z" fill="#58448B"/>
<path d="M128.714 -1.82435L-1.93406 -0.895128L-0.963395 129.126L-0.704306 163.831C0.0734704 163.926 0.851003 163.989 1.64675 163.983C11.5468 163.912 19.5254 156.015 19.4532 146.347C19.4301 143.254 18.5799 140.354 17.1193 137.843C17.2084 137.851 17.302 137.86 17.3816 137.859C21.6833 137.828 25.1505 134.482 25.2973 130.323C27.2049 131.895 29.6742 132.832 32.361 132.813C38.3853 132.77 43.2365 127.966 43.1926 122.086C43.1918 121.976 43.1817 121.88 43.1716 121.771C44.2637 121.959 45.3927 122.07 46.5442 122.062C56.4442 121.991 64.4228 114.094 64.3506 104.426C64.2868 95.8872 57.9755 88.8363 49.6787 87.3373C50.0929 85.758 50.3194 84.1115 50.3067 82.4164C50.2384 73.265 43.7496 65.6442 35.0459 63.5586C37.0745 61.8993 38.3479 59.4092 38.3271 56.6268C38.325 56.339 38.3042 56.065 38.2694 55.7911C38.5925 55.8071 38.9156 55.8276 39.2386 55.8253C42.0752 55.8051 44.6418 54.7223 46.5667 52.9769C49.6992 61.2293 57.8553 67.0837 67.3855 67.0159C79.5371 66.9295 89.328 57.2464 89.2393 45.372C89.2225 43.1241 88.8412 40.961 88.1707 38.928C89.8954 38.573 91.4532 37.8126 92.7655 36.7661C96.6407 42.3128 103.179 45.9445 110.57 45.8919C122.362 45.808 131.836 36.4105 131.75 24.9153C131.746 24.367 131.71 23.8281 131.659 23.2893C137.533 22.023 141.909 16.8837 141.864 10.7705C141.816 4.32843 136.875 -0.945731 130.512 -1.7549L130.507 -1.8371" fill="#58448B"/>
<path d="M128.714 -1.82435L-1.93406 -0.895128L-0.963395 129.126L-0.704306 163.831C0.0734704 163.926 0.851003 163.989 1.64675 163.983C11.5468 163.912 19.5254 156.015 19.4532 146.347C19.4301 143.254 18.5799 140.354 17.1193 137.843C17.2084 137.851 17.302 137.86 17.3816 137.859C21.6833 137.828 25.1505 134.482 25.2973 130.323C27.2049 131.895 29.6742 132.832 32.361 132.813C38.3853 132.77 43.2365 127.966 43.1926 122.086C43.1918 121.976 43.1817 121.88 43.1716 121.771C44.2637 121.959 45.3927 122.07 46.5442 122.062C56.4442 121.991 64.4228 114.094 64.3506 104.426C64.2868 95.8872 57.9755 88.8363 49.6787 87.3373C50.0929 85.758 50.3194 84.1115 50.3067 82.4164C50.2384 73.265 43.7496 65.6442 35.0459 63.5586C37.0745 61.8993 38.3479 59.4092 38.3271 56.6268C38.325 56.339 38.3042 56.065 38.2694 55.7911C38.5925 55.8071 38.9156 55.8276 39.2386 55.8253C42.0752 55.8051 44.6418 54.7223 46.5667 52.9769C49.6992 61.2293 57.8553 67.0837 67.3855 67.0159C79.5371 66.9295 89.328 57.2464 89.2393 45.372C89.2225 43.1241 88.8412 40.961 88.1707 38.928C89.8954 38.573 91.4532 37.8126 92.7655 36.7661C96.6407 42.3128 103.179 45.9445 110.57 45.8919C122.362 45.808 131.836 36.4105 131.75 24.9153C131.746 24.367 131.71 23.8281 131.659 23.2893C137.533 22.023 141.909 16.8837 141.864 10.7705C141.816 4.32843 136.875 -0.945731 130.512 -1.7549L130.507 -1.8371" fill="url(#paint0_radial)"/>
<path d="M92.7655 36.771C96.6361 42.3223 103.175 45.9494 110.566 45.8968C122.347 45.813 131.827 36.4246 131.741 24.9248C131.735 24.1161 131.668 23.3216 131.573 22.5409C131.479 21.7648 131.333 21.0074 131.149 20.264C131.154 20.8808 131.116 21.4841 131.069 22.0876C130.189 32.7262 121.114 41.1339 109.974 41.2131C103.94 41.256 98.4825 38.8367 94.5727 34.9351C91.9174 32.281 89.9873 28.941 89.0793 25.2054C89.0794 25.2145 89.0795 25.2237 89.0796 25.2328C89.1115 29.5093 90.4706 33.4793 92.7655 36.771Z" fill="#AD6475"/>
<path d="M38.8745 126.12C37.7055 129.332 35.0145 131.832 31.633 132.784C31.8765 132.8 32.1201 132.817 32.3681 132.815C36.9034 132.784 40.7721 130.051 42.3854 126.192C41.9785 126.222 41.5715 126.257 41.1597 126.259C40.3827 126.269 39.624 126.211 38.8745 126.12Z" fill="#AD6475"/>
<path d="M24.883 132.561C26.0705 132.982 27.3501 133.22 28.6841 133.211C29.7044 133.204 30.6909 133.051 31.6297 132.788C29.2275 132.649 27.03 131.755 25.2919 130.332C25.2651 131.109 25.1257 131.855 24.883 132.561Z" fill="#AD6475"/>
<path d="M60.402 64.9798C59.4146 64.9866 58.4407 64.9248 57.4851 64.8081C60.4679 66.2497 63.8296 67.0535 67.3863 67.0288C79.5397 66.9444 89.3171 57.2573 89.2264 45.3904C89.2092 43.1376 88.8369 40.9742 88.1615 38.9408C86.1446 32.8497 81.4272 27.9563 75.3906 25.5945C75.2036 26.2356 75.073 26.8991 75.0127 27.5804C78.1932 30.3961 80.5242 34.1134 81.5907 38.3192C82.0008 39.9295 82.2289 41.6096 82.2422 43.3459C82.3329 55.2083 72.5554 64.8954 60.402 64.9798Z" fill="#AD6475"/>
<path d="M45.0524 86.3296C45.0545 86.5993 45.0284 86.8599 45.0164 87.1251C45.4374 87.0947 45.8536 87.0553 46.2795 87.0523C47.4403 87.0443 48.5738 87.1552 49.6752 87.3532C50.0797 85.7737 50.3152 84.1268 50.3022 82.4268C50.2323 73.2777 43.743 65.6585 35.0398 63.5618C33.463 64.857 31.4284 65.648 29.2005 65.6635C27.1974 65.6774 25.3438 65.055 23.8286 64.0007C20.6725 65.0372 17.8731 66.8207 15.6441 69.1304C18.3948 67.7174 21.5104 66.8914 24.8335 66.8684C35.9211 66.8005 44.9697 75.5079 45.0524 86.3296Z" fill="#AD6475"/>
<path d="M35.0467 63.5689C33.457 63.1867 31.8029 62.965 30.0898 62.9769C27.8992 62.9921 25.8003 63.3633 23.8299 64.008C25.3452 65.0628 27.199 65.6855 29.2023 65.6716C31.4349 65.6515 33.4698 64.8646 35.0467 63.5689Z" fill="#AD6475"/>
<path d="M58.9675 108.624C59.0009 112.997 57.3796 116.997 54.6845 120.087C60.4645 117.145 64.4016 111.236 64.3496 104.433C64.2844 95.8975 57.9693 88.8403 49.6798 87.3442C49.2117 89.157 48.4901 90.8665 47.5475 92.4403C54.1837 94.976 58.9111 101.245 58.9675 108.624Z" fill="#AD6475"/>
<path d="M45.0154 87.1175C44.9662 88.6442 44.7389 90.1264 44.3472 91.5458C45.4533 91.7483 46.5181 92.0562 47.5414 92.4467C48.4841 90.8727 49.2105 89.1631 49.674 87.3502C48.5727 87.1522 47.4392 87.0413 46.2786 87.0493C45.8527 87.0523 45.4364 87.0872 45.0154 87.1175Z" fill="#AD6475"/>
<path d="M30.0647 111.753C29.7937 111.81 29.5275 111.88 29.266 111.955C29.5844 111.976 29.9029 112.006 30.2168 112.054C30.1645 111.949 30.1076 111.853 30.0647 111.753Z" fill="#AD6475"/>
<path d="M43.1721 121.775C41.8318 121.538 40.5418 121.154 39.3211 120.637C39.4333 121.239 39.5035 121.856 39.5084 122.486C39.5181 123.761 39.2841 124.983 38.8716 126.119C39.621 126.205 40.3796 126.264 41.1518 126.258C41.5683 126.256 41.9705 126.221 42.3775 126.191C42.906 124.926 43.195 123.544 43.1839 122.095C43.1924 121.985 43.1776 121.88 43.1721 121.775Z" fill="#AD6475"/>
<path d="M39.3205 120.64C40.5414 121.152 41.8314 121.536 43.1719 121.778C42.9549 116.049 38.1179 111.485 32.2067 111.526C31.4719 111.531 30.7564 111.609 30.0648 111.751C30.1124 111.851 30.1646 111.952 30.2169 112.052C34.8182 112.714 38.4861 116.185 39.3205 120.64Z" fill="#AD6475"/>
<path d="M75.3954 25.5952C73.6817 24.9266 71.8667 24.4643 69.9738 24.2311C71.8154 25.1181 73.509 26.2483 75.0123 27.581C75.0774 26.8997 75.2082 26.2362 75.3954 25.5952Z" fill="#AD6475"/>
<path d="M-1.076 114.131L-1.4471 64.4213C-0.951298 64.3676 -0.450584 64.3457 0.0549512 64.3421C9.04693 64.2782 16.3976 71.3491 16.4631 80.1259C16.509 86.2756 12.9679 91.6192 7.74506 94.3064C10.2554 96.3584 11.8605 99.422 11.8862 102.867C11.9327 109.094 6.80269 114.175 0.422643 114.22C-0.0875731 114.224 -0.583991 114.196 -1.076 114.131Z" fill="#48376D"/>
<path d="M87.9514 22.8421C87.9664 24.8478 86.3168 26.4815 84.2619 26.4962C82.207 26.5108 80.5332 24.9007 80.5182 22.8949C80.5032 20.8892 82.1528 19.2554 84.2077 19.2408C86.2626 19.2262 87.9365 20.8409 87.9514 22.8421Z" fill="#48376D"/>
<path d="M15.3738 46.3286C15.3842 47.6858 14.2647 48.7949 12.8747 48.8046C11.4847 48.8142 10.3484 47.7208 10.338 46.3636C10.3277 45.0064 11.4471 43.8973 12.8371 43.8876C14.2271 43.878 15.3634 44.9714 15.3738 46.3286Z" fill="#3E3063"/>
<path d="M26.3739 35.742C26.395 38.5021 24.1189 40.7571 21.2921 40.7768C18.4654 40.7964 16.155 38.5732 16.1339 35.8131C16.1128 33.053 18.389 30.798 21.2157 30.7784C24.0424 30.7542 26.3528 32.9774 26.3739 35.742Z" fill="#3E3063"/>
<path d="M-1.61181 40.874C-1.19979 40.9031 -0.787808 40.9276 -0.371351 40.9247C7.60217 40.869 14.021 34.5091 13.9618 26.723L13.9618 26.7185C14.6415 26.8691 15.344 26.9556 16.0693 26.9505C21.1277 26.9151 25.1963 22.8838 25.1588 17.9444C25.1556 17.5286 25.1151 17.1222 25.0559 16.7205C25.0361 16.5744 25.0116 16.4329 24.9871 16.2869C24.9677 16.1956 24.9482 16.1044 24.9288 16.0131C24.8853 15.8215 24.8557 15.6207 24.8028 15.4337L24.77 15.4339C23.7384 12.0825 20.7525 9.57188 17.1086 9.14039C15.903 5.05909 12.3931 1.94436 8.04494 1.22077C8.21747 0.524999 8.31497 -0.193102 8.30927 -0.942463C8.27174 -5.88185 4.14225 -9.8559 -0.916065 -9.82055C-1.28105 -9.818 -1.64115 -9.78806 -1.99646 -9.74445L-1.76782 20.3442L-1.61181 40.874V40.874Z" fill="#3E3063"/>
</g>
<defs>
<radialGradient id="paint0_radial" cx="0" cy="0" r="1" gradientUnits="userSpaceOnUse" gradientTransform="translate(70.5322 81.0406) rotate(179.592) scale(78.4171 76.5406)">
<stop stop-color="#D37575"/>
<stop offset="0.9946" stop-color="#58448B" stop-opacity="0"/>
</radialGradient>
<clipPath id="clip0">
<rect width="67.1903" height="29.3068" fill="white" transform="matrix(0.979189 0.202951 -0.249201 0.968452 494.301 76.1709)"/>
</clipPath>
</defs>
</svg>
