<svg width="556" height="255" viewBox="0 0 556 255" fill="none" xmlns="http://www.w3.org/2000/svg">
<mask id="mask0" mask-type="alpha" maskUnits="userSpaceOnUse" x="0" y="0" width="556" height="255">
<rect width="556" height="255" rx="6" fill="white"/>
</mask>
<g mask="url(#mask0)">
<path d="M54.3287 207.453C55.8287 202.153 58.2287 196.953 60.1287 191.853C59.7287 191.853 59.3287 191.853 58.9287 191.853C60.0287 196.953 61.1287 202.053 62.5287 207.153C62.8287 206.953 63.1287 206.653 63.4287 206.453C59.5287 203.753 55.6287 201.053 51.7287 198.353C51.7287 198.753 51.6287 199.153 51.6287 199.453C56.0287 198.153 60.6287 198.753 65.1287 198.853C65.0287 198.453 64.8287 198.153 64.7287 197.753C60.9287 200.753 57.1287 203.853 53.3287 206.853C52.7287 207.353 53.6287 208.253 54.2287 207.753C58.0287 204.753 61.8287 201.653 65.6287 198.653C66.0287 198.253 65.7287 197.553 65.2287 197.553C60.6287 197.553 55.9287 196.953 51.4287 198.253C50.9287 198.453 50.8287 199.053 51.3287 199.353C55.2287 202.053 59.1287 204.753 63.0287 207.453C63.5287 207.753 64.1287 207.253 63.9287 206.753C62.5287 201.753 61.4287 196.553 60.3287 191.453C60.2287 190.753 59.3287 190.953 59.1287 191.453C57.1287 196.553 54.7287 201.753 53.3287 207.053C52.9287 207.853 54.1287 208.253 54.3287 207.453Z" fill="#DCDCE8"/>
<path fill-rule="evenodd" clip-rule="evenodd" d="M209.413 206.41C209.513 207.11 208.813 208.01 208.113 208.01C207.413 208.01 206.913 206.71 207.013 206.11C207.113 205.61 207.913 204.91 208.513 205.01C209.213 205.11 209.513 205.81 209.413 206.41C209.513 207.01 209.413 206.21 209.413 206.41Z" fill="#DCDCE8"/>
<path fill-rule="evenodd" clip-rule="evenodd" d="M291.613 235.51C291.613 236.01 291.313 236.31 290.813 236.21C290.213 236.11 289.513 236.11 289.713 235.31C289.813 234.81 290.313 234.21 290.813 234.31C291.413 234.41 291.513 235.01 291.613 235.51C291.613 236.11 291.513 235.31 291.613 235.51Z" fill="#DCDCE8"/>
<path d="M250.313 213.01C253.513 213.01 253.513 208.01 250.313 208.01C247.113 208.01 247.013 213.01 250.313 213.01Z" fill="#DCDCE8"/>
<path d="M276.438 20C279.638 20 279.638 15 276.438 15C273.238 15 273.138 20 276.438 20Z" fill="#DCDCE8"/>
<path d="M234.438 38C237.638 38 237.638 33 234.438 33C231.238 33 231.138 38 234.438 38Z" fill="#DCDCE8"/>
<path d="M182.535 17C188.488 17 188.488 12 182.535 12C176.582 12 176.396 17 182.535 17Z" fill="#DCDCE8"/>
<path d="M252.535 24C258.489 24 258.489 15 252.535 15C243 14 246.396 24 252.535 24Z" fill="#DCDCE8"/>
<path fill-rule="evenodd" clip-rule="evenodd" d="M311.448 226.238C311.548 227.238 311.948 229.238 311.048 230.038C309.948 230.938 308.448 230.038 307.748 229.038C307.048 227.938 306.448 226.438 307.848 225.638C308.848 225.038 311.448 224.338 311.448 226.238C311.548 227.138 311.448 225.438 311.448 226.238Z" fill="#DCDCE8"/>
<path d="M48.1289 20.7533C48.1289 20.7533 47.9289 20.6533 47.6289 20.5533C47.3289 20.4533 46.8289 20.3533 46.2289 20.2533C45.0289 20.0533 43.1289 19.9533 40.9289 20.7533C39.8289 21.1533 38.8289 21.8533 37.9289 22.8533C37.0289 23.8533 36.4289 25.2533 36.2289 26.7533C35.8289 29.7533 36.5289 33.5533 39.2289 36.1533C41.9289 38.7533 46.1289 40.0533 50.5289 40.2533C54.9289 40.4533 59.7289 39.7533 64.3289 38.1533C68.9289 36.5533 73.4289 34.0533 76.7289 30.3533C78.3289 28.5533 79.6289 26.3533 80.3289 24.0533L80.4289 23.8533V23.7533V23.6533L80.5289 23.1533L80.7289 22.1533C80.8289 21.5533 80.9289 20.9533 81.0289 20.2533C81.2289 18.9533 81.3289 17.7533 81.3289 16.4533C81.4289 11.3533 79.9289 6.35329 76.9289 2.35329C74.0289 -1.64671 69.8289 -4.74672 65.4289 -6.84672C61.0289 -8.94672 56.3289 -10.1467 51.9289 -10.6467C47.4289 -11.1467 43.1289 -10.9467 39.2289 -10.1467C35.3289 -9.34671 31.9289 -8.04669 29.2289 -6.44669C26.4289 -4.84669 24.4289 -2.84669 23.0289 -0.946694C21.6289 0.853306 20.8289 2.55329 20.3289 3.75329C20.0289 4.35329 19.9289 4.75331 19.8289 5.05331C19.7289 5.35331 19.6289 5.55331 19.6289 5.55331C19.6289 5.55331 19.6289 5.35331 19.7289 5.05331C19.8289 4.75331 19.9289 4.25328 20.1289 3.65328C20.5289 2.45328 21.1289 0.653287 22.5289 -1.24671C23.8289 -3.24671 25.8289 -5.44672 28.6289 -7.34672C31.4289 -9.24672 34.8289 -10.8467 38.9289 -11.8467C42.9289 -12.8467 47.4289 -13.2467 52.1289 -12.8467C56.8289 -12.4467 61.8289 -11.4467 66.5289 -9.24671C71.2289 -7.14671 75.9289 -3.94669 79.2289 0.553306C82.6289 5.05331 84.4289 10.7533 84.3289 16.4533C84.3289 17.8533 84.1289 19.2533 84.0289 20.6533C83.9289 21.3533 83.8289 22.0533 83.6289 22.7533L83.4289 23.7533L83.3289 24.2533V24.3533V24.5533L83.2289 24.8533C82.4289 27.6533 80.9289 30.2533 79.0289 32.3533C77.1289 34.4533 74.9289 36.1533 72.6289 37.5533C70.3289 38.9533 67.8289 39.9533 65.3289 40.7533C60.3289 42.3533 55.3289 43.0533 50.5289 42.5533C48.1289 42.3533 45.8289 41.8533 43.6289 41.0533C41.5289 40.2533 39.5289 39.0533 38.0289 37.4533C36.5289 35.8533 35.5289 33.9533 35.1289 32.0533C34.9289 31.0533 34.8289 30.1533 34.8289 29.2533C34.8289 28.7533 34.8289 28.3533 34.8289 27.9533V27.7533V27.6533C34.8289 27.5533 34.8289 27.5533 34.8289 27.5533L34.9289 27.2533C34.9289 27.0533 35.0289 26.8533 35.0289 26.6533C35.4289 24.9533 36.2289 23.4533 37.3289 22.3533C38.4289 21.2533 39.6289 20.6533 40.8289 20.2533C43.2289 19.5533 45.1289 19.9533 46.3289 20.2533C46.9289 20.4533 47.4289 20.5533 47.7289 20.7533C48.0289 20.6533 48.1289 20.7533 48.1289 20.7533Z" fill="#DCDCE8"/>
<path d="M48.1287 20.7528C48.1287 20.7528 48.1287 20.8528 48.2287 21.1528C48.2287 21.3528 48.3287 21.7528 48.4287 22.1528C48.6287 23.0528 49.1287 24.3528 50.2287 25.5528C51.4287 26.7528 53.3287 27.4528 55.6287 27.2528C57.8287 27.0528 60.3287 26.1528 62.6287 24.5528C64.8287 22.8528 66.8287 20.4528 67.3287 17.4528C67.9287 14.4528 66.9287 11.2528 64.8287 8.45282C64.6287 8.05282 64.3287 7.75282 64.0287 7.45282C63.8287 7.15282 63.4287 6.75282 63.1287 6.45282C62.5287 5.75282 61.9287 5.15282 61.2287 4.55282C59.9287 3.35282 58.4287 2.25281 56.9287 1.35281C55.3287 0.452809 53.6287 -0.14719 51.9287 -0.64719C50.1287 -1.04719 48.3287 -1.14718 46.5287 -1.04718C42.8287 -0.847184 39.2287 0.352821 36.0287 2.05282C32.7287 3.75282 29.8287 6.0528 27.4287 8.6528C24.9287 11.2528 22.8287 13.9528 21.3287 16.8528C19.7287 19.7528 18.6287 22.6528 18.0287 25.4528C17.4287 28.2528 17.3287 30.8528 17.6287 33.2528C17.9287 35.5528 18.5287 37.5528 19.2287 39.0528C19.9287 40.5528 20.6287 41.7528 21.1287 42.4528C21.6287 43.1528 21.9287 43.5528 21.9287 43.5528C21.9287 43.5528 21.6287 43.1528 20.9287 42.5528C20.3287 41.8528 19.4287 40.7528 18.6287 39.2528C17.8287 37.7528 16.9287 35.7528 16.4287 33.3528C15.9287 30.9528 15.8287 28.1528 16.3287 25.1528C16.8287 22.1528 17.7287 18.9528 19.3287 15.8528C20.8287 12.7528 22.9287 9.65281 25.5287 6.85281C28.1287 4.05281 31.1287 1.55282 34.6287 -0.447178C38.1287 -2.34718 42.1287 -3.74718 46.3287 -4.04718C48.4287 -4.14718 50.5287 -4.04718 52.6287 -3.54718C54.6287 -3.04718 56.6287 -2.2472 58.4287 -1.2472C62.0287 0.752804 64.9287 3.75281 67.1287 6.85281C68.2287 8.45281 69.1287 10.2528 69.5287 12.1528C70.0287 14.0528 70.0287 16.0528 69.6287 17.8528C69.2287 19.6528 68.3287 21.3528 67.3287 22.6528C66.2287 24.0528 65.0287 25.0528 63.7287 25.9528C61.1287 27.6528 58.3287 28.4528 55.7287 28.4528C54.4287 28.4528 53.2287 28.2528 52.2287 27.7528C51.2287 27.3528 50.4287 26.6528 49.8287 25.9528C48.6287 24.5528 48.4287 23.0528 48.3287 22.1528C48.3287 21.6528 48.2287 21.3528 48.2287 21.0528C48.1287 20.8528 48.1287 20.7528 48.1287 20.7528Z" fill="#DCDCE8"/>
<path d="M48.1284 20.7534C49.5284 21.0534 51.0284 21.2534 52.5284 21.1534C53.2284 21.0534 53.9284 20.9534 54.6284 20.6534C55.3284 20.3534 55.8284 19.9534 56.3284 19.4534C56.7284 18.9534 57.0284 18.3534 57.1284 17.6534C57.2284 16.9534 57.1284 16.3534 56.9284 15.6534C56.5284 14.3534 55.7284 13.1534 54.9284 11.9534V12.0534C52.9284 9.9534 50.2284 8.85339 47.4284 8.85339C44.6284 8.85339 41.8284 9.95339 39.4284 11.4534C36.9284 12.9534 34.7284 14.9534 32.9284 17.1534C31.1284 19.3534 29.6284 21.8534 28.6284 24.5534C27.6284 27.2534 27.2284 30.0534 27.5284 32.8534C27.8284 35.5534 28.9284 38.2534 30.6284 40.4534C32.3284 42.6534 34.6284 44.5534 37.0284 45.7534C39.5284 47.0534 42.3284 47.8534 45.2284 48.3534C48.1284 48.8534 51.0284 48.9534 53.9284 48.8534C56.8284 48.7534 59.7284 48.3534 62.6284 47.7534C65.5284 47.1534 68.3284 46.2534 71.0284 45.1534C73.7284 44.0534 76.3284 42.6534 78.7284 40.9534C81.1284 39.2534 83.3284 37.2534 85.1284 35.0534C86.9284 32.7534 88.4284 30.1534 89.3284 27.3534C90.2284 24.5534 90.6284 21.5534 90.4284 18.6534C90.2284 15.6534 89.6284 12.7534 88.7284 9.85339C89.9284 12.6534 90.8284 15.5534 91.2284 18.5534C91.6284 21.5534 91.4284 24.7534 90.7284 27.7534C90.0284 30.7534 88.5284 33.6534 86.7284 36.1534C84.9284 38.6534 82.6284 40.8534 80.1284 42.7534C75.1284 46.5534 69.3284 49.0534 63.3284 50.4534C60.3284 51.1534 57.2284 51.6534 54.1284 51.8534C51.0284 51.9534 47.9284 51.8534 44.8284 51.3534C41.7284 50.8534 38.6284 49.9534 35.8284 48.4534C32.9284 46.9534 30.4284 44.8534 28.4284 42.2534C26.4284 39.6534 25.1284 36.4534 24.8284 33.2534C24.5284 29.9534 25.1284 26.7534 26.3284 23.7534C27.5284 20.7534 29.2284 18.0534 31.2284 15.7534C33.3284 13.3534 35.7284 11.3534 38.5284 9.75338C41.2284 8.25338 44.4284 7.15338 47.6284 7.25338C49.2284 7.35338 50.8284 7.65339 52.3284 8.35339C53.8284 9.05339 55.0284 10.1534 56.1284 11.2534C56.9284 12.5534 57.7284 13.8534 58.0284 15.4534C58.2284 16.2534 58.2284 17.0534 58.1284 17.8534C58.0284 18.6534 57.6284 19.4534 57.0284 19.9534C56.4284 20.5534 55.7284 20.9534 55.0284 21.1534C54.3284 21.3534 53.5284 21.4534 52.8284 21.4534C51.0284 21.5534 49.5284 21.1534 48.1284 20.7534Z" fill="#DCDCE8"/>
<path d="M48.4281 25.0527C53.2281 25.0527 53.2281 17.5527 48.4281 17.5527C43.6281 17.5527 43.6281 25.0527 48.4281 25.0527Z" fill="#DCDCE8"/>
<path fill-rule="evenodd" clip-rule="evenodd" d="M62.0105 106.3C64.7105 106.3 66.9105 106.8 66.3105 110.1C65.7105 113 64.4105 114.5 61.2105 114.6C58.8105 114.7 57.2105 112.4 57.0105 110.1C56.8105 106.9 59.5105 106.3 62.0105 106.3C62.7105 106.3 61.6105 106.3 62.0105 106.3Z" fill="#DCDCE8"/>
<path fill-rule="evenodd" clip-rule="evenodd" d="M79.9107 96C81.5107 96 82.8107 96.3 82.5107 98.3C82.2107 100.1 81.4107 101 79.4107 101C78.0107 101 77.0107 99.7 76.9107 98.3C76.8107 96.3 78.4107 96 79.9107 96C80.3107 96 79.6107 96 79.9107 96Z" fill="#DCDCE8"/>
<path fill-rule="evenodd" clip-rule="evenodd" d="M83.0105 113.3C85.7105 113.3 87.9105 113.8 87.3105 117.1C86.7105 120 85.4105 121.5 82.2105 121.6C79.8105 121.7 78.2105 119.4 78.0105 117.1C77.8105 113.9 80.5105 113.3 83.0105 113.3C83.7105 113.3 82.6105 113.3 83.0105 113.3Z" fill="#DCDCE8"/>
<path fill-rule="evenodd" clip-rule="evenodd" d="M505.432 215.877C508.934 212.794 512.388 209.635 515.845 206.474L515.845 206.474C528.443 194.953 541.07 183.406 556.187 175.38C557.087 174.88 556.287 173.68 555.387 174.08C540.255 182.032 527.627 193.56 515.063 205.028L515.063 205.029L515.063 205.029C511.474 208.305 507.889 211.578 504.253 214.76C503.948 214.752 503.655 214.901 503.487 215.28C501.889 218.396 500.738 221.671 499.709 224.997C496.796 225.097 493.886 225.224 490.987 225.38C489.887 225.38 489.687 226.68 490.487 227.28C491.867 228.326 493.239 229.385 494.612 230.445C495.551 231.17 496.49 231.895 497.432 232.616C496.664 235.103 495.827 237.572 494.787 239.98C494.472 240.504 494.817 241.056 495.288 241.289C495.368 241.335 495.454 241.367 495.544 241.381C495.878 241.456 496.228 241.361 496.433 240.992C498.513 239.413 500.716 238.033 502.964 236.731C505.462 238.517 508.019 240.224 510.687 241.78C511.287 242.08 512.287 241.68 512.187 240.88C511.876 238.18 511.383 235.5 510.76 232.841C521.593 231.705 532.358 229.815 543.114 227.926L543.115 227.926C550.502 226.628 557.886 225.332 565.286 224.28C566.286 224.18 565.786 222.68 564.886 222.88C557.51 223.934 550.167 225.234 542.824 226.534L542.824 226.534C532.828 228.304 522.831 230.074 512.749 231.223C515.173 229.775 517.518 228.213 519.687 226.38C519.825 226.262 519.912 226.124 519.958 225.978C526.355 223.109 532.829 220.469 539.3 217.829L539.3 217.829C547.18 214.615 555.056 211.402 562.787 207.78C563.687 207.38 562.887 206.08 561.987 206.48C554.24 210.136 546.284 213.374 538.316 216.618C531.895 219.232 525.465 221.85 519.128 224.692C519.082 224.684 519.035 224.68 518.987 224.68C515.736 224.68 512.473 224.705 509.206 224.758C518.743 218.905 527.938 212.512 537.127 206.122C544.525 200.977 551.92 195.835 559.487 190.98C560.287 190.48 559.587 189.18 558.687 189.68C551.12 194.535 543.725 199.677 536.327 204.822C527.051 211.272 517.77 217.726 508.136 223.623C507.283 221.014 506.364 218.431 505.432 215.877ZM506.453 224.809C505.74 222.598 504.978 220.409 504.202 218.242C503.234 220.416 502.441 222.66 501.719 224.932C503.297 224.884 504.875 224.843 506.453 224.809ZM501.075 227.021C503.083 226.963 505.092 226.913 507.1 226.869C507.568 228.402 508.006 229.946 508.403 231.499C507.591 231.953 506.775 232.401 505.959 232.848C505.024 233.362 504.089 233.875 503.161 234.396C501.987 233.542 500.824 232.67 499.669 231.788C499.876 231.09 500.081 230.392 500.286 229.693L500.286 229.693C500.547 228.802 500.808 227.91 501.075 227.021ZM499.078 227.081C497.323 227.136 495.568 227.197 493.817 227.265C494.514 227.803 495.211 228.344 495.907 228.885C496.623 229.44 497.339 229.996 498.056 230.55C498.225 229.98 498.393 229.41 498.56 228.84L498.56 228.839L498.56 228.839L498.56 228.839L498.56 228.839L498.56 228.839L498.56 228.838C498.733 228.252 498.905 227.666 499.078 227.081ZM499.044 233.842C498.647 235.119 498.229 236.388 497.774 237.642C498.908 236.89 500.071 236.177 501.251 235.488C500.511 234.944 499.777 234.395 499.044 233.842ZM504.894 235.635C506.54 236.79 508.214 237.902 509.93 238.945C509.654 237.095 509.296 235.259 508.875 233.437C508.347 233.729 507.819 234.019 507.29 234.31L507.286 234.313L507.285 234.313C506.488 234.751 505.689 235.19 504.894 235.635ZM510.177 230.494C509.855 229.267 509.509 228.044 509.143 226.827C511.456 226.782 513.767 226.745 516.074 226.715C514.189 228.094 512.203 229.325 510.177 230.494ZM535.89 197.434L535.89 197.434L535.89 197.434C533.19 199.55 530.498 201.659 527.487 203.38C526.987 203.68 526.487 202.78 526.987 202.48C529.891 200.775 532.497 198.729 535.1 196.686C538.144 194.298 541.183 191.913 544.687 190.08C551.387 186.58 557.987 182.78 564.487 178.98C565.087 178.68 565.587 179.58 564.987 179.88C558.487 183.68 551.887 187.38 545.187 190.98C541.794 192.807 538.837 195.124 535.89 197.434ZM543.786 209.88C544.403 209.493 545.018 209.104 545.632 208.716C551.205 205.196 556.752 201.692 562.786 199.08C563.386 198.88 562.886 197.98 562.286 198.18C556.252 200.792 550.705 204.296 545.132 207.816L545.132 207.816C544.517 208.204 543.902 208.593 543.286 208.98C542.686 209.38 543.186 210.18 543.786 209.88ZM549.279 220.01C547.418 220.812 545.558 221.614 543.687 222.38C543.087 222.68 542.787 221.68 543.387 221.38C545.211 220.633 547.021 219.857 548.83 219.081C555.247 216.328 561.643 213.585 568.587 212.18C569.287 212.08 569.487 213.08 568.887 213.18C562.07 214.497 555.674 217.254 549.279 220.01Z" fill="#DCDCE8"/>
<path d="M355.508 23.1082C355.508 23.1082 355.408 23.3082 355.208 23.6082C355.008 23.9082 354.808 24.4082 354.508 25.1082C354.308 25.8082 354.208 26.7082 354.608 27.5082C355.008 28.4082 356.108 29.0082 357.408 29.1082C358.608 29.3082 360.108 29.0082 361.308 28.2082C361.908 27.8082 362.408 27.2082 362.708 26.5082C363.008 25.8082 363.008 25.0082 362.808 24.2082C362.408 22.6082 361.308 20.9082 360.108 19.4082C358.808 18.0082 356.908 17.3082 354.808 17.6082C352.708 17.8082 350.608 18.7082 348.808 20.1082C347.008 21.4082 345.308 23.3082 344.808 25.5082C344.708 26.0082 344.608 26.6082 344.708 27.1082L344.808 27.5082V27.7082L344.908 27.9082C345.008 28.2082 345.008 28.6082 345.108 28.8082C345.408 29.9082 346.008 31.0082 346.808 31.9082C348.308 33.7082 350.708 34.9082 353.308 35.3082C358.508 36.1082 364.408 34.4082 368.408 30.6082C370.308 28.7082 371.608 26.2082 371.508 23.6082C371.408 21.0082 370.208 18.4082 368.408 16.2082C368.008 15.6082 367.508 15.1082 367.008 14.6082L366.708 14.2082L366.308 13.8082C366.008 13.5082 365.808 13.4082 365.608 13.1082C364.608 12.2082 363.408 11.5082 362.108 11.0082C359.508 10.0082 356.708 9.70821 353.908 9.90821C348.308 10.4082 342.908 12.8082 338.908 16.5082C336.908 18.3082 335.308 20.5082 334.408 22.8082C333.408 25.1082 333.208 27.7082 333.608 30.0082C334.508 34.9082 336.908 39.3082 340.508 41.7082C342.308 43.0082 344.308 43.7082 346.208 44.2082C348.108 44.7082 350.108 44.9082 351.908 44.9082C355.508 44.9082 358.708 44.4082 361.308 43.8082C363.908 43.2082 365.808 42.5082 367.208 41.9082C367.908 41.6082 368.408 41.4082 368.708 41.3082C369.008 41.2082 369.208 41.1082 369.208 41.1082C369.208 41.1082 369.008 41.2082 368.708 41.4082C368.408 41.6082 367.908 41.8082 367.208 42.1082C365.908 42.7082 364.008 43.6082 361.408 44.4082C358.808 45.2082 355.608 45.9082 351.908 46.1082C350.008 46.2082 348.008 46.1082 345.908 45.7082C343.808 45.3082 341.608 44.5082 339.608 43.2082C337.608 41.9082 335.708 40.1082 334.308 37.9082C333.608 36.8082 333.008 35.6082 332.508 34.4082C332.308 33.8082 332.108 33.1082 331.808 32.5082C331.608 31.8082 331.508 31.3082 331.308 30.6082C330.708 27.8082 331.008 24.8082 332.008 22.0082C333.008 19.2082 334.808 16.7082 337.008 14.7082C339.208 12.6082 341.708 10.9082 344.508 9.6082C347.308 8.3082 350.308 7.4082 353.508 7.1082C356.708 6.8082 360.008 7.1082 363.108 8.3082C364.608 8.9082 366.108 9.8082 367.408 10.8082C367.708 11.1082 368.108 11.4082 368.408 11.7082L368.808 12.1082L369.208 12.6082C369.708 13.2082 370.308 13.8082 370.808 14.4082C372.708 16.9082 374.408 20.1082 374.408 23.6082C374.408 25.3082 374.108 27.1082 373.308 28.6082C372.608 30.2082 371.508 31.5082 370.408 32.7082C368.008 35.0082 365.108 36.4082 362.108 37.3082C359.108 38.2082 355.908 38.4082 352.908 37.9082C349.908 37.4082 346.908 35.9082 344.908 33.5082C343.908 32.3082 343.308 30.9082 342.908 29.4082C342.808 29.0082 342.708 28.7082 342.708 28.4082V28.2082C342.708 28.0082 342.708 28.0082 342.708 27.9082C342.708 27.7082 342.708 27.5082 342.608 27.3082C342.608 26.5082 342.708 25.7082 342.908 25.0082C343.808 22.1082 345.808 20.0082 347.908 18.5082C350.108 17.0082 352.508 16.1082 355.008 16.0082C356.208 15.9082 357.508 16.1082 358.608 16.5082C359.208 16.7082 359.708 17.0082 360.208 17.4082C360.708 17.7082 361.208 18.2082 361.508 18.6082C362.908 20.3082 363.908 22.1082 364.308 24.1082C364.508 25.1082 364.408 26.1082 364.008 27.0082C363.608 27.9082 362.908 28.6082 362.208 29.1082C360.708 30.0082 359.108 30.1082 357.708 29.9082C356.308 29.7082 355.108 28.9082 354.708 27.9082C354.308 26.9082 354.508 25.9082 354.808 25.2082C355.108 24.5082 355.408 24.1082 355.608 23.8082C355.408 23.3082 355.508 23.1082 355.508 23.1082Z" fill="#DCDCE8"/>
</g>
</svg>
