<svg width="336" height="180" viewBox="0 0 336 180" fill="none" xmlns="http://www.w3.org/2000/svg">
<path d="M325 0H10C4.47715 0 0 4.47716 0 10V180C100.701 104 263.838 160 335 95.1811V10C335 4.47715 330.523 0 325 0Z" fill="#181743"/>
<mask id="mask0" mask-type="alpha" maskUnits="userSpaceOnUse" x="0" y="0" width="336" height="180">
<path d="M326 0H10C4.47715 0 0 4.47716 0 10V180C150 104 231 165 336 107V10C336 4.47715 331.523 0 326 0Z" fill="#181743"/>
</mask>
<g mask="url(#mask0)">
<g clip-path="url(#clip0)">
<path fill-rule="evenodd" clip-rule="evenodd" d="M289.981 89.2711C269.83 83.886 264.153 116.314 285.604 117.909C294.348 118.811 300.947 114.461 301.844 105.715C302.873 96.4406 299.214 91.245 289.981 89.2711Z" fill="#EEB820"/>
<g opacity="0.7">
<path opacity="0.7" fill-rule="evenodd" clip-rule="evenodd" d="M293.533 113.867C285.715 112.061 280.698 104.032 282.504 96.2133C283.191 93.2371 284.786 90.6707 286.921 88.7275C269.308 87.2173 265.28 116.397 285.603 117.909C290.772 118.442 295.18 117.126 298.119 114.162C296.619 114.304 295.072 114.222 293.533 113.867Z" fill="#B38A18"/>
</g>
<path d="M274.211 94.9877C273.26 94.484 272.23 94.1855 271.207 93.8935C270.184 93.6058 269.148 93.3526 268.11 93.1456C266.036 92.7459 263.929 92.4315 261.926 92.472C260.945 92.5018 259.939 92.6234 259.294 92.9543C258.977 93.1186 258.837 93.3006 258.793 93.4302C258.817 93.4264 258.848 93.3543 258.858 93.3707C258.874 93.3836 258.909 93.4754 258.989 93.5918C259.147 93.8334 259.437 94.1518 259.769 94.4475C260.101 94.7476 260.479 95.0446 260.874 95.3315C261.668 95.9062 262.543 96.4343 263.431 96.9468C267.019 98.9773 270.907 100.681 274.798 102.306C276.757 103.103 278.716 103.9 280.698 104.637C282.676 105.388 284.664 106.122 286.665 106.812C288.659 107.519 290.669 108.193 292.684 108.826C294.694 109.482 296.722 110.08 298.746 110.655C300.775 111.231 302.812 111.748 304.844 112.208C306.88 112.65 308.927 113.043 310.929 113.231C311.929 113.317 312.922 113.374 313.837 113.306C314.738 113.253 315.61 113.008 315.901 112.758C315.975 112.701 316.019 112.65 316.065 112.591C316.102 112.534 316.115 112.519 316.125 112.474C316.158 112.393 316.065 112.107 315.823 111.804C315.339 111.179 314.509 110.578 313.659 110.042C311.932 108.967 309.982 108.093 308.029 107.251C307.049 106.834 306.055 106.441 305.053 106.056L303.547 105.48L302.792 105.198L302.415 105.055L302.227 104.984L302.133 104.944C302.115 104.944 302.135 104.897 302.144 104.918L302.171 104.924L302.218 104.94L302.167 104.938C302.155 104.93 302.123 104.951 302.143 104.923L302.241 104.941L302.44 104.968L302.842 105.023L303.643 105.143L305.241 105.405C306.305 105.6 307.362 105.821 308.424 106.066C310.54 106.564 312.637 107.164 314.707 108.085C315.226 108.317 315.739 108.579 316.25 108.888C316.76 109.202 317.27 109.553 317.76 110.034C318.006 110.277 318.245 110.556 318.457 110.907C318.666 111.254 318.847 111.682 318.915 112.173C318.989 112.661 318.922 113.19 318.764 113.633C318.607 114.072 318.363 114.482 318.067 114.814C317.469 115.487 316.773 115.838 316.135 116.101C315.49 116.352 314.871 116.493 314.264 116.6C313.052 116.805 311.89 116.853 310.747 116.841C308.468 116.808 306.263 116.551 304.085 116.201C301.909 115.862 299.765 115.399 297.641 114.895C295.517 114.39 293.421 113.804 291.332 113.191C289.251 112.561 287.184 111.888 285.136 111.178C283.091 110.449 281.053 109.694 279.037 108.884C277.028 108.062 275.022 107.226 273.045 106.308C271.071 105.396 269.106 104.443 267.182 103.398C265.25 102.365 263.356 101.247 261.509 99.9871C260.583 99.3542 259.683 98.6757 258.802 97.9088C258.365 97.5236 257.927 97.1197 257.509 96.6505C257.097 96.1779 256.682 95.6724 256.343 94.965C256.178 94.6102 256.023 94.1924 255.98 93.6702C255.931 93.1559 256.062 92.5293 256.352 92.0605C256.592 91.6642 256.918 91.3248 257.262 91.083C257.604 90.8357 257.96 90.6663 258.304 90.5456C258.988 90.3076 259.63 90.2322 260.242 90.2013C260.854 90.1749 261.442 90.2083 262.015 90.2707C264.296 90.5412 266.404 91.1725 268.445 91.956C269.462 92.3538 270.467 92.7816 271.441 93.2628C271.925 93.5095 272.406 93.7651 272.873 94.0451C273.349 94.3228 273.812 94.6161 274.211 94.9877Z" fill="#FBF49C"/>
</g>
<path d="M103.975 101.037C103.986 101.67 102.989 101.67 103 101.037C102.989 100.403 103.986 100.403 103.975 101.037Z" fill="#B9E9F9"/>
<path d="M174.243 179.829C174.26 180.777 172.77 180.777 172.781 179.829C172.77 178.881 174.26 178.881 174.243 179.829Z" fill="#B9E9F9"/>
<path d="M250.479 6.40472C250.49 7.0383 249.493 7.0383 249.504 6.40472C249.499 5.77655 250.49 5.77655 250.479 6.40472Z" fill="#B9E9F9"/>
<path d="M103.975 101.037C103.986 101.67 102.989 101.67 103 101.037C102.989 100.403 103.986 100.403 103.975 101.037Z" fill="#B9E9F9"/>
<path d="M210.396 118.203C210.412 119.151 208.923 119.151 208.934 118.203C208.923 117.255 210.412 117.255 210.396 118.203Z" fill="#B9E9F9"/>
<path d="M250.479 6.40472C250.49 7.0383 249.493 7.0383 249.504 6.40472C249.499 5.77655 250.49 5.77655 250.479 6.40472Z" fill="#B9E9F9"/>
<path d="M152.214 65.956C152.219 65.6527 151.743 65.6527 151.748 65.956C151.743 66.2538 152.214 66.2538 152.214 65.956Z" fill="#B9E9F9"/>
<path d="M151.863 66.146L140.756 62.7939L151.976 65.7182L151.863 66.146Z" fill="#B9E9F9"/>
<path opacity="0.21" d="M187.415 17.1527C187.415 17.1527 194.816 19.1584 197.252 23.7077C199.686 28.257 205.102 36.1788 217.822 32.6209C230.542 29.0629 248.171 41.835 248.171 41.835C248.171 41.835 276.69 64.162 301.63 52.1638C316.515 45.0024 327.914 35.4514 334.687 28.9097L334.687 7.99914L329.999 0.181983L301.085 0.181786C292.959 2.94415 284.037 7.16274 275.188 13.5927C246.134 34.6964 229.644 20.6426 229.644 20.6426C229.644 20.6426 225.336 15.1062 211.76 18.3849C202.223 20.6884 194.654 8.36844 190.99 0.235097L164.478 0.00712621C165.201 1.06532 165.838 1.19722 166.36 2.41229C171.105 13.4519 187.415 17.1527 187.415 17.1527Z" fill="#48376D"/>
<path d="M35.6723 126.328C35.6904 128.811 33.6297 130.839 31.0694 130.858C28.5092 130.877 26.4191 128.879 26.401 126.396C26.383 123.913 28.4436 121.885 31.0039 121.867C33.5642 121.844 35.6542 123.841 35.6723 126.328Z" fill="#58448B"/>
<path d="M78.2331 56.8847C76.4922 56.8973 75.091 58.2763 75.1033 59.9646C75.1156 61.6529 76.5368 63.0112 78.2776 62.9986C80.0185 62.9859 81.4197 61.6069 81.4074 59.9186C81.3951 58.2303 79.9739 56.872 78.2331 56.8847Z" fill="#58448B"/>
<path d="M113.76 -1.11205L11.0563 -0.363676C4.4291 -0.315384 -0.904187 5.09621 -0.855896 11.7234L-0.116854 113.146L0.103751 143.42C0.786584 143.503 1.4692 143.558 2.16783 143.553C10.8596 143.489 17.866 136.599 17.8045 128.165C17.7849 125.467 17.039 122.937 15.7572 120.747C15.8354 120.754 15.9176 120.761 15.9875 120.761C19.7642 120.733 22.8088 117.813 22.9386 114.185C24.613 115.556 26.7808 116.374 29.1397 116.356C34.4287 116.318 38.6888 112.126 38.6515 106.996C38.6508 106.9 38.6419 106.817 38.633 106.721C39.5918 106.886 40.583 106.982 41.5939 106.975C50.2857 106.911 57.2921 100.021 57.2306 91.5872C57.1763 84.1381 51.6367 77.9885 44.3528 76.6824C44.7168 75.3047 44.9159 73.8683 44.9051 72.3897C44.847 64.4065 39.1516 57.7598 31.5106 55.9422C33.2919 54.4943 34.4104 52.3219 34.3927 49.8947C34.3909 49.6436 34.3727 49.4046 34.3422 49.1656C34.6258 49.1795 34.9096 49.1974 35.1931 49.1953C37.6835 49.1772 39.9371 48.232 41.6274 46.7091C44.3759 53.9074 51.5354 59.0128 59.9026 58.9519C70.5711 58.8741 79.1689 50.4253 79.0934 40.0668C79.0791 38.1059 78.7448 36.219 78.1565 34.4457C79.6708 34.1357 81.0386 33.472 82.1909 32.5589C85.5921 37.3968 91.332 40.5635 97.821 40.5162C108.173 40.4408 116.493 32.2412 116.42 22.2134C116.417 21.7351 116.385 21.2651 116.34 20.7951C121.498 19.6893 125.341 15.2051 125.302 9.87242C125.261 4.25274 120.925 -0.347177 115.338 -1.05182L115.334 -1.12352" fill="#58448B"/>
<path d="M113.76 -1.11205L29.0559 -0.494834C12.4878 -0.374106 -0.845473 13.1549 -0.724745 29.723L-0.116861 113.146L0.0909229 141.661C0.0982532 142.667 0.851614 143.534 1.85746 143.551C1.9606 143.553 2.06404 143.553 2.16783 143.553C10.8596 143.489 17.866 136.599 17.8045 128.165C17.7855 125.549 17.0835 123.091 15.8722 120.947C15.8248 120.863 15.8911 120.762 15.9875 120.761C18.3114 120.744 20.3582 119.632 21.6192 117.933C22.6054 116.605 24.9033 115.583 26.4999 116.016C27.3393 116.244 28.2251 116.363 29.1397 116.356C34.4287 116.318 38.6888 112.126 38.6514 106.996C38.6504 106.857 38.7676 106.744 38.905 106.766C39.7788 106.903 40.6782 106.981 41.5939 106.975C50.2857 106.911 57.2921 100.021 57.2306 91.5872C57.1817 84.8735 52.6771 79.2155 46.4556 77.2075C45.3438 76.8487 44.6211 75.7147 44.7718 74.5562C44.8642 73.8458 44.9105 73.1229 44.9051 72.3897C44.8571 65.8015 40.9699 60.1235 35.3182 57.3187C33.8326 56.5815 33.2803 54.2511 33.8797 52.7047C34.2182 51.8316 34.3999 50.8843 34.3927 49.8947C34.3899 49.5134 34.6915 49.1909 35.0727 49.1951C35.1129 49.1955 35.153 49.1956 35.1931 49.1953C36.6285 49.1848 37.9852 48.8664 39.2008 48.3069C40.4769 47.7196 42.1775 48.1232 42.8792 49.3402C46.211 55.1191 52.5964 59.0051 59.9026 58.9519C70.5711 58.8741 79.1689 50.4253 79.0934 40.0668C79.0848 38.8885 78.9607 37.7369 78.7353 36.6206C78.4982 35.4461 79.2042 34.2471 80.289 33.7381C80.3266 33.7204 80.3642 33.7025 80.4015 33.6844C81.4358 33.1825 82.7415 33.3594 83.5065 34.2176C86.9734 38.1071 92.1067 40.5579 97.821 40.5162C108.173 40.4408 116.493 32.2412 116.42 22.2134C116.414 21.4032 116.942 20.6783 117.708 20.413C122.163 18.8695 125.337 14.7218 125.302 9.87242C125.261 4.27674 120.962 -0.307864 115.41 -1.04258C115.368 -1.04806 115.336 -1.0819 115.334 -1.12352" fill="url(#paint0_radial)"/>
<path d="M82.1915 32.5619C85.5886 37.4038 91.3284 40.5666 97.8175 40.5193C108.161 40.4439 116.486 32.2522 116.413 22.2204C116.407 21.515 116.349 20.8219 116.266 20.1409C116.183 19.4639 116.055 18.8032 115.894 18.1547C115.898 18.6928 115.865 19.2191 115.823 19.7456C115.048 29.0262 107.079 36.3623 97.2986 36.4336C92.0014 36.4722 87.2104 34.3628 83.7785 30.96C81.4479 28.6453 79.7539 25.732 78.9575 22.4734C78.9576 22.4814 78.9577 22.4894 78.9577 22.4974C78.9849 26.2279 80.1773 29.6908 82.1915 32.5619Z" fill="#AD6475"/>
<path d="M34.8599 110.515C33.8323 113.317 31.4686 115.498 28.4992 116.329C28.713 116.344 28.9268 116.358 29.1446 116.356C33.1268 116.327 36.5247 113.943 37.9427 110.577C37.5854 110.603 37.228 110.634 36.8664 110.636C36.1842 110.645 35.5181 110.594 34.8599 110.515Z" fill="#AD6475"/>
<path d="M22.5757 116.138C23.6182 116.505 24.7417 116.712 25.9129 116.703C26.8088 116.697 27.675 116.563 28.4994 116.334C26.3902 116.214 24.4611 115.435 22.9356 114.194C22.9117 114.872 22.7891 115.522 22.5757 116.138Z" fill="#AD6475"/>
<path d="M53.7668 57.1763C52.8997 57.1826 52.0444 57.1291 51.2053 57.0276C53.8242 58.284 56.776 58.9839 59.8993 58.9611C70.572 58.8833 79.1615 50.4306 79.0861 40.08C79.0718 38.1151 78.7457 36.2283 78.1533 34.4549C76.3843 29.1428 72.2434 24.8762 66.9432 22.8183C66.7788 23.3775 66.6638 23.9563 66.6106 24.5506C69.4026 27.0054 71.4483 30.2469 72.3833 33.915C72.7428 35.3194 72.9426 36.7847 72.9536 38.2992C73.029 48.6458 64.4394 57.0985 53.7668 57.1763Z" fill="#AD6475"/>
<path d="M40.2893 75.7996C40.291 76.0348 40.268 76.2621 40.2574 76.4934C40.6271 76.4668 40.9926 76.4322 41.3666 76.4295C42.3857 76.4221 43.381 76.5185 44.3481 76.6908C44.7038 75.3131 44.9112 73.8767 44.9004 72.394C44.8422 64.4149 39.1469 57.7722 31.5058 55.9466C30.1208 57.0767 28.334 57.7673 26.3778 57.7815C24.6189 57.7944 22.9915 57.2522 21.6615 56.3332C18.8898 57.2382 16.4312 58.7947 14.4732 60.8098C16.889 59.5765 19.625 58.8551 22.5428 58.8338C32.2785 58.7709 40.2205 66.3617 40.2893 75.7996Z" fill="#AD6475"/>
<path d="M31.5103 55.9496C30.1147 55.617 28.6625 55.4243 27.1584 55.4353C25.2351 55.4493 23.3922 55.7736 21.6619 56.3362C22.992 57.2552 24.6193 57.7974 26.3782 57.7846C28.3385 57.7663 30.1253 57.0797 31.5103 55.9496Z" fill="#AD6475"/>
<path d="M52.5046 95.2482C52.5324 99.0625 51.107 102.552 48.7389 105.248C53.8163 102.68 57.2762 97.5252 57.233 91.5907C57.1787 84.1456 51.6349 77.9921 44.3552 76.6899C43.9434 78.2713 43.309 79.7626 42.4806 81.1358C48.308 83.3453 52.4577 88.8115 52.5046 95.2482Z" fill="#AD6475"/>
<path d="M40.2578 76.4926C40.2141 77.8242 40.0139 79.1171 39.6695 80.3552C40.6407 80.5314 41.5756 80.7997 42.474 81.1399C43.3024 79.7667 43.9409 78.2754 44.3486 76.694C43.3815 76.5217 42.3862 76.4253 41.367 76.4327C40.9931 76.4355 40.6275 76.466 40.2578 76.4926Z" fill="#AD6475"/>
<path d="M27.1283 97.9829C26.8904 98.0329 26.6566 98.0948 26.427 98.1608C26.7065 98.1788 26.9861 98.2049 27.2617 98.2471C27.2158 98.155 27.1659 98.071 27.1283 97.9829Z" fill="#AD6475"/>
<path d="M38.6344 106.726C37.4575 106.52 36.3249 106.185 35.253 105.734C35.3514 106.26 35.4128 106.798 35.4169 107.348C35.425 108.459 35.219 109.525 34.8563 110.516C35.5145 110.591 36.1806 110.642 36.8587 110.637C37.2245 110.635 37.5777 110.604 37.9351 110.578C38.3997 109.474 38.6539 108.269 38.6447 107.005C38.6522 106.909 38.6392 106.818 38.6344 106.726Z" fill="#AD6475"/>
<path d="M35.2514 105.735C36.3232 106.181 37.4559 106.516 38.6328 106.727C38.4443 101.73 34.1987 97.751 29.0083 97.7888C28.363 97.7935 27.7347 97.8618 27.1274 97.9858C27.1691 98.0732 27.215 98.1606 27.2608 98.2479C31.3009 98.8243 34.5203 101.85 35.2514 105.735Z" fill="#AD6475"/>
<path d="M66.9425 22.8161C65.4381 22.2332 63.8447 21.8303 62.1829 21.6272C63.7995 22.4006 65.2863 23.3862 66.6058 24.5484C66.6631 23.9541 66.778 23.3754 66.9425 22.8161Z" fill="#AD6475"/>
<path d="M-0.213031 100.063L-0.52901 56.7C-0.0937119 56.653 0.345896 56.6338 0.789733 56.6306C8.68428 56.5731 15.1364 62.7399 15.1922 70.3963C15.2313 75.7609 12.1213 80.423 7.53536 82.7682C9.73893 84.5577 11.1475 87.2299 11.1694 90.235C11.209 95.6674 6.70407 100.101 1.10268 100.141C0.654738 100.145 0.218912 100.12 -0.213031 100.063Z" fill="#48376D"/>
<path d="M77.9672 20.4126C77.9799 22.1623 76.5313 23.5878 74.7272 23.6009C72.9231 23.6141 71.4539 22.2098 71.4411 20.4601C71.4284 18.7105 72.877 17.285 74.6811 17.2718C76.4852 17.2587 77.9545 18.6669 77.9672 20.4126Z" fill="#48376D"/>
<path d="M17.0469 46.6048C17.0555 47.7885 16.0721 48.7562 14.8515 48.7651C13.631 48.774 12.6335 47.8207 12.6249 46.637C12.6163 45.4533 13.5997 44.4855 14.8203 44.4766C16.0408 44.4677 17.0382 45.421 17.0469 46.6048Z" fill="#3E3063"/>
<path d="M29.6069 42.3702C29.6244 44.7775 27.625 46.7451 25.1428 46.7632C22.6606 46.7813 20.6327 44.8431 20.6151 42.4358C20.5976 40.0285 22.597 38.0609 25.0792 38.0428C27.5614 38.0207 29.5893 39.959 29.6069 42.3702Z" fill="#3E3063"/>
<path d="M-1.67713 53.3843C-1.31529 53.4095 -0.953468 53.4308 -0.587713 53.4282C6.41505 53.3771 12.0544 47.8277 12.0049 41.0362L12.0049 41.0322C12.6017 41.1634 13.2188 41.2386 13.8558 41.234C18.2982 41.2016 21.8728 37.684 21.8414 33.3756C21.8388 33.0129 21.8033 32.6584 21.7514 32.308C21.7341 32.1806 21.7126 32.0572 21.6911 31.9298C21.6741 31.8502 21.6571 31.7706 21.6401 31.691C21.6019 31.5239 21.5759 31.3487 21.5295 31.1856L21.5008 31.1859C20.5959 28.2629 17.9743 26.0739 14.7741 25.6986C13.7166 22.139 10.635 19.4232 6.81651 18.7934C6.96826 18.1864 7.05411 17.56 7.04935 16.9064C7.01795 12.598 3.3925 9.13283 -1.04998 9.1652C-1.37053 9.16754 -1.68679 9.19377 -1.99886 9.23192L-1.80762 35.477L-1.67713 53.3843Z" fill="#3E3063"/>
</g>
<defs>
<radialGradient id="paint0_radial" cx="0" cy="0" r="1" gradientUnits="userSpaceOnUse" gradientTransform="translate(62.6624 71.1855) rotate(179.583) scale(68.8467 66.7693)">
<stop stop-color="#D37575"/>
<stop offset="0.9946" stop-color="#58448B" stop-opacity="0"/>
</radialGradient>
<clipPath id="clip0">
<rect width="65.8064" height="29.1293" fill="white" transform="translate(258.555 82) rotate(13.0039)"/>
</clipPath>
</defs>
</svg>
