<svg width="167" height="85" viewBox="0 0 167 85" fill="none" xmlns="http://www.w3.org/2000/svg">
<path fill-rule="evenodd" clip-rule="evenodd" d="M85.6231 9.6503C35.7086 1.83896 30.827 75.9269 82.8406 74.9443C104.113 75.1083 118.806 63.9269 118.598 44.0805C118.563 23.018 108.36 12.1203 85.6231 9.6503Z" fill="#EEB820"/>
<g opacity="0.7">
<path opacity="0.7" fill-rule="evenodd" clip-rule="evenodd" d="M100.817 64.1703C81.527 61.7773 67.2923 44.8004 69.5199 26.8442C70.3679 20.0091 73.5074 13.9017 78.116 9.07994C35.353 9.43645 33.5587 75.874 82.8405 74.9443C95.4138 75.0397 105.657 71.1439 111.923 63.8569C108.354 64.4969 104.614 64.6414 100.817 64.1703Z" fill="#B38A18"/>
</g>
<path d="M49.2487 25.855C46.827 24.9255 44.2685 24.474 41.7305 24.0354C39.1913 23.607 36.6311 23.2584 34.0801 23.0141C28.9853 22.5574 23.8325 22.2997 19.0267 22.8173C16.677 23.093 14.2901 23.5806 12.8292 24.4615C12.1103 24.8983 11.8232 25.3371 11.7527 25.6377C11.8098 25.6241 11.8639 25.4555 11.8929 25.4901C11.934 25.5158 12.0422 25.7149 12.2667 25.9593C12.7132 26.4684 13.4962 27.1224 14.3753 27.7162C15.2531 28.3201 16.2438 28.907 17.271 29.4676C19.3364 30.5901 21.5831 31.5907 23.8566 32.5533C33.0347 36.3526 42.8436 39.3535 52.6411 42.1777C57.5668 43.5519 62.4924 44.9261 67.4575 46.1608C72.4188 47.426 77.3961 48.6519 82.3969 49.7776C87.3817 50.9426 92.3984 52.029 97.4156 53.0226C102.426 54.0671 107.465 54.9809 112.487 55.8411C117.521 56.7028 122.56 57.431 127.57 58.032C132.586 58.5923 137.615 59.0409 142.479 59.0359C144.908 59.0175 147.311 58.9341 149.492 58.586C151.647 58.2757 153.677 57.5376 154.308 56.9147C154.47 56.7698 154.563 56.6472 154.658 56.5043C154.731 56.3689 154.757 56.331 154.77 56.2294C154.827 56.0405 154.528 55.4156 153.863 54.7866C152.529 53.4867 150.371 52.3114 148.182 51.2872C143.739 49.2406 138.813 47.6911 133.889 46.2139C131.42 45.4849 128.922 44.814 126.411 44.1621L122.632 43.1881L120.74 42.7162L119.795 42.4752L119.323 42.3548L119.088 42.2844C119.043 42.2891 119.079 42.1801 119.106 42.2248L119.172 42.2329L119.291 42.2579L119.168 42.2634C119.137 42.2491 119.064 42.302 119.105 42.2349L119.346 42.2545L119.832 42.2735L120.813 42.3127L122.772 42.4114L126.686 42.6597C129.296 42.8701 131.899 43.1415 134.518 43.4663C139.741 44.135 144.947 45.0386 150.173 46.6667C151.485 47.0769 152.788 47.5582 154.1 48.1438C155.411 48.7396 156.734 49.4193 158.042 50.3962C158.701 50.8905 159.349 51.466 159.955 52.2114C160.551 52.9453 161.101 53.8695 161.398 54.9582C161.707 56.0381 161.69 57.2426 161.43 58.2725C161.17 59.2922 160.695 60.2645 160.074 61.0743C158.818 62.7129 157.239 63.6514 155.776 64.3773C154.292 65.0802 152.841 65.5292 151.41 65.8983C148.552 66.6161 145.771 66.9724 143.019 67.1879C137.528 67.5999 132.158 67.4905 126.824 67.1692C121.5 66.8695 116.221 66.2869 110.977 65.6053C105.733 64.9238 100.534 64.052 95.3432 63.1193C90.1683 62.1473 85.0168 61.0751 79.8985 59.9142C74.7853 58.7127 69.6796 57.4502 64.6122 56.0585C59.5594 54.6376 54.5104 53.1862 49.5071 51.5446C44.5135 49.9144 39.5313 48.1929 34.6204 46.2534C29.6948 44.3429 24.838 42.2348 20.0556 39.7956C17.6596 38.5702 15.3101 37.2372 12.9859 35.701C11.8298 34.9285 10.6679 34.1141 9.5358 33.1486C8.41586 32.1744 7.28293 31.1263 6.27468 29.609C5.7821 28.8467 5.29624 27.9408 5.05296 26.7762C4.79626 25.6306 4.94118 24.1945 5.51159 23.0794C5.98294 22.1375 6.67334 21.3054 7.43673 20.6885C8.19048 20.0601 9.00043 19.6037 9.79653 19.2591C11.3766 18.5785 12.8991 18.2724 14.3641 18.0726C15.8278 17.8829 17.2521 17.8327 18.6457 17.8509C24.203 17.9732 29.4447 18.9431 34.5646 20.2692C37.1173 20.9468 39.6502 21.6942 42.123 22.5682C43.3521 23.0197 44.5787 23.4915 45.7759 24.0216C46.9962 24.5443 48.1896 25.1048 49.2487 25.855Z" fill="#FBF49C"/>
</svg>
