<svg width="100" height="78" viewBox="0 0 100 78" fill="none" xmlns="http://www.w3.org/2000/svg">
<g clip-path="url(#clip0)">
<path d="M38.1467 38.111C38.1631 38.5401 19.2134 37.4062 21.1382 39.0048L25.3404 40.698C27.2022 41.6167 15.38 43.7437 15.4707 44.0185C13.8941 45.2106 20.5636 45.5538 19.6106 46.7398C20.0919 46.7975 6.92045 58.3708 9.4832 57.9632C9.81136 58.158 22.7018 52.6428 22.3642 54.0167C22.5874 54.2263 21.0924 60.3465 22.3852 59.5613L29.3723 54.75C30.5258 54.1668 30.4798 59.2976 31.6515 58.6462L39.8117 52.2236C40.9274 51.5859 40.5772 57.0463 41.7523 55.9395C41.9043 55.5863 46.2373 49.1615 45.0925 48.7518L40.7312 48.6046C39.9843 48.5605 40.9466 47.268 39.9794 47.5161L33.7346 50.4423C31.3183 50.4906 38.7284 45.5534 36.4629 45.4771L31.7317 46.8992C31.6455 46.9261 31.5524 46.92 31.4705 46.882C31.3886 46.844 31.3237 46.7769 31.2886 46.6936C31.2535 46.6104 31.2506 46.5171 31.2805 46.4319C31.3104 46.3467 31.3709 46.2757 31.4503 46.2328C31.408 45.9686 39.5965 42.4398 37.9307 41.9143C37.6235 41.6994 34.7372 41.4675 35.6079 40.6429C35.6997 40.3893 39.7182 38.4493 38.144 38.1102" fill="#FF9810"/>
<path d="M45.0964 48.7687L40.7351 48.6215C39.9838 48.582 40.9513 47.2823 39.9824 47.5357C39.804 47.3342 32.345 51.8662 33.3183 49.8931L36.8378 46.0996C37.8105 44.0569 30.1051 48.4593 31.4605 46.2488L38.0223 42.5981C39.007 41.7587 36.005 41.5426 35.7251 41.311C34.4899 40.7684 38.2277 39.1298 38.3649 38.7913C39.7846 37.4427 31.1836 38.4652 31.0942 38.2099L24.4426 39.9966C24.3812 40.0121 24.3252 40.0441 24.2806 40.0891C24.236 40.1341 24.2044 40.1904 24.1894 40.2519C24.4323 40.4262 25.6995 40.6361 25.5749 41.1012C25.8363 41.426 29.3156 41.8846 28.5852 42.7187L18.0806 53.3421C16.6418 55.4115 30.9244 49.2437 30.8575 49.6129C31.9598 49.1379 30.6112 54.9328 30.7929 55.2004C30.5806 56.8806 38.112 50.5571 38.3521 50.7216C39.0646 50.2513 39.2154 52.2568 39.4359 52.5468C40.7172 51.3163 40.4372 53.6166 40.7654 54.5087L44.1121 51.8758C44.4877 50.6421 46.0404 49.3363 45.108 48.7694" fill="#FF8212"/>
<path d="M28.4509 43.0398C28.713 43.2333 18.3896 52.22 20.3378 52.028L30.2668 48.5634C30.313 48.5467 30.3627 48.5421 30.4113 48.55C30.4598 48.5578 30.5055 48.578 30.5441 48.6084C30.5827 48.6389 30.613 48.6787 30.632 48.724C30.651 48.7694 30.6581 48.8189 30.6527 48.8677C30.8161 49.0795 29.6473 53.9108 30.6683 53.3072L36.2647 49.4546C36.3018 49.4286 36.3445 49.4117 36.3893 49.4053C36.4342 49.3988 36.4799 49.403 36.5228 49.4175C36.5658 49.4319 36.6047 49.4563 36.6366 49.4886C36.6684 49.5208 36.6922 49.5601 36.7061 49.6033C36.903 49.7973 37.4519 53.114 38.0835 52.5757L42.9319 48.7541C38.4523 48.9085 41.6454 47.7805 39.9941 47.5948C39.8151 47.4049 32.353 51.9182 33.331 49.954C33.3039 49.6546 38.3205 45.4803 36.4806 45.5656L31.7517 46.9751C29.3023 46.7679 37.92 42.9926 37.7933 42.7908C37.8198 42.6528 38.08 42.5562 38.1883 42.4879C38.2093 42.4402 38.2198 42.3886 38.2191 42.3365C38.2185 42.2844 38.2066 42.233 38.1843 42.1859C38.162 42.1388 38.1299 42.097 38.0901 42.0634C38.0502 42.0298 38.0036 42.0051 37.9535 41.9911C33.2501 41.0494 36.4814 40.4473 38.3766 38.8503C39.6057 37.5593 33.3053 38.4681 33.1094 38.2419C34.1786 38.9871 25.3976 40.5536 25.3858 40.7877C25.4538 40.8227 25.5091 40.8782 25.5437 40.9464C25.5784 41.0147 25.5906 41.0921 25.5787 41.1676C25.5668 41.2432 25.5314 41.313 25.4775 41.3672C25.4235 41.4214 25.3539 41.4572 25.2784 41.4694C25.4613 41.7137 29.0895 42.3692 28.4481 43.0345" fill="#FCD200"/>
<path d="M49.1349 20.519L42.4904 20.2574C41.7008 19.8116 34.599 26.6037 33.9136 26.9673C32.6678 28.0256 33.3541 29.627 34.8236 29.0916L37.8991 27.9714C38.3924 27.6798 41.3411 28.3979 41.897 28.4388C42.9942 28.912 48.5868 23.2088 49.4584 22.7494C50.4528 21.9071 50.2613 20.5728 49.1396 20.5278" fill="#FB5373"/>
<path d="M43.2391 28.0934C46.296 24.8506 56.1867 19.9146 44.6245 20.4265C43.0842 23.24 41.9289 26.3605 41.2527 28.4139C41.9325 28.57 42.6372 28.6409 43.2391 28.0934Z" fill="#D33D65"/>
<path d="M64.5943 50.2703L60.7842 55.7153C60.6602 56.6134 50.956 58.1565 50.2519 58.4802C48.6544 58.8327 47.7959 57.3152 49.1114 56.4706L51.8561 54.7057C52.3867 54.4891 53.6002 51.7058 53.9033 51.2414C54.192 50.0782 62.1146 49.0861 63.0096 48.6753C64.2839 48.394 65.2284 49.3561 64.5855 50.2749" fill="#FB5373"/>
<path d="M55.0591 50.346C59.5142 49.927 69.4646 45.1086 61.9649 53.9517C58.7986 53.4454 55.6242 52.4446 53.5863 51.7136C53.8812 51.0797 54.2554 50.4808 55.0563 50.3407" fill="#D33D65"/>
<path d="M41.0095 30.8753C34.3111 30.0239 35.7326 38.2895 38.4423 43.8023C40.8609 48.7285 46.5302 55.7457 49.9095 49.9026C44.9483 47.9798 38.5555 35.8177 40.4666 30.8591" fill="#FB5373"/>
<path d="M42.5098 41.6567C39.2572 35.2679 40.885 30.9009 40.8448 30.8589C40.2092 30.7652 39.1749 30.8004 38.4889 31.0943C37.4191 36.4985 43.7077 48.1379 49.5432 50.2993L49.9056 49.8533C49.9056 49.8533 45.4223 47.383 42.508 41.6576" fill="#D33D65"/>
<path d="M70.9608 47.4218C72.4992 46.2865 73.9683 45.06 75.3601 43.7489C76.9788 42.226 78.5167 40.6192 79.9674 38.9352C80.7864 37.9912 81.5799 37.0201 82.3082 36.0021C83.0104 35.0204 83.6882 34.0223 84.3615 33.0198C85.9897 30.5955 87.4848 28.0811 88.8779 25.5145C90.0907 23.2686 91.2309 20.4787 89.9258 18.2895C88.866 15.9665 85.9242 15.3216 83.3895 15.051C73.9303 14.0346 64.1538 14.1829 55.1855 17.3487C51.9968 18.4722 48.9122 19.9898 46.3257 22.1745C43.7393 24.3593 41.6838 27.2434 40.8541 30.524C39.7958 34.6924 40.8294 39.1255 42.9406 42.9297C44.871 46.8314 47.9256 50.197 51.9604 51.701C54.6125 52.6904 57.6097 52.8075 60.3711 52.302C61.9896 51.9944 63.5683 51.5059 65.0775 50.8456C67.1618 49.9307 69.1355 48.782 70.9608 47.4218" fill="#E9F0F2"/>
<path d="M85.4272 31.3729C86.6471 29.4571 88.0269 27.6309 89.107 25.6422C90.3234 23.4033 91.2305 20.4791 89.9255 18.2899C88.8656 15.967 85.9239 15.322 83.3891 15.0514C81.197 14.8191 78.9856 14.6444 76.7673 14.5591C77.2882 20.8082 80.6375 27.3333 85.4272 31.3729Z" fill="#FB5373"/>
<g style="mix-blend-mode:multiply">
<g style="mix-blend-mode:multiply">
<g style="mix-blend-mode:multiply">
<path d="M63.7205 17.39C71.0367 16.458 86.8967 14.335 90.4898 20.2149C90.4634 19.5365 90.2697 18.875 89.9258 18.2895C88.866 15.9665 85.9242 15.3216 83.3895 15.051C73.9303 14.0346 64.1538 14.1829 55.1855 17.3487C51.9968 18.4722 48.9122 19.9898 46.3257 22.1745C43.7393 24.3593 41.6838 27.2434 40.8541 30.524C39.7958 34.6924 40.8294 39.1255 42.9406 42.9297C44.871 46.8314 47.9256 50.197 51.9604 51.701C52.8386 52.0237 53.7468 52.2579 54.6714 52.3999C50.636 50.0139 47.8274 46.5119 45.8141 42.9021C38.1324 29.1245 51.3027 18.9689 63.7205 17.39" fill="#DADFE0"/>
</g>
</g>
</g>
<g style="mix-blend-mode:multiply">
<g style="mix-blend-mode:multiply">
<g style="mix-blend-mode:multiply">
<g style="mix-blend-mode:multiply">
<path d="M47.5476 39.93C46.773 40.3383 46.1515 39.0863 46.9474 38.7187C47.7434 38.351 48.3407 39.5526 47.5476 39.93Z" fill="#E9F0F2"/>
</g>
<g style="mix-blend-mode:multiply">
<path d="M44.6452 30.4251C43.8643 30.8255 43.2473 29.5824 44.045 29.2138C44.8428 28.8452 45.4356 30.0469 44.6452 30.4251" fill="#E9F0F2"/>
</g>
<g style="mix-blend-mode:multiply">
<path d="M53.3599 47.9979C52.5853 48.4062 51.9693 47.1649 52.7597 46.7866C53.5501 46.4084 54.1576 47.6293 53.3599 47.9979Z" fill="#E9F0F2"/>
</g>
<g style="mix-blend-mode:multiply">
<path d="M57.819 49.1195C52.2145 42.4179 46.7407 33.2352 46.1426 24.7139C48.9935 32.6886 52.0751 41.8325 58.2582 48.4728C58.3223 48.5387 58.3618 48.6248 58.3699 48.7164C58.3779 48.808 58.3541 48.8996 58.3025 48.9757C58.2508 49.0517 58.1745 49.1076 58.0864 49.1338C57.9983 49.16 57.9038 49.155 57.819 49.1195" fill="#E9F0F2"/>
</g>
</g>
</g>
</g>
<g style="mix-blend-mode:multiply">
<g style="mix-blend-mode:multiply">
<g style="mix-blend-mode:multiply">
<g style="mix-blend-mode:multiply">
<path d="M71.2741 42.0631C57.8377 48.6514 47.729 28.2506 61.1022 21.5467C74.5395 14.9602 84.6491 35.3582 71.2741 42.0631Z" fill="#E9F0F2"/>
</g>
</g>
</g>
</g>
<path d="M70.4812 40.4606C59.1451 46.0162 50.6122 28.806 61.897 23.1488C73.2304 17.5922 81.7642 34.8042 70.4812 40.4606Z" fill="#06C8FC"/>
<path d="M74.8365 27.5162C73.9058 25.6399 72.3911 24.1164 70.5206 23.1753C68.6501 22.2342 66.5251 21.9263 64.4656 22.2981C74.4669 20.472 79.3504 35.438 69.9525 39.769C63.6176 43.1488 55.6216 37.4235 56.6373 30.3983C55.3253 47.1949 81.2876 43.1294 74.8365 27.5162" fill="#05B4DD"/>
<path d="M63.031 35.596C62.949 37.07 60.6388 36.9089 60.7629 35.4377C60.8423 33.9629 63.1533 34.1257 63.031 35.596Z" fill="#A4EBFC"/>
<path d="M61.0915 31.2496C61.0486 32.0237 59.8358 31.9385 59.902 31.1658C59.9681 30.393 61.1576 30.4769 61.0915 31.2496Z" fill="#A4EBFC"/>
<path d="M68.9454 25.262C69.1059 27.0978 68.4247 28.7995 67.6144 30.3887C66.9641 33.2611 66.8582 36.3407 65.0655 38.8382L64.9542 38.8066C64.7534 35.7352 66.2898 33.0682 67.2552 30.2847C67.4056 28.5085 67.7276 26.7028 68.8341 25.2305L68.9454 25.262Z" fill="#A4EBFC"/>
<path d="M70.7556 33.4669C69.8536 35.0706 68.5091 36.5917 67.3299 38.003C67.9866 35.5064 68.6596 32.8996 69.9102 30.627C69.7491 32.6096 69.2288 34.5311 68.6176 36.4126L67.9066 36.0134C68.7796 35.0824 69.7329 34.2303 70.7556 33.4669" fill="#A4EBFC"/>
</g>
<defs>
<clipPath id="clip0">
<path d="M80.3594 0.141602L99.0793 35.6556L19.5589 77.5719L0.838964 42.0579L80.3594 0.141602Z" fill="white"/>
</clipPath>
</defs>
</svg>
