<svg xmlns="http://www.w3.org/2000/svg" viewBox="0 0 459.97 234.9"><defs><style>.cls-1{isolation:isolate;}.cls-2{fill:#a1edff;}.cls-3{fill:#7ab9c4;}.cls-4{fill:#ff9810;}.cls-5{fill:#ff8212;}.cls-6{fill:#fcd200;}.cls-7{fill:#fb5373;}.cls-8{fill:#d33d65;}.cls-9{fill:#e9f0f2;}.cls-10{mix-blend-mode:multiply;}.cls-11{fill:#06c8fc;}.cls-12{fill:#05b4dd;}.cls-13{fill:#a4ebfc;}.cls-14{fill:#dadfe0;}</style></defs><title>side-rocket</title><g class="cls-1"><g id="sde-rocket"><path id="path-03" class="cls-2" d="M291.6,105.3a3.79,3.79,0,0,1-1.5,0Z" transform="translate(66 0)"/><path id="path-02" class="cls-3" d="M-14.2,141.2C-71.5,188-99.6,241,4,219.7c89-23.3,169.9-70.2,249.1-116l.1.1c-78.4,47.3-159.8,93.7-249,116.7C-100,241.5-72.5,188-14.3,141Z" transform="translate(66 0)"/><path id="path-01" class="cls-3" d="M-14.2,150.9C-71.5,197.7-99.6,250.7,4,229.4c89-23.3,169.9-70.2,249.1-116l.1.1c-78.4,47.3-159.8,93.7-249,116.7-104.2,21-76.7-32.5-18.5-79.5Z" transform="translate(66 0)"/><path id="fire-03" class="cls-4" d="M280.2,72.5c.3,1-44.5,8-39.2,10.7L251.7,85c4.8,1.2-21.7,12.2-21.3,12.8-3.1,3.6,12.7,1,11,4.2,1.1-.1-23.7,33.6-18,31.3.9.3,28.1-19.1,28.1-15.8.6.4.2,15.4,2.9,12.9l13.9-14.8c2.4-1.9,4.9,10,7.3,7.9l15.8-19.1c2.3-2,4.2,10.9,6.4,7.7.2-.9,7-18.1,4.1-18.5l-10.3,1.9c-1.8.3-.2-3.2-2.3-2.1l-13.1,10c-5.6,1.3,9.2-14,3.9-12.9l-10.3,5.7a.82.82,0,0,1-.7.1c-.2,0-.4-.2-.6-.4a.82.82,0,0,1-.1-.7c0-.2.2-.4.4-.6-.2-.6,17.1-13,12.9-13.4-.8-.3-7.7.6-6.1-1.8.1-.6,8.5-7.2,4.6-7.2" transform="translate(66 0)"/><path id="fire-02" class="cls-5" d="M301.8,93.9l-10.2,1.9c-1.8.3-.2-3.2-2.3-2.1-.5-.4-15.6,14-14.3,8.9L281.3,92c1.2-5.3-14.5,8.9-12.5,3.1l13.4-11.8c1.9-2.5-5.2-1.4-6-1.8-3.2-.6,4.7-6.4,4.9-7.2,2.6-3.9-16.9,2.9-17.2,2.3l-14.6,7.5-.3.3a.6.6,0,0,0-.1.4c.7.3,3.7.1,3.7,1.3.8.6,9.1-.1,7.8,2.2l-19.1,30.1c-2.3,5.6,27.9-16.1,27.9-15.2,2.3-1.7,2.1,12.5,2.7,13.1.4,4,14.7-14.6,15.3-14.3,1.4-1.4,2.8,3.1,3.5,3.7,2.4-3.5,2.9,2,4.1,3.9l6.5-7.8c0-3.3,3-7.2.5-7.9" transform="translate(66 0)"/><path id="fire-01" class="cls-6" d="M260.1,89c.7.3-18.8,26.5-14.3,25.1L267.2,101a.5.5,0,0,1,.6,0c.1.1.2.1.3.2a.37.37,0,0,1,.1.3c.5.4.2,12.3,2.3,10.3L281.6,100c.1-.1.2-.1.3-.2s.2-.1.3,0,.2.1.3.1.2.1.2.2c.6.3,3.5,7.8,4.7,6.2l9.4-11.4c-10.4,2.7-3.5-1.6-7.4-1.2-.5-.4-15.6,14-14.3,8.9-.2-.7,9.4-13,5.1-11.8l-10.3,5.7c-5.8.8,12.4-12.4,12-12.8,0-.3.5-.7.8-.9v-.4c0-.1-.1-.2-.2-.3s-.2-.2-.3-.2-.2-.1-.4-.1c-11.5.2-4.2-2.9-.6-7.5,2.2-3.6-12,1.7-12.6,1.3,2.9,1.2-16.8,9.3-16.7,9.9.2,0,.3.2.4.3a.76.76,0,0,1,.2.5.75.75,0,0,1-.1.5c-.1.2-.2.3-.4.3.5.4,9.3,0,8.1,1.9" transform="translate(66 0)"/><path class="cls-7" d="M297.8,31.6l-15.6,2.9c-2.1-.6-15.1,18.9-16.5,20.1-2.4,3.1,0,6.5,3.2,4.5l6.6-4.2c1-.9,8.2-.8,9.6-1,2.9.5,12.9-15.6,14.7-17.2,1.7-2.5.6-5.5-2-5.1" transform="translate(66 0)"/><path class="cls-7" d="M345.7,91.1l-6.1,14.6c.2,2.2-21.6,10.8-23.1,11.9-3.5,1.6-6.3-1.4-3.7-4.1l5.5-5.5c1.1-.8,2.5-7.9,3-9.1.1-2.9,18-9.3,19.9-10.7,2.8-1.3,5.5.5,4.5,2.9" transform="translate(66 0)"/><path class="cls-8" d="M287.9,52.3c5.5-9.1,26-25.8-.7-18.6A129.5,129.5,0,0,0,283.4,54a5.39,5.39,0,0,0,2.5-.3A4.33,4.33,0,0,0,287.9,52.3Z" transform="translate(66 0)"/><path class="cls-8" d="M323.5,96.2c10.2-3.3,30.9-19.6,17.9,4.8a118,118,0,0,1-20.6-.9,6.31,6.31,0,0,1,.8-2.3,5.81,5.81,0,0,1,1.9-1.6" transform="translate(66 0)"/><path class="cls-7" d="M282.9,60.2c-16.1,1.4-6.6,19.9,1.3,31.5,9.6,10.2,25.6,23.4,30.5,8C302.2,97.8,281,72.7,282.9,60.2Z" transform="translate(66 0)"/><path class="cls-8" d="M293.2,84.3C282.3,71.1,283,60.2,282.8,60.1l-4.5,1.1c.3,13.2,20.9,37.6,35.7,39.6l.6-1.2a48.16,48.16,0,0,1-21.4-15.3" transform="translate(66 0)"/><path class="cls-9" d="M369.7,69.1l22-42.6C398.4,8.1,390-2.2,370.7.4c-22.8,8.4-45.9,5.9-68,26.2-28.1,22.4-24.4,51.5,3.9,70.1,17.2,14.7,58.6-16.2,63.1-27.6" transform="translate(66 0)"/><g class="cls-10"><path class="cls-9" d="M357,68.3c-27.9,22.3-62-20.1-34.3-42.6C350.6,3.5,384.7,45.8,357,68.3Z" transform="translate(66 0)"/></g><path class="cls-11" d="M354.3,65C330.7,83.8,302,48,325.4,29,348.9,10.2,377.7,46,354.3,65Z" transform="translate(66 0)"/><path class="cls-12" d="M357.8,32.5a22.56,22.56,0,0,0-12.3-7.9,23.59,23.59,0,0,0-14.6,1.1c22.4-9.4,41.5,22.9,21.8,37.9-13,11.1-34.6,1.9-35.8-15,5.5,39.9,63.9,17,40.9-16.1" transform="translate(66 0)"/><path class="cls-7" d="M390.8,5.7c-4.5-6.9-18.8-7.1-32.3-2.1a58.16,58.16,0,0,0,27.4,34.1c7.8-12.3,10.8-26,4.9-32" transform="translate(66 0)"/><path class="cls-9" d="M276.6,68.2a5.65,5.65,0,0,1,2.5-1.1,6.2,6.2,0,0,1,2.7.2,5.65,5.65,0,0,1-2.5,1.1A5,5,0,0,1,276.6,68.2Z" transform="translate(66 0)"/><path class="cls-9" d="M280.8,79.2a5.92,5.92,0,0,1,2.3-1.3,6.15,6.15,0,0,1,2.7,0,5.92,5.92,0,0,1-2.3,1.3A6.15,6.15,0,0,1,280.8,79.2Z" transform="translate(66 0)"/><path class="cls-9" d="M305.6,104.2a6.26,6.26,0,0,1,.3-2.7,5.67,5.67,0,0,1,1.6-2.2,6.26,6.26,0,0,1-.3,2.7A6.91,6.91,0,0,1,305.6,104.2Z" transform="translate(66 0)"/><path class="cls-9" d="M295.7,97.7a5.83,5.83,0,0,1,.6-2.6,4.94,4.94,0,0,1,1.8-2,5.83,5.83,0,0,1-.6,2.6A4.94,4.94,0,0,1,295.7,97.7Z" transform="translate(66 0)"/><path class="cls-9" d="M287.3,89.2a5,5,0,0,1,1.7-2.1,5.65,5.65,0,0,1,2.5-1.1,5,5,0,0,1-1.7,2.1A8,8,0,0,1,287.3,89.2Z" transform="translate(66 0)"/><path id="glass-04" class="cls-13" d="M334.4,57.5c.6,3.5-4.9,4.3-5.4.8S333.9,54,334.4,57.5Z" transform="translate(66 0)"/><path id="glass-03" class="cls-13" d="M327.7,48.3a1.13,1.13,0,0,1-.3,1.1,1.7,1.7,0,0,1-1,.6,1.13,1.13,0,0,1-1.1-.3,1.7,1.7,0,0,1-.6-1,1.13,1.13,0,0,1,.3-1.1,1.7,1.7,0,0,1,1-.6,1.13,1.13,0,0,1,1.1.3A2.66,2.66,0,0,1,327.7,48.3Z" transform="translate(66 0)"/><path id="glass-02" class="cls-13" d="M342.9,30.3c1.3,4.2.6,8.5-.5,12.6,0,7,1.3,14.3-1.6,21h-.3c-2-7,.2-14.1,1-21-.6-4.2-.7-8.6,1.1-12.6Z" transform="translate(66 0)"/><path id="glass-01" class="cls-13" d="M351.3,48.5a76.41,76.41,0,0,1-5.7,12.3c.3-6.1.5-12.6,2.2-18.5a55.45,55.45,0,0,1,0,14.1l-1.9-.6a62.47,62.47,0,0,1,5.4-7.3" transform="translate(66 0)"/><g class="cls-10"><path class="cls-14" d="M299.1,84.7c-26.8-26.4,8.8-61.7,30.2-68.8,10.8-1.7,56.5-20.2,63.3-7.4-6.9-19.6-53.7,2.4-68.1,4.3,0,0-10.4,3-21.8,13.8C290.8,37.3,278.3,53.8,284,68.7c6.1,15.9,22.3,35.3,41.6,31.1C313.7,99.9,307.2,94.1,299.1,84.7Z" transform="translate(66 0)"/></g><g class="cls-10"><path class="cls-9" d="M304,77.7l-.6.3a1.27,1.27,0,0,1-.6.1,1.42,1.42,0,0,1-.6-.2,1.76,1.76,0,0,1-.5-.4l-.3-.6a1.27,1.27,0,0,1-.1-.6,1.42,1.42,0,0,1,.2-.6,1.76,1.76,0,0,1,.4-.5,1.31,1.31,0,0,1,1.2-.3,1.74,1.74,0,0,1,1.1.6,1.31,1.31,0,0,1,.3,1.2A1,1,0,0,1,304,77.7Z" transform="translate(66 0)"/><path class="cls-9" d="M292.4,57a2,2,0,0,1-1.1.3,1.7,1.7,0,0,1-1-.6,1.5,1.5,0,0,1-.4-1.1,1.61,1.61,0,0,1,.5-1.1,2.13,2.13,0,0,1,1.2-.3,1.7,1.7,0,0,1,1,.6,1.5,1.5,0,0,1,.4,1.1A2,2,0,0,1,292.4,57Z" transform="translate(66 0)"/><path class="cls-9" d="M321.7,93.5a1.39,1.39,0,0,1-1.1.2,2.07,2.07,0,0,1-1-.6,2.1,2.1,0,0,1-.4-1.1,1.53,1.53,0,0,1,.4-1,1.31,1.31,0,0,1,1.2-.3,1.74,1.74,0,0,1,1.1.6,1.31,1.31,0,0,1,.3,1.2.88.88,0,0,1-.5,1" transform="translate(66 0)"/><path class="cls-9" d="M332.7,93.8c-16.5-12.7-34-31.3-39.8-50.9,10.8,17.2,22.6,36.8,40.5,49.1a.55.55,0,0,1,.3.5c.1.2,0,.4,0,.6a1,1,0,0,1-.4.5A.73.73,0,0,1,332.7,93.8Z" transform="translate(66 0)"/></g></g></g></svg>