<svg width="328" height="207" viewBox="0 0 328 207" fill="none" xmlns="http://www.w3.org/2000/svg">
<path opacity="0.7" d="M264.062 39.6063C262.791 39.6063 261.562 39.7165 260.306 39.7992C252.793 23.2816 236.009 11.7648 216.474 11.7648C203.824 11.7648 192.36 16.6278 183.772 24.5077C172.867 9.67083 155.217 0 135.221 0C103.65 0 77.818 24.0807 75.4582 54.6361C69.789 52.7901 63.7429 51.7569 57.4594 51.7569C25.7206 51.7431 0 77.1187 0 108.418C0 138.119 23.1513 162.434 52.628 164.859C61.3831 189.394 85.0231 207 112.88 207C129.538 207 144.647 200.663 156.027 190.372C167.253 199.988 181.873 205.857 197.903 205.857C225.104 205.857 248.283 189.063 257.513 165.451C259.663 165.672 261.855 165.782 264.062 165.782C299.375 165.782 328 137.541 328 102.701C328 67.8611 299.375 39.6063 264.062 39.6063Z" fill="#FEFEFE"/>
</svg>
