<svg width="100" height="69" viewBox="0 0 100 69" fill="none" xmlns="http://www.w3.org/2000/svg">
<path d="M6.95482 35.9946C6.95482 35.9946 1.90783 39.0411 1.37928 45.4778C0.719756 53.5248 7.32902 60.0274 8.43291 61.0632C16.3425 68.4981 27.7228 64.4817 32.5406 61.4493C37.3584 58.417 40.0713 50.4783 40.0713 50.4783C40.0713 50.4783 38.6915 57.8802 42.6112 62.6783C46.5262 67.4717 52.6303 70.7677 61.1012 67.9755C69.5721 65.1833 75.0822 57.9885 74.6425 52.9833C74.287 48.8915 71.097 44.8468 71.097 44.8468C71.097 44.8468 78.2909 51.5472 83.96 51.0528C92.0988 50.337 98.9887 41.8286 91.3504 30.9894C91.3504 30.9894 105.72 23.2202 97.4171 9.53229C89.1099 -4.15562 69.5628 3.42052 68.0894 13.1155C68.0894 13.1155 64.4222 8.76008 58.3789 10.2621C52.331 11.7689 47.3635 16.1808 47.3635 16.1808C47.3635 16.1808 48.0885 1.49941 35.2863 0.204546C22.484 -1.08561 17.1096 4.03735 15.2339 6.89076C13.3583 9.74889 12.8531 12.753 12.7876 15.4981C12.7876 15.4981 6.91741 15.4651 3.8256 17.6358C-2.16157 21.85 -1.12317 30.0712 6.95482 35.9946Z" fill="white"/>
</svg>
