<svg width="375" height="356" viewBox="0 0 375 356" fill="none" xmlns="http://www.w3.org/2000/svg">
<g style="mix-blend-mode:overlay" clip-path="url(#clip0)">
<path d="M40.7076 66.3233C40.6501 65.7848 40.248 65.4056 39.8149 65.4826C39.3819 65.554 39.077 66.0541 39.1388 66.5926C39.1963 67.1311 39.5984 67.5102 40.0315 67.4333C40.4645 67.3618 40.765 66.8618 40.7076 66.3233Z" fill="white"/>
<path d="M93.899 103.585C93.8415 103.047 93.4394 102.667 93.0063 102.744C92.5733 102.816 92.2684 103.316 92.3302 103.854C92.3877 104.393 92.7898 104.772 93.2229 104.695C93.6515 104.624 93.9564 104.129 93.899 103.585Z" fill="white"/>
<path d="M113.408 81.7471C113.35 81.2086 112.948 80.8295 112.515 80.9064C112.082 80.9778 111.782 81.4779 111.839 82.0164C111.897 82.5549 112.299 82.934 112.732 82.8571C113.165 82.7802 113.465 82.2856 113.408 81.7471Z" fill="white"/>
<path d="M95.4945 44.3003C95.4371 43.7893 95.0571 43.4321 94.6461 43.4981C94.2351 43.5695 93.9479 44.0421 94.0054 44.5531C94.0628 45.0641 94.4428 45.4213 94.8538 45.3554C95.2648 45.2894 95.552 44.8169 95.4945 44.3003Z" fill="white"/>
<path d="M122.184 113.211C122.127 112.7 121.747 112.343 121.336 112.409C120.925 112.481 120.637 112.953 120.695 113.464C120.752 113.975 121.132 114.332 121.543 114.266C121.95 114.195 122.241 113.722 122.184 113.211Z" fill="white"/>
<path d="M32.3699 117.426C32.3345 117.118 32.1092 116.904 31.8617 116.948C31.6142 116.992 31.4419 117.272 31.4773 117.58C31.5126 117.888 31.738 118.102 31.9854 118.058C32.2285 118.014 32.4008 117.734 32.3699 117.426Z" fill="white"/>
<path d="M97.5261 131.356C97.4908 131.048 97.2654 130.834 97.018 130.878C96.7705 130.922 96.5982 131.202 96.6335 131.51C96.6689 131.817 96.8942 132.032 97.1417 131.988C97.3892 131.949 97.5615 131.664 97.5261 131.356Z" fill="white"/>
<path d="M50.4597 91.9193C50.4244 91.6116 50.199 91.3973 49.9515 91.4413C49.7041 91.4852 49.5317 91.7655 49.5671 92.0732C49.6024 92.3809 49.8278 92.5952 50.0753 92.5567C50.3183 92.5128 50.4907 92.227 50.4597 91.9193Z" fill="white"/>
<path d="M75.6824 89.8793C75.647 89.5716 75.4217 89.3573 75.1742 89.4012C74.9267 89.4452 74.7544 89.7254 74.7898 90.0331C74.8251 90.3409 75.0505 90.5552 75.2979 90.5112C75.541 90.4672 75.7133 90.187 75.6824 89.8793Z" fill="white"/>
<path d="M109.096 92.0892C109.061 91.7815 108.836 91.5672 108.588 91.6112C108.341 91.6551 108.168 91.9354 108.204 92.2431C108.239 92.5508 108.465 92.7651 108.712 92.7266C108.959 92.6827 109.132 92.397 109.096 92.0892Z" fill="white"/>
<path d="M97.4729 85.5941C97.4376 85.2864 97.2122 85.0721 96.9647 85.1161C96.7173 85.16 96.5449 85.4403 96.5759 85.748C96.6112 86.0557 96.8366 86.27 97.084 86.2261C97.3359 86.1876 97.5083 85.9019 97.4729 85.5941Z" fill="white"/>
<path d="M4.15018 131.466C4.06622 130.702 3.49618 130.163 2.88195 130.268C2.26771 130.372 1.83466 131.081 1.91862 131.845C2.00258 132.609 2.57262 133.147 3.18685 133.043C3.8055 132.938 4.23414 132.23 4.15018 131.466Z" fill="white"/>
<path d="M53.3724 139.593C53.6022 139.17 53.5138 138.593 53.1735 138.307C52.8333 138.022 52.3693 138.131 52.1395 138.555C51.9097 138.978 51.9981 139.555 52.3384 139.84C52.6786 140.126 53.1382 140.016 53.3724 139.593Z" fill="white"/>
<path d="M1.5912 82.6822C1.86075 82.1876 1.75912 81.5117 1.36141 81.1766C0.963706 80.8414 0.420177 80.9677 0.150622 81.4623C-0.118934 81.9568 -0.0172981 82.6327 0.380406 82.9679C0.778111 83.3086 1.32164 83.1767 1.5912 82.6822Z" fill="white"/>
<path d="M51.8392 67.1421C52.1088 66.6476 52.0072 65.9717 51.6095 65.6365C51.2117 65.3013 50.6682 65.4277 50.3987 65.9223C50.1291 66.4168 50.2307 67.0927 50.6285 67.4279C51.0262 67.7686 51.5697 67.6367 51.8392 67.1421Z" fill="white"/>
<path d="M4.89757 117.185C5.2997 116.443 5.14945 115.437 4.5529 114.932C3.95634 114.432 3.14767 114.624 2.74113 115.36C2.33901 116.102 2.49367 117.108 3.09023 117.613C3.68678 118.119 4.49545 117.926 4.89757 117.185Z" fill="white"/>
<path d="M49.4388 90.9563C49.8409 90.2145 49.6863 89.2089 49.0897 88.7089C48.4932 88.2034 47.6845 88.3957 47.2824 89.1375C46.8758 89.8793 47.0349 90.8849 47.627 91.3904C48.2236 91.8905 49.0323 91.6982 49.4388 90.9563Z" fill="white"/>
<path d="M373.082 68.3449C373.122 69.0043 373.582 69.4934 374.107 69.4494C374.638 69.4 375.031 68.8285 374.996 68.1746C374.956 67.5207 374.496 67.0261 373.97 67.0701C373.44 67.1141 373.047 67.691 373.082 68.3449Z" fill="white"/>
<path d="M220.767 82.7873C220.789 83.3313 221.16 83.7489 221.597 83.7214C222.035 83.6939 222.371 83.2269 222.349 82.6884C222.327 82.1444 221.951 81.7267 221.518 81.7542C221.08 81.7817 220.745 82.2433 220.767 82.7873Z" fill="white"/>
<path d="M149.364 59.8224C149.386 60.3664 149.758 60.784 150.195 60.7566C150.633 60.7291 150.968 60.262 150.946 59.7235C150.924 59.1795 150.553 58.7619 150.116 58.7894C149.674 58.8168 149.342 59.2839 149.364 59.8224Z" fill="white"/>
<path d="M331.915 46.8329C331.933 47.2725 332.237 47.6132 332.591 47.5912C332.944 47.5693 333.218 47.1901 333.201 46.7505C333.183 46.3109 332.878 45.9702 332.525 45.9922C332.171 46.0142 331.897 46.3934 331.915 46.8329Z" fill="white"/>
<path d="M164.685 99.0074C164.707 99.5239 165.06 99.9196 165.476 99.8921C165.891 99.8646 166.209 99.425 166.187 98.9085C166.165 98.392 165.812 97.9963 165.396 98.0238C164.981 98.0513 164.663 98.4909 164.685 99.0074Z" fill="white"/>
<path d="M168.54 12.0497C168.553 12.3574 168.765 12.5992 169.013 12.5827C169.26 12.5662 169.454 12.3025 169.441 11.9947C169.428 11.687 169.216 11.4452 168.968 11.4617C168.721 11.4727 168.526 11.7365 168.54 12.0497Z" fill="white"/>
<path d="M212.776 56.2622C212.789 56.5699 213.001 56.8117 213.249 56.7952C213.496 56.7787 213.691 56.515 213.677 56.2018C213.664 55.8941 213.452 55.6523 213.205 55.6688C212.957 55.6907 212.763 55.9545 212.776 56.2622Z" fill="white"/>
<path d="M187.505 55.663C187.518 55.9707 187.73 56.2125 187.982 56.196C188.229 56.1795 188.419 55.9157 188.406 55.608C188.393 55.3003 188.181 55.0585 187.933 55.075C187.686 55.086 187.491 55.3553 187.505 55.663Z" fill="white"/>
<path d="M165.503 57.6519C165.516 57.9596 165.728 58.2014 165.975 58.1849C166.223 58.1684 166.417 57.9046 166.404 57.5914C166.391 57.2837 166.179 57.0419 165.931 57.0584C165.679 57.0804 165.489 57.3442 165.503 57.6519Z" fill="white"/>
<path d="M300.232 54.498C300.249 54.9376 300.554 55.2783 300.908 55.2563C301.261 55.2343 301.535 54.8552 301.518 54.4156C301.5 53.976 301.195 53.6353 300.842 53.6573C300.484 53.6792 300.21 54.0584 300.232 54.498Z" fill="white"/>
<path d="M243.568 16.7469C243.599 17.5217 244.129 18.1096 244.753 18.0712C245.371 18.0327 245.848 17.3733 245.818 16.5985C245.787 15.8292 245.256 15.2358 244.633 15.2742C244.01 15.3127 243.533 15.9721 243.568 16.7469Z" fill="white"/>
<path d="M94.9004 94.6331C95.0506 95.0672 95.4528 95.265 95.7974 95.0782C96.1465 94.8914 96.3056 94.3913 96.1554 93.9627C96.0051 93.5286 95.603 93.3308 95.2539 93.5176C94.9092 93.7044 94.7502 94.2045 94.9004 94.6331Z" fill="white"/>
<path d="M43.7161 78.9134C43.8663 79.342 44.2685 79.5453 44.6131 79.3584C44.9622 79.1716 45.1213 78.6716 44.9711 78.243C44.8208 77.8089 44.4187 77.6111 44.074 77.7979C43.7293 77.9847 43.5658 78.4848 43.7161 78.9134Z" fill="white"/>
<path d="M31.541 102.695C31.6913 103.123 32.0934 103.327 32.4381 103.14C32.7827 102.953 32.9462 102.453 32.796 102.024C32.6458 101.59 32.2436 101.392 31.8945 101.579C31.5499 101.76 31.3908 102.261 31.541 102.695Z" fill="white"/>
<path d="M176.227 24.0343C176.346 24.386 176.673 24.5453 176.956 24.397C177.239 24.2431 177.367 23.8365 177.248 23.4903C177.128 23.1386 176.797 22.9793 176.518 23.1277C176.231 23.276 176.103 23.6826 176.227 24.0343Z" fill="white"/>
<path d="M216.47 51.9381C216.612 52.3502 216.996 52.537 217.323 52.3612C217.655 52.1854 217.805 51.7073 217.664 51.3007C217.522 50.8886 217.138 50.7017 216.811 50.8776C216.484 51.0534 216.329 51.5315 216.47 51.9381Z" fill="white"/>
<path d="M53.4021 128.703C53.5435 129.115 53.9279 129.302 54.2549 129.126C54.5864 128.95 54.7366 128.472 54.5952 128.065C54.4538 127.653 54.0693 127.466 53.7423 127.642C53.4153 127.818 53.2607 128.296 53.4021 128.703Z" fill="white"/>
<path d="M18.391 79.0328C18.5324 79.4449 18.9169 79.6318 19.2439 79.4559C19.5753 79.2801 19.7255 78.802 19.5841 78.3954C19.4427 77.9833 19.0583 77.7965 18.7313 77.9723C18.3998 78.1481 18.2496 78.6262 18.391 79.0328Z" fill="white"/>
<path d="M35.5374 56.8496C35.6214 57.0969 35.8512 57.2123 36.05 57.1024C36.2489 56.998 36.3373 56.7122 36.2533 56.465C36.1693 56.2177 35.9395 56.1078 35.7407 56.2122C35.5418 56.3166 35.449 56.6023 35.5374 56.8496Z" fill="white"/>
<path d="M82.0277 76.1377C82.1117 76.385 82.3415 76.4949 82.5403 76.3905C82.7392 76.2861 82.8276 76.0003 82.7436 75.753C82.6596 75.5058 82.4299 75.3959 82.231 75.5003C82.0321 75.6047 81.9438 75.8904 82.0277 76.1377Z" fill="white"/>
<path d="M61.4177 85.0879C61.5017 85.3352 61.7315 85.445 61.9303 85.3406C62.1292 85.2362 62.2175 84.9505 62.1336 84.7032C62.0496 84.456 61.8198 84.3461 61.621 84.4505C61.4266 84.5549 61.3338 84.8406 61.4177 85.0879Z" fill="white"/>
<path d="M33.2029 92.8477C33.2868 93.0949 33.5166 93.2103 33.7155 93.1004C33.9143 92.996 34.0071 92.7103 33.9187 92.463C33.8348 92.2157 33.605 92.1058 33.4061 92.2102C33.2117 92.3146 33.1189 92.6004 33.2029 92.8477Z" fill="white"/>
<path d="M44.0837 94.9131C44.1677 95.1603 44.3975 95.2757 44.5963 95.1658C44.7952 95.0614 44.8836 94.7757 44.7996 94.5284C44.7156 94.2812 44.4859 94.1713 44.287 94.2757C44.0926 94.3801 43.9998 94.6658 44.0837 94.9131Z" fill="white"/>
<path d="M152.418 42.0685C152.537 42.4202 152.868 42.5795 153.147 42.4312C153.429 42.2773 153.558 41.8707 153.438 41.5245C153.319 41.1728 152.992 41.0135 152.709 41.1618C152.426 41.3102 152.294 41.7168 152.418 42.0685Z" fill="white"/>
<path d="M113.213 29.9254C113.425 30.5409 113.999 30.8211 114.49 30.5574C114.98 30.2936 115.21 29.5793 114.998 28.9693C114.786 28.3539 114.211 28.0736 113.721 28.3374C113.226 28.6012 113 29.3155 113.213 29.9254Z" fill="white"/>
<path d="M205.382 40.5145C205.595 41.1299 206.169 41.4102 206.66 41.1464C207.154 40.8826 207.38 40.1683 207.168 39.5584C206.956 38.9484 206.381 38.6627 205.891 38.9264C205.396 39.1902 205.17 39.8991 205.382 40.5145Z" fill="white"/>
<path d="M230.213 98.458C230.297 98.7053 230.527 98.8152 230.726 98.7108C230.925 98.6064 231.013 98.3206 230.929 98.0734C230.845 97.8261 230.615 97.7162 230.417 97.8206C230.218 97.925 230.129 98.2107 230.213 98.458Z" fill="white"/>
<path d="M234.146 100.035C234.23 100.282 234.46 100.392 234.659 100.288C234.858 100.184 234.946 99.8978 234.862 99.6505C234.778 99.4032 234.548 99.2933 234.35 99.3977C234.155 99.5021 234.062 99.7879 234.146 100.035Z" fill="white"/>
<path d="M231.813 92.688C231.985 93.1771 232.44 93.4024 232.833 93.1936C233.227 92.9848 233.408 92.4133 233.24 91.9242C233.072 91.4352 232.612 91.2099 232.219 91.4187C231.826 91.6275 231.645 92.199 231.813 92.688Z" fill="white"/>
<path d="M337.85 105.579C337.673 106.167 337.907 106.826 338.385 107.046C338.857 107.271 339.388 106.969 339.564 106.381C339.746 105.793 339.503 105.134 339.03 104.908C338.557 104.694 338.031 104.991 337.85 105.579Z" fill="white"/>
<path d="M300.303 31.1553C300.126 31.7433 300.36 32.4027 300.838 32.6225C301.31 32.8423 301.841 32.5456 302.018 31.9576C302.194 31.3696 301.956 30.7103 301.483 30.4905C301.01 30.2707 300.484 30.5674 300.303 31.1553Z" fill="white"/>
<path d="M270.758 39.9698C270.581 40.5578 270.815 41.2171 271.293 41.4369C271.766 41.6567 272.296 41.36 272.477 40.7721C272.654 40.1841 272.415 39.5247 271.942 39.3049C271.465 39.0851 270.939 39.3818 270.758 39.9698Z" fill="white"/>
<path d="M272.348 90.3527C272.176 90.9132 272.406 91.5396 272.857 91.7484C273.307 91.9572 273.811 91.677 273.979 91.1165C274.151 90.556 273.921 89.9296 273.471 89.7208C273.02 89.5119 272.516 89.7977 272.348 90.3527Z" fill="white"/>
<path d="M275.804 1.94447C275.636 2.50495 275.861 3.13138 276.312 3.34018C276.762 3.54899 277.266 3.26875 277.434 2.70827C277.606 2.14778 277.377 1.52136 276.926 1.31255C276.48 1.10374 275.976 1.38948 275.804 1.94447Z" fill="white"/>
<path d="M308.94 0.422518C308.839 0.757709 308.971 1.13137 309.245 1.25775C309.515 1.38413 309.82 1.21379 309.921 0.878598C310.023 0.543407 309.886 0.169751 309.616 0.0378725C309.342 -0.0830161 309.042 0.0873269 308.94 0.422518Z" fill="white"/>
<path d="M339.301 72.8516C339.2 73.1868 339.336 73.5604 339.606 73.6868C339.876 73.8132 340.176 73.6428 340.278 73.3076C340.379 72.9725 340.242 72.5988 339.973 72.4724C339.703 72.346 339.403 72.5164 339.301 72.8516Z" fill="white"/>
<path d="M312.739 57.6078C312.637 57.943 312.774 58.3167 313.044 58.4485C313.313 58.5749 313.614 58.4046 313.715 58.0694C313.817 57.7342 313.68 57.3605 313.41 57.2342C313.141 57.1023 312.84 57.2726 312.739 57.6078Z" fill="white"/>
<path d="M279.737 32.4142C279.635 32.7493 279.772 33.1285 280.042 33.2549C280.311 33.3813 280.612 33.2109 280.718 32.8757C280.819 32.5405 280.682 32.1669 280.413 32.0405C280.139 31.9086 279.838 32.0735 279.737 32.4142Z" fill="white"/>
<path d="M288.672 46.9975C288.571 47.3327 288.708 47.7063 288.977 47.8382C289.247 47.9646 289.547 47.7942 289.649 47.459C289.75 47.1238 289.614 46.7502 289.344 46.6238C289.079 46.4919 288.774 46.6623 288.672 46.9975Z" fill="white"/>
</g>
<g style="mix-blend-mode:overlay" clip-path="url(#clip1)">
<path d="M39.7076 280.745C39.6501 280.195 39.248 279.808 38.8149 279.886C38.3819 279.959 38.077 280.47 38.1388 281.02C38.1963 281.57 38.5984 281.957 39.0315 281.879C39.4645 281.806 39.765 281.295 39.7076 280.745Z" fill="white"/>
<path d="M92.899 318.804C92.8415 318.254 92.4394 317.867 92.0063 317.946C91.5733 318.019 91.2684 318.529 91.3302 319.079C91.3877 319.629 91.7898 320.017 92.2229 319.938C92.6515 319.865 92.9564 319.36 92.899 318.804Z" fill="white"/>
<path d="M112.408 296.499C112.35 295.949 111.948 295.561 111.515 295.64C111.082 295.713 110.782 296.224 110.839 296.774C110.897 297.324 111.299 297.711 111.732 297.633C112.165 297.554 112.465 297.049 112.408 296.499Z" fill="white"/>
<path d="M94.4945 258.249C94.4371 257.727 94.0571 257.363 93.6461 257.43C93.2351 257.503 92.9479 257.986 93.0054 258.508C93.0628 259.029 93.4428 259.394 93.8538 259.327C94.2648 259.26 94.552 258.777 94.4945 258.249Z" fill="white"/>
<path d="M121.184 328.637C121.127 328.115 120.747 327.75 120.336 327.818C119.925 327.891 119.637 328.373 119.695 328.895C119.752 329.417 120.132 329.782 120.543 329.715C120.95 329.642 121.241 329.159 121.184 328.637Z" fill="white"/>
<path d="M31.3699 332.942C31.3345 332.628 31.1092 332.409 30.8617 332.454C30.6142 332.499 30.4419 332.785 30.4773 333.1C30.5126 333.414 30.738 333.633 30.9854 333.588C31.2285 333.543 31.4008 333.257 31.3699 332.942Z" fill="white"/>
<path d="M96.5261 347.171C96.4908 346.857 96.2654 346.638 96.018 346.683C95.7705 346.727 95.5982 347.014 95.6335 347.328C95.6689 347.642 95.8942 347.861 96.1417 347.816C96.3892 347.777 96.5615 347.485 96.5261 347.171Z" fill="white"/>
<path d="M49.4597 306.889C49.4244 306.574 49.199 306.355 48.9515 306.4C48.7041 306.445 48.5317 306.732 48.5671 307.046C48.6024 307.36 48.8278 307.579 49.0753 307.54C49.3183 307.495 49.4907 307.203 49.4597 306.889Z" fill="white"/>
<path d="M74.6824 304.806C74.647 304.491 74.4217 304.272 74.1742 304.317C73.9267 304.362 73.7544 304.649 73.7898 304.963C73.8251 305.277 74.0505 305.496 74.2979 305.451C74.541 305.406 74.7133 305.12 74.6824 304.806Z" fill="white"/>
<path d="M108.096 307.062C108.061 306.748 107.836 306.529 107.588 306.574C107.341 306.619 107.168 306.905 107.204 307.22C107.239 307.534 107.465 307.753 107.712 307.714C107.959 307.669 108.132 307.377 108.096 307.062Z" fill="white"/>
<path d="M96.4729 300.428C96.4376 300.113 96.2122 299.895 95.9647 299.939C95.7173 299.984 95.5449 300.271 95.5759 300.585C95.6112 300.899 95.8366 301.118 96.084 301.073C96.3359 301.034 96.5083 300.742 96.4729 300.428Z" fill="white"/>
<path d="M3.15018 347.283C3.06622 346.503 2.49618 345.952 1.88195 346.059C1.26771 346.166 0.834656 346.89 0.918616 347.67C1.00258 348.45 1.57262 349 2.18685 348.894C2.8055 348.787 3.23414 348.063 3.15018 347.283Z" fill="white"/>
<path d="M52.3724 355.585C52.6022 355.153 52.5138 354.564 52.1735 354.272C51.8333 353.98 51.3693 354.092 51.1395 354.524C50.9097 354.956 50.9981 355.546 51.3384 355.838C51.6786 356.129 52.1382 356.017 52.3724 355.585Z" fill="white"/>
<path d="M0.591196 297.454C0.860751 296.949 0.759115 296.258 0.361411 295.916C-0.0362937 295.574 -0.579823 295.703 -0.849378 296.208C-1.11893 296.713 -1.0173 297.403 -0.619594 297.746C-0.221889 298.094 0.32164 297.959 0.591196 297.454Z" fill="white"/>
<path d="M50.8392 281.581C51.1088 281.076 51.0072 280.385 50.6095 280.043C50.2117 279.7 49.6682 279.83 49.3987 280.335C49.1291 280.84 49.2307 281.53 49.6285 281.873C50.0262 282.221 50.5697 282.086 50.8392 281.581Z" fill="white"/>
<path d="M3.89757 332.696C4.2997 331.938 4.14945 330.911 3.5529 330.395C2.95634 329.884 2.14767 330.08 1.74113 330.832C1.33901 331.59 1.49367 332.617 2.09023 333.134C2.68678 333.65 3.49545 333.454 3.89757 332.696Z" fill="white"/>
<path d="M48.4388 305.906C48.8409 305.148 48.6863 304.121 48.0897 303.61C47.4932 303.094 46.6845 303.291 46.2824 304.048C45.8758 304.806 46.0349 305.833 46.627 306.349C47.2236 306.86 48.0323 306.664 48.4388 305.906Z" fill="white"/>
<path d="M372.082 282.81C372.122 283.483 372.582 283.983 373.107 283.938C373.638 283.887 374.031 283.304 373.996 282.636C373.956 281.968 373.496 281.463 372.97 281.508C372.44 281.553 372.047 282.142 372.082 282.81Z" fill="white"/>
<path d="M219.767 297.56C219.789 298.116 220.16 298.543 220.597 298.515C221.035 298.487 221.371 298.009 221.349 297.459C221.327 296.904 220.951 296.477 220.518 296.505C220.08 296.533 219.745 297.005 219.767 297.56Z" fill="white"/>
<path d="M148.364 274.104C148.386 274.66 148.758 275.087 149.195 275.059C149.633 275.03 149.968 274.553 149.946 274.003C149.924 273.448 149.553 273.021 149.116 273.049C148.674 273.077 148.342 273.554 148.364 274.104Z" fill="white"/>
<path d="M330.915 260.836C330.933 261.285 331.237 261.633 331.591 261.611C331.944 261.588 332.218 261.201 332.201 260.752C332.183 260.303 331.878 259.955 331.525 259.978C331.171 260 330.897 260.387 330.915 260.836Z" fill="white"/>
<path d="M163.685 314.129C163.707 314.657 164.06 315.061 164.476 315.033C164.891 315.005 165.209 314.556 165.187 314.028C165.165 313.5 164.812 313.096 164.396 313.124C163.981 313.152 163.663 313.601 163.685 314.129Z" fill="white"/>
<path d="M167.54 225.307C167.553 225.622 167.765 225.869 168.013 225.852C168.26 225.835 168.454 225.566 168.441 225.251C168.428 224.937 168.216 224.69 167.968 224.707C167.721 224.718 167.526 224.988 167.54 225.307Z" fill="white"/>
<path d="M211.776 270.468C211.789 270.783 212.001 271.03 212.249 271.013C212.496 270.996 212.691 270.726 212.677 270.407C212.664 270.092 212.452 269.845 212.205 269.862C211.957 269.885 211.763 270.154 211.776 270.468Z" fill="white"/>
<path d="M186.505 269.856C186.518 270.171 186.73 270.418 186.982 270.401C187.229 270.384 187.419 270.114 187.406 269.8C187.393 269.486 187.181 269.239 186.933 269.256C186.686 269.267 186.491 269.542 186.505 269.856Z" fill="white"/>
<path d="M164.503 271.887C164.516 272.202 164.728 272.449 164.975 272.432C165.223 272.415 165.417 272.145 165.404 271.826C165.391 271.511 165.179 271.264 164.931 271.281C164.679 271.304 164.489 271.573 164.503 271.887Z" fill="white"/>
<path d="M299.232 268.666C299.249 269.115 299.554 269.463 299.908 269.441C300.261 269.419 300.535 269.031 300.518 268.582C300.5 268.133 300.195 267.785 299.842 267.808C299.484 267.83 299.21 268.217 299.232 268.666Z" fill="white"/>
<path d="M242.568 230.107C242.599 230.898 243.129 231.499 243.753 231.459C244.371 231.42 244.848 230.746 244.818 229.955C244.787 229.169 244.256 228.563 243.633 228.602C243.01 228.642 242.533 229.315 242.568 230.107Z" fill="white"/>
<path d="M93.9004 309.66C94.0506 310.104 94.4528 310.306 94.7974 310.115C95.1465 309.924 95.3056 309.413 95.1554 308.976C95.0051 308.532 94.603 308.33 94.2539 308.521C93.9092 308.712 93.7502 309.223 93.9004 309.66Z" fill="white"/>
<path d="M42.7161 293.604C42.8663 294.042 43.2685 294.249 43.6131 294.058C43.9622 293.868 44.1213 293.357 43.9711 292.919C43.8208 292.476 43.4187 292.274 43.074 292.464C42.7293 292.655 42.5658 293.166 42.7161 293.604Z" fill="white"/>
<path d="M30.541 317.895C30.6913 318.333 31.0934 318.54 31.4381 318.349C31.7827 318.159 31.9462 317.648 31.796 317.21C31.6458 316.767 31.2436 316.565 30.8945 316.755C30.5499 316.941 30.3908 317.451 30.541 317.895Z" fill="white"/>
<path d="M175.227 237.549C175.346 237.908 175.673 238.071 175.956 237.92C176.239 237.762 176.367 237.347 176.248 236.993C176.128 236.634 175.797 236.471 175.518 236.623C175.231 236.775 175.103 237.19 175.227 237.549Z" fill="white"/>
<path d="M215.47 266.05C215.612 266.471 215.996 266.662 216.323 266.482C216.655 266.303 216.805 265.814 216.664 265.399C216.522 264.978 216.138 264.787 215.811 264.967C215.484 265.146 215.329 265.635 215.47 266.05Z" fill="white"/>
<path d="M52.4021 344.46C52.5435 344.881 52.9279 345.072 53.2549 344.892C53.5864 344.713 53.7366 344.225 53.5952 343.809C53.4538 343.388 53.0693 343.197 52.7423 343.377C52.4153 343.557 52.2607 344.045 52.4021 344.46Z" fill="white"/>
<path d="M17.391 293.727C17.5324 294.148 17.9169 294.339 18.2439 294.159C18.5753 293.979 18.7255 293.491 18.5841 293.076C18.4427 292.655 18.0583 292.464 17.7313 292.644C17.3998 292.823 17.2496 293.312 17.391 293.727Z" fill="white"/>
<path d="M34.5374 271.067C34.6214 271.32 34.8512 271.438 35.05 271.325C35.2489 271.219 35.3373 270.927 35.2533 270.674C35.1693 270.422 34.9395 270.31 34.7407 270.416C34.5418 270.523 34.449 270.815 34.5374 271.067Z" fill="white"/>
<path d="M81.0277 290.769C81.1117 291.022 81.3415 291.134 81.5403 291.028C81.7392 290.921 81.8276 290.629 81.7436 290.376C81.6596 290.124 81.4299 290.012 81.231 290.118C81.0321 290.225 80.9438 290.517 81.0277 290.769Z" fill="white"/>
<path d="M60.4177 299.911C60.5017 300.164 60.7315 300.276 60.9303 300.169C61.1292 300.063 61.2175 299.771 61.1336 299.518C61.0496 299.266 60.8198 299.153 60.621 299.26C60.4266 299.367 60.3338 299.658 60.4177 299.911Z" fill="white"/>
<path d="M32.2029 307.837C32.2868 308.089 32.5166 308.207 32.7155 308.095C32.9143 307.988 33.0071 307.696 32.9187 307.444C32.8348 307.191 32.605 307.079 32.4061 307.186C32.2117 307.292 32.1189 307.584 32.2029 307.837Z" fill="white"/>
<path d="M43.0837 309.947C43.1677 310.2 43.3975 310.318 43.5963 310.205C43.7952 310.099 43.8836 309.807 43.7996 309.554C43.7156 309.302 43.4859 309.189 43.287 309.296C43.0926 309.403 42.9998 309.695 43.0837 309.947Z" fill="white"/>
<path d="M151.418 255.97C151.537 256.329 151.868 256.492 152.147 256.34C152.429 256.183 152.558 255.768 152.438 255.414C152.319 255.055 151.992 254.892 151.709 255.044C151.426 255.195 151.294 255.611 151.418 255.97Z" fill="white"/>
<path d="M112.213 243.566C112.425 244.195 112.999 244.481 113.49 244.212C113.98 243.942 114.21 243.212 113.998 242.589C113.786 241.961 113.211 241.675 112.721 241.944C112.226 242.213 112 242.943 112.213 243.566Z" fill="white"/>
<path d="M204.382 254.382C204.595 255.01 205.169 255.297 205.66 255.027C206.154 254.758 206.38 254.028 206.168 253.405C205.956 252.782 205.381 252.49 204.891 252.76C204.396 253.029 204.17 253.753 204.382 254.382Z" fill="white"/>
<path d="M229.213 313.567C229.297 313.82 229.527 313.932 229.726 313.825C229.925 313.719 230.013 313.427 229.929 313.174C229.845 312.922 229.615 312.81 229.417 312.916C229.218 313.023 229.129 313.315 229.213 313.567Z" fill="white"/>
<path d="M233.146 315.179C233.23 315.431 233.46 315.543 233.659 315.437C233.858 315.33 233.946 315.038 233.862 314.786C233.778 314.533 233.548 314.421 233.35 314.527C233.155 314.634 233.062 314.926 233.146 315.179Z" fill="white"/>
<path d="M230.813 307.674C230.985 308.173 231.44 308.404 231.833 308.19C232.227 307.977 232.408 307.393 232.24 306.894C232.072 306.394 231.612 306.164 231.219 306.377C230.826 306.591 230.645 307.174 230.813 307.674Z" fill="white"/>
<path d="M336.85 320.842C336.673 321.442 336.907 322.116 337.385 322.34C337.857 322.57 338.388 322.262 338.564 321.661C338.746 321.061 338.503 320.387 338.03 320.157C337.557 319.938 337.031 320.241 336.85 320.842Z" fill="white"/>
<path d="M299.303 244.823C299.126 245.424 299.36 246.098 299.838 246.322C300.31 246.547 300.841 246.243 301.018 245.643C301.194 245.042 300.956 244.369 300.483 244.144C300.01 243.92 299.484 244.223 299.303 244.823Z" fill="white"/>
<path d="M269.758 253.826C269.581 254.427 269.815 255.1 270.293 255.325C270.766 255.55 271.296 255.246 271.477 254.646C271.654 254.045 271.415 253.372 270.942 253.147C270.465 252.923 269.939 253.226 269.758 253.826Z" fill="white"/>
<path d="M271.348 305.289C271.176 305.861 271.406 306.501 271.857 306.714C272.307 306.927 272.811 306.641 272.979 306.069C273.151 305.496 272.921 304.856 272.471 304.643C272.02 304.43 271.516 304.722 271.348 305.289Z" fill="white"/>
<path d="M274.804 214.986C274.636 215.558 274.861 216.198 275.312 216.411C275.762 216.625 276.266 216.339 276.434 215.766C276.606 215.194 276.377 214.554 275.926 214.34C275.48 214.127 274.976 214.419 274.804 214.986Z" fill="white"/>
<path d="M307.94 213.432C307.839 213.774 307.971 214.156 308.245 214.285C308.515 214.414 308.82 214.24 308.921 213.897C309.023 213.555 308.886 213.173 308.616 213.039C308.342 212.915 308.042 213.089 307.94 213.432Z" fill="white"/>
<path d="M338.301 287.412C338.2 287.755 338.336 288.136 338.606 288.265C338.876 288.395 339.176 288.221 339.278 287.878C339.379 287.536 339.242 287.154 338.973 287.025C338.703 286.896 338.403 287.07 338.301 287.412Z" fill="white"/>
<path d="M311.739 271.842C311.637 272.185 311.774 272.566 312.044 272.701C312.313 272.83 312.614 272.656 312.715 272.314C312.817 271.971 312.68 271.59 312.41 271.461C312.141 271.326 311.84 271.5 311.739 271.842Z" fill="white"/>
<path d="M278.737 246.109C278.635 246.451 278.772 246.838 279.042 246.967C279.311 247.097 279.612 246.923 279.718 246.58C279.819 246.238 279.682 245.856 279.413 245.727C279.139 245.592 278.838 245.761 278.737 246.109Z" fill="white"/>
<path d="M287.672 261.004C287.571 261.347 287.708 261.729 287.977 261.863C288.247 261.992 288.547 261.818 288.649 261.476C288.75 261.134 288.614 260.752 288.344 260.623C288.079 260.488 287.774 260.662 287.672 261.004Z" fill="white"/>
</g>
<g style="mix-blend-mode:overlay" clip-path="url(#clip2)">
<path d="M40.7076 152.745C40.6501 152.195 40.248 151.808 39.8149 151.886C39.3819 151.959 39.077 152.47 39.1388 153.02C39.1963 153.57 39.5984 153.957 40.0315 153.879C40.4645 153.806 40.765 153.295 40.7076 152.745Z" fill="white"/>
<path d="M93.899 190.804C93.8415 190.254 93.4394 189.867 93.0063 189.946C92.5733 190.019 92.2684 190.529 92.3302 191.079C92.3877 191.629 92.7898 192.017 93.2229 191.938C93.6515 191.865 93.9564 191.36 93.899 190.804Z" fill="white"/>
<path d="M113.408 168.499C113.35 167.949 112.948 167.561 112.515 167.64C112.082 167.713 111.782 168.224 111.839 168.774C111.897 169.324 112.299 169.711 112.732 169.633C113.165 169.554 113.465 169.049 113.408 168.499Z" fill="white"/>
<path d="M95.4945 130.249C95.4371 129.727 95.0571 129.363 94.6461 129.43C94.2351 129.503 93.9479 129.986 94.0054 130.508C94.0628 131.029 94.4428 131.394 94.8538 131.327C95.2648 131.26 95.552 130.777 95.4945 130.249Z" fill="white"/>
<path d="M122.184 200.637C122.127 200.115 121.747 199.75 121.336 199.818C120.925 199.891 120.637 200.373 120.695 200.895C120.752 201.417 121.132 201.782 121.543 201.715C121.95 201.642 122.241 201.159 122.184 200.637Z" fill="white"/>
<path d="M32.3699 204.942C32.3345 204.628 32.1092 204.409 31.8617 204.454C31.6142 204.499 31.4419 204.785 31.4773 205.1C31.5126 205.414 31.738 205.633 31.9854 205.588C32.2285 205.543 32.4008 205.257 32.3699 204.942Z" fill="white"/>
<path d="M97.5261 219.171C97.4908 218.857 97.2654 218.638 97.018 218.683C96.7705 218.727 96.5982 219.014 96.6335 219.328C96.6689 219.642 96.8942 219.861 97.1417 219.816C97.3892 219.777 97.5615 219.485 97.5261 219.171Z" fill="white"/>
<path d="M50.4597 178.889C50.4244 178.574 50.199 178.355 49.9515 178.4C49.7041 178.445 49.5317 178.732 49.5671 179.046C49.6024 179.36 49.8278 179.579 50.0753 179.54C50.3183 179.495 50.4907 179.203 50.4597 178.889Z" fill="white"/>
<path d="M75.6824 176.806C75.647 176.491 75.4217 176.272 75.1742 176.317C74.9267 176.362 74.7544 176.649 74.7898 176.963C74.8251 177.277 75.0505 177.496 75.2979 177.451C75.541 177.406 75.7133 177.12 75.6824 176.806Z" fill="white"/>
<path d="M109.096 179.062C109.061 178.748 108.836 178.529 108.588 178.574C108.341 178.619 108.168 178.905 108.204 179.22C108.239 179.534 108.465 179.753 108.712 179.714C108.959 179.669 109.132 179.377 109.096 179.062Z" fill="white"/>
<path d="M97.4729 172.428C97.4376 172.113 97.2122 171.895 96.9647 171.939C96.7173 171.984 96.5449 172.271 96.5759 172.585C96.6112 172.899 96.8366 173.118 97.084 173.073C97.3359 173.034 97.5083 172.742 97.4729 172.428Z" fill="white"/>
<path d="M4.15018 219.283C4.06622 218.503 3.49618 217.952 2.88195 218.059C2.26771 218.166 1.83466 218.89 1.91862 219.67C2.00258 220.45 2.57262 221 3.18685 220.894C3.8055 220.787 4.23414 220.063 4.15018 219.283Z" fill="white"/>
<path d="M53.3724 227.585C53.6022 227.153 53.5138 226.564 53.1735 226.272C52.8333 225.98 52.3693 226.092 52.1395 226.524C51.9097 226.956 51.9981 227.546 52.3384 227.838C52.6786 228.129 53.1382 228.017 53.3724 227.585Z" fill="white"/>
<path d="M1.5912 169.454C1.86075 168.949 1.75912 168.258 1.36141 167.916C0.963706 167.574 0.420177 167.703 0.150622 168.208C-0.118934 168.713 -0.0172981 169.403 0.380406 169.746C0.778111 170.094 1.32164 169.959 1.5912 169.454Z" fill="white"/>
<path d="M51.8392 153.581C52.1088 153.076 52.0072 152.385 51.6095 152.043C51.2117 151.7 50.6682 151.83 50.3987 152.335C50.1291 152.84 50.2307 153.53 50.6285 153.873C51.0262 154.221 51.5697 154.086 51.8392 153.581Z" fill="white"/>
<path d="M4.89757 204.696C5.2997 203.938 5.14945 202.911 4.5529 202.395C3.95634 201.884 3.14767 202.08 2.74113 202.832C2.33901 203.59 2.49367 204.617 3.09023 205.134C3.68678 205.65 4.49545 205.454 4.89757 204.696Z" fill="white"/>
<path d="M49.4388 177.906C49.8409 177.148 49.6863 176.121 49.0897 175.61C48.4932 175.094 47.6845 175.291 47.2824 176.048C46.8758 176.806 47.0349 177.833 47.627 178.349C48.2236 178.86 49.0323 178.664 49.4388 177.906Z" fill="white"/>
<path d="M373.082 154.81C373.122 155.483 373.582 155.983 374.107 155.938C374.638 155.887 375.031 155.304 374.996 154.636C374.956 153.968 374.496 153.463 373.97 153.508C373.44 153.553 373.047 154.142 373.082 154.81Z" fill="white"/>
<path d="M220.767 169.56C220.789 170.116 221.16 170.543 221.597 170.515C222.035 170.487 222.371 170.009 222.349 169.459C222.327 168.904 221.951 168.477 221.518 168.505C221.08 168.533 220.745 169.005 220.767 169.56Z" fill="white"/>
<path d="M149.364 146.104C149.386 146.66 149.758 147.087 150.195 147.059C150.633 147.03 150.968 146.553 150.946 146.003C150.924 145.448 150.553 145.021 150.116 145.049C149.674 145.077 149.342 145.554 149.364 146.104Z" fill="white"/>
<path d="M331.915 132.836C331.933 133.285 332.237 133.633 332.591 133.611C332.944 133.588 333.218 133.201 333.201 132.752C333.183 132.303 332.878 131.955 332.525 131.978C332.171 132 331.897 132.387 331.915 132.836Z" fill="white"/>
<path d="M164.685 186.129C164.707 186.657 165.06 187.061 165.476 187.033C165.891 187.005 166.209 186.556 166.187 186.028C166.165 185.5 165.812 185.096 165.396 185.124C164.981 185.152 164.663 185.601 164.685 186.129Z" fill="white"/>
<path d="M168.54 97.3074C168.553 97.6217 168.765 97.8687 169.013 97.8519C169.26 97.835 169.454 97.5656 169.441 97.2513C169.428 96.937 169.216 96.69 168.968 96.7069C168.721 96.7181 168.526 96.9875 168.54 97.3074Z" fill="white"/>
<path d="M212.776 142.468C212.789 142.783 213.001 143.03 213.249 143.013C213.496 142.996 213.691 142.726 213.677 142.407C213.664 142.092 213.452 141.845 213.205 141.862C212.957 141.885 212.763 142.154 212.776 142.468Z" fill="white"/>
<path d="M187.505 141.856C187.518 142.171 187.73 142.418 187.982 142.401C188.229 142.384 188.419 142.114 188.406 141.8C188.393 141.486 188.181 141.239 187.933 141.256C187.686 141.267 187.491 141.542 187.505 141.856Z" fill="white"/>
<path d="M165.503 143.887C165.516 144.202 165.728 144.449 165.975 144.432C166.223 144.415 166.417 144.145 166.404 143.826C166.391 143.511 166.179 143.264 165.931 143.281C165.679 143.304 165.489 143.573 165.503 143.887Z" fill="white"/>
<path d="M300.232 140.666C300.249 141.115 300.554 141.463 300.908 141.441C301.261 141.419 301.535 141.031 301.518 140.582C301.5 140.133 301.195 139.785 300.842 139.808C300.484 139.83 300.21 140.217 300.232 140.666Z" fill="white"/>
<path d="M243.568 102.107C243.599 102.898 244.129 103.499 244.753 103.459C245.371 103.42 245.848 102.746 245.818 101.955C245.787 101.169 245.256 100.563 244.633 100.602C244.01 100.642 243.533 101.315 243.568 102.107Z" fill="white"/>
<path d="M94.9004 181.66C95.0506 182.104 95.4528 182.306 95.7974 182.115C96.1465 181.924 96.3056 181.413 96.1554 180.976C96.0051 180.532 95.603 180.33 95.2539 180.521C94.9092 180.712 94.7502 181.223 94.9004 181.66Z" fill="white"/>
<path d="M43.7161 165.604C43.8663 166.042 44.2685 166.249 44.6131 166.058C44.9622 165.868 45.1213 165.357 44.9711 164.919C44.8208 164.476 44.4187 164.274 44.074 164.464C43.7293 164.655 43.5658 165.166 43.7161 165.604Z" fill="white"/>
<path d="M31.541 189.895C31.6913 190.333 32.0934 190.54 32.4381 190.349C32.7827 190.159 32.9462 189.648 32.796 189.21C32.6458 188.767 32.2436 188.565 31.8945 188.755C31.5499 188.941 31.3908 189.451 31.541 189.895Z" fill="white"/>
<path d="M176.227 109.549C176.346 109.908 176.673 110.071 176.956 109.92C177.239 109.762 177.367 109.347 177.248 108.993C177.128 108.634 176.797 108.471 176.518 108.623C176.231 108.775 176.103 109.19 176.227 109.549Z" fill="white"/>
<path d="M216.47 138.05C216.612 138.471 216.996 138.662 217.323 138.482C217.655 138.303 217.805 137.814 217.664 137.399C217.522 136.978 217.138 136.787 216.811 136.967C216.484 137.146 216.329 137.635 216.47 138.05Z" fill="white"/>
<path d="M53.4021 216.46C53.5435 216.881 53.9279 217.072 54.2549 216.892C54.5864 216.713 54.7366 216.225 54.5952 215.809C54.4538 215.388 54.0693 215.197 53.7423 215.377C53.4153 215.557 53.2607 216.045 53.4021 216.46Z" fill="white"/>
<path d="M18.391 165.727C18.5324 166.148 18.9169 166.339 19.2439 166.159C19.5753 165.979 19.7255 165.491 19.5841 165.076C19.4427 164.655 19.0583 164.464 18.7313 164.644C18.3998 164.823 18.2496 165.312 18.391 165.727Z" fill="white"/>
<path d="M35.5374 143.067C35.6214 143.32 35.8512 143.438 36.05 143.325C36.2489 143.219 36.3373 142.927 36.2533 142.674C36.1693 142.422 35.9395 142.31 35.7407 142.416C35.5418 142.523 35.449 142.815 35.5374 143.067Z" fill="white"/>
<path d="M82.0277 162.769C82.1117 163.022 82.3415 163.134 82.5403 163.028C82.7392 162.921 82.8276 162.629 82.7436 162.376C82.6596 162.124 82.4299 162.012 82.231 162.118C82.0321 162.225 81.9438 162.517 82.0277 162.769Z" fill="white"/>
<path d="M61.4177 171.911C61.5017 172.164 61.7315 172.276 61.9303 172.169C62.1292 172.063 62.2175 171.771 62.1336 171.518C62.0496 171.266 61.8198 171.153 61.621 171.26C61.4266 171.367 61.3338 171.658 61.4177 171.911Z" fill="white"/>
<path d="M33.2029 179.837C33.2868 180.089 33.5166 180.207 33.7155 180.095C33.9143 179.988 34.0071 179.696 33.9187 179.444C33.8348 179.191 33.605 179.079 33.4061 179.186C33.2117 179.292 33.1189 179.584 33.2029 179.837Z" fill="white"/>
<path d="M44.0837 181.947C44.1677 182.2 44.3975 182.318 44.5963 182.205C44.7952 182.099 44.8836 181.807 44.7996 181.554C44.7156 181.302 44.4859 181.189 44.287 181.296C44.0926 181.403 43.9998 181.695 44.0837 181.947Z" fill="white"/>
<path d="M152.418 127.97C152.537 128.329 152.868 128.492 153.147 128.34C153.429 128.183 153.558 127.768 153.438 127.414C153.319 127.055 152.992 126.892 152.709 127.044C152.426 127.195 152.294 127.611 152.418 127.97Z" fill="white"/>
<path d="M113.213 115.566C113.425 116.195 113.999 116.481 114.49 116.212C114.98 115.942 115.21 115.212 114.998 114.589C114.786 113.961 114.211 113.675 113.721 113.944C113.226 114.213 113 114.943 113.213 115.566Z" fill="white"/>
<path d="M205.382 126.382C205.595 127.01 206.169 127.297 206.66 127.027C207.154 126.758 207.38 126.028 207.168 125.405C206.956 124.782 206.381 124.49 205.891 124.76C205.396 125.029 205.17 125.753 205.382 126.382Z" fill="white"/>
<path d="M230.213 185.567C230.297 185.82 230.527 185.932 230.726 185.825C230.925 185.719 231.013 185.427 230.929 185.174C230.845 184.922 230.615 184.81 230.417 184.916C230.218 185.023 230.129 185.315 230.213 185.567Z" fill="white"/>
<path d="M234.146 187.179C234.23 187.431 234.46 187.543 234.659 187.437C234.858 187.33 234.946 187.038 234.862 186.786C234.778 186.533 234.548 186.421 234.35 186.527C234.155 186.634 234.062 186.926 234.146 187.179Z" fill="white"/>
<path d="M231.813 179.674C231.985 180.173 232.44 180.404 232.833 180.19C233.227 179.977 233.408 179.393 233.24 178.894C233.072 178.394 232.612 178.164 232.219 178.377C231.826 178.591 231.645 179.174 231.813 179.674Z" fill="white"/>
<path d="M337.85 192.842C337.673 193.442 337.907 194.116 338.385 194.34C338.857 194.57 339.388 194.262 339.564 193.661C339.746 193.061 339.503 192.387 339.03 192.157C338.557 191.938 338.031 192.241 337.85 192.842Z" fill="white"/>
<path d="M300.303 116.823C300.126 117.424 300.36 118.098 300.838 118.322C301.31 118.547 301.841 118.243 302.018 117.643C302.194 117.042 301.956 116.369 301.483 116.144C301.01 115.92 300.484 116.223 300.303 116.823Z" fill="white"/>
<path d="M270.758 125.826C270.581 126.427 270.815 127.1 271.293 127.325C271.766 127.55 272.296 127.246 272.477 126.646C272.654 126.045 272.415 125.372 271.942 125.147C271.465 124.923 270.939 125.226 270.758 125.826Z" fill="white"/>
<path d="M272.348 177.289C272.176 177.861 272.406 178.501 272.857 178.714C273.307 178.927 273.811 178.641 273.979 178.069C274.151 177.496 273.921 176.856 273.471 176.643C273.02 176.43 272.516 176.722 272.348 177.289Z" fill="white"/>
<path d="M275.804 86.9858C275.636 87.5583 275.861 88.1982 276.312 88.4115C276.762 88.6247 277.266 88.3385 277.434 87.766C277.606 87.1935 277.377 86.5537 276.926 86.3404C276.48 86.1271 275.976 86.419 275.804 86.9858Z" fill="white"/>
<path d="M308.94 85.4316C308.839 85.774 308.971 86.1556 309.245 86.2847C309.515 86.4138 309.82 86.2398 309.921 85.8974C310.023 85.5551 309.886 85.1734 309.616 85.0387C309.342 84.9152 309.042 85.0892 308.94 85.4316Z" fill="white"/>
<path d="M339.301 159.412C339.2 159.755 339.336 160.136 339.606 160.265C339.876 160.395 340.176 160.221 340.278 159.878C340.379 159.536 340.242 159.154 339.973 159.025C339.703 158.896 339.403 159.07 339.301 159.412Z" fill="white"/>
<path d="M312.739 143.842C312.637 144.185 312.774 144.566 313.044 144.701C313.313 144.83 313.614 144.656 313.715 144.314C313.817 143.971 313.68 143.59 313.41 143.461C313.141 143.326 312.84 143.5 312.739 143.842Z" fill="white"/>
<path d="M279.737 118.109C279.635 118.451 279.772 118.838 280.042 118.967C280.311 119.097 280.612 118.923 280.718 118.58C280.819 118.238 280.682 117.856 280.413 117.727C280.139 117.592 279.838 117.761 279.737 118.109Z" fill="white"/>
<path d="M288.672 133.004C288.571 133.347 288.708 133.729 288.977 133.863C289.247 133.992 289.547 133.818 289.649 133.476C289.75 133.134 289.614 132.752 289.344 132.623C289.079 132.488 288.774 132.662 288.672 133.004Z" fill="white"/>
</g>
<defs>
<clipPath id="clip0">
<rect width="375" height="140" fill="white"/>
</clipPath>
<clipPath id="clip1">
<rect width="375" height="143" fill="white" transform="translate(-1 213)"/>
</clipPath>
<clipPath id="clip2">
<rect width="375" height="143" fill="white" transform="translate(0 85)"/>
</clipPath>
</defs>
</svg>
