<svg width="1440" height="432" viewBox="0 0 1440 432" fill="none" xmlns="http://www.w3.org/2000/svg">
<g style="mix-blend-mode:multiply" opacity="0.28">
<path fill-rule="evenodd" clip-rule="evenodd" d="M1121.03 153.566V168.185H1098.85V147.255L1088.52 141.861V114.848H1092.43V109.454H1076.18V84.6536H1049V43.8587H1042.04V84.6536H1014.86V109.454H998.604V114.848H1002.52V141.861H990.15V147.255H992.186V171.57H963.126V40.9458V40.8514V28.8085H913.026V40.8514H876.196V143.344H817.688V104.262H819.74V98.8677H807.354V71.842H811.27V66.4611H795.016V41.6471H767.836V0.865723H760.874V41.6471H733.695V66.4611H717.44V71.842H721.356V98.8677H708.987V104.262H711.038V201.509L650.836 220.403V106.824L639.601 65.9756H626.112V5.6667H620.223V65.9756H542.507L531.163 106.824V84.6536H504.357V43.8587H497.271V84.6536H469.61V109.454H453.075V114.848H457.053V141.861H444.451V147.255H446.548V171.57H416.96V28.8085H365.974V40.8514H328.492V143.344H298.035V65.9716H257.522L246.178 106.82V84.6496H219.372V43.8548H212.285V84.6496H184.624V109.45H168.09V114.844H172.068V141.857H159.465V147.251H161.563V171.566H131.975V28.8045H80.9886V40.8474H43.5219V143.34H-1V431.035H246.178V430.846H283.985V431.039H531.163V430.85H627.884H642.212H648.272H654.535H655.125H661.17H668.023H674.084H680.937H686.998H693.851H699.911H711.038H716.306H815.109V431.039H915.869H932.59H992.186H1019.26H1076.33H1098.85H1181.84V431.035H1388.14V430.846H1440V65.9716H1399.49L1388.14 106.82V84.6496H1361.34V43.8548H1354.25V84.6496H1326.59V109.45H1310.05V114.844H1314.03V141.857H1301.45V147.251H1303.53V171.566H1273.96V28.8045H1222.95V40.8474H1185.49V143.34H1140.96V153.566H1121.03Z" fill="#00B4AF"/>
</g>
</svg>
